<svg width="160" height="80" viewBox="0 0 160 80" fill="none" xmlns="http://www.w3.org/2000/svg">
<g clip-path="url(#clip0_9217_13)">
<path d="M89.85 46.7701H86.2V39.7201H106.59V46.5301C105.53 46.6101 104.48 46.7001 103.37 46.7901V60.2601H89.92C89.9 60.1001 89.89 59.9301 89.86 59.7301C88.74 59.8701 87.65 60.0601 86.54 60.1301C79.31 60.6201 72.61 59.1801 66.75 54.6601C57.64 47.6301 57.92 35.0601 64.5 27.8801C68.71 23.2901 73.94 20.7501 80.08 20.0201C85.01 19.4401 89.87 19.7801 94.58 21.5001C95.1 21.6901 95.64 21.8301 96.26 22.0201C96.51 21.4101 96.77 20.8201 96.98 20.2101C97.1 19.8701 97.28 19.7701 97.63 19.7701C99.51 19.7901 101.39 19.7701 103.3 19.7701V37.4201C103.16 37.4301 103 37.4501 102.84 37.4501C100.81 37.4501 98.77 37.4401 96.74 37.4601C96.32 37.4601 96.16 37.3101 96.03 36.9501C95.59 35.7801 95.07 34.6501 94.64 33.4801C93.68 30.8201 91.75 29.2601 89.14 28.4101C87.04 27.7201 84.89 27.5801 82.74 28.0701C80.01 28.6901 78.18 30.4101 77.27 33.0101C75.68 37.5301 75.66 42.1101 76.94 46.7101C77.86 50.0101 80.18 51.6201 83.44 52.0901C85.63 52.4101 87.75 52.1201 89.86 51.4201V46.7601L89.85 46.7701Z" fill="white"/>
<path d="M6.42 43.7705C6.42 45.8805 6.39 47.9805 6.43 50.0905C6.45 50.9305 6.79 51.1605 7.84 51.2105C8.23 51.2305 8.48 51.3105 8.49 51.7705C8.49 52.3605 8.39 52.4805 7.78 52.4805C5.41 52.4805 3.04 52.4805 0.67 52.4805C0.26 52.4805 -2.29105e-07 52.4105 -0.0100002 51.9105C-0.0100002 51.4205 0.13 51.2105 0.65 51.2005C1.74 51.1705 2 50.9305 2.05 49.8305C2.1 48.7105 2.1 47.5905 2.1 46.4705C2.1 43.0605 2.1 39.6405 2.1 36.2305C2.1 35.7305 2.07 35.2205 2.02 34.7205C1.96 34.1005 1.7 33.8405 1.07 33.7505C0.89 33.7305 0.7 33.7005 0.51 33.7005C0.0399998 33.7005 -0.0100002 33.4005 -0.0100002 33.0205C-0.0100002 32.6405 0.0799997 32.4005 0.52 32.4105C3.52 32.4505 6.52 32.4405 9.52 32.5305C11.6 32.5905 13.24 33.4905 14.08 35.4805C14.96 37.5705 14.92 39.6605 13.58 41.5405C13.08 42.2405 12.28 42.7205 11.56 43.3605C11.62 43.4705 11.74 43.7105 11.88 43.9505C13.03 46.0005 14.17 48.0405 15.32 50.0905C15.63 50.6405 15.97 51.1105 16.67 51.2305C17.15 51.3105 17.02 51.7705 16.97 52.0605C16.94 52.2205 16.67 52.4505 16.5 52.4505C14.99 52.4805 13.48 52.4905 11.97 52.4505C11.76 52.4505 11.48 52.1505 11.35 51.9305C9.89 49.3305 8.46 46.7205 7.01 44.1205C6.91 43.9305 6.7 43.8005 6.55 43.6405C6.5 43.6805 6.45 43.7305 6.41 43.7705H6.42ZM6.27 38.0505C6.27 39.3905 6.28 40.7305 6.27 42.0705C6.27 42.5005 6.44 42.6605 6.86 42.6805C8.21 42.7205 9.47 41.9405 9.94 40.6105C10.56 38.8505 10.57 37.0405 9.82 35.3205C9.3 34.1205 8.41 33.3305 6.95 33.4505C6.46 33.4905 6.25 33.6205 6.26 34.1405C6.29 35.4405 6.26 36.7505 6.26 38.0505H6.27Z" fill="white"/>
<path d="M152.89 39.1502C154.16 38.0602 155.46 37.7002 156.91 38.3902C157.8 38.8102 158.5 39.4802 158.9 40.3602C160.55 44.0102 160.38 47.5802 158.14 50.9302C157.08 52.5002 155.46 53.2002 153.56 52.7802C152.81 52.6202 152.14 52.1202 151.3 51.7102C151.04 51.9302 150.63 52.3202 150.17 52.6102C149.92 52.7702 149.54 52.8702 149.26 52.8002C149.12 52.7702 148.99 52.3202 148.99 52.0602C148.97 46.5002 148.98 40.9502 148.98 35.3902C148.98 35.0902 148.98 34.7902 148.96 34.5002C148.93 34.0602 148.74 33.7402 148.26 33.7202C147.66 33.6902 147.73 33.2602 147.74 32.8702C147.75 32.4102 148.08 32.4102 148.41 32.4102C149.68 32.4102 150.95 32.4202 152.21 32.4102C152.71 32.4102 152.91 32.5802 152.9 33.1002C152.88 34.8902 152.9 36.6802 152.9 38.4702C152.9 38.6502 152.9 38.8402 152.9 39.1402L152.89 39.1502ZM152.89 45.4802C152.89 45.4802 152.9 45.4802 152.91 45.4802C152.91 46.6902 152.87 47.9102 152.93 49.1102C152.96 49.6302 153.11 50.1902 153.36 50.6402C153.78 51.3802 154.73 51.3302 155.12 50.5802C155.34 50.1602 155.54 49.6802 155.57 49.2102C155.66 47.1502 155.72 45.0802 155.72 43.0202C155.72 42.4202 155.52 41.8102 155.34 41.2302C155.2 40.7902 154.92 40.4202 154.39 40.4102C153.75 40.4002 152.9 41.2502 152.9 41.9002C152.9 43.0902 152.9 44.2902 152.9 45.4802H152.89Z" fill="white"/>
<path d="M125.69 35.7103C125.69 36.7403 125.69 37.7603 125.69 38.7903C125.69 39.1503 125.63 39.4203 125.2 39.4503C124.78 39.4803 124.55 39.3303 124.46 38.8903C124.19 37.5103 123.7 36.2403 122.69 35.2203C121.11 33.6203 118.96 33.6203 117.38 35.2203C116.35 36.2603 115.91 37.5803 115.65 38.9703C115.12 41.7603 115.25 44.5303 115.97 47.2803C116.08 47.6903 116.24 48.1003 116.42 48.4803C117.56 50.9003 120.24 51.6303 122.4 50.0303C123.19 49.4403 123.79 48.6003 124.48 47.8603C124.58 47.7503 124.63 47.5903 124.75 47.5103C124.87 47.4203 125.04 47.3303 125.18 47.3503C125.28 47.3703 125.42 47.5603 125.43 47.6803C125.44 48.6103 125.51 49.4703 124.8 50.3303C121.41 54.4203 115.04 53.3803 112.46 49.4003C109.64 45.0503 110.08 38.5703 113.54 34.7003C115.98 31.9603 119.37 31.2803 122.67 32.8703C122.91 32.9803 123.14 33.1003 123.38 33.2003C124.12 33.5203 124.34 33.4103 124.48 32.6203C124.55 32.2503 124.64 31.9903 125.1 32.0003C125.53 32.0103 125.71 32.1603 125.7 32.6003C125.68 33.6403 125.7 34.6903 125.7 35.7303L125.69 35.7103Z" fill="white"/>
<path d="M142.24 51.6997C141.58 52.0697 140.96 52.5497 140.25 52.7597C138.7 53.2297 137.17 52.3997 136.69 50.7097C136.35 49.5297 136.3 48.2497 136.26 47.0097C136.19 45.0397 136.24 43.0597 136.23 41.0797C136.23 40.4397 136.26 39.7897 135.36 39.6297C135.23 39.6097 135.13 39.0697 135.13 38.7697C135.13 38.6597 135.43 38.4497 135.6 38.4497C136.94 38.4197 138.29 38.4497 139.63 38.4297C140.11 38.4297 140.17 38.6997 140.17 39.0797C140.17 40.5697 140.17 42.0597 140.17 43.5597C140.17 45.3497 140.19 47.1397 140.2 48.9297C140.2 49.0597 140.18 49.2097 140.23 49.3197C140.37 49.6197 140.49 50.0397 140.73 50.1497C140.91 50.2297 141.34 49.9597 141.55 49.7397C142.03 49.2397 142.29 48.6497 142.27 47.8897C142.21 45.5997 142.25 43.2997 142.24 41.0097C142.24 40.3897 142.21 39.8297 141.39 39.6697C140.95 39.5797 141.11 39.1097 141.14 38.7997C141.16 38.6597 141.43 38.4497 141.59 38.4497C142.95 38.4197 144.31 38.4397 145.67 38.4297C146.02 38.4297 146.18 38.5897 146.18 38.9397C146.18 39.4597 146.18 39.9797 146.18 40.5097C146.18 43.4397 146.18 46.3697 146.18 49.2897C146.18 49.6597 146.23 50.0297 146.24 50.4097C146.25 50.8697 146.47 51.1497 146.92 51.2197C147.45 51.3097 147.32 51.7197 147.33 52.0497C147.33 52.4397 147.07 52.4797 146.76 52.4797C145.57 52.4797 144.37 52.4797 143.18 52.4797C142.593 52.4797 142.277 52.2197 142.23 51.6997H142.24Z" fill="white"/>
<path d="M45.19 50.9195C44.72 51.2695 44.26 51.6595 43.77 51.9795C43.1 52.3995 42.36 52.6795 41.54 52.5195C40.23 52.2695 39.38 50.9695 39.46 49.4195C39.53 48.1195 40.01 46.9895 41.01 46.1895C42.16 45.2695 43.39 44.4695 44.61 43.6595C44.92 43.4495 45.1 43.2695 45.07 42.8695C45.02 42.1995 45.05 41.5295 45 40.8595C44.94 40.0095 44.34 39.6095 43.52 39.8195C42.86 39.9895 42.77 40.2995 43.08 40.9195C43.32 41.3895 43.56 41.9195 43.57 42.4195C43.59 43.5995 42.67 44.4395 41.59 44.3695C40.46 44.2895 39.58 43.2395 39.66 42.0395C39.75 40.7495 40.35 39.7195 41.4 38.9995C42.67 38.1095 44.11 37.7795 45.65 37.9995C47.52 38.2695 48.86 39.7195 48.91 41.6195C48.98 44.0195 48.97 46.4295 48.99 48.8295C48.99 49.1795 48.99 49.5295 48.99 50.0095C49.18 49.8595 49.25 49.7695 49.34 49.7395C49.54 49.6695 49.85 49.5295 49.93 49.6095C50.13 49.8095 50.39 50.1495 50.33 50.3595C49.94 51.8495 48.25 52.8295 46.79 52.4795C46.06 52.2995 45.76 52.0195 45.17 50.9195H45.19ZM45.07 45.4695C45.01 45.4395 44.95 45.3995 44.89 45.3695C44.46 45.9595 43.98 46.5295 43.6 47.1595C43.29 47.6795 43.2 48.2895 43.45 48.8795C43.59 49.2095 43.81 49.5095 44.2 49.3995C44.6 49.2895 45.05 49.1295 45.06 48.5895C45.08 47.5495 45.06 46.5095 45.06 45.4695H45.07Z" fill="white"/>
<path d="M27.4 45.3597C27.36 47.3897 27.04 49.1397 26.01 50.7097C24.03 53.7497 19.94 53.6797 18.22 50.4997C16.39 47.1197 16.43 43.6497 18.32 40.3097C19.98 37.3797 23.79 37.2597 25.83 39.9997C27.05 41.6397 27.35 43.5697 27.4 45.3597ZM23.45 45.7197H23.3C23.3 44.3897 23.34 43.0697 23.28 41.7497C23.26 41.2497 23.08 40.7197 22.86 40.2597C22.57 39.6497 21.88 39.6297 21.52 40.2097C21.33 40.5097 21.2 40.8897 21.16 41.2497C20.83 43.9997 20.8 46.7597 21.09 49.5097C21.13 49.9397 21.31 50.3897 21.53 50.7597C21.88 51.3397 22.49 51.3197 22.82 50.7297C23 50.4097 23.15 50.0397 23.18 49.6897C23.3 48.3697 23.36 47.0497 23.45 45.7297V45.7197Z" fill="white"/>
<path d="M31.64 56.54C31.83 56.19 32.01 55.95 32.1 55.68C32.42 54.77 32.71 53.84 33 52.92C33.05 52.76 33.03 52.55 32.97 52.38C31.74 48.77 30.5 45.16 29.25 41.55C28.99 40.8 28.73 40.05 27.94 39.61C27.77 39.51 27.77 39.01 27.79 38.7C27.79 38.6 28.13 38.45 28.32 38.45C30.02 38.43 31.71 38.45 33.41 38.44C33.75 38.44 34.01 38.5 34.01 38.91C34.01 39.26 34.1 39.66 33.57 39.72C32.97 39.78 32.93 40.17 33.07 40.61C33.45 41.84 33.86 43.06 34.26 44.27C34.47 44.92 34.7 45.56 35.07 46.2C35.53 44.5 36.01 42.8 36.43 41.09C36.66 40.15 36.53 39.99 35.61 39.71C35.14 39.56 35.25 39.17 35.3 38.87C35.33 38.71 35.59 38.46 35.75 38.46C36.83 38.42 37.91 38.43 38.99 38.46C39.16 38.46 39.45 38.68 39.45 38.8C39.45 39.1 39.38 39.6 39.21 39.66C38.62 39.86 38.4 40.3 38.25 40.8C37.44 43.41 36.65 46.03 35.83 48.65C35.06 51.12 34.29 53.59 33.48 56.05C33.28 56.66 32.97 57.26 32.59 57.78C31.71 58.97 30.13 59.14 29.09 58.23C28.01 57.29 27.88 55.32 28.83 54.34C29.64 53.51 30.92 53.75 31.32 54.86C31.5 55.34 31.52 55.88 31.65 56.56L31.64 56.54Z" fill="white"/>
<path d="M132.46 41.5702C132.46 44.1602 132.46 46.7502 132.46 49.3402C132.46 49.6902 132.5 50.0502 132.51 50.4002C132.53 50.8802 132.75 51.1802 133.24 51.2202C133.8 51.2602 133.76 51.6502 133.75 52.0302C133.74 52.4402 133.47 52.4902 133.14 52.4902C131.39 52.4902 129.64 52.4902 127.88 52.4902C127.56 52.4902 127.26 52.4702 127.26 52.0502C127.26 51.6902 127.16 51.2802 127.74 51.2202C128.25 51.1702 128.48 50.8402 128.49 50.3402C128.49 50.0002 128.52 49.6702 128.52 49.3302C128.52 44.7602 128.52 40.2002 128.52 35.6302C128.52 35.3302 128.5 35.0302 128.49 34.7402C128.48 34.1802 128.31 33.7702 127.66 33.7002C127.12 33.6502 127.22 33.1902 127.28 32.8802C127.32 32.7002 127.6 32.4502 127.77 32.4502C129.15 32.4102 130.53 32.4402 131.91 32.4302C132.33 32.4302 132.46 32.6402 132.46 33.0202C132.46 34.0102 132.46 35.0002 132.46 35.9802C132.46 37.8402 132.46 39.7102 132.46 41.5702Z" fill="white"/>
<path d="M57.11 41.5204C57.11 44.1504 57.11 46.7804 57.11 49.4104C57.11 49.7104 57.14 50.0104 57.15 50.3004C57.16 50.8304 57.36 51.1804 57.96 51.2304C58.48 51.2704 58.33 51.7004 58.35 52.0104C58.37 52.3404 58.2 52.4804 57.88 52.4804C56.11 52.4804 54.34 52.4904 52.56 52.4604C52.39 52.4604 52.11 52.2104 52.07 52.0304C52 51.7304 51.94 51.3004 52.43 51.2404C53.11 51.1604 53.27 50.7104 53.27 50.1404C53.27 48.1804 53.28 46.2204 53.29 44.2704C53.29 41.3804 53.29 38.4904 53.29 35.6004C53.29 35.2604 53.28 34.9304 53.25 34.5904C53.22 34.1104 53.02 33.7804 52.49 33.7304C51.96 33.6804 52.05 33.2704 52.05 32.9204C52.05 32.5204 52.31 32.4404 52.65 32.4404C53.94 32.4404 55.22 32.4604 56.51 32.4404C57.04 32.4404 57.12 32.7004 57.12 33.1404C57.12 35.9404 57.12 38.7404 57.12 41.5304L57.11 41.5204Z" fill="white"/>
</g>
<defs>
<clipPath id="clip0_9217_13">
<rect width="160" height="80" fill="white"/>
</clipPath>
</defs>
</svg>
