<svg width="101" height="100" viewBox="0 0 101 100" fill="none" xmlns="http://www.w3.org/2000/svg">
<g clip-path="url(#clip0)">
<path d="M51.8074 49.5424C67.6888 49.5424 83.4551 49.5424 99.3364 49.5424C100.315 55.9295 98.3582 64.9635 95.7113 71.7533C89.6695 85.1604 80.2327 94.8848 65.5598 98.625C56.8711 100.812 48.0673 100.754 39.3786 98.8552C30.2295 96.2658 20.1598 90.0514 17.2252 87.1743C14.5783 84.5275 11.9314 81.9381 9.74488 78.946C2.14945 68.4735 -0.842685 56.62 0.883548 43.9034C3.53044 24.397 14.2331 10.6447 32.5887 3.50956C50.2538 -3.33783 76.4926 -1.09373 92.5466 17.7798C88.4611 22.0953 84.3182 26.3534 80.4629 30.4388C76.6077 27.6768 73.0401 24.5696 69.0122 22.3255C52.3253 13.0038 30.9776 18.873 22.519 35.1572C12.2767 54.9513 24.3603 77.9678 45.8807 82.1107C53.246 83.4917 60.4961 83.0889 67.286 79.6365C72.6949 76.8745 76.2049 72.3863 78.9669 66.7472C69.7603 66.7472 60.8414 66.7472 51.7499 66.7472C51.8074 60.8781 51.8074 55.239 51.8074 49.5424Z" fill="white"/>
</g>
<defs>
<clipPath id="clip0">
<rect width="100" height="100" fill="white" transform="translate(0.42334)"/>
</clipPath>
</defs>
</svg>
