<svg width="160" height="80" viewBox="0 0 160 80" fill="none" xmlns="http://www.w3.org/2000/svg">
<path d="M1.97476 46.7139C2.32922 46.4155 2.709 46.2598 3.03814 46.0392C3.36728 45.8187 3.74706 45.5981 4.10151 45.3906C4.45597 45.183 4.82309 44.9494 5.19021 44.7289C5.55733 44.5083 5.88647 44.2878 6.24093 44.0802C6.59539 43.8726 6.9625 43.665 7.3043 43.4315C7.6461 43.198 8.0512 43.0942 8.35502 42.7439C7.87397 42.5882 7.44355 42.4455 7.0258 42.3028C6.58273 42.1471 6.13965 41.9655 5.69658 41.7968C5.41808 41.693 5.12691 41.6022 4.84841 41.5114C4.56991 41.4206 4.24077 41.3038 3.93694 41.2C3.51919 41.0573 3.10143 40.9016 2.68368 40.7589C2.26592 40.5903 1.82285 40.4346 1.4051 40.2789C1.30382 40.24 1.18989 40.227 1.08861 40.1751C1.03798 40.1492 1.01266 40.0973 1 40.0454C1 40.0194 1.0633 39.9805 1.10127 39.9546C1.12659 39.9416 1.16457 39.9416 1.18989 39.9416C1.56967 39.9416 1.91147 39.7989 2.27858 39.721C2.51911 39.6691 2.77229 39.6173 3.02548 39.5783C3.81035 39.4356 4.59522 39.2929 5.3801 39.1372C5.67126 39.0853 5.96242 38.9945 6.25359 38.9167C6.2789 38.9037 6.31688 38.9037 6.3422 38.9037C6.67134 38.8518 7.00048 38.8129 7.32962 38.761C7.62078 38.7091 7.91195 38.6183 8.19045 38.5404C8.22843 38.5275 8.26641 38.5275 8.31704 38.5275C8.63352 38.4756 8.95001 38.4366 9.26649 38.3847C9.38042 38.3458 9.49435 38.2939 9.59563 38.242L3.51919 32.2482C3.68376 32.1703 3.87365 32.1574 4.03822 32.2222C4.13949 32.2482 4.25343 32.2741 4.3547 32.3001L5.34212 32.5336C5.51935 32.5725 5.69658 32.6244 5.87381 32.6504C6.16497 32.7023 6.44347 32.7542 6.73464 32.8061C6.92453 32.845 7.10176 32.8969 7.29164 32.9358C7.82333 33.0655 8.35502 33.1953 8.88671 33.312C9.13989 33.3639 9.40574 33.4158 9.65892 33.4677L10.2666 33.5845C10.2792 33.5196 10.2792 33.4547 10.2666 33.3899C10.0767 32.9358 9.86147 32.4947 9.67158 32.0406C9.38042 31.353 9.08926 30.6524 8.79809 29.9518C8.45629 29.1475 8.11449 28.3561 7.7727 27.5517C7.59547 27.1236 7.41824 26.6825 7.24101 26.2414C7.20303 26.1635 7.13973 26.0857 7.11441 26.0078C7.10176 25.93 7.10176 25.8521 7.11441 25.7743C8.3297 26.6825 9.50701 27.5776 10.6843 28.4599C11.8616 29.3421 13.0136 30.2502 14.2542 31.1324C14.2795 31.0546 14.3049 30.9768 14.3049 30.8989C14.2795 30.4578 14.3302 30.0167 14.2036 29.5756C14.1403 29.368 14.1783 29.1215 14.1783 28.901C14.1783 28.6155 14.153 28.3171 14.0897 28.0447C14.0264 27.8112 14.0643 27.5517 14.0517 27.3052C14.0643 27.0457 14.0264 26.7862 13.9631 26.5397C13.8998 26.3711 13.9377 26.1765 13.9251 25.9819C13.8998 25.6316 13.8618 25.2813 13.8238 24.931C13.8112 24.8532 13.8112 24.7623 13.8112 24.6845C13.7858 24.2304 13.8112 23.7763 13.7099 23.3223C13.6972 23.1536 13.6972 22.9979 13.7099 22.8293C13.7858 22.8941 13.8618 22.959 13.9251 23.0368C14.5707 24.0099 15.2037 24.9829 15.8366 25.9689L17.3557 28.3042C17.6216 28.7064 17.8748 29.1085 18.1406 29.5107C18.1659 29.5496 18.2292 29.5496 18.2925 29.5756L19.204 27.902C19.7104 26.9809 20.2167 26.0467 20.7104 25.1256C21.2295 24.1656 21.7485 23.2055 22.2675 22.2454C22.3561 22.0898 22.4448 21.9211 22.546 21.7654C22.5714 21.7265 22.6473 21.6746 22.6853 21.6876C22.7359 21.7135 22.7612 21.7654 22.7739 21.8303C22.7866 22.2454 22.7866 22.6606 22.7992 23.0758C22.8119 23.439 22.8625 23.8023 22.9005 24.1526C22.9005 24.2175 22.9005 24.2823 22.9005 24.3342C22.9511 25.3332 22.9511 26.3451 23.0524 27.3441C23.103 27.8371 23.1284 28.3301 23.1663 28.8231C23.179 28.862 23.1917 28.901 23.217 28.9399C23.2803 28.901 23.3436 28.862 23.4069 28.8101C23.6854 28.5507 23.9639 28.2782 24.2424 28.0058C24.6221 27.6555 25.0019 27.3052 25.3817 26.9549C26.0526 26.3192 26.7362 25.6835 27.4072 25.0607C27.5591 24.918 27.7237 24.7883 27.9262 24.6326C27.9389 24.7105 27.9515 24.7883 27.9515 24.8661C27.8503 25.2813 27.7237 25.6965 27.6224 26.1116C27.5718 26.3062 27.5338 26.5138 27.4831 26.7084C27.3565 27.2144 27.2426 27.7204 27.116 28.2263C27.0654 28.4728 27.0147 28.7323 26.9641 28.9788C26.9261 29.1604 26.8755 29.3291 26.8249 29.5107C26.7109 29.9518 26.5843 30.4059 26.4704 30.847C26.3691 31.2233 26.2932 31.6125 26.2046 31.9887C26.1919 32.0795 26.1919 32.1574 26.2046 32.2482C26.3818 32.352 26.5084 32.1833 26.6476 32.1314C27.1287 31.9368 27.6097 31.7033 28.0781 31.4827L29.2048 30.9638C29.7238 30.7303 30.2429 30.4838 30.7619 30.2502C31.3062 30.0037 31.8506 29.7572 32.3949 29.5107C33.0659 29.1994 33.7368 28.888 34.4204 28.5766C34.4837 28.5636 34.5343 28.5636 34.5976 28.5766C32.7747 30.9768 31.0024 33.338 29.2301 35.7381C29.3947 35.8419 29.5972 35.8938 29.7998 35.8938C30.0783 35.9068 30.3694 35.8938 30.6479 35.9068C30.9264 35.9197 31.2303 35.9457 31.5214 35.9587C32.0784 35.9976 32.6354 36.0365 33.1798 36.0754C34.0786 36.1273 34.9774 36.1662 35.8762 36.2181C36.4585 36.2441 37.0409 36.296 37.6358 36.3219C37.6865 36.3219 37.7371 36.3349 37.7878 36.3479C37.8004 36.4906 37.7118 36.5295 37.6232 36.5814C37.1675 36.8668 36.7117 37.1522 36.2687 37.4506C35.7876 37.762 35.3192 38.0734 34.8508 38.3847C33.99 38.9556 33.1292 39.5135 32.2683 40.0843C31.5468 40.5514 30.8252 41.0184 30.1163 41.4984C30.053 41.5503 30.0023 41.6152 29.9517 41.6801L37.0662 44.7808V44.8327C36.9776 44.8457 36.9016 44.8586 36.813 44.8716C34.8508 45.0013 32.8886 44.9754 30.9264 45.0013C30.534 45.0013 30.1416 45.0273 29.7365 45.0403C29.6479 45.0532 29.5719 45.0662 29.4833 45.0792L32.7494 53.4732L32.6987 53.5251C32.1164 53.1488 31.5214 52.7726 30.9391 52.3834C30.3568 51.9942 29.7618 51.605 29.1668 51.2028C28.5718 50.8006 27.9895 50.4114 27.4072 50.0222C26.8249 49.633 26.2552 49.2178 25.6222 48.8675C25.5589 49.0491 25.5463 49.2437 25.5969 49.4384C25.6222 49.7367 25.6602 50.0351 25.6855 50.3335C25.7108 50.593 25.6602 50.8525 25.7868 51.099C25.7995 51.1249 25.7995 51.1639 25.7995 51.1898C25.8501 51.9812 25.8881 52.7596 25.9387 53.551C25.9514 53.7586 26.0147 53.9532 26.0273 54.1608C26.078 54.9133 26.1286 55.6657 26.1792 56.4182C26.2299 57.0539 26.2932 57.6896 26.3565 58.3383C26.2172 58.4551 26.1539 58.2994 26.1033 58.2345C25.8754 57.9491 25.6602 57.6507 25.445 57.3523C24.9893 56.7685 24.5335 56.1977 24.0905 55.6138C23.8499 55.3025 23.6221 54.9911 23.3815 54.6927C22.9258 54.1089 22.4574 53.5251 22.0017 52.9283C21.7865 52.6429 21.5713 52.3574 21.3561 52.072C21.3054 52.0071 21.2421 51.9552 21.1788 51.9034L19.0647 58.1048C18.9761 57.988 18.9002 57.9232 18.8749 57.8583C18.6976 57.2745 18.5331 56.6777 18.3558 56.0939C18.1786 55.51 17.9507 54.9133 17.7482 54.3294C17.6596 54.057 17.5963 53.7716 17.5077 53.4991C17.3684 53.045 17.2291 52.6039 17.0899 52.1499C17.0519 52.0071 16.9633 51.9812 16.8494 52.085C16.7861 52.1499 16.7228 52.2147 16.6595 52.2926C16.267 52.7726 15.8746 53.2526 15.4822 53.7456C15.1657 54.1478 14.8619 54.563 14.5454 54.9522C13.9757 55.6657 13.3807 56.3793 12.8111 57.0928C12.6338 57.3134 12.4566 57.5469 12.292 57.7675C12.2414 57.8323 12.1781 57.8972 12.0895 58.001C12.0262 57.7804 12.0262 57.5469 12.0895 57.3264C12.1022 57.2615 12.1401 57.2096 12.1528 57.1447C12.2034 56.7555 12.2414 56.3663 12.3047 55.9771C12.368 55.5879 12.444 55.1857 12.5199 54.7965C12.5199 54.7705 12.5326 54.7576 12.5326 54.7316C12.5579 54.3294 12.6085 53.9402 12.6845 53.538C12.7858 53.1229 12.7604 52.7077 12.887 52.2926C12.9883 51.9552 12.9883 51.592 13.0389 51.2547C13.1149 50.7746 13.2035 50.2946 13.2795 49.8276C13.2795 49.8016 13.3048 49.7627 13.3048 49.7367C13.3428 49.4773 13.3681 49.2048 13.4061 48.9064C13.3174 48.9064 13.2415 48.9324 13.1655 48.9583C12.4946 49.2827 11.8237 49.607 11.1527 49.9314C10.3425 50.3206 9.51967 50.7098 8.70948 51.112C7.89929 51.5141 7.07644 51.9423 6.25359 52.3574C5.96242 52.5001 5.6586 52.6169 5.34212 52.7596C5.30414 52.6039 5.39276 52.5261 5.45605 52.4483C5.87381 51.8904 6.29156 51.3325 6.70932 50.7876C7.05112 50.3465 7.39292 49.9184 7.72206 49.4773C8.08918 48.9843 8.44363 48.4913 8.81075 47.9983C9.30446 47.3366 9.81083 46.6879 10.3172 46.0263C10.3805 45.9484 10.4311 45.8446 10.5071 45.7279C10.2539 45.7408 10.0387 45.7538 9.83615 45.7798C9.30446 45.8446 8.76012 45.9225 8.22843 46.0003C8.15247 46.0133 8.06386 46.0133 7.9879 46.0263C7.73472 46.0392 7.48153 46.0003 7.25367 46.143C7.22835 46.156 7.21569 46.156 7.19037 46.156C6.65868 46.2079 6.12699 46.2468 5.5953 46.2987C5.11425 46.3506 4.62054 46.4414 4.13949 46.5193C3.92428 46.5452 3.70908 46.5452 3.50653 46.5712C3.06346 46.636 2.60772 46.7009 2.16465 46.7658C2.08869 46.7528 2.0254 46.7398 1.97476 46.7139ZM29.4453 41.6671L29.8757 41.3946L31.4328 40.3827C31.6354 40.253 31.8379 40.1103 32.0405 39.9805C32.3696 39.76 32.6861 39.5264 33.0152 39.3189C33.5343 38.9815 34.0533 38.6572 34.5723 38.3199C35.3445 37.8139 36.1167 37.3079 36.889 36.802C36.9522 36.7501 37.0029 36.6982 37.0409 36.6333C37.0029 36.6073 36.9902 36.5814 36.9776 36.5814C36.4459 36.5425 35.9142 36.4906 35.3825 36.4517C35.0154 36.4257 34.6483 36.4387 34.2938 36.4127C33.9773 36.3868 33.6482 36.3479 33.3317 36.3219C33.1418 36.309 32.9519 36.3219 32.7494 36.309C32.1544 36.27 31.5594 36.2311 30.9644 36.1922C30.572 36.1662 30.1796 36.1533 29.7871 36.1273C29.5213 36.1143 29.2681 36.0884 29.0022 36.0754C28.9263 36.0754 28.8503 36.0495 28.7491 36.0365C28.787 35.9587 28.8124 35.9197 28.8377 35.8808C29.0276 35.6343 29.2301 35.3748 29.42 35.1283C29.8884 34.4926 30.3568 33.8569 30.8252 33.2212C31.3948 32.4558 31.9645 31.6903 32.5342 30.9378C32.8 30.5746 33.0912 30.2243 33.357 29.874C33.5089 29.6664 33.6862 29.4718 33.7874 29.1734C33.7115 29.1864 33.6355 29.2123 33.5596 29.2383C32.8253 29.5756 32.0911 29.9129 31.3569 30.2502C30.8505 30.4838 30.3441 30.7043 29.8504 30.9378C29.1288 31.2622 28.4073 31.5865 27.6983 31.9238C27.2299 32.1444 26.7742 32.352 26.3058 32.5725C26.1666 32.6374 26.04 32.7152 25.8754 32.6244C25.8628 32.5985 25.8628 32.5596 25.8628 32.5206C25.926 32.2871 25.9767 32.0665 26.04 31.833C26.0906 31.6384 26.1666 31.4438 26.2046 31.2362C26.2678 30.9638 26.2932 30.6913 26.3565 30.4189C26.4577 30.0037 26.5717 29.6015 26.6729 29.1864C26.8249 28.5377 26.9894 27.889 27.1413 27.2403C27.192 27.0457 27.23 26.8381 27.2806 26.6435C27.3819 26.2414 27.4958 25.8521 27.5971 25.4629C27.6097 25.424 27.5844 25.3721 27.5591 25.2943C27.3059 25.5148 27.0654 25.7094 26.8502 25.917C26.521 26.2284 26.2046 26.5397 25.8754 26.8511C25.5463 27.1625 25.2171 27.422 24.9007 27.7204C24.4702 28.1096 24.0651 28.5247 23.6347 28.9269C23.4955 29.0566 23.3436 29.1864 23.2043 29.3031C23.1284 29.355 23.0524 29.394 22.9764 29.4199C22.9638 29.3161 22.9511 29.2383 22.9385 29.1734C22.9005 28.6026 23.0018 28.0317 22.8245 27.4739C22.8119 27.422 22.8119 27.3701 22.8245 27.3182C22.8245 26.929 22.8245 26.5527 22.8119 26.1635C22.8245 26.0857 22.8245 25.9949 22.7992 25.917C22.6473 25.6316 22.7106 25.3332 22.6979 25.0348C22.6726 24.6456 22.66 24.2434 22.6346 23.8542C22.622 23.6855 22.584 23.5298 22.584 23.3612C22.5714 23.1277 22.584 22.8812 22.5713 22.6476C22.5587 22.5828 22.546 22.5179 22.5207 22.466L22.4574 22.453C22.0776 23.0628 21.7738 23.6985 21.4194 24.3212C21.0649 24.944 20.7231 25.5667 20.394 26.1895C20.0648 26.8122 19.7104 27.4609 19.3686 28.0836C19.0268 28.7064 18.685 29.3421 18.3052 30.0037C17.9127 29.6145 17.7102 29.1475 17.419 28.7583C17.1279 28.369 16.862 27.9279 16.5962 27.4998C16.3303 27.0717 16.0518 26.6565 15.786 26.2284C15.5202 25.8002 15.229 25.3981 14.9631 24.9699C14.7859 24.6845 14.2036 23.8542 14.0517 23.7634C14.0517 23.8931 14.0517 23.9839 14.0517 24.0877C14.0517 24.5158 14.0897 24.957 14.153 25.3851C14.2289 25.8781 14.1909 26.3711 14.2669 26.8641C14.3428 27.3571 14.3049 27.915 14.4061 28.4339C14.4694 28.8101 14.4568 29.1994 14.4821 29.5756C14.5074 29.861 14.5327 30.1335 14.558 30.4059C14.596 30.7692 14.6213 31.1454 14.6593 31.5217C14.6593 31.5476 14.634 31.5735 14.596 31.6644C14.2416 31.4308 13.9377 31.1584 13.6086 30.9249C13.2795 30.6913 12.9377 30.4448 12.6212 30.1983C12.3047 29.9518 11.9629 29.6924 11.6338 29.4329C11.3046 29.1734 10.9755 28.9269 10.6337 28.6804L9.60828 27.9539C9.27915 27.7074 8.96266 27.4479 8.63352 27.2274C8.30438 27.0068 8.00056 26.6954 7.58281 26.4619C7.59547 26.5397 7.60812 26.6176 7.63344 26.6954C7.87397 27.2403 8.11449 27.7852 8.34236 28.3301C8.62086 28.9788 8.87405 29.6405 9.15255 30.2891C9.38042 30.847 9.6336 31.4049 9.87413 31.9498C10.1147 32.4947 10.3552 33.0655 10.583 33.6234C10.6084 33.7142 10.621 33.805 10.621 33.8958C10.4818 33.8699 10.3678 33.8439 10.2666 33.818C9.98806 33.7661 9.70956 33.7272 9.44371 33.6623C9.17787 33.5974 8.92469 33.5066 8.65884 33.4418C8.16513 33.338 7.67142 33.2342 7.19037 33.1304C6.26625 32.9228 5.32946 32.7152 4.40534 32.5206C4.34204 32.5206 4.27874 32.5206 4.22811 32.5336L4.19013 32.6114C4.2914 32.7023 4.40534 32.7931 4.50661 32.8839C4.93702 33.2991 5.3801 33.7142 5.81051 34.1423C6.41816 34.7391 7.01314 35.3359 7.62078 35.9327C8.30438 36.6073 8.97532 37.295 9.65892 37.9696C9.7602 38.0734 9.88679 38.1512 9.9754 38.255C10.064 38.3588 10.026 38.4496 9.89945 38.4756C9.45637 38.5664 9.0133 38.6442 8.57023 38.735C8.12715 38.8259 7.68408 38.9167 7.22835 39.0075C6.98782 39.0594 6.75996 39.1113 6.51943 39.1632C6.21561 39.2151 5.89913 39.241 5.5953 39.3189C5.20287 39.4097 4.82309 39.5394 4.418 39.5654C4.38002 39.5654 4.34204 39.5783 4.30406 39.5913L3.36728 39.7989C3.16473 39.8378 2.96218 39.8897 2.74698 39.9286C2.44315 39.9805 2.13933 40.0324 1.83551 40.0973C1.82285 40.0973 1.82285 40.1362 1.82285 40.1751C2.35454 40.3697 2.89889 40.5773 3.44323 40.7589C4.0762 40.9795 4.72182 41.1871 5.35478 41.4076C5.77253 41.5503 6.17763 41.732 6.58273 41.8747C7.25367 42.1082 7.92461 42.3288 8.59555 42.5623C8.69682 42.6142 8.79809 42.6661 8.89937 42.7439C8.77278 42.8218 8.70948 42.8737 8.62086 42.9255C7.86131 43.3796 7.10176 43.8337 6.3422 44.3008C5.3168 44.9235 4.27874 45.5592 3.25335 46.1819C3.17739 46.2338 3.11409 46.2987 3.06346 46.3636C3.12675 46.3895 3.15207 46.4025 3.16473 46.4025C3.45589 46.2598 3.77237 46.2987 4.08886 46.2857C4.16481 46.2857 4.22811 46.2728 4.2914 46.2598C4.43065 46.2338 4.55725 46.1949 4.6965 46.1819C4.88639 46.169 5.10159 46.2079 5.26616 46.143C5.50669 46.0392 5.73456 46.0652 5.97508 46.0392C6.08902 46.0263 6.20295 46.0263 6.30422 46.0133C6.75996 45.9484 7.21569 45.8706 7.67142 45.8057C7.96258 45.7668 8.26641 45.7798 8.57023 45.7019C8.97532 45.5981 9.40574 45.5981 9.83615 45.5462C10.064 45.5203 10.2919 45.4943 10.5198 45.4554C10.6843 45.4035 10.8615 45.4165 11.0261 45.4684L5.97508 52.1369L6.01306 52.1888C8.54491 50.9563 11.0641 49.6849 13.6466 48.4523C13.6466 48.647 13.6846 48.8026 13.6339 48.9324C13.4947 49.3086 13.52 49.7238 13.4314 50.113C13.3428 50.5022 13.3301 50.8914 13.2795 51.2806C13.2162 51.7347 13.1276 52.1758 13.0516 52.6299C12.9756 53.058 12.925 53.4861 12.8491 53.9143C12.7731 54.3684 12.6971 54.8224 12.6338 55.2765C12.5832 55.6268 12.5452 55.9771 12.4946 56.3144C12.4946 56.3404 12.4819 56.3533 12.4819 56.3793C12.33 56.6258 12.4313 56.8982 12.3807 57.1707C13.1909 56.2495 13.9377 55.2895 14.71 54.3424L17.0519 51.4363C17.1152 51.592 17.1659 51.6958 17.2038 51.8125C17.2671 52.0201 17.3178 52.2277 17.3811 52.4353C17.5836 53.071 17.7988 53.7067 18.0014 54.3424C18.052 54.524 18.1153 54.6927 18.1659 54.8614C18.3558 55.4322 18.5331 55.9901 18.7229 56.5609C18.8116 56.8334 18.8495 57.1318 19.0647 57.3912C19.3306 56.6258 19.5838 55.8863 19.8496 55.1468C20.0901 54.4592 20.3307 53.7716 20.5585 53.084C20.7231 52.591 20.8877 52.085 21.0522 51.579C21.0649 51.5401 21.1029 51.5012 21.1535 51.4882C21.2042 51.4882 21.2548 51.5141 21.2801 51.5401C21.4953 51.8255 21.7105 52.1109 21.9257 52.3964C22.3055 52.9023 22.6979 53.4083 23.0777 53.9143C23.5335 54.5111 24.0018 55.1079 24.4702 55.7047C24.9639 56.3404 25.4703 56.9761 25.9767 57.6118C25.9893 57.6248 26.0273 57.6377 26.0906 57.6637C26.1159 57.4172 26.1033 57.1577 26.0653 56.9112C26.0273 56.7685 26.002 56.6258 26.002 56.4831C25.9893 56.1717 25.9893 55.8603 25.964 55.549C25.9387 55.2376 25.8881 54.9133 25.8628 54.5889C25.8374 54.3294 25.9007 54.07 25.7615 53.8235C25.7362 53.7586 25.7362 53.6808 25.7488 53.6159C25.7488 53.3305 25.7488 53.058 25.7362 52.7726C25.7235 52.6688 25.7108 52.565 25.6982 52.4612C25.6729 52.3315 25.6475 52.2018 25.6349 52.072C25.5842 51.2676 25.5463 50.4633 25.4956 49.6589C25.4956 49.607 25.483 49.5551 25.4703 49.5032C25.3437 49.1659 25.4197 48.8026 25.3564 48.4653C25.3564 48.4523 25.3817 48.4394 25.4197 48.4134C25.483 48.4264 25.5336 48.4523 25.5969 48.4913C26.1539 48.8545 26.7109 49.2308 27.2679 49.594L29.977 51.3974C30.6479 51.8515 31.3189 52.3055 32.0025 52.7466C32.0911 52.7985 32.1797 52.8894 32.3063 52.8504C32.319 52.8115 32.319 52.7596 32.3063 52.7207C32.1038 52.1758 31.8886 51.6309 31.6733 51.086C31.3315 50.2038 30.9771 49.3346 30.6353 48.4523C30.2682 47.5312 29.9011 46.5971 29.5339 45.676C29.458 45.4943 29.3947 45.3127 29.3187 45.1311C29.2428 45.0013 29.2681 44.8327 29.3694 44.7289C30.4707 44.7289 31.5974 44.7289 32.7241 44.7289C33.8507 44.7289 34.9774 44.7289 36.1167 44.677C35.8256 44.3656 35.4078 44.3137 35.066 44.1321C34.7242 43.9505 34.3191 43.8078 33.952 43.6521C33.5849 43.4964 33.2304 43.3407 32.8633 43.185L31.762 42.705C31.3948 42.5493 31.0151 42.4066 30.6479 42.225C30.2808 42.0433 29.8251 41.9525 29.4453 41.6671Z" fill="#BE8204"/>
<path d="M29.4453 41.6671C29.8251 41.9525 30.2175 42.0434 30.5846 42.212C30.9518 42.3807 31.3189 42.5364 31.6987 42.692L32.8 43.1721C33.1671 43.3278 33.5216 43.4834 33.8887 43.6391C34.2558 43.7948 34.6483 43.9246 35.0027 44.1192C35.3572 44.3138 35.7623 44.3527 36.0534 44.6641C34.9141 44.7289 33.7874 44.7159 32.6608 44.7159C31.5341 44.7159 30.4201 44.7159 29.3061 44.7159C29.2048 44.8327 29.1921 44.9884 29.2554 45.1181C29.3187 45.2998 29.3947 45.4814 29.4706 45.663C29.8377 46.5842 30.2049 47.5183 30.572 48.4394C30.9138 49.3216 31.2682 50.1909 31.61 51.0731C31.8252 51.618 32.0405 52.1629 32.243 52.7078C32.2557 52.7467 32.2557 52.7986 32.243 52.8375C32.1038 52.8764 32.0151 52.7856 31.9392 52.7337C31.2682 52.2926 30.5973 51.8385 29.9137 51.3844L27.2046 49.5941C26.6476 49.2308 26.0906 48.8546 25.5336 48.4913C25.483 48.4653 25.4197 48.4394 25.3564 48.4135C25.3311 48.4394 25.2931 48.4654 25.2931 48.4654C25.3437 48.8027 25.2678 49.1659 25.407 49.5032C25.4197 49.5551 25.4323 49.607 25.4323 49.6589C25.483 50.4633 25.5209 51.2677 25.5716 52.072C25.5842 52.2018 25.6096 52.3315 25.6349 52.4613C25.6602 52.565 25.6729 52.6688 25.6729 52.7856C25.6855 53.071 25.6855 53.3435 25.6855 53.6289C25.6729 53.7067 25.6855 53.7716 25.6982 53.8365C25.8374 54.083 25.7741 54.3424 25.7994 54.5889C25.8248 54.9133 25.8754 55.2247 25.9007 55.549C25.926 55.8733 25.9134 56.1717 25.9387 56.4831C25.9514 56.6258 25.964 56.7685 26.002 56.9112C26.0526 57.1577 26.0526 57.4172 26.0273 57.6637C25.964 57.6378 25.926 57.6248 25.9134 57.6118C25.407 56.9761 24.9133 56.3404 24.4069 55.7047C23.9385 55.1079 23.4701 54.5111 23.0144 53.9143C22.622 53.4083 22.2422 52.9024 21.8624 52.3964C21.6472 52.111 21.432 51.8255 21.2168 51.5401C21.1915 51.5012 21.1408 51.4753 21.0902 51.4882C21.0522 51.5012 21.0143 51.5401 21.0016 51.592C20.837 52.085 20.6851 52.591 20.5079 53.097C20.28 53.7846 20.0395 54.4722 19.799 55.1598C19.5458 55.8993 19.2799 56.6388 19.0141 57.4042C18.7989 57.1577 18.7736 56.8593 18.6723 56.5739C18.4824 56.0161 18.2925 55.4452 18.1153 54.8744C18.0646 54.6927 18.0014 54.5241 17.9507 54.3554C17.7482 53.7197 17.533 53.084 17.3304 52.4483C17.2671 52.2407 17.2165 52.0331 17.1532 51.8255C17.1152 51.7088 17.0646 51.605 17.0013 51.4493L14.6973 54.3424C13.9377 55.2895 13.1782 56.2366 12.368 57.1707C12.4186 56.8983 12.3174 56.6258 12.4693 56.3793C12.4819 56.3663 12.4819 56.3404 12.4819 56.3144C12.5326 55.9642 12.5705 55.6139 12.6212 55.2766C12.6845 54.8225 12.7731 54.3684 12.8364 53.9143C12.8997 53.4862 12.963 53.058 13.0389 52.6299C13.1149 52.1758 13.1908 51.7347 13.2668 51.2806C13.3301 50.8914 13.3301 50.4892 13.4187 50.113C13.5073 49.7368 13.482 49.3086 13.6213 48.9324C13.6719 48.8156 13.6339 48.66 13.6339 48.4524C11.0514 49.6849 8.5449 50.9563 6.00039 52.1888L5.96241 52.1369L11.0008 45.4684C10.8362 45.4165 10.659 45.4036 10.4944 45.4555C10.2666 45.4944 10.0387 45.5203 9.81082 45.5463C9.39307 45.5982 8.94999 45.5852 8.5449 45.7019C8.24108 45.7798 7.94991 45.7668 7.64609 45.8057C7.19036 45.8706 6.73463 45.9485 6.27889 46.0133C6.16496 46.0263 6.05103 46.0263 5.94975 46.0393C5.70923 46.0522 5.48136 46.0393 5.24084 46.1431C5.07627 46.2079 4.86106 46.156 4.67117 46.182C4.53192 46.195 4.40533 46.2339 4.26607 46.2598C4.20278 46.2728 4.12682 46.2858 4.06353 46.2858C3.7597 46.2987 3.44322 46.2598 3.1394 46.4025C3.12674 46.4025 3.10142 46.3896 3.03813 46.3636C3.10142 46.2987 3.16472 46.2339 3.22802 46.182C4.26607 45.5592 5.29147 44.9235 6.32953 44.3008C7.08908 43.8337 7.84864 43.3797 8.60819 42.9256C8.68415 42.8737 8.7601 42.8218 8.8867 42.7439C8.79808 42.6791 8.69681 42.6142 8.58288 42.5623C7.91194 42.3288 7.241 42.1082 6.57006 41.8747C6.1523 41.732 5.74721 41.5504 5.34211 41.4077C4.70915 41.1871 4.06353 40.9795 3.43056 40.759C2.88622 40.5773 2.35453 40.3698 1.81018 40.1751C1.82284 40.1362 1.82284 40.0973 1.82284 40.0973C2.12666 40.0454 2.43048 39.9935 2.73431 39.9286C2.93685 39.8897 3.15206 39.8508 3.35461 39.7989L4.30405 39.5913C4.34203 39.5784 4.38001 39.5654 4.41798 39.5654C4.82308 39.5524 5.20286 39.4097 5.59529 39.3189C5.89912 39.254 6.2156 39.2281 6.51942 39.1632C6.75994 39.1243 6.98781 39.0594 7.22834 39.0075C7.67141 38.9167 8.11448 38.8259 8.57022 38.7351C9.02595 38.6442 9.45636 38.5664 9.89944 38.4756C10.026 38.4496 10.064 38.3459 9.97539 38.255C9.88678 38.1642 9.76019 38.0734 9.65891 37.9696C8.97531 37.295 8.30437 36.6074 7.63343 35.9327C7.03845 35.336 6.4308 34.7392 5.82316 34.1424C5.39275 33.7272 4.96233 33.3121 4.51926 32.8969C4.41798 32.7931 4.30405 32.7153 4.20278 32.6244L4.24076 32.5466C4.30405 32.5336 4.36735 32.5336 4.41798 32.5336C5.34211 32.7412 6.27889 32.9488 7.20302 33.1434C7.69673 33.2472 8.19044 33.338 8.67149 33.4548C8.93733 33.5196 9.19052 33.6104 9.45636 33.6753C9.72221 33.7402 10.0134 33.7791 10.2792 33.831C10.3805 33.8569 10.4944 33.8699 10.6337 33.9088C10.6337 33.818 10.621 33.7272 10.5957 33.6364C10.3678 33.0785 10.1273 32.5207 9.88678 31.9628C9.64625 31.4049 9.40573 30.86 9.1652 30.2892C8.8867 29.6405 8.63351 28.9788 8.36767 28.3172C8.1398 27.7723 7.88662 27.2274 7.65875 26.6825C7.63343 26.6046 7.62077 26.5268 7.59545 26.449C8.01321 26.6825 8.30437 26.9809 8.63351 27.2144C8.96265 27.4479 9.29179 27.6944 9.62093 27.9409L10.621 28.6934C10.9502 28.9399 11.292 29.1864 11.6211 29.4459C11.9502 29.7054 12.2794 29.9648 12.6085 30.2113C12.9377 30.4578 13.2668 30.6914 13.5959 30.9379C13.9251 31.1844 14.2416 31.4438 14.5834 31.6774C14.6213 31.5865 14.6467 31.5606 14.6467 31.5347C14.6213 31.1584 14.5834 30.7952 14.5454 30.4189C14.5201 30.1465 14.4947 29.861 14.4694 29.5886C14.4441 29.2124 14.4694 28.8102 14.3935 28.4469C14.3049 27.928 14.3428 27.3831 14.2542 26.8771C14.1656 26.3711 14.2162 25.8781 14.1403 25.3981C14.077 24.97 14.039 24.5289 14.039 24.1007C14.039 23.9969 14.039 23.9061 14.039 23.7764C14.1909 23.8672 14.7732 24.7105 14.9505 24.9829C15.2163 25.4111 15.4948 25.8132 15.7733 26.2414C16.0518 26.6695 16.3177 27.0847 16.5835 27.5128C16.8494 27.9409 17.1152 28.3691 17.4064 28.7713C17.6975 29.1734 17.9001 29.6405 18.2925 30.0167C18.6596 29.3421 19.0014 28.7194 19.3559 28.0966C19.7104 27.4739 20.0395 26.8382 20.3813 26.2025C20.7231 25.5667 21.0649 24.957 21.4067 24.3472C21.7485 23.7375 22.065 23.0758 22.4447 22.479L22.508 22.492C22.5334 22.5568 22.546 22.6087 22.5587 22.6736C22.5713 22.9071 22.5587 23.1536 22.5713 23.3872C22.584 23.5558 22.6093 23.7115 22.622 23.8802C22.6473 24.2694 22.66 24.6586 22.6853 25.0608C22.6979 25.3592 22.6346 25.6576 22.7865 25.943C22.8119 26.0208 22.8119 26.1116 22.7992 26.1895C22.7992 26.5787 22.8119 26.9549 22.8119 27.3441C22.7992 27.396 22.7992 27.4479 22.8119 27.4998C22.9891 28.0577 22.8878 28.6285 22.9258 29.1994C22.9258 29.2643 22.9385 29.3421 22.9638 29.4459C23.0397 29.4199 23.1157 29.368 23.1916 29.3291C23.3436 29.2124 23.4828 29.0826 23.6221 28.9529C24.0398 28.5507 24.4576 28.1485 24.888 27.7463C25.2045 27.4479 25.5463 27.1625 25.8627 26.8771C26.1792 26.5917 26.5084 26.2544 26.8375 25.943C27.0654 25.7354 27.2932 25.5408 27.5464 25.3202C27.5591 25.3981 27.5971 25.45 27.5844 25.4889C27.4831 25.8911 27.3692 26.2803 27.2679 26.6825C27.2173 26.8771 27.1666 27.0847 27.1287 27.2793C26.9768 27.928 26.8248 28.5766 26.6603 29.2253C26.559 29.6405 26.4451 30.0427 26.3438 30.4578C26.2805 30.7303 26.2552 31.0027 26.1919 31.2752C26.1539 31.4698 26.0779 31.6644 26.0273 31.872C25.964 32.1055 25.9007 32.3261 25.8501 32.5596C25.8501 32.5985 25.8501 32.6244 25.8627 32.6634C26.0147 32.7542 26.1539 32.6763 26.2932 32.6115C26.7615 32.3909 27.2173 32.1704 27.6857 31.9628C28.4073 31.6384 29.1288 31.3141 29.8377 30.9768C30.3441 30.7433 30.8505 30.5227 31.3442 30.2892C32.0784 29.9519 32.8127 29.6145 33.5469 29.2772C33.6229 29.2513 33.6988 29.2253 33.7748 29.2124C33.6735 29.5108 33.4963 29.7054 33.3444 29.9129C33.0785 30.2762 32.7873 30.6265 32.5215 30.9768C31.9518 31.7422 31.3822 32.4947 30.8125 33.2602C30.3441 33.8959 29.8757 34.5316 29.4073 35.1673C29.2174 35.4268 29.0276 35.6733 28.825 35.9198C28.7997 35.9587 28.7744 35.9976 28.7364 36.0755C28.8377 36.0884 28.9136 36.1144 28.9896 36.1144C29.2554 36.1403 29.5086 36.1533 29.7744 36.1663C30.1669 36.1922 30.5593 36.2052 30.9518 36.2311C31.5467 36.2701 32.1417 36.309 32.7367 36.3479C32.9266 36.3609 33.1165 36.3479 33.319 36.3609C33.6355 36.3868 33.9647 36.4387 34.2811 36.4517C34.6483 36.4776 35.0154 36.4647 35.3698 36.4906C35.9015 36.5295 36.4332 36.5685 36.9649 36.6204C36.9776 36.6204 36.9902 36.6463 37.0282 36.6722C36.9902 36.7371 36.9396 36.789 36.8763 36.8409C36.1041 37.3469 35.3319 37.8529 34.5596 38.3588C34.0406 38.6961 33.5216 39.0205 33.0026 39.3578C32.6734 39.5784 32.3443 39.7989 32.0278 40.0195C31.8252 40.1492 31.6227 40.2919 31.4202 40.4216L29.8631 41.4336L29.4453 41.6671ZM25.8121 33.0915C25.7994 33.0396 25.7994 32.9747 25.7741 32.9488C25.5463 32.7282 25.3057 32.4947 25.0652 32.2871C24.888 32.1444 24.6981 32.0277 24.5082 31.9239C24.0272 31.6774 23.5461 31.4179 23.0397 31.1973C22.6473 31.0417 22.2422 30.9119 21.8371 30.8081C21.4826 30.7043 21.1155 30.7562 20.7864 30.6005C19.9256 30.6395 19.0647 30.4968 18.1912 30.6914C17.7988 30.7822 17.419 30.847 17.0266 30.9508C16.3177 31.1454 15.6341 31.4438 15.0011 31.8201C14.5327 32.0796 14.0896 32.3779 13.6845 32.7282C13.3048 33.0656 12.9503 33.4418 12.5959 33.8051C12.0515 34.3759 11.5958 35.0246 11.254 35.7381C10.9375 36.3738 10.6717 37.0485 10.4818 37.7361C10.2919 38.3718 10.2539 39.0205 10.1526 39.6562C10.0893 40.1492 10.0893 40.6552 10.1653 41.1482C10.1906 41.5114 10.2412 41.8617 10.3045 42.225C10.3931 42.6272 10.5197 43.0164 10.6337 43.4056C10.8236 44.0283 11.0767 44.6251 11.3932 45.183C11.7224 45.7668 12.1148 46.3247 12.5579 46.8307C12.8997 47.2328 13.2795 47.6091 13.6972 47.9334C14.077 48.2059 14.4314 48.5172 14.8365 48.7508C15.3809 49.0751 15.9506 49.3476 16.5455 49.5681C16.9633 49.7108 17.3937 49.8406 17.8241 49.9444C18.014 50.0092 18.2166 50.0611 18.4064 50.0741C19.4192 50.0611 20.4319 50.2168 21.432 49.9573C21.8371 49.8535 22.2675 49.7887 22.66 49.633C23.3436 49.3865 24.0145 49.0621 24.6348 48.6859C25.4197 48.1799 26.1286 47.5572 26.7489 46.8566C27.2426 46.3117 27.6604 45.702 28.0022 45.0403C28.2174 44.6511 28.3946 44.2359 28.5718 43.8208C28.6098 43.717 28.6478 43.6132 28.6731 43.4964C28.7744 43.198 28.8756 42.8996 28.9516 42.5883C29.0276 42.225 29.0529 41.8617 29.0908 41.4855C29.0908 41.4466 29.1035 41.4077 29.1162 41.3687C29.1541 41.1741 29.1795 40.9665 29.2048 40.759C29.2174 40.4216 29.2048 40.0714 29.2048 39.734C29.2048 39.6562 29.1921 39.5654 29.1795 39.4875C29.1035 39.0594 29.0402 38.6442 28.9643 38.2161C28.9136 37.9566 28.8503 37.6972 28.7744 37.4377C28.6858 37.1393 28.5845 36.8539 28.4705 36.5685C28.306 36.1792 28.1541 35.79 27.8882 35.4527C27.6097 35.0895 27.3439 34.7132 27.116 34.311C27.0147 34.1164 26.8881 33.9478 26.7362 33.7921C26.521 33.5845 26.3185 33.3769 26.0906 33.1953C26.0147 33.1304 25.9134 33.1045 25.8121 33.0915Z" fill="#FECA08"/>
<path d="M25.8122 33.0918C25.9135 33.1177 26.0147 33.1566 26.1033 33.2085C26.3312 33.4031 26.5338 33.6107 26.749 33.8053C26.9009 33.961 27.0275 34.1297 27.1287 34.3243C27.3566 34.7264 27.6098 35.1027 27.901 35.4659C28.1668 35.8033 28.3187 36.1925 28.4833 36.5817C28.5972 36.8671 28.6985 37.1525 28.7871 37.4509C28.8631 37.7104 28.9264 37.9699 28.977 38.2293C29.0529 38.6445 29.1289 39.0726 29.1922 39.5008C29.2049 39.5786 29.2175 39.6694 29.2175 39.7473C29.2175 40.0846 29.2302 40.4349 29.2175 40.7722C29.2049 40.9798 29.1669 41.1744 29.1289 41.382C29.1289 41.4209 29.1162 41.4598 29.1036 41.4987C29.0529 41.862 29.0276 42.2382 28.9643 42.6015C28.8884 42.9129 28.7998 43.2113 28.6858 43.5096C28.6605 43.6134 28.6225 43.7302 28.5846 43.834C28.3947 44.2491 28.2301 44.6643 28.0149 45.0535C27.6731 45.7152 27.2427 46.3249 26.7616 46.8698C26.1413 47.5704 25.4197 48.1932 24.6475 48.6991C24.0146 49.0883 23.3563 49.3997 22.6727 49.6462C22.2803 49.8019 21.8498 49.8538 21.4447 49.9706C20.4447 50.23 19.4319 50.0614 18.4192 50.0873C18.2166 50.0743 18.0267 50.0225 17.8369 49.9576C17.4064 49.8538 16.976 49.737 16.5583 49.5813C15.9633 49.3608 15.3936 49.0883 14.8493 48.764C14.4568 48.5175 14.0897 48.2191 13.7099 47.9467C13.2922 47.6223 12.9124 47.2461 12.5706 46.8439C12.1275 46.3379 11.7351 45.78 11.3933 45.1833C11.0768 44.6254 10.8236 44.0286 10.6337 43.4059C10.5198 43.0166 10.3806 42.6274 10.3046 42.2253C10.2413 41.875 10.1907 41.5117 10.1654 41.1484C10.1021 40.6554 10.0894 40.1495 10.1527 39.6565C10.254 39.0207 10.3046 38.3721 10.4818 37.7363C10.6717 37.0487 10.9376 36.3741 11.2541 35.7384C11.6085 35.0248 12.0642 34.3762 12.6086 33.8053C12.963 33.442 13.3175 33.0658 13.6973 32.7285C14.1024 32.3782 14.5455 32.0798 15.0138 31.8203C15.6468 31.4441 16.3304 31.1587 17.0393 30.9511C17.4191 30.8473 17.8115 30.7695 18.204 30.6916C19.0648 30.497 19.9383 30.6397 20.7991 30.6008C21.1283 30.7565 21.508 30.7046 21.8498 30.8084C22.2549 30.9122 22.66 31.0419 23.0525 31.1976C23.5462 31.4181 24.0399 31.6776 24.5209 31.9241C24.7235 32.0149 24.9007 32.1317 25.0779 32.2744C25.3311 32.482 25.559 32.7025 25.7869 32.9361C25.8122 32.975 25.7995 33.0399 25.8122 33.0918C25.7236 33.0528 25.6476 33.0009 25.559 32.9361C24.9134 32.3912 24.2045 31.9501 23.4449 31.5998C22.9512 31.3663 22.4322 31.1846 21.9131 31.0549C21.4068 30.9381 20.9004 30.8084 20.3687 30.8214C20.2928 30.8214 20.2295 30.8084 20.1535 30.8084L18.2799 30.8473C18.242 30.8473 18.204 30.8603 18.166 30.8603C17.7229 30.977 17.2672 31.0808 16.8241 31.2235C16.5076 31.3273 16.2165 31.47 15.9 31.5998L15.7861 31.6257L15.7734 31.6387L15.6468 31.7425L15.5455 31.7684C15.4696 31.7555 15.4063 31.7684 15.4063 31.8593C14.9759 32.0149 14.6341 32.2744 14.267 32.5339L14.1783 32.6117C14.1657 32.6247 14.153 32.6247 14.1404 32.6377L14.0391 32.6896L13.8872 32.8063L13.8365 32.8712C13.4441 33.1566 13.0896 33.4939 12.7732 33.8572C12.1149 34.6097 11.5705 35.453 11.1528 36.3611C11.0388 36.6466 10.9376 36.932 10.8616 37.2174L10.773 37.3601C10.7224 37.6066 10.6591 37.8531 10.6084 38.1126C10.5325 38.4758 10.4185 38.8391 10.3932 39.2024C10.3552 39.9419 10.3806 40.6944 10.3806 41.4339C10.3806 41.5636 10.3932 41.6804 10.4312 41.8101C10.4945 42.0955 10.5578 42.3939 10.6211 42.6793C10.6591 42.9129 10.7224 43.1464 10.7857 43.3669C10.9755 43.9118 11.2034 44.4438 11.4819 44.9627C12.4187 46.6882 13.8492 48.0894 15.5709 48.9586C15.824 49.0883 16.0772 49.1662 16.3431 49.27C16.381 49.3608 16.4823 49.4127 16.5836 49.3867C16.8368 49.4905 17.1026 49.5684 17.3685 49.6332C17.9128 49.75 18.4572 49.8408 19.0142 49.8797C20.2295 49.9706 21.4574 49.8149 22.6094 49.4127C23.0018 49.27 23.3816 49.1143 23.7614 48.9327C24.3564 48.6343 24.9134 48.271 25.4324 47.8558C26.0274 47.3758 26.5717 46.8309 27.0401 46.2082C27.3439 45.78 27.6224 45.326 27.8756 44.8589C28.1541 44.3919 28.3567 43.8989 28.5086 43.3799C28.5972 43.0685 28.6605 42.7442 28.7618 42.4328C28.8884 42.0177 28.9517 41.5895 28.977 41.1614C29.0023 40.6165 28.9896 40.0586 28.977 39.5137C28.977 39.397 28.9643 39.2932 28.939 39.1764C28.8757 38.8391 28.8124 38.4888 28.7365 38.1515C28.6732 37.7882 28.5719 37.4379 28.458 37.0877C28.2174 36.439 27.9136 35.8162 27.5592 35.2324C27.2427 34.7135 26.8756 34.2334 26.4451 33.7923C26.2173 33.5718 26.0274 33.3253 25.8122 33.0918Z" fill="#BE8204"/>
<path d="M16.0645 31.9756C16.3556 31.8459 16.6468 31.7032 16.9506 31.6124C17.3684 31.4826 17.7988 31.3788 18.2292 31.275C18.2672 31.2621 18.3052 31.2621 18.3431 31.2621L20.1408 31.2231C20.2041 31.2231 20.28 31.2361 20.3433 31.2361C20.8497 31.2361 21.3307 31.3659 21.8244 31.4696C22.3308 31.5864 22.8245 31.768 23.2929 31.9886C24.0271 32.3129 24.6981 32.7411 25.3184 33.273C25.3943 33.3249 25.4703 33.3768 25.5589 33.4287C25.7615 33.6492 25.9514 33.8828 26.1666 34.1033C26.5717 34.5185 26.9261 34.9855 27.2173 35.4785C27.5717 36.0364 27.8502 36.6332 28.0908 37.2559C28.2047 37.5932 28.2933 37.9306 28.3566 38.2808C28.4326 38.6052 28.4832 38.9425 28.5465 39.2668C28.5718 39.3706 28.5845 39.4874 28.5845 39.5912C28.5845 40.1231 28.6098 40.6421 28.5845 41.174C28.5718 41.5891 28.4959 42.0043 28.3819 42.3935C28.2933 42.6919 28.23 43.0033 28.1414 43.3017C28.0021 43.7947 27.7996 44.2747 27.5338 44.7158C27.2932 45.1699 27.0147 45.598 26.7236 46.0132C26.2805 46.597 25.7615 47.1289 25.1918 47.583C24.6981 47.9852 24.1664 48.3225 23.5967 48.6079C23.2296 48.7766 22.8625 48.9323 22.4954 49.062C21.394 49.4512 20.2167 49.6069 19.0521 49.5161C18.5204 49.4642 18.0013 49.3863 17.4697 49.2696C17.2165 49.2047 16.9633 49.1269 16.7101 49.0231C16.6721 48.8933 16.5709 48.8933 16.4822 48.9193C16.2417 48.8155 15.9885 48.7377 15.748 48.6209C14.0896 47.7906 12.7098 46.4543 11.8236 44.7936C11.5704 44.3006 11.3426 43.7947 11.1654 43.2628C11.1021 43.0422 11.0388 42.8216 11.0008 42.6011C10.9375 42.3286 10.8742 42.0432 10.8109 41.7708C10.7856 41.654 10.7729 41.5372 10.7729 41.4205C10.7729 40.7069 10.7476 39.9934 10.7856 39.2798C10.7982 38.9295 10.9122 38.5922 10.9881 38.2419C11.0388 37.9954 11.1021 37.7619 11.1527 37.5284L11.2286 37.3857C11.3046 37.1002 11.4059 36.8278 11.5198 36.5683C11.9249 35.6991 12.4439 34.8817 13.0769 34.1682C13.3807 33.8179 13.7225 33.5065 14.1023 33.2211L14.1529 33.1692L14.2922 33.0524L14.3935 33.0005C14.4061 32.9876 14.4061 32.9746 14.4314 32.9746L14.5201 32.9097C14.8619 32.6632 15.2037 32.4167 15.6087 32.274L15.748 32.1832L15.8493 32.1573C15.9252 32.1702 15.9759 32.1443 15.9759 32.0535H15.9885L16.0645 31.9756Z" fill="url(#paint0_radial_652_693)"/>
<path d="M13.2035 35.7511C13.1022 35.8289 12.9883 35.8938 12.8996 35.9846C12.6338 36.2181 12.5072 36.5554 12.3047 36.8408L12.292 37.1003L12.5325 36.8149C13.0262 36.0624 13.6972 35.79 14.4567 36.0495C14.8618 36.1662 15.191 36.4906 15.3049 36.9187C15.3429 37.0484 15.3935 37.1911 15.4441 37.3209C15.4948 37.4506 15.5454 37.5544 15.6214 37.7231C15.672 37.3728 15.6214 37.0095 15.4568 36.6852C15.4062 36.5684 15.3682 36.4516 15.3175 36.3478C15.0264 35.777 14.3048 35.5046 13.7984 35.5305C13.6592 35.5564 13.5199 35.5954 13.3933 35.6343" fill="#272425"/>
<path d="M10.8489 37.2432L10.7603 37.3859L10.8489 37.2432Z" fill="#272425"/>
<path d="M14.1403 32.6504L14.0391 32.7023L14.1403 32.6504Z" fill="#272425"/>
<path d="M14.2668 32.5469L14.1782 32.6247L14.2668 32.5469Z" fill="#272425"/>
<path d="M15.9125 31.6123L15.7986 31.6383L15.9125 31.6123Z" fill="#272425"/>
<path d="M13.9004 32.832L13.8491 32.8969L13.9004 32.832Z" fill="#272425"/>
<path d="M13.4187 37.4118C13.5073 37.3209 13.6339 37.269 13.7478 37.2171C14.0263 37.1523 14.3048 37.282 14.4188 37.5545C14.4694 37.6583 14.5074 37.762 14.5327 37.8788C14.634 38.5664 14.5707 39.2281 14.1909 39.8378C14.0896 39.9935 13.9377 40.1103 13.7605 40.1752C13.6592 40.2011 13.5453 40.1881 13.444 40.1492C13.2035 40.0584 13.0263 39.8378 12.9756 39.5784C12.9756 39.5784 12.8744 39.1502 12.9123 38.787C12.925 38.6183 13.0389 38.1253 13.0389 38.1253C13.0389 38.1253 13.1402 37.8269 13.1908 37.7361C13.2415 37.6323 13.3427 37.4766 13.4187 37.4118ZM13.7858 37.6453C13.5833 37.6583 13.4947 37.7101 13.4314 37.8269C13.2794 38.1123 13.2794 38.4237 13.2921 38.748C13.5706 38.774 13.6592 38.7221 13.6719 38.5405C13.6719 38.3199 13.7099 38.0864 13.7858 37.8788C13.7858 37.801 13.7985 37.7231 13.7858 37.6453Z" fill="#272425"/>
<path d="M19.8876 40.4478C19.875 40.5256 19.8497 40.6034 19.8243 40.6813C19.761 40.824 19.6598 40.9018 19.4952 40.837L19.5712 40.5645C19.6091 40.4867 19.6218 40.4218 19.5458 40.3829C19.4446 40.3569 19.3559 40.344 19.2547 40.331C18.9382 40.318 18.6217 40.331 18.3179 40.318C17.9634 40.318 17.609 40.2013 17.3052 40.0066C17.2292 39.9677 16.8368 39.5915 16.8114 39.3709C16.8114 39.3709 16.6595 38.8909 16.6595 38.7222C16.6342 38.333 16.7228 37.9438 16.9001 37.5935C17.2672 36.867 17.8748 36.4129 18.5837 36.0626C18.8876 35.907 19.2167 35.7902 19.5458 35.7383C19.6345 35.7253 19.7104 35.7123 19.7484 35.8421C19.5332 36.0237 19.2547 36.0756 19.0015 36.1794C18.3685 36.4389 17.8115 36.7892 17.4191 37.36C17.1659 37.7233 16.976 38.1255 16.9887 38.5795C17.0013 39.1374 17.2165 39.6174 17.7356 39.8769C17.8242 39.9158 17.9128 39.9288 18.0014 39.9418C18.5078 39.9807 19.0141 40.0196 19.5079 40.0326C19.8497 40.0585 19.8623 40.0585 19.8876 40.4478Z" fill="#272425"/>
<path d="M15.3049 36.9189C15.1783 36.5037 14.8619 36.1794 14.4568 36.0497C13.6972 35.7902 13.0263 36.0626 12.5326 36.8151L12.3047 36.8411C12.4946 36.5556 12.6338 36.2183 12.8997 35.9848C13.0009 35.894 13.1022 35.8291 13.2035 35.7513L13.3934 35.6475C13.52 35.5956 13.6592 35.5567 13.7985 35.5437C14.3048 35.5177 15.0264 35.7902 15.3176 36.361C15.3682 36.4648 15.4062 36.5816 15.4568 36.6983C15.4189 36.7762 15.5201 36.9578 15.3049 36.9189Z" fill="#272425"/>
<path d="M13.3934 35.6475L13.2035 35.7513L13.3934 35.6475Z" fill="#272425"/>
<path d="M26.2805 43.4447C25.9261 43.3539 25.7235 43.0685 25.4703 42.796C25.4197 42.8868 25.3564 42.9647 25.3058 43.0425C24.7487 44.0804 24.0019 44.9886 23.0904 45.7151C22.4701 46.2081 21.7485 46.5714 20.9763 46.766C20.2674 46.9606 19.5205 47.0125 18.7736 46.9216C18.1913 46.8438 17.6089 46.6622 17.0772 46.4027C16.343 46.0394 15.7607 45.5075 15.1657 44.9496C14.9125 44.7031 14.7353 44.4047 14.5074 44.1453C14.1276 43.6782 13.7858 43.1852 13.482 42.6663C13.4567 42.6273 13.4314 42.6014 13.3934 42.5755C13.1022 42.7441 12.8364 42.9128 12.5706 43.0685C12.5199 43.0944 12.444 43.0555 12.3553 43.0555C12.3933 42.9128 12.4946 42.8609 12.5832 42.809C12.925 42.5884 13.2162 42.303 13.4694 41.9916C13.6086 41.797 13.7479 41.5894 13.8618 41.3819C13.9378 41.2651 13.9378 41.2781 14.1276 41.3429L13.6972 42.29C17.571 43.1203 21.394 43.1982 25.2425 42.4068C25.2171 42.0435 24.9893 41.7451 25.0399 41.4078C25.1918 41.3429 25.2425 41.4208 25.2804 41.5116C25.3311 41.6154 25.3817 41.7322 25.4197 41.8489C25.5336 42.3808 25.8628 42.783 26.2172 43.1593C26.3058 43.2241 26.3312 43.3409 26.2805 43.4447ZM13.9124 42.6792L14.0517 42.8998C14.672 43.9507 15.4822 44.8459 16.4443 45.5724C17.0899 46.0394 17.8241 46.3638 18.5964 46.5195C18.9255 46.5714 19.2546 46.5973 19.5964 46.5714C20.0015 46.5714 20.4066 46.5584 20.7864 46.4157C21.0902 46.2989 21.432 46.247 21.7232 46.1043C22.3815 45.78 22.9891 45.3518 23.5081 44.8459C24.1158 44.2491 24.6348 43.5615 25.0399 42.796C24.9007 42.809 24.7994 42.822 24.7108 42.8349C24.4069 42.8998 24.1031 42.9776 23.7993 43.0295C23.4955 43.0814 23.179 43.1203 22.8752 43.1463C22.2549 43.1982 21.6219 43.276 21.0016 43.276C19.8116 43.289 18.6217 43.3668 17.4317 43.1852C16.9 43.1074 16.343 43.0814 15.8113 43.0295C15.7733 43.0295 15.7227 43.0166 15.6847 43.0166C15.1784 42.8998 14.672 42.783 14.153 42.6792C14.0643 42.6792 13.9884 42.6792 13.9124 42.6792Z" fill="#272425"/>
<path d="M24.8121 38.9165C24.8374 39.4095 24.6981 39.9155 24.4196 40.3177C24.3184 40.4604 24.2044 40.5901 24.0652 40.6809C23.7614 40.8885 23.3689 40.6809 23.255 40.3306C23.0398 39.6301 23.179 38.9684 23.3942 38.3067C23.4702 38.1121 23.5841 37.9435 23.736 37.8008C24.0272 37.5024 24.4576 37.6191 24.6602 37.9954C24.8247 38.2938 24.7994 38.6051 24.8121 38.9165ZM23.5208 39.1241C23.8753 39.2019 23.9259 39.176 23.9766 38.9035C24.0272 38.67 24.0905 38.4365 24.1411 38.19C24.1538 38.1381 24.1538 38.0732 24.1285 38.0473C24.1032 38.0213 23.9892 37.9954 23.9639 38.0213C23.85 38.0992 23.7614 38.2029 23.6981 38.3327C23.6094 38.5922 23.5588 38.8516 23.5208 39.1241Z" fill="#272425"/>
<path d="M22.8878 36.6463C22.9511 36.5685 23.2169 36.3868 23.2169 36.3868C23.6853 36.1144 24.2423 36.0755 24.736 36.2701C25.3184 36.5036 25.7614 36.9966 25.926 37.6193C25.9766 37.788 26.1159 37.9696 25.9766 38.1902C25.8627 37.9566 25.7741 37.7361 25.6602 37.5285C25.3563 36.8798 24.736 36.4776 24.0398 36.4517C23.736 36.4387 23.4954 36.5814 23.2422 36.7371C22.9891 36.8928 22.8625 37.0744 22.6852 37.3858C22.6599 37.4247 22.6346 37.4766 22.6093 37.5155L22.5333 37.4766L22.5966 37.2042C22.5966 37.2042 22.7992 36.7631 22.8878 36.6463Z" fill="#272425"/>
<path d="M19.5331 40.3569C19.6228 40.4088 19.61 40.4737 19.5587 40.5386L19.5331 40.3569Z" fill="#272425"/>
<path d="M43.7376 29.2773C44.801 27.5129 46.3454 26.6437 48.4089 26.6437C52.789 26.8123 54.9664 29.7833 54.9664 35.5437C54.9664 41.2002 52.4219 44.0674 47.3202 44.1452C42.1805 44.1841 39.6107 41.6543 39.6107 36.5556V22.064H41.6868C43.054 22.064 43.7629 22.7645 43.7629 24.1917L43.7376 29.2773ZM47.2696 30.4839C45.0542 30.4839 43.8642 32.1186 43.7503 35.375C43.7123 38.8001 44.8643 40.5126 47.2189 40.5126C49.5735 40.5126 50.7382 38.7871 50.7382 35.375C50.6496 32.1056 49.4849 30.4839 47.2696 30.4839Z" fill="url(#paint1_linear_652_693)"/>
<path d="M58.2325 22.0635C58.7515 22.0635 59.2326 22.2581 59.625 22.6603C60.0428 23.0625 60.2327 23.5555 60.2327 24.1263V43.8853H56.1057V22.0635H58.2325Z" fill="url(#paint2_linear_652_693)"/>
<path d="M75.6895 37.1388C75.6895 40.0709 74.9679 41.978 73.5121 42.9251C72.0563 43.7943 70.4486 44.2484 68.6636 44.2484C66.9673 44.2484 65.4102 43.7554 63.9924 42.8083C62.5872 41.9002 61.8783 40.006 61.8783 37.1518V26.9155H66.0052V38.034C66.0052 39.9282 66.942 40.8623 68.8029 40.8623C70.6638 40.8623 71.6006 39.9282 71.6006 38.034V29.0562C71.5626 27.6291 72.2209 26.9285 73.6134 26.9285H75.7275V37.1258H75.6895V37.1388Z" fill="url(#paint3_linear_652_693)"/>
<path d="M91.2857 38.683C90.8047 40.616 89.9945 42.0172 88.8551 42.8864C87.5259 43.7946 85.9309 44.2617 84.1332 44.2617C79.1582 44.093 76.6643 41.122 76.6643 35.3617C76.6643 29.6014 79.1708 26.6693 84.1965 26.6304C89.4248 26.6304 91.868 29.9646 91.5389 36.6201H80.9178C81.0824 39.2149 82.1837 40.5122 84.1965 40.5122C85.1713 40.5122 86.0574 40.1101 86.8676 39.3187C87.2348 38.8905 87.7031 38.683 88.2602 38.683H91.2857ZM87.1588 33.5454C86.9056 31.2879 85.8929 30.1462 84.1332 30.1462C82.3483 30.1462 81.2976 31.275 80.9811 33.5454H87.1588Z" fill="url(#paint4_linear_652_693)"/>
<path d="M97.0457 48.4263C97.0457 49.8534 96.3621 50.554 94.9696 50.554H92.9061V34.2849C93.1087 29.2252 95.6785 26.6953 100.616 26.6953C105.717 26.6953 108.262 29.5625 108.262 35.2969C108.262 41.0832 106.084 44.0541 101.704 44.1968C99.6282 44.1968 98.0711 43.3276 97.033 41.5632V48.4263H97.0457ZM104.034 35.5045C104.034 32.0794 102.856 30.3669 100.514 30.3669C98.1724 30.3669 97.0077 32.0924 97.0457 35.5045C97.1723 38.7738 98.3369 40.3956 100.565 40.3956C102.793 40.3826 103.958 38.7479 104.034 35.5045Z" fill="white"/>
<path d="M109.49 35.1155C109.616 29.6276 112.439 26.8901 117.933 26.8901H118.541V31.3531H117.136C114.832 31.3531 113.667 32.5856 113.667 35.0506V43.9116H109.477V35.1155H109.49Z" fill="white"/>
<path d="M122.453 22.0638C123.82 22.0638 124.504 22.7384 124.466 24.1266V25.385H120.339V22.0508H122.453V22.0638ZM122.453 26.89C123.782 26.89 124.466 27.5646 124.466 28.9528V43.8855H120.339V26.877H122.453V26.89Z" fill="white"/>
<path d="M137.986 43.9114C136.618 43.8205 135.91 43.12 135.91 41.7837V33.0524C135.821 31.2879 134.872 30.4187 133.049 30.4187C131.226 30.4187 130.289 31.2879 130.251 33.0524V43.9114H126.061V33.9216C126.061 29.0824 128.403 26.6304 133.112 26.6304C137.796 26.6304 140.138 29.0565 140.1 33.9216V43.9114H137.986Z" fill="white"/>
<path d="M143.518 43.6777C141.961 43.535 141.201 42.51 141.239 40.6418V22.0635H143.353C143.872 22.0635 144.353 22.2711 144.746 22.6992C145.138 23.1273 145.353 23.6073 145.353 24.2041V26.9027H147.847V27.8368C147.847 28.4725 147.645 28.9785 147.24 29.3677C146.835 29.7569 146.353 29.9645 145.784 29.9645H145.366V39.3834C145.366 40.084 145.784 40.4472 146.594 40.4472H147.86V43.7166C146.518 43.8463 145.075 43.8334 143.518 43.6777Z" fill="white"/>
<path d="M112.452 56.3924L111.806 58.2606H109.756L112.933 48.5952H115.44L118.68 58.2606H116.604L115.997 56.3924H112.452ZM113.705 53.0711L113.186 54.641H115.262L114.743 53.136L114.224 51.8646H114.199L113.705 53.0711Z" fill="white"/>
<path d="M120.339 51.8642H120.237L120.326 53.4211V58.2603H118.44V48.6338H120.908L123.25 54.3292L125.592 48.6338H128.061V58.2603H126.175V53.4211L126.137 51.8642H126.048L125.63 53.3303L124.035 58.1695H122.503L120.908 53.3303L120.339 51.8642Z" fill="white"/>
<path d="M130.833 48.6597V58.2602H128.909V48.6597H130.833Z" fill="white"/>
<path d="M137.011 54.3682L137.758 56.3012L137.884 56.2753L137.53 53.7843V48.6338H139.441V58.2603H136.998L134.239 52.5259L133.517 50.502L133.39 50.528L133.72 53.1227V58.2862H131.795V48.6597H134.239L137.011 54.3682Z" fill="white"/>
<path d="M110.667 53.2265H104.819V54.8612H108.363C107.907 55.9251 106.933 56.6516 105.793 56.6516C104.224 56.6516 102.932 55.2245 102.932 53.4601C102.932 51.6956 104.224 50.2685 105.793 50.2685C106.667 50.2685 107.426 50.6967 107.945 51.3713H110.262C109.515 49.5161 107.793 48.2446 105.806 48.2446C103.11 48.2446 100.932 50.5799 100.932 53.4471C100.932 56.3143 103.11 58.6495 105.806 58.6495C108.502 58.6495 110.68 56.3143 110.68 53.4471C110.692 53.3692 110.692 53.3044 110.667 53.2265Z" fill="white"/>
<path d="M149.404 53.1748H143.556V54.8095H147.1C146.645 55.8733 145.67 56.5998 144.531 56.5998C142.961 56.5998 141.67 55.1727 141.67 53.4083C141.67 51.6439 142.961 50.2168 144.531 50.2168C145.404 50.2168 146.164 50.6449 146.683 51.3195H148.987C148.24 49.4643 146.518 48.1929 144.531 48.1929C141.834 48.1929 139.657 50.5281 139.657 53.3953C139.657 56.2625 141.834 58.5978 144.531 58.5978C147.227 58.5978 149.404 56.2625 149.404 53.3953C149.43 53.3564 149.404 53.2656 149.404 53.1748Z" fill="white"/>
<path d="M153.746 48.7383H152.974V51.3589H152.253V48.7512H151.468V48.1934H153.746V48.7383Z" fill="white"/>
<path d="M154.759 48.8416H154.721L154.861 49.7368V51.3326H154.152V48.167H155.063L155.937 50.0352L156.81 48.167H157.721V51.3326H157.013V49.7368L157.152 48.8416H157.114L156.797 49.7109L156.19 50.8526H155.633L155.05 49.7109L154.759 48.8416Z" fill="white"/>
<defs>
<radialGradient id="paint0_radial_652_693" cx="0" cy="0" r="1" gradientUnits="userSpaceOnUse" gradientTransform="translate(16.5781 36.7256) scale(11.8416 12.1357)">
<stop stop-color="white"/>
<stop offset="1" stop-color="#FDF29D"/>
</radialGradient>
<linearGradient id="paint1_linear_652_693" x1="47.2742" y1="22.0703" x2="47.2742" y2="44.1501" gradientUnits="userSpaceOnUse">
<stop stop-color="#4793CF"/>
<stop offset="1" stop-color="#56C8E7"/>
</linearGradient>
<linearGradient id="paint2_linear_652_693" x1="58.1603" y1="22.0698" x2="58.1603" y2="43.8941" gradientUnits="userSpaceOnUse">
<stop stop-color="#4793CF"/>
<stop offset="1" stop-color="#56C8E7"/>
</linearGradient>
<linearGradient id="paint3_linear_652_693" x1="68.8079" y1="26.8966" x2="68.8079" y2="44.2158" gradientUnits="userSpaceOnUse">
<stop stop-color="#4793CF"/>
<stop offset="1" stop-color="#56C8E7"/>
</linearGradient>
<linearGradient id="paint4_linear_652_693" x1="84.1151" y1="26.6388" x2="84.1151" y2="44.2768" gradientUnits="userSpaceOnUse">
<stop stop-color="#4793CF"/>
<stop offset="1" stop-color="#56C8E7"/>
</linearGradient>
</defs>
</svg>
