<svg width="160" height="80" viewBox="0 0 160 80" fill="none" xmlns="http://www.w3.org/2000/svg">
<mask id="mask0_9819_74" style="mask-type:luminance" maskUnits="userSpaceOnUse" x="0" y="9" width="160" height="62">
<path d="M160 9.98047H0V70.0205H160V9.98047Z" fill="white"/>
</mask>
<g mask="url(#mask0_9819_74)">
<path fill-rule="evenodd" clip-rule="evenodd" d="M76.91 52.5108H78.55C78.55 52.5108 78.43 53.3408 79.48 53.4208C80.11 53.4708 80.5 52.8208 80.25 52.5108C79.82 51.9708 76.86 52.7208 76.89 50.1708C76.89 49.4508 77.08 48.2608 79.3 48.3008C81.75 48.3408 81.92 50.4008 81.92 50.4008H80.26C80.26 50.4008 80.51 49.1908 78.98 49.4908C78.71 49.5408 78.63 49.9608 78.61 50.2408C78.57 50.7208 79.48 50.9108 79.99 50.9608C80.87 51.0508 81.86 51.1808 81.88 53.0208C81.88 53.6708 81.31 54.8408 79.43 54.8208C76.62 54.8008 76.93 52.5108 76.93 52.5108H76.91Z" fill="white" stroke="white" stroke-width="0.09" stroke-linecap="round" stroke-linejoin="round"/>
<path fill-rule="evenodd" clip-rule="evenodd" d="M126.94 52.5303H128.58C128.58 52.5303 128.46 53.3603 129.51 53.4403C130.14 53.4903 130.53 52.8403 130.28 52.5303C129.85 51.9903 126.89 52.7403 126.92 50.1903C126.92 49.4703 127.11 48.2803 129.33 48.3203C131.78 48.3603 131.95 50.4203 131.95 50.4203H130.29C130.29 50.4203 130.54 49.2103 129.01 49.5103C128.74 49.5603 128.66 49.9803 128.64 50.2603C128.6 50.7403 129.51 50.9303 130.02 50.9803C130.9 51.0703 131.89 51.2003 131.91 53.0403C131.91 53.6903 131.34 54.8603 129.46 54.8403C126.65 54.8203 126.96 52.5303 126.96 52.5303H126.94Z" fill="white" stroke="white" stroke-width="0.09" stroke-linecap="round" stroke-linejoin="round"/>
<path fill-rule="evenodd" clip-rule="evenodd" d="M111.86 48.4102H113.91V54.5602H111.78L111.86 48.4102Z" fill="white" stroke="white" stroke-width="0.09" stroke-linecap="round" stroke-linejoin="round"/>
<path fill-rule="evenodd" clip-rule="evenodd" d="M93.49 48.3408H95.2C95.2 48.3408 95.14 51.5008 95.31 52.3208C95.4 52.7608 95.5 53.2308 96.22 53.2708C96.94 53.3108 97.94 54.6008 97.02 54.7508C96.51 54.8308 93.92 55.3008 93.64 52.9708C93.41 51.0508 93.49 48.3408 93.49 48.3408Z" fill="white" stroke="white" stroke-width="0.09" stroke-linecap="round" stroke-linejoin="round"/>
<path fill-rule="evenodd" clip-rule="evenodd" d="M120.39 48.0703C122.33 48.0703 123.9 49.6203 123.9 51.5203C123.9 53.4203 122.33 54.9703 120.39 54.9703C118.45 54.9703 116.88 53.4203 116.88 51.5203C116.88 49.6203 118.45 48.0703 120.39 48.0703ZM120.39 49.8003C121.36 49.8003 122.15 50.5703 122.15 51.5303C122.15 52.4903 121.36 53.2603 120.39 53.2603C119.42 53.2603 118.64 52.4903 118.64 51.5303C118.64 50.5703 119.43 49.8003 120.39 49.8003Z" fill="white" stroke="white" stroke-width="0.09" stroke-linecap="round" stroke-linejoin="round"/>
<path fill-rule="evenodd" clip-rule="evenodd" d="M102.65 48.26C102.65 48.26 105.56 48.05 106.62 48.49C107.49 48.85 108.73 49.53 108.69 51.56C108.64 53.93 106.68 54.59 106.68 54.59H102.66V48.25L102.65 48.26ZM105.98 49.91H104.25L104.27 52.96H105.98C105.98 52.96 107.08 52.87 107.1 51.51C107.12 50.3 105.98 49.91 105.98 49.91Z" fill="white" stroke="white" stroke-width="0.09" stroke-linecap="round" stroke-linejoin="round"/>
<path fill-rule="evenodd" clip-rule="evenodd" d="M98.9 48.3408H97.19C97.19 48.3408 97.25 51.5008 97.08 52.3208C96.99 52.7608 96.89 53.2308 96.17 53.2708C95.45 53.3108 94.45 54.6008 95.37 54.7508C95.88 54.8308 98.47 55.3008 98.75 52.9708C98.98 51.0508 98.9 48.3408 98.9 48.3408Z" fill="white" stroke="white" stroke-width="0.09" stroke-linecap="round" stroke-linejoin="round"/>
<path fill-rule="evenodd" clip-rule="evenodd" d="M84.87 48.41V50H86.81V54.52H88.1V50H90.19V48.29L84.88 48.4L84.87 48.41Z" fill="white" stroke="white" stroke-width="0.09" stroke-linecap="round" stroke-linejoin="round"/>
<path fill-rule="evenodd" clip-rule="evenodd" d="M149.47 33.5607L145.32 33.5107V38.0407C145.32 38.0407 145.7 44.1007 155.47 42.5707C165.24 41.0407 155.86 39.7107 154.52 38.9707C152.96 38.1107 148.61 40.7907 149.47 33.5507V33.5607Z" fill="white" stroke="white" stroke-width="0.09" stroke-linecap="round" stroke-linejoin="round"/>
<path fill-rule="evenodd" clip-rule="evenodd" d="M151.24 31.2903C151.1 31.8603 152.43 32.6603 153.85 33.9003C156.5 36.2203 150.2 35.2803 150.2 35.2803C150.2 35.2803 146.75 33.4103 146.95 31.0903C147.15 28.7703 151.52 30.1503 151.24 31.2903Z" fill="white" stroke="white" stroke-width="0.09" stroke-linecap="round" stroke-linejoin="round"/>
<path fill-rule="evenodd" clip-rule="evenodd" d="M144.71 38.8809V42.8709C144.71 42.8709 136.97 43.3209 135.8 32.7809C134.75 23.3109 139.63 30.1609 140.05 31.3109C140.65 32.9409 140.69 38.4709 144.71 38.8909V38.8809Z" fill="white" stroke="white" stroke-width="0.09" stroke-linecap="round" stroke-linejoin="round"/>
<path fill-rule="evenodd" clip-rule="evenodd" d="M101.56 31.8809C101.56 31.8809 99.4 32.8708 99.7 34.1008C100.34 36.7608 95.28 33.5108 95.28 33.5108C95.28 33.5108 96.36 27.3509 102.39 27.8009C108.42 28.2409 106.51 30.0209 106.51 30.0209L101.56 31.8909V31.8809Z" fill="white" stroke="white" stroke-width="0.09" stroke-linecap="round" stroke-linejoin="round"/>
<path fill-rule="evenodd" clip-rule="evenodd" d="M103.23 39.0701C103.23 39.0701 106.42 39.1501 106.57 37.1501C106.72 35.1801 110.57 34.8201 111.23 36.2101C111.68 37.1701 111.61 44.0601 103.72 42.8601C103.56 42.8401 100.29 40.7901 100.29 40.7901L103.22 39.0701H103.23Z" fill="white" stroke="white" stroke-width="0.09" stroke-linecap="round" stroke-linejoin="round"/>
<path fill-rule="evenodd" clip-rule="evenodd" d="M68.29 39.8002V43.8602C68.29 43.8602 63.18 44.5002 62.92 36.9302C62.73 31.3302 65.19 34.8302 65.19 34.8302L66.52 35.7002C66.52 35.7002 66.03 39.0702 68.29 39.8002Z" fill="white" stroke="white" stroke-width="0.09" stroke-linecap="round" stroke-linejoin="round"/>
<path fill-rule="evenodd" clip-rule="evenodd" d="M81.34 41.0001V44.8401C81.34 44.8401 88.2 44.0501 87.3 35.4801C86.46 27.4501 83.75 34.4201 83.51 35.5301C83.11 37.3401 83.61 40.2101 81.34 41.0001Z" fill="white" stroke="white" stroke-width="0.09" stroke-linecap="round" stroke-linejoin="round"/>
<path fill-rule="evenodd" clip-rule="evenodd" d="M65.09 30.0107L69.03 31.2407C69.03 31.2407 69.38 35.2407 66.17 36.2307C60.47 38.0007 61.69 35.6807 61.69 35.6807C61.69 35.6807 61.87 34.2307 62.23 33.6307C62.8 32.6807 65.24 34.5507 65.09 30.0107Z" fill="white" stroke="white" stroke-width="0.09" stroke-linecap="round" stroke-linejoin="round"/>
<path fill-rule="evenodd" clip-rule="evenodd" d="M122.1 27.9209H126.25V37.0809H122.21L122.1 27.9209Z" fill="white" stroke="white" stroke-width="0.09" stroke-linecap="round" stroke-linejoin="round"/>
<path fill-rule="evenodd" clip-rule="evenodd" d="M127.94 38.8308V42.8708C127.94 42.8708 119.43 42.8708 118.14 42.8708C115.59 42.8508 113.01 41.8808 113.06 37.2008C113.11 32.5208 113.06 28.0908 113.06 28.0908H117.19C117.19 28.0908 116.88 35.4508 117.19 37.2508C117.33 38.0608 117.56 38.9308 119.03 38.9308C120.87 38.9308 127.94 38.8308 127.94 38.8308Z" fill="white" stroke="white" stroke-width="0.09" stroke-linecap="round" stroke-linejoin="round"/>
<path fill-rule="evenodd" clip-rule="evenodd" d="M83.14 28.6504H87.29V37.8104H83.25L83.14 28.6504Z" fill="white" stroke="white" stroke-width="0.09" stroke-linecap="round" stroke-linejoin="round"/>
<path fill-rule="evenodd" clip-rule="evenodd" d="M89.29 27.75H93.49V33.78H89.4L89.29 27.75Z" fill="white" stroke="white" stroke-width="0.09" stroke-linecap="round" stroke-linejoin="round"/>
<path fill-rule="evenodd" clip-rule="evenodd" d="M55.62 27.7607H59.77V42.8307H55.73L55.62 27.7607Z" fill="white" stroke="white" stroke-width="0.09" stroke-linecap="round" stroke-linejoin="round"/>
<path fill-rule="evenodd" clip-rule="evenodd" d="M71.04 27.7207H75.19V38.2007H71.15L71.04 27.7207Z" fill="white" stroke="white" stroke-width="0.09" stroke-linecap="round" stroke-linejoin="round"/>
<path fill-rule="evenodd" clip-rule="evenodd" d="M76.96 40.9V44.94C76.96 44.94 69.91 45.38 71.34 35.28C72.77 25.17 75.18 34.49 75.18 34.49C75.18 34.49 74.64 41.83 76.95 40.89L76.96 40.9Z" fill="white" stroke="white" stroke-width="0.09" stroke-linecap="round" stroke-linejoin="round"/>
<path fill-rule="evenodd" clip-rule="evenodd" d="M64.88 27.7207H69.03V31.4507H64.99L64.88 27.7207Z" fill="white" stroke="white" stroke-width="0.07" stroke-linecap="round" stroke-linejoin="round"/>
<path fill-rule="evenodd" clip-rule="evenodd" d="M130.09 25.5801H134.24V43.0501H130.2L130.09 25.5801Z" fill="white" stroke="white" stroke-width="0.08" stroke-linecap="round" stroke-linejoin="round"/>
<path fill-rule="evenodd" clip-rule="evenodd" d="M141.62 27.75V31.9H128.2V27.86L141.62 27.75Z" fill="white" stroke="white" stroke-width="0.09" stroke-linecap="round" stroke-linejoin="round"/>
<path fill-rule="evenodd" clip-rule="evenodd" d="M159.94 27.75V31.9H145.24V27.86L159.94 27.75Z" fill="white" stroke="white" stroke-width="0.09" stroke-linecap="round" stroke-linejoin="round"/>
<path fill-rule="evenodd" clip-rule="evenodd" d="M159.94 33.29V37.44H149.39V33.4L159.94 33.29Z" fill="white" stroke="white" stroke-width="0.09" stroke-linecap="round" stroke-linejoin="round"/>
<path fill-rule="evenodd" clip-rule="evenodd" d="M159.94 38.7207V42.7807H152.8V38.8307L159.94 38.7207Z" fill="white" stroke="white" stroke-width="0.09" stroke-linecap="round" stroke-linejoin="round"/>
<path fill-rule="evenodd" clip-rule="evenodd" d="M105.75 38.8301C107.07 40.3501 108.24 41.8601 105.75 42.9801H95.27V38.9401L105.75 38.8301Z" fill="white" stroke="white" stroke-width="0.09" stroke-linecap="round" stroke-linejoin="round"/>
<path fill-rule="evenodd" clip-rule="evenodd" d="M63.72 33.3105V37.4605H54.24V33.4205L63.72 33.3105Z" fill="white" stroke="white" stroke-width="0.09" stroke-linecap="round" stroke-linejoin="round"/>
<path fill-rule="evenodd" clip-rule="evenodd" d="M93.48 27.6504V31.9004H77.81V27.7604L93.48 27.6504Z" fill="white" stroke="white" stroke-width="0.09" stroke-linecap="round" stroke-linejoin="round"/>
<path fill-rule="evenodd" clip-rule="evenodd" d="M111.47 27.6504V31.8004H101.35V27.7604L111.47 27.6504Z" fill="white" stroke="white" stroke-width="0.09" stroke-linecap="round" stroke-linejoin="round"/>
<path fill-rule="evenodd" clip-rule="evenodd" d="M111.36 33.4004V37.5504H95.27V33.5104L111.36 33.4004Z" fill="white" stroke="white" stroke-width="0.09" stroke-linecap="round" stroke-linejoin="round"/>
<path fill-rule="evenodd" clip-rule="evenodd" d="M7.13001 42.9C7.13001 42.9 7.12001 42.93 7.11001 42.94C7.11001 42.94 6.68001 42.76 6.20001 42.68C6.15001 42.68 6.10001 42.65 5.95001 42.62C5.27001 42.49 4.74001 42.68 4.71001 43.35C4.71001 43.46 4.69001 43.69 4.84001 44.14C5.11001 44.95 5.86001 45.98 7.15001 46.93C7.31001 47.05 8.07001 47.62 9.28001 48.19C9.63001 48.36 10.3 48.68 11.42 49.05C11.53 49.09 11.89 49.2 12.45 49.44C12.83 49.6 13.62 49.95 14.53 50.56C15.19 51 16.53 52 17.56 53.64C18.95 55.84 19.15 58.02 19.15 59.05C19.15 59.33 19.14 59.49 19.14 59.5C19.14 59.59 19.08 59.64 19.07 59.65C19.05 59.67 19.03 59.68 19 59.69C18.92 59.72 18.86 59.69 18.84 59.69C18.77 59.65 18.74 59.59 18.74 59.57C18.72 59.52 18.73 59.52 18.73 59.47C18.73 59.45 18.78 56.53 16.73 53.87C16.23 53.22 15.38 52.24 13.81 51.32C13.62 51.21 12.83 50.75 11.69 50.34C11.27 50.19 10.94 50.09 10.56 49.95C9.34001 49.52 8.58001 49.1 8.50001 49.06C8.05001 48.82 7.36001 48.43 6.60001 47.83C5.92001 47.3 5.45001 46.77 5.36001 46.67C4.41001 45.6 4.11001 44.71 4.00001 44.24C3.96001 44.08 3.95001 43.91 3.95001 43.88C3.93001 43.62 3.92001 43.17 4.14001 42.76C4.48001 42.13 5.23001 41.83 6.30001 42.29C6.30001 42.29 6.31001 42.29 6.40001 42.35C6.74001 42.56 7.02001 42.81 7.13001 42.92V42.9Z" fill="white"/>
<path fill-rule="evenodd" clip-rule="evenodd" d="M4.26001 43.3009C4.26001 43.3009 4.38001 43.3209 4.46001 43.4209C4.48001 43.4509 4.50001 43.4909 4.51001 43.5209C4.53001 43.5909 4.52001 43.5909 4.51001 43.6709C4.47001 44.0009 4.45001 44.5109 4.44001 44.5809C4.43001 44.9909 4.38 46.5709 4.74 48.2909C5 49.5209 5.33001 50.2909 5.50001 50.6609C6.78 53.5409 9.03001 54.2609 10.8 54.4009C10.92 54.4009 11.53 54.4609 12.14 54.5609C12.9 54.6809 14.71 55.0109 16.33 55.9309C18.36 57.0809 18.94 58.4509 19.05 58.7609C19.05 58.7809 19.06 58.8009 19.06 58.8009C19.06 58.8309 19.06 58.8509 19.06 58.8809C19.06 58.8909 19.06 58.9609 18.99 59.0109C18.89 59.0909 18.79 59.0409 18.78 59.0309C18.76 59.0209 18.74 59.0009 18.72 58.9809C18.69 58.9409 18.69 58.9409 18.67 58.8909C18.58 58.6709 17.94 57.3209 15.74 56.3509C15.13 56.0809 13.75 55.5309 11.27 55.3409C10.83 55.3109 10.72 55.3109 10.34 55.2709C7.88001 54.9909 5.78 53.6709 4.60001 50.9109C4.50001 50.6709 4.39001 50.3709 4.38001 50.3209C4.11001 49.5109 3.79001 48.2409 3.73001 46.4109C3.71001 45.5609 3.77001 44.8009 3.78001 44.6609C3.82001 44.1209 3.87001 43.8209 3.91001 43.5809C3.92001 43.5009 3.91001 43.5009 3.95001 43.4409C3.95001 43.4209 4.01001 43.3309 4.13001 43.3009C4.13001 43.3009 4.19001 43.2809 4.25001 43.3009H4.26001Z" fill="white"/>
<path fill-rule="evenodd" clip-rule="evenodd" d="M18.94 58.68C18.79 58.26 18.44 57.29 17.68 56.4C17.25 55.91 16.55 55.26 15.26 54.69C14.27 54.24 13.2 53.95 12.97 53.88C12.26 53.67 11.72 53.54 11.25 53.41C10.89 53.31 10.89 53.32 10.53 53.22C10.25 53.14 10 53.08 9.62001 52.95C9.47001 52.9 9.14001 52.78 8.82001 52.62C8.55001 52.49 8.26002 52.33 7.88001 52.08C7.82001 52.04 7.29001 51.68 6.86001 51.24C6.55001 50.92 6.34001 50.65 6.23001 50.5C6.23001 50.5 6.09001 50.31 5.95001 50.07C5.64001 49.55 5.47001 49.11 5.38001 48.86C5.32001 48.7 5.27002 48.49 5.26002 48.46C5.16002 48.04 5.14001 47.77 5.14001 47.73V47.71C5.14001 47.71 5.26001 48.13 5.62001 48.72C5.72001 48.88 6.04001 49.44 6.69001 50.05C6.78001 50.13 7.03001 50.39 7.47001 50.7C7.59001 50.78 7.88002 51.01 8.52002 51.33C8.90002 51.52 9.40001 51.73 9.84001 51.87C9.93002 51.9 10.1 51.96 10.37 52.03C10.43 52.05 10.99 52.21 11.03 52.22C11.6 52.4 11.76 52.45 12.28 52.63C13.21 52.95 13.6 53.11 13.8 53.2C14.73 53.58 15.37 53.92 15.93 54.28C16.8 54.84 17.81 55.69 18.45 57.12C18.74 57.77 18.87 58.36 18.93 58.66L18.94 58.68Z" fill="white"/>
<path fill-rule="evenodd" clip-rule="evenodd" d="M39.12 42.9607C39.23 42.8607 39.53 42.5807 39.91 42.3607C39.92 42.3607 39.95 42.3307 40.1 42.2807C41.43 41.7707 42.25 42.5007 42.3 43.5507C42.32 43.8507 42.27 44.1107 42.24 44.2707C42.19 44.5007 42.1 44.7607 42.08 44.8007C41.71 45.7807 40.93 46.8407 39.7 47.8407C39.64 47.8907 39.13 48.3007 38.47 48.7007C37.82 49.0907 37.3 49.3407 37.2 49.3907C36.11 49.9007 35.25 50.1507 34.9 50.2807C34.74 50.3307 33.97 50.5807 33.06 51.0407C31.7 51.7207 30.87 52.4807 30.65 52.6707C30.23 53.0507 29.38 53.8907 28.67 55.2007C27.61 57.1607 27.49 59.0307 27.5 59.5507C27.5 59.6407 27.45 59.6907 27.44 59.7007C27.42 59.7207 27.4 59.7407 27.38 59.7507C27.37 59.7507 27.3 59.7907 27.22 59.7507C27.14 59.7207 27.11 59.6607 27.1 59.6507C27.08 59.6007 27.08 59.6007 27.08 59.5507C27.05 59.1407 27.08 58.6407 27.08 58.5607C27.2 56.7407 27.83 54.6907 29.17 52.9607C29.91 52.0007 30.73 51.3007 31.44 50.7907C31.76 50.5607 32.39 50.1507 33.11 49.8007C33.88 49.4307 34.48 49.2207 34.6 49.1807C34.9 49.0807 35.79 48.8107 36.85 48.3007C37.06 48.2007 38.36 47.6107 39.53 46.6307C40.48 45.8407 41.16 44.9307 41.4 44.1007C41.4 44.0707 41.54 43.6707 41.48 43.3007C41.38 42.6907 40.8 42.5507 40.03 42.7607C40 42.7607 39.67 42.8007 39.12 43.0107C39.09 43.0207 39.09 43.0207 39.09 43.0207C39.07 43.0107 39.09 42.9907 39.07 42.9807L39.12 42.9607Z" fill="white"/>
<path fill-rule="evenodd" clip-rule="evenodd" d="M41.98 43.3606C41.98 43.3606 42.1 43.3406 42.2 43.4206C42.23 43.4406 42.26 43.4706 42.28 43.5106C42.32 43.5806 42.31 43.5806 42.32 43.6506C42.35 43.8906 42.4 44.2006 42.45 44.7306C42.57 46.2506 42.45 47.4106 42.39 47.9406C42.22 49.3206 41.91 50.2806 41.64 50.9506C41.56 51.1406 41.45 51.3706 41.43 51.4106C40.73 52.8306 39.15 55.1106 35.51 55.3806C35.34 55.3906 34.31 55.4306 33.14 55.6406C32.54 55.7506 29.73 56.2406 28.13 58.0906C27.72 58.5706 27.57 58.9306 27.55 58.9706C27.53 59.0106 27.53 59.0106 27.5 59.0506C27.5 59.0506 27.45 59.1106 27.37 59.1206C27.36 59.1206 27.29 59.1206 27.23 59.0706C27.17 59.0206 27.16 58.9506 27.16 58.9406C27.16 58.8906 27.16 58.8906 27.18 58.8306C27.29 58.4806 27.54 58.1106 27.58 58.0506C27.99 57.4406 28.93 56.3206 30.95 55.4806C32.28 54.9306 33.54 54.7006 34.2 54.6006C34.8 54.5106 35.36 54.4606 35.46 54.4506C37.29 54.3006 39.51 53.5306 40.76 50.6106C40.91 50.2606 41.55 48.8606 41.73 46.4906C41.75 46.2906 41.85 45.1006 41.72 43.8106C41.72 43.7906 41.7 43.7006 41.7 43.6906C41.7 43.6706 41.68 43.5706 41.76 43.4706C41.84 43.3706 41.94 43.3606 41.96 43.3506L41.98 43.3606Z" fill="white"/>
<path fill-rule="evenodd" clip-rule="evenodd" d="M27.31 58.7405C27.51 57.7705 27.93 56.3405 29.38 55.0605C29.98 54.5305 30.66 54.1305 31.17 53.8705C31.78 53.5505 32.55 53.2405 32.67 53.1905C32.89 53.1005 33.36 52.9105 34.5 52.5305C34.52 52.5305 35.08 52.3405 35.31 52.2705C35.93 52.0905 35.93 52.0905 36.01 52.0605C36.1 52.0305 36.47 51.9205 36.8 51.7905C36.9 51.7505 37.37 51.5705 37.86 51.3105C37.94 51.2605 38.31 51.0805 38.75 50.7605C38.84 50.6905 39.15 50.4905 39.52 50.1305C39.65 50.0105 40.15 49.5605 40.6 48.8005C40.6 48.8005 40.9 48.3305 41.07 47.8405C41.09 47.7705 41.09 47.7705 41.09 47.7705C41.09 47.7705 41.07 48.2205 40.87 48.8805C40.87 48.8805 40.78 49.1705 40.61 49.5405C40.39 50.0005 40.16 50.3505 40.03 50.5405C40.01 50.5605 39.87 50.7605 39.67 50.9905C39.38 51.3305 39.16 51.5205 38.99 51.6605C38.94 51.7005 38.67 51.9305 38.36 52.1405C38.34 52.1505 38.06 52.3405 37.77 52.5005C37.41 52.6905 37.11 52.8305 36.72 52.9805C36.58 53.0305 36.23 53.1405 36.13 53.1705C35.59 53.3205 35.45 53.3505 35.39 53.3705L34.29 53.6605C34.18 53.6905 33.66 53.8205 32.95 54.0405C32.51 54.1705 31.46 54.4905 30.55 54.9605C29.31 55.6005 28.65 56.3105 28.24 56.8705C27.66 57.6705 27.38 58.4905 27.3 58.7405H27.31Z" fill="white"/>
<path fill-rule="evenodd" clip-rule="evenodd" d="M23.12 48.8906C23.12 48.8906 19.25 61.6306 23.12 61.5706C27 61.5106 23.12 48.8906 23.12 48.8906Z" fill="white" stroke="white" stroke-width="0.03" stroke-linecap="round" stroke-linejoin="round"/>
<path fill-rule="evenodd" clip-rule="evenodd" d="M36.61 25.8203C38 25.9803 40.01 26.9403 40.81 31.3603C41.26 33.8303 41.13 36.3403 41.08 37.0603C41.08 37.1903 41.06 37.2703 41.06 37.2703C41.05 37.3103 41.04 37.3603 41.02 37.3903C41.02 37.4103 40.96 37.5103 40.83 37.5503C40.81 37.5503 40.7 37.5903 40.58 37.5303C40.56 37.5303 40.46 37.4703 40.42 37.3403C40.39 37.2503 40.4 37.2503 40.42 37.1603C40.56 35.5803 40.84 29.2603 38.23 27.0503C37.75 26.6403 36.96 26.1903 35.71 26.2903C35.68 26.2903 35.68 26.2903 35.65 26.2903C35.63 26.2903 35.52 26.2803 35.46 26.1603C35.46 26.1403 35.4 26.0403 35.46 25.9303C35.48 25.9003 35.51 25.8703 35.59 25.8103C36.19 25.3703 37.86 24.6003 39.44 26.4403C39.57 26.5903 39.83 26.9303 40.09 27.3903C40.7 28.4903 41.02 29.6503 41.12 29.9803L41.13 30.0203C41.13 30.0503 41.13 30.0803 41.13 30.1103L41.06 30.1703C41.03 30.1703 41 30.1703 40.97 30.1703C40.94 30.1603 40.93 30.1303 40.91 30.1003C40.91 30.1003 40.9 30.0403 40.78 29.7203C40.05 27.7303 39.33 26.9103 39.03 26.6003C38.7 26.2503 37.83 25.4403 36.59 25.8303L36.61 25.8203Z" fill="white"/>
<path fill-rule="evenodd" clip-rule="evenodd" d="M42.87 39.4802C42.73 39.4402 42.47 39.3402 42.26 39.2202C42.03 39.1002 41.92 39.0202 41.89 39.0002C41.73 38.9002 41.64 38.8302 41.42 38.6202C41.05 38.2802 40.1 37.3702 39.16 35.6002C38.46 34.3002 38.03 32.9602 38 32.8502C37.97 32.7602 37.98 32.6502 37.98 32.6402C37.98 32.5702 38.01 32.5002 38.04 32.4402C38.07 32.3802 38.12 32.3202 38.17 32.2802L38.36 32.1802C38.43 32.1802 38.5 32.1502 38.57 32.1602C38.64 32.1602 38.71 32.1902 38.77 32.2202C38.83 32.2502 38.89 32.3002 38.93 32.3502C39.02 32.4602 39.01 32.4702 39.04 32.6002C39.26 33.5002 39.79 35.4202 40.93 37.1602C40.97 37.2202 41.37 37.8502 41.92 38.4502C41.94 38.4702 41.96 38.5002 42.03 38.5802C42.03 38.5802 42.19 38.7602 42.19 38.7702C42.26 38.8602 42.29 38.9002 42.5 39.1202C42.69 39.3302 42.81 39.4302 42.85 39.4702L42.87 39.4802Z" fill="white"/>
<path fill-rule="evenodd" clip-rule="evenodd" d="M39.28 25.4104L39.02 25.6704L36.59 25.4904L35.74 26.1704H36.98L38.58 27.0604L39.83 28.9904L40.59 31.8104L40.74 35.0604L40.71 37.1703L39.74 35.3503L38.63 32.7404L37.56 32.8104L35.42 33.0303L33.26 32.4004L31.61 31.2204L34.97 24.2104L36.09 23.8604L37.55 23.9304L38.3 24.4404L39.26 25.4004L39.28 25.4104Z" fill="white" stroke="white" stroke-width="0.12" stroke-linecap="round" stroke-linejoin="round"/>
<path fill-rule="evenodd" clip-rule="evenodd" d="M41.02 29.6103L40.54 27.5903L39.37 25.3203H37.87L38.57 25.9403L39.71 27.0003L41.03 29.6003L41.02 29.6103Z" fill="white" stroke="white" stroke-width="0.09" stroke-linecap="round" stroke-linejoin="round"/>
<path d="M31.68 31C31.68 31 35.92 23.17 37.98 15.57C40.01 8.08003 43.75 30 41.75 38.3" stroke="white" stroke-width="0.65" stroke-linecap="round" stroke-linejoin="round"/>
<path fill-rule="evenodd" clip-rule="evenodd" d="M30.74 30.6509C30.74 30.6509 30.76 30.6309 30.8 30.6309C30.82 30.6309 30.84 30.6409 30.86 30.6509C30.86 30.6509 30.86 30.6609 30.91 30.6909C30.97 30.7409 31.28 30.9809 31.72 31.2609C31.77 31.2909 31.98 31.4309 32.31 31.6209C32.35 31.6409 32.52 31.7409 32.85 31.9109C34.09 32.5309 35.45 32.8009 36.78 32.6109C37.51 32.5009 38.01 32.2909 38.18 32.2109C38.23 32.1909 38.23 32.1809 38.23 32.1809C38.3 32.1609 38.36 32.1309 38.43 32.1309C38.5 32.1309 38.57 32.1309 38.63 32.1609C38.69 32.1809 38.75 32.2209 38.8 32.2609L38.93 32.4309C38.95 32.5009 38.98 32.5609 38.98 32.6309C38.98 32.7009 38.98 32.7709 38.95 32.8309C38.93 32.8909 38.89 32.9509 38.85 33.0109C38.77 33.1009 38.76 33.1009 38.65 33.1509C38.3 33.3009 37.86 33.3909 37.79 33.4009C36.09 33.7509 34.71 33.3309 34.37 33.2209C33.97 33.1009 33.29 32.8509 32.48 32.3309C32.47 32.3309 32.23 32.1709 31.93 31.9309C31.84 31.8609 31.52 31.5909 31.26 31.3209C30.98 31.0409 30.78 30.8109 30.78 30.8009C30.78 30.8009 30.76 30.7809 30.75 30.7709C30.73 30.7509 30.73 30.7209 30.72 30.7109C30.72 30.6809 30.72 30.6809 30.74 30.6509Z" fill="white"/>
<path fill-rule="evenodd" clip-rule="evenodd" d="M34.67 24.2807C34.67 24.2807 34.63 24.1807 34.67 24.0707C34.68 24.0407 34.7 24.0107 34.73 23.9807C34.78 23.9307 34.78 23.9307 34.85 23.9107C37.7 22.7907 39.64 24.5407 40.67 27.7207C41.06 28.9307 41.19 29.9507 41.2 29.9907C41.2 30.0607 41.19 30.0607 41.12 30.1007L41.05 30.0807C41.01 30.0507 41.02 30.0507 41.01 30.0007C40.88 29.2207 39.79 23.9907 36.54 24.0607C35.88 24.0707 35.32 24.3007 35.02 24.4307C34.92 24.4707 34.83 24.4307 34.81 24.4307C34.71 24.3907 34.67 24.3007 34.66 24.2807H34.67Z" fill="white"/>
<path fill-rule="evenodd" clip-rule="evenodd" d="M9.93001 25.8906C9.61001 25.7906 9.22001 25.7406 8.81001 25.8406C8.45001 25.9306 7.84001 26.1606 7.14001 27.0806C6.38001 28.0706 5.88001 29.4206 5.66001 30.0506C5.65001 30.0806 5.62001 30.1706 5.62001 30.1706C5.60001 30.1906 5.59001 30.2306 5.56001 30.2406H5.47001C5.45001 30.2206 5.41001 30.2106 5.40001 30.1806C5.39001 30.1506 5.40001 30.1206 5.40001 30.0906C5.40001 30.0806 5.40001 30.0806 5.45001 29.9306C5.76001 28.8606 6.10001 28.0606 6.47001 27.4106C6.59001 27.1906 6.85001 26.7906 7.12001 26.4706C8.73001 24.6206 10.45 25.4806 11.01 25.9206C11.01 25.9206 11.06 25.9606 11.08 26.0006C11.15 26.1106 11.1 26.2106 11.08 26.2306C11.02 26.3506 10.91 26.3606 10.89 26.3606C10.78 26.3606 9.88001 26.2206 8.95001 26.7006C5.70001 28.3406 5.96001 35.3706 6.13001 37.2206C6.13001 37.2906 6.13001 37.2906 6.13001 37.2906C6.13001 37.3306 6.13001 37.3806 6.12001 37.4206C6.12001 37.4406 6.08001 37.5506 5.96001 37.6106C5.94001 37.6106 5.84001 37.6706 5.71001 37.6306C5.58001 37.5906 5.53001 37.4906 5.52001 37.4706C5.48001 37.4006 5.49001 37.3906 5.48001 37.3106C5.43001 36.6506 5.42001 35.8706 5.42001 35.7506C5.38001 32.3406 5.96001 30.4006 6.10001 29.9306C6.48001 28.6706 7.13001 27.3006 8.29001 26.5106C8.87001 26.1206 9.46001 25.9606 9.95001 25.9006L9.93001 25.8906Z" fill="white"/>
<path fill-rule="evenodd" clip-rule="evenodd" d="M3.66997 39.5507C3.80997 39.4307 3.89997 39.3407 4.13997 39.0807C4.24997 38.9607 4.24997 38.9607 4.40997 38.7707C4.46997 38.7007 4.46997 38.7007 4.52997 38.6307C4.58997 38.5607 4.58997 38.5607 4.64997 38.5007C5.37997 37.7007 5.86997 36.8307 5.94997 36.6907C6.93997 34.9607 7.36997 33.1707 7.49997 32.6407C7.51997 32.5407 7.58997 32.4607 7.59997 32.4507C7.63997 32.4007 7.69997 32.3507 7.75997 32.3207C7.81997 32.2907 7.88997 32.2607 7.95997 32.2607L8.17997 32.2807C8.23997 32.3107 8.31997 32.3307 8.36997 32.3807C8.41997 32.4207 8.46997 32.4807 8.49997 32.5407C8.52997 32.6007 8.55997 32.6707 8.55997 32.7407C8.57997 32.8807 8.55997 32.8807 8.51997 33.0207C7.82997 35.1007 6.96997 36.5507 6.15997 37.5907C5.61997 38.2807 5.12997 38.7207 5.10997 38.7307C4.91997 38.9007 4.85997 38.9507 4.77997 39.0107C4.77997 39.0107 4.65997 39.1007 4.53997 39.1707C4.28997 39.3207 4.15997 39.3807 4.12997 39.3907C4.08997 39.4107 3.83997 39.5207 3.65997 39.5807L3.66997 39.5507Z" fill="white"/>
<path fill-rule="evenodd" clip-rule="evenodd" d="M7.26999 25.4802L8.29999 25.7402L9.95999 25.5602C9.95999 25.5602 10.83 25.9202 10.84 26.0602C10.85 26.1902 9.94999 26.2502 9.70999 26.3202C9.22999 26.4702 8.47999 26.6602 7.92999 27.1302C7.37999 27.6002 6.99999 28.4302 6.70999 29.1702C6.38999 29.9902 6.13999 31.0802 5.98999 32.0702C5.83999 33.0602 5.79999 34.3402 5.79999 35.1402C5.79999 35.7102 5.89999 37.1402 5.89999 37.1402L6.97999 35.6902L7.97999 32.9002L9.33999 33.0502L11.34 33.1202L13.68 32.3402L15.18 31.3502L11.57 24.3002L10.45 23.9502L9.38999 24.1302L8.26999 24.6002L7.26999 25.4802Z" fill="white" stroke="white" stroke-width="0.12" stroke-linecap="round" stroke-linejoin="round"/>
<path fill-rule="evenodd" clip-rule="evenodd" d="M7.96001 25.0002C7.96001 25.0002 7.39001 25.2602 6.77001 26.3302C6.18001 27.3402 5.55001 29.8702 5.48001 29.9002C5.39001 29.9302 6.41001 27.6302 6.90001 26.9502C7.27001 26.4302 8.73001 25.4002 8.73001 25.4002L7.97001 24.9902L7.96001 25.0002Z" fill="white" stroke="white" stroke-width="0.03" stroke-linecap="round" stroke-linejoin="round"/>
<path d="M14.86 31.0703C14.86 31.0703 10.62 23.2403 8.55998 15.6403C6.52998 8.15035 2.78998 30.0703 4.78998 38.3703" stroke="white" stroke-width="0.65" stroke-linecap="round" stroke-linejoin="round"/>
<path fill-rule="evenodd" clip-rule="evenodd" d="M15.81 30.7202C15.81 30.7202 15.83 30.7502 15.83 30.7802C15.83 30.8002 15.82 30.8202 15.81 30.8402C15.81 30.8402 15.81 30.8402 15.76 30.8902C15.34 31.3702 15.04 31.6402 14.92 31.7402C14.82 31.8302 14.57 32.0502 14.15 32.3402C14.1 32.3702 13.64 32.6902 13 32.9802C11.69 33.5702 10.56 33.6002 10.3 33.6102C8.83 33.6502 7.86 33.2102 7.86 33.2102C7.8 33.1702 7.74 33.1402 7.69 33.0802C7.65 33.0302 7.61 32.9702 7.59 32.9002C7.57 32.8402 7.56 32.7702 7.56 32.7002L7.61 32.5002C7.65 32.4402 7.68 32.3802 7.74 32.3302C7.79 32.2902 7.85 32.2502 7.91 32.2302C7.97 32.2102 8.04 32.2002 8.11 32.2002C8.23 32.2002 8.23 32.2002 8.33 32.2602C8.67 32.4302 10.37 33.1402 12.61 32.4202C13.12 32.2502 13.45 32.1002 13.91 31.8702C13.96 31.8402 14.18 31.7302 14.53 31.5202C14.58 31.4902 14.81 31.3502 15.15 31.1102C15.36 30.9602 15.53 30.8302 15.62 30.7602C15.65 30.7402 15.67 30.7202 15.67 30.7202C15.72 30.7002 15.72 30.7002 15.73 30.7002C15.76 30.7002 15.76 30.7002 15.79 30.7202H15.81Z" fill="white"/>
<path fill-rule="evenodd" clip-rule="evenodd" d="M11.89 24.4806C11.89 24.4806 11.85 24.5806 11.74 24.6306C11.71 24.6406 11.67 24.6506 11.64 24.6506C11.57 24.6506 11.57 24.6506 11.51 24.6206C10.37 24.1206 8.64 23.8206 7.15 26.0106C6.05 27.6306 5.62 29.8306 5.55 30.2206C5.54 30.2906 5.51999 30.2806 5.44999 30.3006L5.38999 30.2606C5.35999 30.2206 5.37 30.2206 5.38 30.1706C5.41 29.9706 5.58 28.7506 6.08 27.4306C7.18 24.5006 9.07999 23.0806 11.73 24.1206C11.8 24.1506 11.8 24.1406 11.85 24.1906C11.93 24.2706 11.93 24.3606 11.93 24.3806C11.93 24.3806 11.93 24.4406 11.91 24.4906L11.89 24.4806Z" fill="white"/>
<path fill-rule="evenodd" clip-rule="evenodd" d="M23.26 67.9007C23.26 67.9007 23.22 67.9307 23.17 67.9207C23.11 67.9207 23.12 67.9007 23.08 67.8607C22.18 66.7907 20.33 66.0407 19.93 65.8907C19.92 65.8907 19.84 65.8507 19.8 65.7607C19.79 65.7307 19.78 65.7007 19.78 65.6707C19.78 65.6607 19.78 65.5707 19.85 65.5007C19.92 65.4307 20 65.4307 20.01 65.4307C20.07 65.4307 20.07 65.4307 20.13 65.4607C20.54 65.6407 20.98 65.8907 21.05 65.9307C22.58 66.8007 23.12 67.5207 23.27 67.7207C23.3 67.7607 23.3 67.7607 23.29 67.8107C23.29 67.8607 23.25 67.8807 23.25 67.8907L23.26 67.9007Z" fill="white"/>
<path fill-rule="evenodd" clip-rule="evenodd" d="M23.06 67.9004C23.06 67.9004 23.02 67.8704 23.02 67.8204C23.02 67.7604 23.02 67.7604 23.06 67.7204C23.19 67.5504 23.78 66.7504 25.47 65.8304C25.91 65.5904 26.22 65.4604 26.22 65.4604C26.25 65.4604 26.28 65.4404 26.31 65.4404C26.32 65.4404 26.41 65.4404 26.47 65.5104C26.54 65.5804 26.54 65.6704 26.54 65.6804C26.54 65.7804 26.48 65.8304 26.47 65.8404C26.42 65.8904 26.42 65.8804 26.36 65.9104C25.93 66.0704 24.13 66.8204 23.24 67.8704C23.2 67.9104 23.21 67.9204 23.15 67.9304C23.1 67.9304 23.1 67.9304 23.06 67.9104V67.9004Z" fill="white"/>
<path d="M20.18 65.5906C20.18 65.5906 23.13 62.6906 26.24 65.6406" stroke="white" stroke-width="0.47" stroke-linecap="round" stroke-linejoin="round"/>
<path d="M20.79 30.3404C20.79 30.3404 19.79 31.0504 18.43 30.5204C17.08 29.9904 9.82999 10.4404 8.00999 10.4404C7.33999 10.4404 5.70999 11.2204 3.88999 16.9204C1.94999 22.9904 1.23999 42.8904 0.949991 43.7804C0.659991 44.6604 0.129991 50.3804 0.769991 54.2604C1.41999 58.1504 6.35999 60.3804 7.18999 60.8004C8.00999 61.2104 10.6 61.6204 11.72 62.3304C14.43 64.0404 18.96 70.0204 23.91 69.5204" stroke="white" stroke-width="0.91" stroke-linecap="round" stroke-linejoin="round"/>
<path d="M25.84 30.4C25.84 30.4 26.84 31.11 28.2 30.58C29.55 30.05 36.8 10.5 38.62 10.5C39.29 10.5 40.92 11.28 42.74 16.98C44.68 23.05 45.39 42.95 45.68 43.84C45.97 44.72 46.5 50.44 45.86 54.32C45.21 58.21 40.26 60.44 39.44 60.86C38.62 61.27 36.03 61.68 34.91 62.39C32.2 64.1 28.01 70.02 23.06 69.52" stroke="white" stroke-width="0.91" stroke-linecap="round" stroke-linejoin="round"/>
<path d="M17.68 28.9709C17.68 28.9709 22.67 26.1909 29.21 29.0109" stroke="white" stroke-width="0.91" stroke-linecap="round" stroke-linejoin="round"/>
<path fill-rule="evenodd" clip-rule="evenodd" d="M38.1 55.5302C38.1 55.5302 38.1 55.5102 38.1 55.4902C38.12 55.4602 38.13 55.4702 38.27 55.4202C38.32 55.4002 38.57 55.3302 38.86 55.0702C38.92 55.0202 38.94 55.0102 39.04 54.9202C39.04 54.9202 39.06 54.9002 39.07 54.9002C39.07 54.9002 39.22 54.8202 39.44 54.6702C39.48 54.6402 39.68 54.5302 39.97 54.3302C40.04 54.2802 40.24 54.1602 40.56 53.9202C40.61 53.8802 40.68 53.8402 40.84 53.7202C40.9 53.6702 40.95 53.6402 41.12 53.5302C41.19 53.4802 41.24 53.4502 41.45 53.3002C41.48 53.2802 41.59 53.2102 41.8 53.0502C41.83 53.0302 42.13 52.8302 42.51 52.5202C42.59 52.4602 42.83 52.2802 43.18 51.9702C43.21 51.9402 43.3 51.8702 43.44 51.7402C43.49 51.6902 43.53 51.6702 43.66 51.5402C43.67 51.5302 43.71 51.5102 43.78 51.4402C43.83 51.4002 43.84 51.4002 43.97 51.3102C43.99 51.3002 44.16 51.1902 44.39 50.9602C44.62 50.7302 44.7 50.5302 44.71 50.5202C44.72 50.5202 44.73 50.5002 44.74 50.4902H44.78C44.78 50.5002 44.8 50.5102 44.81 50.5202C44.82 50.5502 44.81 50.5502 44.81 50.5802C44.77 50.6702 44.67 50.8702 44.56 51.1402C44.54 51.1902 44.48 51.3402 44.38 51.5802C44.37 51.6202 44.36 51.6202 44.29 51.8002L44.2 51.9702C44.19 51.9902 44.05 52.2002 44.04 52.2202C43.87 52.4602 43.79 52.5602 43.76 52.5902C43.5 52.9002 43.28 53.1402 43.21 53.2202C43.21 53.2202 43.1 53.3302 42.95 53.4702C42.76 53.6502 42.61 53.7802 42.51 53.8702C42.48 53.8902 42.24 54.0902 42.05 54.2302C41.83 54.3802 41.78 54.4202 41.75 54.4302C41.46 54.6102 41.38 54.6502 41.32 54.6802C41.18 54.7536 41.04 54.8202 40.9 54.8802C40.67 54.9802 40.48 55.0602 40.42 55.0802C40.34 55.1102 39.83 55.2802 39.74 55.3002C39.55 55.3502 39.41 55.3802 39.3 55.4102C39.28 55.4102 39.26 55.4102 39.06 55.4202C39 55.4202 38.9 55.4202 38.68 55.4402C38.36 55.4702 38.2 55.5502 38.18 55.5402C38.14 55.5402 38.14 55.5402 38.14 55.5402C38.12 55.5302 38.12 55.5302 38.11 55.5102L38.1 55.5302Z" fill="white"/>
<path fill-rule="evenodd" clip-rule="evenodd" d="M38.11 58.1907C38.11 58.1907 38.11 58.1707 38.11 58.1507C38.11 58.1407 38.13 58.1307 38.14 58.1207C38.16 58.1107 38.37 58.0407 38.62 57.8507C38.81 57.7107 38.87 57.6307 38.91 57.5907C39.04 57.4707 39.08 57.4307 39.08 57.4207C39.08 57.4207 39.24 57.3107 39.44 57.1507C39.54 57.0707 39.71 56.9507 39.99 56.7207C40.08 56.6407 40.27 56.5007 40.6 56.2107C40.64 56.1707 40.72 56.1107 40.89 55.9607C40.94 55.9207 41 55.8707 41.17 55.7207C41.21 55.6907 41.3 55.6107 41.47 55.4607C41.53 55.4007 41.64 55.3207 41.82 55.1507C41.89 55.0807 42.17 54.8507 42.54 54.4707C42.6 54.4007 42.85 54.1707 43.18 53.8007C43.22 53.7507 43.29 53.6807 43.44 53.5007C43.46 53.4807 43.53 53.4107 43.63 53.2807C43.67 53.2407 43.67 53.2407 43.77 53.1407C43.81 53.1007 43.83 53.0907 43.95 52.9707C43.97 52.9507 44.13 52.8207 44.35 52.5507C44.57 52.2807 44.65 52.0507 44.66 52.0407C44.66 52.0307 44.68 52.0107 44.69 52.0107C44.69 52.0107 44.73 52.0107 44.74 52.0107C44.75 52.0207 44.76 52.0307 44.77 52.0407C44.77 52.0507 44.77 52.0707 44.77 52.0807C44.77 52.0907 44.65 52.3307 44.53 52.7207C44.52 52.7607 44.46 52.9307 44.38 53.2007C44.37 53.2507 44.36 53.2507 44.3 53.4407C44.3 53.4407 44.3 53.4407 44.22 53.6307C44.22 53.6407 44.08 53.9007 44.07 53.9207C44.05 53.9607 43.9 54.2207 43.85 54.2907C43.61 54.6607 43.4 54.9407 43.3 55.0807C43.3 55.0807 43.12 55.3107 42.88 55.5907C42.62 55.8807 42.51 55.9907 42.43 56.0707C42.32 56.1707 42.21 56.2907 41.92 56.5307C41.92 56.5307 41.69 56.7207 41.53 56.8307C41.24 57.0307 41.15 57.0807 41.14 57.0807C40.88 57.2407 40.58 57.4007 40.47 57.4507C40.15 57.6007 39.92 57.7107 39.84 57.7407C39.84 57.7407 39.68 57.8107 39.46 57.8807C39.42 57.9007 39.35 57.9207 39.35 57.9207C39.33 57.9207 39.28 57.9207 39.1 57.9707C39.05 57.9807 38.69 58.0207 38.35 58.1507C38.26 58.1907 38.18 58.2207 38.18 58.2207C38.14 58.2207 38.14 58.2207 38.14 58.2207C38.12 58.2207 38.12 58.2207 38.11 58.1907Z" fill="white"/>
<path fill-rule="evenodd" clip-rule="evenodd" d="M8.17998 58.1309C8.17998 58.1309 8.17998 58.1509 8.14998 58.1609C8.13998 58.1609 8.11998 58.1609 8.10998 58.1609C8.08998 58.1609 7.89998 58.0509 7.58998 57.9809C7.32998 57.9209 7.25998 57.9209 7.19998 57.9109C7.00998 57.8709 6.95998 57.8709 6.94998 57.8609C6.91998 57.8609 6.62998 57.7409 6.59998 57.7309C6.40998 57.6609 6.40998 57.6609 6.22998 57.5709C5.87998 57.4109 5.77998 57.3609 5.73998 57.3409C5.39998 57.1609 5.13998 57.0009 5.07998 56.9609C5.05998 56.9509 4.80998 56.7809 4.65998 56.6809C4.38998 56.4809 4.31998 56.4109 4.27998 56.3709C4.15998 56.2609 4.01998 56.1509 3.74998 55.8709C3.51998 55.6309 3.09998 55.1409 2.96998 54.9709C2.68998 54.6009 2.48998 54.2909 2.43998 54.2109C2.41998 54.1809 2.25998 53.9209 2.18998 53.7909C2.17998 53.7709 2.07998 53.5809 2.06998 53.5509L1.99998 53.3609C1.99998 53.3609 1.97998 53.3009 1.92998 53.1409C1.92998 53.1209 1.87998 52.9409 1.77998 52.6509C1.72998 52.5009 1.70998 52.4009 1.55998 52.0509L1.53998 51.9909C1.53998 51.9809 1.53998 51.9609 1.53998 51.9509L1.56998 51.9209C1.57998 51.9209 1.59998 51.9209 1.60998 51.9209C1.61998 51.9209 1.62998 51.9409 1.63998 51.9509C1.64998 51.9609 1.73998 52.2109 1.98998 52.5109C2.02998 52.5509 2.12998 52.6909 2.31998 52.8609C2.36998 52.9009 2.37998 52.9309 2.49998 53.0309C2.51998 53.0509 2.52998 53.0609 2.63998 53.1709C2.63998 53.1709 2.70998 53.2509 2.82998 53.3909C2.86998 53.4309 2.92998 53.5109 3.08998 53.6809C3.13998 53.7309 3.34998 53.9809 3.72998 54.3509C3.77998 54.4009 4.01998 54.6609 4.43998 55.0309C4.46998 55.0609 4.56998 55.1609 4.78998 55.3409C4.80998 55.3609 4.91998 55.4509 5.08998 55.6009C5.13998 55.6409 5.18998 55.6909 5.36998 55.8409C5.40998 55.8709 5.47998 55.9409 5.65998 56.0909C5.72998 56.1509 5.90998 56.3209 6.25998 56.6009C6.30998 56.6409 6.45998 56.7809 6.80998 57.0309C6.82998 57.0509 6.94998 57.1509 7.18998 57.3209C7.20998 57.3309 7.20998 57.3309 7.22998 57.3609C7.31998 57.4509 7.38998 57.5109 7.38998 57.5109C7.38998 57.5109 7.50998 57.6409 7.68998 57.7809C7.92998 57.9609 8.13998 58.0209 8.14998 58.0309C8.17998 58.0609 8.17998 58.0609 8.17998 58.0609C8.17998 58.0809 8.17998 58.0809 8.17998 58.1009V58.1309Z" fill="white"/>
<path fill-rule="evenodd" clip-rule="evenodd" d="M8.17999 55.4807C8.17999 55.4807 8.17999 55.5007 8.14999 55.5107C8.13999 55.5107 8.11999 55.5107 8.10999 55.5107C8.07999 55.5107 7.91999 55.4407 7.60999 55.4107C7.38999 55.3907 7.28999 55.4007 7.22999 55.3907C7.06999 55.3907 7.00999 55.3807 6.99999 55.3807C6.97999 55.3807 6.70999 55.3107 6.67999 55.3007C6.55999 55.2707 6.54999 55.2707 6.28999 55.1907C5.95999 55.0807 5.86999 55.0507 5.82999 55.0307C5.60999 54.9407 5.26999 54.8007 5.11999 54.7207C4.88999 54.6007 4.80999 54.5607 4.78999 54.5407C4.56999 54.4107 4.49999 54.3607 4.47999 54.3507C4.19999 54.1607 4.07999 54.0707 3.96999 53.9807C3.91999 53.9407 3.79999 53.8507 3.50999 53.5807C3.33999 53.4207 3.19999 53.2907 3.11999 53.2107C2.99999 53.0907 2.59999 52.6407 2.45999 52.4607C2.29999 52.2407 2.23999 52.1707 2.22999 52.1407C2.10999 51.9607 2.09999 51.9407 2.08999 51.9207C2.00999 51.7707 2.00999 51.7707 1.99999 51.7507C1.94999 51.6307 1.94999 51.6307 1.89999 51.5007C1.84999 51.3607 1.84999 51.3607 1.71999 51.0507C1.60999 50.7807 1.48999 50.5507 1.48999 50.5407C1.48999 50.5307 1.48999 50.5107 1.48999 50.5007L1.51999 50.4707C1.52999 50.4707 1.54999 50.4707 1.55999 50.4707C1.58999 50.4707 1.58999 50.4807 1.59999 50.5107C1.68999 50.6907 1.79999 50.8407 2.02999 51.0507C2.16999 51.1807 2.27999 51.2507 2.33999 51.3007C2.43999 51.3707 2.45999 51.3807 2.50999 51.4207C2.59999 51.4907 2.59999 51.4907 2.64999 51.5307C2.75999 51.6307 2.76999 51.6307 2.86999 51.7307C3.00999 51.8607 3.00999 51.8507 3.14999 51.9807C3.45999 52.2607 3.66999 52.4107 3.79999 52.5107C4.14999 52.7907 4.37999 52.9507 4.53999 53.0607C4.70999 53.1807 4.70999 53.1807 4.88999 53.3107C5.04999 53.4207 5.04999 53.4207 5.18999 53.5207C5.32999 53.6207 5.32999 53.6207 5.46999 53.7207C5.61999 53.8207 5.61999 53.8207 5.74999 53.9207C6.04999 54.1407 6.24999 54.2607 6.30999 54.3007C6.59999 54.5007 6.78999 54.6107 6.83999 54.6407C7.06999 54.7907 7.20999 54.8707 7.20999 54.8707C7.21999 54.8707 7.26999 54.9307 7.37999 55.0107C7.41999 55.0407 7.50999 55.1307 7.67999 55.2307C7.93999 55.3907 8.12999 55.4107 8.13999 55.4207C8.16999 55.4507 8.16999 55.4407 8.16999 55.4507C8.17999 55.4707 8.17999 55.4707 8.16999 55.4907L8.17999 55.4807Z" fill="white"/>
<path fill-rule="evenodd" clip-rule="evenodd" d="M18.31 35.8306C18.31 35.8306 18.18 35.7706 18.02 36.2206C17.94 36.4606 17.86 36.8006 17.79 37.3906C17.68 38.3306 17.7 39.5906 18.04 40.7606C18.1 40.9606 18.3 41.7906 18.85 42.4906C19 42.6806 19.37 43.1906 20.15 43.5006C20.3 43.5606 20.79 43.8006 21.73 43.8406C21.79 43.8406 22.07 43.8706 22.54 43.8606C22.58 43.8606 22.88 43.8606 23.29 43.8306C23.32 43.8306 23.61 43.8206 23.96 43.7606C24.02 43.7606 24.28 43.7306 24.62 43.6406C24.75 43.6106 25.25 43.5206 25.81 43.1806C25.91 43.1206 26.35 42.9006 26.8 42.3206C26.9 42.1906 27.24 41.8106 27.55 41.0206C27.59 40.9206 28.13 39.7706 28.14 38.0006C28.14 38.0006 28.19 36.9106 27.94 36.1706C27.77 35.6606 27.58 35.7006 27.54 35.7106C27.55 35.7106 27.77 35.5306 28.22 36.1006C28.68 36.6806 29.03 37.5706 29.14 37.9106C29.46 38.8806 29.69 40.1306 29.61 41.4306C29.61 41.4506 29.58 41.8306 29.48 42.3006C29.36 42.9006 29.19 43.3406 29.09 43.5706C29.09 43.5706 28.99 43.7906 28.85 44.0506C28.46 44.7506 28.02 45.2306 27.7 45.5306C27.7 45.5306 27.54 45.6806 27.32 45.8506C26.67 46.3406 26.04 46.6206 25.65 46.7806C25.65 46.7806 25.48 46.8406 25.25 46.9106C24.81 47.0406 24.52 47.0906 24.46 47.1006C24.01 47.1806 23.6 47.2206 23.45 47.2206C23.24 47.2206 22.9 47.2406 22.46 47.2206C22.46 47.2206 22.08 47.2006 21.61 47.1206C21.34 47.0806 21.22 47.0506 21.18 47.0406C20.41 46.8606 19.51 46.5506 18.68 45.9706C18.68 45.9706 18.46 45.8206 18.21 45.5906C17.36 44.8206 16.98 44.0106 16.8 43.6006C16.75 43.4706 16.69 43.2906 16.68 43.2606C16.37 42.3406 16.34 41.4806 16.34 40.9606C16.34 40.9606 16.34 40.7506 16.37 40.4806C16.48 39.1706 16.88 37.9406 17.29 37.0506C17.38 36.8606 17.5 36.6606 17.51 36.6206C17.67 36.3306 17.83 36.1206 17.96 35.9806C18.19 35.7306 18.28 35.8106 18.29 35.8206L18.31 35.8306Z" fill="white"/>
<path fill-rule="evenodd" clip-rule="evenodd" d="M27.74 35.7102C27.74 35.7102 27.87 35.5802 28.19 36.0602C28.42 36.4002 28.61 36.8302 28.66 36.9502C28.74 37.1302 28.83 37.3902 28.84 37.4302C29.52 39.3802 29.43 41.0002 29.43 41.0102C29.39 42.1002 29.16 42.9002 28.96 43.4102C28.95 43.4402 28.86 43.6602 28.72 43.9402C28.21 44.9102 27.58 45.4902 27.2 45.8002C27.12 45.8702 26.97 45.9702 26.94 45.9902C26.06 46.5902 25.18 46.8602 24.66 46.9902C24.58 47.0102 24.39 47.0402 24.37 47.0502C23.95 47.1302 23.55 47.1702 23.4 47.1802C22.92 47.2102 22.55 47.1902 22.41 47.1802C22.41 47.1802 22.08 47.1602 21.68 47.1002C21.44 47.0602 21.31 47.0402 21.28 47.0302C20.89 46.9402 20.56 46.8402 20.29 46.7402C20.29 46.7402 19.99 46.6302 19.63 46.4402C18.98 46.1002 18.53 45.7302 18.24 45.4702C18.24 45.4702 18.09 45.3302 17.91 45.1202C17.39 44.5302 17.09 43.9402 16.9 43.5302C16.9 43.5102 16.78 43.2402 16.66 42.8602C16.49 42.2902 16.42 41.7702 16.39 41.4302C16.39 41.4302 16.36 41.0702 16.37 40.5802C16.4 39.5802 16.59 38.6302 16.85 37.8302C16.85 37.8302 16.98 37.4502 17.17 37.0202C17.6 36.1002 18.07 35.5802 18.34 35.6802C18.35 35.6802 18.37 35.6902 18.37 35.7002C18.34 35.7002 18.14 35.6502 17.97 36.2002C17.76 36.9302 17.82 37.9402 17.82 37.9802C17.86 39.7202 18.41 40.8802 18.44 40.9702C18.75 41.7402 19.09 42.1402 19.19 42.2802C19.62 42.8402 20.05 43.0702 20.16 43.1402C20.68 43.4702 21.15 43.5502 21.32 43.6002C21.61 43.6702 21.81 43.6902 21.98 43.7202C22.29 43.7602 22.51 43.7702 22.62 43.7802C22.98 43.8102 23.23 43.8002 23.35 43.8002C23.76 43.8002 24 43.7802 24.13 43.7702C25 43.7102 25.47 43.4602 25.63 43.3902C26.34 43.0702 26.72 42.5802 26.94 42.2802C27.45 41.5902 27.68 40.8202 27.77 40.5402C28.31 38.8102 28.15 37.1302 28.14 37.0702C28.09 36.2602 27.92 35.6802 27.74 35.7202V35.7102Z" fill="white"/>
</g>
</svg>
