<svg width="100" height="100" viewBox="0 0 100 100" fill="none" xmlns="http://www.w3.org/2000/svg">
<path fill-rule="evenodd" clip-rule="evenodd" d="M100 50C100 77.6143 77.6142 100 50 100C22.3858 100 0 77.6143 0 50C0 22.3858 22.3858 3.90634e-05 50 3.90634e-05C77.6142 3.90634e-05 100 22.3858 100 50ZM62.13 49.21C66.39 47.31 68.1 43.9 68.1 40.36H68.09C68.09 31.12 61.34 27.05 52.29 27.05H30.52V72.95H52.29C61.8 72.95 69.47 69.67 69.47 59.44C69.47 56.55 67.51 50.85 62.13 49.21ZM52.29 45.48H39.05V34.92H52.29C57.79 34.92 59.5 38.46 59.5 40.56C59.5 43.18 57.73 45.48 52.29 45.48ZM52.29 64.89H39.05V53.09H52.29C55.83 53.09 60.88 55.05 60.88 59.38C60.88 63.71 55.83 64.89 52.29 64.89Z" fill="white"/>
</svg>
