<svg width="160" height="80" viewBox="0 0 160 80" fill="none" xmlns="http://www.w3.org/2000/svg">
<g clip-path="url(#clip0_9301_18)">
<path d="M13.73 34.1503C13.17 33.0603 12.34 32.2703 11.25 31.7803C10.17 31.2803 8.85 31.0303 7.29 31.0303C5.73 31.0303 4.4 31.2803 3.3 31.7803C2.22 32.2703 1.4 33.0603 0.84 34.1503C0.28 35.2303 0 36.6503 0 38.4203C0 40.9903 0.62 42.8503 1.86 44.0003C3.11 45.1503 4.92 45.7303 7.28 45.7303C9.64 45.7303 11.43 45.1503 12.68 44.0003C13.93 42.8503 14.56 40.9903 14.56 38.4203C14.56 36.6503 14.28 35.2203 13.72 34.1503H13.73ZM9.59 41.3103C9.12 41.9003 8.35 42.2003 7.29 42.2003C6.23 42.2003 5.45 41.9003 4.97 41.3103C4.5 40.7003 4.26 39.7503 4.26 38.4303C4.26 37.0303 4.5 36.0403 4.97 35.4603C5.46 34.8703 6.23 34.5703 7.29 34.5703C8.35 34.5703 9.12 34.8703 9.59 35.4603C10.08 36.0403 10.32 37.0203 10.32 38.4303C10.32 39.7403 10.08 40.7003 9.59 41.3103Z" fill="white"/>
<path d="M17 45.51V35.02H21.01L21.12 35.86C21.55 35.61 22.09 35.38 22.76 35.17C23.42 34.96 24.1 34.84 24.77 34.79V37.89C24.39 37.92 23.97 37.97 23.51 38.04C23.07 38.11 22.63 38.21 22.2 38.33C21.79 38.43 21.44 38.55 21.16 38.68V45.5H17V45.51Z" fill="white"/>
<path d="M32.06 30.6104H27.57V33.6203H32.06V30.6104Z" fill="white"/>
<path d="M27.9 45.5095V38.0495H26.38L26.73 35.0195H32.07V45.5095H27.9Z" fill="white"/>
<path d="M46.24 35.0198H42.12C41.91 34.9798 41.58 34.9298 41.12 34.8898C40.66 34.8298 40.25 34.7998 39.88 34.7998C38.14 34.7998 36.8 35.1198 35.87 35.7498C34.95 36.3798 34.5 37.3798 34.5 38.7398C34.5 39.4598 34.64 40.0598 34.92 40.5298C35.2 40.9998 35.64 41.3898 36.25 41.6998C35.17 42.0798 34.63 42.7598 34.63 43.7398C34.63 44.4298 34.92 44.9598 35.49 45.3098C36.08 45.6498 36.91 45.8198 37.99 45.8198H40.76C41.17 45.8198 41.45 45.8398 41.6 45.8898C41.75 45.9498 41.82 46.0698 41.82 46.2398C41.82 46.4498 41.59 46.5898 41.13 46.6598C40.69 46.7498 40.07 46.7898 39.29 46.7898C38.83 46.7898 38.33 46.7698 37.78 46.7198C37.23 46.6798 36.7 46.6098 36.16 46.5198C35.64 46.4298 35.19 46.3198 34.79 46.1898V48.8498C35.14 48.9698 35.59 49.0698 36.12 49.1598C36.67 49.2498 37.24 49.3098 37.85 49.3398C38.46 49.3798 39.02 49.4098 39.53 49.4098C41.55 49.4098 43.04 49.1198 44 48.5498C44.96 47.9898 45.44 47.1898 45.44 46.1598C45.44 45.1898 45.13 44.4498 44.51 43.9498C43.89 43.4498 43.04 43.1998 41.96 43.1998H39.55C39.31 43.1998 39.13 43.1798 39 43.1298C38.87 43.0698 38.8 42.9698 38.8 42.8198C38.8 42.6098 38.92 42.4698 39.15 42.3798C39.39 42.2898 39.67 42.2298 39.99 42.1998C40.18 42.2098 40.39 42.2398 40.61 42.2698C40.83 42.2798 41.04 42.2898 41.23 42.2898C42.57 42.2898 43.55 41.9798 44.17 41.3598C44.8 40.7298 45.12 39.8698 45.12 38.7898C45.12 38.2998 44.99 37.8898 44.72 37.5498H46.11L46.2 35.0298L46.24 35.0198ZM41.26 39.6698C41.01 39.8898 40.56 39.9998 39.91 39.9998C39.26 39.9998 38.83 39.8898 38.56 39.6698C38.31 39.4298 38.18 39.0598 38.18 38.5598C38.18 38.0298 38.31 37.6498 38.58 37.4298C38.86 37.1898 39.3 37.0798 39.91 37.0798C40.56 37.0798 41.01 37.1998 41.26 37.4298C41.51 37.6698 41.64 38.0398 41.64 38.5598C41.64 39.0798 41.51 39.4498 41.26 39.6698Z" fill="white"/>
<path d="M53.1 30.6104H48.61V33.6203H53.1V30.6104Z" fill="white"/>
<path d="M48.94 45.5095V38.0495H47.41L47.77 35.0195H53.1V45.5095H48.94Z" fill="white"/>
<path d="M55.98 45.5098V35.0198H59.88L59.99 35.8198C60.39 35.5498 60.91 35.3198 61.56 35.1098C62.22 34.8998 62.93 34.7998 63.69 34.7998C65 34.7998 65.96 35.1198 66.57 35.7698C67.18 36.4198 67.48 37.4198 67.48 38.7798V45.5098H63.32V39.1998C63.32 38.7298 63.22 38.3898 63.01 38.1798C62.8 37.9698 62.44 37.8698 61.93 37.8698C61.62 37.8698 61.3 37.9398 60.96 38.0898C60.64 38.2398 60.37 38.4098 60.16 38.6198V45.5098H56H55.98Z" fill="white"/>
<path d="M79.14 35.8198C78.17 35.1398 76.85 34.7998 75.18 34.7998C74.35 34.7998 73.54 34.8698 72.74 35.0198C71.94 35.1498 71.28 35.3198 70.75 35.5298V38.0298C71.93 37.6598 73.13 37.4798 74.34 37.4798C75.2 37.4798 75.79 37.5798 76.13 37.7698C76.47 37.9598 76.64 38.2598 76.64 38.6798V38.8798H73.92C72.43 38.8798 71.31 39.1898 70.58 39.8098C69.84 40.4198 69.47 41.2698 69.47 42.3798C69.47 43.1498 69.64 43.7798 69.98 44.2798C70.32 44.7798 70.77 45.1498 71.33 45.3898C71.91 45.6298 72.53 45.7398 73.19 45.7398C74.05 45.7398 74.76 45.6398 75.34 45.4498C75.93 45.2598 76.41 44.9998 76.78 44.6798L76.98 45.5198H80.61V39.0498C80.61 37.5698 80.12 36.4998 79.15 35.8198H79.14ZM76.64 42.4598C76.42 42.6998 76.14 42.8998 75.8 43.0598C75.48 43.2198 75.08 43.2998 74.6 43.2998C73.7 43.2998 73.25 42.9498 73.25 42.2398C73.25 41.5298 73.71 41.1598 74.62 41.1598H76.63V42.4698L76.64 42.4598Z" fill="white"/>
<path d="M86.94 45.7301C85.66 45.7301 84.74 45.4601 84.19 44.9101C83.64 44.3601 83.37 43.5101 83.37 42.3401V30.5801H87.53V41.8701C87.53 42.1901 87.6 42.4201 87.73 42.5301C87.86 42.6301 88.07 42.6801 88.35 42.6801C88.54 42.6801 88.73 42.6701 88.9 42.6401C89.09 42.6101 89.27 42.5701 89.43 42.5101V45.2801C89.05 45.4301 88.67 45.5401 88.3 45.6101C87.95 45.6801 87.49 45.7201 86.93 45.7201L86.94 45.7301Z" fill="white"/>
<path d="M98.37 45.7303C96.02 45.7303 94.25 45.1003 93.06 43.8303C91.88 42.5603 91.29 40.8403 91.29 38.6703C91.29 37.1103 91.55 35.7503 92.06 34.6203C92.58 33.4703 93.36 32.5803 94.41 31.9603C95.47 31.3403 96.82 31.0303 98.44 31.0303C99.28 31.0303 100.04 31.0903 100.72 31.2103C101.41 31.3103 102.06 31.4703 102.67 31.6703V33.7503C101.46 33.3103 100.12 33.0903 98.64 33.0903C96.82 33.0903 95.55 33.5703 94.81 34.5303C94.09 35.4903 93.73 36.8703 93.73 38.6703C93.73 40.3103 94.11 41.5603 94.88 42.4103C95.65 43.2703 96.84 43.6903 98.44 43.6903C99.71 43.6903 100.74 43.5403 101.52 43.2503V39.2603H97.96V37.6903H103.58V44.5503C103.12 44.8503 102.47 45.1203 101.61 45.3703C100.77 45.6103 99.69 45.7203 98.38 45.7203L98.37 45.7303Z" fill="white"/>
<path d="M115.02 35.7298C114.22 35.1098 113.06 34.7998 111.52 34.7998C110.74 34.7998 110.01 34.8598 109.33 34.9798C108.65 35.0998 108.08 35.2498 107.6 35.4398V37.2298C108.68 36.8598 109.84 36.6798 111.08 36.6798C111.86 36.6798 112.45 36.7498 112.85 36.8798C113.26 37.0098 113.54 37.2298 113.69 37.5198C113.85 37.8198 113.93 38.2098 113.93 38.7198V39.1798H110.56C109.13 39.1798 108.07 39.4898 107.37 40.1098C106.69 40.7198 106.35 41.5198 106.35 42.5198C106.35 43.2298 106.52 43.8298 106.86 44.3098C107.2 44.7798 107.65 45.1398 108.21 45.3698C108.79 45.6098 109.41 45.7198 110.07 45.7198C111.01 45.7198 111.8 45.6098 112.42 45.3898C113.05 45.1698 113.59 44.8498 114.01 44.4398L114.16 45.4998H116.22V38.7498C116.22 37.3498 115.81 36.3398 115 35.7198L115.02 35.7298ZM113.93 42.6598C113.59 43.0698 113.15 43.4098 112.6 43.6598C112.07 43.8998 111.44 44.0098 110.72 44.0098C110.04 44.0098 109.52 43.8898 109.15 43.6598C108.78 43.4198 108.6 43.0298 108.6 42.4898C108.6 41.9498 108.75 41.5198 109.06 41.2498C109.38 40.9698 109.9 40.8298 110.61 40.8298H113.93V42.6698V42.6598Z" fill="white"/>
<path d="M119.79 45.5096V35.0196H122L122.11 36.1296C122.63 35.7196 123.19 35.3896 123.81 35.1596C124.43 34.9196 125.09 34.8096 125.8 34.8096C126.55 34.8096 127.14 34.9396 127.55 35.1896C127.98 35.4296 128.3 35.7596 128.52 36.1896C129.01 35.7896 129.57 35.4696 130.2 35.2196C130.83 34.9496 131.59 34.8196 132.48 34.8196C133.69 34.8196 134.58 35.1296 135.16 35.7496C135.74 36.3696 136.02 37.3196 136.02 38.6096V45.5396H133.65V38.8496C133.65 38.0396 133.48 37.4696 133.14 37.1496C132.8 36.8296 132.25 36.6596 131.48 36.6596C130.98 36.6596 130.5 36.7496 130.04 36.9296C129.6 37.1096 129.21 37.3696 128.89 37.7296C128.93 37.8896 128.96 38.0596 128.98 38.2396C128.99 38.4196 129 38.6096 129 38.8196V45.5496H126.76V38.8896C126.76 38.1196 126.63 37.5596 126.36 37.2096C126.09 36.8596 125.59 36.6796 124.85 36.6796C124.33 36.6796 123.84 36.8096 123.37 37.0596C122.91 37.2996 122.5 37.5796 122.13 37.9196V45.5596H119.76L119.79 45.5096Z" fill="white"/>
<path d="M148.97 39.2698C148.97 37.9598 148.56 36.8898 147.75 36.0598C146.95 35.2198 145.76 34.7998 144.16 34.7998C142.42 34.7998 141.12 35.2898 140.26 36.2598C139.4 37.2298 138.98 38.5598 138.98 40.2498C138.98 42.1098 139.48 43.4898 140.49 44.3898C141.49 45.2898 142.91 45.7398 144.74 45.7398C145.43 45.7398 146.08 45.6898 146.69 45.5898C147.31 45.4898 147.86 45.3298 148.33 45.1298V43.3598C147.92 43.5198 147.43 43.6598 146.87 43.7598C146.31 43.8598 145.76 43.9098 145.23 43.9098C143.96 43.9098 143.02 43.7198 142.4 43.3298C141.78 42.9498 141.41 42.2498 141.29 41.2298H148.97V39.2798V39.2698ZM146.84 39.6498H141.28C141.28 38.5998 141.49 37.8298 141.9 37.3498C142.33 36.8598 143.1 36.6198 144.22 36.6198C145.16 36.6198 145.84 36.8298 146.23 37.2398C146.63 37.6398 146.83 38.1998 146.83 38.9198V39.6498H146.84Z" fill="white"/>
<path d="M155.59 45.73C154.87 45.73 154.17 45.68 153.51 45.58C152.86 45.48 152.32 45.35 151.89 45.2V43.16C152.39 43.35 152.95 43.5 153.55 43.6C154.16 43.7 154.73 43.75 155.28 43.75C156.11 43.75 156.7 43.68 157.05 43.53C157.4 43.38 157.58 43.09 157.58 42.67C157.58 42.36 157.47 42.12 157.25 41.94C157.04 41.76 156.73 41.6 156.3 41.45C155.89 41.3 155.36 41.13 154.71 40.92C154.09 40.71 153.55 40.49 153.09 40.26C152.63 40.01 152.28 39.69 152.03 39.31C151.78 38.93 151.65 38.42 151.65 37.8C151.65 36.84 152 36.1 152.69 35.59C153.38 35.06 154.5 34.79 156.03 34.79C156.64 34.79 157.21 34.83 157.76 34.92C158.31 35.01 158.77 35.12 159.15 35.25V37.26C158.74 37.1 158.28 36.97 157.78 36.88C157.29 36.79 156.84 36.75 156.41 36.75C155.64 36.75 155.06 36.82 154.66 36.95C154.28 37.08 154.08 37.35 154.08 37.75C154.08 38.15 154.28 38.46 154.68 38.64C155.09 38.8 155.75 39.03 156.65 39.33C157.48 39.58 158.13 39.85 158.62 40.13C159.11 40.41 159.45 40.75 159.66 41.15C159.88 41.53 159.99 42.04 159.99 42.66C159.99 43.69 159.61 44.47 158.86 44.98C158.11 45.48 157.01 45.73 155.58 45.73H155.59Z" fill="white"/>
</g>
<defs>
<clipPath id="clip0_9301_18">
<rect width="160" height="80" fill="white"/>
</clipPath>
</defs>
</svg>
