<svg width="100" height="100" viewBox="0 0 100 100" fill="none" xmlns="http://www.w3.org/2000/svg">
<path fill-rule="evenodd" clip-rule="evenodd" d="M40.74 50.7001C38.32 55.1801 28.4 75.0701 32.71 82.1401C33.79 83.7401 35.37 84.9001 37.2 85.4801C38.19 85.7801 40.77 85.9401 41.58 85.1301C42.16 84.4901 41.88 83.3801 41.88 82.4501V80.5001C41.9 76.4701 42.21 72.4401 42.82 68.4501C43 67.2301 44.04 60.6801 44.57 59.8601C44.54 60.3701 44.48 60.8701 44.39 61.3901C44.14 65.2601 43.74 68.7001 44.14 72.6101C44.32 73.6001 44.39 74.6001 44.55 75.5901C44.73 76.5301 44.9 77.4601 45.13 78.3301C45.59 79.9701 46.24 81.7801 47.18 82.9701C50.87 87.4601 55.89 86.5901 59.58 82.9701C60.44 82.1201 61.12 81.1101 61.57 79.9901C63.38 75.7701 64.5 71.9201 66.14 67.8301C67.37 64.6901 68.77 61.6301 70.36 58.6601C72.3 54.7901 76.85 47.8501 79.53 44.3901L80.98 42.5801C80.89 42.7501 79.92 45.0201 79.58 45.7801C78.64 48.0001 77.87 50.3501 77.06 52.6201C75.9 56.3001 75.01 60.0401 74.38 63.8501C74.08 65.7801 73.74 68.1801 73.68 70.1701C73.68 70.5201 73.62 70.8201 73.62 71.2801C73.62 71.6901 73.56 71.8601 73.56 72.3301C73.56 78.0001 73.91 83.4401 76.02 88.4701C77.31 91.4501 79.64 94.4901 82.45 96.0101C83.03 96.3101 83.5 96.4701 84.09 96.7101C84.4 96.7901 84.71 96.8401 85.03 96.8901L86.02 97.0701H87.73L87.91 97.0101H88.09C88.18 96.9701 88.28 96.9401 88.39 96.9501L90.2 96.5401C92.2 95.7901 94 94.5901 95.46 93.0401C97.25 91.2101 99.41 88.4701 99.71 85.6101C99.77 84.9701 99.71 84.8201 99.41 84.5001C98.24 83.3901 96.89 87.4301 91.75 85.0801C89.17 83.9101 87.26 81.4601 86.25 78.8801C83.97 72.6801 83.73 65.6701 84.66 58.0601C85.36 52.4501 87.24 44.6701 89.23 39.2301C90.04 37.0101 92.5 31.9701 90.93 30.2201C89.34 28.7701 85.95 30.5201 84.44 31.4401C80.41 33.8401 77.54 36.8201 74.2 40.2101C73.26 41.2001 71.69 43.0801 70.81 44.1201C69.06 46.3401 67.42 48.5601 65.78 50.8501C61.8 56.6001 57.95 63.4101 55.6 69.9101C55.3 70.8501 54.38 73.6001 54.38 74.5501C51.02 73.4401 50.97 60.5101 51.32 57.4001C52.2 49.3301 54.13 44.0001 56.53 36.6401C56.71 35.9901 57.06 35.1101 56.71 34.5401C56.07 33.5401 51.93 29.6501 40.74 50.6801V50.7001ZM43.67 30.8601C37.24 31.8501 27.12 37.5901 21.8 41.3901C19.29 43.1001 12.22 48.9901 12.22 52.3101C12.22 53.6501 12.43 55.2001 13.92 57.0601C14.55 57.8001 15.84 59.0901 16.9 59.5001C17.84 59.8001 18.19 59.3901 18.61 58.7401C19.96 56.5201 21.46 54.3801 23.09 52.3501C23.79 51.4701 31.45 43.0401 32.56 42.7001C32.5 42.8801 30.23 46.0401 30.04 46.2701C29.23 47.4401 28.33 48.6701 27.58 49.8901C23.96 55.4501 19.16 64.4501 17.53 71.0601C17.18 72.4001 16.77 74.3401 16.72 75.6301C16.66 77.2701 16.78 78.6701 17.48 80.0701C18.48 82.1601 20.38 83.6701 22.62 84.2201C23.67 84.4701 26.07 84.8001 26.72 83.7601C26.97 83.3001 26.9 83.3001 26.97 82.6501L27.15 80.2501C27.21 78.6101 27.96 73.9801 28.32 72.2901C29.34 67.5101 30.75 62.8301 32.52 58.2601C37.94 42.0701 48.41 33.2401 48.03 31.7201C47.63 30.2301 44.94 30.6601 43.69 30.8601H43.67Z" fill="white"/>
<path fill-rule="evenodd" clip-rule="evenodd" d="M25.2699 28.07C24.1799 28.54 23.1399 29 22.1099 29.42C24.2499 30.63 26.6699 31.27 29.1199 31.27C29.5099 31.27 29.9099 31.25 30.2799 31.23C35.5099 30.81 40.0899 27.52 42.1499 22.68C42.4299 22.05 42.6499 21.39 42.8299 20.73C42.9599 20.2 43.0799 19.67 43.1499 19.12C43.1699 19.03 43.1699 18.92 43.1899 18.82C39.9599 20.71 36.3599 22.67 32.5599 24.59C30.5199 25.6 28.5299 26.58 26.5599 27.45C26.1199 27.67 25.6899 27.85 25.2599 28.06L25.2699 28.07ZM32.5599 29.36C31.5499 29.44 30.6199 28.39 31.4799 27.41C31.2299 28.56 32.7199 28.91 33.2899 28.04C33.4399 27.79 33.3599 27.51 33.2199 27.25C33.4499 27.39 33.6199 27.61 33.6999 27.87C34.0299 28.8 32.9499 29.28 32.5199 29.33L32.5499 29.36H32.5599ZM14.1399 21.05C5.05994 26.64 -0.600065 31.59 0.369935 33.49C0.389935 33.56 0.429935 33.62 0.479935 33.67C1.42993 34.85 5.32994 34.37 10.9199 32.66C10.3999 32.19 10.0799 31.51 10.0499 30.81C7.64994 31.15 6.10993 30.94 5.66993 30.07C4.92993 28.57 7.91994 25.41 13.1699 21.71C13.4899 21.49 13.8099 21.27 14.1399 21.05ZM41.6799 7.45002C47.8599 5.41002 52.2799 4.90002 53.0399 6.41002C53.9199 8.12002 49.9099 12.02 43.2499 16.33V16.24C42.7999 8.44002 36.0999 2.47002 28.3099 2.94002C20.5099 3.40002 14.5399 10.09 14.9999 17.88C15.2299 21.78 17.0499 25.41 20.0399 27.9L20.0699 27.93H20.0899V27.95C18.4199 28.58 16.8399 29.11 15.3799 29.56C15.5299 29.9 15.6199 30.28 15.6099 30.65C15.6099 30.79 15.5899 30.94 15.5699 31.08C17.3499 30.4 19.2699 29.66 21.2499 28.83C24.6999 27.39 28.3899 25.7 32.1599 23.8C36.1499 21.81 39.8899 19.77 43.2599 17.78C53.1599 11.89 59.6099 6.55002 59.0299 4.38002C59.0099 4.29002 58.9899 4.25002 58.9599 4.18002C57.9899 2.23002 50.6299 3.82002 40.6799 7.76002C40.9999 7.65002 41.3099 7.56002 41.6299 7.44002C41.6299 7.44002 41.6433 7.43335 41.6699 7.42002V7.44002L41.6799 7.45002ZM29.7099 14.72C29.3899 14.72 29.1299 14.46 29.1299 14.15C29.1499 13.81 29.4399 13.58 29.7499 13.59C30.0499 13.61 30.2799 13.84 30.2999 14.14C30.2999 14.45 30.0499 14.72 29.7199 14.72H29.7099ZM38.7499 13.94C38.5999 13.4 38.0799 13.2 37.5299 13.07C38.0099 12.93 38.5299 12.95 39.0099 13.13C40.7499 13.8 40.1399 15.94 39.7099 16.6C38.5799 18.15 35.9699 18.16 35.6499 15.77C36.9799 17.48 39.3099 15.81 38.7599 13.94H38.7499ZM26.1199 22.6C26.1299 22.28 26.3999 22.03 26.6999 22.02C27.0199 22.02 27.2799 22.28 27.2799 22.59C27.2799 22.92 27.0199 23.17 26.6999 23.18C26.3799 23.18 26.1299 22.93 26.1199 22.6ZM18.9099 17.83C19.9099 16.79 21.8799 17.05 21.8799 18.88C21.0699 17.45 19.1399 18.45 19.3599 19.92C19.4299 20.35 19.7899 20.54 20.1699 20.7C19.7799 20.76 19.3999 20.69 19.0599 20.51C17.8299 19.82 18.5099 18.29 18.9099 17.83ZM23.8199 9.91002C23.1999 9.91002 22.6899 9.40002 22.6899 8.78002C22.6899 8.16002 23.1999 7.65002 23.8199 7.65002C24.4399 7.65002 24.9499 8.16002 24.9499 8.78002C24.9499 9.40002 24.4699 9.90002 23.8399 9.91002H23.8199ZM30.9899 8.46002C30.8099 8.11002 30.7399 7.71002 30.7999 7.33002C31.0499 5.92002 32.7299 6.05002 33.3099 6.27002C34.6499 6.89002 35.0599 8.85002 33.3099 9.46002C34.4099 8.19002 32.7899 6.70002 31.4699 7.40002C31.0799 7.60002 31.0199 8.01002 30.9899 8.44002H30.9999V8.46002H30.9899Z" fill="white"/>
<path d="M10.9301 20.4202C11.8101 20.4202 12.5301 19.7102 12.5301 18.8202C12.5301 17.9302 11.8201 17.2202 10.9301 17.2202C10.0401 17.2202 9.33008 17.9302 9.33008 18.8202C9.33008 19.7102 10.0401 20.4202 10.9301 20.4202Z" fill="white"/>
<path d="M47.2501 9.92016C47.8801 9.92016 48.3801 9.41016 48.3801 8.79016C48.3801 8.17016 47.8701 7.66016 47.2501 7.66016C46.6301 7.66016 46.1201 8.17016 46.1201 8.79016C46.1201 9.41016 46.6301 9.92016 47.2501 9.92016Z" fill="white"/>
<path d="M12.8901 32.7298C14.0401 32.7298 14.9701 31.7998 14.9701 30.6498C14.9701 29.4998 14.0401 28.5698 12.8901 28.5698C11.7401 28.5698 10.8101 29.4998 10.8101 30.6498C10.8101 31.7998 11.7401 32.7298 12.8901 32.7298Z" fill="white"/>
</svg>
