<svg width="48" height="48" viewBox="0 0 48 48" fill="none" xmlns="http://www.w3.org/2000/svg">
<g clip-path="url(#clip0_889_299)">
<path d="M7.55558 32.9329V27.9937H12.8884V29.1121H9.35558V29.9377H12.6052V30.8977H9.35558V31.8145H12.9556V32.9329H7.55078H7.55558Z" fill="white"/>
<path d="M13.4541 32.9329V27.9937H15.6909L18.3981 31.2001H18.4077V27.9937H20.1645V32.9329H17.9277L15.2205 29.6833H15.2109V32.9329H13.4541Z" fill="white"/>
<path d="M20.5342 31.3056L22.1182 30.8976C22.1902 31.4784 22.6126 31.8144 23.1982 31.8144C23.7262 31.8144 24.1006 31.4976 24.1006 30.9648V27.9888H25.963V31.0464C25.963 32.2944 24.9694 33.0384 23.299 33.0384C21.6286 33.0384 20.6782 32.3952 20.5342 31.3008V31.3056Z" fill="white"/>
<path d="M26.4717 30.4656C26.4717 28.872 27.9501 27.8208 30.1773 27.8208C32.4045 27.8208 33.8829 28.8672 33.8829 30.4656C33.8829 32.064 32.4045 33.1104 30.1773 33.1104C27.9501 33.1104 26.4717 32.0544 26.4717 30.4656ZM32.0157 30.4656C32.0157 29.6448 31.2813 29.0976 30.1773 29.0976C29.0733 29.0976 28.3293 29.6448 28.3293 30.4656C28.3293 31.2864 29.0685 31.8336 30.1773 31.8336C31.2861 31.8336 32.0157 31.2864 32.0157 30.4656Z" fill="white"/>
<path d="M36.0476 32.9329V31.2433L33.5996 27.9937H35.5436L36.974 30.0625H36.9836L38.342 27.9937H40.3148L37.9052 31.2433V32.9329H36.0428H36.0476Z" fill="white"/>
<path d="M23.957 12.2544C27.1058 12.2592 30.221 12.8832 33.1298 14.088C36.053 15.2976 38.7122 17.0736 40.949 19.3104C43.1858 21.5472 44.9618 24.2064 46.1714 27.1296C47.3042 29.8656 47.9234 32.7888 48.0002 35.7456H47.813C47.8034 35.376 47.7842 35.0064 47.7554 34.6416C47.6258 33.168 47.3522 31.7136 46.9442 30.2976C46.6466 29.2656 46.2722 28.2528 45.8354 27.2736C44.5682 24.4368 42.7394 21.8736 40.5122 19.7568C38.3042 17.6496 35.7122 15.9792 32.9138 14.808C32.8898 14.7984 32.8706 14.7888 32.8466 14.7792C30.0386 13.6128 27.0002 13.0032 23.957 12.9984V12.2592V12.2544Z" fill="white"/>
<path d="M24.0432 12.2544C20.8944 12.2592 17.7792 12.8832 14.8704 14.088C11.9472 15.2976 9.288 17.0736 7.0512 19.3104C4.8144 21.5472 3.0384 24.2064 1.8288 27.1296C0.696 29.8656 0.0768 32.7888 0 35.7456H0.1872C0.1968 35.376 0.216 35.0064 0.2448 34.6416C0.3744 33.168 0.648 31.7136 1.056 30.2976C1.3536 29.2656 1.728 28.2528 2.1648 27.2736C3.432 24.4368 5.2608 21.8736 7.488 19.7568C9.696 17.6496 12.288 15.9792 15.0864 14.808C15.1104 14.7984 15.1296 14.7888 15.1536 14.7792C17.9616 13.6128 21 13.0032 24.0432 12.9984V12.2592V12.2544Z" fill="white"/>
</g>
<defs>
<clipPath id="clip0_889_299">
<rect width="48" height="48" fill="white"/>
</clipPath>
</defs>
</svg>
