<svg width="100" height="100" viewBox="0 0 100 100" fill="none" xmlns="http://www.w3.org/2000/svg">
<path d="M87.3111 61.1149C83.5042 55.5858 78.1564 52.232 71.177 50.1473C72.8085 49.6941 73.8056 49.4222 74.8026 49.1502C84.5919 46.8842 89.9397 41.627 91.1181 31.7471C91.7525 26.3086 91.2993 20.5982 90.5742 15.1598C89.6678 8.18038 85.2264 3.64831 78.5189 2.01677C73.7149 0.838432 68.7297 0.113302 63.7444 0.113302C47.429 -0.067981 31.0229 0.0226603 14.6168 0.0226603H8V1.83549V88.3979V99.9094H8.27192H14.7981H43.622V94.4709C43.622 70.6322 43.7127 46.7936 43.7127 22.9549C43.7127 21.5953 43.622 20.2357 43.8939 18.876C44.5284 15.613 46.2506 13.1656 49.8763 13.1656C53.6832 13.1656 55.4054 15.7942 55.8586 19.3293C56.0399 20.5076 55.8586 21.7766 55.8586 22.9549C55.8586 42.4428 55.8586 61.9307 55.8586 81.4185V100H91.7526C91.7526 92.93 91.6619 86.2225 91.7526 79.4244C91.8432 72.8076 91.1181 66.644 87.3111 61.1149Z" fill="white"/>
</svg>
