<svg width="160" height="80" viewBox="0 0 160 80" fill="none" xmlns="http://www.w3.org/2000/svg">
<g clip-path="url(#clip0_818_803)">
<g clip-path="url(#clip1_818_803)">
<path d="M49.83 57.6504C49.4 57.9904 48.48 57.9004 48.45 57.2204C48.41 56.4404 49.03 54.9004 49.1 53.8704C49.8 43.2304 45.42 37.7204 37.2 31.9404C33.74 29.5104 26.32 25.7204 24.53 22.0604C23.78 20.5304 24.17 18.6104 21.9 19.7204C17.14 22.0604 16.27 27.3204 19.66 31.3204C26.19 39.0604 46.2 44.4404 39.13 58.0204C33.1 69.6004 17.51 66.3904 11.3 56.5004C10.91 55.8704 9.83 53.4504 9.31 53.3004C8.79 53.1504 8.15 53.6004 8.11 54.1304C8.09 54.4904 8.4 55.6204 8.5 56.0604C8.64 56.6404 9.5 58.9804 9.46 59.2604C9.41 59.6604 8.99 60.0604 8.58 60.0004C7.93 59.9004 5.5 56.7504 5.01 56.0504C-0.749999 47.8304 -1.61 36.8804 2.76 27.8304C3.05 27.2304 4.56 24.4104 4.95 24.1904C5.25 24.0104 5.6 24.0604 5.89 24.2404C6.44 24.6504 5.93 26.0404 5.89 26.6904C5.33 37.0704 10.05 42.6704 18.05 48.2304C21.5 50.6304 28.86 54.4104 30.6 58.0904C30.84 58.6104 31.23 60.2804 31.48 60.5104C32.44 61.4204 35.38 58.7904 35.98 58.0204C38.38 54.9704 37.83 51.7504 35.53 48.8904C30.31 42.4004 15.35 37.5604 14.59 28.6304C14.08 22.6804 18.32 17.0104 23.96 15.3304C32.12 12.8904 39.96 17.1604 44.14 24.1304C44.5 24.7304 45.13 26.5204 45.72 26.7004C47.82 27.3604 46.42 23.3804 46.15 22.5104C45.93 21.8004 44.94 19.7804 44.94 19.3104C44.94 18.8404 45.26 18.4704 45.74 18.5304C46.79 18.6704 50.3 22.9604 51.01 23.9904C57.61 33.4604 57.69 46.0804 51.27 55.6604C51.05 55.9904 50.01 57.5104 49.83 57.6504Z" fill="url(#paint0_linear_818_803)"/>
<path d="M98.37 44.5504C98.36 44.6304 98.25 44.7504 98.21 44.8404C97.97 45.0604 95.79 45.2604 95.78 44.5504V30.8204C95.78 30.4004 95.97 30.2904 96.35 30.2404C96.77 30.1804 98.25 30.1704 98.5 30.4304L103.36 38.1404C103.62 38.1404 104.17 37.1504 104.33 36.9104C105.76 34.7804 106.99 32.5204 108.47 30.4204C108.82 30.1304 110.8 30.1504 111.01 30.3604C111.17 30.5204 111.2 30.8504 111.21 31.0704C110.85 35.2504 111.67 40.1804 111.19 44.2704C111.17 44.4604 111.11 44.6604 111.04 44.8304C110.52 45.0904 108.48 45.2104 108.48 44.4104V35.1504L104.11 41.7304L102.55 41.5904L98.36 35.1504V44.5404L98.37 44.5504Z" fill="white"/>
<path d="M117.3 44.6807C117.16 45.1807 115.29 45.0707 114.87 44.8407L114.72 44.4107V30.9507C114.72 30.7707 114.77 30.5007 114.9 30.3707C115.12 30.1607 117.11 30.1407 117.44 30.4307L122.17 37.8807L122.55 38.1507L127.47 30.3707C127.75 30.1707 129.8 30.1507 130.02 30.4307L130.13 44.5507C130.05 44.9907 129.79 44.9807 129.43 45.0107C129 45.0507 127.54 45.1507 127.54 44.5507V35.0307L123.35 41.5907C123.09 41.8007 122.1 41.8307 121.79 41.7307C121.23 41.5607 118.14 35.7507 117.29 35.0207V44.6607L117.3 44.6807Z" fill="white"/>
<path d="M76.8 31.7105C77.16 32.1405 76.41 33.3105 76.07 33.6505C75.4 34.3105 74.87 33.4905 74.34 33.2005C73.05 32.5105 69.85 32.1705 68.99 33.6105C68.49 34.4405 68.57 35.0605 69.49 35.4605C72.17 36.6205 77.48 36.1105 77.46 40.3805C77.43 45.7305 70.56 46.1305 66.95 43.9505C66.58 43.7205 65.59 43.0105 65.57 42.6005C65.55 42.1905 66.54 40.6905 66.96 40.6305C67.51 40.5405 67.6 41.0705 67.91 41.3105C68.76 41.9705 69.87 42.4605 70.95 42.5505C72.33 42.6605 74.58 42.5805 74.77 40.7805C74.9 39.5205 74.09 39.3105 73.09 38.9805C70.25 38.0505 65.67 38.3605 66.09 34.0605C66.34 31.4505 68.91 30.0405 71.34 29.9705C72.73 29.9305 75.9 30.5905 76.82 31.7005L76.8 31.7105Z" fill="white"/>
<path d="M157.08 39.6107C156.45 38.9307 153.43 38.5507 152.4 38.2607C150.92 37.8507 148.95 37.1107 148.71 35.3507C148.12 31.0607 152.31 29.5407 155.86 30.1507C156.63 30.2807 159.57 31.2307 159.59 32.1207C159.59 32.3807 158.59 33.7707 158.33 33.8507C157.73 34.0307 157.41 33.4307 156.96 33.2007C155.65 32.5307 152.19 32.1107 151.5 33.7507C151.11 34.6707 151.32 35.1107 152.2 35.4907C155.21 36.7707 160.56 36.0207 159.97 41.0407C159.49 45.1307 154.71 45.7707 151.45 44.7807C150.74 44.5607 148.14 43.3407 148.08 42.5907C148.25 42.1107 149.16 40.5907 149.68 40.6107C149.86 40.6107 150.8 41.5507 151.13 41.7507C152.48 42.5907 155.69 43.0807 156.88 41.8407C157.4 41.3007 157.65 40.2007 157.1 39.6207L157.08 39.6107Z" fill="white"/>
<path d="M80.17 30.2707C80.54 30.1607 82.3 30.1407 82.48 30.5007L82.58 39.9907C83 42.0807 84.84 42.8307 86.81 42.5907C88.27 42.4107 89.38 41.5607 89.55 40.0207C89.87 37.1707 89.28 33.7707 89.58 30.8607C89.52 29.9807 92 30.1707 92.21 30.3807C92.38 30.5507 92.39 30.8607 92.41 31.0907C92.6 33.2607 92.62 39.7607 91.95 41.6407C90.4 45.9807 83.56 46.3907 80.94 42.9307C78.84 40.1607 80.24 34.1907 79.82 30.8307C79.82 30.5907 79.93 30.3507 80.18 30.2807L80.17 30.2707Z" fill="white"/>
<path d="M137.06 41.7206C138.85 43.5106 143.27 42.6906 143.24 39.6306L143.27 30.5906C143.42 30.0306 145.57 30.1906 145.79 30.3606C145.93 30.4706 145.98 30.6506 145.98 30.8206C145.43 35.4606 147.99 43.3106 141.82 44.9406C138.91 45.7106 135.25 44.9006 133.98 41.9006C133.16 39.9606 133.19 33.3606 133.39 31.0906C133.41 30.8606 133.42 30.5506 133.59 30.3806C133.77 30.2006 135.96 30.0406 136.1 30.6006C136.3 33.3806 135.92 36.3606 136.13 39.1206C136.2 40.0206 136.42 41.0706 137.08 41.7306L137.06 41.7206Z" fill="white"/>
</g>
</g>
<defs>
<linearGradient id="paint0_linear_818_803" x1="1.28" y1="40.0304" x2="54.74" y2="40.0304" gradientUnits="userSpaceOnUse">
<stop stop-color="#FE4B08"/>
<stop offset="1" stop-color="#9C04F5"/>
</linearGradient>
<clipPath id="clip0_818_803">
<rect width="160" height="80" fill="white"/>
</clipPath>
<clipPath id="clip1_818_803">
<rect width="160" height="80" fill="white" transform="translate(0 0.0302734)"/>
</clipPath>
</defs>
</svg>
