<svg width="160" height="80" viewBox="0 0 160 80" fill="none" xmlns="http://www.w3.org/2000/svg">
<g clip-path="url(#clip0_9696_409)">
<path d="M42.5 62.51H41.34C41.11 62.51 40.91 62.65 40.84 62.87L39.39 67.18C39.24 67.61 39.11 68.01 39.01 68.34L38.99 68.4C38.98 68.36 38.95 68.27 38.95 68.27C38.83 67.89 38.72 67.55 38.59 67.18L37.13 62.86C37.06 62.65 36.86 62.5 36.63 62.5H35.44C35.27 62.5 35.11 62.58 35.01 62.72C34.91 62.86 34.89 63.04 34.95 63.2L37.83 71.17C37.9 71.38 38.1 71.52 38.33 71.52H39.65C39.87 71.52 40.07 71.38 40.15 71.17L43.02 63.2C43.08 63.04 43.05 62.86 42.95 62.72C42.85 62.58 42.69 62.5 42.52 62.5L42.5 62.51Z" fill="#9903FA"/>
<path d="M47.33 62.5098H46.19C45.8973 62.5098 45.66 62.7471 45.66 63.0398V71.0098C45.66 71.3025 45.8973 71.5398 46.19 71.5398H47.33C47.6227 71.5398 47.86 71.3025 47.86 71.0098V63.0398C47.86 62.7471 47.6227 62.5098 47.33 62.5098Z" fill="#9903FA"/>
<path d="M56.95 69.0101C56.85 68.9101 56.72 68.8501 56.58 68.8501C56.44 68.8501 56.31 68.9001 56.22 69.0001C55.69 69.5101 55.14 69.7501 54.49 69.7501C53.06 69.7501 52.21 68.7201 52.21 67.0001C52.21 65.2801 53.08 64.3001 54.53 64.3001C55.09 64.3001 55.58 64.5101 56.01 64.9201C56.11 65.0101 56.24 65.0701 56.38 65.0701C56.52 65.0701 56.65 65.0101 56.75 64.9001L57.37 64.2501C57.56 64.0401 57.56 63.7101 57.36 63.5101C57.01 63.1701 56.04 62.3701 54.52 62.3701C51.81 62.3701 49.99 64.2501 49.99 67.0401C49.99 69.8301 51.78 71.6901 54.44 71.6901C55.7 71.6901 56.73 71.2601 57.58 70.3901C57.78 70.1901 57.78 69.8501 57.58 69.6501L56.95 69.0201V69.0101Z" fill="#9903FA"/>
<path d="M66.33 62.5098H59.72C59.43 62.5098 59.19 62.7498 59.19 63.0398V63.8898C59.19 64.1798 59.43 64.4198 59.72 64.4198H61.93V71.0198C61.93 71.3098 62.17 71.5498 62.46 71.5498H63.6C63.89 71.5498 64.13 71.3098 64.13 71.0198V64.4198H66.34C66.63 64.4198 66.87 64.1798 66.87 63.8898V63.0398C66.87 62.7498 66.63 62.5098 66.34 62.5098H66.33Z" fill="#9903FA"/>
<path d="M72.1 62.3604C69.48 62.3604 67.72 64.2204 67.72 67.0004C67.72 69.7804 69.48 71.6804 72.1 71.6804C74.72 71.6804 76.48 69.8004 76.48 67.0004C76.48 64.2004 74.72 62.3604 72.1 62.3604ZM72.1 69.7403C70.77 69.7403 69.94 68.6903 69.94 66.9903C69.94 65.2903 70.75 64.2904 72.1 64.2904C73.45 64.2904 74.26 65.3003 74.26 66.9903C74.26 68.6803 73.43 69.7403 72.1 69.7403Z" fill="#9903FA"/>
<path d="M83.21 67.8198C84.32 67.3598 84.95 66.4498 84.95 65.2798C84.95 64.2498 84.47 62.5098 81.27 62.5098H78.44C78.15 62.5098 77.91 62.7498 77.91 63.0398V71.0098C77.91 71.2998 78.15 71.5398 78.44 71.5398H79.58C79.87 71.5398 80.11 71.2998 80.11 71.0098V68.1498H80.92L82.95 71.2898C83.05 71.4398 83.21 71.5298 83.39 71.5298H84.68C84.87 71.5298 85.05 71.4198 85.14 71.2498C85.23 71.0798 85.22 70.8698 85.12 70.7098L83.2 67.8098L83.21 67.8198ZM80.12 64.3798H81.11C82.77 64.3798 82.77 64.9198 82.77 65.2798C82.77 65.5798 82.77 66.2898 81.11 66.2898H80.12V64.3898V64.3798Z" fill="#9903FA"/>
<path d="M93.43 62.5098H92.25C92.05 62.5098 91.87 62.6198 91.78 62.7898L90.61 65.0498C90.61 65.0498 90.61 65.0498 90.61 65.0598C90.48 65.3498 90.33 65.6298 90.17 65.9398C90.09 65.7698 90 65.6098 89.92 65.4498L89.72 65.0498L88.56 62.7998C88.47 62.6198 88.29 62.5098 88.09 62.5098H86.87C86.68 62.5098 86.51 62.6098 86.42 62.7698C86.33 62.9298 86.32 63.1298 86.42 63.2898L89.06 68.0398V70.9998C89.06 71.2898 89.3 71.5298 89.59 71.5298H90.73C91.02 71.5298 91.26 71.2898 91.26 70.9998V68.0398L93.9 63.2898C93.99 63.1298 93.99 62.9298 93.9 62.7698C93.81 62.6098 93.63 62.5098 93.45 62.5098H93.43Z" fill="#9903FA"/>
<path d="M103.3 62.8498C103.22 62.6498 103.02 62.5098 102.81 62.5098H101.54C101.32 62.5098 101.13 62.6498 101.05 62.8498L97.99 70.8198C97.93 70.9798 97.95 71.1598 98.05 71.3098C98.15 71.4498 98.31 71.5398 98.48 71.5398H99.64C99.86 71.5398 100.06 71.3998 100.14 71.1898L100.89 69.0998H103.44L104.18 71.1798C104.25 71.3898 104.45 71.5298 104.68 71.5298H105.89C106.06 71.5298 106.23 71.4398 106.32 71.2998C106.42 71.1598 106.44 70.9698 106.38 70.8098L103.32 62.8398L103.3 62.8498ZM101.54 67.2398L101.73 66.7198C101.87 66.3298 102.01 65.9198 102.16 65.4798C102.31 65.9298 102.45 66.3398 102.59 66.7198L102.77 67.2398H101.54Z" fill="#9903FA"/>
<path d="M113.29 67.8198C114.4 67.3598 115.03 66.4498 115.03 65.2798C115.03 64.2498 114.55 62.5098 111.35 62.5098H108.52C108.23 62.5098 107.99 62.7498 107.99 63.0398V71.0098C107.99 71.2998 108.23 71.5398 108.52 71.5398H109.66C109.95 71.5398 110.19 71.2998 110.19 71.0098V68.1498H111L113.03 71.2898C113.13 71.4398 113.29 71.5298 113.47 71.5298H114.76C114.95 71.5298 115.13 71.4198 115.22 71.2498C115.31 71.0798 115.3 70.8698 115.2 70.7098L113.28 67.8098L113.29 67.8198ZM110.19 64.3798H111.18C112.84 64.3798 112.84 64.9198 112.84 65.2798C112.84 65.5798 112.84 66.2898 111.18 66.2898H110.19V64.3898V64.3798Z" fill="#9903FA"/>
<path d="M125 70.7198L121.97 66.1298L124.51 63.3998C124.65 63.2498 124.69 63.0198 124.61 62.8298C124.53 62.6398 124.34 62.5098 124.13 62.5098H122.85C122.71 62.5098 122.57 62.5698 122.47 62.6798L119.58 65.7498V63.0398C119.58 62.7498 119.34 62.5098 119.05 62.5098H117.91C117.62 62.5098 117.38 62.7498 117.38 63.0398V71.0098C117.38 71.2998 117.62 71.5398 117.91 71.5398H119.05C119.34 71.5398 119.58 71.2998 119.58 71.0098V68.6998L120.53 67.7098L122.86 71.2998C122.96 71.4498 123.12 71.5398 123.3 71.5398H124.58C124.77 71.5398 124.95 71.4298 125.04 71.2598C125.13 71.0898 125.12 70.8798 125.02 70.7198H125Z" fill="#9903FA"/>
<path d="M40.55 77.04H38.88C38.73 77.04 38.61 77.16 38.61 77.31V77.78C38.61 77.93 38.73 78.05 38.88 78.05H39.69V78.82C39.53 78.91 39.28 78.96 39.03 78.96C37.79 78.96 37.6 77.97 37.6 77.38C37.6 76.42 38.15 75.82 39.02 75.82C39.49 75.82 39.75 76 39.94 76.18C39.99 76.23 40.06 76.25 40.12 76.25C40.19 76.25 40.26 76.22 40.32 76.17L40.67 75.8C40.77 75.69 40.77 75.52 40.66 75.42C40.22 75 39.66 74.79 39 74.79C37.44 74.79 36.39 75.84 36.39 77.41C36.39 78.98 37.42 80.01 38.96 80.01C39.67 80.01 40.31 79.79 40.72 79.42C40.78 79.37 40.81 79.3 40.81 79.22V77.32C40.81 77.17 40.69 77.05 40.54 77.05L40.55 77.04Z" fill="#9903FA"/>
<path d="M55.62 75.0401C55.58 74.9401 55.48 74.8701 55.37 74.8701H54.65C54.54 74.8701 54.44 74.9401 54.4 75.0401L52.67 79.5501C52.64 79.6301 52.65 79.7301 52.7 79.8001C52.75 79.8701 52.83 79.9201 52.92 79.9201H53.57C53.68 79.9201 53.79 79.8501 53.82 79.7401L54.25 78.5401H55.74L56.16 79.7401C56.2 79.8501 56.3 79.9201 56.41 79.9201H57.09C57.18 79.9201 57.26 79.8801 57.31 79.8001C57.36 79.7301 57.37 79.6301 57.34 79.5501L55.61 75.0401H55.62ZM54.61 77.5501L54.73 77.2201C54.82 76.9701 54.91 76.7101 55 76.4401C55.09 76.7001 55.18 76.9601 55.27 77.2201L55.39 77.5501H54.61Z" fill="#9903FA"/>
<path d="M73.54 74.8701H72.76C72.65 74.8701 72.55 74.9401 72.51 75.0401L71.53 77.4601C71.49 77.5701 71.45 77.6701 71.41 77.7801C71.37 77.6801 71.29 77.4601 71.29 77.4601L70.31 75.0401C70.27 74.9401 70.17 74.8701 70.06 74.8701H69.28C69.13 74.8701 69.01 74.9901 69.01 75.1401V79.6501C69.01 79.8001 69.13 79.9201 69.28 79.9201H69.87C70.02 79.9201 70.14 79.8001 70.14 79.6501V77.3501L70.94 79.3001C70.98 79.4001 71.08 79.4701 71.19 79.4701H71.62C71.73 79.4701 71.83 79.4001 71.87 79.3001L72.67 77.3701V79.6501C72.67 79.8001 72.79 79.9201 72.94 79.9201H73.55C73.7 79.9201 73.82 79.8001 73.82 79.6501V75.1401C73.82 74.9901 73.7 74.8701 73.55 74.8701H73.54Z" fill="#9903FA"/>
<path d="M88.13 74.8701H87.48C87.3309 74.8701 87.21 74.991 87.21 75.1401V79.6501C87.21 79.7992 87.3309 79.9201 87.48 79.9201H88.13C88.2791 79.9201 88.4 79.7992 88.4 79.6501V75.1401C88.4 74.991 88.2791 74.8701 88.13 74.8701Z" fill="#9903FA"/>
<path d="M106.02 74.8701H105.41C105.26 74.8701 105.14 74.9901 105.14 75.1401V77.4901C105.14 77.6101 105.14 77.7301 105.14 77.8501L103.28 75.0101C103.23 74.9301 103.14 74.8901 103.05 74.8901H102.38C102.23 74.8901 102.11 75.0101 102.11 75.1601V79.6701C102.11 79.8201 102.23 79.9401 102.38 79.9401H102.99C103.14 79.9401 103.26 79.8201 103.26 79.6701V77.3001C103.26 77.1801 103.26 77.0601 103.26 76.9501L103.27 76.9701L105.13 79.8201C105.18 79.9001 105.27 79.9401 105.36 79.9401H106.02C106.17 79.9401 106.29 79.8201 106.29 79.6701V75.1601C106.29 75.0101 106.17 74.8901 106.02 74.8901V74.8701Z" fill="#9903FA"/>
<path d="M122.54 77.04H120.87C120.72 77.04 120.6 77.16 120.6 77.31V77.78C120.6 77.93 120.72 78.05 120.87 78.05H121.68V78.82C121.52 78.91 121.27 78.96 121.02 78.96C119.78 78.96 119.59 77.97 119.59 77.38C119.59 76.42 120.14 75.82 121.01 75.82C121.48 75.82 121.74 76 121.93 76.18C121.98 76.23 122.05 76.25 122.11 76.25C122.18 76.25 122.25 76.22 122.31 76.17L122.66 75.8C122.76 75.69 122.76 75.52 122.65 75.42C122.21 75 121.65 74.79 120.99 74.79C119.43 74.79 118.38 75.84 118.38 77.41C118.38 78.98 119.41 80.01 120.95 80.01C121.66 80.01 122.3 79.79 122.71 79.42C122.77 79.37 122.8 79.3 122.8 79.22V77.32C122.8 77.17 122.68 77.05 122.53 77.05L122.54 77.04Z" fill="#9903FA"/>
<path d="M128.78 54.28L111.3 7.81C111.2 7.55 111.06 7.3 110.9 7.07C110.23 5.75 109.28 4.54 108.09 3.48C106.81 2.33 105.36 1.45 103.79 0.87C102.23 0.29 100.54 0 98.76 0C96.98 0 95.25 0.29 93.69 0.87C92.11 1.45 90.65 2.33 89.36 3.48C89.06 3.75 88.78 4.02 88.52 4.3C88.47 4.19 88.41 4.07 88.34 3.97C87.79 3.1 86.85 2.58 85.83 2.58H78.6C78.18 2.58 77.78 2.67 77.41 2.83C77.04 2.66 76.63 2.58 76.21 2.58H69.15C67.92 2.58 66.81 3.36 66.37 4.52L59.87 21.68L53.42 4.53C52.98 3.37 51.86 2.58 50.63 2.58H43.52C43.11 2.58 42.71 2.66 42.35 2.82C41.99 2.66 41.59 2.58 41.19 2.58H34.02C33 2.58 32.06 3.1 31.51 3.97C31 4.77 30.9 5.79 31.23 6.68L47.85 50.86C47.95 51.11 48.07 51.35 48.23 51.57C48.88 52.84 49.79 54 50.94 55.04C52.17 56.14 53.57 56.98 55.08 57.54C56.58 58.09 58.2 58.37 59.92 58.37C61.64 58.37 63.29 58.09 64.79 57.54C66.14 57.04 67.4 56.32 68.53 55.39C68.53 55.95 68.7 56.51 69 56.99C69.55 57.86 70.49 58.38 71.51 58.38H79.11C79.55 58.38 79.97 58.28 80.36 58.1C80.75 58.28 81.18 58.38 81.62 58.38H89.05C90.28 58.38 91.39 57.6 91.83 56.44L95.34 47.15C95.82 47.46 96.38 47.63 96.96 47.63H102.41L105.72 56.44C106.16 57.6 107.28 58.39 108.51 58.39H115.99C116.43 58.39 116.85 58.29 117.24 58.11C117.62 58.28 118.03 58.38 118.46 58.38H126C127.02 58.38 127.96 57.86 128.51 56.99C129.02 56.19 129.12 55.17 128.79 54.28H128.78Z" fill="url(#paint0_linear_9696_409)"/>
<path d="M59.91 56.0004C57.03 56.0004 54.54 55.0804 52.51 53.2604C51.51 52.3704 50.74 51.3604 50.22 50.2704C50.15 50.2004 50.09 50.1204 50.05 50.0204L33.44 5.84043C33.36 5.64043 33.39 5.41043 33.5 5.23043C33.61 5.05043 33.81 4.94043 34.01 4.94043H41.18C41.43 4.94043 41.66 5.10043 41.75 5.35043L57.15 46.2004L57.48 47.1004C57.58 47.3904 57.79 47.6504 58.11 47.9004C58.13 47.9104 58.14 47.9304 58.15 47.9404C58.63 48.4004 59.2 48.6204 59.91 48.6204C60.62 48.6204 61.25 48.3904 61.81 47.9204C62.03 47.7304 62.19 47.5104 62.3 47.2704L62.37 47.0904C62.38 46.9804 62.41 46.8604 62.46 46.7404L62.68 46.1904L78.02 5.35043C78.11 5.10043 78.34 4.94043 78.59 4.94043H85.82C86.02 4.94043 86.21 5.05043 86.33 5.23043C86.45 5.41043 86.47 5.64043 86.39 5.84043L70.05 49.2104C69.57 50.7504 68.66 52.1204 67.36 53.2704C65.33 55.0804 62.82 56.0004 59.91 56.0004ZM59.86 48.0004C59.45 48.0004 59.1 47.8704 58.8 47.6004C58.78 47.5804 58.75 47.5504 58.73 47.5304C58.59 47.3604 58.47 47.1704 58.37 46.9404C58.37 46.9204 58.36 46.9104 58.35 46.8904L55.74 39.8804L42.95 5.84043C42.87 5.64043 42.9 5.41043 43.01 5.23043C43.12 5.05043 43.31 4.94043 43.52 4.94043H50.63C50.88 4.94043 51.11 5.10043 51.2 5.35043L59.86 28.3704L68.58 5.35043C68.67 5.10043 68.9 4.94043 69.15 4.94043H76.21C76.41 4.94043 76.6 5.05043 76.72 5.23043C76.83 5.41043 76.86 5.64043 76.78 5.84043L63.05 42.4604L61.4 46.8104C61.33 47.0604 61.2 47.3004 61 47.5404C60.98 47.5604 60.96 47.5804 60.94 47.6004C60.64 47.8604 60.29 48.0004 59.88 48.0004H59.86Z" fill="url(#paint1_linear_9696_409)"/>
<path d="M108.5 56.0201C108.25 56.0201 108.02 55.8601 107.93 55.6101L104.05 45.2701H96.96C96.76 45.2701 96.57 45.1701 96.46 44.9901C96.34 44.8201 96.32 44.5901 96.38 44.3901L98.75 37.3301C98.84 37.0701 99.07 36.9001 99.33 36.9001H100.89L98.79 31.3201L89.6 55.6001C89.51 55.8501 89.28 56.0101 89.03 56.0101H81.6C81.4 56.0101 81.21 55.9001 81.09 55.7201C80.98 55.5401 80.95 55.3101 81.03 55.1101L84.72 45.2601H83.54L79.66 55.6001C79.57 55.8501 79.34 56.0101 79.09 56.0101H71.49C71.29 56.0101 71.1 55.9001 70.98 55.7201C70.86 55.5401 70.84 55.3101 70.92 55.1101L88.1 9.50012C88.6 7.90012 89.55 6.47012 90.92 5.25012C93.06 3.34012 95.69 2.37012 98.74 2.37012C101.79 2.37012 104.36 3.34012 106.5 5.25012C107.54 6.18012 108.35 7.24012 108.89 8.39012C108.97 8.46012 109.03 8.55012 109.07 8.65012L126.55 55.1201C126.63 55.3201 126.6 55.5501 126.49 55.7301C126.38 55.9101 126.18 56.0201 125.98 56.0201H118.44C118.19 56.0201 117.96 55.8601 117.87 55.6101L113.96 45.2801H112.84L116.54 55.1301C116.62 55.3301 116.59 55.5601 116.48 55.7401C116.37 55.9201 116.18 56.0301 115.97 56.0301H108.49L108.5 56.0201ZM110.82 36.8901L101.68 12.6501L101.33 11.7101C101.22 11.4101 101 11.1201 100.65 10.8401C100.64 10.8401 100.63 10.8201 100.62 10.8101C100.11 10.3301 99.5 10.0901 98.75 10.0901C98 10.0901 97.33 10.3301 96.74 10.8301C96.5 11.0501 96.33 11.2801 96.22 11.5301L96.14 11.7401C96.12 11.8601 96.09 11.9801 96.05 12.0801V12.1001L95.82 12.6701L86.71 36.9101H87.89L95.51 16.6201L97.25 12.0601C97.32 11.7901 97.47 11.5301 97.68 11.2901C97.7 11.2701 97.71 11.2601 97.73 11.2401C98.04 10.9601 98.41 10.8201 98.82 10.8201C99.23 10.8201 99.61 10.9601 99.91 11.2401C99.93 11.2601 99.96 11.2801 99.98 11.3101C100.14 11.5001 100.27 11.7101 100.37 11.9301C100.37 11.9401 100.38 11.9601 100.39 11.9701L103.14 19.3501L109.74 36.9101H110.84L110.82 36.8901Z" fill="url(#paint2_linear_9696_409)"/>
<path d="M86.42 5.45996C86.42 5.45996 86.4 5.52996 86.39 5.56996L70.05 48.94C69.57 50.48 68.66 51.85 67.36 53C65.33 54.81 62.82 55.73 59.91 55.73C57 55.73 54.54 54.81 52.51 52.99C51.51 52.1 50.74 51.09 50.22 50C50.15 49.93 50.09 49.85 50.05 49.75L33.44 5.56996C33.44 5.56996 33.42 5.49996 33.41 5.45996C33.38 5.58996 33.39 5.71996 33.44 5.83996L50.06 50.02C50.1 50.12 50.16 50.2 50.23 50.27C50.75 51.36 51.52 52.37 52.52 53.26C54.55 55.08 57.04 56 59.92 56C62.8 56 65.34 55.08 67.37 53.27C68.67 52.12 69.57 50.75 70.06 49.21L86.39 5.83996C86.44 5.71996 86.45 5.57996 86.42 5.45996Z" fill="url(#paint3_linear_9696_409)"/>
<path d="M42.95 5.8402L55.74 39.8702L58.35 46.8802C58.35 46.8802 58.36 46.9102 58.37 46.9302C58.48 47.1602 58.6 47.3502 58.73 47.5202C58.75 47.5502 58.77 47.5702 58.8 47.5902C59.1 47.8502 59.45 47.9902 59.86 47.9902C60.27 47.9902 60.62 47.8602 60.92 47.5902C60.94 47.5702 60.96 47.5502 60.98 47.5302C61.18 47.2902 61.32 47.0502 61.38 46.8002L63.03 42.4502L76.76 5.8302C76.81 5.7102 76.82 5.5702 76.79 5.4502C76.79 5.4902 76.77 5.5202 76.76 5.5602L63.03 42.1802L61.38 46.5302C61.31 46.7802 61.18 47.0202 60.98 47.2602C60.96 47.2802 60.94 47.3002 60.92 47.3202C60.62 47.5802 60.27 47.7202 59.86 47.7202C59.45 47.7202 59.1 47.5902 58.8 47.3202C58.78 47.3002 58.75 47.2702 58.73 47.2502C58.59 47.0802 58.47 46.8902 58.37 46.6602C58.37 46.6402 58.36 46.6302 58.35 46.6102L55.74 39.6002L42.95 5.5702C42.95 5.5702 42.93 5.5002 42.92 5.4602C42.89 5.5902 42.9 5.7202 42.95 5.8402Z" fill="url(#paint4_linear_9696_409)"/>
<path d="M101.68 12.3696L101.33 11.4296C101.22 11.1296 101 10.8396 100.65 10.5596C100.64 10.5596 100.63 10.5396 100.62 10.5296C100.11 10.0496 99.5 9.80957 98.75 9.80957C98 9.80957 97.33 10.0496 96.74 10.5496C96.5 10.7696 96.33 10.9996 96.22 11.2496L96.14 11.4596C96.12 11.5796 96.09 11.6996 96.05 11.7996V11.8196L95.82 12.3896L86.61 36.8996H86.71L95.82 12.6596L96.05 12.0896V12.0696C96.09 11.9596 96.12 11.8496 96.14 11.7296L96.22 11.5196C96.33 11.2696 96.5 11.0496 96.74 10.8196C97.33 10.3196 97.99 10.0796 98.75 10.0796C99.51 10.0796 100.11 10.3196 100.62 10.7996C100.63 10.8096 100.64 10.8196 100.65 10.8296C101 11.1096 101.22 11.3996 101.33 11.6996L101.68 12.6396L110.82 36.8796H110.92L101.68 12.3596V12.3696Z" fill="url(#paint5_linear_9696_409)"/>
<path d="M98.8 31.04L89.61 55.32C89.52 55.57 89.29 55.73 89.04 55.73H81.61C81.41 55.73 81.22 55.62 81.1 55.44C81.06 55.37 81.02 55.29 81.01 55.21C80.98 55.38 81.01 55.57 81.1 55.72C81.21 55.9 81.4 56.01 81.61 56.01H89.04C89.29 56.01 89.52 55.85 89.61 55.6L98.8 31.32L100.9 36.9H101L98.8 31.05V31.04Z" fill="url(#paint6_linear_9696_409)"/>
<path d="M126.5 55.45C126.39 55.63 126.19 55.74 125.99 55.74H118.45C118.2 55.74 117.97 55.58 117.88 55.33L113.97 45H112.75L112.85 45.28H113.97L117.88 55.61C117.97 55.86 118.2 56.02 118.45 56.02H125.99C126.19 56.02 126.38 55.91 126.5 55.73C126.59 55.58 126.63 55.4 126.59 55.22C126.57 55.3 126.54 55.38 126.5 55.45Z" fill="url(#paint7_linear_9696_409)"/>
<path d="M83.56 44.9805L79.68 55.3205C79.59 55.5705 79.36 55.7305 79.11 55.7305H71.51C71.31 55.7305 71.12 55.6205 71 55.4405C70.96 55.3705 70.92 55.2905 70.91 55.2105C70.88 55.3805 70.91 55.5705 71 55.7205C71.11 55.9005 71.31 56.0105 71.51 56.0105H79.11C79.36 56.0105 79.59 55.8505 79.68 55.6005L83.56 45.2605H84.74L84.84 44.9805H83.56Z" fill="url(#paint8_linear_9696_409)"/>
<path d="M115.98 55.7397H108.5C108.25 55.7397 108.02 55.5797 107.93 55.3297L104.05 44.9897H96.96C96.76 44.9897 96.57 44.8897 96.46 44.7097C96.41 44.6397 96.38 44.5597 96.36 44.4697C96.32 44.6497 96.36 44.8397 96.46 44.9897C96.58 45.1597 96.76 45.2697 96.96 45.2697H104.05L107.93 55.6097C108.02 55.8597 108.25 56.0197 108.5 56.0197H115.98C116.18 56.0197 116.37 55.9097 116.49 55.7297C116.58 55.5797 116.62 55.3997 116.58 55.2197C116.56 55.2997 116.53 55.3797 116.49 55.4497C116.38 55.6297 116.19 55.7397 115.98 55.7397Z" fill="url(#paint9_linear_9696_409)"/>
</g>
<defs>
<linearGradient id="paint0_linear_9696_409" x1="80" y1="0" x2="80" y2="58.39" gradientUnits="userSpaceOnUse">
<stop stop-color="white"/>
<stop offset="1" stop-color="#DDDDDD"/>
</linearGradient>
<linearGradient id="paint1_linear_9696_409" x1="59.91" y1="56.0004" x2="59.91" y2="4.94043" gradientUnits="userSpaceOnUse">
<stop stop-color="#9C00FF"/>
<stop offset="0.31" stop-color="#752BC9"/>
<stop offset="1" stop-color="#1CB7FF"/>
</linearGradient>
<linearGradient id="paint2_linear_9696_409" x1="98.75" y1="56.0201" x2="98.75" y2="2.37012" gradientUnits="userSpaceOnUse">
<stop stop-color="#9C00FF"/>
<stop offset="0.31" stop-color="#752BC9"/>
<stop offset="1" stop-color="#1CB7FF"/>
</linearGradient>
<linearGradient id="paint3_linear_9696_409" x1="59.91" y1="56" x2="59.91" y2="6.40996" gradientUnits="userSpaceOnUse">
<stop stop-color="#6F00B6"/>
<stop offset="1" stop-color="#2B7CBC"/>
</linearGradient>
<linearGradient id="paint4_linear_9696_409" x1="59.86" y1="55.9802" x2="59.86" y2="6.38019" gradientUnits="userSpaceOnUse">
<stop stop-color="#6F00B6"/>
<stop offset="1" stop-color="#2B7CBC"/>
</linearGradient>
<linearGradient id="paint5_linear_9696_409" x1="98.76" y1="56.4496" x2="98.76" y2="6.34957" gradientUnits="userSpaceOnUse">
<stop stop-color="#6F00B6"/>
<stop offset="1" stop-color="#2B7CBC"/>
</linearGradient>
<linearGradient id="paint6_linear_9696_409" x1="91" y1="55.98" x2="91" y2="6.38004" gradientUnits="userSpaceOnUse">
<stop stop-color="#6F00B6"/>
<stop offset="1" stop-color="#2B7CBC"/>
</linearGradient>
<linearGradient id="paint7_linear_9696_409" x1="119.68" y1="55.98" x2="119.68" y2="6.38" gradientUnits="userSpaceOnUse">
<stop stop-color="#6F00B6"/>
<stop offset="1" stop-color="#2B7CBC"/>
</linearGradient>
<linearGradient id="paint8_linear_9696_409" x1="77.87" y1="55.9805" x2="77.87" y2="6.38047" gradientUnits="userSpaceOnUse">
<stop stop-color="#6F00B6"/>
<stop offset="1" stop-color="#2B7CBC"/>
</linearGradient>
<linearGradient id="paint9_linear_9696_409" x1="106.47" y1="55.9797" x2="106.47" y2="6.37973" gradientUnits="userSpaceOnUse">
<stop stop-color="#6F00B6"/>
<stop offset="1" stop-color="#2B7CBC"/>
</linearGradient>
<clipPath id="clip0_9696_409">
<rect width="160" height="80" fill="white"/>
</clipPath>
</defs>
</svg>
