<svg width="101" height="100" viewBox="0 0 101 100" fill="none" xmlns="http://www.w3.org/2000/svg">
<path d="M48.9449 0H51.3274C52.757 0.408719 54.0504 1.22616 55.0715 2.31608C61.9469 9.33243 69.0266 16.1444 75.8339 23.2289C71.0688 23.2289 66.2355 23.1608 61.4704 23.2289C56.9095 23.5014 51.9401 24.1144 48.4683 27.3842C45.2689 30.4496 44.452 35.1499 44.3159 39.4414C44.3159 46.4578 44.3159 53.5422 44.3159 60.5586C44.452 64.6458 45.2008 69.0736 48.0599 72.139C50.7148 74.9319 54.595 75.9537 58.2709 76.4305C64.1253 77.1117 70.0477 76.5668 75.902 76.8392C68.8904 83.8556 61.8788 90.8719 54.8673 97.8883C53.8462 98.9782 52.4847 99.6594 51.0551 100H49.0129C47.6515 99.7275 46.3581 99.1144 45.337 98.0926C30.8373 83.5831 16.4057 69.1417 1.90606 54.6321C0.884956 53.6785 0.272294 52.3842 0 51.0218V48.9782C0.204221 47.752 0.748809 46.5259 1.63376 45.6403C5.37781 41.8937 13.5466 33.5831 14.0231 33.515C21.6474 33.1744 29.612 34.4005 36.8959 31.6757C40.5718 30.3815 43.1586 27.0436 44.1116 23.297C37.4404 23.297 30.7012 23.297 24.03 23.297C30.9735 16.1444 38.0531 9.19619 45.0647 2.17984C46.1538 0.953678 47.5153 0.27248 48.9449 0Z" fill="white"/>
<path d="M57.7263 35.3541C59.4281 33.7193 61.8787 33.4468 64.1252 33.4468C71.4771 33.4468 78.829 33.4468 86.181 33.4468C90.0612 37.3296 93.9414 41.2806 97.8896 45.1634C100.613 47.5476 100.749 52.1797 98.1619 54.6321C94.1456 58.6511 90.1292 62.7383 86.0448 66.7574C79.0333 66.7574 72.0217 66.7574 65.0101 66.7574C62.6275 66.6212 59.9046 66.6893 57.9305 64.9863C56.4329 63.5558 56.0925 61.3078 56.0244 59.2642C56.0244 53.1334 56.0244 47.0026 56.0244 40.8037C56.0925 38.8964 56.4329 36.7847 57.7263 35.3541Z" fill="white"/>
<path d="M90.674 91.9618C90.1294 90.2588 88.6318 89.1007 87.4745 87.8746C86.3173 86.7846 85.0919 85.3541 83.3901 85.0817C81.5521 85.0135 80.3949 86.6484 79.1696 87.7383C78.0804 88.9645 76.6508 89.9182 75.9701 91.4849C75.4255 93.1879 76.5828 94.6866 77.6719 95.7765C79.2376 97.2751 80.5991 99.0462 82.6413 99.9318H84.0708C85.9769 99.0462 87.2703 97.3432 88.7679 95.9127C89.8571 94.959 91.1505 93.5966 90.674 91.9618ZM87.8149 94.959C86.5896 96.1171 85.5004 97.4795 84.0708 98.365C82.9817 98.91 81.9606 97.8882 81.2118 97.207C79.9184 95.9127 78.4888 94.7547 77.6039 93.1879C76.9231 91.9618 78.1485 90.8718 78.9653 90.0544C80.2587 88.9645 81.2118 87.4658 82.7774 86.6484C84.1389 86.3078 85.16 87.534 86.045 88.4195C87.0661 89.5776 88.4276 90.5312 89.1764 91.9618C89.6529 93.1879 88.4956 94.1416 87.8149 94.959Z" fill="white"/>
<path d="M83.4582 93.5287C84.5474 93.3924 86.3854 93.8693 86.7257 92.3706C86.9299 91.417 86.8619 89.9183 85.6366 89.714C83.7305 89.4415 81.7564 89.6458 79.7822 89.5777C79.7822 91.5532 79.7822 93.5287 79.7822 95.5042C80.1226 95.5042 80.8033 95.5042 81.1437 95.5042C81.1437 94.823 81.1437 94.2099 81.1437 93.5287C82.9136 94.4824 84.6154 96.0491 86.7938 95.5042C85.7046 94.7548 84.5474 94.1418 83.4582 93.5287ZM81.1437 92.5069C81.1437 92.0982 81.1437 91.2807 81.1437 90.872C82.5052 90.872 83.9347 90.8039 85.2962 90.9401C85.2962 91.3488 85.2962 92.0982 85.2962 92.4388C83.9347 92.5069 82.5052 92.5069 81.1437 92.5069Z" fill="white"/>
</svg>
