<svg width="100" height="101" viewBox="0 0 100 101" fill="none" xmlns="http://www.w3.org/2000/svg">
<g clip-path="url(#clip0)">
<path d="M51.6379 47.0112C50.8343 48.0157 49.428 48.0157 48.6243 47.0112C44.4054 41.9885 33.9583 31.3406 28.9357 26.9207C27.9312 26.318 27.9312 24.9117 28.7348 24.1081C29.5384 23.1036 30.543 22.099 31.5475 21.0945C36.4091 16.4274 43.9059 6.67798 48.0255 1.32063L48.4234 0.803195C49.2271 -0.201326 50.8343 -0.201326 51.6379 0.803195L52.4022 1.72947C56.645 6.87397 65.7041 17.8585 71.9292 23.7063C72.9337 24.5099 72.9337 25.9162 71.9292 26.7198C66.9066 30.7379 55.8569 41.7876 51.6379 47.0112Z" fill="white"/>
<path d="M97.8458 15.871C98.4486 15.67 99.2522 16.0719 99.2522 16.8755C99.2522 21.8981 99.2522 38.1713 98.4486 44.8011C98.4486 45.8057 97.444 46.2075 96.8413 45.6048C94.8323 43.7966 91.4169 40.7831 87.8006 38.774C86.997 38.1713 85.9925 39.3767 86.5952 40.1804C88.0015 41.7876 89.6088 43.9975 91.4169 46.6093C91.7008 47.0351 91.9596 47.4358 92.2021 47.8114L92.2039 47.8141C92.6472 48.5006 93.0368 49.1039 93.4259 49.6229C94.8323 52.2346 97.444 58.2617 97.0422 66.097C96.6404 72.325 94.6314 77.1467 93.4259 79.5576C91.8187 81.3657 89.4079 83.9775 85.9925 86.1874C81.5726 89.0001 77.3536 90.0046 74.7419 90.2055C69.5183 91.0091 62.8885 90.0046 62.8885 90.0046C62.8885 90.0046 58.6695 100.05 47.8207 100.05C42.1954 100.05 38.3782 97.2371 36.3692 95.429C35.7665 94.8263 36.1683 93.8218 36.9719 93.6209C39.1818 93.2191 42.5972 92.4154 45.4099 91.0091C46.7563 90.3359 48.3847 88.6758 49.8226 87.2098L49.8265 87.2059C50.1037 86.9233 50.3738 86.6479 50.6334 86.3883C51.8388 84.982 50.8343 84.7811 50.0307 85.3838C40.9773 90.6649 35.8195 90.6339 31.8975 90.6104H31.8913C31.6381 90.6088 31.3893 90.6073 31.1457 90.6073C25.7212 90.8082 23.3104 90.8082 17.2833 88.1965C10.2516 85.1829 6.23354 79.7585 4.82721 77.5485C4.0236 75.1377 2.61727 70.7178 2.61727 65.2934C2.81817 58.4626 4.82721 53.44 6.03264 51.0292C7.23806 48.4174 8.04168 47.0111 10.8543 43.1939C11.2164 42.7284 11.725 42.1697 12.2497 41.5931C13.7632 39.9304 15.4114 38.1196 14.0688 37.9704C9.82629 37.5847 5.58378 42.1968 3.11801 44.8774L2.81817 45.203C2.21546 45.8057 1.21094 45.203 1.21094 44.3993V16.8755C1.21094 16.0719 2.01455 15.67 2.81817 15.871C15.676 21.4963 24.114 28.9297 24.114 28.9297L24.5158 29.1306C27.3285 30.9388 44.4053 48.0156 46.4144 51.431L48.6243 55.2482C49.227 56.4536 51.2361 56.6545 52.0397 55.2482L54.2496 51.431C56.0578 48.0156 73.1346 30.9388 76.1482 29.1306L76.55 28.9297C76.55 28.9297 84.7871 21.2954 97.8458 15.871Z" fill="white"/>
</g>
<defs>
<clipPath id="clip0">
<rect width="100" height="100" fill="white" transform="translate(0 0.0498047)"/>
</clipPath>
</defs>
</svg>
