<svg width="160" height="80" viewBox="0 0 160 80" fill="none" xmlns="http://www.w3.org/2000/svg">
<path d="M156.73 21.0203H64.6C64.6 21.0203 64.49 21.0303 64.45 21.0203C64.43 21.0203 64.41 21.0203 64.39 21.0103C64.37 21.0003 64.36 20.9903 64.34 20.9703C64.3 20.9303 64.26 20.9003 64.23 20.8603C64.2 20.8203 64.16 20.7903 64.13 20.7503C64.02 20.6503 63.91 20.5603 63.8 20.4603C63.58 20.2703 63.36 20.0903 63.13 19.9003C62.68 19.5403 62.21 19.1903 61.73 18.8603C60.77 18.1903 59.77 17.5903 58.73 17.0603C57.69 16.5303 56.59 16.0603 55.48 15.6803C54.37 15.3003 53.19 14.9803 52.02 14.7503C50.85 14.5203 49.6 14.3703 48.38 14.3103C47.95 14.2903 47.52 14.2803 47.09 14.2803C46.78 14.2803 46.47 14.2803 46.16 14.3003C45.85 14.3203 45.54 14.3303 45.23 14.3503C44.92 14.3703 44.62 14.4003 44.31 14.4303C44 14.4603 43.7 14.5003 43.4 14.5403C43.1 14.5803 42.8 14.6303 42.5 14.6903C42.2 14.7503 41.91 14.8003 41.61 14.8703C41.31 14.9403 41.02 15.0003 40.73 15.0803C40.44 15.1603 40.15 15.2303 39.87 15.3203C39.59 15.4103 39.3 15.4903 39.02 15.5803C38.74 15.6703 38.46 15.7703 38.18 15.8703C37.9 15.9703 37.63 16.0803 37.35 16.1903C37.07 16.3003 36.81 16.4203 36.54 16.5403C36.27 16.6603 36.01 16.7903 35.74 16.9103C35.47 17.0303 35.22 17.1703 34.96 17.3103C34.7 17.4503 34.45 17.5903 34.19 17.7403C33.93 17.8903 33.69 18.0403 33.44 18.1903C33.19 18.3403 32.95 18.5003 32.71 18.6703C32.47 18.8403 32.23 19.0003 32 19.1703C31.77 19.3403 31.53 19.5203 31.3 19.6903C31.07 19.8603 30.84 20.0503 30.62 20.2403C30.4 20.4303 30.18 20.6203 29.96 20.8103C29.92 20.8503 29.87 20.8903 29.83 20.9303C29.79 20.9703 29.76 21.0203 29.69 21.0203C29.69 21.0203 29.69 21.0203 29.68 21.0203C29.67 21.0203 29.66 21.0203 29.65 21.0203H3.27C1.46 21.0203 0 22.4803 0 24.2903V56.2603C0 58.0703 1.46 59.5303 3.27 59.5303H30.24C30.24 59.5303 30.29 59.5303 30.31 59.5303C30.35 59.5303 30.37 59.5303 30.4 59.5703C30.43 59.5903 30.46 59.6203 30.48 59.6403C30.54 59.6903 30.59 59.7303 30.65 59.7803C30.76 59.8703 30.88 59.9703 30.99 60.0603C31.22 60.2403 31.45 60.4203 31.68 60.6003C31.91 60.7803 32.15 60.9503 32.39 61.1203C32.63 61.2903 32.87 61.4503 33.12 61.6103C33.37 61.7703 33.62 61.9303 33.87 62.0803C34.12 62.2303 34.38 62.3803 34.64 62.5203C34.9 62.6603 35.16 62.8003 35.42 62.9403C35.68 63.0803 35.95 63.2003 36.22 63.3303C36.49 63.4603 36.76 63.5803 37.03 63.6903C37.3 63.8003 37.58 63.9203 37.86 64.0203C38.14 64.1203 38.42 64.2303 38.7 64.3303C38.98 64.4303 39.27 64.5203 39.55 64.6103C39.83 64.7003 40.13 64.7803 40.42 64.8603C40.71 64.9403 41.01 65.0103 41.3 65.0803C41.59 65.1503 41.89 65.2103 42.19 65.2703C42.49 65.3303 42.79 65.3803 43.09 65.4303C43.39 65.4803 43.7 65.5203 44 65.5603C44.3 65.6003 44.61 65.6303 44.92 65.6503C45.23 65.6703 45.54 65.7003 45.85 65.7103C46.16 65.7203 46.48 65.7303 46.79 65.7403C46.88 65.7403 46.97 65.7403 47.06 65.7403C47.69 65.7403 48.31 65.7203 48.94 65.6703C49.57 65.6203 50.17 65.5603 50.78 65.4703C51.39 65.3803 51.98 65.2703 52.58 65.1403C53.18 65.0103 53.76 64.8603 54.34 64.6903C54.92 64.5203 55.48 64.3303 56.04 64.1203C56.6 63.9103 57.15 63.6803 57.69 63.4403C58.23 63.2003 58.76 62.9303 59.28 62.6503C59.8 62.3703 60.31 62.0703 60.8 61.7603C61.29 61.4503 61.78 61.1103 62.26 60.7703C62.74 60.4303 63.19 60.0603 63.64 59.6803C63.7 59.6303 63.75 59.5603 63.84 59.5603C63.85 59.5603 63.86 59.5603 63.87 59.5603H156.7C158.51 59.5603 159.97 58.1003 159.97 56.2903V24.3203C159.97 22.5103 158.51 21.0503 156.7 21.0503L156.73 21.0203Z" fill="white"/>
<path d="M4.31993 40.1398C4.31993 35.7998 4.35993 31.4498 4.29993 27.1098C4.26993 25.4198 5.34993 24.5198 6.91993 24.5198C14.3899 24.5598 21.8699 24.5198 29.3399 24.5498C30.4799 24.5498 31.4299 24.2398 32.2899 23.5098C34.9599 21.2298 37.9499 19.4998 41.3899 18.6698C48.7099 16.9098 55.3199 18.3798 61.1999 23.1098C61.4699 23.3298 61.7399 23.5298 62.0099 23.7498C62.6599 24.2698 63.3899 24.5298 64.2299 24.5298C71.8999 24.5298 79.5599 24.5298 87.2299 24.5298C88.5099 24.5298 89.3399 25.1098 89.5999 26.1798C89.6499 26.3998 89.6599 26.6298 89.6599 26.8598C89.6599 35.6998 89.6599 44.5398 89.6599 53.3898C89.6599 54.8298 88.7799 55.7198 87.3299 55.7198C79.6999 55.7198 72.0799 55.7298 64.4499 55.7198C63.2799 55.7198 62.2299 55.9798 61.2999 56.7198C58.7899 58.7098 56.0499 60.2998 52.9199 61.0998C46.0699 62.8598 39.7099 61.7598 33.9399 57.6298C31.2499 55.7098 31.6399 55.7198 28.1599 55.7198C21.0699 55.7198 13.9799 55.6998 6.88993 55.7298C5.43993 55.7298 4.28993 54.8798 4.30993 53.1498C4.37993 48.8098 4.32993 44.4598 4.32993 40.1198L4.31993 40.1398ZM66.6199 39.9598C66.6199 29.2198 57.8999 20.4898 47.1599 20.4798C36.3399 20.4698 27.6099 29.1498 27.6099 39.9298C27.6099 50.6798 36.3299 59.4098 47.0699 59.4298C57.8299 59.4398 66.6099 50.6998 66.6099 39.9598H66.6199ZM70.5499 40.0798C70.5499 41.2898 70.5499 42.4898 70.5499 43.6998C70.5499 46.0698 70.5399 48.4498 70.5499 50.8198C70.5499 52.1498 71.4199 53.2198 72.5999 53.4498C73.8099 53.6898 74.9899 53.0898 75.4399 51.9298C75.6099 51.4998 75.6899 50.9998 75.6899 50.5298C75.7099 48.1798 75.7099 45.8198 75.6899 43.4698C75.6899 42.9598 75.8799 42.7798 76.3699 42.7998C77.0599 42.8198 77.7499 42.7998 78.4399 42.7998C79.9499 42.8098 81.3599 42.4398 82.6599 41.6698C85.4499 40.0098 86.8499 36.5598 86.1399 33.1498C85.3699 29.4298 82.3499 26.9598 78.5299 26.9298C76.7699 26.9198 74.9999 26.9298 73.2399 26.9298C71.4899 26.9298 70.5499 27.8698 70.5499 29.6198C70.5499 33.0998 70.5499 36.5898 70.5499 40.0698V40.0798ZM13.8499 41.8298C13.8499 44.8698 13.8499 47.9198 13.8499 50.9598C13.8499 52.1598 14.4999 53.1298 15.5699 53.3898C17.9399 53.9798 19.3599 52.6398 19.3399 50.6398C19.2699 44.6498 19.3199 38.6598 19.3199 32.6698C19.3199 31.8598 19.3299 31.8398 20.1599 31.8398C20.9599 31.8398 21.7699 31.8398 22.5699 31.8398C24.0499 31.8198 25.1199 30.7698 25.1099 29.3698C25.0999 27.9798 23.9999 26.9398 22.5299 26.9398C18.5399 26.9398 14.5599 26.9398 10.5699 26.9398C9.09993 26.9398 8.00993 27.9898 8.00993 29.3898C8.00993 30.7898 9.07993 31.8198 10.5699 31.8398C11.4099 31.8498 12.2599 31.8398 13.0999 31.8398C13.8199 31.8398 13.8499 31.8798 13.8499 32.5798C13.8499 35.6598 13.8499 38.7398 13.8499 41.8198V41.8298Z" fill="black"/>
<path d="M155.65 40.0396C155.65 43.5196 155.65 47.0096 155.65 50.4896C155.65 51.7096 155.09 52.6396 154.01 53.1896C152.91 53.7596 151.79 53.6596 150.82 52.9096C150.4 52.5896 150.04 52.1096 149.8 51.6296C147.78 47.5696 145.8 43.4896 143.81 39.4196C143.74 39.2796 143.69 39.1296 143.6 39.0096C143.48 38.8596 143.33 38.7396 143.19 38.5996C143.11 38.7896 142.97 38.9796 142.97 39.1796C142.96 43.0996 142.97 47.0296 142.96 50.9496C142.96 52.1796 142.29 53.0996 141.19 53.4196C139.63 53.8696 138.08 52.7696 137.97 51.1296C137.97 51.0296 137.97 50.9396 137.97 50.8396C137.97 43.9696 137.97 37.0996 137.97 30.2196C137.97 28.9996 138.44 28.0096 139.53 27.4096C140.56 26.8396 141.67 26.8096 142.64 27.4796C143.16 27.8396 143.63 28.3996 143.91 28.9696C145.94 33.0496 147.91 37.1496 149.91 41.2396C150.02 41.4696 150.25 41.6496 150.42 41.8596C150.49 41.6096 150.61 41.3496 150.61 41.0996C150.62 37.2696 150.61 33.4396 150.62 29.6096C150.62 28.5396 151.09 27.7196 152.07 27.2596C153.02 26.8096 153.94 26.9496 154.77 27.5996C155.44 28.1296 155.65 28.8596 155.65 29.6896C155.65 33.1396 155.65 36.5796 155.65 40.0296V40.0396Z" fill="#E72139"/>
<path d="M101.63 54.0904C98.0501 53.9204 95.2301 52.7604 93.5401 49.6104C92.8001 48.2404 93.2301 46.6904 94.5301 45.9904C95.8401 45.2804 97.3101 45.7604 98.0901 47.1404C99.1101 48.9504 101.07 49.7204 102.86 49.0204C104.98 48.1804 105.53 45.5304 103.83 44.0104C103.22 43.4704 102.43 43.0904 101.67 42.7504C100.18 42.1004 98.6201 41.6104 97.1601 40.9004C95.0001 39.8404 93.5701 38.1504 93.1501 35.7004C92.3901 31.2604 95.4901 27.1304 100 26.6004C102.16 26.3404 104.2 26.6504 106.1 27.7304C107.06 28.2804 107.88 28.9904 108.5 29.9204C109.38 31.2604 109.11 32.8804 107.85 33.7204C106.6 34.5504 104.95 34.1704 104.09 32.8404C103.54 32.0004 102.85 31.4004 101.83 31.2304C100.51 31.0104 99.0101 31.8204 98.5001 33.0604C98.0001 34.2704 98.4101 35.6404 99.6301 36.4104C100.35 36.8604 101.18 37.1504 101.97 37.4804C103.26 38.0104 104.62 38.4004 105.85 39.0404C109.07 40.7104 110.48 43.5404 109.98 47.0704C109.49 50.5304 107.04 53.1504 103.61 53.8304C102.9 53.9704 102.17 54.0204 101.64 54.0804L101.63 54.0904Z" fill="#E72139"/>
<path d="M111.82 40.1096C111.82 36.6496 111.82 33.1796 111.82 29.7196C111.82 27.9596 112.76 27.0196 114.52 27.0296C116.72 27.0296 118.93 26.9696 121.13 27.0896C124.76 27.2796 127.67 29.8296 128.36 33.2496C129.33 38.0696 126.12 42.3596 121.24 42.7596C120.14 42.8496 119.02 42.8396 117.91 42.8396C117.41 42.8396 117.23 43.0296 117.24 43.5196C117.25 45.9296 117.26 48.3396 117.24 50.7496C117.23 52.6796 115.58 53.9196 113.76 53.3996C112.56 53.0596 111.84 52.0396 111.84 50.6596C111.84 47.1396 111.84 43.6196 111.84 40.0996L111.82 40.1096ZM117.23 34.8896C117.23 35.7296 117.23 36.5696 117.23 37.4096C117.23 37.7396 117.33 37.9896 117.7 37.9896C118.67 37.9896 119.66 38.0396 120.62 37.9196C122.15 37.7296 123.07 36.5796 123.09 35.0296C123.12 33.3796 122.3 32.2396 120.74 31.9896C119.81 31.8396 118.84 31.9096 117.89 31.8596C117.39 31.8396 117.21 32.0596 117.23 32.5496C117.25 33.3296 117.23 34.1196 117.23 34.8996V34.8896Z" fill="#E72139"/>
<path d="M135.66 40.2997C135.66 43.7797 135.67 47.2597 135.66 50.7397C135.66 52.6597 134.07 53.8897 132.26 53.4297C131.18 53.1597 130.44 52.3097 130.28 51.1497C130.26 50.9997 130.25 50.8397 130.25 50.6897C130.25 43.7297 130.25 36.7597 130.25 29.7997C130.25 28.3397 131.18 27.2397 132.52 27.0497C134.29 26.7997 135.65 27.9897 135.66 29.8397C135.67 33.3197 135.66 36.7997 135.66 40.2797V40.2997Z" fill="#E72139"/>
<path d="M75.7101 34.8497C75.7101 35.6897 75.7101 36.5297 75.7101 37.3697C75.7101 37.7497 75.8401 37.9397 76.2401 37.9297C76.9501 37.9197 77.6601 37.9497 78.3601 37.9097C79.8701 37.8297 80.8401 36.9697 81.1001 35.5397C81.4301 33.7297 80.5701 32.2197 78.9301 31.9397C78.0001 31.7797 77.0201 31.8397 76.0701 31.8597C75.9401 31.8597 75.7301 32.1897 75.7201 32.3697C75.6801 33.1897 75.7001 34.0097 75.7001 34.8397L75.7101 34.8497Z" fill="white"/>
<path d="M47.3201 43.3302C50.9801 43.3302 54.6401 43.3302 58.3001 43.3302C58.9401 43.3302 59.6301 43.3102 59.9301 44.0202C60.2601 44.7802 59.9301 45.4502 59.4001 46.0002C59.1001 46.3102 58.7301 46.5802 58.3501 46.7902C56.7901 47.6402 55.1901 48.2102 53.3401 48.1702C48.9201 48.0802 44.4901 48.2202 40.0701 48.1002C38.2301 48.0502 36.5801 47.1902 35.1801 45.9502C35.0301 45.8102 34.9101 45.6202 34.8201 45.4402C34.2101 44.2702 34.7501 43.3402 36.0601 43.3302C38.6501 43.3102 41.2301 43.3302 43.8201 43.3302C44.9901 43.3302 46.1601 43.3302 47.3301 43.3302H47.3201Z" fill="#E72139"/>
<path d="M48.2599 34.3298C48.8499 34.8198 48.9999 35.4098 49.0499 36.0598C49.2799 39.0298 50.9299 41.0198 53.7999 41.8398C54.0199 41.8998 54.2199 42.0198 54.3899 42.2298H40.25C40.25 42.2298 40.22 42.1598 40.2 42.1298C40.38 42.0398 40.56 41.9098 40.75 41.8598C43.82 40.9498 45.3499 39.0198 45.6199 35.7998C45.6599 35.2798 45.9899 34.7898 46.2099 34.2198C45.7799 33.8898 45.7899 33.2998 45.8499 32.6998C45.9999 31.1198 46.1499 29.5398 46.2999 27.9698C46.3299 27.6998 46.3499 27.4298 46.4199 27.1798C46.5299 26.7498 46.8099 26.4898 47.2799 26.4698C47.7699 26.4498 48.0699 26.7098 48.2099 27.1598C48.2599 27.3398 48.29 27.5298 48.31 27.7198C48.47 29.4098 48.62 31.1098 48.79 32.7998C48.85 33.3698 48.82 33.9098 48.27 34.3298H48.2599Z" fill="#E72139"/>
<path d="M42.6699 49.2402H51.9799C51.0799 49.6502 50.2899 50.0002 49.5099 50.3802C48.7799 50.7302 48.0799 51.1202 47.9699 52.0802C47.9499 52.2402 47.5199 52.4602 47.2699 52.4602C47.0599 52.4602 46.6799 52.2202 46.6599 52.0502C46.5399 51.2202 45.9899 50.8002 45.3099 50.4802C44.4699 50.0802 43.6299 49.6902 42.6799 49.2402H42.6699Z" fill="#E72139"/>
<path d="M75.7101 34.8505C75.7101 34.0305 75.6901 33.2005 75.7301 32.3805C75.7301 32.2005 75.9601 31.8705 76.0801 31.8705C77.0301 31.8505 78.0101 31.7905 78.9401 31.9505C80.5801 32.2305 81.4301 33.7405 81.1101 35.5505C80.8501 36.9805 79.8801 37.8405 78.3701 37.9205C77.6601 37.9605 76.9501 37.9205 76.2501 37.9405C75.8501 37.9405 75.7101 37.7605 75.7201 37.3805C75.7301 36.5405 75.7201 35.7005 75.7201 34.8605L75.7101 34.8505Z" fill="black"/>
</svg>
