<svg width="160" height="80" viewBox="0 0 160 80" fill="none" xmlns="http://www.w3.org/2000/svg">
<g clip-path="url(#clip0_8843_294)">
<path d="M57.03 79.9996C55.83 79.9996 54.92 79.6896 54.29 79.0596C53.67 78.4296 53.36 77.4696 53.36 76.1596C53.36 75.3096 53.5 74.5996 53.79 74.0296C54.08 73.4596 54.5 73.0396 55.07 72.7496C55.63 72.4596 56.32 72.3196 57.12 72.3196C57.62 72.3196 58.08 72.3696 58.49 72.4796C58.9 72.5896 59.25 72.7496 59.55 72.9796C59.85 73.1996 60.08 73.4696 60.24 73.7996C60.41 74.1296 60.49 74.5196 60.49 74.9796H59.44C59.44 74.6596 59.38 74.3896 59.27 74.1696C59.15 73.9396 58.99 73.7496 58.77 73.6096C58.56 73.4696 58.32 73.3596 58.03 73.3096C57.75 73.2496 57.45 73.2096 57.13 73.2096C56.7 73.2096 56.31 73.2596 55.97 73.3696C55.63 73.4796 55.35 73.6496 55.12 73.8796C54.89 74.1096 54.71 74.4096 54.59 74.7696C54.47 75.1296 54.41 75.5596 54.41 76.0596V76.2896C54.41 76.9596 54.51 77.4996 54.71 77.9196C54.92 78.3396 55.22 78.6396 55.61 78.8396C56 79.0296 56.47 79.1196 57.02 79.1196C57.57 79.1196 58.03 79.0396 58.39 78.8896C58.75 78.7296 59.02 78.4896 59.19 78.1796C59.37 77.8596 59.46 77.4596 59.46 76.9796V76.8496H56.84V75.9696H60.49V79.8696H59.71L59.6 78.9296C59.41 79.1796 59.17 79.3896 58.91 79.5496C58.64 79.7096 58.35 79.8196 58.02 79.8996C57.7 79.9696 57.36 80.0096 57 80.0096L57.03 79.9996ZM64.69 79.8696L67.62 72.4496H68.97L71.91 79.8696H70.8L70.08 78.0296H66.47L65.76 79.8696H64.7H64.69ZM66.79 77.1596H69.72L68.82 74.8396C68.8 74.7796 68.77 74.6896 68.72 74.5696C68.68 74.4496 68.63 74.3296 68.58 74.1896C68.53 74.0496 68.48 73.8996 68.43 73.7596C68.38 73.6096 68.33 73.4696 68.29 73.3496H68.23C68.18 73.4896 68.12 73.6596 68.06 73.8496C68 74.0396 67.93 74.2196 67.87 74.3996C67.81 74.5696 67.75 74.7196 67.71 74.8396L66.8 77.1596H66.79ZM76.15 79.8696V72.4496H77.74L79.43 77.2596C79.47 77.3896 79.52 77.5296 79.56 77.6896C79.61 77.8396 79.65 77.9896 79.69 78.1196C79.73 78.2596 79.77 78.3796 79.79 78.4796H79.87C79.89 78.3696 79.92 78.2496 79.96 78.1096C80 77.9696 80.04 77.8196 80.08 77.6696C80.12 77.5196 80.16 77.3796 80.2 77.2596L81.89 72.4496H83.47V79.8696H82.44V75.5196C82.44 75.2996 82.44 75.0496 82.45 74.7996C82.45 74.5296 82.46 74.2896 82.47 74.0796C82.47 73.8596 82.48 73.6996 82.48 73.5996H82.39C82.37 73.6896 82.33 73.8296 82.28 73.9996C82.23 74.1696 82.18 74.3396 82.12 74.5296C82.07 74.7096 82.02 74.8696 81.98 75.0196L80.24 79.8696H79.35L77.61 75.0196C77.57 74.8996 77.52 74.7596 77.47 74.5996C77.43 74.4296 77.38 74.2596 77.33 74.0896C77.29 73.9196 77.24 73.7496 77.2 73.5996H77.12C77.12 73.7596 77.13 73.9596 77.13 74.1896C77.13 74.4196 77.14 74.6596 77.14 74.8896C77.14 75.1196 77.15 75.3296 77.15 75.5196V79.8696H76.16H76.15ZM88.55 79.8696V72.4496H94.26V73.3396H89.58V75.6296H93.79V76.5196H89.58V78.9796H94.33V79.8696H88.56H88.55ZM101.83 79.9996C101.43 79.9996 101.04 79.9596 100.66 79.8796C100.29 79.7996 99.96 79.6696 99.68 79.4996C99.39 79.3196 99.16 79.0896 98.99 78.8096C98.82 78.5296 98.74 78.1796 98.74 77.7696V77.6596C98.74 77.6596 98.75 77.5896 98.75 77.5496H99.79C99.79 77.5496 99.79 77.6096 99.78 77.6596V77.7796C99.78 78.0696 99.87 78.3096 100.04 78.5196C100.21 78.7196 100.45 78.8696 100.75 78.9696C101.06 79.0596 101.41 79.1096 101.8 79.1096C101.97 79.1096 102.15 79.0996 102.34 79.0796C102.53 79.0596 102.72 79.0196 102.89 78.9696C103.07 78.9096 103.23 78.8396 103.37 78.7496C103.51 78.6596 103.63 78.5396 103.71 78.4096C103.8 78.2696 103.84 78.1096 103.84 77.9096C103.84 77.6596 103.77 77.4596 103.62 77.2996C103.48 77.1296 103.3 76.9996 103.07 76.8996C102.84 76.7896 102.58 76.6996 102.28 76.6196C101.99 76.5296 101.69 76.4496 101.38 76.3696C101.07 76.2896 100.77 76.1996 100.47 76.0996C100.18 75.9896 99.92 75.8596 99.69 75.7096C99.46 75.5496 99.27 75.3596 99.13 75.1296C98.99 74.8996 98.92 74.6196 98.92 74.2896C98.92 73.9796 98.98 73.6996 99.1 73.4596C99.23 73.2196 99.42 73.0096 99.66 72.8396C99.91 72.6696 100.22 72.5396 100.59 72.4496C100.96 72.3596 101.38 72.3096 101.85 72.3096C102.24 72.3096 102.6 72.3496 102.93 72.4396C103.27 72.5196 103.56 72.6496 103.82 72.8196C104.08 72.9896 104.28 73.1996 104.43 73.4596C104.57 73.7196 104.65 74.0296 104.65 74.3996V74.5296H103.63V74.3696C103.63 74.1296 103.55 73.9196 103.4 73.7396C103.25 73.5696 103.04 73.4296 102.77 73.3396C102.51 73.2496 102.22 73.1996 101.88 73.1996C101.45 73.1996 101.09 73.2396 100.8 73.3296C100.51 73.4096 100.3 73.5296 100.15 73.6896C100.01 73.8396 99.94 74.0096 99.94 74.2096C99.94 74.4296 100.01 74.6196 100.15 74.7696C100.29 74.9196 100.48 75.0496 100.71 75.1496C100.94 75.2396 101.2 75.3296 101.5 75.4096C101.8 75.4896 102.09 75.5696 102.4 75.6596C102.71 75.7396 103.01 75.8296 103.3 75.9396C103.6 76.0396 103.86 76.1696 104.09 76.3296C104.33 76.4796 104.52 76.6796 104.65 76.9096C104.79 77.1396 104.86 77.4296 104.86 77.7596C104.86 78.2896 104.73 78.7196 104.47 79.0496C104.21 79.3696 103.85 79.6096 103.4 79.7596C102.95 79.9096 102.42 79.9896 101.82 79.9896L101.83 79.9996Z" fill="white"/>
<path fill-rule="evenodd" clip-rule="evenodd" d="M2.82001 52.9697V69.6597H11.43C12.42 69.6597 13.29 69.5097 14.06 69.1997C14.82 68.8897 15.43 68.4097 15.88 67.7397C16.33 67.0797 16.56 66.1997 16.56 65.1097C16.56 64.2997 16.41 63.6197 16.12 63.0697C15.84 62.4997 15.47 62.0497 15 61.7097C14.53 61.3697 14 61.1297 13.42 60.9997V60.8997C13.94 60.7197 14.4 60.4497 14.81 60.0997C15.22 59.7397 15.53 59.2997 15.76 58.7597C15.99 58.2297 16.1 57.6397 16.1 57.0097C16.1 56.1797 15.91 55.4697 15.52 54.8697C15.15 54.2697 14.61 53.8097 13.91 53.4797C13.21 53.1397 12.39 52.9697 11.43 52.9697H2.82001ZM11.41 67.6597H5.13001V62.0897H11.21C11.87 62.0897 12.43 62.1997 12.86 62.4097C13.3 62.5997 13.63 62.9097 13.86 63.3297C14.09 63.7397 14.2 64.2497 14.2 64.8597C14.2 65.8697 13.94 66.5897 13.42 67.0197C12.9 67.4397 12.23 67.6497 11.4 67.6497L11.41 67.6597ZM10.99 60.1197H5.13001V54.9597H11.16C11.94 54.9597 12.56 55.1697 13.03 55.5897C13.5 55.9997 13.74 56.6397 13.74 57.5097C13.74 58.0097 13.62 58.4697 13.38 58.8697C13.15 59.2597 12.84 59.5697 12.43 59.7897C12.02 59.9997 11.55 60.1097 10.99 60.1097V60.1197ZM22.92 69.2697C23.94 69.7197 25.16 69.9497 26.57 69.9497C27.98 69.9497 29.22 69.7197 30.24 69.2697C31.28 68.8197 32.07 68.0997 32.62 67.1297C33.17 66.1397 33.45 64.8797 33.45 63.3397V52.9797H31.16V63.5797C31.16 65.0397 30.75 66.1297 29.94 66.8597C29.13 67.5897 28 67.9497 26.56 67.9497C25.12 67.9497 24.02 67.5897 23.23 66.8597C22.45 66.1297 22.06 65.0397 22.06 63.5797V52.9797H19.75V63.3397C19.75 64.8797 20.02 66.1497 20.55 67.1297C21.1 68.0997 21.89 68.8197 22.91 69.2697H22.92ZM37.6 69.6597V52.9697H39.91V67.6397H48.2V69.6597H37.6ZM50.64 52.9697V69.6597H61.24V67.6397H52.95V52.9697H50.64Z" fill="white"/>
<path d="M108.61 64.6494L106.45 64.3794L105.23 64.1094L105.77 66.4094L107.12 65.7294L106.04 65.4594L108.61 64.6494Z" fill="white"/>
<path fill-rule="evenodd" clip-rule="evenodd" d="M75.69 53.9399C74.31 53.0599 72.55 52.6299 70.41 52.6299C68.27 52.6299 66.44 53.0699 65.01 53.9399C63.6 54.7999 62.89 56.1499 62.89 57.9799C62.89 59.2299 63.22 60.2199 63.89 60.9499C64.55 61.6799 65.33 62.2099 66.22 62.5299C67.11 62.8399 68.24 63.1399 69.6 63.4299C70.72 63.6599 71.52 63.8799 72.01 64.0899C72.51 64.2799 72.76 64.5799 72.76 64.9899C72.76 65.4399 72.53 65.7399 72.08 65.8899C71.64 66.0399 71.08 66.1099 70.4 66.1099C69.48 66.1099 68.79 65.9699 68.36 65.6999C67.92 65.4099 67.7 64.8399 67.7 63.9999H62.62C62.62 66.2199 63.34 67.7699 64.78 68.6499C66.24 69.5299 68.27 69.9599 70.88 69.9599C73.12 69.9599 74.9 69.4799 76.23 68.5199C77.58 67.5599 78.25 66.0999 78.25 64.1199C78.23 62.9499 77.9 62.0299 77.25 61.3499C76.6 60.6699 75.84 60.1799 74.96 59.8899C74.1 59.5799 73 59.2899 71.65 59.0099C70.5 58.7799 69.66 58.5599 69.14 58.3499C68.62 58.1399 68.36 57.8099 68.36 57.3799C68.36 57.0699 68.55 56.8099 68.92 56.5999C69.31 56.3899 69.86 56.2799 70.57 56.2799C71.28 56.2799 71.84 56.4399 72.2 56.7699C72.56 57.0899 72.74 57.4999 72.74 57.9899V58.0899H77.77V57.7999C77.74 56.0999 77.03 54.8199 75.65 53.9599L75.69 53.9399ZM92.22 63.3099V69.6599H97.6V52.9299H92.22V59.0299H86.31V52.9299H80.93V69.6599H86.31V63.3099H92.22ZM117.85 69.6599L112.66 68.2999C108.34 60.9999 106.98 61.8099 106.85 63.1699C106.74 64.2499 105.36 68.5699 105.36 68.5699C103.6 69.0299 102.3 69.2299 101.32 69.3699C100.68 69.4699 100.17 69.5399 99.76 69.6599H99.64L105.74 52.9299H111.99L118.09 69.6599H117.84H117.85ZM135.18 60.8299C135.73 59.9999 136.01 59.0799 136.01 58.0599C136.01 57.1399 135.79 56.2799 135.35 55.5099C134.93 54.7199 134.29 54.0899 133.43 53.6399C132.59 53.1699 131.57 52.9299 130.37 52.9299H120.13V69.6599H125.51V63.5599H127.5L130.47 69.6599H136.5L132.78 62.6599C133.83 62.2699 134.64 61.6599 135.19 60.8399L135.18 60.8299ZM130.1 57.1799C130.39 57.4699 130.54 57.8399 130.54 58.2699C130.54 58.6999 130.39 59.0799 130.1 59.3899C129.81 59.6799 129.45 59.8299 129.03 59.8299H125.5V56.7399H129.03C129.45 56.7399 129.81 56.8899 130.1 57.1799ZM150.39 52.9199H157.05L151.04 59.7999L157.17 69.6499H150.82L147.34 63.5199L144.42 65.8999V69.6499H139.04V52.9199H144.42V60.0699L150.38 52.9199H150.39Z" fill="white"/>
<path d="M108.61 64.6494L106.45 64.3794L105.23 64.1094L105.77 66.4094L107.12 65.7294L106.04 65.4594L108.61 64.6494Z" fill="white"/>
<path d="M64.35 21.8594L64.4 22.1394C64.4 22.0094 64.39 21.9194 64.35 21.8594Z" fill="white"/>
<path d="M103.97 34.0398C103.05 31.3198 99.78 29.8498 98.8 29.4598C97.37 28.8998 95.93 28.6998 94.53 28.7298V28.2698C94.53 25.4098 93.21 22.8498 91.14 21.1698C91.61 20.3598 91.94 19.4598 92.12 18.5098C91.14 19.1698 89.51 19.9998 85.73 20.9398C79.01 22.5998 77.47 23.9998 77.47 23.9998C77 24.3098 76.61 24.7198 76.29 25.1898C76.44 24.5098 76.95 23.8898 76.95 23.8898C76.95 23.8898 75.73 24.4898 75.18 26.0598C74.72 27.3798 74.94 28.3898 74.98 28.5198C74.64 27.3598 74.68 26.2998 75.08 25.3498C76.43 22.1598 81.63 20.6998 84.42 19.9198C84.83 19.7998 85.19 19.7098 85.48 19.6098C85.64 19.5598 89.49 18.3598 89.7 17.3598C89.74 17.1498 89.68 16.9498 89.52 16.8098C89.27 16.5998 88.9 16.5598 87.75 16.9798C87.02 17.2498 86.71 17.1598 86.62 17.0998C86.53 17.0498 86.5 16.9698 86.5 16.9698L86.47 16.2898L85.8 16.5698C83.71 17.4498 83.16 17.2798 83.07 17.2398C83.07 17.2198 83.07 17.1798 83.08 17.1498L83.37 16.3998L82.57 16.4598C81.39 16.5498 80.5 16.3198 79.93 15.7798C80.98 16.0098 82.32 15.9798 83.39 15.2798C83.9 14.9398 84.23 14.9498 84.31 15.0298C84.35 15.0798 84.39 15.2898 84.39 15.4398V16.1398L85.06 15.9198C88.64 14.7198 91.44 16.4198 91.46 16.4398L91.68 16.5798L91.92 16.4798C94.14 15.5998 96.74 12.9398 96.85 12.8298L97.29 12.3798L96.75 12.0498C95.48 11.2798 93.96 10.6098 92.27 10.0698V8.60977C92.27 3.85977 88.41 0.00976562 83.64 0.00976562H71.35V9.24977C63.75 7.66977 57.29 10.7898 57 10.9398L55.95 11.4598L57.05 11.8698C61.99 13.6898 63.93 16.0198 64.45 16.7598C63.46 18.3598 63.05 20.5598 62.95 21.2298C56.52 26.8298 56.33 32.2198 56.32 32.4498L56.3 33.6098L57.17 32.8398C59.82 30.4998 62.72 30.5498 62.75 30.5598L63.3 30.5798L63.28 30.0398C63.26 29.5198 63.29 29.0298 63.36 28.5898C64.67 34.3598 69.98 38.7798 76.06 38.7798C76.16 38.7798 76.26 38.7798 76.36 38.7798C79.94 38.6898 81.67 38.1098 83.34 37.5498C84.49 37.1598 85.68 36.7698 87.52 36.5298C87.31 37.5298 86.41 38.2898 85.34 38.2898H83.68C80.69 39.1298 78.63 39.3098 76.6 39.3098C76.11 39.3098 75.63 39.2998 75.14 39.2898C73.84 39.2498 72.56 39.0298 71.36 38.6398V45.2298H85.34C90.16 45.2298 94.1 41.5398 94.49 36.8398C97.83 37.8298 99.04 39.9198 99.11 40.0298L99.94 41.5598L100.06 39.8298C100.25 37.0498 99.15 35.3398 98.49 34.5698C100.8 33.1698 103.11 34.5798 103.21 34.6498L104.42 35.4198L103.96 34.0598L103.97 34.0398ZM85.33 26.0598C86.56 26.0598 87.55 27.0498 87.55 28.2798V30.5998C86.42 31.1398 85.52 31.6798 84.95 32.0198C84.77 32.1298 84.62 32.2198 84.51 32.2798C81.65 33.8498 79.92 33.6098 78.9 32.9198C78.66 32.7898 78.46 32.6198 78.31 32.4298C78.21 32.3098 78.13 32.1798 78.06 32.0498C77.84 31.6298 77.75 31.1598 77.71 30.7398C77.65 30.1298 77.71 29.6498 77.71 29.6498C77.84 30.4098 78.08 30.8598 78.3 31.1298V29.1998C80.86 29.0998 82.27 30.4198 82.34 30.4898L83.11 31.2498L83.2 30.1698C83.34 28.5198 82.95 27.1398 82.06 26.0698H85.32L85.33 26.0598ZM86.29 12.2998L85.73 11.9498L84.64 11.2798C85 11.2398 85.37 11.2398 85.73 11.2598C86.87 11.3298 87.89 11.6098 87.89 11.6098L86.29 12.2898V12.2998ZM77.89 7.61977V6.51977H83.64C84.79 6.51977 85.73 7.44977 85.73 8.59977V8.69977C84.58 8.56977 83.42 8.48977 82.24 8.46977C77.31 8.37977 73.54 9.35977 72.75 9.58977C74.84 8.44977 76.6 7.89977 77.89 7.61977ZM57.54 31.2198C57.55 31.1598 57.57 31.0998 57.58 31.0398C57.58 31.0398 57.58 31.0398 57.58 31.0298C57.59 30.9698 57.61 30.9098 57.63 30.8498V30.8298C57.65 30.7698 57.66 30.7098 57.68 30.6598C57.68 30.6498 57.68 30.6398 57.69 30.6198C57.71 30.5598 57.72 30.5098 57.74 30.4498C57.74 30.4298 57.75 30.4198 57.76 30.3998C57.78 30.3398 57.79 30.2898 57.81 30.2298C57.81 30.2098 57.82 30.1898 57.83 30.1698C57.85 30.1198 57.87 30.0598 57.89 29.9998C57.89 29.9798 57.91 29.9498 57.91 29.9298C57.93 29.8798 57.95 29.8198 57.97 29.7598C57.98 29.7298 57.99 29.6998 58 29.6698C58.02 29.6198 58.04 29.5598 58.06 29.5098C58.07 29.4798 58.09 29.4498 58.1 29.4098C58.12 29.3598 58.14 29.2998 58.16 29.2498C58.17 29.2198 58.19 29.1798 58.2 29.1398C58.22 29.0898 58.24 29.0398 58.26 28.9798C58.28 28.9398 58.29 28.8998 58.31 28.8598C58.33 28.8098 58.35 28.7598 58.38 28.7098C58.4 28.6698 58.42 28.6298 58.44 28.5798C58.46 28.5298 58.49 28.4798 58.51 28.4298C58.53 28.3898 58.55 28.3398 58.57 28.2998C58.59 28.2498 58.62 28.1998 58.64 28.1498C58.66 28.0998 58.69 28.0498 58.71 28.0098C58.73 27.9598 58.76 27.9098 58.79 27.8598C58.82 27.8098 58.84 27.7598 58.87 27.7098C58.9 27.6598 58.92 27.6098 58.95 27.5698C58.98 27.5198 59.01 27.4598 59.04 27.4098C59.07 27.3598 59.09 27.3098 59.12 27.2698C59.15 27.2198 59.18 27.1598 59.22 27.0998C59.25 27.0498 59.28 26.9998 59.31 26.9498C59.34 26.8898 59.38 26.8298 59.42 26.7798C59.45 26.7298 59.48 26.6898 59.51 26.6398C59.55 26.5798 59.59 26.5198 59.63 26.4598C59.66 26.4098 59.69 26.3698 59.72 26.3198C59.76 26.2598 59.8 26.1998 59.85 26.1298C59.88 26.0798 59.91 26.0398 59.95 25.9898C59.99 25.9298 60.04 25.8598 60.09 25.7998C60.12 25.7498 60.15 25.7098 60.19 25.6598C60.24 25.5998 60.29 25.5298 60.33 25.4698C60.36 25.4198 60.4 25.3798 60.44 25.3298C60.49 25.2698 60.54 25.1998 60.59 25.1398C60.63 25.0898 60.66 25.0398 60.7 24.9998C60.75 24.9298 60.81 24.8598 60.86 24.7998C60.9 24.7498 60.93 24.7098 60.97 24.6598C61.03 24.5898 61.09 24.5198 61.15 24.4498C61.19 24.4098 61.23 24.3598 61.26 24.3198C61.32 24.2498 61.38 24.1798 61.45 24.1098C61.49 24.0698 61.53 24.0198 61.57 23.9698C61.63 23.8998 61.7 23.8298 61.76 23.7598C61.8 23.7098 61.85 23.6598 61.89 23.6198C61.95 23.5498 62.02 23.4798 62.09 23.4098C62.14 23.3598 62.18 23.3098 62.23 23.2698C62.3 23.1998 62.37 23.1298 62.44 23.0598C62.49 23.0098 62.54 22.9598 62.58 22.9198C62.65 22.8498 62.73 22.7798 62.81 22.6998C62.86 22.6498 62.91 22.6098 62.95 22.5598C63.03 22.4798 63.12 22.3998 63.21 22.3198C63.25 22.2798 63.3 22.2398 63.34 22.1998C63.47 22.0798 63.61 21.9598 63.74 21.8398L63.89 21.7098L63.91 21.5198C63.91 21.5198 63.91 21.5098 63.91 21.4798C63.91 21.4798 63.91 21.4398 63.91 21.4198C63.91 21.4198 63.91 21.3998 63.91 21.3898C63.91 21.3698 63.91 21.3498 63.92 21.3298C63.92 21.3198 63.92 21.3098 63.92 21.2898C63.92 21.2698 63.92 21.2398 63.93 21.2098C63.93 21.1998 63.93 21.1798 63.93 21.1698C63.93 21.1298 63.94 21.0898 63.95 21.0398C63.95 21.0398 63.95 21.0298 63.95 21.0198C63.95 21.0198 63.95 21.0198 63.96 21.0198C63.97 20.9498 63.98 20.8798 63.99 20.8198C63.99 20.8198 63.99 20.8098 63.99 20.7998C64 20.7498 64.01 20.6898 64.02 20.6298C64.03 20.5698 64.04 20.5098 64.06 20.4498C64.06 20.4398 64.06 20.4298 64.06 20.4198C64.09 20.2898 64.12 20.1498 64.16 20.0098C64.16 19.9898 64.16 19.9798 64.17 19.9598C64.18 19.8998 64.2 19.8398 64.22 19.7798C64.22 19.7598 64.22 19.7498 64.23 19.7298C64.25 19.6598 64.27 19.5798 64.29 19.5098C64.29 19.4998 64.29 19.4898 64.3 19.4698C64.32 19.4098 64.34 19.3398 64.36 19.2798C64.36 19.2598 64.37 19.2398 64.38 19.2198C64.4 19.1598 64.42 19.0898 64.44 19.0298C64.44 19.0198 64.44 18.9998 64.45 18.9898C64.48 18.9098 64.5 18.8398 64.53 18.7598C64.53 18.7398 64.55 18.7198 64.55 18.6998C64.57 18.6398 64.59 18.5798 64.62 18.5198C64.62 18.4998 64.64 18.4798 64.65 18.4498C64.68 18.3698 64.71 18.2998 64.74 18.2198C64.74 18.2198 64.74 18.1998 64.75 18.1898C64.78 18.1198 64.81 18.0598 64.84 17.9898C64.85 17.9698 64.86 17.9498 64.87 17.9198C64.9 17.8598 64.93 17.7998 64.96 17.7398C64.96 17.7198 64.98 17.7098 64.98 17.6898C65.02 17.6198 65.06 17.5498 65.09 17.4798C65.1 17.4598 65.11 17.4498 65.12 17.4298C65.15 17.3798 65.18 17.3198 65.22 17.2698C65.23 17.2498 65.24 17.2298 65.26 17.2098C65.3 17.1398 65.35 17.0798 65.39 17.0098L65.57 16.7598L65.55 16.7198C66.26 15.6098 66.67 14.5998 66.01 13.8698C65.24 13.0098 61.11 11.7698 58.67 11.4098C58.61 11.3798 58.55 11.3598 58.49 11.3298C58.56 11.2998 58.63 11.2798 58.71 11.2498C58.74 11.2398 58.77 11.2298 58.81 11.2198C58.86 11.1998 58.9 11.1898 58.95 11.1698C58.99 11.1598 59.03 11.1398 59.07 11.1298C59.11 11.1198 59.16 11.0998 59.2 11.0898C59.25 11.0698 59.3 11.0598 59.35 11.0398C59.39 11.0298 59.43 11.0098 59.47 10.9998C59.53 10.9798 59.59 10.9598 59.64 10.9398C59.68 10.9298 59.71 10.9198 59.75 10.9098C59.81 10.8898 59.88 10.8698 59.94 10.8498C59.97 10.8398 60.01 10.8298 60.05 10.8198C60.12 10.7998 60.19 10.7798 60.27 10.7598C60.3 10.7598 60.33 10.7398 60.37 10.7298C60.45 10.7098 60.53 10.6898 60.61 10.6598C60.64 10.6598 60.67 10.6398 60.7 10.6398C60.79 10.6198 60.87 10.5998 60.96 10.5698C60.99 10.5698 61.01 10.5598 61.04 10.5498C61.13 10.5298 61.23 10.4998 61.32 10.4798C61.34 10.4798 61.37 10.4698 61.39 10.4598C61.49 10.4398 61.59 10.4098 61.7 10.3898C61.72 10.3898 61.73 10.3898 61.75 10.3798C61.86 10.3598 61.97 10.3298 62.09 10.3098C62.1 10.3098 62.11 10.3098 62.12 10.3098C62.24 10.2898 62.36 10.2598 62.49 10.2398C64.42 9.86977 66.75 9.65977 69.27 9.93976C69.68 9.98977 70.1 10.0498 70.52 10.1198C70.69 10.1498 70.87 10.1798 71.05 10.2198C71.12 10.2298 71.19 10.2498 71.26 10.2698C71.32 10.2798 71.38 10.2998 71.43 10.3098C71.48 10.3198 71.52 10.3298 71.57 10.3398C71.46 10.3998 71.36 10.4598 71.26 10.5098C70.23 11.0898 69.33 11.8298 68.79 12.7798C69.47 12.0698 70.35 11.5998 71.26 11.2298C71.62 11.0798 71.99 10.9498 72.36 10.8198C73.59 10.4098 75 10.1298 76.28 9.85977C76.31 9.85977 76.35 9.84977 76.39 9.83977C76.52 9.81977 76.64 9.79977 76.77 9.78977C76.83 9.78977 76.89 9.76977 76.95 9.76977C77.14 9.74977 77.34 9.71977 77.54 9.69977C77.54 9.69977 77.55 9.69977 77.56 9.69977C77.64 9.69977 77.72 9.67977 77.81 9.66977C77.94 9.65977 78.07 9.63977 78.21 9.62977C78.24 9.62977 78.26 9.62977 78.29 9.62977C78.51 9.60977 78.73 9.58977 78.95 9.56977C78.97 9.56977 78.99 9.56977 79 9.56977C79.22 9.54976 79.45 9.53977 79.68 9.52977C79.7 9.52977 79.71 9.52977 79.73 9.52977C79.96 9.51976 80.19 9.50977 80.43 9.49977C80.47 9.49977 80.52 9.49977 80.56 9.49977C80.79 9.49977 81.03 9.48977 81.26 9.48977H81.38C81.63 9.48977 81.88 9.48977 82.14 9.48977C82.39 9.48977 82.64 9.49977 82.9 9.50977C83.06 9.50977 83.23 9.52977 83.4 9.53977C83.5 9.53977 83.59 9.53977 83.69 9.55977C83.91 9.56977 84.14 9.58976 84.37 9.60977C84.42 9.60977 84.46 9.60977 84.51 9.61977C84.88 9.64977 85.26 9.68976 85.65 9.73977C87.79 9.98977 90.07 10.4398 92.19 11.1498C93.36 11.5398 94.48 12.0098 95.49 12.5598C95.5 12.5598 95.51 12.5698 95.52 12.5798C95.03 12.4698 93.9 12.2298 92.19 12.0298C91.18 11.9098 89.96 11.7998 88.54 11.7398L89.45 11.4398C89.45 11.4398 87.84 10.8698 85.65 10.6398C84.79 10.5498 83.84 10.5098 82.86 10.5798L83.77 11.7098C82.96 11.7398 82.11 11.7798 81.23 11.8398C80.07 11.9198 78.92 12.1598 77.82 12.5398C77.32 12.7098 76.83 12.8998 76.35 13.1198C76.1 12.2798 75.61 11.5098 74.96 10.9598C75.31 11.7798 75.5 12.6498 75.53 13.5198C75.26 12.8098 74.82 12.1698 74.25 11.6798C74.56 12.3998 74.74 13.1598 74.8 13.9298C74.8 13.9298 74.79 13.9298 74.78 13.9398C74.56 13.0198 74.04 12.1598 73.33 11.5498C73.73 12.4898 73.93 13.4898 73.9 14.4898C73.63 14.6698 73.36 14.8598 73.1 15.0598C72.83 14.5098 72.45 14.0198 72 13.6298C72.26 14.2398 72.43 14.8798 72.52 15.5298C72.09 15.8898 71.68 16.2798 71.28 16.6698C70.21 17.7598 69.29 18.9698 68.59 20.2698C66.68 23.7798 66.04 28.1198 67.08 31.7698C67.08 31.7698 64.44 29.0798 64.32 23.3398C63.49 23.7598 60.21 25.6798 57.47 31.2298L57.54 31.2198Z" fill="white"/>
</g>
<defs>
<clipPath id="clip0_8843_294">
<rect width="160" height="80" fill="white"/>
</clipPath>
</defs>
</svg>
