<svg width="100" height="100" viewBox="0 0 100 100" fill="none" xmlns="http://www.w3.org/2000/svg">
<g clip-path="url(#clip0_8942_46)">
<path d="M58.9502 22.3201H60.5102C59.5402 22.2701 58.9502 22.3201 58.9502 22.3201Z" fill="white"/>
<path d="M98.5601 28.3603C96.3701 25.6303 95.4601 22.3203 83.7201 22.3203H60.5201C63.6201 22.4703 70.5301 23.5803 73.7801 30.2703L73.7501 30.1203H87.2701C87.2701 30.1203 92.3901 30.6703 91.8501 34.6303C91.4401 36.6103 91.0301 39.2103 85.8401 39.6803C78.2601 39.7503 75.6001 39.6803 75.6001 39.6803L75.5301 39.3403C75.5301 39.4403 75.5301 39.5503 75.5301 39.6503C75.0501 42.5103 75.2701 43.9103 73.7001 47.6703H85.2201C85.2201 47.6703 90.0701 47.9403 89.3201 51.8403C88.9101 53.6803 88.7101 57.1703 80.1001 57.3703H67.6101C65.1401 60.2803 61.82 63.17 57.5 65C75.53 65.27 82.3501 64.9703 82.3501 64.9703C82.3501 64.9703 93.4601 64.5103 96.7401 54.8603C97.3801 51.8603 98.2001 47.4603 94.7401 43.6903C96.8301 41.8403 102.66 36.1903 98.5601 28.3603Z" fill="white"/>
<path d="M73.5499 30.18H86.7499C86.7499 30.18 91.9499 30.47 91.8799 33.82C100.21 34.23 99.9899 34.21 99.9899 34.21C99.9899 34.21 100.44 29.74 96.7299 26.01C93.2199 23.41 94.4499 22.29 80.9999 22.29H60.9998L64.4099 25.33L69.3299 28.81L73.5599 30.18H73.5499Z" fill="white"/>
<path d="M20.35 22.2002H37.24L26.72 63.2102L25.49 66.6702L23.85 69.4902C23.85 69.4902 17.75 77.8002 8.87 77.3102C6.01 77.3202 2.32 77.1002 0 75.3202L5.55 68.0402C5.55 68.0402 12.15 70.5002 14.97 67.2202C17.29 64.1702 17.38 64.1202 18.25 60.8902C19.12 57.6602 26.45 30.0702 26.45 30.0702L20.35 22.2002Z" fill="white"/>
<path d="M53.1399 29.7803L45.8299 57.2403L43.7799 64.6803H35.3799L44.5399 29.7803H53.1399Z" fill="white"/>
<path d="M38.66 22.2002L44.53 29.9302H59.6C59.6 29.9302 68.96 29.7502 69.71 36.6502C69.85 38.4302 70.53 50.7902 58.24 55.6402C55.03 56.7302 52.71 57.7602 45.81 57.1402L37.48 56.5902L35.23 64.8502L57.5 65C57.5 65 66 61.7802 69.77 57.2002C73.13 52.8302 77.02 49.0002 77.64 38.4902C77.64 36.0302 77.16 22.5802 61.52 22.2002H38.66Z" fill="white"/>
</g>
<defs>
<clipPath id="clip0_8942_46">
<rect width="100" height="100" fill="white"/>
</clipPath>
</defs>
</svg>
