<svg width="100" height="100" viewBox="0 0 100 100" fill="none" xmlns="http://www.w3.org/2000/svg">
<path d="M49.1292 28.7164C49.5023 26.7264 49.8755 24.6119 50.2486 22.6219C50.373 22.1244 50.4973 22 50.9949 22C51.1192 22 51.2436 22 51.368 22C67.164 22 82.96 22 98.8804 22C99.2536 22 99.6267 22 99.9998 22C99.7511 23.7413 99.3779 25.4826 99.1292 27.0995C97.6367 35.9304 96.0197 44.7612 94.5272 53.5921C93.5322 59.3134 92.4128 65.0348 91.5421 70.7562C91.4177 71.6269 91.0446 71.6269 90.2983 71.6269C82.2138 71.6269 74.2536 71.6269 66.169 71.6269C61.4426 71.6269 56.7163 71.6269 52.1143 71.6269C51.7411 71.6269 51.368 71.6269 51.1192 71.7512C50.7461 71.7512 50.4973 71.6269 50.1242 71.6269C47.6367 71.6269 45.0247 71.6269 42.5371 71.6269C42.2884 71.6269 41.9153 71.5025 41.6665 71.5025C42.4128 67.6468 43.0347 63.791 43.7809 59.9353C43.9053 59.1891 44.0297 58.5672 44.1541 57.8209C45.6466 48.1194 47.3879 38.4179 49.1292 28.7164ZM89.1789 40.6567C88.557 37.4229 87.0645 34.811 84.8257 32.6965C80.8456 29.0896 76.1192 28.2189 71.0197 29.0896C61.9401 30.7065 54.6018 37.796 52.8605 46.8756C51.9899 51.2289 52.6118 55.4577 55.2237 59.0647C59.2038 64.5373 64.6765 65.9055 71.1441 64.9104C75.6217 64.1642 79.3531 62.0498 82.5869 59.0647C85.9451 56.0796 87.9352 52.4727 87.8108 47.7463C82.3381 47.7463 76.8655 47.7463 71.2685 47.7463C70.8954 49.612 70.6466 51.4776 70.2735 53.3433C73.7561 53.3433 77.1143 53.3433 80.5968 53.3433C80.4725 53.5921 80.3481 53.7164 80.2237 53.8408C77.2386 57.199 73.6317 59.1891 69.1541 59.3134C62.4376 59.5622 57.5869 54.3383 58.4575 47.6219C59.2038 41.403 62.9352 37.2985 68.6565 35.0597C74.3779 32.9453 80.4725 34.8109 82.8357 40.0348C82.96 40.1592 83.2088 40.408 83.4575 40.408C85.1988 40.6567 87.0645 40.6567 89.1789 40.6567Z" fill="white"/>
<path d="M49.1294 28.7161C47.3881 38.4176 45.7711 48.1191 44.0298 57.8206C43.9055 58.5669 43.7811 59.1888 43.6567 59.935C43.5323 59.8107 43.408 59.5619 43.408 59.4375C40.1741 51.353 36.9403 43.2684 33.7065 35.0594C33.4577 34.4375 33.209 33.94 32.9602 33.1937C23.3831 46.0047 13.806 58.6913 4.10448 71.6266C6.21891 71.6266 8.08458 71.6266 9.95025 71.6266C10.5721 71.6266 10.8209 71.3778 11.194 71.0047C13.806 67.5221 16.2935 64.1639 18.9055 60.6813C19.2786 60.1838 19.6517 60.0594 20.1493 60.0594C25.3731 60.0594 30.597 60.0594 35.8209 60.0594C36.8159 60.0594 37.1891 60.4325 37.4378 61.1788C38.6816 64.6614 40.1741 68.0196 41.4179 71.5022C41.6667 71.5022 42.0398 71.6266 42.2886 71.6266C44.7761 71.6266 47.3881 71.6266 49.8756 71.6266C50.2488 71.6266 50.4975 71.6266 50.8706 71.751C50.4975 73.9898 50.1244 76.1042 49.7512 78.343C33.209 78.343 16.6667 78.343 0 78.343C0.373134 76.3529 0.621891 74.4873 0.995025 72.6216C2.36318 64.7858 3.73134 56.95 5.0995 49.1141C6.21891 42.5221 7.46269 35.9301 8.58209 29.2136C8.70647 28.7161 8.83085 28.4674 9.32836 28.5918H9.45274C22.7612 28.7161 35.9453 28.7161 49.1294 28.7161Z" fill="white"/>
<path d="M34.7015 54.2142C30.9701 54.2142 27.3632 54.2142 23.6318 54.2142C25.995 50.9804 28.3582 47.8709 30.8458 44.5127C32.2139 47.8709 33.4577 50.9804 34.7015 54.2142Z" fill="white"/>
</svg>
