<svg width="100" height="100" viewBox="0 0 100 100" fill="none" xmlns="http://www.w3.org/2000/svg">
<path d="M78.0799 60.63C78.0799 60.63 69.1199 46.95 68.2399 46.84L68.3899 45.78L81.9299 33.09L86.5799 0.02L30.2299 0L25.1199 36.35H14.1899L13.4199 41.81H24.3499L16.1799 100H72.5599L74.2499 87.99H79.7099L80.4799 82.53H75.0199L78.0999 60.64H78.0799V60.63ZM37.6899 36.35H48.6299L51.9799 12.52L63.3199 12.54L59.2099 41.81H36.9299L37.6999 36.35H37.6899ZM58.1899 87.97L41.3799 87.99L45.7999 56.52L57.1399 56.5L53.4899 82.5H58.9499L58.1799 87.96L58.1899 87.97Z" fill="white"/>
</svg>
