<svg width="160" height="80" viewBox="0 0 160 80" fill="none" xmlns="http://www.w3.org/2000/svg">
<path d="M156.46 5.32031H3.53999C2.13166 5.32031 0.98999 6.46199 0.98999 7.87031V72.1403C0.98999 73.5486 2.13166 74.6903 3.53999 74.6903H156.46C157.868 74.6903 159.01 73.5486 159.01 72.1403V7.87031C159.01 6.46199 157.868 5.32031 156.46 5.32031Z" fill="#15181A" stroke="white" stroke-width="0.4"/>
<path d="M55.8601 59.9498V27.2998H56.1301C58.4401 27.2998 60.7401 27.2998 63.0501 27.2998C63.2601 27.2998 63.3401 27.3898 63.4101 27.6298C64.7801 32.2898 66.1601 36.9398 67.5401 41.5898C67.5701 41.6898 67.6101 41.7898 67.6801 41.8798V27.3298H74.1301V59.9698H73.8301C71.6201 59.9698 69.4201 59.9698 67.2101 59.9698C66.9601 59.9698 66.8601 59.8798 66.7701 59.5798C65.3401 54.5298 63.8901 49.4798 62.4501 44.4298C62.4201 44.3298 62.3901 44.2398 62.3201 44.1498V59.9298H55.8601V59.9498Z" fill="white"/>
<path d="M139.97 43.7296V59.2996H133.6V27.0996H133.87C136.14 27.0996 138.42 27.0996 140.69 27.0996C140.91 27.0996 140.99 27.1896 141.07 27.4396C142.42 32.0196 143.79 36.5996 145.15 41.1796C145.18 41.2796 145.22 41.3896 145.29 41.4796V27.1296H151.67V59.2896H144.5C143.01 54.1096 141.52 48.9096 140.04 43.7196H139.97V43.7296Z" fill="white"/>
<path d="M104.16 53.8896V39.2296H102.09V53.8896H94.8899V21.1396H102.07V35.4496H104.14V21.1396H111.4V53.8896H104.15H104.16Z" fill="white"/>
<path d="M115.41 43.0301C115.41 40.1501 115.42 37.2801 115.41 34.4001C115.39 31.7101 116.37 29.8001 118.21 28.5401C119.28 27.8101 120.44 27.4401 121.63 27.2301C123.34 26.9301 125.04 26.9401 126.75 27.2901C128.36 27.6301 129.89 28.2301 131.12 29.6701C132.14 30.8501 132.65 32.3301 132.65 34.0601C132.66 39.5101 132.65 44.9501 132.65 50.4001C132.65 51.8001 132.58 53.1901 132.3 54.5601C131.77 57.1601 130.47 58.8101 128.44 59.5701C126.65 60.2401 124.81 60.3101 122.95 60.2201C121.85 60.1601 120.76 59.9901 119.69 59.6001C117.35 58.7501 116.02 56.7801 115.63 53.8001C115.49 52.6901 115.43 51.5601 115.41 50.4401C115.38 47.9701 115.41 45.5001 115.41 43.0301ZM125.19 43.4701C125.19 40.6101 125.19 37.7401 125.19 34.8801C125.19 34.2301 125.14 33.3801 125.04 32.7501C124.94 32.1201 124.58 32.0401 124.01 32.0501C123.41 32.0601 123.09 32.1401 123 32.8101C122.92 33.4201 122.89 34.2301 122.89 34.8501C122.89 40.4201 122.89 45.9901 122.89 51.5601C122.89 51.9401 122.87 52.3301 122.91 52.7101C122.96 53.2801 123.01 54.1101 123.12 54.6601C123.21 55.1301 123.47 55.1801 123.87 55.2601C124.46 55.3701 124.91 55.2601 125.03 54.4001C125.14 53.6401 125.19 52.6001 125.19 51.8301C125.21 49.0501 125.19 46.2601 125.19 43.4701Z" fill="white"/>
<path d="M8.56009 42.41H15.4101V42.79C15.4101 44.49 15.4101 46.2 15.4101 47.9C15.4101 48.31 15.4401 48.74 15.5201 49.14C15.5701 49.38 15.6901 49.64 15.8401 49.79C16.6901 50.64 17.9601 49.94 18.0401 48.55C18.1101 47.46 18.0801 46.35 18.0401 45.25C18.0201 44.48 17.7301 43.8 17.3001 43.31C16.6301 42.53 15.9401 41.77 15.2101 41.09C14.0101 39.99 12.7701 38.98 11.5601 37.89C11.0701 37.45 10.6201 36.95 10.1701 36.43C9.14009 35.23 8.53009 33.72 8.44009 31.88C8.36009 30.22 8.38009 28.57 8.65009 26.93C9.10009 24.24 10.3901 22.61 12.3301 21.83C13.3701 21.41 14.4301 21.23 15.5001 21.17C17.2801 21.07 19.0501 21.12 20.8001 21.69C21.6201 21.96 22.4001 22.38 23.0701 23.09C24.0401 24.12 24.5201 25.53 24.6101 27.12C24.7101 28.83 24.7001 30.54 24.7401 32.28H17.8601C17.8601 32.14 17.8501 32.02 17.8501 31.9C17.8501 30.67 17.8501 29.44 17.8501 28.21C17.8501 27.85 17.8301 27.49 17.7801 27.14C17.7201 26.71 17.5201 26.4 17.1901 26.32C16.3401 26.11 15.7201 26.41 15.5401 27.62C15.2201 29.76 15.4801 31.67 16.9201 33.01C17.3101 33.37 17.7001 33.74 18.1001 34.08C19.2501 35.06 20.4201 35.99 21.5401 37.01C22.6901 38.05 23.7401 39.28 24.4901 40.88C25.0501 42.08 25.3401 43.38 25.3201 44.8C25.3101 45.96 25.2901 47.12 25.2801 48.28C25.2501 50.85 24.3401 52.67 22.6501 53.84C21.5301 54.62 20.3101 54.97 19.0601 55.15C17.3101 55.4 15.5601 55.35 13.8201 55.02C13.0001 54.86 12.2101 54.6 11.4501 54.15C9.96009 53.27 9.08009 51.73 8.80009 49.61C8.64009 48.39 8.59009 47.15 8.55009 45.91C8.51009 44.86 8.54009 43.8 8.54009 42.75C8.54009 42.65 8.54009 42.55 8.55009 42.41H8.56009Z" fill="white"/>
<path d="M33.4299 41.5597V54.3596H26.1499V21.1396H26.4099C29.0199 21.1396 31.6299 21.1396 34.2299 21.1396C35.6799 21.1396 37.1199 21.2196 38.5399 21.6196C39.2399 21.8096 39.9199 22.0996 40.5299 22.6296C41.5699 23.5296 42.0199 24.8996 42.1899 26.4696C42.2899 27.3996 42.3499 28.3396 42.3599 29.2796C42.3799 31.1496 42.3899 33.0196 42.3399 34.8896C42.3199 35.7496 42.2199 36.6297 42.0699 37.4697C41.7299 39.3897 40.7499 40.4596 39.3599 40.9396C38.1899 41.3396 36.9999 41.4397 35.7999 41.4897C35.0899 41.5197 34.3699 41.5196 33.6599 41.5396C33.5799 41.5396 33.5099 41.5497 33.4099 41.5597H33.4299ZM33.4399 36.2696C33.7899 36.1896 34.1299 36.1296 34.4599 36.0296C35.3599 35.7596 35.7099 35.2796 35.7399 34.0296C35.7899 32.2196 35.7799 30.4096 35.7899 28.5996C35.7899 28.4196 35.7699 28.2296 35.7399 28.0496C35.6699 27.5496 35.5399 27.0796 35.1899 26.8096C34.6399 26.3896 34.0499 26.4096 33.4399 26.4196V36.2696Z" fill="white"/>
<path d="M89.89 53.96H82.61V25.4H78.45V21.21H94.08V25.37H89.88V53.96H89.89Z" fill="white"/>
<path d="M55.1099 60.0497H47.3999V27.4297H55.1099V60.0497Z" fill="white"/>
<path d="M5.6001 14.8803C5.6001 14.5703 5.8501 14.3203 6.1601 14.3203V69.2003H5.6001V14.8803Z" fill="url(#paint0_linear_7938_22)"/>
<path d="M5.03003 11.3403C5.03003 11.0303 5.28003 10.7803 5.59003 10.7803V65.6603H5.03003V11.3403Z" fill="url(#paint1_linear_7938_22)"/>
<path d="M44.5701 14.8803C44.5701 14.5703 44.8201 14.3203 45.1301 14.3203V69.2003H44.5701V14.8803Z" fill="url(#paint2_linear_7938_22)"/>
<path d="M44 11.3403C44 11.0303 44.25 10.7803 44.56 10.7803V65.6603H44V11.3403Z" fill="url(#paint3_linear_7938_22)"/>
<path d="M76.5701 14.8803C76.5701 14.5703 76.8201 14.3203 77.1301 14.3203V69.2003H76.5701V14.8803Z" fill="url(#paint4_linear_7938_22)"/>
<path d="M76 11.3403C76 11.0303 76.25 10.7803 76.56 10.7803V65.6603H76V11.3403Z" fill="url(#paint5_linear_7938_22)"/>
<path d="M113.57 14.8803C113.57 14.5703 113.82 14.3203 114.13 14.3203V69.2003H113.57V14.8803Z" fill="url(#paint6_linear_7938_22)"/>
<path d="M113 11.3403C113 11.0303 113.25 10.7803 113.56 10.7803V65.6603H113V11.3403Z" fill="url(#paint7_linear_7938_22)"/>
<path d="M154.57 14.8803C154.57 14.5703 154.82 14.3203 155.13 14.3203V69.2003H154.57V14.8803Z" fill="url(#paint8_linear_7938_22)"/>
<path d="M154 11.3403C154 11.0303 154.25 10.7803 154.56 10.7803V65.6603H154V11.3403Z" fill="url(#paint9_linear_7938_22)"/>
<defs>
<linearGradient id="paint0_linear_7938_22" x1="5.8801" y1="14.3203" x2="5.8801" y2="69.2003" gradientUnits="userSpaceOnUse">
<stop stop-color="white" stop-opacity="0"/>
<stop offset="0.48" stop-color="white"/>
<stop offset="1" stop-color="white" stop-opacity="0"/>
</linearGradient>
<linearGradient id="paint1_linear_7938_22" x1="5.32003" y1="10.7803" x2="5.32003" y2="65.6603" gradientUnits="userSpaceOnUse">
<stop stop-color="white" stop-opacity="0"/>
<stop offset="0.48" stop-color="white" stop-opacity="0.7"/>
<stop offset="1" stop-color="white" stop-opacity="0"/>
</linearGradient>
<linearGradient id="paint2_linear_7938_22" x1="44.8501" y1="14.3203" x2="44.8501" y2="69.2003" gradientUnits="userSpaceOnUse">
<stop stop-color="white" stop-opacity="0"/>
<stop offset="0.48" stop-color="white"/>
<stop offset="1" stop-color="white" stop-opacity="0"/>
</linearGradient>
<linearGradient id="paint3_linear_7938_22" x1="44.29" y1="10.7803" x2="44.29" y2="65.6603" gradientUnits="userSpaceOnUse">
<stop stop-color="white" stop-opacity="0"/>
<stop offset="0.48" stop-color="white" stop-opacity="0.7"/>
<stop offset="1" stop-color="white" stop-opacity="0"/>
</linearGradient>
<linearGradient id="paint4_linear_7938_22" x1="76.8501" y1="14.3203" x2="76.8501" y2="69.2003" gradientUnits="userSpaceOnUse">
<stop stop-color="white" stop-opacity="0"/>
<stop offset="0.48" stop-color="white"/>
<stop offset="1" stop-color="white" stop-opacity="0"/>
</linearGradient>
<linearGradient id="paint5_linear_7938_22" x1="76.29" y1="10.7803" x2="76.29" y2="65.6603" gradientUnits="userSpaceOnUse">
<stop stop-color="white" stop-opacity="0"/>
<stop offset="0.48" stop-color="white" stop-opacity="0.7"/>
<stop offset="1" stop-color="white" stop-opacity="0"/>
</linearGradient>
<linearGradient id="paint6_linear_7938_22" x1="113.85" y1="14.3203" x2="113.85" y2="69.2003" gradientUnits="userSpaceOnUse">
<stop stop-color="white" stop-opacity="0"/>
<stop offset="0.48" stop-color="white"/>
<stop offset="1" stop-color="white" stop-opacity="0"/>
</linearGradient>
<linearGradient id="paint7_linear_7938_22" x1="113.29" y1="10.7803" x2="113.29" y2="65.6603" gradientUnits="userSpaceOnUse">
<stop stop-color="white" stop-opacity="0"/>
<stop offset="0.48" stop-color="white" stop-opacity="0.7"/>
<stop offset="1" stop-color="white" stop-opacity="0"/>
</linearGradient>
<linearGradient id="paint8_linear_7938_22" x1="154.85" y1="14.3203" x2="154.85" y2="69.2003" gradientUnits="userSpaceOnUse">
<stop stop-color="white" stop-opacity="0"/>
<stop offset="0.48" stop-color="white"/>
<stop offset="1" stop-color="white" stop-opacity="0"/>
</linearGradient>
<linearGradient id="paint9_linear_7938_22" x1="154.29" y1="10.7803" x2="154.29" y2="65.6603" gradientUnits="userSpaceOnUse">
<stop stop-color="white" stop-opacity="0"/>
<stop offset="0.48" stop-color="white" stop-opacity="0.7"/>
<stop offset="1" stop-color="white" stop-opacity="0"/>
</linearGradient>
</defs>
</svg>
