<svg width="100" height="100" viewBox="0 0 100 100" fill="none" xmlns="http://www.w3.org/2000/svg">
<path d="M2.36503 49.7232C2.66825 48.5103 3.09275 47.358 3.82048 46.3271C5.45788 43.8407 7.76235 42.5672 10.6733 42.2639C11.2191 42.2033 11.7649 42.3246 12.1894 42.5672C12.6139 42.8097 12.6745 42.6278 12.6745 42.2639C12.7352 40.9298 12.6745 39.6562 12.4926 38.3827C12.3713 37.4124 12.1894 36.4421 11.8862 35.4718C11.3404 33.7131 10.0062 32.8035 8.36879 32.197C7.03462 31.7119 5.70045 31.8938 4.36628 32.0757C3.27469 32.2577 2.18309 32.4396 1.0915 32.6822C0.909567 32.7428 0.66699 32.7428 0.36377 32.7428C1.75858 31.5299 3.21404 30.6203 4.73015 29.8925C6.54947 29.0435 8.42944 28.4977 10.4913 28.8009C13.2203 29.2254 14.7364 30.5596 15.3429 33.046C15.6461 34.3196 15.7674 35.5931 15.7674 36.9273C15.828 39.1104 16.0706 41.2936 16.9803 43.2949C17.5867 44.7503 18.557 45.9026 19.7699 46.8729C20.255 47.2368 20.4976 47.54 20.3157 48.2071C20.1338 49.1167 20.1944 50.087 20.1944 51.0573C20.1944 51.7851 20.1944 51.7851 19.5273 51.4818C18.3144 50.9967 17.4048 50.1477 16.4951 49.2987C15.2216 48.0858 13.9481 46.9335 12.3107 46.1452C10.0062 44.9929 7.76235 45.3568 5.70045 46.7516C4.48757 47.6613 3.39598 48.6316 2.36503 49.7232Z" fill="white"/>
<path d="M0.121288 67.0068C0.545797 64.0353 1.39481 61.185 3.63865 59.0018C4.97282 57.6676 6.67085 56.9399 8.61147 57.2431C10.0063 57.425 11.1585 58.2134 12.3108 59.0624C13.7662 60.154 15.0397 61.4276 16.4952 62.4585C18.8603 64.0959 21.4074 64.8843 24.2576 64.3991C24.5609 64.3385 24.6822 64.4598 24.8034 64.6417C25.4705 65.612 26.3195 66.5217 27.1686 67.3707C27.6537 67.9165 26.9866 67.9165 26.8047 67.9771C25.7131 68.4016 24.5609 68.4623 23.4086 68.5229C21.8925 68.5229 20.3764 68.6442 18.921 69.0081C16.6165 69.6145 15.1004 71.0093 14.312 73.2532C13.7662 74.8299 13.7662 76.4673 13.8269 78.1047C13.8269 78.2866 13.8269 78.4686 13.8269 78.6505C12.9172 77.8015 11.7043 74.4054 12.1288 72.2829C12.614 69.9177 13.4024 67.7345 15.9494 66.7036C15.343 65.9152 14.6152 65.3088 13.8269 64.7023C12.7353 63.7927 11.583 63.0043 10.3701 62.3372C8.73275 61.4276 7.09536 61.5488 5.45797 62.2766C4.06316 62.883 3.09285 64.0353 2.24383 65.2481C1.57675 66.1578 0.909662 67.1281 0.303221 68.0378C0.0606441 68.159 0 68.0378 0 67.8558C0.0606441 67.5526 0 67.2494 0.121288 67.0068Z" fill="white"/>
<path d="M15.7068 21.3417C19.1029 19.4011 22.5596 19.0979 26.0163 21.2204C26.8653 21.7662 27.4717 22.4939 27.8356 23.4036C27.9569 23.7068 28.0782 23.7675 28.3208 23.5249C30.3827 21.6449 32.3839 19.6437 33.3542 16.9147C33.7787 15.7018 33.3542 14.6102 32.9297 13.5186C32.3233 12.0025 31.1104 11.0928 29.8975 10.1832C28.9272 9.5161 27.9569 8.78837 26.9866 8C27.5324 8.06064 28.0782 8.12129 28.624 8.24258C31.2317 8.72773 33.7787 9.57675 35.78 11.3961C37.2354 12.7909 38.0845 14.4889 37.8419 16.4902C37.66 17.885 36.8716 18.9766 36.0226 20.0075C34.9916 21.3417 33.6574 22.4333 32.5659 23.7675C30.7465 25.9507 29.5943 28.4371 29.7762 31.348C29.7762 31.5906 29.7156 31.7725 29.473 31.9544C28.5027 32.7428 27.5324 33.5312 26.6834 34.4408C26.3195 34.8047 26.2589 34.6228 26.1376 34.2589C25.7737 33.046 25.8344 31.8331 25.7737 30.6203C25.7131 28.7403 25.7131 26.921 24.9853 25.1623C24.1363 23.161 22.5596 22.1301 20.619 21.5843C18.9816 21.2811 17.3442 21.1598 15.7068 21.3417Z" fill="white"/>
<path d="M44.4521 10.7292C47.9694 11.5176 50.4559 13.4582 51.7294 16.7936C52.1539 18.0065 52.2752 19.2194 51.7294 20.4323C51.5474 20.7962 51.6687 20.8568 52.0326 20.8568C54.6403 20.7962 57.248 20.7355 59.7344 19.7046C61.1899 19.0981 61.857 17.9459 62.4027 16.5511C62.8879 15.3382 62.7666 14.0647 62.5847 12.7911C62.4027 11.457 62.0995 10.0621 61.857 8.60669C63.4943 10.2441 64.5859 12.124 65.3743 14.2466C65.9807 16.0053 66.1627 17.7033 65.6775 19.5226C65.0104 21.8271 63.3731 22.9187 61.1899 23.4039C59.5525 23.7677 57.8544 23.7677 56.1564 23.889C53.0636 24.1316 50.2133 24.92 47.9694 27.2851C47.7875 27.5277 47.5449 27.5883 47.2417 27.5277C46.0288 27.2244 44.816 27.2851 43.6031 27.2851C43.4211 27.2851 43.1786 27.3457 43.1179 27.1638C43.0573 26.9819 43.2392 26.8606 43.2999 26.6786C44.2095 25.2838 45.5437 24.2529 46.5746 22.9187C47.4236 21.8271 48.2727 20.7355 48.6972 19.4013C49.3036 17.4001 48.6972 15.7021 47.6056 14.004C46.8779 12.8518 45.9075 12.0028 44.8766 11.0931C44.6947 11.0325 44.5127 10.9718 44.4521 10.7292Z" fill="white"/>
<path d="M42.087 90.5366C41.1167 90.4153 40.4496 89.9908 39.7219 89.6876C37.2355 88.596 35.6587 86.716 34.8704 84.169C34.5065 83.0167 34.3852 81.8645 34.931 80.7122C35.0523 80.409 34.9917 80.2877 34.6278 80.2271C32.9298 80.1664 31.2317 80.2877 29.5943 80.5303C28.5027 80.7122 27.4718 80.9548 26.5015 81.5006C25.228 82.2283 24.6215 83.4412 24.197 84.7148C23.7725 85.9276 23.8938 87.1405 24.0757 88.3534C24.2576 89.5056 24.3789 90.7185 24.6822 91.8708C24.6822 91.9921 24.6822 92.1133 24.6822 92.3559C23.6512 91.0824 22.8022 89.8695 22.1351 88.5353C21.3467 86.8979 20.6796 85.1393 20.8009 83.2593C21.0435 80.0452 22.7415 77.9833 26.0163 77.4981C27.775 77.1949 29.5943 77.3768 31.4137 77.1949C34.2639 76.8917 36.9323 76.1033 38.8729 73.8595C38.9942 73.6775 39.1761 73.6169 39.4187 73.6775C40.7529 73.9807 42.087 74.102 43.4212 74.102C43.7851 74.102 43.9063 74.1627 43.6638 74.5265C42.9967 75.5575 42.087 76.4065 41.238 77.2555C40.1464 78.3471 39.1155 79.56 38.509 80.9548C37.5387 83.0774 37.8419 85.1393 39.1155 87.0799C39.7825 88.3534 40.8741 89.3844 42.087 90.5366Z" fill="white"/>
<path d="M1.94067 57.7282C2.36518 55.3024 3.33549 53.0586 5.15481 51.3605C5.76125 50.8147 6.42834 50.3296 7.21671 50.1477C9.46055 49.6019 11.6437 49.7231 13.5843 51.2999C15.4643 52.816 17.3443 54.3927 19.4062 55.6663C19.5275 55.7269 19.6488 55.9088 19.8307 55.9088C20.8616 56.1514 21.1649 56.9398 21.4074 57.8495C21.65 58.8804 22.0745 59.9114 22.6203 60.8817C22.8629 61.3668 22.7416 61.4275 22.2565 61.4275C20.3765 61.4881 18.7997 60.821 17.2836 59.7901C15.4037 58.5165 13.7056 56.9398 11.765 55.6663C10.9766 55.1205 10.1276 54.6353 9.21797 54.3321C6.97414 53.6044 4.42708 54.514 2.91098 56.5153C2.54711 56.8792 2.24389 57.3037 1.94067 57.7282Z" fill="white"/>
<path d="M9.46045 26.557C11.4011 25.4047 13.5236 24.5557 15.7674 24.4344C19.1635 24.2525 22.0138 27.3453 22.1957 29.953C22.3776 32.6214 22.4989 35.2897 23.166 37.8974C23.348 38.7464 23.166 39.2922 22.8022 39.9593C22.1957 40.9903 21.7712 42.1425 21.4073 43.2947C21.2861 43.6586 21.2254 43.7799 20.8615 43.4767C19.6487 42.3244 19.1029 40.869 18.739 39.2922C18.2538 37.109 18.2538 34.8652 17.89 32.7427C17.708 31.4691 17.5261 30.1956 16.859 29.104C15.8887 27.406 14.312 26.557 12.3714 26.375C11.4011 26.3144 10.4308 26.2537 9.46045 26.557Z" fill="white"/>
<path d="M18.375 83.9867C17.2834 82.41 16.6163 80.712 16.3131 78.832C16.1312 77.7404 16.0705 76.6488 16.5557 75.5572C17.526 73.374 19.1027 71.7973 21.5891 71.3728C24.0149 71.0089 26.5013 71.0089 28.9271 70.4631C30.2006 70.1599 31.1709 70.2812 32.2625 71.0695C33.0509 71.676 34.0212 72.0398 34.9309 72.3431C35.416 72.525 35.3554 72.6463 34.9915 72.9495C33.9605 73.8592 32.7477 74.223 31.4741 74.5263C29.4729 75.0114 27.411 75.1327 25.3491 75.3753C24.1968 75.4966 23.1052 75.7391 22.0137 76.103C19.2847 77.0127 17.8292 79.3778 18.1324 82.2887C18.2537 82.8951 18.2537 83.4409 18.375 83.9867Z" fill="white"/>
<path d="M37.5386 10.1228C40.025 10.7292 42.3295 11.6995 44.0275 13.7008C45.7862 15.7627 45.7862 19.0981 44.0881 21.2207C43.1178 22.5548 41.9656 23.7677 40.874 25.0413C40.2676 25.769 39.6611 26.4361 39.176 27.1638C38.8728 27.649 38.5089 27.8309 37.9631 27.9522C36.447 28.316 34.9915 28.8012 33.5967 29.5289C33.1722 29.7715 33.0509 29.5896 33.1116 29.1651C33.2935 27.5883 34.1425 26.3754 34.9915 25.1019C36.3257 23.2219 37.9631 21.6452 39.3579 19.7652C40.2069 18.613 40.9953 17.4607 41.0559 15.9446C41.1772 13.6402 40.0856 12.0028 38.327 10.7292C38.0844 10.5473 37.8418 10.3654 37.5386 10.1228Z" fill="white"/>
<path d="M67.9214 17.8853C68.5279 18.7343 69.013 19.7046 69.3162 20.6749C69.9227 22.4336 70.2865 24.1922 69.6801 26.0722C68.9524 28.3767 66.466 30.3173 64.0402 30.4992C61.6751 30.6812 59.31 30.7418 57.0055 31.227C56.8235 31.2876 56.581 31.227 56.399 31.1057C54.8829 30.1354 53.2455 29.2863 51.5475 28.6799C51.4869 28.6799 51.4262 28.6193 51.3049 28.5586C51.972 27.9522 52.6997 27.649 53.4881 27.3457C54.8223 26.8606 56.2171 26.7393 57.6119 26.618C59.7951 26.3754 62.0389 26.3754 64.2221 25.6477C66.4053 24.92 67.8608 23.1006 68.1034 20.7962C68.2246 19.8259 68.1034 18.8556 67.9214 17.8853Z" fill="white"/>
<path d="M99.4561 53.9077C94.8472 53.9077 90.1776 53.9077 85.5686 53.9077C84.5377 53.9077 84.0525 54.3929 84.0525 55.4238C84.0525 56.8793 84.0525 58.3347 84.0525 59.8508C84.0525 60.0328 83.9919 60.2753 84.1132 60.4573C85.9325 60.5179 87.7518 60.4573 89.5711 60.4573C89.7531 60.4573 89.9956 60.2754 90.0563 60.6392C89.8137 60.8818 89.5711 61.1244 89.3892 61.3669C86.9028 63.6108 84.0525 65.0662 80.6565 65.3695C75.7443 65.794 71.5598 64.2172 68.2244 60.5786C67.3754 59.6689 66.7083 58.5773 66.0412 57.4251C65.9199 57.5464 65.8593 57.6677 65.7986 57.7889C64.9496 59.4263 64.1006 61.0637 63.2516 62.6405C62.7058 63.6714 62.7058 64.0353 63.4942 64.8843C69.0128 70.7061 75.8049 72.8893 83.628 71.3126C87.9338 70.4636 91.5724 68.2804 94.544 65.1269C95.6356 63.9746 96.6059 62.8224 97.2729 61.3669C97.7581 60.6392 98.122 59.8508 98.4858 59.0625C99.1529 57.6677 99.5168 56.0909 99.8806 54.5748C100.123 54.0897 100.002 53.9077 99.4561 53.9077Z" fill="white"/>
<path d="M64.5252 48.8741C64.7678 47.7218 65.0103 46.509 65.4349 45.4174C66.0413 43.8406 66.951 42.4458 67.9819 41.051C68.1032 40.9297 68.2245 40.8691 68.3458 40.7478C72.4696 36.5027 77.4424 35.1079 83.2036 36.5633C85.2048 37.0485 87.0242 38.0794 88.6009 39.353C88.6616 39.353 88.6616 39.353 88.7222 39.353C88.6616 39.353 88.6616 39.353 88.6009 39.353C90.3596 40.8691 91.6938 42.6884 92.7247 44.7503C92.9673 45.2961 93.4524 45.478 93.9982 45.478C95.4537 45.478 96.9091 45.478 98.4253 45.478C99.6988 45.478 99.6988 45.478 99.3349 44.2651C98.7891 42.5064 98.0614 40.8084 96.9091 39.2923C96.8485 39.1104 96.7272 38.9891 96.6666 38.8072C93.3312 34.0769 88.8435 31.0447 83.1429 30.0138C76.2295 28.7402 70.1045 30.5596 64.8891 35.2292C63.1304 36.8059 61.6749 38.6859 60.5833 40.8084C58.8246 44.0226 57.9756 47.4186 58.1576 51.1179C58.1576 51.2998 58.0969 51.4211 58.0969 51.6031C58.0969 54.6959 56.9447 57.3643 55.1254 59.7294C53.8518 61.4274 52.2144 62.7009 50.4558 63.7319C50.3345 63.7925 50.1525 63.7925 50.0312 63.8532C45.0584 66.1577 40.2069 65.9151 35.5373 63.0648C34.8702 62.6403 34.2638 62.2158 33.6573 61.7306C32.869 61.0635 32.2625 60.2752 31.6561 59.4868C29.6548 56.7578 28.6845 53.7256 28.7452 50.3295C28.7452 49.056 29.0484 47.8431 29.2303 46.6302C29.291 46.509 29.3516 46.3877 29.3516 46.2664C31.3529 40.4445 35.416 36.8665 41.5411 36.0175C46.5745 35.2898 50.8803 37.0485 54.3976 40.7478C55.186 41.5968 55.8531 42.6277 56.4595 43.6587C57.4298 41.9 58.4001 40.1413 59.3098 38.4433C59.795 37.5943 59.7343 37.1698 59.0672 36.442C55.5499 32.6215 51.2441 30.317 46.15 29.6499C39.0547 28.8009 32.9903 30.9841 28.0174 36.1388C25.4704 38.8072 23.7117 41.9607 22.9233 45.5993C22.802 45.7206 22.802 45.9025 22.802 46.0845C22.802 46.0845 22.8627 46.1451 22.8627 46.2057C22.8627 46.2664 22.802 46.2664 22.802 46.2057C22.3775 47.7825 22.2562 49.3592 22.3169 50.9966C22.3775 54.8172 23.3478 58.3346 25.4097 61.5487C25.4704 61.7306 25.5917 61.8519 25.6523 62.0339C26.8652 63.9138 28.3207 65.6119 30.14 67.0067C35.3554 71.1305 41.2985 72.5253 47.8481 71.2518C51.3654 70.5847 54.5189 69.0079 57.1873 66.6428C58.0969 65.8544 59.0672 65.0661 59.6737 63.9745C61.9175 61.4274 63.3123 58.4559 64.04 55.1811C64.5858 53.1798 64.4646 51.0573 64.5252 48.8741Z" fill="white"/>
</svg>
