<svg width="100" height="101" viewBox="0 0 100 101" fill="none" xmlns="http://www.w3.org/2000/svg">
<path d="M82.4441 32.0498C74.2685 32.0498 67.642 38.1427 67.642 45.6471C67.642 48.1772 68.3993 50.5352 69.7074 52.5662C72.2892 56.5593 77.0224 59.2443 82.4441 59.2443C87.8657 59.2443 92.599 56.5593 95.1807 52.5662C93.8382 58.3665 88.6403 62.6866 82.4441 62.6866C78.3133 62.6866 74.3718 62.1703 64.2513 56.697C65.2151 54.5283 65.7487 52.1359 65.7487 49.6057C65.7487 39.9156 57.883 32.0498 48.1928 32.0498C38.5026 32.0498 30.6368 39.9156 30.6368 49.6057C30.6368 52.2563 31.222 54.7693 32.2719 57.024C31.3769 57.592 30.327 58.2804 29.0878 59.0722C22.3752 63.3751 17.5559 62.6866 17.5559 62.6866C10.327 62.6866 4.47504 56.8347 4.47504 49.6057C4.47504 42.3768 10.327 36.5248 17.5559 36.5248C22.1859 36.5248 26.2651 38.9345 28.5886 42.5834C29.1566 40.9999 29.9139 39.5025 30.8262 38.1255C27.6076 34.3906 22.8571 32.0498 17.5559 32.0498C7.86575 32.0498 0 39.9156 0 49.6057C0 59.2959 7.86575 67.1617 17.5559 67.1617C25.6454 67.1617 31.3253 62.8588 34.2513 60.9655C34.3718 60.8966 34.4923 60.8106 34.6127 60.7245C37.8313 64.6488 42.7194 67.1617 48.1928 67.1617C53.7522 67.1617 58.6919 64.5799 61.9105 60.5524C62.8916 61.1032 63.821 61.6195 64.5439 61.9982C67.4699 63.5472 75.043 67.1617 82.4441 67.1617C92.1343 67.1617 100 59.2959 100 49.6057C100 39.9156 92.1343 32.0498 82.4441 32.0498ZM82.4441 54.7693C76.6437 54.7693 71.9449 50.6901 71.9449 45.6471C71.9449 40.931 76.0757 37.0412 81.3597 36.5765C81.3769 36.5765 81.3941 36.5765 81.4114 36.5765C81.5663 36.5593 81.704 36.5593 81.8589 36.5421C82.0482 36.5248 82.2547 36.5248 82.4441 36.5248C82.6334 36.5248 82.8399 36.5248 83.0293 36.5421C83.1842 36.5421 83.3391 36.5593 83.4768 36.5765C83.494 36.5765 83.5112 36.5765 83.5284 36.5765C88.8124 37.0412 92.9432 40.931 92.9432 45.6471C92.9432 50.6901 88.2444 54.7693 82.4441 54.7693ZM48.1928 62.6866C44.3373 62.6866 40.8606 61.0171 38.4682 58.3493C38.1239 57.9706 37.7969 57.5575 37.5043 57.1273C37.4871 57.0928 37.4527 57.0584 37.4355 57.024C37.3494 56.9035 37.2806 56.783 37.1945 56.6625C37.1601 56.6281 37.1429 56.5765 37.1084 56.5421C37.0396 56.4216 36.9535 56.3011 36.8847 56.1806C36.8675 56.1462 36.833 56.0946 36.8158 56.0601C36.747 55.9396 36.6781 55.802 36.6093 55.6643C36.5921 55.6298 36.5749 55.5954 36.5577 55.5438C36.4888 55.4061 36.42 55.2684 36.3511 55.1307C36.3339 55.0963 36.3339 55.0791 36.3167 55.0446C36.2478 54.8897 36.179 54.7348 36.1102 54.5799C35.4561 53.0481 35.1119 51.3613 35.1119 49.6057C35.1119 42.3768 40.9639 36.5248 48.1928 36.5248C55.4217 36.5248 61.2737 42.3768 61.2737 49.6057C61.2737 51.3613 60.9294 53.0309 60.2926 54.5627C57.9002 53.2718 57.5904 53.0825 57.5559 53.0481C57.5043 53.0309 57.4527 53.0137 57.401 52.9792C54.6299 51.9121 51.5146 51.1376 48.1928 51.1376C44.8709 51.1376 41.9277 51.6367 38.9845 52.962C39.5009 54.3734 40.327 55.6126 41.3769 56.6281C43.4251 55.8536 45.7487 55.4233 48.1928 55.4233C50.6368 55.4233 52.9604 55.8536 55.0086 56.6281C55.0602 56.6453 55.1291 56.6798 55.1807 56.697C55.1807 56.697 56.3683 57.3854 57.9346 58.2804C55.5594 60.9999 52.0654 62.6866 48.1928 62.6866Z" fill="white"/>
</svg>
