<svg width="160" height="80" viewBox="0 0 160 80" fill="none" xmlns="http://www.w3.org/2000/svg">
<g clip-path="url(#clip0_8843_2)">
<path d="M17.57 28.6003C17.57 30.2703 16.77 31.8803 14.78 32.7803C17.29 33.5503 18.22 36.2503 18.22 37.6103C18.22 42.4403 14.63 43.9803 10.18 43.9803H0V22.3203H10.18C14.41 22.3203 17.57 24.2403 17.57 28.6003ZM3.99 31.0103H10.18C12.72 31.0103 13.55 29.9303 13.55 28.6903C13.55 27.7003 12.75 26.0303 10.18 26.0303H3.99V31.0103ZM3.99 40.1703H10.18C11.84 40.1703 14.2 39.6103 14.2 37.5703C14.2 35.5303 11.84 34.6003 10.18 34.6003H3.99V40.1703Z" fill="white"/>
<path d="M36.31 39.9001H25.08L23.24 43.9901H18.85L28.48 22.3301H32.9L42.53 43.9901H38.11L36.3 39.9001H36.31ZM30.7 26.8701L26.71 36.0901H34.68L30.69 26.8701H30.7Z" fill="white"/>
<path d="M62.01 41.2596C59.8 43.4596 56.95 44.4796 53.85 44.4796C45.88 44.4796 42.5 38.9397 42.47 33.3097C42.44 27.6497 46.09 21.8896 53.85 21.8896C56.76 21.8896 59.52 22.9996 61.73 25.1996L59.03 27.8296C57.62 26.4396 55.72 25.7896 53.85 25.7896C48.67 25.7896 46.43 29.6897 46.46 33.3097C46.49 36.8997 48.55 40.6396 53.85 40.6396C55.72 40.6396 57.84 39.8696 59.25 38.4396L62.01 41.2596Z" fill="white"/>
<path d="M81.55 22.4396L72.01 32.7996L82.35 43.7196V43.9696H77.35L68.36 34.3796V43.9696H64.31V22.3096H68.36V31.4696L76.52 22.3096H81.55V22.4296V22.4396Z" fill="white"/>
<path d="M97.65 27.5498C96.91 26.3098 94.89 25.1398 92.56 25.1398C89.55 25.1398 88.11 26.4098 88.11 28.0198C88.11 29.9098 90.32 30.4298 92.89 30.7398C97.37 31.2998 101.54 32.4698 101.54 37.6398C101.54 42.4698 97.31 44.5398 92.52 44.5398C88.13 44.5398 84.76 43.1798 83.17 39.2198L86.54 37.4598C87.49 39.8398 89.98 40.8998 92.58 40.8998C95.18 40.8998 97.52 39.9998 97.52 37.6498C97.52 35.6098 95.4 34.7698 92.55 34.4598C88.16 33.9298 84.12 32.7598 84.12 27.8998C84.12 23.4398 88.47 21.6198 92.43 21.5898C95.77 21.5898 99.24 22.5498 100.86 25.8898L97.64 27.5598L97.65 27.5498Z" fill="white"/>
<path d="M120.68 43.9803H104.61V22.3203H120.68V26.2803H108.63V31.2603H120.25V35.0703H108.63V39.9603H120.68V43.9803Z" fill="white"/>
<path d="M139.05 39.9001H127.83L125.99 43.9901H121.6L131.23 22.3301H135.65L145.28 43.9901H140.86L139.05 39.9001ZM133.44 26.8701L129.45 36.0901H137.42L133.43 26.8701H133.44Z" fill="white"/>
<path d="M149.14 26.0303H142.33V22.3203H160V26.0303H153.19V43.9803H149.14V26.0303Z" fill="white"/>
<g opacity="0.15">
<path d="M3.99 20.9899V16.5999H10.18C12.76 16.5999 13.55 18.2699 13.55 19.2599C13.55 19.9399 13.3 20.5599 12.66 20.9899H17.2C17.45 20.4099 17.56 19.7899 17.56 19.1599C17.56 14.7999 14.4 12.8799 10.17 12.8799H0V20.9899H3.99Z" fill="white"/>
<path d="M29.16 20.9899L30.7 17.4299L32.24 20.9899H36.51L32.9 12.8799H28.49L24.88 20.9899H29.15H29.16Z" fill="white"/>
<path d="M46.94 20.9892C47.84 18.4392 50.06 16.3492 53.86 16.3492C55.73 16.3492 57.63 16.9992 59.04 18.3892L61.74 15.7592C59.53 13.5592 56.77 12.4492 53.86 12.4492C47.42 12.4492 43.82 16.4092 42.79 20.9892H46.94Z" fill="white"/>
<path d="M74.2 20.9896L81.55 13.0096V12.8896H76.52L69.3 20.9996H74.21L74.2 20.9896Z" fill="white"/>
<path d="M68.36 12.8799H64.31V20.9899H68.36V12.8799Z" fill="white"/>
<path d="M90.99 20.9896C89.32 20.6196 88.11 19.9696 88.11 18.5796C88.11 16.9696 89.55 15.6996 92.56 15.6996C94.89 15.6996 96.91 16.8796 97.65 18.1096L100.87 16.4396C99.24 13.0996 95.78 12.1396 92.44 12.1396C88.48 12.1696 84.13 13.9996 84.13 18.4496C84.13 19.4396 84.3 20.2796 84.61 20.9896H91H90.99Z" fill="white"/>
<path d="M108.63 20.9899V16.8399H120.68V12.8799H104.61V20.9899H108.63Z" fill="white"/>
<path d="M131.9 20.9899L133.44 17.4299L134.98 20.9899H139.25L135.64 12.8799H131.22L127.61 20.9899H131.89H131.9Z" fill="white"/>
<path d="M149.14 20.9896H153.19V16.5996H160V12.8896H142.33V16.5996H149.14V20.9896Z" fill="white"/>
</g>
<g opacity="0.15">
<path d="M124.89 45.3096L121.6 52.7096H125.99L127.83 48.6296H139.05L140.86 52.7096H145.28L141.99 45.3096H124.89Z" fill="white"/>
<path d="M108.63 45.3096H104.61V52.7096H120.68V48.6896H108.63V45.3196V45.3096Z" fill="white"/>
<path d="M97.3 45.3098C97.45 45.6198 97.53 45.9698 97.53 46.3598C97.53 48.7098 95.14 49.6098 92.59 49.6098C90.04 49.6098 87.5 48.5598 86.55 46.1698L83.18 47.9298C84.78 51.8898 88.15 53.2498 92.53 53.2498C97.31 53.2498 101.55 51.1798 101.55 46.3498C101.55 45.9798 101.53 45.6298 101.48 45.2998H97.3V45.3098Z" fill="white"/>
<path d="M68.36 45.3096H64.31V52.7096H68.36V45.3096Z" fill="white"/>
<path d="M70.42 45.3096L77.35 52.7096H82.35V52.4596L75.58 45.3096H70.42Z" fill="white"/>
<path d="M53.85 49.3596C50.19 49.3596 48.08 47.5796 47.11 45.3096H42.89C44.01 49.6296 47.45 53.1996 53.85 53.1996C56.95 53.1996 59.8 52.1796 62.01 49.9796L59.25 47.1596C57.84 48.5796 55.72 49.3596 53.85 49.3596Z" fill="white"/>
<path d="M22.15 45.3096L18.86 52.7096H23.25L25.09 48.6296H36.32L38.13 52.7096H42.55L39.26 45.3096H22.16H22.15Z" fill="white"/>
<path d="M13.97 45.3096C14.11 45.6096 14.2 45.9396 14.2 46.2996C14.2 48.3396 11.84 48.8996 10.18 48.8996H3.99V45.3096H0V52.7096H10.18C14.63 52.7096 18.22 51.1596 18.22 46.3396C18.22 46.0496 18.18 45.6996 18.09 45.3196H13.98L13.97 45.3096Z" fill="white"/>
<path d="M153.19 45.3096H149.14V52.7096H153.19V45.3096Z" fill="white"/>
</g>
<path d="M46.61 61.4597C45.94 60.7997 45.01 60.4697 44.15 60.4697C41.91 60.4697 40.76 62.1197 40.78 63.9097C40.78 65.7297 41.93 67.2897 44.15 67.2897C44.97 67.2897 45.82 66.9997 46.48 66.3997V64.2397H43.81V63.7197H47.03V66.6097C46.23 67.4097 45.28 67.8597 44.15 67.8597C41.55 67.8597 40.21 66.0297 40.21 63.9197C40.2 61.5097 41.83 59.9297 44.15 59.9297C45.15 59.9297 46.17 60.3097 46.95 61.0897L46.61 61.4697V61.4597Z" fill="white"/>
<path d="M62.36 67.76L61.52 65.86H56.95L56.12 67.76H55.49L58.92 60.04H59.56L62.99 67.76H62.36ZM61.29 65.31L59.24 60.61L57.19 65.31H61.3H61.29Z" fill="white"/>
<path d="M78.18 60.9L75.25 65.42H75.05L72.1 60.9V67.76H71.51V60.04H72.21L75.14 64.54L78.04 60.04H78.76V67.76H78.18V60.9Z" fill="white"/>
<path d="M88.1 67.76V60.04H88.68V67.76H88.1Z" fill="white"/>
<path d="M98.27 60.04L103.41 66.42V60.04H103.99V67.76H103.76L98.6 61.39V67.76H98.01V60.04H98.26H98.27Z" fill="white"/>
<path d="M119.37 61.4597C118.7 60.7997 117.77 60.4697 116.91 60.4697C114.67 60.4697 113.52 62.1197 113.54 63.9097C113.54 65.7297 114.69 67.2897 116.91 67.2897C117.73 67.2897 118.58 66.9997 119.24 66.3997V64.2397H116.57V63.7197H119.79V66.6097C118.99 67.4097 118.04 67.8597 116.91 67.8597C114.31 67.8597 112.97 66.0297 112.97 63.9197C112.96 61.5097 114.59 59.9297 116.91 59.9297C117.91 59.9297 118.93 60.3097 119.71 61.0897L119.37 61.4697V61.4597Z" fill="white"/>
</g>
<defs>
<clipPath id="clip0_8843_2">
<rect width="160" height="80" fill="white"/>
</clipPath>
</defs>
</svg>
