<svg width="160" height="80" viewBox="0 0 160 80" fill="none" xmlns="http://www.w3.org/2000/svg">
<path d="M8.18999 50.8799C8.29999 51.0699 8.36999 51.2899 8.38999 51.4999C8.61999 51.3699 8.87999 51.3099 9.12999 51.3199C9.00999 51.1199 8.94999 50.8999 8.93999 50.6699C8.70999 50.8099 8.44999 50.8799 8.17999 50.8699L8.18999 50.8799Z" fill="#EE5650"/>
<path d="M6.09002 49.7C6.22002 49.91 6.28002 50.15 6.29002 50.39C6.53002 50.25 6.80002 50.18 7.07002 50.19C6.94002 49.97 6.88002 49.71 6.88002 49.46C6.64002 49.62 6.36002 49.71 6.08002 49.7H6.09002Z" fill="#EE5650"/>
<path d="M3.94 48.6501C4.05 48.8401 4.11 49.0501 4.12 49.2701C4.37 49.0901 4.67 49.0001 4.98 49.0201C4.86 48.8101 4.8 48.5701 4.79 48.3301C4.56 48.5501 4.25 48.6601 3.94 48.6501Z" fill="#EE5650"/>
<path d="M36.29 22.2801L35.33 21.6201C35.48 21.8601 35.56 22.1401 35.53 22.4201C35.76 22.2901 36.02 22.2401 36.28 22.2801H36.29Z" fill="#EE5650"/>
<path d="M10.48 49.2604C10.29 49.0104 10.19 48.7104 10.2 48.4004C9.93002 48.6004 9.60002 48.6804 9.27002 48.6304C9.45002 48.8704 9.56002 49.1504 9.57002 49.4404C9.84002 49.2704 10.16 49.2104 10.48 49.2604Z" fill="#EE5650"/>
<path d="M11.63 50.7202C11.94 50.4902 12.33 50.4102 12.7 50.5102C12.43 50.2202 12.31 49.8302 12.37 49.4502C12.08 49.7102 11.71 49.8102 11.34 49.7602C11.55 50.0302 11.66 50.3802 11.64 50.7202H11.63Z" fill="#EE5650"/>
<path d="M33.71 21.22C33.97 21.07 34.27 21.02 34.56 21.08L33.41 20.29C33.63 20.55 33.73 20.89 33.7 21.22H33.71Z" fill="#EE5650"/>
<path d="M11.12 51.71C10.87 51.91 10.56 52.02 10.25 52C10.38 52.22 10.45 52.48 10.45 52.74C10.73 52.56 11.07 52.5 11.4 52.57C11.21 52.32 11.11 52.01 11.12 51.71Z" fill="#EE5650"/>
<path d="M50.1 31.8296L38.92 24.0996C39.09 24.4396 39.08 24.8596 38.85 25.1896C38.52 25.6596 37.88 25.7596 37.43 25.4196C36.97 25.0796 36.87 24.4296 37.2 23.9596C37.42 23.6496 37.77 23.5096 38.11 23.5396L37.13 22.8696C37.36 23.2596 37.36 23.7596 37.09 24.1396C36.73 24.6596 36.01 24.7596 35.49 24.3796C35.16 24.1296 34.99 23.7496 35 23.3696C34.68 23.5896 34.27 23.6296 33.91 23.4896C34.22 23.8496 34.27 24.3996 33.98 24.8096C33.65 25.2796 33.01 25.3896 32.54 25.0396C32.08 24.6996 31.97 24.0396 32.3 23.5596C32.57 23.1796 33.03 23.0396 33.44 23.1796C33.19 22.9196 33.07 22.5596 33.1 22.2096C32.69 22.4496 32.17 22.4396 31.76 22.1396C31.74 22.1296 31.73 22.1096 31.71 22.0996L26.05 30.5396L22.35 40.5996L3.90997 46.2496C4.16997 46.2396 4.43997 46.3096 4.65997 46.4796C4.95997 46.6996 5.11997 47.0396 5.13997 47.3896C5.59997 46.8896 6.34997 46.8096 6.89997 47.2196C7.26997 47.4996 7.46997 47.9296 7.45997 48.3696C7.73997 48.1796 8.07997 48.0996 8.40997 48.1496C8.05997 47.6896 8.02997 47.0296 8.37997 46.5396C8.79997 45.9396 9.61997 45.8096 10.2 46.2396C10.56 46.5096 10.75 46.9296 10.74 47.3596C11.18 47.0396 11.79 47.0196 12.25 47.3596C12.67 47.6696 12.85 48.1896 12.77 48.6796C13.19 48.3196 13.81 48.2796 14.27 48.6296C14.82 49.0396 14.95 49.8296 14.55 50.3896C14.25 50.8196 13.73 50.9896 13.26 50.8696C13.69 51.3196 13.75 52.0196 13.39 52.5396C13.09 52.9596 12.59 53.1396 12.12 53.0496C12.41 53.4096 12.5 53.8896 12.36 54.3296C12.74 53.8796 13.39 53.7896 13.88 54.1496C14.39 54.5296 14.5 55.2496 14.14 55.7696C13.78 56.2896 13.07 56.3996 12.56 56.0296C12.15 55.7296 12 55.1996 12.15 54.7396C11.9 55.0596 11.55 55.2296 11.18 55.2396L21.99 61.9096L31.24 61.9696L33.28 50.9696L40.07 51.0096C45.09 51.0396 51.21 47.5896 53.06 40.8996C53.86 36.6196 52.57 33.4496 50.09 31.8396L50.1 31.8296ZM22.95 46.3996C23.07 46.2296 23.3 46.1896 23.47 46.3196C23.64 46.4396 23.68 46.6796 23.56 46.8596C23.44 47.0296 23.21 47.0696 23.04 46.9396C22.87 46.8196 22.83 46.5796 22.95 46.3996ZM21.89 48.4496C22.01 48.2796 22.24 48.2396 22.41 48.3696C22.58 48.4896 22.62 48.7296 22.5 48.9096C22.38 49.0796 22.15 49.1196 21.98 48.9896C21.81 48.8696 21.77 48.6296 21.89 48.4496ZM20.55 50.5596C20.72 50.3196 21.04 50.2696 21.27 50.4396C21.5 50.6096 21.56 50.9396 21.39 51.1796C21.22 51.4196 20.9 51.4696 20.67 51.2996C20.44 51.1296 20.38 50.7996 20.55 50.5596ZM19.71 47.2596C19.88 47.0196 20.2 46.9696 20.43 47.1396C20.66 47.3096 20.72 47.6396 20.55 47.8796C20.38 48.1196 20.06 48.1696 19.83 47.9996C19.6 47.8296 19.54 47.4996 19.71 47.2596ZM18.34 49.2996C18.56 48.9896 18.99 48.9196 19.29 49.1496C19.6 49.3796 19.67 49.8096 19.45 50.1296C19.23 50.4396 18.8 50.5096 18.5 50.2796C18.19 50.0496 18.12 49.6196 18.34 49.2996ZM18.17 51.2496C18.53 51.5096 18.61 52.0196 18.35 52.3896C18.09 52.7596 17.6 52.8296 17.24 52.5696C16.88 52.3096 16.8 51.7996 17.06 51.4296C17.32 51.0696 17.81 50.9896 18.17 51.2496ZM16.15 48.0496C16.42 47.6596 16.95 47.5796 17.33 47.8596C17.71 48.1396 17.79 48.6796 17.52 49.0696C17.25 49.4596 16.72 49.5396 16.34 49.2596C15.96 48.9796 15.88 48.4396 16.15 48.0496ZM16.2 49.9596C16.64 50.2896 16.74 50.9196 16.42 51.3596C16.1 51.8096 15.49 51.9096 15.05 51.5796C14.61 51.2496 14.51 50.6196 14.83 50.1796C15.15 49.7296 15.76 49.6296 16.2 49.9596ZM14.15 48.3296C13.72 48.0096 13.62 47.3996 13.93 46.9596C14.24 46.5196 14.84 46.4196 15.27 46.7396C15.7 47.0596 15.8 47.6696 15.49 48.1096C15.18 48.5496 14.58 48.6496 14.15 48.3296ZM13.8 53.8696C13.32 53.5096 13.21 52.8296 13.56 52.3396C13.91 51.8496 14.57 51.7396 15.05 52.0996C15.53 52.4596 15.64 53.1396 15.29 53.6296C14.94 54.1196 14.28 54.2296 13.8 53.8696ZM16.05 56.7496C15.75 57.1696 15.18 57.2596 14.77 56.9596C14.36 56.6596 14.27 56.0696 14.56 55.6496C14.86 55.2296 15.43 55.1396 15.84 55.4396C16.25 55.7496 16.34 56.3296 16.05 56.7496ZM15.99 54.8096C15.6 54.5196 15.51 53.9596 15.79 53.5696C16.07 53.1696 16.61 53.0896 17 53.3696C17.39 53.6596 17.48 54.2196 17.2 54.6096C16.92 55.0096 16.38 55.0896 15.99 54.8096ZM17.91 57.7596C17.69 58.0796 17.25 58.1496 16.94 57.9196C16.63 57.6896 16.56 57.2396 16.78 56.9196C17 56.5996 17.44 56.5296 17.75 56.7596C18.06 56.9896 18.13 57.4396 17.91 57.7596ZM19.1 55.6296C18.89 55.9296 18.48 55.9996 18.18 55.7796C17.88 55.5596 17.82 55.1396 18.03 54.8396C18.24 54.5396 18.65 54.4696 18.95 54.6896C19.25 54.9096 19.31 55.3296 19.1 55.6296ZM19.38 53.5196C19.11 53.3196 19.05 52.9296 19.24 52.6596C19.43 52.3796 19.81 52.3196 20.08 52.5196C20.35 52.7196 20.41 53.1096 20.22 53.3796C20.03 53.6596 19.65 53.7196 19.38 53.5196ZM19.83 58.8096C19.68 59.0296 19.38 59.0696 19.17 58.9196C18.96 58.7596 18.91 58.4596 19.06 58.2396C19.21 58.0196 19.51 57.9796 19.72 58.1296C19.93 58.2896 19.98 58.5896 19.83 58.8096ZM20.97 56.5796C20.83 56.7796 20.56 56.8196 20.36 56.6796C20.16 56.5296 20.12 56.2496 20.26 56.0496C20.4 55.8496 20.67 55.8096 20.87 55.9496C21.07 56.0996 21.11 56.3796 20.97 56.5796ZM21.6 54.4996C21.43 54.3696 21.39 54.1196 21.51 53.9396C21.63 53.7596 21.88 53.7196 22.05 53.8496C22.22 53.9796 22.26 54.2296 22.14 54.4096C22.01 54.5896 21.77 54.6296 21.6 54.4996ZM21.69 59.7996C21.6 59.9196 21.44 59.9496 21.32 59.8596C21.2 59.7696 21.17 59.5996 21.26 59.4796C21.35 59.3596 21.51 59.3296 21.63 59.4196C21.75 59.5096 21.78 59.6796 21.69 59.7996ZM23.31 52.1796C23.21 52.3296 23.01 52.3596 22.86 52.2496C22.72 52.1396 22.68 51.9396 22.79 51.7896C22.89 51.6396 23.09 51.6096 23.24 51.7196C23.39 51.8296 23.42 52.0296 23.31 52.1796ZM44.74 29.1396C44.82 29.0296 44.97 28.9996 45.08 29.0796C45.19 29.1596 45.21 29.3196 45.14 29.4296C45.06 29.5396 44.91 29.5696 44.8 29.4896C44.69 29.4096 44.67 29.2496 44.74 29.1396ZM43.09 27.9096C43.21 27.7396 43.45 27.6996 43.62 27.8196C43.79 27.9496 43.83 28.1896 43.71 28.3596C43.59 28.5296 43.35 28.5696 43.18 28.4496C43.01 28.3196 42.97 28.0796 43.09 27.9096ZM41.69 29.4996C41.79 29.3596 41.98 29.3296 42.11 29.4296C42.25 29.5296 42.28 29.7296 42.18 29.8696C42.08 30.0096 41.89 30.0396 41.76 29.9396C41.62 29.8396 41.59 29.6396 41.69 29.4996ZM41.14 26.6496C41.31 26.3996 41.65 26.3496 41.89 26.5296C42.13 26.7096 42.19 27.0496 42.01 27.2996C41.84 27.5496 41.5 27.5996 41.26 27.4196C41.02 27.2396 40.96 26.8996 41.14 26.6496ZM40.64 28.4896C40.85 28.6496 40.9 28.9496 40.75 29.1596C40.6 29.3796 40.3 29.4196 40.09 29.2696C39.88 29.1096 39.83 28.8096 39.98 28.5996C40.13 28.3796 40.43 28.3396 40.64 28.4896ZM39.18 25.3696C39.41 25.0396 39.87 24.9596 40.19 25.2096C40.52 25.4496 40.59 25.9196 40.36 26.2496C40.13 26.5796 39.67 26.6596 39.35 26.4096C39.02 26.1696 38.95 25.6996 39.18 25.3696ZM38 27.3296C38.21 27.0196 38.63 26.9596 38.93 27.1796C39.23 27.3996 39.3 27.8296 39.08 28.1296C38.87 28.4396 38.45 28.4996 38.15 28.2796C37.85 28.0596 37.78 27.6296 38 27.3296ZM29.84 29.7796C29.67 30.0296 29.33 30.0796 29.09 29.8996C28.85 29.7196 28.79 29.3796 28.97 29.1296C29.14 28.8796 29.48 28.8296 29.72 29.0096C29.96 29.1896 30.02 29.5296 29.84 29.7796ZM31.13 28.3496C30.93 28.6396 30.53 28.6996 30.25 28.4896C29.97 28.2796 29.9 27.8796 30.11 27.5896C30.31 27.2996 30.71 27.2396 30.99 27.4496C31.27 27.6596 31.34 28.0596 31.13 28.3496ZM31.33 26.7596C30.95 26.4796 30.87 25.9396 31.14 25.5596C31.41 25.1796 31.93 25.0896 32.31 25.3696C32.69 25.6496 32.77 26.1896 32.5 26.5696C32.23 26.9496 31.71 27.0396 31.33 26.7596ZM32.89 29.4996C32.71 29.7596 32.36 29.8096 32.11 29.6296C31.86 29.4396 31.8 29.0796 31.98 28.8296C32.16 28.5696 32.51 28.5196 32.76 28.6996C33.01 28.8896 33.07 29.2496 32.89 29.4996ZM34.28 27.7596C34.03 28.1096 33.56 28.1896 33.22 27.9296C32.88 27.6796 32.8 27.1896 33.05 26.8396C33.3 26.4896 33.77 26.4096 34.11 26.6696C34.45 26.9196 34.53 27.4096 34.28 27.7596ZM34.39 26.1496C33.97 25.8396 33.87 25.2396 34.18 24.8096C34.48 24.3796 35.07 24.2896 35.49 24.5996C35.91 24.9096 36.01 25.5096 35.7 25.9396C35.4 26.3696 34.81 26.4596 34.39 26.1496ZM36.02 28.8096C35.81 29.1096 35.4 29.1796 35.11 28.9596C34.82 28.7396 34.75 28.3196 34.96 28.0196C35.17 27.7196 35.58 27.6496 35.87 27.8696C36.16 28.0896 36.23 28.5096 36.02 28.8096ZM36.28 27.1596C35.92 26.8896 35.84 26.3796 36.1 26.0196C36.36 25.6496 36.85 25.5696 37.21 25.8396C37.57 26.1096 37.65 26.6196 37.39 26.9796C37.13 27.3496 36.64 27.4296 36.28 27.1596ZM36.87 29.0396C37.04 28.7896 37.38 28.7396 37.62 28.9196C37.86 29.0996 37.92 29.4396 37.74 29.6896C37.57 29.9396 37.23 29.9896 36.99 29.8096C36.75 29.6296 36.69 29.2896 36.87 29.0396ZM41.41 43.0096L34.4 42.9596L35.25 38.3696L42.79 38.4196C43.83 38.4196 44.49 39.4596 44.25 40.7296C44.01 41.9996 43 43.0196 41.41 43.0096Z" fill="url(#paint0_linear_9739_65)"/>
<path d="M1.52 47.2702C1.89 47.5502 2.07 48.0002 2.02 48.4402C2.27 48.1702 2.61 48.0402 2.96 48.0602C2.73 47.6602 2.73 47.1302 3.01 46.7302C3.1 46.6002 3.22 46.4902 3.35 46.4102L1.13 47.0902C1.27 47.1302 1.4 47.1902 1.52 47.2802V47.2702Z" fill="#EE5650"/>
<path d="M26.06 30.5297L31.72 22.0897C31.21 21.6697 31.1 20.9097 31.49 20.3597C31.82 19.8997 32.39 19.7297 32.89 19.9097L30.66 18.3697C30.66 18.3697 28.68 16.6997 25.42 16.7697C22.16 16.8397 2.92 16.8097 2.92 16.8097L1.37 25.1497L3.84 27.2997L0.130005 47.2497C0.420005 47.0497 0.790005 46.9897 1.14 47.0797L3.36 46.3997C3.53 46.2897 3.72 46.2397 3.92 46.2297L22.36 40.5797L26.06 30.5197V30.5297Z" fill="#EE5650"/>
<path d="M26.06 30.5304C28.86 30.1104 31.43 27.4704 32.03 24.2704L32.09 23.9604C32.74 20.4504 30.79 17.6404 26.34 17.1904L6.43997 17.4304L3.19997 17.4104L1.77997 25.0704L4.78997 25.0904L3.78997 30.4504L0.659973 47.2404L18.56 47.3604C26.9 47.1104 30.15 42.8804 31.01 38.2404L31.17 37.4004C31.89 33.5304 29.3 30.7804 26.05 30.5404L26.06 30.5304ZM14.32 24.8004L21.06 24.8404C21.99 24.8404 22.59 25.7004 22.4 26.7404C22.21 27.7804 21.31 28.6304 19.89 28.6204L13.62 28.5804L14.32 24.8004ZM18.71 39.6004L11.57 39.5504L12.42 34.9904L20.09 35.0404C21.15 35.0404 21.82 36.0704 21.59 37.3304C21.36 38.5904 20.33 39.6104 18.71 39.6004Z" fill="white"/>
<path d="M72.93 27.7799C73.52 28.5499 73.81 29.4999 73.81 30.6199C73.81 32.2099 73.19 33.4299 71.96 34.2899C70.72 35.1499 68.92 35.5699 66.55 35.5699H57.16V17.4199H66.03C68.24 17.4199 69.94 17.8399 71.12 18.6899C72.3 19.5399 72.9 20.6899 72.9 22.1399C72.9 23.0199 72.69 23.8099 72.26 24.4999C71.84 25.1899 71.24 25.7399 70.48 26.1299C71.52 26.4599 72.33 27.0099 72.92 27.7799H72.93ZM61.34 20.5899V24.8699H65.51C66.55 24.8699 67.33 24.6899 67.87 24.3299C68.41 23.9699 68.67 23.4299 68.67 22.7199C68.67 22.0099 68.4 21.4799 67.87 21.1299C67.33 20.7799 66.55 20.5999 65.51 20.5999H61.34V20.5899ZM68.74 31.8599C69.3 31.4999 69.58 30.9399 69.58 30.1699C69.58 28.6699 68.47 27.9099 66.24 27.9099H61.34V32.3999H66.24C67.35 32.3999 68.18 32.2199 68.74 31.8599Z" fill="white"/>
<path d="M77 17.4199H81.2V35.5699H77V17.4199Z" fill="white"/>
<path d="M97.77 26.2096H101.61V33.5696C100.62 34.3096 99.48 34.8796 98.19 35.2796C96.89 35.6796 95.59 35.8796 94.27 35.8796C92.39 35.8796 90.69 35.4796 89.19 34.6696C87.69 33.8696 86.51 32.7496 85.65 31.3296C84.79 29.8996 84.37 28.2896 84.37 26.4896C84.37 24.6896 84.8 23.0796 85.65 21.6496C86.51 20.2196 87.69 19.1096 89.22 18.3096C90.74 17.5096 92.45 17.0996 94.35 17.0996C95.94 17.0996 97.38 17.3696 98.68 17.8996C99.98 18.4396 101.07 19.2096 101.95 20.2296L99.25 22.7196C97.95 21.3496 96.39 20.6696 94.56 20.6696C93.4 20.6696 92.37 20.9096 91.47 21.3996C90.57 21.8796 89.87 22.5696 89.37 23.4496C88.87 24.3296 88.62 25.3396 88.62 26.4796C88.62 27.6196 88.87 28.6096 89.37 29.4896C89.87 30.3696 90.57 31.0596 91.46 31.5496C92.35 32.0396 93.37 32.2896 94.51 32.2896C95.72 32.2896 96.81 32.0296 97.78 31.5096V26.1896L97.77 26.2096Z" fill="white"/>
<path d="M117.54 18.2299C118.72 18.7699 119.64 19.5299 120.28 20.5099C120.92 21.4999 121.24 22.6599 121.24 24.0099C121.24 25.3599 120.92 26.4999 120.28 27.4999C119.64 28.4899 118.73 29.2499 117.54 29.7799C116.36 30.3099 114.96 30.5699 113.35 30.5699H109.69V35.5699H105.49V17.4199H113.35C114.96 17.4199 116.35 17.6899 117.54 18.2199V18.2299ZM116 26.3299C116.66 25.7899 116.99 25.0099 116.99 24.0099C116.99 23.0099 116.66 22.2099 116 21.6599C115.34 21.1199 114.38 20.8399 113.12 20.8399H109.7V27.1399H113.12C114.38 27.1399 115.34 26.8699 116 26.3199V26.3299Z" fill="white"/>
<path d="M128.17 34.6703C126.66 33.8603 125.47 32.7404 124.62 31.3104C123.76 29.8804 123.34 28.2804 123.34 26.5004C123.34 24.7204 123.77 23.1204 124.62 21.6904C125.48 20.2604 126.66 19.1404 128.17 18.3304C129.68 17.5204 131.38 17.1104 133.26 17.1104C135.14 17.1104 136.84 17.5204 138.34 18.3304C139.84 19.1404 141.03 20.2604 141.89 21.6904C142.75 23.1204 143.19 24.7204 143.19 26.5004C143.19 28.2804 142.76 29.8804 141.89 31.3104C141.03 32.7404 139.84 33.8603 138.34 34.6703C136.84 35.4803 135.14 35.8904 133.26 35.8904C131.38 35.8904 129.68 35.4803 128.17 34.6703ZM136.17 31.5704C137.03 31.0804 137.71 30.3904 138.21 29.5104C138.7 28.6304 138.95 27.6304 138.95 26.5004C138.95 25.3704 138.7 24.3704 138.21 23.4904C137.72 22.6104 137.04 21.9204 136.17 21.4304C135.31 20.9404 134.34 20.6904 133.27 20.6904C132.2 20.6904 131.23 20.9404 130.37 21.4304C129.51 21.9204 128.83 22.6104 128.33 23.4904C127.84 24.3704 127.59 25.3704 127.59 26.5004C127.59 27.6304 127.84 28.6304 128.33 29.5104C128.82 30.3904 129.5 31.0804 130.37 31.5704C131.23 32.0604 132.2 32.3104 133.27 32.3104C134.34 32.3104 135.31 32.0604 136.17 31.5704Z" fill="white"/>
<path d="M149.86 20.8399H144.05V17.4199H159.87V20.8399H154.06V35.5699H149.86V20.8399Z" fill="white"/>
<path d="M71.22 48.8597H73.71V55.9397C72.81 56.6797 71.77 57.2497 70.57 57.6497C69.38 58.0497 68.13 58.2497 66.84 58.2497C65.01 58.2497 63.36 57.8497 61.89 57.0397C60.42 56.2397 59.27 55.1297 58.43 53.7197C57.59 52.3097 57.17 50.7297 57.17 48.9597C57.17 47.1897 57.59 45.6097 58.43 44.1897C59.27 42.7697 60.43 41.6697 61.9 40.8697C63.38 40.0797 65.04 39.6797 66.89 39.6797C68.34 39.6797 69.66 39.9197 70.84 40.3897C72.02 40.8697 73.03 41.5597 73.86 42.4797L72.25 44.0897C70.8 42.6897 69.04 41.9897 66.99 41.9897C65.61 41.9897 64.37 42.2897 63.27 42.8797C62.17 43.4797 61.31 44.3097 60.69 45.3697C60.07 46.4297 59.76 47.6297 59.76 48.9597C59.76 50.2897 60.07 51.4597 60.69 52.5297C61.31 53.5897 62.17 54.4297 63.27 55.0297C64.37 55.6397 65.6 55.9397 66.96 55.9397C68.58 55.9397 70 55.5497 71.21 54.7697V48.8597H71.22Z" fill="white"/>
<path d="M87.67 45.5704C88.68 46.5004 89.19 47.9004 89.19 49.7404V58.0404H86.83V56.2304C86.42 56.8704 85.82 57.3604 85.05 57.7004C84.28 58.0404 83.37 58.2104 82.31 58.2104C80.77 58.2104 79.54 57.8404 78.62 57.1004C77.7 56.3604 77.23 55.3804 77.23 54.1704C77.23 52.9604 77.67 51.9904 78.55 51.2504C79.43 50.5204 80.83 50.1504 82.75 50.1504H86.69V49.6604C86.69 48.5904 86.38 47.7704 85.76 47.2004C85.14 46.6304 84.22 46.3404 83.01 46.3404C82.2 46.3404 81.4 46.4704 80.62 46.7404C79.84 47.0104 79.19 47.3704 78.65 47.8204L77.61 45.9504C78.32 45.3804 79.17 44.9404 80.15 44.6404C81.14 44.3404 82.18 44.1904 83.29 44.1904C85.19 44.1904 86.65 44.6604 87.66 45.5904L87.67 45.5704ZM85.2 55.6404C85.89 55.2204 86.39 54.6204 86.7 53.8404V51.9204H82.86C80.75 51.9204 79.7 52.6304 79.7 54.0504C79.7 54.7404 79.97 55.2904 80.5 55.6804C81.04 56.0804 81.78 56.2804 82.73 56.2804C83.68 56.2804 84.5 56.0704 85.19 55.6404H85.2Z" fill="white"/>
<path d="M115.1 45.6699C116.11 46.6699 116.62 48.1599 116.62 50.1299V58.0399H114.13V50.4199C114.13 49.0899 113.82 48.0899 113.21 47.4099C112.6 46.7399 111.72 46.3999 110.58 46.3999C109.32 46.3999 108.32 46.7899 107.57 47.5799C106.83 48.3699 106.45 49.4899 106.45 50.9599V58.0399H103.96V50.4199C103.96 49.0899 103.65 48.0899 103.04 47.4099C102.43 46.7399 101.55 46.3999 100.41 46.3999C99.15 46.3999 98.15 46.7899 97.4 47.5799C96.66 48.3699 96.28 49.4899 96.28 50.9599V58.0399H93.79V44.2999H96.18V46.3499C96.68 45.6399 97.34 45.0999 98.15 44.7299C98.96 44.3599 99.89 44.1699 100.92 44.1699C101.95 44.1699 102.94 44.3899 103.77 44.8199C104.6 45.2499 105.24 45.8799 105.69 46.7099C106.21 45.9199 106.93 45.2899 107.86 44.8399C108.78 44.3899 109.83 44.1699 110.98 44.1699C112.71 44.1699 114.08 44.6699 115.09 45.6699H115.1Z" fill="white"/>
<path d="M121.25 41.1899C120.93 40.8799 120.77 40.4999 120.77 40.0499C120.77 39.5999 120.93 39.2199 121.25 38.8999C121.57 38.5799 121.97 38.4199 122.46 38.4199C122.95 38.4199 123.35 38.5699 123.67 38.8699C123.99 39.1699 124.15 39.5499 124.15 39.9999C124.15 40.4499 123.99 40.8599 123.67 41.1799C123.35 41.4999 122.95 41.6599 122.46 41.6599C121.97 41.6599 121.57 41.4999 121.25 41.1899ZM121.21 44.2999H123.7V58.0399H121.21V44.2999Z" fill="white"/>
<path d="M139.94 45.6799C140.97 46.6899 141.48 48.1699 141.48 50.1299V58.0399H138.99V50.4199C138.99 49.0899 138.67 48.0899 138.03 47.4099C137.39 46.7399 136.47 46.3999 135.28 46.3999C133.93 46.3999 132.87 46.7899 132.09 47.5799C131.31 48.3699 130.92 49.4899 130.92 50.9599V58.0399H128.43V44.2999H130.82V46.3699C131.32 45.6599 132 45.1199 132.86 44.7399C133.72 44.3599 134.69 44.1699 135.78 44.1699C137.53 44.1699 138.91 44.6799 139.94 45.6899V45.6799Z" fill="white"/>
<path d="M159.33 44.2999V56.1799C159.33 58.5799 158.73 60.3599 157.54 61.5099C156.35 62.6599 154.57 63.2299 152.2 63.2299C150.9 63.2299 149.67 63.0499 148.49 62.6999C147.31 62.3499 146.36 61.8399 145.64 61.1799L146.83 59.2599C147.47 59.8099 148.26 60.2499 149.2 60.5699C150.14 60.8899 151.11 61.0499 152.12 61.0499C153.73 61.0499 154.92 60.6699 155.69 59.9099C156.46 59.1499 156.84 57.9899 156.84 56.4399V55.3499C156.25 56.0599 155.53 56.5899 154.67 56.9399C153.81 57.2899 152.89 57.4699 151.88 57.4699C150.57 57.4699 149.38 57.1899 148.31 56.6299C147.25 56.0699 146.41 55.2799 145.81 54.2699C145.2 53.2599 144.9 52.1099 144.9 50.8099C144.9 49.5099 145.2 48.3599 145.81 47.3499C146.41 46.3399 147.25 45.5599 148.31 44.9999C149.37 44.4499 150.56 44.1699 151.88 44.1699C152.92 44.1699 153.88 44.3599 154.77 44.7399C155.66 45.1199 156.39 45.6799 156.96 46.4299V44.2999H159.32H159.33ZM154.59 54.7199C155.31 54.3399 155.87 53.8099 156.28 53.1299C156.69 52.4499 156.89 51.6699 156.89 50.8099C156.89 49.4799 156.45 48.3999 155.57 47.5799C154.69 46.7599 153.56 46.3499 152.17 46.3499C150.78 46.3499 149.63 46.7599 148.75 47.5799C147.87 48.3999 147.43 49.4799 147.43 50.8099C147.43 51.6699 147.63 52.4499 148.04 53.1299C148.45 53.8099 149.01 54.3399 149.73 54.7199C150.45 55.0999 151.26 55.2899 152.18 55.2899C153.1 55.2899 153.89 55.0999 154.6 54.7199H154.59Z" fill="white"/>
<defs>
<linearGradient id="paint0_linear_9739_65" x1="18.68" y1="31.4596" x2="41.86" y2="54.6396" gradientUnits="userSpaceOnUse">
<stop stop-color="#EE5650"/>
<stop offset="0.26" stop-color="#EF6051"/>
<stop offset="0.7" stop-color="#F37B56"/>
<stop offset="1" stop-color="#F6915A"/>
</linearGradient>
</defs>
</svg>
