<svg width="160" height="80" viewBox="0 0 160 80" fill="none" xmlns="http://www.w3.org/2000/svg">
<path d="M75.83 39.6699L76.81 28.3499L74.24 23.7199L57.37 25.2099L45.15 26.2899L36.4 27.0599C37.84 24.5099 37.09 21.3999 35.47 19.4699C34.88 18.7499 34.13 18.1799 33.26 17.7699C32.21 17.2799 30.97 17.4099 30.07 18.1299C29.79 18.3399 29.56 18.6199 29.38 18.8999C29.15 18.9999 28.92 19.1599 28.71 19.3399C28.61 19.4199 28.5 19.5199 28.4 19.5999C27.89 19.0899 27.29 18.6699 26.6 18.3399C25.57 17.8499 24.34 17.9799 23.44 18.6999C23.16 18.9099 22.93 19.1899 22.75 19.4699C22.52 19.5699 22.29 19.7299 22.08 19.9099C21.08 20.7599 20.33 21.8099 19.87 22.9699C19.25 24.5399 19.05 26.7499 20.08 28.4499L2.38 29.9899L0 57.8999L2.57 62.5299L22.63 60.7799L22.71 59.8299C23.82 60.3399 25.15 60.5799 26.83 60.5799C27.42 60.5799 28.04 60.5499 28.71 60.4999C30.74 60.3199 32.39 59.9299 33.73 59.3199L33.68 59.8099L49.76 58.3999L56.96 57.7799L74.4 56.2599L75.38 44.9399L74.71 43.7299L75.04 39.7399L75.84 39.6599L75.83 39.6699Z" fill="white"/>
<path d="M11.52 53.5299L12.21 45.3499L9.79002 45.5599L9.10002 53.7399L3.65002 54.2299L5.45002 33.1099L10.9 32.6199L10.21 40.6699L12.63 40.4599L13.32 32.4099L18.77 31.9199L16.97 53.0399L11.52 53.5299Z" fill="#010101"/>
<path d="M21.2 51.9595C20.33 51.3895 19.84 50.4395 19.73 49.0995C19.62 47.7595 19.73 45.4995 19.99 42.2795C20.27 39.0595 20.56 36.7795 20.89 35.4095C21.22 34.0495 21.87 32.9895 22.87 32.2695C23.87 31.5495 25.47 31.0895 27.68 30.8795C29.89 30.6695 31.44 30.8795 32.34 31.4495C33.21 32.0195 33.7 32.9695 33.83 34.3095C33.93 35.6495 33.86 37.9095 33.57 41.0995C33.29 44.2895 32.98 46.5795 32.64 47.9395C32.31 49.2995 31.64 50.3595 30.63 51.0995C29.63 51.8495 28.03 52.3095 25.82 52.4895C23.63 52.6995 22.06 52.5195 21.19 51.9495L21.2 51.9595ZM27.24 47.6095C27.42 47.3995 27.55 46.9195 27.65 46.1695C27.75 45.4195 27.91 43.9095 28.11 41.6195C28.32 39.3295 28.42 37.8095 28.44 37.0695C28.47 36.3195 28.41 35.8595 28.26 35.6795C28.11 35.4995 27.8 35.4195 27.31 35.4695C26.82 35.5195 26.51 35.6495 26.33 35.8595C26.15 36.0695 26.02 36.5495 25.92 37.2995C25.82 38.0495 25.66 39.5595 25.46 41.8495C25.25 44.1395 25.15 45.6595 25.13 46.3995C25.1 47.1495 25.16 47.6095 25.28 47.7895C25.4 47.9695 25.72 48.0495 26.21 47.9995C26.72 47.9495 27.06 47.8195 27.24 47.6095Z" fill="#010101"/>
<path d="M34.8 51.4996L36.6 30.3796L42.05 29.8896L40.64 46.3297L45.24 45.9196L44.83 50.6297L34.8 51.4996Z" fill="#010101"/>
<path d="M46.43 50.4704L48.23 29.3504L53.68 28.8604L52.27 45.3004L56.87 44.8904L56.46 49.6003L46.43 50.4704Z" fill="#010101"/>
<path d="M58.08 49.4699L59.88 28.3499L70.56 27.4199L70.17 31.9699L64.95 32.4299L64.64 36.0799L69.09 35.6899L68.7 40.1899L64.25 40.5799L63.92 44.4399L69.14 43.9799L68.75 48.5299L58.07 49.4599L58.08 49.4699Z" fill="#010101"/>
<path d="M24.05 22.2296C23.72 22.5096 23.07 23.1296 22.71 24.0796C22.35 24.9796 22.12 26.5496 23.04 27.3196C23.68 27.8596 24.56 27.7296 24.76 27.6796C24.84 27.6496 26.12 27.4696 26.9 26.4196C27.98 24.9796 27.31 22.9996 26.49 21.9996C26.08 21.5096 25.64 21.2496 25.31 21.0996C25.36 21.3796 25.44 21.9496 25.16 22.5696C25.08 22.7796 24.77 23.4396 24.31 23.5196C24.05 23.5696 23.9 23.3896 23.9 23.3896C23.69 23.1296 23.72 22.6696 24.05 22.2296Z" fill="#010101"/>
<path d="M30.69 21.63C30.36 21.91 29.71 22.53 29.35 23.48C28.99 24.38 28.76 25.95 29.68 26.72C30.32 27.26 31.2 27.13 31.4 27.08C31.48 27.05 32.76 26.87 33.54 25.82C34.62 24.38 33.95 22.4 33.13 21.4C32.72 20.91 32.28 20.65 31.95 20.5C32 20.78 32.08 21.35 31.8 21.97C31.72 22.18 31.41 22.84 30.95 22.92C30.69 22.97 30.54 22.79 30.54 22.79C30.33 22.56 30.39 22.07 30.69 21.63Z" fill="#010101"/>
<path d="M159.02 34.9596C158.81 34.3196 158.56 33.7496 158.25 33.2596L159.1 33.2896L160 22.8196L157.43 18.1896L154.34 17.7296C153.72 17.6296 152.92 17.5496 151.92 17.4996C150.89 17.4496 149.76 17.4696 148.58 17.5796C146.96 17.7296 145.57 18.0196 144.36 18.5096L144.39 18.1996L131.32 19.3296L105.08 21.6196L92.53 22.7296L92.3 23.6296L90.65 23.3696C89.75 23.2396 88.72 23.1396 87.59 23.1096C86.46 23.0796 85.4 23.0796 84.48 23.1896C81.83 23.4196 79.8 24.0096 78.23 25.0196C76.48 26.1296 75.22 27.8196 74.42 30.0896C73.8 31.9196 73.34 34.3896 73.06 37.6796C72.78 40.9996 72.78 43.4696 73.09 45.2196C73.3 46.3796 73.63 47.2996 74.07 48.0496L76.64 52.7096C77.36 53.9996 78.31 54.7396 79.11 55.1796C80.32 55.8496 81.84 56.1796 83.71 56.1796C84.22 56.1796 84.79 56.1496 85.38 56.0996C86.43 55.9996 87.59 55.8396 88.83 55.5896C88.96 55.5596 89.06 55.5396 89.19 55.5096L111.34 53.5796L131.4 51.8296L144.57 50.6696L144.6 50.5196C145.11 50.5496 145.65 50.5696 146.25 50.5996H146.89C147.82 50.5996 148.72 50.5696 149.57 50.4996C151.32 50.3496 152.76 50.0096 153.99 49.4696C155.53 48.7996 156.82 47.5896 157.77 45.8696C158.62 44.3796 159.13 42.3696 159.36 39.7996C159.51 37.8696 159.44 36.2996 159.08 35.0396L159.03 34.9896L159.02 34.9596Z" fill="white"/>
<path d="M83.04 39.5897L83.4 35.2697L89.52 34.7297L88.47 46.9697C87.7 47.2497 86.75 47.4797 85.64 47.7197C84.53 47.9497 83.51 48.0797 82.55 48.1797C80.57 48.3597 79.13 48.1797 78.18 47.6697C77.25 47.1597 76.64 46.1497 76.41 44.6897C76.15 43.2197 76.15 40.9897 76.41 37.9997C76.67 35.0197 77.05 32.7497 77.59 31.2097C78.13 29.6697 78.93 28.5597 80.03 27.8697C81.11 27.1797 82.71 26.7397 84.79 26.5597C85.59 26.4797 86.49 26.4797 87.49 26.5097C88.52 26.5397 89.39 26.6097 90.16 26.7397L89.77 30.9097C87.84 30.8797 86.55 30.8797 85.86 30.9397C84.6 31.0397 83.75 31.2197 83.31 31.4497C82.85 31.6797 82.54 32.1997 82.33 33.0197C82.12 33.8397 81.92 35.3397 81.74 37.5197C81.56 39.5797 81.48 41.0197 81.48 41.8397C81.48 42.6597 81.61 43.1997 81.84 43.4597C82.07 43.7197 82.48 43.8197 83.13 43.7697L83.98 43.6697L84.34 39.4997L83.03 39.5997L83.04 39.5897Z" fill="#010101"/>
<path d="M99.65 46.4296L99.47 42.8797L95.69 43.1896L94.89 46.8196L89.54 47.2796L95.15 25.8296L103.1 25.1396L105.11 45.9196L99.66 46.4296H99.65ZM98.78 30.3796L98.57 30.4096L96.72 38.7696L99.16 38.5597L98.77 30.3796H98.78Z" fill="#010101"/>
<path d="M120.62 44.58L121.85 30.23L121.57 30.26L118.33 44.79L113.7 45.2L112.95 31.03L112.64 31.06L111.41 45.41L106.32 45.85L108.12 24.73L116.17 24.04L116.71 36.72L116.94 36.69L119.64 23.73L127.59 23.04L125.79 44.16L120.62 44.6V44.58Z" fill="#010101"/>
<path d="M128.23 43.9104L130.03 22.7904L140.7 21.8604L140.31 26.4104L135.09 26.8704L134.78 30.5004L139.23 30.1104L138.84 34.6104L134.39 35.0004L134.06 38.8604L139.28 38.4004L138.89 42.9804L128.22 43.9104H128.23Z" fill="#010101"/>
<path d="M143.72 42.6496C142.67 42.6196 141.77 42.5696 141.04 42.4696L141.4 38.2996C143.25 38.2696 144.64 38.2196 145.52 38.1496C146.14 38.0996 146.6 38.0496 146.88 37.9696C147.16 37.8896 147.37 37.7896 147.5 37.6396C147.63 37.5096 147.73 37.3296 147.78 37.0996C147.83 36.8696 147.88 36.5596 147.93 36.1496C147.98 35.5296 147.98 35.0996 147.93 34.8596C147.88 34.5996 147.72 34.4496 147.49 34.3496C147.26 34.2496 146.85 34.1696 146.23 34.1196L143.71 33.8596C142.89 33.7796 142.32 33.2396 142.06 32.2396C141.8 31.2596 141.75 29.8496 141.91 27.9996C142.06 26.1996 142.45 24.8096 143.07 23.8096C143.69 22.8096 144.46 22.1096 145.41 21.7296C146.36 21.3396 147.52 21.0596 148.91 20.9596C149.96 20.8596 150.92 20.8596 151.79 20.8796C152.66 20.9296 153.36 20.9796 153.85 21.0596L153.49 25.2796C152.28 25.2496 151.05 25.2796 149.79 25.3796C149.2 25.4296 148.79 25.4796 148.5 25.5296C148.21 25.5796 148.01 25.6796 147.86 25.8096C147.71 25.9396 147.6 26.1196 147.53 26.3496C147.45 26.5796 147.4 26.9196 147.38 27.3296C147.33 27.8196 147.33 28.1796 147.35 28.4096C147.38 28.6396 147.48 28.7996 147.63 28.8696C147.78 28.9396 148.04 29.0196 148.43 29.0796L150.59 29.3096C151.26 29.3896 151.82 29.5696 152.26 29.8196C152.7 30.0796 153.06 30.5896 153.29 31.3396C153.55 32.2096 153.6 33.3996 153.47 34.9196C153.29 36.9796 152.9 38.5496 152.31 39.6296C151.72 40.7096 150.97 41.4296 150.1 41.8196C149.23 42.2096 148.09 42.4596 146.73 42.5696C145.75 42.6496 144.77 42.6696 143.72 42.6696V42.6496Z" fill="#010101"/>
</svg>
