<svg width="100" height="100" viewBox="0 0 100 100" fill="none" xmlns="http://www.w3.org/2000/svg">
<path d="M81.0701 72.8699C81.0601 72.6399 81.0501 72.4399 81.0401 72.2299C79.9801 72.3799 78.9401 72.5699 77.8901 72.6499C71.4601 73.1799 65.2501 72.4799 59.4401 69.4199C55.6701 67.4399 52.4101 64.8799 50.0801 61.2599C48.1101 58.1999 47.1401 54.8299 47.0201 51.1999C46.8501 46.0499 48.2801 41.4099 51.5001 37.3699C54.2101 33.9599 57.6001 31.4099 61.5901 29.6599C65.0101 28.1599 68.6101 27.4099 72.3301 27.1999C75.5001 27.0199 78.6601 27.1199 81.7601 27.8199C83.7501 28.2699 85.6801 28.9399 87.6401 29.5099C87.8201 29.5599 88.0001 29.6099 88.2301 29.6799C88.5001 29.0299 88.8101 28.4099 89.0101 27.7499C89.1701 27.2199 89.4501 27.0999 89.9801 27.1099C91.8901 27.1499 93.8101 27.1199 95.7201 27.1199C95.8801 27.1199 96.0301 27.1199 96.2201 27.1199V43.8399C96.0601 43.8399 95.9101 43.8599 95.7601 43.8599C93.3801 43.8599 91.0101 43.8599 88.6301 43.8599C88.3501 43.8599 88.2001 43.7999 88.0701 43.5199C85.6201 38.5499 81.6101 36.1199 76.0701 36.1999C74.7001 36.2199 73.3501 36.3299 72.0501 36.7899C69.3301 37.7299 67.6301 39.6799 66.7201 42.3499C65.5601 45.7499 65.2301 49.2399 65.5601 52.8099C65.7301 54.6599 66.0701 56.4799 66.6901 58.2399C67.6201 60.9099 69.4701 62.5399 72.1701 63.2699C74.6901 63.9599 77.2101 63.9199 79.7301 63.2399C80.0401 63.1599 80.3401 63.0499 80.6601 63.0099C81.1501 62.9599 81.0901 62.6299 81.0901 62.2899C81.0901 61.8799 80.7801 61.9499 80.5701 61.9399C79.5701 61.9099 78.5701 61.9199 77.5701 61.9099C77.3501 61.9099 77.1401 61.9099 76.8901 61.9099V53.9699H99.9501V61.6899C98.7401 61.7799 97.5401 61.8699 96.2901 61.9699V72.8399H81.1001L81.0701 72.8699Z" fill="white"/>
<path d="M19.58 52.9099C19.58 53.0199 19.57 53.1099 19.57 53.1899C19.57 57.0599 19.57 60.9299 19.58 64.7999C19.58 65.6499 19.66 66.5099 19.74 67.3599C19.86 68.4999 20.45 69.2099 21.58 69.4299C22.44 69.5999 23.33 69.6299 24.21 69.7099C24.48 69.7399 24.76 69.7099 25.04 69.7399C25.67 69.7999 26 70.1599 26 70.7899C26 71.0499 26 71.3099 26 71.5699C26 72.0999 25.76 72.4099 25.24 72.5299C25.03 72.5799 24.81 72.5899 24.59 72.5899C16.86 72.5899 9.14001 72.5899 1.41001 72.5899C1.21001 72.5899 1.00001 72.5899 0.81001 72.5399C0.27001 72.4299 0.0200098 72.1199 0.0100098 71.5699C0.0100098 71.3199 0.0100098 71.0799 0.0100098 70.8299C0.0100098 70.1299 0.35001 69.7799 1.07001 69.7299C2.11001 69.6599 3.16001 69.6199 4.18001 69.4799C5.43001 69.2999 6.11001 68.5799 6.26001 67.3399C6.36001 66.5098 6.42001 65.6599 6.42001 64.8299C6.42001 54.7499 6.42001 44.6799 6.40001 34.5999C6.40001 33.9899 6.33001 33.3799 6.25001 32.7799C6.10001 31.6199 5.50001 30.9199 4.35001 30.7099C3.39001 30.5399 2.39001 30.5199 1.42001 30.4299C1.22001 30.4099 1.01001 30.4099 0.82001 30.3699C0.24001 30.2399 0.0100098 29.9499 0.0100098 29.3599C0.0100098 29.1299 0.0100098 28.8999 0.0100098 28.6599C0.0100098 27.9599 0.36001 27.5899 1.06001 27.5499C1.19001 27.5499 1.32001 27.5499 1.45001 27.5499C8.86001 27.5499 16.27 27.5399 23.67 27.5499C27.09 27.5499 30.51 27.6899 33.89 28.3299C36.99 28.9199 39.69 30.2499 41.91 32.5499C46.22 36.9999 46.45 45.4499 39.76 49.7399C38.51 50.5399 37.15 51.1099 35.73 51.5499C35.58 51.5999 35.43 51.6399 35.25 51.6999C35.28 51.7699 35.29 51.8199 35.32 51.8599C39.11 56.8199 42.9 61.7899 46.69 66.7499C47.05 67.2199 47.46 67.6499 47.84 68.1099C48.69 69.1299 49.79 69.6099 51.09 69.7199C51.96 69.7899 52.2 70.0699 52.2 70.9299C52.2 71.1299 52.2 71.3399 52.2 71.5399C52.2 72.1399 51.94 72.4399 51.34 72.5399C51.16 72.5699 50.97 72.5799 50.78 72.5799C46.11 72.5799 41.44 72.5799 36.78 72.5799C36.1 72.5799 35.62 72.3399 35.2 71.7899C30.62 65.7099 26.01 59.6599 21.45 53.5699C20.92 52.8599 20.37 52.7299 19.58 52.8899V52.9099ZM19.21 40.2299C19.21 43.2999 19.21 46.3699 19.21 49.4499C19.21 50.1899 19.54 50.5199 20.29 50.5599C22.08 50.6499 23.82 50.4499 25.55 49.8699C28.59 48.8499 30.55 46.8799 31.35 43.7799C31.79 42.0899 31.8 40.3699 31.64 38.6399C31.32 35.1499 29.74 32.4799 26.6 30.8399C25.84 30.4399 25 30.0699 24.17 29.9699C22.87 29.8199 21.54 29.9099 20.22 29.9299C19.53 29.9399 19.21 30.3299 19.21 31.0199C19.21 34.0899 19.21 37.1599 19.21 40.2399V40.2299Z" fill="white"/>
<path d="M94.3 45.77H96.5V48.24C96.99 48.1 97.44 47.9 97.91 47.87C98.61 47.82 99.16 48.19 99.54 48.77C100.69 50.52 99.56 52.8 97.48 52.93C96.89 52.97 96.42 52.7 95.97 52.34C95.66 52.54 95.35 52.74 94.96 52.99C94.96 52.74 94.96 52.59 94.96 52.44C94.96 50.59 94.96 48.73 94.96 46.88C94.96 46.46 94.96 46.09 94.43 46C94.39 46 94.37 45.9 94.3 45.77ZM96.51 50.49C96.51 50.95 96.46 51.43 96.53 51.88C96.57 52.12 96.79 52.46 96.99 52.52C97.24 52.59 97.6 52.47 97.85 52.33C98.02 52.23 98.15 51.95 98.16 51.74C98.21 50.99 98.23 50.24 98.22 49.49C98.22 49.26 98.09 49.02 97.96 48.81C97.76 48.47 97.43 48.35 97.06 48.46C96.69 48.57 96.49 48.84 96.5 49.24C96.5 49.66 96.5 50.08 96.5 50.5L96.51 50.49Z" fill="white"/>
<path d="M84.16 51.1901C84.27 51.2801 84.36 51.3601 84.46 51.4401C82.77 53.6001 79.92 53.1801 78.65 52.0801C77.46 51.0501 77.15 49.7201 77.56 48.2601C77.97 46.7801 79.03 45.9601 80.52 45.6701C81.42 45.4901 82.28 45.6901 83.11 45.9901C83.45 46.1201 83.75 46.1701 83.94 45.7501C83.97 45.6801 84.12 45.6601 84.26 45.6001V48.0001L84.17 48.0801C84.07 47.9801 83.95 47.9001 83.89 47.7801C83.5 47.0901 83.01 46.4801 82.27 46.1401C81.23 45.6501 80.14 46.0401 79.73 47.1201C79.23 48.4201 79.22 49.7701 79.63 51.0801C79.97 52.1801 81.03 52.6701 82.22 52.4001C83 52.2201 83.6 51.7701 84.17 51.2001L84.16 51.1901Z" fill="white"/>
<path d="M91.1001 48.0298H93.3201V48.4198C93.3201 49.3498 93.3201 50.2698 93.3201 51.1998C93.3201 51.6998 93.1401 52.3098 94.0401 52.3698C94.0101 52.4198 93.9801 52.4698 93.9501 52.5198C93.2501 52.6298 92.5501 52.7398 91.8001 52.8598C91.7801 52.6798 91.7601 52.4998 91.7501 52.3198C91.4101 52.4998 91.0901 52.7098 90.7401 52.8298C89.5601 53.2098 88.7101 52.5898 88.7001 51.3598C88.7001 50.7398 88.7001 50.1098 88.7001 49.4898C88.6901 48.9698 88.9101 48.3598 88.0901 48.1398C88.1201 48.1098 88.1501 48.0798 88.1701 48.0498H90.2501C90.2501 48.6298 90.2501 49.2298 90.2501 49.8398C90.2501 50.4198 90.2501 50.9998 90.2501 51.5798C90.2501 52.0598 90.4501 52.2598 90.8501 52.2598C91.3201 52.2598 91.7701 51.9198 91.7701 51.5398C91.7701 50.6698 91.7701 49.7998 91.7701 48.9298C91.7701 48.5398 91.6701 48.2798 91.2401 48.2398C91.1801 48.2398 91.1301 48.1698 91.0801 48.1298L91.1101 48.0298H91.1001Z" fill="white"/>
<path d="M87.71 52.7201H85.06C85.06 52.6601 85.06 52.6101 85.06 52.6101C85.61 52.3701 85.64 51.9201 85.63 51.4001C85.61 49.9201 85.62 48.4501 85.63 46.9701C85.63 46.5301 85.62 46.1201 85.09 45.9801C85.07 45.9801 85.07 45.9001 85.04 45.8101H87.14C87.14 45.9401 87.16 46.0901 87.16 46.2401C87.16 48.0101 87.16 49.7701 87.16 51.5401C87.16 51.9901 87.09 52.4801 87.8 52.5801C87.77 52.6301 87.74 52.6801 87.71 52.7301V52.7201Z" fill="white"/>
</svg>
