<svg width="97" height="101" viewBox="0 0 97 101" fill="none" xmlns="http://www.w3.org/2000/svg">
<path fill-rule="evenodd" clip-rule="evenodd" d="M93.689 54.312C94.5991 53.262 95.5095 52.2116 96.4327 51.1714C96.2843 50.9735 96.1866 50.8336 96.1056 50.7177C96.0484 50.6358 95.9995 50.5658 95.9471 50.4959C94.8304 49.2485 93.7318 47.9809 92.6328 46.7129C90.3653 44.0966 88.0962 41.4785 85.6643 39.0328C74.8325 28.1398 62.4383 19.4 48.5871 12.729C36.5307 6.9236 23.8831 3.08147 10.6653 1.01263C9.86298 0.885971 9.48292 1.11819 9.18731 1.87817C4.58434 13.7634 1.67053 26.0287 0.551454 38.6951C-0.272014 47.9626 -0.166441 57.2302 0.889287 66.4977C2.17728 77.7708 4.83771 88.685 8.84948 99.2825C9.53988 101.123 9.56693 101.119 11.4365 100.852L11.4888 100.845C11.6999 100.813 11.9058 100.776 12.1117 100.739C12.3175 100.702 12.5234 100.665 12.7346 100.634C26.1423 98.417 38.9166 94.216 51.0364 88.0939C65.1409 80.9796 77.6407 71.6698 88.4725 60.1646C90.2649 58.2622 91.9763 56.2878 93.689 54.312ZM24.3661 38.8069C24.3234 41.6669 24.3319 44.537 24.3404 47.4026C24.3438 48.5685 24.3473 49.7335 24.3473 50.8969C24.3473 52.0726 24.3438 53.2483 24.3404 54.4244C24.3318 57.3666 24.3231 60.3118 24.3684 63.2677C24.3895 64.5133 24.6007 65.801 24.9807 66.9832C25.952 70.002 28.3802 71.5642 31.484 71.0575C32.8353 70.8464 34.2078 70.3187 35.4113 69.6431C42.4425 65.6321 49.4314 61.5789 56.357 57.4201C57.7083 56.5968 58.933 55.4357 59.8831 54.1691C60.61 53.2001 60.9899 52.1419 61.01 51.0808C61.0332 50.0133 60.6903 48.94 59.9678 47.9415C59.0177 46.6538 57.7508 45.4505 56.3784 44.6271C49.5373 40.5106 42.6328 36.5207 35.7072 32.5519C34.5881 31.9186 33.3635 31.3908 32.1177 31.0741C28.9083 30.2508 26.0579 31.7919 25.0021 34.9163C24.6009 36.0985 24.3898 37.3862 24.3687 38.6317C24.3678 38.6901 24.3669 38.7485 24.3661 38.8069Z" fill="white"/>
</svg>
