<svg width="160" height="48" viewBox="0 0 160 48" fill="none" xmlns="http://www.w3.org/2000/svg">
<g clip-path="url(#clip0)">
<path d="M52.5421 17.1354C52.5421 13.4192 53.6776 10.3225 55.9486 7.94828C58.2196 5.57408 61.2131 4.4386 64.826 4.4386C67.9228 4.4386 70.5034 5.26441 72.6712 7.01924C74.8389 8.67086 76.1809 11.0451 76.697 13.9354H72.2583C71.8454 12.2838 71.0196 10.9418 69.6776 9.90957C68.3357 8.98053 66.7873 8.46441 64.9292 8.46441C62.4518 8.46441 60.5938 9.29021 59.1486 10.8386C57.7034 12.387 57.0841 14.5547 57.0841 17.2386C57.0841 19.9225 57.8067 21.987 59.1486 23.6386C60.5938 25.187 62.4518 26.0128 64.9292 26.0128C66.7873 26.0128 68.4389 25.4967 69.6776 24.5676C71.0196 23.6386 71.8454 22.2967 72.2583 20.5418H76.697C76.1809 23.4321 74.8389 25.7031 72.6712 27.458C70.5034 29.1096 67.9228 30.0386 64.826 30.0386C61.2131 30.0386 58.2196 28.9031 55.9486 26.5289C53.7808 23.9483 52.5421 20.9547 52.5421 17.1354ZM91.768 21.058L87.0196 21.7805C84.7486 22.0902 83.6131 23.0192 83.6131 24.3612C83.6131 25.9096 84.6454 26.7354 86.8131 26.7354C88.3615 26.7354 89.6002 26.3225 90.5292 25.4967C91.355 24.6709 91.768 23.5354 91.768 22.2967V21.058ZM85.9873 29.8321C83.8196 29.8321 82.2712 29.316 81.2389 28.387C80.2067 27.3547 79.6905 26.116 79.6905 24.4644C79.6905 21.3676 81.9615 19.4063 86.6067 18.787L91.768 18.0644V17.7547C91.768 15.587 90.5292 14.4515 87.9486 14.4515C85.6776 14.4515 84.4389 15.3805 84.1292 17.1354H80.1034C80.3099 15.3805 81.0325 13.9354 82.2712 12.7999C83.5099 11.6644 85.4712 11.0451 88.0518 11.0451C90.6325 11.0451 92.5938 11.6644 93.8325 12.7999C95.1744 13.9354 95.7938 15.587 95.7938 17.7547V26.0128C95.7938 27.458 96.0002 28.5934 96.3099 29.4192H92.3873C92.3873 29.4192 92.2841 29.316 92.2841 29.1096C92.2841 28.9031 92.1809 28.6967 92.1809 28.2838C92.1809 27.8709 92.0776 27.458 92.0776 27.0451C90.9421 28.9031 88.8776 29.8321 85.9873 29.8321ZM104.981 29.4192H100.852V3.61279H104.981V29.4192ZM126.761 21.6773H113.032C113.239 23.1225 113.755 24.258 114.581 25.0838C115.51 25.9096 116.645 26.3225 118.091 26.3225C119.02 26.3225 119.845 26.116 120.671 25.5999C121.394 25.187 122.013 24.5676 122.323 23.7418H126.452C125.936 25.5999 124.903 27.045 123.355 28.1805C121.807 29.316 120.052 29.8321 117.987 29.8321C115.303 29.8321 113.136 28.9031 111.484 27.1483C109.832 25.3934 109.007 23.1225 109.007 20.4386C109.007 17.7547 109.832 15.587 111.484 13.8321C113.136 12.0773 115.303 11.1483 117.987 11.1483C120.671 11.1483 122.736 12.0773 124.387 13.8321C126.039 15.587 126.865 17.7547 126.865 20.4386L126.761 21.6773ZM117.884 14.4515C116.542 14.4515 115.51 14.8644 114.684 15.587C113.858 16.3096 113.342 17.3418 113.136 18.5805H122.736C122.529 17.3418 122.013 16.3096 121.187 15.587C120.361 14.8644 119.226 14.4515 117.884 14.4515ZM138.839 25.8063V29.316C138.323 29.4192 137.6 29.5225 136.671 29.5225C133.161 29.5225 131.407 27.7676 131.407 24.258V14.8644H128.62V11.5612H131.407V6.91602H135.536V11.5612H138.942V14.8644H135.536V23.845C135.536 25.2902 136.258 25.9096 137.6 25.9096L138.839 25.8063ZM153.394 21.058L148.645 21.7805C146.374 22.0902 145.239 23.0192 145.239 24.3612C145.239 25.9096 146.271 26.7354 148.439 26.7354C149.987 26.7354 151.226 26.3225 152.155 25.4967C152.981 24.6709 153.394 23.5354 153.394 22.2967V21.058ZM147.613 29.8321C145.445 29.8321 143.897 29.316 142.865 28.387C141.832 27.458 141.316 26.116 141.316 24.4644C141.316 21.3676 143.587 19.4063 148.232 18.787L153.394 18.0644V17.7547C153.394 15.587 152.155 14.4515 149.574 14.4515C147.303 14.4515 146.065 15.3805 145.755 17.1354H141.729C141.936 15.3805 142.658 13.9354 143.897 12.7999C145.136 11.6644 147.097 11.0451 149.678 11.0451C152.258 11.0451 154.22 11.6644 155.458 12.7999C156.8 13.9354 157.42 15.587 157.42 17.7547V26.0128C157.42 27.458 157.626 28.5934 157.936 29.4192H154.013C154.013 29.4192 153.91 29.316 153.91 29.1096C153.91 28.9031 153.807 28.6967 153.807 28.2838C153.807 27.8709 153.703 27.458 153.703 27.0451C152.568 28.9031 150.503 29.8321 147.613 29.8321Z" fill="white"/>
<g opacity="0.8">
<path opacity="0.8" d="M57.0841 36.9547L59.6647 40.2579L62.2454 36.9547H62.968V44.0773H62.2454V38.1934L59.768 41.3934L57.2905 38.1934V44.0773H56.568V36.9547H57.0841ZM68.4389 41.4966L66.6841 41.7031C66.168 41.8063 65.8583 41.9095 65.6518 42.0128C65.4454 42.2192 65.3422 42.4257 65.3422 42.6321C65.3422 42.9418 65.4454 43.2515 65.6518 43.3547C65.8583 43.4579 66.168 43.5611 66.4776 43.5611C67.097 43.5611 67.5099 43.3547 67.8196 43.045C68.1292 42.7353 68.3357 42.3224 68.3357 42.0128V41.4966H68.4389ZM66.4776 44.2837C65.8583 44.2837 65.4454 44.1805 65.1357 43.8708C64.826 43.5611 64.7228 43.2515 64.7228 42.7353C64.7228 41.9095 65.3422 41.3934 66.6841 41.187L68.4389 40.9805V40.8773C68.4389 40.0515 67.9228 39.5353 66.9938 39.5353C66.168 39.5353 65.6518 39.845 65.5486 40.5676H64.826C64.9293 40.0515 65.1357 39.6386 65.4454 39.4321C65.7551 39.1224 66.2712 39.0192 66.9938 39.0192C67.7163 39.0192 68.2325 39.2257 68.6454 39.5353C68.9551 39.845 69.1615 40.3611 69.1615 40.9805V43.2515C69.1615 43.7676 69.1615 44.0773 69.2647 44.2837H68.5422C68.4389 44.0773 68.4389 43.7676 68.4389 43.4579C68.1293 43.9741 67.4067 44.2837 66.4776 44.2837ZM74.6325 39.0192H75.5615L73.3938 41.0837L75.6647 44.0773H74.7357L72.7744 41.5999L71.6389 42.7353V44.1805H70.9163V36.645H71.6389V41.9095L74.6325 39.0192ZM77.3163 37.7805C77.1099 37.7805 77.0067 37.7805 76.9034 37.6773C76.8002 37.5741 76.8002 37.4708 76.8002 37.3676C76.8002 37.2644 76.8002 37.0579 76.9034 36.9547C77.0067 36.8515 77.1099 36.8515 77.3163 36.8515C77.4196 36.8515 77.626 36.8515 77.7293 36.9547C77.8325 37.0579 77.8325 37.1611 77.8325 37.3676C77.8325 37.5741 77.8325 37.6773 77.7293 37.6773C77.5228 37.6773 77.4196 37.7805 77.3163 37.7805ZM76.9034 44.1805V39.0192H77.626V44.1805H76.9034ZM80.3099 39.0192V39.845C80.4131 39.6386 80.6196 39.4321 80.9293 39.2257C81.2389 39.0192 81.5486 38.916 82.0647 38.916C82.6841 38.916 83.2002 39.1224 83.5099 39.4321C83.8196 39.845 84.026 40.2579 84.026 40.8773V44.1805H83.3034V41.0837C83.3034 40.5676 83.2002 40.2579 82.9938 39.9482C82.7873 39.6386 82.4776 39.5353 81.9615 39.5353C81.5486 39.5353 81.1357 39.6386 80.826 39.9482C80.5163 40.2579 80.4131 40.5676 80.4131 41.0837V44.1805H79.6905V39.0192H80.3099ZM89.9099 39.9482V39.0192H90.6325V43.8708C90.6325 44.5934 90.426 45.2128 90.0131 45.6257C89.6002 46.0386 88.9809 46.3482 88.2583 46.3482C87.5357 46.3482 87.0196 46.1418 86.6067 45.8321C86.1938 45.5224 85.9873 45.1095 85.8841 44.6966H86.6067C86.7099 45.0063 86.9163 45.2128 87.226 45.4192C87.5357 45.6257 87.8454 45.7289 88.2583 45.7289C88.7744 45.7289 89.1873 45.6257 89.497 45.316C89.8067 45.0063 89.9099 44.5934 89.9099 44.0773V43.1482C89.497 43.8708 88.8776 44.1805 87.9486 44.1805C87.226 44.1805 86.6067 43.9741 86.1938 43.4579C85.7809 42.9418 85.5744 42.3224 85.5744 41.5999C85.5744 40.8773 85.7809 40.2579 86.1938 39.7418C86.6067 39.2257 87.226 39.0192 87.9486 39.0192C88.8776 38.916 89.497 39.2257 89.9099 39.9482ZM89.3938 42.9418C89.7034 42.5289 89.9099 42.116 89.9099 41.4966C89.9099 40.8773 89.7034 40.4644 89.3938 40.0515C89.0841 39.6386 88.6712 39.5353 88.0518 39.5353C87.5357 39.5353 87.0196 39.7418 86.7099 40.0515C86.4002 40.4644 86.1938 40.8773 86.1938 41.4966C86.1938 42.0128 86.4002 42.5289 86.7099 42.9418C87.0196 43.3547 87.5357 43.5611 88.0518 43.5611C88.6712 43.4579 89.0841 43.3547 89.3938 42.9418ZM96.1034 39.9482C96.5163 39.2257 97.1357 38.916 98.0647 38.916C98.7873 38.916 99.4067 39.2257 99.8196 39.7418C100.232 40.2579 100.439 40.8773 100.439 41.5999C100.439 42.3224 100.232 42.9418 99.8196 43.4579C99.4067 43.9741 98.7873 44.2837 98.0647 44.2837C97.1357 44.2837 96.5163 43.9741 96.1034 43.2515V44.1805H95.3809V36.645H96.1034V39.9482ZM96.1034 41.5999C96.1034 42.2192 96.3099 42.6321 96.6196 43.045C96.9292 43.4579 97.3422 43.6644 97.9615 43.6644C98.5809 43.6644 98.9938 43.4579 99.3034 43.045C99.6131 42.6321 99.8196 42.2192 99.8196 41.5999C99.8196 40.9805 99.6131 40.5676 99.3034 40.1547C98.9938 39.7418 98.4776 39.5353 97.9615 39.5353C97.4454 39.5353 96.9292 39.7418 96.6196 40.1547C96.2067 40.4644 96.1034 40.9805 96.1034 41.5999ZM106.632 41.8063H102.4C102.4 42.3224 102.607 42.7353 102.916 43.1482C103.226 43.5612 103.639 43.6644 104.155 43.6644C104.568 43.6644 104.878 43.5611 105.187 43.3547C105.497 43.1482 105.703 42.9418 105.807 42.5289H106.529C106.323 43.045 106.116 43.4579 105.703 43.7676C105.291 44.0773 104.774 44.2837 104.155 44.2837C103.329 44.2837 102.71 43.9741 102.297 43.4579C101.884 42.9418 101.574 42.3224 101.574 41.5999C101.574 40.8773 101.781 40.2579 102.297 39.7418C102.813 39.2257 103.329 38.916 104.155 38.916C104.878 38.916 105.497 39.1224 105.91 39.6386C106.323 40.1547 106.632 40.774 106.632 41.4966V41.8063ZM104.155 39.5353C103.639 39.5353 103.226 39.7418 102.916 40.0515C102.607 40.3611 102.4 40.7741 102.297 41.2902H105.807C105.807 40.7741 105.6 40.3611 105.291 40.0515C105.084 39.7418 104.671 39.5353 104.155 39.5353ZM110.349 43.4579V44.0773C110.245 44.0773 110.039 44.0773 109.832 44.0773C108.903 44.0773 108.491 43.5612 108.491 42.6321V39.5353H107.458V38.916H108.491V37.4708H109.213V38.916H110.349V39.5353H109.213V42.6321C109.213 43.1482 109.42 43.4579 109.936 43.4579H110.349ZM113.755 43.4579V44.0773C113.652 44.0773 113.445 44.0773 113.239 44.0773C112.31 44.0773 111.897 43.5612 111.897 42.6321V39.5353H110.865V38.916H111.897V37.4708H112.62V38.916H113.755V39.5353H112.62V42.6321C112.62 43.1482 112.826 43.4579 113.342 43.4579H113.755ZM119.639 41.8063H115.407C115.407 42.3224 115.613 42.7353 115.923 43.1482C116.232 43.4579 116.645 43.6644 117.162 43.6644C117.574 43.6644 117.884 43.5611 118.194 43.3547C118.503 43.1482 118.71 42.9418 118.813 42.5289H119.536C119.329 43.045 119.123 43.4579 118.71 43.7676C118.297 44.0773 117.781 44.2837 117.162 44.2837C116.336 44.2837 115.716 43.9741 115.303 43.4579C114.891 42.9418 114.581 42.3224 114.581 41.5999C114.581 40.8773 114.787 40.2579 115.303 39.7418C115.82 39.2257 116.336 38.916 117.162 38.916C117.884 38.916 118.503 39.1224 118.916 39.6386C119.329 40.1547 119.639 40.774 119.639 41.4966V41.8063ZM117.162 39.5353C116.645 39.5353 116.232 39.7418 115.923 40.0515C115.613 40.3611 115.407 40.7741 115.303 41.2902H118.813C118.813 40.7741 118.607 40.3611 118.297 40.0515C118.091 39.7418 117.678 39.5353 117.162 39.5353ZM123.768 39.0192V39.7418C123.665 39.7418 123.562 39.7418 123.562 39.7418C123.149 39.7418 122.736 39.845 122.426 40.1547C122.116 40.4644 122.013 40.7741 122.013 41.2902V44.1805H121.291V39.0192H122.013V39.845C122.116 39.6386 122.323 39.4321 122.632 39.2257C122.942 39.0192 123.252 39.0192 123.665 39.0192H123.768ZM131.82 39.9482V39.0192H132.542V43.8708C132.542 44.5934 132.336 45.2128 131.923 45.6257C131.51 46.0386 130.891 46.3482 130.168 46.3482C129.445 46.3482 128.929 46.1418 128.516 45.8321C128.103 45.5224 127.897 45.1095 127.794 44.6966H128.516C128.62 45.0063 128.826 45.2128 129.136 45.4192C129.445 45.6257 129.755 45.7289 130.168 45.7289C130.684 45.7289 131.097 45.6257 131.407 45.316C131.716 45.0063 131.82 44.5934 131.82 44.0773V43.1482C131.407 43.8708 130.787 44.1805 129.858 44.1805C129.136 44.1805 128.516 43.9741 128.103 43.4579C127.691 42.9418 127.484 42.3224 127.484 41.5999C127.484 40.8773 127.691 40.2579 128.103 39.7418C128.516 39.2257 129.136 39.0192 129.858 39.0192C130.787 38.916 131.407 39.2257 131.82 39.9482ZM131.303 42.9418C131.613 42.5289 131.82 42.116 131.82 41.4966C131.82 40.8773 131.613 40.4644 131.303 40.0515C130.994 39.6386 130.581 39.5353 129.962 39.5353C129.342 39.5353 128.929 39.7418 128.62 40.0515C128.31 40.4644 128.103 40.8773 128.103 41.4966C128.103 42.0128 128.31 42.5289 128.62 42.9418C128.929 43.3547 129.445 43.5611 129.962 43.5611C130.581 43.4579 130.994 43.3547 131.303 42.9418ZM137.91 41.4966L136.155 41.7031C135.639 41.8063 135.329 41.9095 135.123 42.0128C134.916 42.2192 134.813 42.4257 134.813 42.6321C134.813 42.9418 134.916 43.2515 135.123 43.3547C135.329 43.4579 135.639 43.5611 135.949 43.5611C136.568 43.5611 136.981 43.3547 137.291 43.045C137.6 42.7353 137.807 42.3224 137.807 42.0128V41.4966H137.91ZM135.949 44.2837C135.329 44.2837 134.916 44.1805 134.607 43.8708C134.297 43.5611 134.194 43.2515 134.194 42.7353C134.194 41.9095 134.813 41.3934 136.155 41.187L137.91 40.9805V40.8773C137.91 40.0515 137.394 39.5353 136.465 39.5353C135.639 39.5353 135.123 39.845 135.02 40.5676H134.297C134.4 40.0515 134.607 39.6386 134.916 39.4321C135.226 39.1224 135.742 39.0192 136.465 39.0192C137.187 39.0192 137.703 39.2257 138.116 39.5353C138.426 39.845 138.632 40.3611 138.632 40.9805V43.2515C138.632 43.7676 138.632 44.0773 138.736 44.2837H138.013C137.91 44.0773 137.91 43.7676 137.91 43.4579C137.497 43.9741 136.878 44.2837 135.949 44.2837ZM144.723 41.187V44.1805H144V41.0837C144 40.6708 143.897 40.2579 143.691 39.9482C143.484 39.6386 143.174 39.5353 142.762 39.5353C142.349 39.5353 141.936 39.6386 141.729 39.9482C141.42 40.2579 141.316 40.5676 141.316 41.0837V44.1805H140.594V39.0192H141.316V39.845C141.626 39.2257 142.142 38.916 142.968 38.916C143.794 38.916 144.31 39.2257 144.62 39.9482C144.826 39.6386 145.032 39.4321 145.342 39.2257C145.652 39.0192 146.065 38.916 146.478 38.916C147.097 38.916 147.51 39.1224 147.82 39.4321C148.129 39.7418 148.336 40.2579 148.336 40.8773V44.1805H147.613V41.0837C147.613 40.6708 147.51 40.2579 147.303 39.9482C147.097 39.6386 146.787 39.5353 146.374 39.5353C145.962 39.5353 145.549 39.6386 145.342 39.9482C144.826 40.2579 144.723 40.6708 144.723 41.187ZM154.736 41.8063H150.503C150.503 42.3224 150.71 42.7353 151.02 43.1482C151.329 43.4579 151.742 43.6644 152.258 43.6644C152.671 43.6644 152.981 43.5611 153.291 43.3547C153.6 43.1482 153.807 42.9418 153.91 42.5289H154.632C154.529 43.045 154.22 43.4579 153.807 43.7676C153.394 44.0773 152.878 44.2837 152.258 44.2837C151.432 44.2837 150.813 43.9741 150.4 43.4579C149.987 42.9418 149.678 42.3224 149.678 41.5999C149.678 40.8773 149.884 40.2579 150.4 39.7418C150.916 39.2257 151.432 38.916 152.258 38.916C153.084 38.916 153.6 39.1224 154.013 39.6386C154.426 40.1547 154.736 40.774 154.736 41.4966V41.8063ZM152.258 39.5353C151.742 39.5353 151.329 39.7418 151.02 40.0515C150.71 40.3611 150.503 40.7741 150.4 41.2902H153.91C153.91 40.7741 153.703 40.3611 153.394 40.0515C153.187 39.7418 152.774 39.5353 152.258 39.5353ZM158.039 44.2837C157.316 44.2837 156.8 44.0773 156.491 43.7676C156.181 43.4579 155.974 43.045 155.974 42.5289H156.697C156.697 42.8386 156.903 43.1482 157.11 43.3547C157.316 43.5611 157.626 43.6644 158.142 43.6644C158.555 43.6644 158.865 43.5611 159.174 43.4579C159.484 43.3547 159.484 43.045 159.484 42.8386C159.484 42.5289 159.381 42.3224 159.174 42.2192C158.968 42.116 158.658 42.0128 158.349 41.9095C158.039 41.9095 157.729 41.8063 157.42 41.7031C157.11 41.5999 156.8 41.4966 156.594 41.2902C156.387 41.0837 156.284 40.7741 156.284 40.3611C156.284 39.9482 156.491 39.6386 156.8 39.3289C157.11 39.0192 157.626 38.916 158.245 38.916C158.865 38.916 159.381 39.1224 159.691 39.4321C160 39.7418 160.207 40.1547 160.207 40.5676H159.484C159.484 40.2579 159.278 40.0515 159.071 39.845C158.865 39.6386 158.555 39.5353 158.142 39.5353C157.729 39.5353 157.42 39.6386 157.213 39.7418C157.007 39.9482 156.903 40.1547 156.903 40.3611C156.903 40.5676 157.007 40.7741 157.11 40.8773C157.316 40.9805 157.42 41.0837 157.729 41.0837C158.039 41.0837 158.245 41.187 158.452 41.187C158.762 41.2902 158.968 41.2902 159.174 41.3934C159.381 41.4966 159.587 41.5999 159.794 41.8063C160 42.0128 160 42.3224 160 42.6321C160 43.045 159.794 43.3547 159.484 43.6644C159.174 44.0773 158.658 44.2837 158.039 44.2837Z" fill="white"/>
<mask id="mask0" mask-type="alpha" maskUnits="userSpaceOnUse" x="55" y="35" width="106" height="12">
<g opacity="0.8">
<path opacity="0.8" d="M55.3292 35.6128H160.62V46.9676H55.3292V35.6128Z" fill="white"/>
<path opacity="0.8" d="M57.0841 36.9547L59.6647 40.2579L62.2454 36.9547H62.968V44.0773H62.2454V38.1934L59.768 41.3934L57.2905 38.1934V44.0773H56.568V36.9547H57.0841ZM68.4389 41.4966L66.6841 41.7031C66.168 41.8063 65.8583 41.9095 65.6518 42.0128C65.4454 42.2192 65.3422 42.4257 65.3422 42.6321C65.3422 42.9418 65.4454 43.2515 65.6518 43.3547C65.8583 43.4579 66.168 43.5611 66.4776 43.5611C67.097 43.5611 67.5099 43.3547 67.8196 43.045C68.1292 42.7353 68.3357 42.3224 68.3357 42.0128V41.4966H68.4389ZM66.4776 44.2837C65.8583 44.2837 65.4454 44.1805 65.1357 43.8708C64.826 43.5611 64.7228 43.2515 64.7228 42.7353C64.7228 41.9095 65.3422 41.3934 66.6841 41.187L68.4389 40.9805V40.8773C68.4389 40.0515 67.9228 39.5353 66.9938 39.5353C66.168 39.5353 65.6518 39.845 65.5486 40.5676H64.826C64.9293 40.0515 65.1357 39.6386 65.4454 39.4321C65.7551 39.1224 66.2712 39.0192 66.9938 39.0192C67.7163 39.0192 68.2325 39.2257 68.6454 39.5353C68.9551 39.845 69.1615 40.3611 69.1615 40.9805V43.2515C69.1615 43.7676 69.1615 44.0773 69.2647 44.2837H68.5422C68.4389 44.0773 68.4389 43.7676 68.4389 43.4579C68.1293 43.9741 67.4067 44.2837 66.4776 44.2837ZM74.6325 39.0192H75.5615L73.3938 41.0837L75.6647 44.0773H74.7357L72.7744 41.5999L71.6389 42.7353V44.1805H70.9163V36.645H71.6389V41.9095L74.6325 39.0192ZM77.3163 37.7805C77.1099 37.7805 77.0067 37.7805 76.9034 37.6773C76.8002 37.5741 76.8002 37.4708 76.8002 37.3676C76.8002 37.2644 76.8002 37.0579 76.9034 36.9547C77.0067 36.8515 77.1099 36.8515 77.3163 36.8515C77.4196 36.8515 77.626 36.8515 77.7293 36.9547C77.8325 37.0579 77.8325 37.1611 77.8325 37.3676C77.8325 37.5741 77.8325 37.6773 77.7293 37.6773C77.5228 37.6773 77.4196 37.7805 77.3163 37.7805ZM76.9034 44.1805V39.0192H77.626V44.1805H76.9034ZM80.3099 39.0192V39.845C80.4131 39.6386 80.6196 39.4321 80.9293 39.2257C81.2389 39.0192 81.5486 38.916 82.0647 38.916C82.6841 38.916 83.2002 39.1224 83.5099 39.4321C83.8196 39.845 84.026 40.2579 84.026 40.8773V44.1805H83.3034V41.0837C83.3034 40.5676 83.2002 40.2579 82.9938 39.9482C82.7873 39.6386 82.4776 39.5353 81.9615 39.5353C81.5486 39.5353 81.1357 39.6386 80.826 39.9482C80.5163 40.2579 80.4131 40.5676 80.4131 41.0837V44.1805H79.6905V39.0192H80.3099ZM89.9099 39.9482V39.0192H90.6325V43.8708C90.6325 44.5934 90.426 45.2128 90.0131 45.6257C89.6002 46.0386 88.9809 46.3482 88.2583 46.3482C87.5357 46.3482 87.0196 46.1418 86.6067 45.8321C86.1938 45.5224 85.9873 45.1095 85.8841 44.6966H86.6067C86.7099 45.0063 86.9163 45.2128 87.226 45.4192C87.5357 45.6257 87.8454 45.7289 88.2583 45.7289C88.7744 45.7289 89.1873 45.6257 89.497 45.316C89.8067 45.0063 89.9099 44.5934 89.9099 44.0773V43.1482C89.497 43.8708 88.8776 44.1805 87.9486 44.1805C87.226 44.1805 86.6067 43.9741 86.1938 43.4579C85.7809 42.9418 85.5744 42.3224 85.5744 41.5999C85.5744 40.8773 85.7809 40.2579 86.1938 39.7418C86.6067 39.2257 87.226 39.0192 87.9486 39.0192C88.8776 38.916 89.497 39.2257 89.9099 39.9482ZM89.3938 42.9418C89.7034 42.5289 89.9099 42.116 89.9099 41.4966C89.9099 40.8773 89.7034 40.4644 89.3938 40.0515C89.0841 39.6386 88.6712 39.5353 88.0518 39.5353C87.5357 39.5353 87.0196 39.7418 86.7099 40.0515C86.4002 40.4644 86.1938 40.8773 86.1938 41.4966C86.1938 42.0128 86.4002 42.5289 86.7099 42.9418C87.0196 43.3547 87.5357 43.5611 88.0518 43.5611C88.6712 43.4579 89.0841 43.3547 89.3938 42.9418ZM96.1034 39.9482C96.5163 39.2257 97.1357 38.916 98.0647 38.916C98.7873 38.916 99.4067 39.2257 99.8196 39.7418C100.232 40.2579 100.439 40.8773 100.439 41.5999C100.439 42.3224 100.232 42.9418 99.8196 43.4579C99.4067 43.9741 98.7873 44.2837 98.0647 44.2837C97.1357 44.2837 96.5163 43.9741 96.1034 43.2515V44.1805H95.3809V36.645H96.1034V39.9482ZM96.1034 41.5999C96.1034 42.2192 96.3099 42.6321 96.6196 43.045C96.9292 43.4579 97.3422 43.6644 97.9615 43.6644C98.5809 43.6644 98.9938 43.4579 99.3034 43.045C99.6131 42.6321 99.8196 42.2192 99.8196 41.5999C99.8196 40.9805 99.6131 40.5676 99.3034 40.1547C98.9938 39.7418 98.4776 39.5353 97.9615 39.5353C97.4454 39.5353 96.9292 39.7418 96.6196 40.1547C96.2067 40.4644 96.1034 40.9805 96.1034 41.5999ZM106.632 41.8063H102.4C102.4 42.3224 102.607 42.7353 102.916 43.1482C103.226 43.5612 103.639 43.6644 104.155 43.6644C104.568 43.6644 104.878 43.5611 105.187 43.3547C105.497 43.1482 105.703 42.9418 105.807 42.5289H106.529C106.323 43.045 106.116 43.4579 105.703 43.7676C105.291 44.0773 104.774 44.2837 104.155 44.2837C103.329 44.2837 102.71 43.9741 102.297 43.4579C101.884 42.9418 101.574 42.3224 101.574 41.5999C101.574 40.8773 101.781 40.2579 102.297 39.7418C102.813 39.2257 103.329 38.916 104.155 38.916C104.878 38.916 105.497 39.1224 105.91 39.6386C106.323 40.1547 106.632 40.774 106.632 41.4966V41.8063ZM104.155 39.5353C103.639 39.5353 103.226 39.7418 102.916 40.0515C102.607 40.3611 102.4 40.7741 102.297 41.2902H105.807C105.807 40.7741 105.6 40.3611 105.291 40.0515C105.084 39.7418 104.671 39.5353 104.155 39.5353ZM110.349 43.4579V44.0773C110.245 44.0773 110.039 44.0773 109.832 44.0773C108.903 44.0773 108.491 43.5612 108.491 42.6321V39.5353H107.458V38.916H108.491V37.4708H109.213V38.916H110.349V39.5353H109.213V42.6321C109.213 43.1482 109.42 43.4579 109.936 43.4579H110.349ZM113.755 43.4579V44.0773C113.652 44.0773 113.445 44.0773 113.239 44.0773C112.31 44.0773 111.897 43.5612 111.897 42.6321V39.5353H110.865V38.916H111.897V37.4708H112.62V38.916H113.755V39.5353H112.62V42.6321C112.62 43.1482 112.826 43.4579 113.342 43.4579H113.755ZM119.639 41.8063H115.407C115.407 42.3224 115.613 42.7353 115.923 43.1482C116.232 43.4579 116.645 43.6644 117.162 43.6644C117.574 43.6644 117.884 43.5611 118.194 43.3547C118.503 43.1482 118.71 42.9418 118.813 42.5289H119.536C119.329 43.045 119.123 43.4579 118.71 43.7676C118.297 44.0773 117.781 44.2837 117.162 44.2837C116.336 44.2837 115.716 43.9741 115.303 43.4579C114.891 42.9418 114.581 42.3224 114.581 41.5999C114.581 40.8773 114.787 40.2579 115.303 39.7418C115.82 39.2257 116.336 38.916 117.162 38.916C117.884 38.916 118.503 39.1224 118.916 39.6386C119.329 40.1547 119.639 40.774 119.639 41.4966V41.8063ZM117.162 39.5353C116.645 39.5353 116.232 39.7418 115.923 40.0515C115.613 40.3611 115.407 40.7741 115.303 41.2902H118.813C118.813 40.7741 118.607 40.3611 118.297 40.0515C118.091 39.7418 117.678 39.5353 117.162 39.5353ZM123.768 39.0192V39.7418C123.665 39.7418 123.562 39.7418 123.562 39.7418C123.149 39.7418 122.736 39.845 122.426 40.1547C122.116 40.4644 122.013 40.7741 122.013 41.2902V44.1805H121.291V39.0192H122.013V39.845C122.116 39.6386 122.323 39.4321 122.632 39.2257C122.942 39.0192 123.252 39.0192 123.665 39.0192H123.768ZM131.82 39.9482V39.0192H132.542V43.8708C132.542 44.5934 132.336 45.2128 131.923 45.6257C131.51 46.0386 130.891 46.3482 130.168 46.3482C129.445 46.3482 128.929 46.1418 128.516 45.8321C128.103 45.5224 127.897 45.1095 127.794 44.6966H128.516C128.62 45.0063 128.826 45.2128 129.136 45.4192C129.445 45.6257 129.755 45.7289 130.168 45.7289C130.684 45.7289 131.097 45.6257 131.407 45.316C131.716 45.0063 131.82 44.5934 131.82 44.0773V43.1482C131.407 43.8708 130.787 44.1805 129.858 44.1805C129.136 44.1805 128.516 43.9741 128.103 43.4579C127.691 42.9418 127.484 42.3224 127.484 41.5999C127.484 40.8773 127.691 40.2579 128.103 39.7418C128.516 39.2257 129.136 39.0192 129.858 39.0192C130.787 38.916 131.407 39.2257 131.82 39.9482ZM131.303 42.9418C131.613 42.5289 131.82 42.116 131.82 41.4966C131.82 40.8773 131.613 40.4644 131.303 40.0515C130.994 39.6386 130.581 39.5353 129.962 39.5353C129.342 39.5353 128.929 39.7418 128.62 40.0515C128.31 40.4644 128.103 40.8773 128.103 41.4966C128.103 42.0128 128.31 42.5289 128.62 42.9418C128.929 43.3547 129.445 43.5611 129.962 43.5611C130.581 43.4579 130.994 43.3547 131.303 42.9418ZM137.91 41.4966L136.155 41.7031C135.639 41.8063 135.329 41.9095 135.123 42.0128C134.916 42.2192 134.813 42.4257 134.813 42.6321C134.813 42.9418 134.916 43.2515 135.123 43.3547C135.329 43.4579 135.639 43.5611 135.949 43.5611C136.568 43.5611 136.981 43.3547 137.291 43.045C137.6 42.7353 137.807 42.3224 137.807 42.0128V41.4966H137.91ZM135.949 44.2837C135.329 44.2837 134.916 44.1805 134.607 43.8708C134.297 43.5611 134.194 43.2515 134.194 42.7353C134.194 41.9095 134.813 41.3934 136.155 41.187L137.91 40.9805V40.8773C137.91 40.0515 137.394 39.5353 136.465 39.5353C135.639 39.5353 135.123 39.845 135.02 40.5676H134.297C134.4 40.0515 134.607 39.6386 134.916 39.4321C135.226 39.1224 135.742 39.0192 136.465 39.0192C137.187 39.0192 137.703 39.2257 138.116 39.5353C138.426 39.845 138.632 40.3611 138.632 40.9805V43.2515C138.632 43.7676 138.632 44.0773 138.736 44.2837H138.013C137.91 44.0773 137.91 43.7676 137.91 43.4579C137.497 43.9741 136.878 44.2837 135.949 44.2837ZM144.723 41.187V44.1805H144V41.0837C144 40.6708 143.897 40.2579 143.691 39.9482C143.484 39.6386 143.174 39.5353 142.762 39.5353C142.349 39.5353 141.936 39.6386 141.729 39.9482C141.42 40.2579 141.316 40.5676 141.316 41.0837V44.1805H140.594V39.0192H141.316V39.845C141.626 39.2257 142.142 38.916 142.968 38.916C143.794 38.916 144.31 39.2257 144.62 39.9482C144.826 39.6386 145.032 39.4321 145.342 39.2257C145.652 39.0192 146.065 38.916 146.478 38.916C147.097 38.916 147.51 39.1224 147.82 39.4321C148.129 39.7418 148.336 40.2579 148.336 40.8773V44.1805H147.613V41.0837C147.613 40.6708 147.51 40.2579 147.303 39.9482C147.097 39.6386 146.787 39.5353 146.374 39.5353C145.962 39.5353 145.549 39.6386 145.342 39.9482C144.826 40.2579 144.723 40.6708 144.723 41.187ZM154.736 41.8063H150.503C150.503 42.3224 150.71 42.7353 151.02 43.1482C151.329 43.4579 151.742 43.6644 152.258 43.6644C152.671 43.6644 152.981 43.5611 153.291 43.3547C153.6 43.1482 153.807 42.9418 153.91 42.5289H154.632C154.529 43.045 154.22 43.4579 153.807 43.7676C153.394 44.0773 152.878 44.2837 152.258 44.2837C151.432 44.2837 150.813 43.9741 150.4 43.4579C149.987 42.9418 149.678 42.3224 149.678 41.5999C149.678 40.8773 149.884 40.2579 150.4 39.7418C150.916 39.2257 151.432 38.916 152.258 38.916C153.084 38.916 153.6 39.1224 154.013 39.6386C154.426 40.1547 154.736 40.774 154.736 41.4966V41.8063ZM152.258 39.5353C151.742 39.5353 151.329 39.7418 151.02 40.0515C150.71 40.3611 150.503 40.7741 150.4 41.2902H153.91C153.91 40.7741 153.703 40.3611 153.394 40.0515C153.187 39.7418 152.774 39.5353 152.258 39.5353ZM158.039 44.2837C157.316 44.2837 156.8 44.0773 156.491 43.7676C156.181 43.4579 155.974 43.045 155.974 42.5289H156.697C156.697 42.8386 156.903 43.1482 157.11 43.3547C157.316 43.5611 157.626 43.6644 158.142 43.6644C158.555 43.6644 158.865 43.5611 159.174 43.4579C159.484 43.3547 159.484 43.045 159.484 42.8386C159.484 42.5289 159.381 42.3224 159.174 42.2192C158.968 42.116 158.658 42.0128 158.349 41.9095C158.039 41.9095 157.729 41.8063 157.42 41.7031C157.11 41.5999 156.8 41.4966 156.594 41.2902C156.387 41.0837 156.284 40.7741 156.284 40.3611C156.284 39.9482 156.491 39.6386 156.8 39.3289C157.11 39.0192 157.626 38.916 158.245 38.916C158.865 38.916 159.381 39.1224 159.691 39.4321C160 39.7418 160.207 40.1547 160.207 40.5676H159.484C159.484 40.2579 159.278 40.0515 159.071 39.845C158.865 39.6386 158.555 39.5353 158.142 39.5353C157.729 39.5353 157.42 39.6386 157.213 39.7418C157.007 39.9482 156.903 40.1547 156.903 40.3611C156.903 40.5676 157.007 40.7741 157.11 40.8773C157.316 40.9805 157.42 41.0837 157.729 41.0837C158.039 41.0837 158.245 41.187 158.452 41.187C158.762 41.2902 158.968 41.2902 159.174 41.3934C159.381 41.4966 159.587 41.5999 159.794 41.8063C160 42.0128 160 42.3224 160 42.6321C160 43.045 159.794 43.3547 159.484 43.6644C159.174 44.0773 158.658 44.2837 158.039 44.2837Z" fill="black"/>
</g>
</mask>
<g mask="url(#mask0)">
<path opacity="0.8" d="M57.0841 36.9547L59.6647 40.2579L62.2454 36.9547H62.968V44.0773H62.2454V38.1934L59.768 41.3934L57.2905 38.1934V44.0773H56.568V36.9547H57.0841V36.9547ZM68.4389 41.4966L66.6841 41.7031C66.168 41.8063 65.8583 41.9095 65.6518 42.0128C65.4454 42.2192 65.3422 42.4257 65.3422 42.6321C65.3422 42.9418 65.4454 43.2515 65.6518 43.3547C65.8583 43.4579 66.168 43.5611 66.4776 43.5611C67.097 43.5611 67.5099 43.3547 67.8196 43.045C68.1292 42.7353 68.3357 42.3224 68.3357 42.0128V41.4966H68.4389ZM66.4776 44.2837C65.8583 44.2837 65.4454 44.1805 65.1357 43.8708C64.826 43.5611 64.7228 43.2515 64.7228 42.7353C64.7228 41.9095 65.3422 41.3934 66.6841 41.187L68.4389 40.9805V40.8773C68.4389 40.0515 67.9228 39.5353 66.9938 39.5353C66.168 39.5353 65.6518 39.845 65.5486 40.5676H64.826C64.9293 40.0515 65.1357 39.6386 65.4454 39.4321C65.7551 39.1224 66.2712 39.0192 66.9938 39.0192C67.7163 39.0192 68.2325 39.2257 68.6454 39.5353C68.9551 39.845 69.1615 40.3611 69.1615 40.9805V43.2515C69.1615 43.7676 69.1615 44.0773 69.2647 44.2837H68.5422C68.4389 44.0773 68.4389 43.7676 68.4389 43.4579C68.1293 43.9741 67.4067 44.2837 66.4776 44.2837ZM74.6325 39.0192H75.5615L73.3938 41.0837L75.6647 44.0773H74.7357L72.7744 41.5999L71.6389 42.7353V44.1805H70.9163V36.645H71.6389V41.9095L74.6325 39.0192ZM77.3163 37.7805C77.1099 37.7805 77.0067 37.7805 76.9034 37.6773C76.8002 37.5741 76.8002 37.4708 76.8002 37.3676C76.8002 37.2644 76.8002 37.0579 76.9034 36.9547C77.0067 36.8515 77.1099 36.8515 77.3163 36.8515C77.4196 36.8515 77.626 36.8515 77.7293 36.9547C77.8325 37.0579 77.8325 37.1611 77.8325 37.3676C77.8325 37.5741 77.8325 37.6773 77.7293 37.6773C77.5228 37.6773 77.4196 37.7805 77.3163 37.7805ZM76.9034 44.1805V39.0192H77.626V44.1805H76.9034ZM80.3099 39.0192V39.845C80.4131 39.6386 80.6196 39.4321 80.9293 39.2257C81.2389 39.0192 81.5486 38.916 82.0647 38.916C82.6841 38.916 83.2002 39.1224 83.5099 39.4321C83.8196 39.845 84.026 40.2579 84.026 40.8773V44.1805H83.3034V41.0837C83.3034 40.5676 83.2002 40.2579 82.9938 39.9482C82.7873 39.6386 82.4776 39.5353 81.9615 39.5353C81.5486 39.5353 81.1357 39.6386 80.826 39.9482C80.5163 40.2579 80.4131 40.5676 80.4131 41.0837V44.1805H79.6905V39.0192H80.3099ZM89.9099 39.9482V39.0192H90.6325V43.8708C90.6325 44.5934 90.426 45.2128 90.0131 45.6257C89.6002 46.0386 88.9809 46.3482 88.2583 46.3482C87.5357 46.3482 87.0196 46.1418 86.6067 45.8321C86.1938 45.5224 85.9873 45.1095 85.8841 44.6966H86.6067C86.7099 45.0063 86.9163 45.2128 87.226 45.4192C87.5357 45.6257 87.8454 45.7289 88.2583 45.7289C88.7744 45.7289 89.1873 45.6257 89.497 45.316C89.8067 45.0063 89.9099 44.5934 89.9099 44.0773V43.1482C89.497 43.8708 88.8776 44.1805 87.9486 44.1805C87.226 44.1805 86.6067 43.9741 86.1938 43.4579C85.7809 42.9418 85.5744 42.3224 85.5744 41.5999C85.5744 40.8773 85.7809 40.2579 86.1938 39.7418C86.6067 39.2257 87.226 39.0192 87.9486 39.0192C88.8776 38.916 89.497 39.2257 89.9099 39.9482ZM89.3938 42.9418C89.7034 42.5289 89.9099 42.116 89.9099 41.4966C89.9099 40.8773 89.7034 40.4644 89.3938 40.0515C89.0841 39.6386 88.6712 39.5353 88.0518 39.5353C87.5357 39.5353 87.0196 39.7418 86.7099 40.0515C86.4002 40.4644 86.1938 40.8773 86.1938 41.4966C86.1938 42.0128 86.4002 42.5289 86.7099 42.9418C87.0196 43.3547 87.5357 43.5611 88.0518 43.5611C88.6712 43.4579 89.0841 43.3547 89.3938 42.9418ZM96.1034 39.9482C96.5163 39.2257 97.1357 38.916 98.0647 38.916C98.7873 38.916 99.4067 39.2257 99.8196 39.7418C100.232 40.2579 100.439 40.8773 100.439 41.5999C100.439 42.3224 100.232 42.9418 99.8196 43.4579C99.4067 43.9741 98.7873 44.2837 98.0647 44.2837C97.1357 44.2837 96.5163 43.9741 96.1034 43.2515V44.1805H95.3809V36.645H96.1034V39.9482ZM96.1034 41.5999C96.1034 42.2192 96.3099 42.6321 96.6196 43.045C96.9292 43.4579 97.3422 43.6644 97.9615 43.6644C98.5809 43.6644 98.9938 43.4579 99.3034 43.045C99.6131 42.6321 99.8196 42.2192 99.8196 41.5999C99.8196 40.9805 99.6131 40.5676 99.3034 40.1547C98.9938 39.7418 98.4776 39.5353 97.9615 39.5353C97.4454 39.5353 96.9292 39.7418 96.6196 40.1547C96.2067 40.4644 96.1034 40.9805 96.1034 41.5999ZM106.632 41.8063H102.4C102.4 42.3224 102.607 42.7353 102.916 43.1482C103.226 43.5612 103.639 43.6644 104.155 43.6644C104.568 43.6644 104.878 43.5611 105.187 43.3547C105.497 43.1482 105.703 42.9418 105.807 42.5289H106.529C106.323 43.045 106.116 43.4579 105.703 43.7676C105.291 44.0773 104.774 44.2837 104.155 44.2837C103.329 44.2837 102.71 43.9741 102.297 43.4579C101.884 42.9418 101.574 42.3224 101.574 41.5999C101.574 40.8773 101.781 40.2579 102.297 39.7418C102.813 39.2257 103.329 38.916 104.155 38.916C104.878 38.916 105.497 39.1224 105.91 39.6386C106.323 40.1547 106.632 40.774 106.632 41.4966V41.8063ZM104.155 39.5353C103.639 39.5353 103.226 39.7418 102.916 40.0515C102.607 40.3611 102.4 40.7741 102.297 41.2902H105.807C105.807 40.7741 105.6 40.3611 105.291 40.0515C105.084 39.7418 104.671 39.5353 104.155 39.5353ZM110.349 43.4579V44.0773C110.245 44.0773 110.039 44.0773 109.832 44.0773C108.903 44.0773 108.491 43.5612 108.491 42.6321V39.5353H107.458V38.916H108.491V37.4708H109.213V38.916H110.349V39.5353H109.213V42.6321C109.213 43.1482 109.42 43.4579 109.936 43.4579H110.349ZM113.755 43.4579V44.0773C113.652 44.0773 113.445 44.0773 113.239 44.0773C112.31 44.0773 111.897 43.5612 111.897 42.6321V39.5353H110.865V38.916H111.897V37.4708H112.62V38.916H113.755V39.5353H112.62V42.6321C112.62 43.1482 112.826 43.4579 113.342 43.4579H113.755ZM119.639 41.8063H115.407C115.407 42.3224 115.613 42.7353 115.923 43.1482C116.232 43.4579 116.645 43.6644 117.162 43.6644C117.574 43.6644 117.884 43.5611 118.194 43.3547C118.503 43.1482 118.71 42.9418 118.813 42.5289H119.536C119.329 43.045 119.123 43.4579 118.71 43.7676C118.297 44.0773 117.781 44.2837 117.162 44.2837C116.336 44.2837 115.716 43.9741 115.303 43.4579C114.891 42.9418 114.581 42.3224 114.581 41.5999C114.581 40.8773 114.787 40.2579 115.303 39.7418C115.82 39.2257 116.336 38.916 117.162 38.916C117.884 38.916 118.503 39.1224 118.916 39.6386C119.329 40.1547 119.639 40.774 119.639 41.4966V41.8063ZM117.162 39.5353C116.645 39.5353 116.232 39.7418 115.923 40.0515C115.613 40.3611 115.407 40.7741 115.303 41.2902H118.813C118.813 40.7741 118.607 40.3611 118.297 40.0515C118.091 39.7418 117.678 39.5353 117.162 39.5353ZM123.768 39.0192V39.7418C123.665 39.7418 123.562 39.7418 123.562 39.7418C123.149 39.7418 122.736 39.845 122.426 40.1547C122.116 40.4644 122.013 40.7741 122.013 41.2902V44.1805H121.291V39.0192H122.013V39.845C122.116 39.6386 122.323 39.4321 122.632 39.2257C122.942 39.0192 123.252 39.0192 123.665 39.0192H123.768ZM131.82 39.9482V39.0192H132.542V43.8708C132.542 44.5934 132.336 45.2128 131.923 45.6257C131.51 46.0386 130.891 46.3482 130.168 46.3482C129.445 46.3482 128.929 46.1418 128.516 45.8321C128.103 45.5224 127.897 45.1095 127.794 44.6966H128.516C128.62 45.0063 128.826 45.2128 129.136 45.4192C129.445 45.6257 129.755 45.7289 130.168 45.7289C130.684 45.7289 131.097 45.6257 131.407 45.316C131.716 45.0063 131.82 44.5934 131.82 44.0773V43.1482C131.407 43.8708 130.787 44.1805 129.858 44.1805C129.136 44.1805 128.516 43.9741 128.103 43.4579C127.691 42.9418 127.484 42.3224 127.484 41.5999C127.484 40.8773 127.691 40.2579 128.103 39.7418C128.516 39.2257 129.136 39.0192 129.858 39.0192C130.787 38.916 131.407 39.2257 131.82 39.9482ZM131.303 42.9418C131.613 42.5289 131.82 42.116 131.82 41.4966C131.82 40.8773 131.613 40.4644 131.303 40.0515C130.994 39.6386 130.581 39.5353 129.961 39.5353C129.342 39.5353 128.929 39.7418 128.62 40.0515C128.31 40.4644 128.103 40.8773 128.103 41.4966C128.103 42.0128 128.31 42.5289 128.62 42.9418C128.929 43.3547 129.445 43.5611 129.961 43.5611C130.581 43.4579 130.994 43.3547 131.303 42.9418ZM137.91 41.4966L136.155 41.7031C135.639 41.8063 135.329 41.9095 135.123 42.0128C134.916 42.2192 134.813 42.4257 134.813 42.6321C134.813 42.9418 134.916 43.2515 135.123 43.3547C135.329 43.4579 135.639 43.5611 135.949 43.5611C136.568 43.5611 136.981 43.3547 137.291 43.045C137.6 42.7353 137.807 42.3224 137.807 42.0128V41.4966H137.91ZM135.949 44.2837C135.329 44.2837 134.916 44.1805 134.607 43.8708C134.297 43.5611 134.194 43.2515 134.194 42.7353C134.194 41.9095 134.813 41.3934 136.155 41.187L137.91 40.9805V40.8773C137.91 40.0515 137.394 39.5353 136.465 39.5353C135.639 39.5353 135.123 39.845 135.02 40.5676H134.297C134.4 40.0515 134.607 39.6386 134.916 39.4321C135.226 39.1224 135.742 39.0192 136.465 39.0192C137.187 39.0192 137.703 39.2257 138.116 39.5353C138.426 39.845 138.632 40.3611 138.632 40.9805V43.2515C138.632 43.7676 138.632 44.0773 138.736 44.2837H138.013C137.91 44.0773 137.91 43.7676 137.91 43.4579C137.497 43.9741 136.878 44.2837 135.949 44.2837ZM144.723 41.187V44.1805H144V41.0837C144 40.6708 143.897 40.2579 143.691 39.9482C143.484 39.6386 143.174 39.5353 142.762 39.5353C142.349 39.5353 141.936 39.6386 141.729 39.9482C141.42 40.2579 141.316 40.5676 141.316 41.0837V44.1805H140.594V39.0192H141.316V39.845C141.626 39.2257 142.142 38.916 142.968 38.916C143.794 38.916 144.31 39.2257 144.62 39.9482C144.826 39.6386 145.032 39.4321 145.342 39.2257C145.652 39.0192 146.065 38.916 146.478 38.916C147.097 38.916 147.51 39.1224 147.82 39.4321C148.129 39.7418 148.336 40.2579 148.336 40.8773V44.1805H147.613V41.0837C147.613 40.6708 147.51 40.2579 147.303 39.9482C147.097 39.6386 146.787 39.5353 146.374 39.5353C145.962 39.5353 145.549 39.6386 145.342 39.9482C144.826 40.2579 144.723 40.6708 144.723 41.187ZM154.736 41.8063H150.503C150.503 42.3224 150.71 42.7353 151.02 43.1482C151.329 43.4579 151.742 43.6644 152.258 43.6644C152.671 43.6644 152.981 43.5611 153.291 43.3547C153.6 43.1482 153.807 42.9418 153.91 42.5289H154.632C154.529 43.045 154.22 43.4579 153.807 43.7676C153.394 44.0773 152.878 44.2837 152.258 44.2837C151.432 44.2837 150.813 43.9741 150.4 43.4579C149.987 42.9418 149.678 42.3224 149.678 41.5999C149.678 40.8773 149.884 40.2579 150.4 39.7418C150.916 39.2257 151.432 38.916 152.258 38.916C153.084 38.916 153.6 39.1224 154.013 39.6386C154.426 40.1547 154.736 40.774 154.736 41.4966V41.8063ZM152.258 39.5353C151.742 39.5353 151.329 39.7418 151.02 40.0515C150.71 40.3611 150.503 40.7741 150.4 41.2902H153.91C153.91 40.7741 153.703 40.3611 153.394 40.0515C153.187 39.7418 152.774 39.5353 152.258 39.5353ZM158.039 44.2837C157.316 44.2837 156.8 44.0773 156.491 43.7676C156.181 43.4579 155.974 43.045 155.974 42.5289H156.697C156.697 42.8386 156.903 43.1482 157.11 43.3547C157.316 43.5611 157.626 43.6644 158.142 43.6644C158.555 43.6644 158.865 43.5611 159.174 43.4579C159.484 43.3547 159.484 43.045 159.484 42.8386C159.484 42.5289 159.381 42.3224 159.174 42.2192C158.968 42.116 158.658 42.0128 158.349 41.9095C158.039 41.9095 157.729 41.8063 157.42 41.7031C157.11 41.5999 156.8 41.4966 156.594 41.2902C156.387 41.0837 156.284 40.7741 156.284 40.3611C156.284 39.9482 156.491 39.6386 156.8 39.3289C157.11 39.0192 157.626 38.916 158.245 38.916C158.865 38.916 159.381 39.1224 159.691 39.4321C160 39.7418 160.207 40.1547 160.207 40.5676H159.484C159.484 40.2579 159.278 40.0515 159.071 39.845C158.865 39.6386 158.555 39.5353 158.142 39.5353C157.729 39.5353 157.42 39.6386 157.213 39.7418C157.007 39.9482 156.903 40.1547 156.903 40.3611C156.903 40.5676 157.007 40.7741 157.11 40.8773C157.316 40.9805 157.42 41.0837 157.729 41.0837C158.039 41.0837 158.245 41.187 158.452 41.187C158.762 41.2902 158.968 41.2902 159.174 41.3934C159.381 41.4966 159.587 41.5999 159.794 41.8063C160 42.0128 160 42.3224 160 42.6321C160 43.045 159.794 43.3547 159.484 43.6644C159.174 44.0773 158.658 44.2837 158.039 44.2837Z" stroke="white" stroke-width="0.6"/>
</g>
</g>
<path d="M30.6583 0.516113C26.3228 0.516113 21.6776 1.54837 17.9615 2.99353C13.7292 4.74837 8.87761 7.22579 5.47116 10.529C7.01955 9.59999 8.87761 8.67095 11.0454 7.94837C14.3486 6.81289 20.7486 4.33547 24.4647 7.32902C28.1808 10.3226 28.0776 17.0322 27.1486 22.1935C26.2195 27.2516 24.4647 33.8581 19.5099 35.5097C14.555 37.0581 9.39374 32.8258 6.19374 29.6258C5.05826 28.4903 3.81955 27.3548 2.78729 26.0129C5.36794 30.2451 10.0131 33.7548 12.697 36.0258C21.9873 43.7677 26.8389 46.9677 30.555 45.5226C37.6776 42.6322 40.2583 33.8581 41.8066 26.9419C43.355 20.0258 45.5228 9.18708 41.1873 4.12902C38.9163 1.54837 34.9937 0.516113 30.6583 0.516113Z" fill="url(#paint0_linear)"/>
<mask id="mask1" mask-type="alpha" maskUnits="userSpaceOnUse" x="0" y="0" width="45" height="47">
<path d="M18.7873 2.6839C21.7808 1.75487 25.8066 0.619385 29.8324 0.619385C30.1421 0.619385 30.4518 0.619385 30.7615 0.619385C29.7292 0.825836 28.6969 0.929062 27.7679 1.13551C23.3292 1.85809 16.826 3.71616 15.2776 8.671C13.7292 13.6258 18.0647 18.8904 21.6776 22.6065C25.2905 26.2194 30.7615 30.2452 35.3034 28.9033C39.8453 27.5613 41.4969 20.8516 42.426 17.4452C43.1485 14.8645 43.5614 12.5936 43.5614 10.5291C43.6647 11.0452 43.8711 11.6645 43.8711 12.2839C44.3873 16.3097 43.355 22.0904 42.5292 26.0129C40.7743 33.7549 37.4711 43.7678 29.7292 45.8323C21.9873 47.8968 14.4518 40.8774 9.60016 35.6129C4.85178 30.3484 -1.23855 23.742 0.413066 16.2065C1.44532 12.0774 7.3292 6.40003 18.7873 2.6839Z" fill="white"/>
</mask>
<g mask="url(#mask1)">
<path d="M61.4194 61.3159L-17.5484 46.1417L1.03226 -20.8518L80.1032 -5.67761L61.4194 61.3159Z" fill="url(#paint1_linear)"/>
</g>
<mask id="mask2" mask-type="alpha" maskUnits="userSpaceOnUse" x="0" y="0" width="45" height="47">
<path d="M18.7873 2.6839C21.7808 1.75487 25.8066 0.619385 29.8324 0.619385C30.1421 0.619385 30.4518 0.619385 30.7615 0.619385C29.7292 0.825836 28.6969 0.929062 27.7679 1.13551C23.3292 1.85809 16.826 3.71616 15.2776 8.671C13.7292 13.6258 18.0647 18.8904 21.6776 22.6065C25.2905 26.2194 30.7615 30.2452 35.3034 28.9033C39.8453 27.5613 41.4969 20.8516 42.426 17.4452C43.1485 14.8645 43.5614 12.5936 43.5614 10.5291C43.6647 11.0452 43.8711 11.6645 43.8711 12.2839C44.3873 16.3097 43.355 22.0904 42.5292 26.0129C40.7743 33.7549 37.4711 43.7678 29.7292 45.8323C21.9873 47.8968 14.4518 40.8774 9.60016 35.6129C4.85178 30.3484 -1.23855 23.742 0.413066 16.2065C1.44532 12.0774 7.3292 6.40003 18.7873 2.6839Z" fill="white"/>
</mask>
<g mask="url(#mask2)">
<path d="M-2.37399 -4.12915V49.1354H53.8841V-4.12915H-2.37399Z" fill="url(#paint2_linear)"/>
</g>
<mask id="mask3" mask-type="alpha" maskUnits="userSpaceOnUse" x="3" y="25" width="30" height="21">
<path d="M32.103 28.9031C33.2385 34.3741 32.9288 39.9483 28.6966 43.6644C27.6643 44.5935 26.4256 45.316 25.1869 45.9354C19.0966 45.0064 13.5224 39.7419 9.70303 35.5096C7.63851 33.2386 5.26431 30.658 3.40625 27.8709C4.23206 28.0773 4.95464 28.1806 5.78044 28.387C11.7675 29.5225 19.9224 30.0386 23.7417 26.4257C24.1546 26.0128 24.4643 25.5999 24.774 25.187C26.9417 26.9419 29.5224 28.4902 32.103 28.9031Z" fill="white"/>
</mask>
<g mask="url(#mask3)">
<path d="M86.1935 42.942L4.74838 66.271L-23.7419 -2.47736L57.7032 -25.8064L86.1935 42.942Z" fill="url(#paint3_linear)"/>
</g>
<mask id="mask4" mask-type="alpha" maskUnits="userSpaceOnUse" x="3" y="22" width="34" height="25">
<path d="M32.103 28.9032C38.2966 29.729 36.3353 41.6 32.103 45.3161C31.0708 46.2451 27.3546 48 25.1869 45.8322C19.0966 44.9032 13.5224 39.6387 9.70303 35.4064C7.63851 33.1354 5.26431 30.5548 3.40625 27.7677C4.23206 27.9741 4.74819 25.8064 5.57399 26.0129C11.5611 27.1483 12.6966 26.2193 16.5159 22.7096C16.9288 22.2967 24.4643 25.6 24.774 25.1871C26.9417 26.9419 29.5224 28.4903 32.103 28.9032Z" fill="white"/>
</mask>
<g mask="url(#mask4)">
<path d="M-2.3741 7.01915V7.63851C-2.16765 7.43206 -1.85797 7.2256 -1.65152 7.12238C-0.825713 6.50302 0.10332 5.78044 1.13558 5.05786C-0.103132 5.57399 -1.23862 6.29657 -2.3741 7.01915ZM23.742 12.903C24.8775 16.3095 27.4582 22.8127 23.6388 26.4256C19.8194 30.0385 11.7678 29.5224 5.67751 28.3869C3.09687 27.8708 0.206545 27.2514 -2.47733 26.2192V44.903C-1.13539 45.2127 0.309771 45.5224 1.54848 45.8321C9.80654 47.6901 21.9872 49.5482 28.5936 43.7675C35.2001 37.9869 32.2065 27.6643 29.1098 20.2321C27.5614 16.4127 24.9807 11.045 21.7807 7.94819C21.2646 7.43206 20.8517 7.01915 20.3356 6.70947C21.7807 8.25786 22.9162 10.3224 23.742 12.903Z" fill="url(#paint4_linear)"/>
</g>
</g>
<defs>
<linearGradient id="paint0_linear" x1="47.2782" y1="25.3849" x2="16.8706" y2="21.3675" gradientUnits="userSpaceOnUse">
<stop stop-color="#000056"/>
<stop offset="1" stop-color="#1010CB"/>
</linearGradient>
<linearGradient id="paint1_linear" x1="26.0078" y1="46.8218" x2="55.4839" y2="-103.023" gradientUnits="userSpaceOnUse">
<stop stop-color="#01F5FC"/>
<stop offset="1" stop-color="#1010CB"/>
</linearGradient>
<linearGradient id="paint2_linear" x1="25.7207" y1="1.07715" x2="25.7207" y2="49.0913" gradientUnits="userSpaceOnUse">
<stop stop-color="#01F5FC"/>
<stop offset="1" stop-color="#1010CB"/>
</linearGradient>
<linearGradient id="paint3_linear" x1="39.4362" y1="48.4697" x2="-3.55841" y2="-99.4824" gradientUnits="userSpaceOnUse">
<stop stop-color="#00FFFD"/>
<stop offset="1" stop-color="#1010CB"/>
</linearGradient>
<linearGradient id="paint4_linear" x1="-17.6863" y1="15.7131" x2="38.3451" y2="36.5257" gradientUnits="userSpaceOnUse">
<stop stop-color="#00FFFD"/>
<stop offset="1" stop-color="#1010CB"/>
</linearGradient>
<clipPath id="clip0">
<rect width="160" height="47.4839" fill="white"/>
</clipPath>
</defs>
</svg>
