<svg width="160" height="80" viewBox="0 0 160 80" fill="none" xmlns="http://www.w3.org/2000/svg">
<path fill-rule="evenodd" clip-rule="evenodd" d="M9.218 48.594L11.172 49.794C11.3334 49.8905 11.5171 49.9433 11.7051 49.9471C11.8931 49.951 12.0788 49.9058 12.244 49.816C12.408 49.7275 12.5456 49.597 12.6424 49.4377C12.7393 49.2785 12.7919 49.0963 12.795 48.91V35.532C12.797 35.3488 12.847 35.1693 12.94 35.0113C13.033 34.8534 13.1657 34.7227 13.325 34.632L30.355 25L34.772 27.51L17.7 37.176C17.5413 37.267 17.4092 37.398 17.3167 37.5559C17.2243 37.7137 17.1747 37.8931 17.173 38.076V57.459L4.712 50.374C4.49788 50.2532 4.31935 50.0781 4.19436 49.8664C4.06937 49.6547 4.00234 49.4138 4 49.168V30.59C4.00204 30.4068 4.05204 30.2273 4.14502 30.0693C4.23801 29.9114 4.37074 29.7807 4.53 29.69L21.568 20L25.985 22.51L8.922 32.129C8.76083 32.2198 8.62655 32.3516 8.53276 32.5111C8.43898 32.6706 8.38904 32.852 8.388 33.037V47.118C8.38976 47.4141 8.46676 47.7049 8.61178 47.9631C8.75679 48.2213 8.96605 48.4384 9.218 48.594Z" fill="#1DE9B6"/>
<path fill-rule="evenodd" clip-rule="evenodd" d="M34.6259 42.2054L30.117 44.7784C29.9012 44.9029 29.722 45.0819 29.597 45.2974C29.4721 45.5128 29.4059 45.7573 29.4049 46.0064V50.2454L38.427 45.0774C38.6421 44.9532 38.821 44.7749 38.9459 44.5602C39.0708 44.3455 39.1373 44.1018 39.139 43.8534V31.3964C39.1363 31.2117 39.0858 31.0308 38.9923 30.8715C38.8989 30.7122 38.7657 30.5798 38.6058 30.4873C38.4459 30.3948 38.2648 30.3453 38.0801 30.3438C37.8953 30.3422 37.7134 30.3886 37.552 30.4784L22.1049 39.3364C21.9443 39.43 21.811 39.564 21.718 39.725C21.6251 39.886 21.5758 40.0685 21.575 40.2544V60.0004L25.042 58.0004C25.2571 57.8762 25.436 57.6979 25.5609 57.4832C25.6858 57.2685 25.7523 57.0248 25.7539 56.7764V43.0484C25.7544 42.8628 25.8033 42.6805 25.8957 42.5195C25.9881 42.3585 26.1209 42.2244 26.2809 42.1304L35.181 36.9734V41.2734C35.1801 41.4642 35.1282 41.6512 35.0306 41.8151C34.933 41.979 34.7933 42.1138 34.6259 42.2054Z" fill="#1DE9B6"/>
<path d="M59.943 31.6289H62.306V38.7009C62.3406 39.4989 62.2121 40.2956 61.9282 41.0421C61.6443 41.7887 61.2111 42.4695 60.655 43.0429C60.0859 43.5972 59.4081 44.0276 58.6645 44.3069C57.9208 44.5863 57.1273 44.7085 56.334 44.6659C55.5407 44.7027 54.7483 44.577 54.0053 44.2968C53.2623 44.0165 52.5843 43.5874 52.013 43.0359C51.461 42.4596 51.0305 41.7783 50.7469 41.0324C50.4633 40.2866 50.3324 39.4913 50.362 38.6939V31.6289H52.722V38.7009C52.6924 39.1933 52.7639 39.6865 52.932 40.1502C53.1001 40.6139 53.3612 41.0384 53.6994 41.3974C54.0375 41.7565 54.4456 42.0426 54.8984 42.2382C55.3512 42.4338 55.8392 42.5347 56.3325 42.5347C56.8257 42.5347 57.3138 42.4338 57.7666 42.2382C58.2194 42.0426 58.6274 41.7565 58.9656 41.3974C59.3038 41.0384 59.5649 40.6139 59.733 40.1502C59.9011 39.6865 59.9725 39.1933 59.943 38.7009V31.6289Z" fill="white"/>
<path d="M69.689 41.6325C70.1716 41.6623 70.6552 41.5944 71.1109 41.4329C71.5666 41.2713 71.985 41.0195 72.341 40.6925C73.0325 39.891 73.378 38.8482 73.302 37.7925C73.4074 36.6592 73.0622 35.53 72.341 34.6495C71.9884 34.3182 71.5701 34.0647 71.1133 33.9053C70.6564 33.746 70.1712 33.6844 69.689 33.7245C69.2082 33.6931 68.7259 33.7588 68.271 33.9177C67.8161 34.0767 67.3978 34.3255 67.041 34.6495C66.7084 35.0091 66.4517 35.4322 66.2866 35.8934C66.1215 36.3546 66.0512 36.8444 66.08 37.3335V48.6335H63.717V37.3325C63.7491 36.1539 64.1196 35.0095 64.7842 34.0357C65.4489 33.0619 66.3797 32.2999 67.4656 31.8407C68.5515 31.3815 69.7466 31.2444 70.9082 31.4458C72.0699 31.6472 73.1491 32.1785 74.017 32.9765C74.6006 33.628 75.0482 34.3896 75.3336 35.2164C75.619 36.0432 75.7364 36.9187 75.679 37.7915C75.7381 39.1477 75.3857 40.4901 74.668 41.6425C74.0676 42.5494 73.1957 43.2432 72.177 43.6245C70.5796 44.2492 68.8 44.2172 67.226 43.5355V40.8655C67.9278 41.4096 68.8024 41.682 69.689 41.6325Z" fill="white"/>
<path d="M85.628 43.2772C84.8173 43.5773 83.9584 43.7257 83.094 43.7152C82.3008 43.7516 81.5085 43.6258 80.7655 43.3455C80.0226 43.0652 79.3446 42.6364 78.773 42.0852C78.2199 41.5089 77.7887 40.827 77.505 40.0803C77.2213 39.3336 77.0911 38.5374 77.122 37.7392C77.0749 36.9034 77.1968 36.0666 77.4805 35.279C77.7641 34.4914 78.2038 33.7691 78.773 33.1552C79.3393 32.5974 80.0168 32.1652 80.7613 31.8867C81.5058 31.6083 82.3006 31.4899 83.094 31.5392C83.8861 31.5023 84.6774 31.6265 85.4202 31.9043C86.1629 32.1821 86.8415 32.6076 87.415 33.1552C87.9829 33.77 88.4216 34.4925 88.7052 35.2799C88.9888 36.0673 89.1115 36.9036 89.066 37.7392V42.5332C89.1001 43.3283 88.9727 44.1221 88.6913 44.8665C88.4099 45.6109 87.9805 46.2905 87.429 46.8642C86.8622 47.4197 86.1869 47.8521 85.4452 48.1345C84.7036 48.4169 83.9117 48.5431 83.119 48.5052H79.428V46.1422H83.119C83.5899 46.1891 84.0653 46.1332 84.5124 45.9784C84.9596 45.8236 85.3678 45.5737 85.709 45.2458C86.0501 44.9178 86.316 44.5198 86.4883 44.0791C86.6606 43.6384 86.7352 43.1656 86.707 42.6932C86.6887 42.7009 86.6728 42.7133 86.661 42.7292L86.697 42.6932V38.3372C86.7005 38.3063 86.7005 38.2751 86.697 38.2442V37.7392C86.7382 37.2142 86.6741 36.6862 86.5084 36.1863C86.3427 35.6864 86.0787 35.2247 85.732 34.8282C85.3779 34.5001 84.9601 34.2483 84.5045 34.0885C84.049 33.9287 83.5655 33.8643 83.084 33.8992C82.6029 33.8686 82.1205 33.935 81.6656 34.0946C81.2107 34.2542 80.7925 34.5037 80.436 34.8282C80.0911 35.2258 79.8283 35.6877 79.6629 36.1873C79.4974 36.6869 79.4325 37.2144 79.472 37.7392C79.4234 38.2253 79.4834 38.7161 79.6475 39.1762C79.8117 39.6363 80.076 40.0542 80.4212 40.3998C80.7665 40.7454 81.1842 41.01 81.6442 41.1745C82.1041 41.339 82.5949 41.3994 83.081 41.3512C83.9805 41.3951 84.87 41.1452 85.615 40.6392L85.628 43.2772Z" fill="white"/>
<path d="M99.24 40.9V43.747C99.2406 43.7512 99.2403 43.7555 99.2391 43.7596C99.238 43.7637 99.2361 43.7675 99.2335 43.7708C99.2309 43.7742 99.2277 43.777 99.224 43.7791C99.2203 43.7812 99.2162 43.7825 99.212 43.783L97.432 43.997C96.368 44.1372 95.2859 44.0023 94.289 43.605C93.2706 43.2211 92.399 42.5263 91.798 41.619C91.0807 40.4667 90.7295 39.1239 90.791 37.768C90.7438 36.9321 90.8657 36.0954 91.1494 35.3077C91.4331 34.5201 91.8727 33.7978 92.442 33.184C93.0083 32.6262 93.6858 32.1939 94.4303 31.9155C95.1748 31.637 95.9696 31.5186 96.763 31.568C97.5623 31.5172 98.3632 31.6373 99.1124 31.9202C99.8617 32.203 100.542 32.6423 101.108 33.2086C101.675 33.7749 102.114 34.4553 102.397 35.2045C102.68 35.9538 102.8 36.7547 102.749 37.554V43.747H100.389V37.555C100.417 37.0656 100.347 36.5756 100.181 36.1143C100.015 35.6531 99.7575 35.2301 99.424 34.871C99.0679 34.5459 98.6498 34.296 98.1948 34.1364C97.7397 33.9767 97.2572 33.9106 96.776 33.942C96.2938 33.9113 95.8102 33.9771 95.3537 34.1354C94.8971 34.2937 94.4767 34.5414 94.117 34.864C93.7707 35.2607 93.507 35.7225 93.3413 36.2223C93.1756 36.7221 93.1113 37.25 93.152 37.775C93.1112 38.2983 93.1756 38.8245 93.3413 39.3225C93.5071 39.8206 93.7708 40.2804 94.117 40.675C94.471 41.0038 94.8886 41.2568 95.3439 41.4185C95.7993 41.5801 96.2829 41.647 96.765 41.615C97.6338 41.6614 98.4915 41.402 99.189 40.882C99.1902 40.8787 99.192 40.8757 99.1943 40.8731C99.1967 40.8705 99.1995 40.8684 99.2027 40.8669C99.2058 40.8654 99.2093 40.8646 99.2127 40.8644C99.2162 40.8643 99.2197 40.8648 99.223 40.866C99.2263 40.8672 99.2293 40.869 99.2319 40.8713C99.2345 40.8737 99.2366 40.8765 99.238 40.8797C99.2395 40.8828 99.2404 40.8862 99.2405 40.8897C99.2407 40.8932 99.2402 40.8967 99.239 40.9H99.24Z" fill="white"/>
<path d="M114.49 33.2608C114.994 32.7298 115.602 32.307 116.275 32.018C116.948 31.7291 117.673 31.5801 118.405 31.5801C119.137 31.5801 119.862 31.7291 120.535 32.018C121.208 32.307 121.816 32.7298 122.32 33.2608C123.307 34.4593 123.814 35.981 123.744 37.5318V43.7498H121.384V37.5568C121.449 36.5694 121.146 35.5928 120.533 34.8158C119.964 34.255 119.197 33.9407 118.397 33.9407C117.598 33.9407 116.831 34.255 116.262 34.8158C115.658 35.597 115.361 36.5718 115.426 37.5568V43.7498H113.041V37.5568C113.106 36.5718 112.809 35.597 112.205 34.8158C111.636 34.255 110.869 33.9407 110.069 33.9407C109.27 33.9407 108.503 34.255 107.934 34.8158C107.324 35.594 107.022 36.57 107.087 37.5568V43.7498H104.72V37.5568C104.647 36.0056 105.154 34.4827 106.144 33.2858C106.648 32.7534 107.255 32.3293 107.928 32.0394C108.601 31.7496 109.326 31.6001 110.059 31.6001C110.792 31.6001 111.517 31.7496 112.19 32.0394C112.863 32.3293 113.47 32.7534 113.974 33.2858C114.059 33.3858 114.141 33.4858 114.216 33.5858L114.49 33.2608Z" fill="white"/>
<path d="M128.068 43.7467H125.712V32.9847C125.712 32.6719 125.836 32.3719 126.057 32.1503C126.278 31.9288 126.577 31.8038 126.89 31.8027C127.204 31.8027 127.504 31.9273 127.726 32.1489C127.947 32.3706 128.072 32.6712 128.072 32.9847L128.068 43.7467Z" fill="white"/>
<path d="M142.438 43.7502H140.075V37.5572C140.104 37.0681 140.034 36.5782 139.869 36.1169C139.704 35.6556 139.447 35.2325 139.114 34.8732C138.362 34.2709 137.427 33.9427 136.464 33.9427C135.501 33.9427 134.566 34.2709 133.814 34.8732C133.48 35.2319 133.222 35.6548 133.056 36.1162C132.891 36.5776 132.821 37.0678 132.85 37.5572V43.7502H130.49V37.5572C130.456 36.7574 130.584 35.959 130.868 35.2103C131.151 34.4616 131.583 33.7781 132.138 33.2012C132.705 32.6438 133.383 32.2119 134.128 31.9335C134.873 31.6551 135.668 31.5364 136.462 31.5852C137.26 31.5331 138.059 31.6519 138.808 31.9336C139.556 32.2153 140.235 32.6534 140.8 33.2187C141.366 33.784 141.804 34.4634 142.086 35.2116C142.367 35.9598 142.486 36.7594 142.434 37.5572L142.438 43.7502Z" fill="white"/>
<path d="M152.891 43.2773C152.081 43.5774 151.223 43.7259 150.36 43.7153C149.566 43.7521 148.773 43.6266 148.03 43.3463C147.286 43.066 146.608 42.6369 146.036 42.0853C145.484 41.5083 145.053 40.8264 144.77 40.0798C144.486 39.3332 144.355 38.5373 144.385 37.7393C144.338 36.9034 144.46 36.0667 144.743 35.2791C145.027 34.4914 145.467 33.7691 146.036 33.1553C146.603 32.5973 147.281 32.165 148.026 31.8866C148.771 31.6082 149.566 31.4898 150.36 31.5393C151.152 31.5028 151.943 31.6272 152.686 31.9049C153.429 32.1827 154.107 32.608 154.681 33.1553C155.25 33.7694 155.689 34.4918 155.973 35.2793C156.256 36.0669 156.379 36.9035 156.332 37.7393V42.5333C156.366 43.3287 156.238 44.1227 155.956 44.8672C155.674 45.6117 155.244 46.2911 154.691 46.8643C154.124 47.4193 153.449 47.8515 152.707 48.1338C151.965 48.4162 151.174 48.5426 150.381 48.5053H146.69V46.1423H150.381C150.852 46.19 151.328 46.1347 151.775 45.9803C152.223 45.8258 152.631 45.5759 152.973 45.2478C153.314 44.9197 153.58 44.5212 153.752 44.0801C153.924 43.6391 153.998 43.1658 153.969 42.6933C153.951 42.7018 153.936 42.7141 153.923 42.7293L153.959 42.6933V38.3373C153.963 38.3064 153.963 38.2752 153.959 38.2443V37.7393C154 37.2146 153.936 36.6869 153.771 36.1872C153.606 35.6874 153.343 35.2255 152.998 34.8283C152.644 34.4999 152.226 34.248 151.771 34.0881C151.315 33.9283 150.832 33.864 150.35 33.8993C149.868 33.8689 149.385 33.9354 148.93 34.095C148.474 34.2546 148.055 34.5039 147.698 34.8283C147.353 35.2256 147.09 35.6876 146.925 36.1873C146.76 36.687 146.696 37.2146 146.737 37.7393C146.688 38.2257 146.748 38.7169 146.913 39.1773C147.077 39.6377 147.342 40.0559 147.687 40.4015C148.033 40.7472 148.451 41.0117 148.912 41.1759C149.372 41.3402 149.864 41.4001 150.35 41.3513C151.248 41.3948 152.136 41.1449 152.88 40.6393L152.891 43.2773Z" fill="white"/>
</svg>
