<svg width="160" height="80" viewBox="0 0 160 80" fill="none" xmlns="http://www.w3.org/2000/svg">
<g clip-path="url(#clip0_9227_20)">
<path d="M55.48 30.3701C53.6 30.3701 51.96 31.5101 51.3 33.2701L46.56 45.9201C46.54 45.9801 46.48 46.1301 46.26 46.1301C46.04 46.1301 45.98 45.9801 45.96 45.9201L41.22 33.2701C40.56 31.5101 38.92 30.3701 37.04 30.3701C35.16 30.3701 33.52 31.5101 32.86 33.2701L26.48 50.2801H30.91L36.74 34.7301C36.76 34.6701 36.82 34.5201 37.04 34.5201C37.26 34.5201 37.32 34.6701 37.34 34.7301L42.08 47.3801C42.74 49.1401 44.38 50.2801 46.26 50.2801C48.14 50.2801 49.78 49.1401 50.44 47.3801L55.18 34.7301C55.2 34.6701 55.26 34.5201 55.48 34.5201C55.7 34.5201 55.76 34.6701 55.78 34.7301L61.61 50.2801H66.04L59.66 33.2701C59 31.5101 57.36 30.3701 55.48 30.3701Z" fill="url(#paint0_linear_9227_20)"/>
<path d="M55.48 30.3701C53.6 30.3701 51.96 31.5101 51.3 33.2701L46.56 45.9201C46.54 45.9801 46.48 46.1301 46.26 46.1301C46.04 46.1301 45.98 45.9801 45.96 45.9201L41.22 33.2701C40.56 31.5101 38.92 30.3701 37.04 30.3701C35.16 30.3701 33.52 31.5101 32.86 33.2701L26.48 50.2801H30.91L36.74 34.7301C36.76 34.6701 36.82 34.5201 37.04 34.5201C37.26 34.5201 37.32 34.6701 37.34 34.7301L42.08 47.3801C42.74 49.1401 44.38 50.2801 46.26 50.2801C48.14 50.2801 49.78 49.1401 50.44 47.3801L55.18 34.7301C55.2 34.6701 55.26 34.5201 55.48 34.5201C55.7 34.5201 55.76 34.6701 55.78 34.7301L61.61 50.2801H66.04L59.66 33.2701C59 31.5101 57.36 30.3701 55.48 30.3701Z" fill="white"/>
<path fill-rule="evenodd" clip-rule="evenodd" d="M14.75 33.2701C14.09 31.5101 12.45 30.3701 10.57 30.3701C8.69 30.3701 7.05 31.5101 6.39 33.2701L0 50.2701H4.58C5.79 48.2201 8.02 46.8501 10.56 46.8501C13.1 46.8501 15.33 48.2201 16.54 50.2701H21.12L14.74 33.2601L14.75 33.2701ZM10.56 42.7001C9.33 42.7001 8.15 42.9001 7.05 43.2701L10.26 34.7201C10.28 34.6601 10.34 34.5101 10.56 34.5101C10.78 34.5101 10.84 34.6601 10.86 34.7201L14.07 43.2701C12.97 42.9001 11.79 42.7001 10.56 42.7001Z" fill="url(#paint1_linear_9227_20)"/>
<path fill-rule="evenodd" clip-rule="evenodd" d="M14.75 33.2701C14.09 31.5101 12.45 30.3701 10.57 30.3701C8.69 30.3701 7.05 31.5101 6.39 33.2701L0 50.2701H4.58C5.79 48.2201 8.02 46.8501 10.56 46.8501C13.1 46.8501 15.33 48.2201 16.54 50.2701H21.12L14.74 33.2601L14.75 33.2701ZM10.56 42.7001C9.33 42.7001 8.15 42.9001 7.05 43.2701L10.26 34.7201C10.28 34.6601 10.34 34.5101 10.56 34.5101C10.78 34.5101 10.84 34.6601 10.86 34.7201L14.07 43.2701C12.97 42.9001 11.79 42.7001 10.56 42.7001Z" fill="white"/>
<path d="M119.29 37.4201C119.29 33.5301 116.13 30.3701 112.24 30.3701H106.64V34.5201H112.24C113.84 34.5201 115.14 35.8201 115.14 37.4201C115.14 39.0201 113.84 40.3201 112.24 40.3201H104.77C101.8 40.3201 99.38 42.7401 99.38 45.7101V50.2701H103.53V45.7101C103.53 45.0201 104.09 44.4701 104.77 44.4701H112.24C112.39 44.4701 112.55 44.4701 112.7 44.4501L114.88 50.2701H119.31L116.57 42.9701C118.22 41.6801 119.29 39.6701 119.29 37.4101V37.4201Z" fill="url(#paint2_linear_9227_20)"/>
<path d="M119.29 37.4201C119.29 33.5301 116.13 30.3701 112.24 30.3701H106.64V34.5201H112.24C113.84 34.5201 115.14 35.8201 115.14 37.4201C115.14 39.0201 113.84 40.3201 112.24 40.3201H104.77C101.8 40.3201 99.38 42.7401 99.38 45.7101V50.2701H103.53V45.7101C103.53 45.0201 104.09 44.4701 104.77 44.4701H112.24C112.39 44.4701 112.55 44.4701 112.7 44.4501L114.88 50.2701H119.31L116.57 42.9701C118.22 41.6801 119.29 39.6701 119.29 37.4101V37.4201Z" fill="white"/>
<path d="M132.06 30.3701H127.91V50.2701H132.06V30.3701Z" fill="url(#paint3_linear_9227_20)"/>
<path d="M132.06 30.3701H127.91V50.2701H132.06V30.3701Z" fill="white"/>
<path d="M160 30.3701H154.69L149.3 37.1101L143.91 30.3701H138.6L146.65 40.4301L138.77 50.2801H144.08L149.31 43.7501L154.53 50.2801H159.84L151.96 40.4301L160.01 30.3701H160Z" fill="url(#paint4_linear_9227_20)"/>
<path d="M160 30.3701H154.69L149.3 37.1101L143.91 30.3701H138.6L146.65 40.4301L138.77 50.2801H144.08L149.31 43.7501L154.53 50.2801H159.84L151.96 40.4301L160.01 30.3701H160Z" fill="white"/>
<path d="M104.29 31.6502C104.34 31.8002 104.29 31.9502 104.19 32.0502L103.23 32.9902C103.23 32.9902 103.17 33.0902 103.18 33.1402L103.41 34.4602C103.43 34.5802 103.4 34.6902 103.33 34.7802C103.25 34.8702 103.14 34.9202 103.03 34.9202C102.97 34.9202 102.91 34.9102 102.85 34.8702L101.66 34.2402C101.66 34.2402 101.55 34.2102 101.5 34.2402L100.31 34.8702C100.15 34.9602 99.94 34.9102 99.82 34.7702C99.75 34.6802 99.71 34.5702 99.74 34.4502L99.97 33.1302C99.98 33.0702 99.97 33.0202 99.92 32.9802L98.96 32.0402C98.85 31.9302 98.81 31.7802 98.86 31.6402C98.91 31.5002 99.03 31.3902 99.18 31.3702L100.51 31.1802C100.57 31.1802 100.62 31.1402 100.64 31.0802L101.24 29.8802C101.31 29.7502 101.44 29.6602 101.59 29.6602C101.74 29.6602 101.88 29.7502 101.94 29.8802L102.54 31.0802C102.56 31.1302 102.61 31.1702 102.67 31.1802L104 31.3702C104.15 31.3902 104.27 31.4902 104.32 31.6402L104.29 31.6502Z" fill="url(#paint5_linear_9227_20)"/>
<path d="M104.29 31.6502C104.34 31.8002 104.29 31.9502 104.19 32.0502L103.23 32.9902C103.23 32.9902 103.17 33.0902 103.18 33.1402L103.41 34.4602C103.43 34.5802 103.4 34.6902 103.33 34.7802C103.25 34.8702 103.14 34.9202 103.03 34.9202C102.97 34.9202 102.91 34.9102 102.85 34.8702L101.66 34.2402C101.66 34.2402 101.55 34.2102 101.5 34.2402L100.31 34.8702C100.15 34.9602 99.94 34.9102 99.82 34.7702C99.75 34.6802 99.71 34.5702 99.74 34.4502L99.97 33.1302C99.98 33.0702 99.97 33.0202 99.92 32.9802L98.96 32.0402C98.85 31.9302 98.81 31.7802 98.86 31.6402C98.91 31.5002 99.03 31.3902 99.18 31.3702L100.51 31.1802C100.57 31.1802 100.62 31.1402 100.64 31.0802L101.24 29.8802C101.31 29.7502 101.44 29.6602 101.59 29.6602C101.74 29.6602 101.88 29.7502 101.94 29.8802L102.54 31.0802C102.56 31.1302 102.61 31.1702 102.67 31.1802L104 31.3702C104.15 31.3902 104.27 31.4902 104.32 31.6402L104.29 31.6502Z" fill="white"/>
<path d="M85.44 43.3397L88.07 50.3397H92.5L89.08 41.2197C87.81 41.8997 86.6 42.5997 85.45 43.3397H85.44Z" fill="url(#paint6_linear_9227_20)"/>
<path d="M85.44 43.3397L88.07 50.3397H92.5L89.08 41.2197C87.81 41.8997 86.6 42.5997 85.45 43.3397H85.44Z" fill="white"/>
<path d="M97.03 33.2304C95.69 33.7104 94.39 34.2304 93.12 34.7904C91.23 35.6104 89.41 36.5004 87.67 37.4604L86.12 33.3404C85.81 32.4904 85.23 31.7504 84.49 31.2304C83.74 30.7104 82.85 30.4404 81.94 30.4404C81.03 30.4404 80.14 30.7104 79.39 31.2304C78.64 31.7504 78.07 32.4804 77.76 33.3404L71.38 50.3404H76.63C82.13 44.0504 88.7 38.5704 97.82 34.7304C99 34.2404 98.28 32.7904 97.04 33.2404L97.03 33.2304ZM83.94 39.6604C81.97 40.9104 80.08 42.2804 78.27 43.7404L81.63 34.7904C81.65 34.7304 81.71 34.5804 81.93 34.5804C82.15 34.5804 82.21 34.7304 82.23 34.7904L84.03 39.6004L83.94 39.6604Z" fill="url(#paint7_linear_9227_20)"/>
<path d="M97.03 33.2304C95.69 33.7104 94.39 34.2304 93.12 34.7904C91.23 35.6104 89.41 36.5004 87.67 37.4604L86.12 33.3404C85.81 32.4904 85.23 31.7504 84.49 31.2304C83.74 30.7104 82.85 30.4404 81.94 30.4404C81.03 30.4404 80.14 30.7104 79.39 31.2304C78.64 31.7504 78.07 32.4804 77.76 33.3404L71.38 50.3404H76.63C82.13 44.0504 88.7 38.5704 97.82 34.7304C99 34.2404 98.28 32.7904 97.04 33.2404L97.03 33.2304ZM83.94 39.6604C81.97 40.9104 80.08 42.2804 78.27 43.7404L81.63 34.7904C81.65 34.7304 81.71 34.5804 81.93 34.5804C82.15 34.5804 82.21 34.7304 82.23 34.7904L84.03 39.6004L83.94 39.6604Z" fill="white"/>
<path fill-rule="evenodd" clip-rule="evenodd" d="M104.31 31.6504C104.36 31.8004 104.31 31.9504 104.21 32.0604L103.25 33.0004C103.25 33.0004 103.19 33.1004 103.2 33.1504L103.43 34.4804C103.45 34.6004 103.42 34.7104 103.35 34.8004C103.27 34.8904 103.16 34.9404 103.05 34.9404C102.99 34.9404 102.92 34.9304 102.87 34.8904L101.68 34.2604C101.68 34.2604 101.57 34.2304 101.52 34.2604L100.33 34.8904C100.17 34.9804 99.96 34.9304 99.84 34.7904C99.77 34.7004 99.73 34.5904 99.76 34.4704L99.99 33.1404C100 33.0804 99.99 33.0304 99.94 32.9904L98.98 32.0504C98.87 31.9404 98.83 31.7904 98.88 31.6404C98.93 31.5004 99.05 31.3904 99.2 31.3704L100.53 31.1804C100.59 31.1804 100.64 31.1404 100.66 31.0804L101.26 29.8704C101.33 29.7304 101.46 29.6504 101.61 29.6504C101.76 29.6504 101.9 29.7404 101.96 29.8704L102.56 31.0804C102.58 31.1304 102.63 31.1704 102.69 31.1804L104.02 31.3704C104.17 31.3904 104.29 31.4904 104.34 31.6404L104.31 31.6504ZM97.83 34.8304C88.61 38.7004 82.19 43.9904 76.63 50.3304H76H71.33C72.54 48.9704 73.84 47.6404 75.22 46.3504C80.19 41.7304 86.27 37.7004 93.31 34.6504C94.6 34.0904 95.65 33.6504 97 33.1604C98.26 32.7104 99.03 34.3404 97.83 34.8304Z" fill="url(#paint8_linear_9227_20)"/>
</g>
<defs>
<linearGradient id="paint0_linear_9227_20" x1="89.35" y1="-16.2799" x2="65.26" y2="18.6801" gradientUnits="userSpaceOnUse">
<stop offset="0.02" stop-color="#FFCB15"/>
<stop offset="0.09" stop-color="#FFB525"/>
<stop offset="0.23" stop-color="#FF7D4E"/>
<stop offset="0.48" stop-color="#FF2490"/>
<stop offset="0.63" stop-color="#FF139D"/>
<stop offset="0.82" stop-color="#C81EE8"/>
<stop offset="1" stop-color="#BA22FE"/>
</linearGradient>
<linearGradient id="paint1_linear_9227_20" x1="65.15" y1="-32.9499" x2="41.06" y2="2.01012" gradientUnits="userSpaceOnUse">
<stop offset="0.02" stop-color="#FFCB15"/>
<stop offset="0.09" stop-color="#FFB525"/>
<stop offset="0.23" stop-color="#FF7D4E"/>
<stop offset="0.48" stop-color="#FF2490"/>
<stop offset="0.63" stop-color="#FF139D"/>
<stop offset="0.82" stop-color="#C81EE8"/>
<stop offset="1" stop-color="#BA22FE"/>
</linearGradient>
<linearGradient id="paint2_linear_9227_20" x1="131.81" y1="12.9801" x2="107.73" y2="47.9401" gradientUnits="userSpaceOnUse">
<stop offset="0.02" stop-color="#FFCB15"/>
<stop offset="0.09" stop-color="#FFB525"/>
<stop offset="0.23" stop-color="#FF7D4E"/>
<stop offset="0.48" stop-color="#FF2490"/>
<stop offset="0.63" stop-color="#FF139D"/>
<stop offset="0.82" stop-color="#C81EE8"/>
<stop offset="1" stop-color="#BA22FE"/>
</linearGradient>
<linearGradient id="paint3_linear_9227_20" x1="143.35" y1="20.9301" x2="119.27" y2="55.8901" gradientUnits="userSpaceOnUse">
<stop offset="0.02" stop-color="#FFCB15"/>
<stop offset="0.09" stop-color="#FFB525"/>
<stop offset="0.23" stop-color="#FF7D4E"/>
<stop offset="0.48" stop-color="#FF2490"/>
<stop offset="0.63" stop-color="#FF139D"/>
<stop offset="0.82" stop-color="#C81EE8"/>
<stop offset="1" stop-color="#BA22FE"/>
</linearGradient>
<linearGradient id="paint4_linear_9227_20" x1="156.39" y1="29.9101" x2="132.3" y2="64.8701" gradientUnits="userSpaceOnUse">
<stop offset="0.02" stop-color="#FFCB15"/>
<stop offset="0.09" stop-color="#FFB525"/>
<stop offset="0.23" stop-color="#FF7D4E"/>
<stop offset="0.48" stop-color="#FF2490"/>
<stop offset="0.63" stop-color="#FF139D"/>
<stop offset="0.82" stop-color="#C81EE8"/>
<stop offset="1" stop-color="#BA22FE"/>
</linearGradient>
<linearGradient id="paint5_linear_9227_20" x1="120.42" y1="5.13016" x2="96.34" y2="40.0902" gradientUnits="userSpaceOnUse">
<stop offset="0.02" stop-color="#FFCB15"/>
<stop offset="0.09" stop-color="#FFB525"/>
<stop offset="0.23" stop-color="#FF7D4E"/>
<stop offset="0.48" stop-color="#FF2490"/>
<stop offset="0.63" stop-color="#FF139D"/>
<stop offset="0.82" stop-color="#C81EE8"/>
<stop offset="1" stop-color="#BA22FE"/>
</linearGradient>
<linearGradient id="paint6_linear_9227_20" x1="118.58" y1="3.85973" x2="94.49" y2="38.8197" gradientUnits="userSpaceOnUse">
<stop offset="0.02" stop-color="#FFCB15"/>
<stop offset="0.09" stop-color="#FFB525"/>
<stop offset="0.23" stop-color="#FF7D4E"/>
<stop offset="0.48" stop-color="#FF2490"/>
<stop offset="0.63" stop-color="#FF139D"/>
<stop offset="0.82" stop-color="#C81EE8"/>
<stop offset="1" stop-color="#BA22FE"/>
</linearGradient>
<linearGradient id="paint7_linear_9227_20" x1="111.81" y1="-0.799568" x2="87.72" y2="34.1604" gradientUnits="userSpaceOnUse">
<stop offset="0.02" stop-color="#FFCB15"/>
<stop offset="0.09" stop-color="#FFB525"/>
<stop offset="0.23" stop-color="#FF7D4E"/>
<stop offset="0.48" stop-color="#FF2490"/>
<stop offset="0.63" stop-color="#FF139D"/>
<stop offset="0.82" stop-color="#C81EE8"/>
<stop offset="1" stop-color="#BA22FE"/>
</linearGradient>
<linearGradient id="paint8_linear_9227_20" x1="105.17" y1="35.1804" x2="91" y2="39.4204" gradientUnits="userSpaceOnUse">
<stop offset="0.02" stop-color="#FFCB15"/>
<stop offset="0.09" stop-color="#FFB525"/>
<stop offset="0.23" stop-color="#FF7D4E"/>
<stop offset="0.48" stop-color="#FF2490"/>
<stop offset="0.63" stop-color="#FF139D"/>
<stop offset="0.82" stop-color="#C81EE8"/>
<stop offset="1" stop-color="#BA22FE"/>
</linearGradient>
<clipPath id="clip0_9227_20">
<rect width="160" height="80" fill="white"/>
</clipPath>
</defs>
</svg>
