<svg width="160" height="80" viewBox="0 0 160 80" fill="none" xmlns="http://www.w3.org/2000/svg">
<g clip-path="url(#clip0_9817_21)">
<path d="M1.28 24.06C1.98692 24.06 2.56 23.4869 2.56 22.78C2.56 22.0731 1.98692 21.5 1.28 21.5C0.573075 21.5 0 22.0731 0 22.78C0 23.4869 0.573075 24.06 1.28 24.06Z" fill="white"/>
<path d="M42.81 7.98013L23.17 45.1701L27.51 19.5801C22.4 20.2401 17.15 21.1501 12.27 22.8301C11.68 23.0301 8.28999 24.4801 8.06999 24.4401C7.24999 24.3201 6.34999 21.5701 6.14999 20.8201C5.85999 19.7001 5.39999 17.7001 6.00999 16.6801C6.32999 16.1501 8.35999 15.2501 9.02999 14.9301C16.77 11.2101 28 8.50013 36.57 7.76013C38.64 7.58013 40.78 7.51013 42.81 7.98013Z" fill="white"/>
<path d="M40.75 37.47C43.07 37.03 45.55 36.17 47.87 35.85C48.03 35.83 48.17 35.77 48.13 36L34.79 68.26L36.96 47.01L28.72 48.74L28.85 47.84L47.86 12.21L40.75 37.47Z" fill="white"/>
<path d="M37.06 66.9602L37.65 65.0002C48.28 62.5602 56.59 53.9102 58.4 43.1302C60 33.6302 56.69 24.4202 49.65 18.0002C49.39 17.7602 48.15 16.9002 48.07 16.7502C47.92 16.4702 48.69 15.2602 48.84 14.9102C53.47 18.3302 56.98 23.0202 58.96 28.4402C63.84 41.8002 58.31 56.8402 46 63.7902C43.27 65.3302 40.18 66.4802 37.07 66.9602H37.06Z" fill="white"/>
<path d="M7.99 26.2995C7.03 28.2795 6.21 30.4095 5.75 32.5695C3.16 44.4695 8.75 56.7195 19.42 62.4295C23.71 64.7195 28.51 65.7395 33.38 65.5595L32.71 67.4895C22.43 67.7695 12.53 62.2595 7.36 53.4495C2.82 45.7095 1.89 36.6695 5.06 28.1995C5.37 27.3795 5.8 26.6095 6.04 25.7695L7.99 26.3095V26.2995Z" fill="white"/>
<path d="M2.98002 53.0999C2.98002 53.0999 3.32002 53.8599 3.41002 54.0199C7.91002 61.8799 14.97 68.0099 23.93 70.0999C23.98 70.1499 23.62 70.7099 23.58 70.7299C23.37 70.8599 21.14 70.1099 20.75 69.9599C12.8 67.0799 6.25002 61.0899 2.38002 53.6099C2.13002 53.1799 2.66002 52.8899 2.97002 53.0799L2.98002 53.0999Z" fill="white"/>
<path d="M62.99 27.1698H62.29C60.58 22.4998 57.57 17.7998 53.88 14.4298C52.4 13.0798 50.62 12.0598 49.32 10.5298L49.54 10.3098C49.66 10.2198 49.72 10.3098 49.81 10.3598C50.21 10.5398 51.11 11.2798 51.52 11.5798C54.5 13.7898 57.12 16.5598 59.21 19.6098C60.78 21.9098 62.18 24.4998 62.98 27.1698H62.99Z" fill="white"/>
<path d="M46.81 10.2997C47.5335 10.2997 48.12 9.71318 48.12 8.98969C48.12 8.26619 47.5335 7.67969 46.81 7.67969C46.0865 7.67969 45.5 8.26619 45.5 8.98969C45.5 9.71318 46.0865 10.2997 46.81 10.2997Z" fill="white"/>
<path d="M25.86 69.81C27.32 69.47 28.18 71.26 26.97 72.11C25.28 73.29 24.16 70.2 25.86 69.81Z" fill="white"/>
<path d="M45.4 12.7595L44.77 14.5895L42.6 13.6095L43.36 11.7695L45.4 12.7595Z" fill="white"/>
<path d="M123.53 31.7197L123.91 40.8297L126.84 31.7197H131.45L129.28 48.0997H125.92L127.27 37.3597L124.18 48.0997H121.58L121.41 37.3597L119.84 48.0997H116.48L118.76 31.7197H123.53Z" fill="white"/>
<path d="M137.63 48.0997L139.92 31.7297L143.23 31.8197L144.52 39.9697L145.77 31.7197H149.02L146.85 48.0997L143.5 48.0897L142.13 40.6097L141 48.0997H137.63Z" fill="white"/>
<path d="M104.54 37.6899H100.85C100.91 36.4999 101.32 35.3099 101.12 34.1099C100.26 33.6099 99.58 33.8899 99.36 34.8399C98.58 38.0999 98.65 41.9999 97.92 45.3299C97.94 46.0599 98.46 46.3099 99.12 46.0999C100.22 45.7599 99.91 42.8499 100.31 41.9199H99.33L99.57 39.8199L99.71 39.6399H104.21L103.13 48.0999H100.2L100.15 47.1199C99.15 48.3399 97.57 48.6699 96.08 48.2599C94.47 47.8199 94.16 46.2599 94.24 44.7899C94.38 42.1499 94.98 38.3399 95.45 35.6999C95.65 34.5799 95.86 33.4499 96.73 32.6499C98.14 31.3599 101.52 31.2199 103.21 31.9299C105.78 33.0099 104.67 35.5599 104.55 37.6999L104.54 37.6899Z" fill="white"/>
<path d="M159.66 37.6899H155.97C156.03 36.4999 156.44 35.3099 156.24 34.1099C155.38 33.6099 154.7 33.8899 154.48 34.8399C153.7 38.0999 153.76 42.0099 153.04 45.3299C153.06 46.0599 153.58 46.3099 154.24 46.0999C155.34 45.7599 155.03 42.8499 155.43 41.9199H154.45L154.69 39.8199L154.83 39.6399H159.33L158.25 48.0999H155.32L155.27 47.1199C154.27 48.3399 152.69 48.6699 151.2 48.2599C149.59 47.8199 149.28 46.2599 149.36 44.7899C149.5 42.1499 150.1 38.3399 150.57 35.6999C150.77 34.5799 150.98 33.4499 151.85 32.6499C153.26 31.3599 156.64 31.2199 158.33 31.9299C160.9 33.0099 159.79 35.5599 159.67 37.6999L159.66 37.6899Z" fill="white"/>
<path d="M80.03 31.7197L79.65 34.5397L73.52 48.0997H69.72L75.79 34.4297H71.02L71.35 31.7197H80.03Z" fill="white"/>
<path d="M89.68 31.7197L89.3 34.5397L83.17 48.0997H79.37L85.45 34.4297H80.68L81 31.7197H89.68Z" fill="white"/>
<path d="M137.63 31.7197L135.35 48.0997H131.56L133.84 31.7197H137.63Z" fill="white"/>
<path d="M114.52 31.7197L114.74 48.0897H110.51L110.62 45.3797L109.1 45.4297L108.34 48.0897H104.22L109.16 31.7197H114.53H114.52ZM110.84 43.5397L111.11 35.6197L109.32 43.5397H110.84Z" fill="white"/>
</g>
<defs>
<clipPath id="clip0_9817_21">
<rect width="160" height="80" fill="white"/>
</clipPath>
</defs>
</svg>
