<svg width="160" height="80" viewBox="0 0 160 80" fill="none" xmlns="http://www.w3.org/2000/svg">
<path d="M47.5893 38.2148H49.5536L52.6786 45.5054H52.7232L55.8036 38.2148H57.7679V47.8331H56.4286V39.9277H56.3839L53.0804 47.8331H52.1875L48.8839 39.9277H48.8393V47.8331H47.5V38.2148H47.5893Z" fill="white"/>
<path d="M62.7232 38.2148H63.9286L68.125 47.8331H66.5625L65.5804 45.4615H60.9375L59.9554 47.8331H58.3929L62.7232 38.2148ZM65.0893 44.3196L63.2589 39.8838H63.2143L61.3393 44.3196H65.0893Z" fill="white"/>
<path d="M69.1072 45.8137C69.3304 46.165 69.6429 46.4285 70.0447 46.6042C70.4018 46.7799 70.8036 46.8677 71.2054 46.8677C71.4286 46.8677 71.6518 46.8238 71.875 46.7799C72.0982 46.692 72.3214 46.6042 72.5 46.4724C72.6786 46.3407 72.8572 46.165 72.9464 45.9893C73.0804 45.7697 73.125 45.5501 73.125 45.2866C73.125 44.9353 72.9911 44.6279 72.7679 44.4522C72.5447 44.2765 72.2322 44.1008 71.875 43.9691C71.5179 43.8373 71.1161 43.7056 70.7143 43.5738C70.3125 43.442 69.9107 43.2664 69.5536 43.0468C69.1964 42.8272 68.8839 42.5197 68.6607 42.1684C68.4375 41.817 68.3036 41.29 68.3036 40.6751C68.3036 40.4116 68.3482 40.1042 68.4822 39.7968C68.6161 39.4893 68.7947 39.1819 69.0625 38.9184C69.3304 38.6549 69.6875 38.4353 70.0893 38.2596C70.4911 38.0839 71.0268 37.9961 71.6072 37.9961C72.1429 37.9961 72.6339 38.0839 73.125 38.2157C73.6161 38.3474 74.0625 38.6549 74.4197 39.0941L73.3482 40.0603C73.1697 39.7968 72.9464 39.6211 72.6339 39.4454C72.3214 39.2697 71.9643 39.2258 71.6072 39.2258C71.25 39.2258 70.9375 39.2697 70.6697 39.3576C70.4464 39.4454 70.2232 39.5772 70.0893 39.7089C69.9554 39.8407 69.8214 40.0164 69.7768 40.192C69.7322 40.3677 69.6875 40.5434 69.6875 40.6751C69.6875 41.0704 69.8214 41.3779 70.0447 41.5974C70.2679 41.817 70.5804 41.9927 70.9375 42.1245C71.2947 42.2562 71.6964 42.388 72.0982 42.4758C72.5 42.5637 72.9018 42.7393 73.2589 42.915C73.6161 43.0907 73.9286 43.3542 74.1518 43.7056C74.375 44.0569 74.5089 44.4961 74.5089 45.067C74.5089 45.5501 74.4197 45.9454 74.2411 46.3407C74.0625 46.692 73.8393 47.0434 73.5268 47.263C73.2143 47.5265 72.8572 47.7022 72.4554 47.8339C72.0536 47.9657 71.6072 48.0535 71.1161 48.0535C70.4911 48.0535 69.9107 47.9657 69.3304 47.7461C68.75 47.5265 68.3036 47.1751 67.9911 46.736L69.1072 45.8137Z" fill="white"/>
<path d="M82.7232 40.2799C82.4553 39.9285 82.0982 39.665 81.6518 39.4454C81.2053 39.2697 80.8036 39.138 80.3571 39.138C79.8214 39.138 79.2857 39.2258 78.8393 39.4454C78.3929 39.665 77.9911 39.9285 77.6786 40.2799C77.3661 40.6312 77.0982 41.0704 76.9196 41.5096C76.7411 41.9927 76.6518 42.4758 76.6518 43.0467C76.6518 43.5738 76.7411 44.0569 76.9196 44.4961C77.0982 44.9353 77.3214 45.3305 77.6339 45.6819C77.9464 46.0332 78.3482 46.2967 78.7946 46.5163C79.2411 46.7359 79.7768 46.8238 80.3125 46.8238C80.8928 46.8238 81.3839 46.692 81.7857 46.4724C82.2321 46.2528 82.5893 45.9454 82.8571 45.5062L83.9732 46.3407C83.8839 46.4285 83.75 46.6042 83.5714 46.7799C83.3928 46.9555 83.125 47.1312 82.8571 47.3508C82.5893 47.5704 82.1875 47.7021 81.7411 47.8339C81.2946 47.9657 80.8036 48.0535 80.2678 48.0535C79.5089 48.0535 78.7946 47.9217 78.1696 47.6143C77.5446 47.3069 77.0089 46.9555 76.5625 46.4724C76.1161 45.9893 75.8036 45.4623 75.5803 44.8913C75.3571 44.2765 75.2232 43.7055 75.2232 43.0907C75.2232 42.344 75.3571 41.6413 75.5803 41.0265C75.8482 40.4116 76.1607 39.8407 76.6071 39.4015C77.0536 38.9623 77.5893 38.567 78.2143 38.3474C78.8393 38.0839 79.5536 37.9521 80.3125 37.9521C80.9375 37.9521 81.6071 38.0839 82.2321 38.3035C82.8571 38.567 83.3482 38.9184 83.75 39.4454L82.7232 40.2799Z" fill="white"/>
<path d="M89.5982 48.0974C88.8393 48.0974 88.1697 47.9656 87.5447 47.7021C86.9197 47.4386 86.3839 47.0873 85.9375 46.6481C85.4911 46.2089 85.1339 45.6379 84.8661 45.0231C84.5982 44.4082 84.4643 43.7494 84.4643 43.0028C84.4643 42.2562 84.5982 41.5974 84.8661 40.9825C85.1339 40.3677 85.4911 39.8406 85.9375 39.3575C86.3839 38.9183 86.9197 38.567 87.5447 38.3035C88.1697 38.04 88.8393 37.9082 89.5982 37.9082C90.3572 37.9082 91.0268 38.04 91.6518 38.3035C92.2768 38.567 92.8125 38.9183 93.2589 39.3575C93.7054 39.7967 94.0625 40.3677 94.3304 40.9825C94.5982 41.5974 94.7322 42.2562 94.7322 43.0028C94.7322 43.7494 94.5982 44.4082 94.3304 45.0231C94.0625 45.6379 93.7054 46.165 93.2589 46.6481C92.8125 47.0873 92.2768 47.4386 91.6518 47.7021C91.0268 47.9656 90.3125 48.0974 89.5982 48.0974ZM89.5982 46.8677C90.1786 46.8677 90.6697 46.7798 91.1161 46.5602C91.5625 46.3406 91.9643 46.0771 92.2768 45.7258C92.5893 45.3744 92.8572 44.9791 93.0357 44.496C93.2143 44.0129 93.3036 43.5298 93.3036 43.0028C93.3036 42.4758 93.2143 41.9927 93.0357 41.5096C92.8572 41.0264 92.5893 40.6312 92.2768 40.2798C91.9643 39.9285 91.5625 39.665 91.1161 39.4454C90.6697 39.2258 90.1786 39.1379 89.5982 39.1379C89.0179 39.1379 88.5268 39.2258 88.0804 39.4454C87.6339 39.665 87.2322 39.9285 86.9197 40.2798C86.6072 40.6312 86.3393 41.0264 86.1607 41.5096C85.9822 41.9927 85.8929 42.4758 85.8929 43.0028C85.8929 43.5298 85.9822 44.0129 86.1607 44.496C86.3393 44.9791 86.6072 45.3744 86.9197 45.7258C87.2322 46.0771 87.6339 46.3406 88.0804 46.5602C88.5268 46.7359 89.0179 46.8677 89.5982 46.8677Z" fill="white"/>
<path d="M98.0803 39.4016H94.9107V38.1719H102.545V39.4016H99.375V47.834H98.0357V39.4016H98.0803Z" fill="white"/>
<path d="M115 42.4319V47.1751C114.777 47.3069 114.509 47.4386 114.196 47.5704C113.884 47.6582 113.571 47.79 113.259 47.8339C112.946 47.8778 112.589 47.9656 112.277 48.0096C111.92 48.0535 111.607 48.0535 111.339 48.0535C110.491 48.0535 109.777 47.9217 109.107 47.6582C108.437 47.3947 107.902 46.9994 107.455 46.5602C107.009 46.0771 106.652 45.5501 106.429 44.9352C106.205 44.3204 106.071 43.6616 106.071 43.0028C106.071 42.3001 106.205 41.5974 106.473 40.9825C106.741 40.3677 107.098 39.8406 107.545 39.3575C107.991 38.9183 108.527 38.567 109.152 38.3035C109.777 38.04 110.446 37.9082 111.205 37.9082C112.098 37.9082 112.857 38.04 113.437 38.2596C114.018 38.4791 114.509 38.7866 114.866 39.1819L113.929 40.192C113.527 39.7967 113.08 39.5332 112.634 39.4014C112.187 39.2697 111.696 39.1819 111.205 39.1819C110.625 39.1819 110.134 39.2697 109.687 39.4893C109.241 39.7089 108.839 39.9724 108.527 40.3237C108.214 40.6751 107.946 41.0704 107.768 41.5535C107.589 42.0366 107.5 42.5197 107.5 43.0467C107.5 43.5737 107.589 44.1008 107.812 44.5839C107.991 45.067 108.259 45.4623 108.616 45.8136C108.973 46.165 109.375 46.4285 109.821 46.6041C110.268 46.7798 110.804 46.9116 111.339 46.9116C111.83 46.9116 112.277 46.8677 112.679 46.7798C113.08 46.692 113.437 46.5602 113.75 46.3846V43.7055H111.562V42.4758H115V42.4319Z" fill="white"/>
<path d="M119.911 38.2148H121.116L125.313 47.8331H123.75L122.768 45.4615H118.125L117.143 47.8331H115.58L119.911 38.2148ZM122.277 44.3196L120.446 39.8838H120.402L118.527 44.3196H122.277Z" fill="white"/>
<path d="M125.893 38.2148H127.857L130.982 45.5054H131.027L134.107 38.2148H136.071V47.8331H134.732V39.9277H134.688L131.384 47.8331H130.491L127.188 39.9277H127.232V47.8331H125.893V38.2148Z" fill="white"/>
<path d="M137.946 38.2148H139.286V47.8331H137.946V38.2148Z" fill="white"/>
<path d="M141.205 38.2148H142.946L148.348 46.1202H148.393V38.2148H149.732V47.8331H148.036L142.589 39.9277H142.545V47.8331H141.205V38.2148Z" fill="white"/>
<path d="M160 42.4319V47.1751C159.777 47.3069 159.509 47.4386 159.196 47.5704C158.884 47.6582 158.571 47.79 158.259 47.8339C157.946 47.8778 157.589 47.9656 157.277 48.0096C156.92 48.0535 156.607 48.0535 156.339 48.0535C155.491 48.0535 154.777 47.9217 154.107 47.6582C153.437 47.3947 152.902 46.9994 152.455 46.5602C152.009 46.0771 151.652 45.5501 151.429 44.9352C151.205 44.3204 151.071 43.6616 151.071 43.0028C151.071 42.3001 151.205 41.5974 151.473 40.9825C151.741 40.3677 152.098 39.8406 152.545 39.3575C152.991 38.9183 153.527 38.567 154.152 38.3035C154.777 38.04 155.446 37.9082 156.205 37.9082C157.098 37.9082 157.857 38.04 158.437 38.2596C159.018 38.4791 159.509 38.7866 159.866 39.1819L158.929 40.192C158.527 39.7967 158.08 39.5332 157.634 39.4014C157.187 39.2697 156.696 39.1819 156.205 39.1819C155.625 39.1819 155.134 39.2697 154.687 39.4893C154.241 39.7089 153.839 39.9724 153.527 40.3237C153.214 40.6751 152.946 41.0704 152.768 41.5535C152.589 42.0366 152.5 42.5197 152.5 43.0467C152.5 43.5737 152.589 44.1008 152.812 44.5839C152.991 45.067 153.259 45.4623 153.616 45.8136C153.973 46.165 154.375 46.4285 154.821 46.6041C155.268 46.7798 155.804 46.9116 156.339 46.9116C156.83 46.9116 157.277 46.8677 157.679 46.7798C158.08 46.692 158.437 46.5602 158.75 46.3846V43.7055H156.562V42.4758H160V42.4319Z" fill="white"/>
<path d="M39.2411 21.0439C32.0536 21.0439 24.9107 21.0439 17.7232 21.0439C11.9643 21.0439 6.20536 21.0439 0.401786 21.0439C0.267857 21.0439 0.0892857 20.9122 0 21.1317C0 26.7094 0 32.2432 0 37.8209C0 39.2703 0 38.7871 0 39.2703C0.625 38.348 1.78571 37.4696 2.63393 36.8108C2.90179 36.5912 2.99107 36.4155 2.99107 36.0642C2.99107 32.1993 2.99107 28.3784 2.99107 24.5135C2.99107 24.1622 3.03571 24.0304 3.4375 24.0304C14.375 24.0304 25.3125 24.0304 36.25 24.0304C36.6518 24.0304 36.6964 24.1182 36.6964 24.4696C36.6964 28.4223 36.6964 32.4189 36.6964 36.3716C36.6964 37.3378 36.5179 38.348 36.0714 39.2263C34.2857 42.9594 29.5089 44.1013 26.1161 41.598C25.8482 41.3784 25.7143 41.4223 25.5357 41.6858C25.1339 42.3446 24.8214 43.0473 24.6875 43.7939C24.6429 44.0574 24.6875 44.2331 24.9554 44.3649C30.4464 47.8344 37.8571 44.9358 39.375 38.6115C39.4643 38.304 39.5089 38.1723 39.5982 37.777C39.6429 37.6453 39.6429 37.4696 39.6429 37.3378V37.1622C39.6429 31.804 39.6429 26.4459 39.6429 21.0439C39.5536 20.9122 39.375 21.0439 39.2411 21.0439Z" fill="white"/>
<path d="M19.0625 36.4148C19.0625 41.3776 15.3572 45.3742 10.4018 45.8134C8.2143 46.033 6.25001 45.5499 4.41966 44.408C4.10716 44.2763 4.01787 44.0567 4.10716 43.7492C4.24108 43.0026 4.50894 42.3438 4.95537 41.6851C5.13394 41.4215 5.26787 41.3776 5.53573 41.5972C8.61608 43.881 12.9018 43.1783 15.0447 39.9722C17.2322 36.7222 15.9375 32.2425 12.3214 30.5736C12.0089 30.4418 11.8304 30.3979 11.6072 30.7492C11.1161 31.452 10.4018 31.7594 9.50894 31.6715C8.57144 31.5837 7.9018 31.1006 7.54466 30.2222C7.45537 30.0026 7.36608 29.8709 7.09823 29.7391C6.0268 29.256 5.53573 28.0702 5.89287 27.0161C6.25001 25.9182 7.36608 25.2594 8.5268 25.4351C8.70537 25.479 8.88394 25.4351 9.01787 25.3472C9.82144 24.8202 10.6697 24.7763 11.5625 25.2155C12.4107 25.6547 12.7679 26.4013 12.7232 27.3236C12.7232 27.5871 12.8572 27.631 13.0357 27.7188C16.2054 29.0364 18.1697 31.3641 18.8839 34.702C19.0625 35.2729 19.1072 35.8878 19.0625 36.4148Z" fill="white"/>
<path d="M30.1339 35.3174C31.9196 35.3174 33.6161 35.8005 35.1786 36.7228C35.5357 36.9424 35.6696 37.1181 35.5803 37.5133C35.4018 38.1721 35.1786 38.787 34.8214 39.4018C34.6429 39.7532 34.5089 39.841 34.1071 39.5336C31.7857 37.8208 28.7053 37.7768 26.3839 39.4458C24.3303 40.939 23.3928 43.0032 23.7053 45.5066C24.0178 47.8343 25.3125 49.5471 27.5 50.5572C27.7678 50.689 27.9464 50.689 28.125 50.3816C28.6607 49.635 29.4196 49.3275 30.3571 49.4593C31.25 49.591 31.875 50.0741 32.1875 50.9086C32.2768 51.1282 32.3661 51.2599 32.5893 51.3478C33.6607 51.8748 34.1518 53.0167 33.7946 54.1147C33.4375 55.2127 32.3661 55.8714 31.1607 55.6518C30.9375 55.6079 30.8482 55.6518 30.6696 55.7836C29.9107 56.3106 29.0625 56.3545 28.2143 55.9154C27.4107 55.5201 26.9643 54.8174 26.9643 53.8951C26.9643 53.5437 26.8303 53.4559 26.5178 53.3241C22.9464 51.8309 20.5357 48.3174 20.625 44.3647C20.7143 40.7633 23.0357 37.3816 26.5625 35.9322C27.6786 35.537 28.8839 35.3174 30.1339 35.3174Z" fill="white"/>
<path d="M21.0714 39.3138C20.4464 37.2497 20.4464 35.2733 21.1607 33.3409C22.1429 30.7057 23.9732 28.8611 26.5625 27.8071C26.7857 27.7192 26.9643 27.6314 26.9196 27.324C26.875 26.4017 27.3214 25.7429 28.125 25.3037C28.9286 24.8645 29.7768 24.9084 30.5804 25.3915C30.7589 25.5233 30.9375 25.5672 31.1607 25.5233C32.2768 25.3037 33.3929 26.0064 33.75 27.0605C34.1071 28.1145 33.6161 29.2564 32.5893 29.7834C32.3214 29.9152 32.1875 30.0469 32.0982 30.3105C31.7411 31.1888 31.0714 31.628 30.1339 31.7159C29.2857 31.8037 28.5714 31.4963 28.0804 30.7936C27.8571 30.4861 27.6786 30.4861 27.3661 30.6179C25.0893 31.7598 23.7946 33.6044 23.5714 36.1078C23.5714 36.3713 23.4821 36.5469 23.2589 36.7226C22.4107 37.4692 21.6964 38.3037 21.0714 39.3138Z" fill="white"/>
<path d="M18.6161 41.8613C19.0625 43.1789 19.1964 44.5404 19.0179 45.8579C18.4821 49.4593 16.4732 51.9627 13.0804 53.412C12.8571 53.4998 12.7679 53.6316 12.7679 53.8951C12.7679 54.8174 12.3661 55.5201 11.5179 55.9593C10.6696 56.3985 9.86607 56.3546 9.10714 55.8275C8.92857 55.6958 8.75 55.6958 8.57143 55.6958C7.41072 55.8715 6.33929 55.2127 5.98214 54.1586C5.625 53.0607 6.11607 51.9188 7.1875 51.3917C7.41072 51.3039 7.54464 51.1721 7.63393 50.9086C7.99107 50.0302 8.66072 49.5471 9.59822 49.4593C10.4464 49.3715 11.2054 49.7228 11.6964 50.4255C11.875 50.733 12.0536 50.733 12.3214 50.6012C14.5982 49.4593 15.8929 47.6586 16.1161 45.1552C16.1607 44.8478 16.2054 44.6721 16.4732 44.4525C17.2768 43.7059 17.9911 42.8715 18.6161 41.8613Z" fill="white"/>
<path d="M39.6875 41.9048C39.0625 42.871 37.9018 43.7055 37.0089 44.4082C36.7857 44.6277 36.6964 44.8034 36.6964 45.1109C36.6964 48.9757 36.6964 52.8406 36.6964 56.7055C36.6964 56.7933 36.6964 56.8811 36.6964 56.925H2.99107C2.99107 56.8811 2.99107 56.7933 2.99107 56.7055C2.99107 52.6649 2.99107 48.6244 2.99107 44.5399C2.99107 42.7832 3.66071 41.246 4.95536 40.0163C7.27679 37.7764 10.9821 37.6446 13.6161 39.5332C13.8393 39.7088 13.9732 39.7088 14.1518 39.4453C14.5536 38.7865 14.8661 38.0838 15 37.3372C15.0446 37.0298 15 36.8541 14.7321 36.7223C9.19643 33.3406 1.83036 36.2392 0.267857 42.4757C0.178571 42.7832 0.133929 43.0027 0.0892857 43.3102C0.0446429 43.4859 0 43.6615 0 43.8372V59.9555H39.6875V43.6615C39.6875 41.9048 39.6875 43.6615 39.6875 41.9048Z" fill="white"/>
<path d="M2.99107 56.9697H36.6964H39.6875V60.0001H0V56.9697H2.99107Z" fill="white"/>
</svg>
