<svg width="160" height="80" viewBox="0 0 160 80" fill="none" xmlns="http://www.w3.org/2000/svg">
<path d="M4.91 7.88012L0 42.8201H15.02L20.85 38.2901L24.49 12.4001L19.93 7.87012H4.91V7.88012ZM12.98 37.1401L11.06 38.6201H9.17L12.85 12.4301H14.74L16.24 13.9201L12.98 37.1401Z" fill="#FF5319"/>
<path d="M125.55 11.7099H121.73L121.47 13.6099H125.28L121.18 42.8199H129.39L133.5 13.6099H129.68L129.94 11.7099H133.77L134.3 7.87988H126.09L125.55 11.7099Z" fill="#FF5319"/>
<path d="M117.33 29.0696C117.33 29.0696 114.2 24.2896 113.89 24.2496L113.94 23.8796L118.67 19.4496L120.29 7.88965H100.6L98.81 20.5896H94.99L94.72 22.4996H98.54L95.68 42.8297H115.38L115.97 38.6297H117.88L118.15 36.7197H116.24L117.32 29.0696H117.33ZM103.22 20.5796H107.04L108.21 12.2496H112.17L110.73 22.4796H102.95L103.22 20.5696V20.5796ZM110.38 38.6196H104.51L106.06 27.6296H110.02L108.74 36.7096H110.65L110.38 38.6196Z" fill="#FF5319"/>
<path d="M156.18 11.6999L156.72 7.87988H138.09L137.28 13.6099H146.31L146.04 15.5199H142.21L138.38 42.8199H146.54L150.65 13.6099H159.73L160 11.6999H156.18Z" fill="#FF5319"/>
<path d="M61.51 23.4299H60.47L57.96 7.87988H50.87L45.96 42.8199H53.17L55.19 28.4699H56.18L58.85 42.8199H65.94L70.85 7.87988H63.7L61.51 23.4299Z" fill="#FF5319"/>
<path d="M78.15 7.87988L68.74 42.8199H76.73L78.84 33.7199H83.89L83.44 42.8199H91.73L92.25 7.87988H78.15ZM80.17 27.9899L83.07 15.4699H84.79L84.18 27.9899H80.17Z" fill="#FF5319"/>
<path d="M41.61 72.0194L47.98 53.1094H52.27L53.23 72.0194H49.81L49.65 68.1794H46.16L44.88 72.0194H41.62H41.61ZM46.41 66.6094H49.77L49.61 56.0894L46.41 66.6094Z" fill="#FF5319"/>
<path d="M60.95 72.0194L63.64 53.1094H67.41L68.66 66.5494L73.78 53.1094H77.52L74.83 72.0194H72.11L74.16 57.4294L68.94 72.0194H66.83L65.71 57.4294L63.66 72.0194H60.94H60.95Z" fill="#FF5319"/>
<path d="M83.96 72.0194L86.65 53.1094H89.69L87 72.0194H83.96Z" fill="#FF5319"/>
<path d="M96.12 72.0194L98.81 53.1094H101.47L104.38 65.8394L106.17 53.1094H108.89L106.2 72.0194H103.51L100.57 59.9594L98.84 72.0194H96.12Z" fill="#FF5319"/>
<path d="M31.51 70.3997H31.56L32.98 72.0497C33.75 72.0297 34.27 72.0196 34.27 72.0196L35.55 62.7397H30.69L30.47 64.4996H32.36L31.57 70.0196H28.46C27.92 70.0196 27.5 69.5397 27.58 69.0097L29.23 56.9796C29.34 56.3396 29.5 55.8596 29.71 55.5396C29.92 55.2197 30.2 55.0097 30.52 54.8997C30.85 54.7897 31.23 54.7397 31.66 54.7397C32.09 54.7397 32.42 54.7897 32.71 54.8997C33.01 55.0097 33.22 55.2197 33.35 55.5396C33.48 55.8596 33.5 56.3396 33.41 56.9796L33.2 58.4296H36.17L36.35 57.1096C36.52 55.9796 36.43 55.1096 36.08 54.4996C35.73 53.8896 35.18 53.4697 34.45 53.2397C33.71 53.0097 32.84 52.8896 31.84 52.8896C30.84 52.8896 29.94 52.9997 29.14 53.2197C28.34 53.4397 27.68 53.8597 27.17 54.4697C26.66 55.0797 26.33 55.9596 26.18 57.1096L24.68 67.6696C24.51 69.0096 24.57 70.0197 24.87 70.6897C25.17 71.3597 25.62 71.7896 26.23 72.0196C26.58 72.1496 29.13 72.1296 31.27 72.0896L31.51 70.3997Z" fill="#FF5319"/>
<path d="M122.52 70.3997H122.57L123.99 72.0497C124.76 72.0297 125.28 72.0196 125.28 72.0196L126.56 62.7397H121.7L121.48 64.4996H123.37L122.58 70.0196H119.47C118.93 70.0196 118.51 69.5397 118.59 69.0097L120.24 56.9796C120.35 56.3396 120.51 55.8596 120.72 55.5396C120.93 55.2197 121.21 55.0097 121.53 54.8997C121.86 54.7897 122.24 54.7397 122.67 54.7397C123.1 54.7397 123.43 54.7897 123.72 54.8997C124.02 55.0097 124.23 55.2197 124.36 55.5396C124.49 55.8596 124.51 56.3396 124.42 56.9796L124.21 58.4296H127.18L127.36 57.1096C127.53 55.9796 127.44 55.1096 127.09 54.4996C126.74 53.8896 126.19 53.4697 125.46 53.2397C124.73 53.0097 123.85 52.8896 122.85 52.8896C121.85 52.8896 120.95 52.9997 120.15 53.2197C119.35 53.4397 118.69 53.8597 118.18 54.4697C117.67 55.0797 117.34 55.9596 117.19 57.1096L115.69 67.6696C115.52 69.0096 115.58 70.0197 115.88 70.6897C116.18 71.3597 116.63 71.7896 117.24 72.0196C117.59 72.1496 120.14 72.1296 122.28 72.0896L122.52 70.3997Z" fill="#FF5319"/>
<path d="M40.67 7.87988L37.19 16.6899L36.66 20.5099H34.73L35.27 16.6899L34.26 7.87988H25.85L28.48 29.1399H30.13L28.21 42.8199H36.9L38.83 29.1399H40.48L49.09 7.87988H40.67Z" fill="#FF5319"/>
</svg>
