<svg width="160" height="80" viewBox="0 0 160 80" fill="none" xmlns="http://www.w3.org/2000/svg">
<path d="M41.72 30.2998C37.01 30.2998 33.17 34.1298 33.17 38.8498C33.17 43.5698 37 47.3998 41.72 47.3998C43.61 47.3998 45.37 46.7798 46.79 45.7298V47.2798H50.27V38.8498C50.27 34.1398 46.44 30.2998 41.72 30.2998ZM41.72 43.9198C38.93 43.9198 36.65 41.6498 36.65 38.8498C36.65 36.0498 38.92 33.7798 41.72 33.7798C44.52 33.7798 46.79 36.0498 46.79 38.8498C46.79 41.6498 44.52 43.9198 41.72 43.9198Z" fill="white"/>
<path d="M103.01 30.2998C98.3 30.2998 94.46 34.1298 94.46 38.8498C94.46 43.5698 98.29 47.3998 103.01 47.3998C105.73 47.3998 108.32 46.0798 109.92 43.8798L107.11 41.8298C106.16 43.1398 104.63 43.9198 103.01 43.9198C100.83 43.9198 98.96 42.5298 98.25 40.5898H111.56V38.8498C111.56 34.1398 107.73 30.2998 103.01 30.2998ZM98.25 37.1098C98.96 35.1698 100.83 33.7798 103.01 33.7798C105.19 33.7798 107.06 35.1698 107.77 37.1098H98.25Z" fill="white"/>
<path d="M85.05 30.2998C80.77 30.2998 77.29 34.1298 77.29 38.8498V47.2798H80.77V38.8498C80.77 36.0598 82.69 33.7798 85.05 33.7798C87.41 33.7798 89.33 36.0498 89.33 38.8498V47.2798H92.81V38.8498C92.81 34.1398 89.33 30.2998 85.05 30.2998Z" fill="white"/>
<path d="M24.51 30.2998C22.4 30.2998 20.51 31.2398 19.22 32.7098C17.93 31.2298 16.04 30.2998 13.93 30.2998C10.05 30.2998 6.89999 33.4498 6.89999 37.3298V47.2698H10.38V37.3298C10.38 35.3698 11.97 33.7798 13.93 33.7798C15.89 33.7798 17.48 35.3698 17.48 37.3298V47.2698H20.96V37.3298C20.96 35.3698 22.55 33.7798 24.51 33.7798C26.47 33.7798 28.06 35.3698 28.06 37.3298V47.2698H31.54V37.3298C31.54 33.4498 28.39 30.2998 24.51 30.2998Z" fill="white"/>
<path d="M60.49 30.2998C55.78 30.2998 51.94 34.1298 51.94 38.8498C51.94 43.5698 55.77 47.3998 60.49 47.3998C62.38 47.3998 64.14 46.7798 65.56 45.7298V47.0898C65.56 49.8798 63.29 52.1598 60.49 52.1598C58.89 52.1598 57.42 51.4298 56.45 50.1498L53.68 52.2498C55.31 54.3998 57.8 55.6398 60.5 55.6398C65.21 55.6398 69.05 51.8098 69.05 47.0898V38.8598C69.05 34.1498 65.22 30.3098 60.5 30.3098L60.49 30.2998ZM60.49 43.9198C57.7 43.9198 55.42 41.6498 55.42 38.8498C55.42 36.0498 57.69 33.7798 60.49 33.7798C63.29 33.7798 65.56 36.0498 65.56 38.8498C65.56 41.6498 63.29 43.9198 60.49 43.9198Z" fill="white"/>
<path d="M74.82 31.5098H71.34V47.2798H74.82V31.5098Z" fill="white"/>
<path d="M73.08 24.6904C71.68 24.6904 70.55 25.8304 70.55 27.2204C70.55 28.6104 71.69 29.7504 73.08 29.7504C74.47 29.7504 75.61 28.6104 75.61 27.2204C75.61 25.8304 74.47 24.6904 73.08 24.6904Z" fill="white"/>
<path d="M4.43001 31.5098H0.950012V47.2798H4.43001V31.5098Z" fill="white"/>
<path d="M2.69 24.6904C1.29 24.6904 0.160004 25.8204 0.160004 27.2204C0.160004 28.6204 1.3 29.7504 2.69 29.7504C4.08 29.7504 5.22 28.6104 5.22 27.2204C5.22 25.8304 4.08 24.6904 2.69 24.6904Z" fill="white"/>
<path d="M159.85 38.8498C159.85 34.1398 156.02 30.2998 151.3 30.2998C146.58 30.2998 142.75 34.1298 142.75 38.8498C142.75 43.5698 146.58 47.3998 151.3 47.3998C154.02 47.3998 156.61 46.0798 158.21 43.8798L155.4 41.8298C154.45 43.1398 152.92 43.9198 151.3 43.9198C149.12 43.9198 147.25 42.5298 146.54 40.5898H159.85V38.8498ZM146.54 37.1098C147.25 35.1698 149.12 33.7798 151.3 33.7798C153.48 33.7798 155.35 35.1698 156.06 37.1098H146.54Z" fill="white"/>
<path d="M124.35 31.5098H120.87V47.2798H124.35V31.5098Z" fill="white"/>
<path d="M118.31 24.3701H114.83V47.2801H118.31V24.3701Z" fill="white"/>
<path d="M122.61 24.6904C121.21 24.6904 120.08 25.8304 120.08 27.2204C120.08 28.6104 121.22 29.7504 122.61 29.7504C124 29.7504 125.14 28.6104 125.14 27.2204C125.14 25.8304 124 24.6904 122.61 24.6904Z" fill="white"/>
<path d="M139.03 31.5098L134.43 42.6598L129.83 31.5098H126.02L132.52 47.2798H134.43H136.33L142.84 31.5098H139.03Z" fill="white"/>
</svg>
