<svg width="160" height="80" viewBox="0 0 160 80" fill="none" xmlns="http://www.w3.org/2000/svg">
<path d="M81.8296 0.0195312V0.0498047L88.6401 9.98047C88.6401 9.98047 92.1603 1.89988 102.84 0.379883C102.84 0.379883 100.68 3.79035 100.14 6.36035C99.6002 8.93007 100.06 9.2002 100.06 9.2002H111.97C116.388 9.20032 119.998 12.6725 120.219 17.0352L120.39 22.0596C128.76 24.4196 130.22 33.0202 130.22 38.4502V73.2305C130.22 73.2305 124.11 70.6905 120.78 69.7305C117.46 68.7705 111.72 67.1497 109.93 66.1797L111.1 68.25C111.1 68.25 99.8803 66.2504 92.3403 66.8604L80.0698 79.9404L67.2397 66.8398C59.6897 66.2299 45.9399 68.3301 45.9399 68.3301L47.0503 66.0996C45.2703 67.0696 38.9496 68.7597 35.6196 69.7197C32.3016 70.6763 26.9287 73.2811 26.8901 73.2998L26.7798 38.0898C26.6998 32.6099 29.45 24.3605 36.1597 21.8203V17.4502C36.1597 12.8902 39.8604 9.19043 44.4204 9.19043L64.9399 9.33984C64.9417 9.32775 65.0459 8.57549 64.5698 6.84961C63.7697 3.93968 60.7896 0.379883 60.7896 0.379883C71.4795 1.89988 74.9897 9.98047 74.9897 9.98047L81.8003 0.0498047V0L81.8296 0.0195312ZM100.36 2.20996C92.6301 4.36003 89.9506 10.2202 89.8306 10.4902L88.8999 12.6201L81.8198 2.2998L74.8003 12.4502L73.8198 10.5C73.7869 10.4335 71.1956 4.68855 63.8198 2.37988C64.6097 3.62975 65.42 5.12965 65.8101 6.51953C66.3299 8.37903 66.2505 9.30949 66.2104 9.5498L66.0405 10.6504L44.4204 10.4902C40.5705 10.4902 37.4401 13.6198 37.4399 17.4697V22.7197L36.6099 23.0303C30.8602 25.2104 27.9802 32.7098 28.0601 38.0996L28.1606 71.2998C30.0707 70.4298 33.0607 69.14 35.2505 68.5C35.8603 68.3201 36.5601 68.1201 37.3198 67.9102C40.4198 67.0302 45.0902 65.7095 46.4302 64.9795L50.0298 63.0195L48.1899 66.7002C51.5699 66.2202 58.9006 65.4502 64.1606 65.4502C65.3205 65.4502 66.3907 65.4796 67.3306 65.5596L67.8101 65.5996L67.8599 65.6104L80.0806 78.0898L91.77 65.6201L92.2603 65.5801C93.2402 65.5001 94.3501 65.46 95.5601 65.46C100.64 65.46 105.4 66.1496 108.71 66.5996L106.61 62.9004L110.56 65.0596C112.07 65.8795 117.18 67.3602 120.24 68.2402L121.15 68.5C123.41 69.15 126.86 70.4903 128.94 71.3203V38.4502C128.94 33.4202 127.76 26.0403 120.81 23.3203C120.56 23.2203 119.77 23.1204 119.51 23.1104H119.081L118.96 17.46C118.96 13.6 115.83 10.4795 111.98 10.4795H99.7202L99.4204 10.2998C98.5304 9.7898 98.3801 8.52984 98.8901 6.08984C99.1601 4.81991 99.7699 3.3899 100.36 2.20996Z" fill="white"/>
<path d="M88.75 16.1602L88.72 16.2002L81.71 6.68018L74.76 16.4802L69 9.70018V19.4902C72.35 18.6102 75.49 18.1302 78.35 17.9102H78.37C80.16 17.7702 81.83 17.7402 83.37 17.7802C85.97 17.8402 88.2 18.1002 89.98 18.4102C92.96 18.9202 94.66 19.5502 94.66 19.5502V9.02018L88.74 16.1802L88.75 16.1602Z" fill="white"/>
<path d="M54.04 62.7801C54.04 62.7801 59.88 60.3101 69.62 60.1401V60.9701C69.62 60.9701 62.34 61.0901 54.04 62.7801Z" fill="white"/>
<path d="M103.8 62.7801C103.8 62.7801 97.96 60.3101 88.22 60.1401V60.9701C88.22 60.9701 95.5 61.0901 103.8 62.7801Z" fill="white"/>
<path d="M77.2 70.0702H82.85C82.85 70.0702 80.9801 68.5902 80.4701 64.9102C80.4701 64.9102 81.45 67.0002 83.28 67.1702C85.11 67.3402 86.2601 65.4302 85.8701 63.6002C85.5401 62.0502 81.8801 58.2602 80.1201 56.4302C80.1201 56.4302 77.6301 58.8502 75.4801 61.4802C73.3301 64.1102 74.34 66.2202 75.7 66.9402C77.06 67.6602 78.68 66.7502 79.71 64.8902C79.71 64.8902 80.1301 66.9202 77.2201 70.0702H77.2Z" fill="white"/>
<path d="M57.3999 15.4702C57.3999 15.4702 57.3899 15.5102 57.3799 15.5302C57.2599 14.1102 55.9399 14.0602 55.9399 14.0602C55.9399 14.0602 56.5299 13.9202 56.8899 13.5902C57.2999 13.2202 57.3299 11.9302 57.3299 11.9302C57.4599 14.1202 59.1399 14.0902 59.1399 14.0902C57.7399 14.0802 57.4599 15.0002 57.3999 15.4702Z" fill="white"/>
<path d="M42.5999 23.77C42.5999 23.77 42.5899 23.81 42.5799 23.83C42.4599 22.41 41.1399 22.36 41.1399 22.36C41.1399 22.36 41.7299 22.22 42.0899 21.89C42.4999 21.52 42.5299 20.23 42.5299 20.23C42.6599 22.42 44.3399 22.39 44.3399 22.39C42.9399 22.38 42.6599 23.3 42.5999 23.77Z" fill="white"/>
<path d="M43.3601 16.6799C43.3601 16.6799 47.4901 16.3599 48.0801 12.3599C48.0801 12.3599 48.4001 14.2499 49.3301 15.2199C50.2601 16.1899 51.8501 16.5799 51.8501 16.5799C51.8501 16.5799 48.0101 16.7599 48.0001 21.4799C48.0001 21.4799 48.3501 16.6099 43.3601 16.6699V16.6799Z" fill="white"/>
<path d="M100.54 14.7402C100.54 14.7402 100.55 14.7802 100.56 14.8002C100.68 13.3802 101.97 13.3302 101.97 13.3302C101.97 13.3302 101.39 13.1902 101.04 12.8602C100.64 12.4902 100.61 11.2002 100.61 11.2002C100.48 13.3902 98.8401 13.3602 98.8401 13.3602C100.21 13.3502 100.49 14.2702 100.54 14.7402Z" fill="white"/>
<path d="M115.06 23.04C115.06 23.04 115.07 23.08 115.08 23.1C115.2 21.68 116.49 21.63 116.49 21.63C116.49 21.63 115.91 21.49 115.56 21.16C115.16 20.79 115.13 19.5 115.13 19.5C115 21.69 113.36 21.66 113.36 21.66C114.73 21.65 115.01 22.57 115.06 23.04Z" fill="white"/>
<path d="M114.32 15.9601C114.32 15.9601 110.27 15.6401 109.69 11.6401C109.69 11.6401 109.38 13.5301 108.46 14.5001C107.54 15.4701 105.99 15.8601 105.99 15.8601C105.99 15.8601 109.75 16.0401 109.76 20.7601C109.76 20.7601 109.41 15.8901 114.32 15.9501V15.9601Z" fill="white"/>
<path d="M31.95 31.7699C33.56 30.9499 35.2 30.1699 36.84 29.4399C39.69 28.1899 41.1399 29.8399 41.1399 34.1799V38.8499C41.1399 40.8899 40.5399 42.5599 39.3699 43.8899C40.5499 44.2499 41.1399 45.4599 41.1399 47.4999V52.1899C41.1399 56.5399 39.6199 59.2699 36.6399 60.6099C35.0599 61.3199 33.5 62.0599 31.95 62.8499V31.7699ZM35.1199 34.6499V43.5499C35.4499 43.3899 35.7899 43.2399 36.1199 43.0899C36.5599 42.8899 36.87 42.7099 37.04 42.5499C37.62 41.9699 37.91 41.1799 37.91 40.1899V35.5199C37.91 34.1099 37.44 33.5999 36.52 34.0099C36.05 34.2199 35.5899 34.4299 35.1199 34.6499ZM35.1199 47.9799V56.8799C35.5799 56.6599 36.05 56.4499 36.52 56.2399C37.45 55.8199 37.91 54.9199 37.91 53.5199V48.8299C37.91 47.8399 37.62 47.3099 37.04 47.2499C36.87 47.2299 36.5699 47.3199 36.1199 47.5199C35.7899 47.6699 35.4499 47.8299 35.1199 47.9799Z" fill="white" stroke="white" stroke-width="0.37" stroke-miterlimit="10"/>
<path d="M43.79 49.34V26.34C44.88 25.94 45.98 25.57 47.08 25.21V44.94C48.83 44.37 50.6 43.84 52.38 43.36V46.63C49.49 47.41 46.63 48.31 43.8 49.34H43.79Z" fill="white" stroke="white" stroke-width="0.37" stroke-miterlimit="10"/>
<path d="M63.99 39.7297C63.99 42.9597 62.35 44.7797 59.11 45.4297C55.88 46.0897 54.28 44.9097 54.28 41.6797V23.1497C55.4 22.8697 56.52 22.6097 57.64 22.3697V40.8997C57.64 41.9397 58.13 42.3497 59.11 42.1497C60.1 41.9497 60.59 41.3397 60.59 40.2997V21.7697C61.72 21.5597 62.85 21.3697 63.99 21.1997V39.7297Z" fill="white" stroke="white" stroke-width="0.37" stroke-miterlimit="10"/>
<path d="M67 20.7796C69.95 20.4196 72.92 20.1796 75.89 20.0596V23.3296C74.07 23.3996 72.24 23.5196 70.42 23.6796V30.2696C71.98 30.1296 73.55 30.0196 75.12 29.9496V33.2296C73.55 33.2996 71.98 33.4096 70.42 33.5496V40.1396C72.24 39.9696 74.06 39.8596 75.89 39.7896V43.0596C72.92 43.1796 69.96 43.4096 67 43.7796V20.7796Z" fill="white" stroke="white" stroke-width="0.37" stroke-miterlimit="10"/>
<path d="M77.22 35.4598C78.36 35.4298 79.51 35.4198 80.65 35.4298V38.5198C80.65 39.5598 81.15 40.0798 82.16 40.0998C83.16 40.1198 83.65 39.6198 83.65 38.5798V20.0498C84.79 20.0898 85.94 20.1498 87.08 20.2198V38.7498C87.08 41.9898 85.44 43.4498 82.16 43.3798C78.87 43.3098 77.22 41.7798 77.22 38.5498V35.4598Z" fill="white" stroke="white" stroke-width="0.37" stroke-miterlimit="10"/>
<path d="M99.7299 36.6697C100.1 39.4597 100.46 42.2497 100.83 45.0397C99.6899 44.8097 98.5499 44.5997 97.3999 44.4097C97.1799 42.7497 96.9599 41.0897 96.7399 39.4297C95.5799 39.2397 94.4199 39.0797 93.2599 38.9297C93.0299 40.5297 92.8099 42.1297 92.5799 43.7197C91.4299 43.5797 90.2799 43.4597 89.1299 43.3697C89.4999 40.6897 89.8699 38.0197 90.2399 35.3497C91.0499 30.4697 91.8499 25.5997 92.6599 20.7397C94.2199 20.9297 95.7799 21.1497 97.3299 21.4097C98.1299 26.4897 98.9199 31.5797 99.7199 36.6697H99.7299ZM96.2999 36.0797C95.8699 32.8197 95.4299 29.5697 94.9999 26.3197C94.5699 29.4497 94.1299 32.5797 93.6999 35.7097C94.5699 35.8197 95.4399 35.9497 96.2999 36.0797Z" fill="white" stroke="white" stroke-width="0.37" stroke-miterlimit="10"/>
<path d="M112.23 43.5197C112.23 46.7497 110.65 47.8197 107.45 46.9597C104.25 46.1097 102.63 44.1897 102.63 40.9497V26.8797C102.63 23.6697 104.25 22.3697 107.45 23.2197C110.65 24.0897 112.23 26.2397 112.23 29.4497V32.5397C111.13 32.1897 110.02 31.8497 108.91 31.5397V28.4497C108.91 27.4197 108.43 26.7597 107.46 26.4897H107.44C106.48 26.2297 106 26.6397 106 27.6697V41.7397C106 42.7797 106.49 43.4197 107.45 43.6797C108.43 43.9397 108.91 43.5597 108.91 42.5197V39.4297C110.02 39.7397 111.13 40.0797 112.23 40.4297V43.5197Z" fill="white" stroke="white" stroke-width="0.37" stroke-miterlimit="10"/>
<path d="M120.81 43.9697C122.23 49.7397 123.64 55.5497 125.05 61.3897C123.91 60.8597 122.77 60.3497 121.62 59.8597C120.48 54.7697 119.33 49.6997 118.18 44.6497V58.4597C117.09 58.0397 116 57.6397 114.91 57.2597V26.1797C116 26.5597 117.1 26.9597 118.18 27.3797V41.2097C119.33 37.0397 120.48 32.8997 121.62 28.7797C122.77 29.2697 123.91 29.7797 125.05 30.3097C123.65 34.8297 122.24 39.3897 120.81 43.9697Z" fill="white" stroke="white" stroke-width="0.37" stroke-miterlimit="10"/>
<path d="M59.8398 55.7897C59.2698 56.1697 58.4998 56.4697 57.7798 56.6097C55.8498 56.9797 54.5698 55.8997 54.5898 54.2097C54.6098 52.4297 55.9498 50.8497 57.6998 50.4897C58.5398 50.3197 59.1598 50.3897 59.6198 50.5197V52.0797C59.2498 51.9797 58.6798 51.8697 57.8698 52.0297C56.8298 52.2297 56.2898 53.0797 56.2898 53.8497C56.2898 54.6197 56.8098 55.2597 57.7798 55.0697C57.9298 55.0397 58.0898 54.9997 58.2298 54.9597V53.5897C58.8798 53.4697 59.1998 53.4097 59.8498 53.2897V55.7897H59.8398Z" fill="white"/>
<path d="M67.6099 54.2296C66.8899 54.3096 66.5299 54.3496 65.8199 54.4396C65.6799 54.7696 65.5999 54.9296 65.4599 55.2596C64.7499 55.3496 64.3899 55.3996 63.6899 55.4996C64.6799 53.3796 65.6799 51.2596 66.6899 49.1396C66.7199 49.1396 66.7399 49.1396 66.7699 49.1396C67.7699 51.0296 68.7699 52.9197 69.7699 54.8097C69.0599 54.8697 68.6999 54.9096 67.9899 54.9796C67.8399 54.6796 67.7699 54.5397 67.6199 54.2397L67.6099 54.2296ZM66.2899 53.2696C66.6299 53.2296 66.7999 53.2096 67.1399 53.1696C66.9899 52.8396 66.7699 52.3296 66.7199 52.1196C66.7199 52.1196 66.7199 52.1196 66.6999 52.1196C66.6499 52.3396 66.4299 52.8996 66.2799 53.2696H66.2899Z" fill="white"/>
<path d="M75.4398 51.7199V54.4399C74.7798 54.4699 74.4598 54.4799 73.7998 54.5199V48.5499C73.7998 48.5499 73.8198 48.5499 73.8398 48.5499C75.0198 49.4599 75.6098 49.9199 76.7898 50.8499C77.9698 49.8499 78.5598 49.3499 79.7398 48.3799H79.7898V54.3499C79.1298 54.3499 78.7998 54.3499 78.1398 54.3599V51.6399C77.5998 52.0799 77.3298 52.3099 76.7898 52.7599C76.2498 52.3399 75.9698 52.1299 75.4298 51.7199H75.4398Z" fill="white"/>
<path d="M86.1499 54.51C85.4599 54.47 85.1199 54.46 84.4299 54.43V48.54C85.1199 48.57 85.4599 48.58 86.1499 48.62V54.51Z" fill="white"/>
<path d="M92.4498 52.3701V55.0101C91.7798 54.9401 91.4498 54.9101 90.7798 54.8401V48.8701C90.7798 48.8701 90.8298 48.8701 90.8598 48.8701C92.2098 50.0901 92.8898 50.7001 94.2398 51.9601V49.3201C94.9098 49.4001 95.2498 49.4501 95.9198 49.5401V55.5101C95.9198 55.5101 95.8798 55.5101 95.8498 55.5101C94.4998 54.2401 93.8198 53.6101 92.4598 52.3701H92.4498Z" fill="white"/>
<path d="M105.47 56.84C104.9 56.99 104.13 56.99 103.41 56.84C101.64 56.48 100.22 54.99 100.21 53.16C100.2 51.49 101.5 50.31 103.33 50.68C104.17 50.85 104.79 51.16 105.24 51.47V53.03C104.87 52.78 104.3 52.45 103.5 52.28C102.46 52.07 101.92 52.7 101.92 53.47C101.92 54.24 102.44 55.09 103.41 55.29C103.56 55.32 103.72 55.35 103.86 55.36V53.99C104.5 54.12 104.83 54.19 105.47 54.34V56.84Z" fill="white"/>
</svg>
