<svg width="160" height="32" viewBox="0 0 160 32" fill="none" xmlns="http://www.w3.org/2000/svg">
<path d="M160 20.3096C159.961 20.4126 159.91 20.5027 159.884 20.6057C159.382 22.7425 157.953 23.9396 155.881 24.2614C152.895 24.7119 150.397 23.5663 148.119 21.5582C148.982 20.7859 149.78 20.0651 150.591 19.3442C151.414 18.5977 151.389 18.662 152.367 19.0997C153.191 19.473 154.092 19.6789 154.967 19.9235C155.109 19.9621 155.302 19.8076 155.469 19.7433C155.366 19.5759 155.289 19.3442 155.134 19.267C154.555 18.9838 153.95 18.765 153.371 18.4947C152.753 18.2115 152.122 17.9412 151.53 17.5936C150.114 16.757 149.278 15.5598 149.355 13.8607C149.445 11.9299 150.462 10.6041 152.251 9.909C154.529 9.02083 156.718 9.44561 158.816 10.5011C159.215 10.7071 159.601 10.9388 159.987 11.1705C159.987 11.2091 159.987 11.2606 159.987 11.2992C159.163 12.4834 158.34 13.6805 157.516 14.8648C155.559 13.7835 154.761 13.5647 154.066 13.8736C156.679 14.8648 159.176 15.9718 160 19.0224C160 19.4472 160 19.872 160 20.3096Z" fill="white"/>
<path d="M0 16.5382C0 16.1906 0.0257442 15.8559 0.102977 15.5213C0.37329 14.2469 0.86243 13.0756 1.69912 12.0329C4.85278 8.10695 11.4047 8.62183 13.8246 13.0756C12.5632 13.8093 11.2888 14.5301 10.0402 15.2638C8.53419 13.5776 6.61625 13.3459 5.32904 14.6846C4.17056 15.8946 4.24779 17.8382 5.47064 18.9452C6.53902 19.9106 8.7144 20.1938 10.0402 18.1343C10.6967 18.469 11.3532 18.8165 12.0097 19.1512C12.6533 19.4859 13.2969 19.8205 13.9791 20.181C13.3355 21.4553 12.3958 22.4078 11.2245 23.0901C6.68061 25.7546 1.06838 23.1415 0.128721 17.9541C0.128721 17.9283 0.115849 17.9155 0.115849 17.8897C0.0514883 17.5551 0.0128721 17.2075 0.0128721 16.86L0 16.5382Z" fill="white"/>
<path d="M88.6887 9.76811C88.6887 10.077 88.6887 10.3087 88.6887 10.5404C88.6887 14.9169 88.7144 19.2935 88.6758 23.67C88.65 26.8751 87.1569 29.2436 84.2349 30.5179C81.3258 31.7922 78.6356 31.2001 76.177 29.102C77.2068 28.0207 78.2236 26.9652 79.2534 25.884C80.3733 26.7593 81.5446 26.9781 82.7546 26.283C83.7329 25.7295 84.2478 24.8542 84.2478 23.7601C83.1923 23.8888 82.1754 24.1462 81.1456 24.1205C78.0306 24.0433 75.7393 22.5243 74.5165 19.6667C73.2808 16.8091 73.757 14.0803 75.8552 11.789C77.9919 9.45918 80.6693 8.84132 83.72 9.76811C83.9903 9.84535 84.2993 9.75524 84.5953 9.75524C85.934 9.76811 87.2599 9.76811 88.6887 9.76811Z" fill="white"/>
<path d="M119.916 11.5825C121.139 10.4626 122.555 9.79326 124.203 9.56156C128.412 8.98232 132.441 12.4449 132.454 16.6927C132.467 19.0225 132.454 21.3653 132.454 23.7466C130.986 23.7466 129.57 23.7466 128.051 23.7466C128.051 23.5149 128.051 23.2961 128.051 23.0644C128.051 21.0949 128.077 19.1126 128.039 17.1432C128 14.9292 126.108 13.4747 124.138 14.1569C122.967 14.5559 122.195 15.3926 122.143 16.6669C122.066 18.7394 122.092 20.8246 122.079 22.9099C122.079 23.1802 122.079 23.4634 122.079 23.7723C120.586 23.7723 119.157 23.7723 117.664 23.7723C117.664 23.5149 117.664 23.2832 117.664 23.0644C117.664 20.9791 117.689 18.9067 117.638 16.8214C117.612 15.5986 116.943 14.7233 115.823 14.247C114.69 13.7707 113.622 13.9896 112.721 14.8134C111.987 15.4698 111.755 16.3451 111.755 17.3106C111.755 19.2156 111.755 21.1336 111.755 23.0386C111.755 23.2703 111.755 23.502 111.755 23.7723C110.288 23.7723 108.859 23.7723 107.392 23.7723C107.392 19.1899 107.392 14.6074 107.392 10.0507C108.846 10.0507 110.314 10.0507 111.768 10.0507C111.884 10.0507 112.013 10.0507 112.129 10.0121C114.922 9.0338 117.445 9.54869 119.685 11.4538C119.749 11.4795 119.826 11.5181 119.916 11.5825Z" fill="white"/>
<path d="M19.72 23.7601C18.214 23.7601 16.8109 23.7601 15.3564 23.7601C15.3564 17.4657 15.3564 11.197 15.3564 4.88965C16.7852 4.88965 18.214 4.88965 19.6943 4.88965C19.6943 6.60164 19.6943 8.31362 19.6943 10.0771C20.3765 9.90976 20.9815 9.71668 21.5993 9.62658C26.1432 8.95723 30.1078 12.3683 30.1078 16.9637C30.1078 19.2163 30.1078 21.456 30.1078 23.7473C28.6404 23.7473 27.2116 23.7473 25.6927 23.7473C25.6927 23.5027 25.6927 23.2452 25.6927 23.0007C25.6798 20.9025 25.7184 18.8044 25.6283 16.7062C25.5639 15.1744 24.2896 14.0417 22.7964 14.0031C21.2647 13.9645 19.9646 15.0328 19.7844 16.5904C19.6814 17.4528 19.72 18.341 19.72 19.2163C19.7071 20.7094 19.72 22.2026 19.72 23.7601Z" fill="white"/>
<path d="M105.023 10.0124C105.023 14.6077 105.023 19.1516 105.023 23.7855C104.161 23.7855 103.286 23.8628 102.423 23.7726C101.084 23.6311 99.8616 24.1331 98.5744 24.3261C94.7643 24.9054 91.0442 22.2023 90.3749 18.3921C89.6669 14.3889 92.2285 10.5273 96.0772 9.76782C97.3387 9.52325 98.5873 9.57474 99.823 9.93516C100.145 10.0253 100.492 10.0124 100.827 10.0124C102.217 10.0124 103.607 10.0124 105.023 10.0124ZM97.6219 19.9239C99.2438 19.9239 100.57 18.6238 100.582 17.0148C100.595 15.4315 99.2309 14.0928 97.6219 14.0928C96.0515 14.0928 94.7257 15.4058 94.6999 16.9891C94.6613 18.5723 96 19.911 97.6219 19.9239Z" fill="white"/>
<path d="M146.986 21.4557C144.811 24.3005 140.28 24.8926 137.204 22.7558C134.668 21.0052 133.483 17.8644 134.204 14.9038C134.964 11.8145 137.435 9.62628 140.55 9.25299C144.451 8.78959 148.119 11.6086 148.75 15.5217C148.827 15.998 148.544 16.0623 148.248 16.1653C145.648 17.0277 143.047 17.8773 140.447 18.7397C140.228 18.8169 140.023 18.8942 139.778 18.9843C140.795 19.9368 142.211 19.8081 143.678 18.5981C144.772 19.5378 145.879 20.5032 146.986 21.4557ZM143.112 14.286C141.335 13.1532 139.121 13.9256 138.684 15.7534C140.151 15.2643 141.567 14.788 143.112 14.286Z" fill="white"/>
<path d="M52.4537 23.7468C50.9606 23.7468 49.5318 23.7468 48.0644 23.7468C48.0644 17.4395 48.0644 11.1708 48.0644 4.85059C49.5318 4.85059 50.9735 4.85059 52.4537 4.85059C52.4537 11.1579 52.4537 17.4266 52.4537 23.7468Z" fill="white"/>
<path d="M44.8077 23.7468C43.3146 23.7468 41.8858 23.7468 40.4183 23.7468C40.4183 17.4395 40.4183 11.1708 40.4183 4.85059C41.8858 4.85059 43.3274 4.85059 44.8077 4.85059C44.8077 11.1579 44.8077 17.4266 44.8077 23.7468Z" fill="white"/>
<path d="M55.6203 23.7338C55.6203 19.1256 55.6203 14.556 55.6203 9.90918C57.0491 9.90918 58.465 9.90918 59.9453 9.90918C59.9453 14.4788 59.9453 19.0741 59.9453 23.7338C58.5422 23.7338 57.1134 23.7338 55.6203 23.7338Z" fill="white"/>
<path d="M57.8471 1.38867C59.9582 1.38867 61.6573 3.07492 61.6573 5.17306C61.6573 7.28409 59.971 8.9832 57.8729 8.9832C55.7747 8.9832 54.0627 7.29696 54.0627 5.19881C54.0627 3.08779 55.749 1.38867 57.8471 1.38867Z" fill="#FF011B"/>
<path d="M32.708 2.17383C35.2953 3.56401 36.5567 5.97109 37.3548 8.58413C38.2301 11.4546 38.5519 14.4281 37.6766 17.3886C36.634 20.9156 35.2566 24.2623 32.4763 26.8367C31.9743 27.3001 31.5881 27.9051 31.1376 28.4458C30.9059 28.4972 30.8801 28.317 30.8286 28.1626C30.8158 28.0467 30.8415 27.9309 30.8801 27.815C31.7426 26.9011 32.3089 25.7684 33.107 24.8158C33.4417 24.9832 33.6862 24.9317 33.7892 24.5455C34.5358 23.4385 35.1151 22.2414 35.7329 21.0572C37.5994 17.247 37.7023 13.2953 36.7756 9.2406C36.6211 8.01775 35.8616 7.06522 35.3467 5.98396C35.2052 5.5978 34.9348 5.276 34.7675 4.90271C34.8447 5.12154 34.7546 5.22451 34.5616 5.26313C33.9179 4.87697 33.506 4.19475 32.8238 3.86007C32.3733 3.64125 31.8713 3.26796 31.5366 4.02741C31.5366 4.24623 31.6396 4.58091 31.3564 4.6324C30.391 4.79973 30.7385 5.43047 30.8158 5.98396C30.893 6.35726 30.9831 6.73055 31.1633 7.07809C31.5109 7.83754 31.9614 8.53264 32.3218 9.27922C33.9566 12.5745 34.2784 15.9856 33.3644 19.5511C32.7852 21.8166 31.8198 23.9405 31.0089 26.1288C30.7772 26.7338 30.6484 27.3774 30.5068 28.0081C30.3781 28.2913 30.4811 28.6775 30.1078 28.9091C29.9019 28.6388 29.992 28.3556 30.0306 28.0725C30.0692 26.5021 30.7643 25.1248 31.3564 23.7217C32.2188 21.6622 32.9268 19.564 33.21 17.3371C33.5833 14.2736 32.8882 11.4289 31.395 8.75146C31.1376 8.30094 30.9059 7.83755 30.6999 7.36128C30.0692 5.9196 30.0821 4.50368 30.9702 3.15211C31.1762 3.04913 30.9702 2.72733 31.2277 2.6501C31.292 2.6501 31.3693 2.66297 31.4336 2.67584C31.897 2.66297 32.3089 2.43127 32.708 2.17383Z" fill="#381B0E"/>
<path d="M32.708 2.17346C32.4505 2.81707 31.897 2.88143 31.3049 2.82994C31.4336 2.50814 31.6653 2.28931 32.0257 2.21208C30.7771 0.551581 29.078 -0.00191926 27.7007 0.770406C26.4521 1.47837 26.0788 2.41803 26.5551 3.65375C26.1303 2.45665 26.5294 1.4655 27.6621 0.886254C29.1166 0.152546 30.6227 0.603069 31.2405 1.92889C31.3564 2.18634 31.5237 2.44378 31.2663 2.71409C31.1633 2.86856 31.0475 3.02302 30.9445 3.16461C30.9574 2.00613 30.5197 1.29816 29.6315 1.06646C28.6404 0.79615 27.4562 1.31103 26.967 2.18634C26.7096 2.64973 26.7611 3.07451 27.0571 3.48642C27.2116 3.69237 27.5977 3.87258 27.2116 4.16864C26.8769 4.42608 26.5165 4.33597 26.259 4.01417C25.7313 3.35769 25.7055 2.63686 26.0145 1.89028C26.8512 -0.182128 29.8246 -0.658395 31.5752 1.0021C31.9743 1.37539 32.3347 1.77443 32.708 2.17346Z" fill="#3C3819"/>
<path d="M30.0048 28.0848C30.0306 28.3036 30.0563 28.5224 30.0821 28.7799C30.288 28.4967 30.0821 28.162 30.3138 27.9561C30.6227 28.1234 30.4296 28.4323 30.494 28.7155C30.5197 28.368 30.5969 28.1234 30.9702 28.1105C30.9831 28.2392 31.0089 28.3808 31.1504 28.4452C31.0346 28.7284 30.9316 29.0116 30.79 29.2819C30.687 29.475 30.5969 29.7581 30.3138 29.7195C30.0177 29.6809 29.9276 29.3977 29.9147 29.1403C29.889 28.7799 29.8246 28.4194 30.0048 28.0848Z" fill="#602F25"/>
<path d="M30.9574 28.1105C30.7771 28.3422 30.5969 28.561 30.3524 28.87C30.3395 28.4967 30.3266 28.2264 30.3138 27.9561C30.5712 26.051 31.5495 24.4034 32.1673 22.627C32.9911 20.2843 33.7635 17.9416 33.6347 15.3929C33.506 12.87 32.8753 10.5144 31.5495 8.35187C31.3049 7.95283 31.0475 7.56667 30.9702 7.0904C30.893 6.58839 30.5841 6.08638 31.0603 5.62299C31.1891 5.58437 31.395 5.6616 31.4208 5.63586C31.8455 5.1081 31.9614 5.50714 32.103 5.84181C32.1545 5.98341 32.2059 6.13787 32.2703 6.27946C32.2961 6.33095 32.3089 6.36957 32.3218 6.42106C32.3733 6.34382 32.3218 6.26659 32.3218 6.18936C32.3218 5.91905 32.2446 5.68735 32.1416 5.44278C31.8713 4.74769 32.1931 4.34865 32.9397 4.41301C33.4031 4.45163 33.6991 4.73481 33.9051 5.1081C34.0853 5.45565 34.2526 5.8032 34.3942 6.16361C34.5487 6.53691 34.6259 6.94881 35.1408 7.06466C35.3596 7.11615 35.4368 7.39933 35.5141 7.63103C36.6211 10.8362 37.0072 14.1186 36.3508 17.4782C36.2993 17.7614 36.2607 18.0445 36.3636 18.3149C36.4666 19.5377 35.8745 20.5675 35.4111 21.6359C35.2952 21.8933 35.1537 22.1507 35.0378 22.4082C34.7932 22.9359 34.51 22.9488 34.0981 22.524C33.3129 24.442 32.1673 26.154 30.996 27.8659C30.9831 27.9432 30.9702 28.0204 30.9574 28.1105Z" fill="#EC3F34"/>
<path d="M36.2735 18.4566C36.1062 18.2764 35.9389 18.1348 36.0418 17.8001C36.5696 16.0495 36.531 14.2088 36.4409 12.4325C36.3765 11.0551 35.9517 9.66495 35.5012 8.32626C35.0893 7.07767 33.9051 6.26672 33.5961 4.96664C33.5704 4.87654 33.4674 4.81218 33.3773 4.74782C33.0169 4.50325 32.605 4.50325 32.2961 4.74782C32.0129 4.97952 32.2703 5.2627 32.4119 5.48153C32.5921 5.73897 32.5277 6.03503 32.5277 6.30534C31.9871 5.91918 31.8841 5.2627 31.6267 4.7092C31.5109 4.46463 31.4465 4.18145 31.3049 3.93688C31.5237 3.35763 31.9228 3.24178 32.4634 3.46061C33.3387 3.82103 33.9952 4.45176 34.5615 5.19834C34.8447 5.44291 35.1665 5.63599 35.5012 5.82907C36.0032 6.89746 36.8528 7.82425 36.9171 9.08571C37.2389 10.5016 37.3805 11.9304 37.4449 13.385C37.1874 14.0543 37.0716 14.7237 37.0458 15.4703C37.0201 16.3198 36.7884 17.1823 36.7498 18.0576C36.724 18.2893 36.5825 18.5081 36.2735 18.4566Z" fill="#C92F2C"/>
<path d="M36.2735 18.4563C36.3636 18.3662 36.5438 18.2632 36.531 18.186C36.4023 17.1305 36.8785 16.1393 36.8142 15.0709C36.7755 14.5174 36.7884 13.8609 37.3548 13.4619C37.5093 14.6719 37.3677 15.869 37.1231 17.0532C36.8399 18.4949 36.3765 19.898 35.8101 21.2495C35.3081 22.4466 34.6903 23.5922 33.9179 24.6478C33.5447 24.6735 33.6991 24.3388 33.609 24.1844C33.5575 24.4675 33.4288 24.6992 33.1714 24.8537C32.5664 25.935 31.9614 27.0162 31.0089 27.84C31.5752 26.8103 32.1159 25.7676 32.7723 24.7893C33.2615 24.0685 33.5575 23.2318 33.9308 22.4338C34.0209 22.2535 34.0724 22.0605 34.214 21.9189C34.2912 21.9704 34.3427 21.9961 34.3556 22.0219C34.4843 22.2278 34.0467 22.5882 34.4586 22.6655C34.716 22.7169 34.8061 22.3565 34.9348 22.112C35.5656 20.9663 36.0676 19.7692 36.2735 18.4563Z" fill="#C0322E"/>
<path d="M31.2792 2.71387C31.1762 1.54251 30.3781 0.860292 29.5028 0.744443C28.4859 0.615722 27.5463 0.886036 26.8769 1.73559C26.3878 2.35345 26.4264 3.10003 26.9928 3.97534C26.5551 4.0397 26.4006 3.83374 26.2719 3.4862C25.9759 2.701 26.1175 1.98016 26.6452 1.38805C27.3789 0.564234 28.3057 0.0622228 29.4642 0.29392C30.6098 0.512746 31.2019 0.924652 32.4505 2.35345C31.9743 2.36633 31.6267 2.57228 31.3049 2.84259C31.3049 2.7911 31.292 2.75249 31.2792 2.71387Z" fill="#7C8048"/>
<path d="M35.7973 21.2628C36.1062 19.8597 36.7112 18.5467 36.93 17.1308C37.1231 15.9208 37.2904 14.698 37.329 13.4751C37.2132 12.3038 37.2261 11.1067 36.9686 9.94819C36.9043 9.66501 36.8785 9.39469 36.8914 9.09863C37.3419 10.0769 37.3805 11.1582 37.4706 12.1879C37.7538 15.303 37.329 18.3279 35.9131 21.1469C35.8874 21.1984 35.8359 21.2241 35.7973 21.2628Z" fill="#9C2F28"/>
<path d="M31.292 3.9502C31.9356 4.61954 32.0901 5.53346 32.5149 6.30579C32.5149 6.486 32.5149 6.65333 32.5149 6.94939C32.0515 6.486 31.9228 5.99686 31.7425 5.31464C31.5881 5.66218 31.8326 5.90675 31.6396 6.06122C31.3306 6.1127 31.4722 5.73941 31.292 5.66218C31.1504 5.55921 31.0474 5.43049 30.9445 5.26315C30.7514 5.49485 30.9059 5.82952 30.6484 5.98398C30.3781 5.64931 30.5197 5.25028 30.5068 4.87699C30.494 4.65816 30.5841 4.46508 30.8801 4.52944C31.5752 4.72252 31.3178 4.25913 31.292 3.9502Z" fill="#642016"/>
<path d="M30.6484 5.99609C30.6484 5.91886 30.6484 5.84163 30.6613 5.76439C30.7128 5.44259 30.4811 4.91484 30.79 4.86335C31.2148 4.79899 31.1247 5.37823 31.292 5.67429C30.6227 6.02184 31.1247 6.62682 30.9702 7.09022C30.7257 6.75554 30.6742 6.38225 30.6484 5.99609Z" fill="#BA322E"/>
<path d="M33.1585 24.867C33.3258 24.4551 33.506 24.0432 33.7248 23.5283C34.0209 23.966 33.5318 24.3779 33.9051 24.6611C33.7506 24.9056 33.609 25.1631 33.4545 25.4076C33.21 25.2532 33.3773 24.9571 33.1585 24.867Z" fill="#7B261D"/>
<path d="M35.4883 5.82877C35.0249 5.85452 34.6259 5.76441 34.5487 5.19804C34.6259 5.06932 34.716 4.95347 34.819 4.78613C35.0893 5.12081 35.3339 5.45548 35.4883 5.82877Z" fill="#822920"/>
<path d="M33.8278 19.2676C34.5873 16.2169 34.2397 13.2563 33.4159 10.3086C33.7377 10.5017 33.8536 10.772 33.9179 11.068C34.008 11.4285 33.9952 11.4285 34.4328 11.5572C34.4972 11.5829 34.5487 11.6988 34.5744 11.7889C35.115 14.3118 34.9477 16.7833 34.0724 19.2032C34.0724 19.2161 34.0209 19.2161 33.8278 19.2676Z" fill="#F25042"/>
<path d="M81.2872 20.4388C83.356 20.4388 85.033 18.7618 85.033 16.693C85.033 14.6243 83.356 12.9473 81.2872 12.9473C79.2185 12.9473 77.5414 14.6243 77.5414 16.693C77.5414 18.7618 79.2185 20.4388 81.2872 20.4388Z" fill="#FF011B"/>
</svg>
