<svg width="160" height="80" viewBox="0 0 160 80" fill="none" xmlns="http://www.w3.org/2000/svg">
<path d="M109.8 46.2198H102.53L101.07 51.0798H95.44L102.88 29.0498H109.81L117.25 51.0798H111.11L109.81 46.2198H109.8ZM103.61 42.1998H108.74L106.37 34.0398H106.03L103.61 42.1998Z" fill="white"/>
<path d="M118.25 51.0896V29.0596H124.95L130.36 42.5396H130.7L136.11 29.0596H142.81V51.0896H137.57V37.2196H137.18L132.22 49.4096H128.73L123.77 37.2196H123.49V51.0896H118.25Z" fill="white"/>
<path d="M160 51.0896H144.79V29.0596H160V33.5296H150.42V37.9496H159.43V42.0896H150.42V46.5596H160V51.0896Z" fill="white"/>
<path d="M86.99 39.07V42.87H91.1V43.21C90.99 45.45 89.18 46.96 86.59 46.96C84.28 46.96 82.53 45.56 81.74 43.16C81.06 45.12 80.22 47.19 79.26 49.31C81.12 50.82 83.54 51.6 86.47 51.6C92.78 51.6 96.55 47.91 96.55 41.81V38.96L86.97 39.07H86.99Z" fill="white"/>
<path d="M84.34 33.53C84.9 33.25 85.58 33.14 86.26 33.14C88.46 33.14 90.15 34.31 90.71 36.27H96.29C95.73 31.57 91.73 28.5 86.26 28.5C85.87 28.5 85.47 28.5 85.08 28.56C84.91 29.57 84.74 31.3 84.35 33.54L84.34 33.53Z" fill="white"/>
<path d="M71.38 54.0502L74.14 55.0602C75.15 53.6602 76.11 52.1502 77.07 50.4702C77.01 50.4702 74.14 49.4102 74.14 49.4102C73.24 51.0902 72.34 52.6502 71.38 54.0502Z" fill="#FFE100"/>
<path d="M61.24 61.6595L64.28 62.6695C65.13 63.0095 66.59 62.4995 68.28 61.1595L65.74 60.2695C64.11 61.4395 62.59 61.9495 61.23 61.6695L61.24 61.6595Z" fill="#FFE100"/>
<path d="M83.83 25.1399L80.96 24.1299C81.02 25.7499 80.96 27.5999 80.68 29.6099L83.61 30.6699C83.89 28.5999 83.95 26.7599 83.84 25.1299L83.83 25.1399Z" fill="#FFE100"/>
<path d="M66.87 59.3598L69.41 60.3098C70.65 59.1898 71.95 57.7898 73.3 56.0598C73.24 56.0598 70.65 55.0498 70.65 55.0498C69.41 56.8398 68.11 58.2398 66.88 59.3598H66.87Z" fill="#FFE100"/>
<path d="M74.65 48.2901L77.58 49.3501C78.37 47.8401 79.16 46.2201 79.89 44.4301L76.85 43.3701C76.17 45.1001 75.39 46.7301 74.65 48.2901Z" fill="#FFE100"/>
<path d="M80.85 22.8501L83.72 23.8601C83.33 21.3401 82.42 19.5501 80.96 18.7701L78.09 17.3701C79.55 18.3201 80.46 20.2201 80.85 22.8501Z" fill="#FFE100"/>
<path d="M79.32 36.0998L82.31 37.1598C82.82 35.3098 83.21 33.5798 83.49 31.8498L80.5 30.8398C80.22 32.4598 79.82 34.2498 79.32 36.0998Z" fill="#FFE100"/>
<path d="M77.35 42.0903C77.29 42.1503 77.29 42.2003 77.24 42.2603L80.28 43.3203C80.9 41.5903 81.52 39.9603 81.97 38.2903L78.98 37.2803C78.53 38.8503 77.97 40.4103 77.35 42.0903Z" fill="#FFE100"/>
<path d="M13.75 40.02L4.51 29H0V50.92H5.63V39.74H5.69L14.93 50.92H19.38V29H13.75V40.02Z" fill="#FFE100"/>
<path d="M32.56 42.8104H36.67V43.1504C36.5 45.3904 34.7 46.8404 32.16 46.8404C28.95 46.8404 26.86 44.1604 26.86 39.8504C26.86 35.5404 28.72 33.0304 31.87 33.0304C34.07 33.0304 35.7 34.2604 36.26 36.1604H41.84C41.33 31.5704 37.28 28.4404 31.87 28.4404C25.22 28.4404 21.05 32.7504 21.05 39.9604C21.05 47.1704 25.16 51.5404 31.98 51.5404C38.29 51.5404 42.06 47.9104 42.01 41.8704V39.0204H32.55V42.8204L32.56 42.8104Z" fill="#FFE100"/>
<path d="M75.89 41.97C80.34 30 80.68 18.99 76.57 17.42C73.3 16.19 68.29 21.05 64.12 29H60.74L56.51 42.03H56.23L51.72 29H43.89V50.92C43.83 50.92 49.41 50.92 49.41 50.92V37.11L54.37 50.92H57.3C57.24 51.76 57.19 52.54 57.19 53.27C57.19 53.27 56.96 58.58 59.44 60.48C59.78 60.76 60.06 60.87 60.34 60.93C64.57 62.16 71.44 53.77 75.89 41.97ZM62.37 58.19C62.37 58.53 62.31 58.86 62.14 59.14C62.31 58.64 62.37 58.13 62.37 58.19C62.37 58.13 59.72 58.86 58.71 53.27C58.6 52.32 58.6 51.31 58.65 50.19L63.33 37.11V50.92H68.85V29H65.36C68.85 22.96 72.8 19.38 75.44 20.33C79.05 21.67 78.82 31.18 74.88 41.58C71.33 50.92 65.98 57.8 62.37 58.19Z" fill="#FFE100"/>
</svg>
