<svg width="80" height="40" viewBox="0 0 80 40" fill="none" xmlns="http://www.w3.org/2000/svg">
<path d="M27.3652 6.63371L25.9872 6.65242C25.9262 6.91734 25.8282 7.14486 25.6933 7.33498C25.5616 7.5251 25.3898 7.66847 25.1778 7.76509C24.969 7.86171 24.72 7.90534 24.4309 7.89599C24.1386 7.88664 23.9186 7.81028 23.7708 7.66691C23.6231 7.52042 23.5235 7.33654 23.4721 7.11525C23.4207 6.89396 23.3998 6.66177 23.4095 6.41866C23.4191 6.17244 23.4368 5.94803 23.4625 5.74545L23.5299 5.25924C23.5685 5.01302 23.6263 4.76212 23.7034 4.50655C23.7837 4.25098 23.8929 4.01566 24.031 3.80061C24.1724 3.58556 24.3506 3.41414 24.5658 3.28635C24.7811 3.15857 25.0428 3.09935 25.3512 3.1087C25.6339 3.11805 25.8555 3.17727 26.0161 3.28635C26.1767 3.39232 26.2892 3.54192 26.3534 3.73516C26.4209 3.92528 26.453 4.14657 26.4498 4.39902L27.8519 4.4037C27.8294 3.92684 27.7218 3.51076 27.529 3.15545C27.3395 2.79702 27.0681 2.51808 26.7148 2.31861C26.3646 2.11602 25.9358 2.01005 25.4283 2.0007C24.9433 1.99135 24.5096 2.0755 24.1274 2.25316C23.7451 2.43081 23.4143 2.67391 23.1348 2.98247C22.8554 3.29103 22.6289 3.64322 22.4555 4.03904C22.2852 4.43486 22.168 4.84471 22.1037 5.26859L22.0363 5.74077C21.9849 6.14283 21.9881 6.53554 22.0459 6.9189C22.1037 7.30225 22.2242 7.64977 22.4073 7.96144C22.5904 8.27311 22.8425 8.52245 23.1637 8.70945C23.485 8.89334 23.8801 8.98996 24.349 8.99931C24.8565 9.00866 25.3271 8.92139 25.7608 8.73751C26.1944 8.5505 26.5542 8.27935 26.84 7.92404C27.1291 7.56562 27.3042 7.13551 27.3652 6.63371Z" fill="#52575C"/>
<path fill-rule="evenodd" clip-rule="evenodd" d="M57.9272 5.64727L57.9657 5.32001C58.0171 4.91484 58.0107 4.51746 57.9465 4.12787C57.8822 3.73516 57.7537 3.38141 57.561 3.06662C57.3715 2.74872 57.1113 2.4947 56.7805 2.30458C56.4528 2.11134 56.0513 2.01161 55.5759 2.00538C55.0844 1.99603 54.6412 2.08174 54.2461 2.26251C53.8542 2.44328 53.5137 2.69261 53.2246 3.01052C52.9387 3.32531 52.7058 3.68373 52.526 4.08579C52.3493 4.48785 52.2288 4.90705 52.1646 5.34339L52.1261 5.66597C52.0747 6.07738 52.0811 6.47944 52.1453 6.87214C52.2096 7.26174 52.3365 7.61548 52.526 7.93339C52.7187 8.2513 52.9789 8.50687 53.3065 8.7001C53.6374 8.89022 54.0405 8.98996 54.5159 8.99931C55.0138 9.00866 55.4587 8.92295 55.8505 8.74218C56.2456 8.55829 56.5861 8.30896 56.872 7.99417C57.1579 7.67626 57.3892 7.31472 57.5658 6.90955C57.7425 6.50437 57.8629 6.08361 57.9272 5.64727ZM56.5444 5.32936L56.4962 5.66597C56.4641 5.91843 56.4046 6.17711 56.3179 6.44204C56.2312 6.70384 56.1123 6.94695 55.9614 7.17135C55.8104 7.39264 55.6225 7.57029 55.3976 7.70431C55.176 7.83833 54.9094 7.90066 54.5978 7.89131C54.3055 7.87885 54.0806 7.79781 53.9233 7.64821C53.7659 7.49861 53.6566 7.31004 53.5956 7.08252C53.5346 6.85189 53.5041 6.6119 53.5041 6.36256C53.5073 6.1101 53.5233 5.87947 53.5522 5.67065L53.5956 5.33404C53.6342 5.08159 53.6952 4.82446 53.7787 4.56265C53.8654 4.29773 53.9827 4.05462 54.1304 3.83334C54.2814 3.60893 54.4677 3.43128 54.6893 3.30038C54.9142 3.16947 55.184 3.1087 55.4988 3.11805C55.7911 3.13051 56.0144 3.21155 56.1685 3.36115C56.3259 3.50764 56.4351 3.6962 56.4962 3.92684C56.5572 4.15436 56.5861 4.39279 56.5829 4.64213C56.5829 4.88835 56.5701 5.11743 56.5444 5.32936Z" fill="#52575C"/>
<path d="M48.9942 8.90581L50.0124 3.19752H52.102L52.2995 2.09888H46.7441L46.5466 3.19752H48.6047L47.5825 8.90581H48.9942Z" fill="#52575C"/>
<path fill-rule="evenodd" clip-rule="evenodd" d="M42.9281 6.48411L41.6082 6.48071L41.1742 8.90581H39.7625L40.9767 2.09888L43.5544 2.10355C44.0009 2.1129 44.3992 2.20641 44.7494 2.38406C45.0995 2.5586 45.3693 2.80793 45.5588 3.13207C45.7516 3.4531 45.8286 3.84113 45.7901 4.29617C45.7483 4.79173 45.5893 5.20158 45.3131 5.52572C45.0368 5.84986 44.6883 6.0914 44.2675 6.25036C43.85 6.40619 43.4035 6.48411 42.9281 6.48411ZM41.8039 5.38685L42.9763 5.39014C43.214 5.39014 43.4324 5.34962 43.6315 5.26859C43.8307 5.18444 43.9945 5.06288 44.123 4.90393C44.2515 4.74498 44.3334 4.54551 44.3687 4.30552C44.4008 4.10293 44.3896 3.9206 44.335 3.75853C44.2804 3.59647 44.184 3.46556 44.0459 3.36583C43.9078 3.26609 43.7295 3.21155 43.5111 3.2022L42.1957 3.19752L41.8039 5.38685Z" fill="#52575C"/>
<path d="M36.8282 5.19379L35.9657 2.09888L34.4769 2.10355L35.9368 6.35788L35.4791 8.90581H36.9149L37.3389 6.49346L40.4033 2.09888H38.7989L36.8282 5.19379Z" fill="#52575C"/>
<path fill-rule="evenodd" clip-rule="evenodd" d="M29.1432 2.09888L31.6149 2.10355C32.0421 2.10979 32.4292 2.18615 32.7761 2.33263C33.1262 2.47912 33.3976 2.69885 33.5904 2.99182C33.7863 3.28479 33.8682 3.65724 33.8361 4.10917C33.804 4.48006 33.7108 4.79329 33.5566 5.04886C33.4057 5.30443 33.2017 5.52104 32.9447 5.6987C32.7408 5.84145 32.512 5.9681 32.2583 6.07866L33.2724 8.83101V8.90581H31.7691L30.9287 6.38594H29.7916L29.3407 8.90581H27.929L29.1432 2.09888ZM29.9868 5.29495L31.056 5.30131C31.2905 5.2982 31.5041 5.25456 31.6968 5.17041C31.8895 5.08626 32.0485 4.96471 32.1738 4.80575C32.3023 4.64369 32.3826 4.44733 32.4147 4.21669C32.4436 4.01411 32.4292 3.83801 32.3714 3.68841C32.3168 3.53881 32.222 3.42193 32.0871 3.33778C31.9522 3.25363 31.7803 3.20843 31.5715 3.2022L30.3622 3.19752L29.9868 5.29495Z" fill="#52575C"/>
<g clip-path="url(#clip0_14172_230476)">
<path d="M24.637 28.9045C23.0342 35.3339 16.5223 39.2467 10.0921 37.6434C3.66473 36.0405 -0.248054 29.5282 1.35552 23.0994C2.95768 16.6693 9.46957 12.7563 15.8977 14.3591C22.3274 15.962 26.2399 22.475 24.6369 28.9046L24.637 28.9045H24.637Z" fill="#F7931A"/>
<path d="M18.2884 24.2915C18.5273 22.6944 17.3114 21.8359 15.6487 21.2632L16.188 19.0997L14.8711 18.7716L14.346 20.8781C13.9998 20.7917 13.6442 20.7103 13.2909 20.6297L13.8198 18.5093L12.5036 18.1812L11.9639 20.3439C11.6774 20.2787 11.396 20.2142 11.123 20.1463L11.1246 20.1394L9.30846 19.6859L8.95813 21.0925C8.95813 21.0925 9.9352 21.3165 9.91461 21.3303C10.4479 21.4634 10.5443 21.8164 10.5283 22.0962L9.91391 24.5609C9.95063 24.5702 9.99826 24.5837 10.0508 24.6048C10.0069 24.5939 9.96013 24.582 9.91162 24.5704L9.05041 28.023C8.98524 28.185 8.81981 28.4282 8.44696 28.3359C8.46016 28.355 7.48978 28.097 7.48978 28.097L6.83594 29.6045L8.54973 30.0317C8.86856 30.1117 9.18099 30.1953 9.48867 30.274L8.9437 32.4622L10.2591 32.7904L10.7988 30.6254C11.1582 30.7229 11.5069 30.8129 11.8483 30.8977L11.3105 33.0525L12.6275 33.3807L13.1724 31.1966C15.4181 31.6216 17.1066 31.4502 17.8174 29.419C18.3901 27.7836 17.7889 26.8404 16.6074 26.2252C17.4679 26.0268 18.1161 25.4608 18.2889 24.2917L18.2885 24.2914L18.2884 24.2915ZM15.2795 28.5108C14.8725 30.1462 12.1191 29.2621 11.2263 29.0404L11.9495 26.1414C12.8422 26.3643 15.7049 26.8053 15.2796 28.5108H15.2795ZM15.6868 24.2678C15.3155 25.7553 13.0238 24.9996 12.2804 24.8143L12.936 22.185C13.6794 22.3703 16.0735 22.7162 15.6869 24.2678H15.6868Z" fill="white"/>
</g>
<g clip-path="url(#clip1_14172_230476)">
<circle cx="30.9961" cy="26.0015" r="12" fill="#50AF95"/>
<path fill-rule="evenodd" clip-rule="evenodd" d="M32.5147 26.7398C32.4299 26.7461 31.9915 26.7723 31.0136 26.7723C30.2358 26.7723 29.6836 26.7489 29.4899 26.7398C26.4841 26.6075 24.2406 26.0843 24.2406 25.4578C24.2406 24.8314 26.4841 24.3089 29.4899 24.1745V26.2186C29.6864 26.2328 30.2493 26.266 31.027 26.266C31.9604 26.266 32.4277 26.2271 32.5119 26.2194V24.1759C35.5113 24.3096 37.7498 24.8328 37.7498 25.4578C37.7498 26.0829 35.512 26.6061 32.5119 26.739L32.5147 26.7398ZM32.5147 23.9645V22.1353H36.7006V19.3459H25.304V22.1353H29.4892V23.9638C26.0875 24.1201 23.5293 24.7939 23.5293 25.6014C23.5293 26.4088 26.0875 27.082 29.4892 27.2389V33.1005H32.514V27.2368C35.9079 27.0806 38.4619 26.4074 38.4619 25.6007C38.4619 24.7939 35.9101 24.1208 32.514 23.9638L32.5147 23.9645Z" fill="white"/>
</g>
<g clip-path="url(#clip2_14172_230476)">
<path d="M48.9961 38.0015C55.6235 38.0015 60.9961 32.6289 60.9961 26.0015C60.9961 19.374 55.6235 14.0015 48.9961 14.0015C42.3687 14.0015 36.9961 19.374 36.9961 26.0015C36.9961 32.6289 42.3687 38.0015 48.9961 38.0015Z" fill="#627EEA"/>
<path d="M49.3691 17.0015V23.654L54.9919 26.1665L49.3691 17.0015Z" fill="white" fill-opacity="0.602"/>
<path d="M49.3696 17.0015L43.7461 26.1665L49.3696 23.654V17.0015Z" fill="white"/>
<path d="M49.3691 30.4774V34.9976L54.9956 27.2134L49.3691 30.4774Z" fill="white" fill-opacity="0.602"/>
<path d="M49.3696 34.9976V30.4766L43.7461 27.2134L49.3696 34.9976Z" fill="white"/>
<path d="M49.3691 29.4313L54.9919 26.1665L49.3691 23.6555V29.4313Z" fill="white" fill-opacity="0.2"/>
<path d="M43.7461 26.1665L49.3696 29.4313V23.6555L43.7461 26.1665Z" fill="white" fill-opacity="0.602"/>
</g>
<g clip-path="url(#clip3_14172_230476)">
<circle cx="66.9961" cy="26.0015" r="12" fill="#EBEBEB"/>
<path fill-rule="evenodd" clip-rule="evenodd" d="M73.9961 26.7112V25.2888C73.9961 24.8396 73.954 24.4385 73.8699 24.0856C73.7859 23.7291 73.665 23.4207 73.5073 23.1604C73.3531 22.9002 73.1656 22.6845 72.9449 22.5134C72.7241 22.3387 72.4771 22.2103 72.2038 22.1283C71.934 22.0428 71.6414 22 71.326 22C70.9335 22 70.5744 22.066 70.2485 22.1979C69.9226 22.3298 69.6405 22.5312 69.4023 22.8021C69.164 23.0731 68.98 23.4153 68.8504 23.8289C68.7242 24.2389 68.6612 24.7255 68.6612 25.2888V26.7112C68.6612 27.1604 68.7032 27.5633 68.7873 27.9198C68.8714 28.2727 68.9923 28.5793 69.15 28.8396C69.3077 29.0998 69.4951 29.3173 69.7124 29.492C69.9331 29.6631 70.1802 29.7914 70.4535 29.877C70.7268 29.959 71.0211 30 71.3365 30C71.729 30 72.0881 29.934 72.414 29.8021C72.7399 29.6702 73.0202 29.4688 73.255 29.1979C73.4933 28.9269 73.6755 28.5847 73.8016 28.1711C73.9313 27.7576 73.9961 27.2709 73.9961 26.7112ZM72.2248 25.0588V26.9305C72.2248 27.2442 72.2038 27.5098 72.1617 27.7273C72.1232 27.9412 72.0636 28.1141 71.983 28.246C71.9059 28.3743 71.8131 28.467 71.7044 28.5241C71.5958 28.5811 71.4732 28.6096 71.3365 28.6096C71.2244 28.6096 71.121 28.5918 71.0264 28.5561C70.9318 28.5205 70.8477 28.4635 70.7741 28.385C70.7005 28.303 70.6374 28.1979 70.5849 28.0695C70.5358 27.9376 70.4973 27.779 70.4693 27.5936C70.4447 27.4046 70.4325 27.1836 70.4325 26.9305V25.0588C70.4325 24.7487 70.4517 24.4866 70.4903 24.2727C70.5323 24.0588 70.5919 23.8877 70.669 23.7594C70.7461 23.631 70.8389 23.5383 70.9476 23.4813C71.0597 23.4207 71.1858 23.3904 71.326 23.3904C71.4381 23.3904 71.5397 23.41 71.6309 23.4492C71.7255 23.4848 71.8096 23.5437 71.8831 23.6257C71.9567 23.7041 72.0181 23.8075 72.0671 23.9358C72.1197 24.0642 72.1582 24.221 72.1827 24.4064C72.2108 24.5918 72.2248 24.8093 72.2248 25.0588Z" fill="#52575C"/>
<path d="M67.1507 29.893V22.107H66.9878L63.6344 23.2888V24.6578L65.3794 24.139V29.893H67.1507Z" fill="#52575C"/>
<path d="M59.7811 23.4305H61.4652V25.4757H63.2266V27.0138H61.4652V29.1201H59.7811V27.0138H57.9961V25.4757H59.7811V23.4305Z" fill="#52575C"/>
</g>
<defs>
<clipPath id="clip0_14172_230476">
<rect x="0.996094" y="14" width="24" height="24.0027" rx="12" fill="white"/>
</clipPath>
<clipPath id="clip1_14172_230476">
<rect width="24" height="24" fill="white" transform="translate(18.9961 14.0015)"/>
</clipPath>
<clipPath id="clip2_14172_230476">
<rect x="36.9961" y="14.0015" width="24" height="24" rx="12" fill="white"/>
</clipPath>
<clipPath id="clip3_14172_230476">
<rect width="24" height="24" fill="white" transform="translate(54.9961 14.0015)"/>
</clipPath>
</defs>
</svg>
