<svg width="56" height="28" viewBox="0 0 56 28" fill="none" xmlns="http://www.w3.org/2000/svg">
<g clip-path="url(#clip0_38_546)">
<path d="M2.17301 16.8563C5.91041 14.9144 9.93894 14.9144 13.6763 16.8563C14.2722 13.9394 14.8612 11.0226 15.457 8.09772C10.5618 5.55959 5.28751 5.55959 0.392334 8.10578C1.45533 9.16938 2.43707 10.3377 3.33079 11.5947C2.85008 13.3271 2.46415 15.0917 2.17301 16.8563Z" fill="#0E5404"/>
<path d="M1.8687 17.1948L1.92963 16.8161C2.214 15.0676 2.59993 13.3272 3.0671 11.6351C2.18692 10.4023 1.22549 9.26618 0.20989 8.25898L0 8.04949L0.250514 7.92057C2.70826 6.63942 5.26756 5.99481 7.84718 5.99481C10.4336 5.99481 12.9861 6.63942 15.4438 7.92057L15.5725 7.98503L13.7173 17.1384L13.5345 17.0417C9.81743 15.1079 5.88369 15.1079 2.16661 17.0417L1.8687 17.1948ZM7.84718 15.1965C9.76327 15.1965 11.659 15.6639 13.4804 16.5744L15.1798 8.2187C10.42 5.79337 5.40297 5.7692 0.636441 8.16229C1.61141 9.16143 2.53899 10.2653 3.38532 11.4659L3.44626 11.5545L3.41918 11.6593C2.97231 13.2547 2.6067 14.8904 2.32233 16.526C4.11655 15.6397 5.97171 15.1965 7.84718 15.1965Z" fill="#260006"/>
<path d="M53.8267 16.8562C50.0893 14.9143 46.0608 14.9143 42.3234 16.8562C41.7276 13.9394 41.1385 11.0225 40.5427 8.09763C45.4379 5.55144 50.7122 5.55144 55.6074 8.09763C54.5444 9.16123 53.5627 10.3296 52.669 11.5865C53.1497 13.327 53.5356 15.0916 53.8267 16.8562Z" fill="#0E5404"/>
<path d="M53.8333 17.0417C50.1162 15.1079 46.1825 15.1079 42.4654 17.0417L42.2826 17.1384L40.4207 7.98503L40.5493 7.92057C43.007 6.63942 45.5663 5.99481 48.146 5.99481C50.7323 5.99481 53.2849 6.63942 55.7426 7.92057L55.9931 8.04949L55.7832 8.25898C54.7677 9.27424 53.8062 10.4104 52.926 11.6351C53.3932 13.3272 53.7791 15.0757 54.0635 16.8161L54.1244 17.1948L53.8333 17.0417ZM53.6708 16.526C53.3864 14.8823 53.0208 13.2466 52.574 11.6593L52.5469 11.5545L52.6078 11.4659C53.4609 10.2734 54.3817 9.16143 55.3567 8.16229C50.5902 5.77726 45.5731 5.79337 40.8134 8.22675L42.5128 16.5824C44.3409 15.6639 46.2366 15.2046 48.146 15.2046C50.0214 15.1965 51.8834 15.6397 53.6708 16.526Z" fill="#260006"/>
<path d="M8.66637 6.43004C8.46325 5.99493 8.05701 5.54371 7.4138 5.46314C7.42057 5.46314 7.42734 5.46314 7.43411 5.46314C7.37318 5.45508 7.31224 5.45508 7.25808 5.45508C7.24454 5.45508 7.23776 5.45508 7.22422 5.45508C6.34404 5.47925 5.63989 6.33335 5.63989 7.38083V14.5037H10.2101C9.42468 12.1187 8.97782 9.55637 8.8221 6.92155C8.78147 6.72817 8.74085 6.59925 8.66637 6.43004Z" fill="#13A600"/>
<path opacity="0.5" d="M8.99157 6.42998C8.78845 5.99487 8.38221 5.54365 7.739 5.46307C7.74577 5.46307 7.75254 5.46307 7.75931 5.46307C7.69837 5.45501 7.63744 5.47113 7.58327 5.47113C7.56973 5.47113 7.56296 5.47113 7.54942 5.47113C6.66923 5.4953 5.96509 6.32523 5.96509 7.37271V14.5036H10.5353C9.74988 12.1186 9.30302 9.55631 9.14729 6.92149C9.11344 6.72811 9.07281 6.59919 8.99157 6.42998Z" fill="url(#paint0_linear_38_546)"/>
<path d="M46.1152 6.43004C46.3184 5.99493 46.7246 5.54371 47.3678 5.46314C47.361 5.46314 47.3543 5.46314 47.3475 5.46314C47.4084 5.45508 47.4694 5.45508 47.5235 5.45508C47.5371 5.45508 47.5438 5.45508 47.5574 5.45508C48.4376 5.47925 49.1417 6.33335 49.1417 7.38083V14.5037H44.5715C45.3569 12.1187 45.8038 9.55637 45.9595 6.92155C46.0001 6.72817 46.0408 6.59925 46.1152 6.43004Z" fill="#13A600"/>
<path opacity="0.5" d="M45.79 6.42956C45.9932 5.99446 46.3994 5.54323 47.0426 5.46266C47.0358 5.46266 47.0291 5.46266 47.0223 5.46266C47.0832 5.4546 47.1442 5.46266 47.1983 5.46266C47.2119 5.46266 47.2186 5.46266 47.2322 5.46266C48.1124 5.48683 48.8165 6.32482 48.8165 7.3723V14.5032H44.2463C45.0317 12.1182 45.4786 9.55589 45.6343 6.92107C45.6682 6.72769 45.7088 6.59877 45.79 6.42956Z" fill="url(#paint1_linear_38_546)"/>
<path d="M40.6647 5.4628C39.7168 5.4628 38.8569 6.53445 38.4981 7.58194C36.9815 11.933 33.1899 16.0988 27.3942 16.0827C21.6053 16.0988 17.807 11.933 16.2904 7.58194C15.9248 6.53445 15.0717 5.4628 14.1238 5.4628C11.8353 5.4628 7.11615 5.4628 7.10938 5.4628C7.75259 5.54337 8.3958 5.88985 8.50413 7.30798C8.70725 9.93474 9.09995 12.5051 9.89211 14.8901C10.9348 18.0568 12.5801 20.9011 14.9498 23.1491C18.3622 26.3883 23.0542 27.9998 27.401 27.9998C31.741 27.9998 36.4398 26.3883 39.8522 23.1491C42.2219 20.9011 43.8672 18.0568 44.9099 14.8901C45.6953 12.5051 46.0947 9.93474 46.2979 7.30798C46.4062 5.88179 47.0765 5.53532 47.7129 5.4628C47.6926 5.4628 42.9532 5.4628 40.6647 5.4628Z" fill="#260006"/>
<path d="M47.3476 5.47086C45.4044 5.47086 42.6217 5.47086 40.3332 5.47086C39.3853 5.47086 38.5254 6.15575 38.1666 7.19517C36.65 11.5463 33.1834 15.712 27.3945 15.6959C21.5988 15.712 18.1322 11.5382 16.6156 7.18711C16.25 6.13963 15.3969 5.4628 14.449 5.4628C12.1605 5.4628 9.37102 5.4628 7.43462 5.4628C7.42785 5.4628 7.42108 5.4628 7.41431 5.4628C8.05752 5.54337 8.46376 5.98654 8.66688 6.42971C8.66688 6.42971 8.66688 6.42971 8.66688 6.43776C8.76844 6.65532 8.8226 6.89704 8.84291 7.14683C9.00541 9.70107 9.45227 12.1909 10.2174 14.5034C11.26 17.67 12.9053 20.5143 15.275 22.7624C18.6874 26.0015 23.0545 27.613 27.3945 27.613C31.7345 27.613 36.1015 26.0015 39.5139 22.7624C41.8837 20.5143 43.5289 17.67 44.5716 14.5034C45.3367 12.1909 45.7768 9.70107 45.946 7.14683C45.9596 6.89704 46.0205 6.65532 46.1221 6.43776C46.1221 6.43776 46.1221 6.43776 46.1221 6.42971C46.3252 5.9946 46.7314 5.54337 47.3747 5.4628C47.3679 5.47086 47.3543 5.47086 47.3476 5.47086Z" fill="#289211"/>
<path d="M27.516 15.9135C27.3129 15.9215 27.103 15.9296 26.8931 15.9296C21.3885 15.9457 18.0912 11.9814 16.6491 7.83978C16.297 6.84871 15.4845 6.2041 14.5773 6.2041C12.4039 6.2041 9.7498 6.2041 7.90142 6.2041C7.89464 6.2041 7.88787 6.2041 7.8811 6.2041C8.49046 6.27662 8.87639 6.70367 9.07274 7.12266C9.07274 7.12266 9.07274 7.12266 9.07274 7.13072C9.16753 7.34022 9.22169 7.56583 9.242 7.7995C9.39773 10.2248 9.81751 12.5937 10.5487 14.7935C11.544 17.807 13.108 20.5063 15.3627 22.6415C18.6058 25.7195 22.763 27.2585 26.8863 27.2585C27.0962 27.2585 27.3061 27.2504 27.5092 27.2424V15.9135H27.516Z" fill="#1A7D06"/>
<path d="M4.15708 14.9708C6.30337 14.4552 8.46321 14.012 10.6298 13.6252C11.7131 13.3916 12.9048 13.1015 13.7782 12.2554C14.4281 11.6269 14.7735 10.652 14.6651 9.65285C14.5974 9.03242 14.3808 8.50062 14.0084 8.07357C13.636 7.64652 13.1485 7.34033 12.5459 7.15501C13.0537 6.88105 13.4193 6.51846 13.6563 6.06724C13.8933 5.61601 13.9813 5.10839 13.9203 4.54436C13.812 3.47271 13.2094 2.6186 12.397 2.17544C11.1985 1.50666 9.83765 1.4422 8.52414 1.42609C6.27629 1.46637 4.02844 1.51472 1.78735 1.55501C1.95662 2.52191 2.13266 3.48882 2.30192 4.46378C2.78941 4.43155 3.03315 4.41544 3.52064 4.38321C3.94042 6.87299 4.36697 9.36278 4.78675 11.8445C4.32634 11.9251 4.09614 11.9734 3.63574 12.0621C3.81178 13.029 3.98781 14.0039 4.15708 14.9708ZM8.42258 4.02868C9.07934 3.95616 9.87827 4.25429 10.0001 5.1245C10.122 5.99472 9.37048 6.3976 8.75435 6.3976C8.35488 6.42983 8.15176 6.44594 7.74552 6.47817C7.63042 5.68047 7.50855 4.87472 7.39345 4.07702C7.80646 4.06091 8.00958 4.05285 8.42258 4.02868ZM8.46321 11.3208C8.33457 10.4344 8.19915 9.55616 8.07051 8.66983C8.53091 8.62148 8.75435 8.58925 9.21475 8.54091C9.91213 8.42004 10.6772 8.78263 10.7991 9.67702C10.921 10.5634 10.2574 11.1113 9.58037 11.1516C9.14027 11.216 8.91007 11.2482 8.46321 11.3208Z" fill="url(#paint2_linear_38_546)"/>
<path d="M15.9648 12.8679C17.5288 12.6987 19.0861 12.5617 20.6569 12.4569C20.6095 11.6431 20.5621 10.8374 20.5147 10.0236C20.034 10.0477 19.797 10.0638 19.3163 10.088C19.4314 9.58039 19.4923 9.33061 19.6142 8.83104C20.623 8.78269 21.6319 8.7424 22.6407 8.71017C22.7964 9.19363 22.8709 9.44341 23.0266 9.92686C22.5459 9.94298 22.3089 9.95104 21.8282 9.96715C21.8688 10.7729 21.9027 11.5787 21.9433 12.3925C24.0761 12.3038 26.2088 12.2716 28.3416 12.3119C28.3483 11.5061 28.3551 10.6923 28.3551 9.88658C27.9353 9.87852 27.7187 9.87852 27.2989 9.87852C26.3713 6.95363 25.3896 4.05291 24.3604 1.17636C21.7876 1.20859 19.2147 1.24888 16.6419 1.28917C16.7096 2.11104 16.7773 2.94097 16.8518 3.76284C17.5085 3.73866 17.8403 3.73061 18.497 3.71449C17.8877 5.89003 17.319 8.07363 16.7841 10.2814C16.3643 10.3136 16.1544 10.3378 15.7346 10.37C15.8023 11.2 15.8836 12.0299 15.9648 12.8679ZM20.0475 7.04226C20.3387 5.89003 20.6433 4.7378 20.948 3.58557C21.3272 4.71363 21.7063 5.84169 22.0719 6.96974C21.4017 6.99392 20.7246 7.01003 20.0475 7.04226Z" fill="url(#paint3_linear_38_546)"/>
<path d="M35.2886 12.9406C36.3177 13.0453 37.5297 12.997 38.4776 12.2718C39.263 11.6675 39.7911 10.6361 39.8791 9.53224C39.94 8.76677 39.8926 8.09799 39.6963 7.57425C39.4999 7.05051 39.2156 6.63152 38.8297 6.30922C38.4505 5.98691 38.0239 5.73713 37.55 5.55986C37.0761 5.37454 36.5953 5.23756 36.1079 5.13281C35.6271 5.02806 35.1803 4.92332 34.774 4.83468C34.3678 4.73799 34.0428 4.62519 33.8058 4.48015C33.5621 4.33511 33.447 4.13368 33.4605 3.86778C33.4741 3.58576 33.6027 3.36821 33.86 3.22317C34.1105 3.07814 34.449 3.00562 34.8621 3.00562C35.4443 3.00562 35.9521 3.16677 36.3719 3.48907C36.7917 3.81137 37.0557 4.27065 37.1573 4.85886C38.1187 4.88303 39.0869 4.91526 40.0484 4.94749C40.1702 3.62605 40.2921 2.30461 40.414 0.983172C39.6963 0.991229 38.9786 0.999287 38.2677 1.00734C38.0713 1.48274 37.9766 1.71641 37.7802 2.18375C37.4417 1.73252 36.9813 1.39411 36.4058 1.16044C35.6948 0.870366 34.9365 0.838136 34.2053 0.830078C33.3522 0.822021 32.4517 0.991229 31.6392 1.31353C31.0705 1.53914 30.3867 2.01454 29.9872 2.57857C29.608 3.11037 29.4117 3.73886 29.3981 4.44792C29.3846 5.18116 29.4997 5.78547 29.7367 6.25281C29.9736 6.72015 30.2919 7.09886 30.6846 7.38087C31.0773 7.66288 31.5106 7.88044 31.9845 8.04159C32.4585 8.20274 32.9324 8.33166 33.4064 8.42835C33.8803 8.5331 34.3136 8.63785 34.7063 8.7426C35.099 8.84734 35.4105 8.99238 35.6407 9.16159C35.8709 9.3308 35.9724 9.57252 35.9521 9.87871C35.9318 10.1607 35.8099 10.3702 35.5865 10.5153C35.3631 10.6603 35.0584 10.7167 34.6657 10.6845C33.948 10.6361 33.3725 10.4186 32.9121 10.0318C32.4585 9.6531 32.1876 9.18576 32.1199 8.62979C31.2059 8.59756 30.2919 8.57339 29.3711 8.55727C29.3507 9.81425 29.3304 11.0793 29.3169 12.3363C29.9736 12.3604 30.6236 12.3846 31.2804 12.4249C31.4429 11.9817 31.5174 11.7642 31.6798 11.321C32.0184 11.74 32.4856 12.0945 33.0611 12.3766C33.7787 12.7311 34.5641 12.8681 35.2886 12.9406Z" fill="url(#paint4_linear_38_546)"/>
<path d="M46.7041 14.8339C47.74 15.0676 48.9858 15.124 49.954 14.3666C50.868 13.6575 51.4706 12.4327 51.6263 11.1597C51.7211 10.3781 51.8159 9.56425 51.6399 8.77461C51.4977 8.13001 51.2472 7.60627 50.9019 7.21145C50.5566 6.80857 50.1503 6.49433 49.6967 6.26066C49.2363 6.02699 48.7759 5.84166 48.3019 5.69663C47.828 5.55159 47.3947 5.42267 47.002 5.29375C46.6093 5.16483 46.2978 5.01979 46.0676 4.84253C45.8374 4.66526 45.7426 4.43159 45.7833 4.12541C45.8239 3.8031 45.9796 3.55332 46.2437 3.39217C46.5077 3.23102 46.853 3.15044 47.266 3.1585C47.8483 3.17461 48.3358 3.368 48.7285 3.75476C49.1144 4.14152 49.3311 4.68943 49.3785 5.3985C50.3399 5.46296 51.2946 5.52742 52.256 5.59994C52.5065 4.00454 52.7638 2.40915 53.0143 0.813751C52.2966 0.821808 51.5857 0.829866 50.868 0.837924C50.6243 1.40195 50.5024 1.68397 50.2654 2.23994C49.9743 1.70008 49.5477 1.2972 48.9993 1.02325C48.3155 0.676772 47.5504 0.644542 46.8395 0.636485C45.9728 0.62037 45.0182 0.789578 44.2328 1.1844C43.5896 1.5067 42.9396 1.94987 42.4589 2.58641C42.0729 3.1021 41.748 3.9562 41.687 4.64915C41.6193 5.44684 41.6599 6.13979 41.8495 6.67965C42.0391 7.21951 42.3167 7.65461 42.6823 8.00109C43.0479 8.34756 43.4609 8.62152 43.9146 8.83907C44.3682 9.04857 44.8286 9.23389 45.2958 9.38699C45.7562 9.54008 46.1827 9.69317 46.5619 9.84627C46.941 9.99936 47.2389 10.1927 47.4488 10.4103C47.6587 10.6279 47.74 10.9179 47.6926 11.2805C47.6452 11.6109 47.503 11.8526 47.266 11.9976C47.0291 12.1507 46.7176 12.183 46.3317 12.1185C45.6208 11.9896 45.0656 11.6834 44.6458 11.208C44.2328 10.7245 44.0094 10.1766 43.9958 9.53202C43.0818 9.42728 42.1745 9.33059 41.2605 9.23389C41.1183 10.6359 40.9693 12.0379 40.8271 13.4399C41.4771 13.5447 42.1271 13.6575 42.7771 13.7703C42.9802 13.2868 43.0818 13.0451 43.2849 12.5617C43.5828 13.0773 44.0093 13.5366 44.5578 13.9314C45.2078 14.4068 45.9796 14.6727 46.7041 14.8339Z" fill="url(#paint5_linear_38_546)"/>
</g>
<defs>
<linearGradient id="paint0_linear_38_546" x1="5.97052" y1="9.98408" x2="10.5417" y2="9.98408" gradientUnits="userSpaceOnUse"><stop stop-color="white"/><stop offset="1"/></linearGradient>
<linearGradient id="paint1_linear_38_546" x1="44.24" y1="9.98335" x2="48.8112" y2="9.98335" gradientUnits="userSpaceOnUse"><stop stop-color="white"/><stop offset="1"/></linearGradient>
<linearGradient id="paint2_linear_38_546" x1="8.23565" y1="1.42306" x2="8.23565" y2="14.969" gradientUnits="userSpaceOnUse"><stop stop-color="#FF0400"/><stop offset="0.14" stop-color="#FF2B00"/><stop offset="0.4549" stop-color="#FF7F00"/><stop offset="0.713" stop-color="#FFBD00"/><stop offset="0.9012" stop-color="#FFE300"/><stop offset="1" stop-color="#FFF100"/></linearGradient>
<linearGradient id="paint3_linear_38_546" x1="22.0387" y1="1.17066" x2="22.0387" y2="12.8673" gradientUnits="userSpaceOnUse"><stop stop-color="#FF0400"/><stop offset="0.14" stop-color="#FF2B00"/><stop offset="0.4549" stop-color="#FF7F00"/><stop offset="0.713" stop-color="#FFBD00"/><stop offset="0.9012" stop-color="#FFE300"/><stop offset="1" stop-color="#FFF100"/></linearGradient>
<linearGradient id="paint4_linear_38_546" x1="34.875" y1="0.816783" x2="34.875" y2="12.9782" gradientUnits="userSpaceOnUse"><stop stop-color="#FF0400"/><stop offset="0.14" stop-color="#FF2B00"/><stop offset="0.4549" stop-color="#FF7F00"/><stop offset="0.713" stop-color="#FFBD00"/><stop offset="0.9012" stop-color="#FFE300"/><stop offset="1" stop-color="#FFF100"/></linearGradient>
<linearGradient id="paint5_linear_38_546" x1="46.9106" y1="0.630579" x2="46.9106" y2="14.9894" gradientUnits="userSpaceOnUse"><stop stop-color="#FF0400"/><stop offset="0.14" stop-color="#FF2B00"/><stop offset="0.4549" stop-color="#FF7F00"/><stop offset="0.713" stop-color="#FFBD00"/><stop offset="0.9012" stop-color="#FFE300"/><stop offset="1" stop-color="#FFF100"/></linearGradient>
<linearGradient id="paint6_linear_38_546" x1="1.78996" y1="8.21037" x2="14.681" y2="8.21037" gradientUnits="userSpaceOnUse"><stop stop-color="#FF0400"/><stop offset="0.14" stop-color="#FF2B00"/><stop offset="0.4549" stop-color="#FF7F00"/><stop offset="0.713" stop-color="#FFBD00"/><stop offset="0.9012" stop-color="#FFE300"/><stop offset="1" stop-color="#FFF100"/></linearGradient>
<linearGradient id="paint7_linear_38_546" x1="15.7246" y1="7.03338" x2="28.3531" y2="7.03338" gradientUnits="userSpaceOnUse"><stop stop-color="#FF0400"/><stop offset="0.14" stop-color="#FF2B00"/><stop offset="0.4549" stop-color="#FF7F00"/><stop offset="0.713" stop-color="#FFBD00"/><stop offset="0.9012" stop-color="#FFE300"/><stop offset="1" stop-color="#FFF100"/></linearGradient>
<linearGradient id="paint8_linear_38_546" x1="29.3303" y1="6.91131" x2="40.4193" y2="6.91131" gradientUnits="userSpaceOnUse"><stop stop-color="#FF0400"/><stop offset="0.14" stop-color="#FF2B00"/><stop offset="0.4549" stop-color="#FF7F00"/><stop offset="0.713" stop-color="#FFBD00"/><stop offset="0.9012" stop-color="#FFE300"/><stop offset="1" stop-color="#FFF100"/></linearGradient>
<linearGradient id="paint9_linear_38_546" x1="40.8082" y1="7.82424" x2="53.0122" y2="7.82424" gradientUnits="userSpaceOnUse"><stop stop-color="#FF0400"/><stop offset="0.14" stop-color="#FF2B00"/><stop offset="0.4549" stop-color="#FF7F00"/><stop offset="0.713" stop-color="#FFBD00"/><stop offset="0.9012" stop-color="#FFE300"/><stop offset="1" stop-color="#FFF100"/></linearGradient>
<clipPath id="clip0_38_546"><rect width="56" height="28" fill="white"/></clipPath>
</defs>
</svg>
