<svg width="56" height="28" viewBox="0 0 56 28" fill="none" xmlns="http://www.w3.org/2000/svg">
<g clip-path="url(#clip0_38_546)">
<path d="M2.17301 16.8563C5.91041 14.9144 9.93894 14.9144 13.6763 16.8563C14.2722 13.9394 14.8612 11.0226 15.457 8.09772C10.5618 5.55959 5.28751 5.55959 0.392334 8.10578C1.45533 9.16938 2.43707 10.3377 3.33079 11.5947C2.85008 13.3271 2.46415 15.0917 2.17301 16.8563Z" fill="#0E5404"/>
<path d="M1.8687 17.1948L1.92963 16.8161C2.214 15.0676 2.59993 13.3272 3.0671 11.6351C2.18692 10.4023 1.22549 9.26618 0.20989 8.25898L0 8.04949L0.250514 7.92057C2.70826 6.63942 5.26756 5.99481 7.84718 5.99481C10.4336 5.99481 12.9861 6.63942 15.4438 7.92057L15.5725 7.98503L13.7173 17.1384L13.5345 17.0417C9.81743 15.1079 5.88369 15.1079 2.16661 17.0417L1.8687 17.1948ZM7.84718 15.1965C9.76327 15.1965 11.659 15.6639 13.4804 16.5744L15.1798 8.2187C10.42 5.79337 5.40297 5.7692 0.636441 8.16229C1.61141 9.16143 2.53899 10.2653 3.38532 11.4659L3.44626 11.5545L3.41918 11.6593C2.97231 13.2547 2.6067 14.8904 2.32233 16.526C4.11655 15.6397 5.97171 15.1965 7.84718 15.1965Z" fill="#260006"/>
<path d="M53.8267 16.8562C50.0893 14.9143 46.0608 14.9143 42.3234 16.8562C41.7276 13.9394 41.1385 11.0225 40.5427 8.09763C45.4379 5.55144 50.7122 5.55144 55.6074 8.09763C54.5444 9.16123 53.5627 10.3296 52.669 11.5865C53.1497 13.327 53.5356 15.0916 53.8267 16.8562Z" fill="#0E5404"/>
<path d="M53.8333 17.0417C50.1162 15.1079 46.1825 15.1079 42.4654 17.0417L42.2826 17.1384L40.4207 7.98503L40.5493 7.92057C43.007 6.63942 45.5663 5.99481 48.146 5.99481C50.7323 5.99481 53.2849 6.63942 55.7426 7.92057L55.9931 8.04949L55.7832 8.25898C54.7677 9.27424 53.8062 10.4104 52.926 11.6351C53.3932 13.3272 53.7791 15.0757 54.0635 16.8161L54.1244 17.1948L53.8333 17.0417ZM53.6708 16.526C53.3864 14.8823 53.0208 13.2466 52.574 11.6593L52.5469 11.5545L52.6078 11.4659C53.4609 10.2734 54.3817 9.16143 55.3567 8.16229C50.5902 5.77726 45.5731 5.79337 40.8134 8.22675L42.5128 16.5824C44.3409 15.6639 46.2366 15.2046 48.146 15.2046C50.0214 15.1965 51.8834 15.6397 53.6708 16.526Z" fill="#260006"/>
<path d="M8.66637 6.43004C8.46325 5.99493 8.05701 5.54371 7.4138 5.46314C7.42057 5.46314 7.42734 5.46314 7.43411 5.46314C7.37318 5.45508 7.31224 5.45508 7.25808 5.45508C7.24454 5.45508 7.23776 5.45508 7.22422 5.45508C6.34404 5.47925 5.63989 6.33335 5.63989 7.38083V14.5037H10.2101C9.42468 12.1187 8.97782 9.55637 8.8221 6.92155C8.78147 6.72817 8.74085 6.59925 8.66637 6.43004Z" fill="#13A600"/>
<path opacity="0.5" d="M8.99157 6.42998C8.78845 5.99487 8.38221 5.54365 7.739 5.46307C7.74577 5.46307 7.75254 5.46307 7.75931 5.46307C7.69837 5.45501 7.63744 5.47113 7.58327 5.47113C7.56973 5.47113 7.56296 5.47113 7.54942 5.47113C6.66923 5.4953 5.96509 6.32523 5.96509 7.37271V14.5036H10.5353C9.74988 12.1186 9.30302 9.55631 9.14729 6.92149C9.11344 6.72811 9.07281 6.59919 8.99157 6.42998Z" fill="url(#paint0_linear_38_546)"/>
<path d="M46.1152 6.43004C46.3184 5.99493 46.7246 5.54371 47.3678 5.46314C47.361 5.46314 47.3543 5.46314 47.3475 5.46314C47.4084 5.45508 47.4694 5.45508 47.5235 5.45508C47.5371 5.45508 47.5438 5.45508 47.5574 5.45508C48.4376 5.47925 49.1417 6.33335 49.1417 7.38083V14.5037H44.5715C45.3569 12.1187 45.8038 9.55637 45.9595 6.92155C46.0001 6.72817 46.0408 6.59925 46.1152 6.43004Z" fill="#13A600"/>
<path opacity="0.5" d="M45.79 6.42956C45.9932 5.99446 46.3994 5.54323 47.0426 5.46266C47.0358 5.46266 47.0291 5.46266 47.0223 5.46266C47.0832 5.4546 47.1442 5.46266 47.1983 5.46266C47.2119 5.46266 47.2186 5.46266 47.2322 5.46266C48.1124 5.48683 48.8165 6.32482 48.8165 7.3723V14.5032H44.2463C45.0317 12.1182 45.4786 9.55589 45.6343 6.92107C45.6682 6.72769 45.7088 6.59877 45.79 6.42956Z" fill="url(#paint1_linear_38_546)"/>
<path d="M40.6647 5.4628C39.7168 5.4628 38.8569 6.53445 38.4981 7.58194C36.9815 11.933 33.1899 16.0988 27.3942 16.0827C21.6053 16.0988 17.807 11.933 16.2904 7.58194C15.9248 6.53445 15.0717 5.4628 14.1238 5.4628C11.8353 5.4628 7.11615 5.4628 7.10938 5.4628C7.75259 5.54337 8.3958 5.88985 8.50413 7.30798C8.70725 9.93474 9.09995 12.5051 9.89211 14.8901C10.9348 18.0568 12.5801 20.9011 14.9498 23.1491C18.3622 26.3883 23.0542 27.9998 27.401 27.9998C31.741 27.9998 36.4398 26.3883 39.8522 23.1491C42.2219 20.9011 43.8672 18.0568 44.9099 14.8901C45.6953 12.5051 46.0947 9.93474 46.2979 7.30798C46.4062 5.88179 47.0765 5.53532 47.7129 5.4628C47.6926 5.4628 42.9532 5.4628 40.6647 5.4628Z" fill="#260006"/>
<path d="M47.3476 5.47086C45.4044 5.47086 42.6217 5.47086 40.3332 5.47086C39.3853 5.47086 38.5254 6.15575 38.1666 7.19517C36.65 11.5463 33.1834 15.712 27.3945 15.6959C21.5988 15.712 18.1322 11.5382 16.6156 7.18711C16.25 6.13963 15.3969 5.4628 14.449 5.4628C12.1605 5.4628 9.37102 5.4628 7.43462 5.4628C7.42785 5.4628 7.42108 5.4628 7.41431 5.4628C8.05752 5.54337 8.46376 5.98654 8.66688 6.42971C8.66688 6.42971 8.66688 6.42971 8.66688 6.43776C8.76844 6.65532 8.8226 6.89704 8.84291 7.14683C9.00541 9.70107 9.45227 12.1909 10.2174 14.5034C11.26 17.67 12.9053 20.5143 15.275 22.7624C18.6874 26.0015 23.0545 27.613 27.3945 27.613C31.7345 27.613 36.1015 26.0015 39.5139 22.7624C41.8837 20.5143 43.5289 17.67 44.5716 14.5034C45.3367 12.1909 45.7768 9.70107 45.946 7.14683C45.9596 6.89704 46.0205 6.65532 46.1221 6.43776C46.1221 6.43776 46.1221 6.43776 46.1221 6.42971C46.3252 5.9946 46.7314 5.54337 47.3747 5.4628C47.3679 5.47086 47.3543 5.47086 47.3476 5.47086Z" fill="#289211"/>
<path d="M27.516 15.9135C27.3129 15.9215 27.103 15.9296 26.8931 15.9296C21.3885 15.9457 18.0912 11.9814 16.6491 7.83978C16.297 6.84871 15.4845 6.2041 14.5773 6.2041C12.4039 6.2041 9.7498 6.2041 7.90142 6.2041C7.89464 6.2041 7.88787 6.2041 7.8811 6.2041C8.49046 6.27662 8.87639 6.70367 9.07274 7.12266C9.07274 7.12266 9.07274 7.12266 9.07274 7.13072C9.16753 7.34022 9.22169 7.56583 9.242 7.7995C9.39773 10.2248 9.81751 12.5937 10.5487 14.7935C11.544 17.807 13.108 20.5063 15.3627 22.6415C18.6058 25.7195 22.763 27.2585 26.8863 27.2585C27.0962 27.2585 27.3061 27.2504 27.5092 27.2424V15.9135H27.516Z" fill="#1A7D06"/>
<path d="M4.15708 14.9708C6.30337 14.4552 8.46321 14.012 10.6298 13.6252C11.7131 13.3916 12.9048 13.1015 13.7782 12.2554C14.4281 11.6269 14.7735 10.652 14.6651 9.65285C14.5974 9.03242 14.3808 8.50062 14.0084 8.07357C13.636 7.64652 13.1485 7.34033 12.5459 7.15501C13.0537 6.88105 13.4193 6.51846 13.6563 6.06724C13.8933 5.61601 13.9813 5.10839 13.9203 4.54436C13.812 3.47271 13.2094 2.6186 12.397 2.17544C11.1985 1.50666 9.83765 1.4422 8.52414 1.42609C6.27629 1.46637 4.02844 1.51472 1.78735 1.55501C1.95662 2.52191 2.13266 3.48882 2.30192 4.46378C2.78941 4.43155 3.03315 4.41544 3.52064 4.38321C3.94042 6.87299 4.36697 9.36278 4.78675 11.8445C4.32634 11.9251 4.09614 11.9734 3.63574 12.0621C3.81178 13.029 3.98781 14.0039 4.15708 14.9708ZM8.42258 4.02868C9.07934 3.95616 9.87827 4.25429 10.0001 5.1245C10.122 5.99472 9.37048 6.3976 8.75435 6.3976C8.35488 6.42983 8.15176 6.44594 7.74552 6.47817C7.63042 5.68047 7.50855 4.87472 7.39345 4.07702C7.80646 4.06091 8.00958 4.05285 8.42258 4.02868ZM8.46321 11.3208C8.33457 10.4344 8.19915 9.55616 8.07051 8.66983C8.53091 8.62148 8.75435 8.58925 9.21475 8.54091C9.91213 8.42004 10.6772 8.78263 10.7991 9.67702C10.921 10.5634 10.2574 11.1113 9.58037 11.1516C9.14027 11.216 8.91007 11.2482 8.46321 11.3208Z" fill="url(#paint2_linear_38_546)"/>
<path d="M15.9648 12.8679C17.5288 12.6987 19.0861 12.5617 20.6569 12.4569C20.6095 11.6431 20.5621 10.8374 20.5147 10.0236C20.034 10.0477 19.797 10.0638 19.3163 10.088C19.4314 9.58039 19.4923 9.33061 19.6142 8.83104C20.623 8.78269 21.6319 8.7424 22.6407 8.71017C22.7964 9.19363 22.8709 9.44341 23.0266 9.92686C22.5459 9.94298 22.3089 9.95104 21.8282 9.96715C21.8688 10.7729 21.9027 11.5787 21.9433 12.3925C24.0761 12.3038 26.2088 12.2716 28.3416 12.3119C28.3483 11.5061 28.3551 10.6923 28.3551 9.88658C27.9353 9.87852 27.7187 9.87852 27.2989 9.87852C26.3713 6.95363 25.3896 4.05291 24.3604 1.17636C21.7876 1.20859 19.2147 1.24888 16.6419 1.28917C16.7096 2.11104 16.7773 2.94097 16.8518 3.76284C17.5085 3.73866 17.8403 3.73061 18.497 3.71449C17.8877 5.89003 17.319 8.07363 16.7841 10.2814C16.3643 10.3136 16.1544 10.3378 15.7346 10.37C15.8023 11.2 15.8836 12.0299 15.9648 12.8679ZM20.0475 7.04226C20.3387 5.89003 20.6433 4.7378 20.948 3.58557C21.3272 4.71363 21.7063 5.84169 22.0719 6.96974C21.4017 6.99392 20.7246 7.01003 20.0475 7.04226Z" fill="url(#paint3_linear_38_546)"/>
<path d="M35.2886 12.9406C36.3177 13.0453 37.5297 12.997 38.4776 12.2718C39.263 11.6675 39.7911 10.6361 39.8791 9.53224C39.94 8.76677 39.8926 8.09799 39.6963 7.57425C39.4999 7.05051 39.2156 6.63152 38.8297 6.30922C38.4505 5.98691 38.0239 5.73713 37.55 5.55986C37.0761 5.37454 36.5953 5.23756 36.1079 5.13281C35.6271 5.02806 35.1803 4.92332 34.774 4.83468C34.3678 4.73799 34.0428 4.62519 33.8058 4.48015C33.5621 4.33511 33.447 4.13368 33.4605 3.86778C33.4741 3.58576 33.6027 3.36821 33.86 3.22317C34.1105 3.07814 34.449 3.00562 34.8621 3.00562C35.4443 3.00562 35.9521 3.16677 36.3719 3.48907C36.7917 3.81137 37.0557 4.27065 37.1573 4.85886C38.1187 4.88303 39.0869 4.91526 40.0484 4.94749C40.1702 3.62605 40.2921 2.30461 40.414 0.983172C39.6963 0.991229 38.9786 0.999287 38.2677 1.00734C38.0713 1.48274 37.9766 1.71641 37.7802 2.18375C37.4417 1.73252 36.9813 1.39411 36.4058 1.16044C35.6948 0.870366 34.9365 0.838136 34.2053 0.830078C33.3522 0.822021 32.4517 0.991229 31.6392 1.31353C31.0705 1.53914 30.3867 2.01454 29.9872 2.57857C29.608 3.11037 29.4117 3.73886 29.3981 4.44792C29.3846 5.18116 29.4997 5.78547 29.7367 6.25281C29.9736 6.72015 30.2919 7.09886 30.6846 7.38087C31.0773 7.66288 31.5106 7.88044 31.9845 8.04159C32.4585 8.20274 32.9324 8.33166 33.4064 8.42835C33.8803 8.5331 34.3136 8.63785 34.7063 8.7426C35.099 8.84734 35.4105 8.99238 35.6407 9.16159C35.8709 9.3308 35.9724 9.57252 35.9521 9.87871C35.9318 10.1607 35.8099 10.3702 35.5865 10.5153C35.3631 10.6603 35.0584 10.7167 34.6657 10.6845C33.948 10.6361 33.3725 10.4186 32.9121 10.0318C32.4585 9.6531 32.1876 9.18576 32.1199 8.62979C31.2059 8.59756 30.2919 8.57339 29.3711 8.55727C29.3507 9.81425 29.3304 11.0793 29.3169 12.3363C29.9736 12.3604 30.6236 12.3846 31.2804 12.4249C31.4429 11.9817 31.5174 11.7642 31.6798 11.321C32.0184 11.74 32.4856 12.0945 33.0611 12.3766C33.7787 12.7311 34.5641 12.8681 35.2886 12.9406Z" fill="url(#paint4_linear_38_546)"/>
<path d="M46.7041 14.8339C47.74 15.0676 48.9858 15.124 49.954 14.3666C50.868 13.6575 51.4706 12.4327 51.6263 11.1597C51.7211 10.3781 51.8159 9.56425 51.6399 8.77461C51.4977 8.13001 51.2472 7.60627 50.9019 7.21145C50.5566 6.80857 50.1503 6.49433 49.6967 6.26066C49.2363 6.02699 48.7759 5.84166 48.3019 5.69663C47.828 5.55159 47.3947 5.42267 47.002 5.29375C46.6093 5.16483 46.2978 5.01979 46.0676 4.84253C45.8374 4.66526 45.7426 4.43159 45.7833 4.12541C45.8239 3.8031 45.9796 3.55332 46.2437 3.39217C46.5077 3.23102 46.853 3.15044 47.266 3.1585C47.8483 3.17461 48.3358 3.368 48.7285 3.75476C49.1144 4.14152 49.3311 4.68943 49.3785 5.3985C50.3399 5.46296 51.2946 5.52742 52.256 5.59994C52.5065 4.00454 52.7638 2.40915 53.0143 0.813751C52.2966 0.821808 51.5857 0.829866 50.868 0.837924C50.6243 1.40195 50.5024 1.68397 50.2654 2.23994C49.9743 1.70008 49.5477 1.2972 48.9993 1.02325C48.3155 0.676772 47.5504 0.644542 46.8395 0.636485C45.9728 0.62037 45.0182 0.789578 44.2328 1.1844C43.5896 1.5067 42.9396 1.94987 42.4589 2.58641C42.0729 3.1021 41.748 3.9562 41.687 4.64915C41.6193 5.44684 41.6599 6.13979 41.8495 6.67965C42.0391 7.21951 42.3167 7.65461 42.6823 8.00109C43.0479 8.34756 43.4609 8.62152 43.9146 8.83907C44.3682 9.04857 44.8286 9.23389 45.2958 9.38699C45.7562 9.54008 46.1827 9.69317 46.5619 9.84627C46.941 9.99936 47.2389 10.1927 47.4488 10.4103C47.6587 10.6279 47.74 10.9179 47.6926 11.2805C47.6452 11.6109 47.503 11.8526 47.266 11.9976C47.0291 12.1507 46.7176 12.183 46.3317 12.1185C45.6208 11.9896 45.0656 11.6834 44.6458 11.208C44.2328 10.7245 44.0094 10.1766 43.9958 9.53202C43.0818 9.42728 42.1745 9.33059 41.2605 9.23389C41.1183 10.6359 40.9693 12.0379 40.8271 13.4399C41.4771 13.5447 42.1271 13.6575 42.7771 13.7703C42.9802 13.2868 43.0818 13.0451 43.2849 12.5617C43.5828 13.0773 44.0093 13.5366 44.5578 13.9314C45.2078 14.4068 45.9796 14.6727 46.7041 14.8339Z" fill="url(#paint5_linear_38_546)"/>
<path d="M8.53074 1.59539C9.81716 1.6115 11.1645 1.67596 12.3426 2.32862C13.1483 2.77985 13.69 3.61783 13.7848 4.57668C13.8389 5.10042 13.7509 5.57582 13.5342 5.99481C13.3176 6.4138 12.9587 6.76028 12.4848 7.01812L12.1395 7.20344L12.5119 7.31625C13.0874 7.49352 13.5546 7.79164 13.9134 8.19452C14.2587 8.58934 14.4618 9.08891 14.5295 9.68517C14.6311 10.6198 14.3196 11.5304 13.69 12.1347C12.8572 12.9404 11.7129 13.2305 10.6093 13.4642C8.49688 13.8348 6.36413 14.278 4.26523 14.7775L3.89962 12.7309L3.80483 12.2072C4.17721 12.1347 4.40064 12.0944 4.81365 12.0219L4.95584 11.9977L4.92875 11.8285L4.06211 6.74416L3.65587 4.36718L3.63556 4.23021L3.52046 4.23826C3.0736 4.26244 2.82985 4.27855 2.41684 4.31078L1.96321 1.73236C4.08242 1.68402 6.28965 1.64373 8.53074 1.59539ZM8.40887 3.88373C8.00263 3.9079 7.79274 3.91596 7.3865 3.93208L7.23077 3.94013L7.25786 4.1174L7.60993 6.51855L7.63024 6.66359L7.75211 6.65553C8.15158 6.6233 8.3547 6.60718 8.75417 6.57495C9.13332 6.57495 9.63435 6.42186 9.93226 6.01093C10.1083 5.76114 10.176 5.4469 10.1286 5.10848C9.99997 4.19798 9.22811 3.86762 8.61198 3.86762C8.54428 3.86762 8.47657 3.87567 8.40887 3.88373ZM9.20103 8.39596C8.7474 8.44431 8.5172 8.46848 8.06356 8.52488L7.91461 8.541L7.94169 8.71021L8.33439 11.3611L8.3547 11.5142L8.48334 11.4981C8.93021 11.4337 9.15364 11.4014 9.59373 11.337C10.0474 11.3047 10.4671 11.0711 10.7109 10.7085C10.9072 10.4184 10.9817 10.0558 10.9343 9.67711C10.8124 8.78272 10.1151 8.37985 9.47186 8.37985C9.38384 8.37179 9.28905 8.37985 9.20103 8.39596ZM8.53074 1.43423C6.28288 1.47452 4.03503 1.52287 1.79395 1.56316C1.96321 2.53006 2.13925 3.49697 2.30851 4.47193C2.796 4.4397 3.03974 4.42359 3.52723 4.39136C3.94701 6.88114 4.37356 9.37093 4.79334 11.8527C4.33294 11.9332 4.10274 11.9816 3.64233 12.0702C3.8116 13.0371 3.98763 14.0121 4.1569 14.979C6.3032 14.4633 8.46303 14.0201 10.6296 13.6334C11.7129 13.3997 12.9046 13.1096 13.778 12.2636C14.428 11.6351 14.7733 10.6601 14.6649 9.661C14.5972 9.04057 14.3806 8.50877 14.0082 8.08172C13.6358 7.65467 13.1483 7.34848 12.5457 7.16316C13.0535 6.8892 13.4191 6.52661 13.6561 6.07539C13.8931 5.62416 13.9811 5.11654 13.9202 4.55251C13.8118 3.48085 13.2025 2.62675 12.3968 2.17553C11.1984 1.52287 9.83747 1.45035 8.53074 1.43423ZM7.75211 6.49438C7.63701 5.69668 7.51514 4.89093 7.40004 4.09323C7.81305 4.06905 8.01617 4.061 8.42241 4.03682C8.48334 4.02877 8.55105 4.02877 8.61198 4.02877C9.22134 4.02877 9.88487 4.35107 9.99997 5.14071C10.1218 6.01093 9.3703 6.4138 8.76094 6.4138C8.3547 6.44603 8.15158 6.46215 7.75211 6.49438ZM8.46303 11.3289C8.33439 10.4426 8.19898 9.56431 8.07033 8.67798C8.53074 8.62963 8.75417 8.5974 9.21457 8.54906C9.30259 8.53294 9.39061 8.52488 9.47186 8.52488C10.088 8.52488 10.6906 8.90359 10.7989 9.68517C10.9208 10.5715 10.2573 11.1194 9.58019 11.1597C9.1401 11.2322 8.90989 11.2645 8.46303 11.3289Z" fill="url(#paint6_linear_38_546)"/>
<path d="M24.2658 1.34569C25.3017 4.23835 26.2767 7.13101 27.1704 9.9431L27.2043 10.0478H27.2991C27.6782 10.0478 27.8813 10.0478 28.2199 10.0559L28.2131 11.1195L28.2063 12.1589C27.6376 12.1509 27.0621 12.1428 26.4933 12.1428C25.0241 12.1428 23.5346 12.175 22.0653 12.2395L21.9638 10.1365C22.3565 10.1204 22.5935 10.1123 23.0268 10.0962L23.2164 10.0881L23.1487 9.87864C22.9929 9.38713 22.9185 9.15346 22.7627 8.66195L22.7289 8.5572H22.6341C21.6253 8.58943 20.6097 8.62972 19.6008 8.67807L19.506 8.68612L19.479 8.79893C19.3571 9.30655 19.3029 9.54828 19.1811 10.064L19.1337 10.2815L19.3232 10.2735C19.7633 10.2493 19.9935 10.2332 20.393 10.2171L20.5149 12.3281C19.0456 12.4248 17.5561 12.5537 16.0869 12.7149L15.8973 10.7327L15.877 10.5313C16.2087 10.4991 16.4186 10.483 16.791 10.4507L16.8858 10.4427L16.9129 10.3379C17.441 8.15432 18.0165 5.95461 18.6259 3.77907L18.6868 3.56152L18.4972 3.56958C17.8743 3.58569 17.5561 3.59375 16.9738 3.61792L16.9332 3.09418L16.7978 1.46655C19.1675 1.41821 21.6185 1.38598 24.2658 1.34569ZM19.8649 7.22771L20.0545 7.21965C20.7248 7.19548 21.4086 7.1713 22.0789 7.14713L22.2752 7.13907L22.2075 6.92152C21.8419 5.80152 21.4628 4.6654 21.0836 3.52929L20.9414 3.1103L20.8263 3.53735C20.5216 4.68152 20.217 5.84986 19.9258 6.99404L19.8649 7.22771ZM24.3538 1.18454C21.781 1.21677 19.2081 1.25706 16.6353 1.29735C16.703 2.11922 16.7707 2.94914 16.8452 3.77101C17.5019 3.74684 17.8337 3.73878 18.4905 3.72267C17.8811 5.89821 17.3124 8.08181 16.7775 10.2896C16.3577 10.3218 16.1478 10.346 15.728 10.3782C15.8093 11.2162 15.8905 12.0461 15.9718 12.8841C17.5358 12.7149 19.093 12.5779 20.6638 12.4732C20.6164 11.6594 20.569 10.8536 20.5216 10.0398C20.0409 10.064 19.804 10.0801 19.3232 10.1043C19.4383 9.59663 19.4993 9.34684 19.6211 8.84727C20.63 8.79893 21.6388 8.75864 22.6476 8.72641C22.8033 9.20986 22.8778 9.45965 23.0336 9.9431C22.5528 9.95922 22.3159 9.96727 21.8351 9.98339C21.8758 10.7891 21.9096 11.5949 21.9502 12.4087C23.4669 12.3443 24.9835 12.312 26.5069 12.312C27.123 12.312 27.7391 12.3201 28.3485 12.3281C28.3553 11.5224 28.362 10.7086 28.362 9.90281C27.9423 9.89476 27.7256 9.89476 27.3058 9.89476C26.3715 6.96181 25.3897 4.06109 24.3538 1.18454ZM20.0477 7.0585C20.3388 5.90627 20.6435 4.75404 20.9482 3.60181C21.3273 4.72986 21.7065 5.85792 22.0721 6.98598C21.4018 7.00209 20.7248 7.02627 20.0477 7.0585Z" fill="url(#paint7_linear_38_546)"/>
<path d="M34.1374 0.990802C34.1645 0.990802 34.1848 0.990802 34.2119 0.990802C34.9228 0.998859 35.6811 1.03109 36.365 1.3131C36.9201 1.53872 37.3602 1.86908 37.6785 2.28807L37.8139 2.46533L37.9019 2.24778C38.0847 1.80461 38.1795 1.57095 38.3555 1.16001L40.2649 1.13584L39.9263 4.77785C39.0461 4.74562 38.1524 4.72145 37.2655 4.69728C37.1368 4.11713 36.866 3.66591 36.4462 3.34361C36.0061 3.01325 35.4712 2.84404 34.8619 2.83598H34.8483C34.4218 2.83598 34.0629 2.91656 33.7989 3.06965C33.501 3.23886 33.3385 3.50476 33.3249 3.85123C33.3114 4.07684 33.3791 4.39915 33.7447 4.6167C33.9952 4.76174 34.3338 4.89066 34.7468 4.98735C35.1327 5.07598 35.5728 5.17267 36.0806 5.28548C36.5613 5.39023 37.042 5.53526 37.5024 5.71253C37.9628 5.88979 38.3826 6.13152 38.7482 6.44577C39.1071 6.74389 39.3779 7.15483 39.5675 7.64634C39.7435 8.11368 39.7977 8.74217 39.7367 9.52375C39.6555 10.5873 39.1545 11.5623 38.3961 12.1425C37.7936 12.6017 37.0285 12.8273 36.0467 12.8273C35.8098 12.8273 35.566 12.8112 35.2952 12.7871C34.7265 12.7307 33.8801 12.6098 33.1218 12.2391C32.5599 11.9571 32.1062 11.6187 31.788 11.2158L31.6458 11.0386L31.5646 11.2561C31.4156 11.659 31.3344 11.8766 31.199 12.2553C30.6234 12.223 30.0412 12.1989 29.4589 12.1827L29.5131 8.718C30.3459 8.73411 31.1854 8.75023 32.0114 8.78246C32.113 9.32231 32.3906 9.78159 32.8375 10.1603C33.3114 10.5551 33.9208 10.7888 34.6588 10.8371C34.7265 10.8452 34.7942 10.8452 34.8551 10.8452C35.1869 10.8452 35.4441 10.7807 35.654 10.6518C35.9181 10.4826 36.067 10.2248 36.0874 9.88634C36.1144 9.52375 35.979 9.22562 35.715 9.01612C35.4712 8.8308 35.1462 8.68577 34.74 8.57296C34.3405 8.46015 33.9072 8.35541 33.4333 8.25871C32.9729 8.16202 32.4989 8.02505 32.025 7.87195C31.5646 7.71886 31.138 7.5013 30.7589 7.22735C30.3865 6.96145 30.0818 6.59886 29.8584 6.15569C29.6349 5.71253 29.5266 5.13238 29.5334 4.43943C29.5401 3.77872 29.7297 3.18246 30.0886 2.67483C30.4813 2.11886 31.1719 1.65958 31.6797 1.45814C32.4583 1.16001 33.3317 0.990802 34.1374 0.990802ZM34.1374 0.829651C33.3046 0.829651 32.4312 0.998859 31.6458 1.3131C31.0771 1.53872 30.3932 2.01411 29.9938 2.57814C29.6146 3.10994 29.4183 3.73843 29.4047 4.44749C29.3912 5.18073 29.5063 5.78505 29.7433 6.25238C29.9802 6.71972 30.2985 7.09843 30.6912 7.38044C31.0839 7.66246 31.5172 7.88001 31.9911 8.04116C32.4651 8.20231 32.939 8.33123 33.413 8.42792C33.8869 8.53267 34.3202 8.63742 34.7129 8.74217C35.1056 8.84692 35.4171 8.99195 35.6473 9.16116C35.8775 9.33037 35.979 9.5721 35.9587 9.87828C35.9384 10.1603 35.8165 10.3698 35.5931 10.5148C35.4103 10.6357 35.1666 10.6921 34.8619 10.6921C34.8009 10.6921 34.74 10.6921 34.6723 10.684C33.9546 10.6357 33.3791 10.4181 32.9187 10.0314C32.4651 9.65267 32.1942 9.18533 32.1265 8.62936C31.2125 8.59713 30.2985 8.57296 29.3777 8.55684C29.3573 9.81382 29.337 11.0789 29.3235 12.3358C29.9802 12.36 30.6302 12.3842 31.287 12.4245C31.4495 11.9813 31.5239 11.7638 31.6864 11.3206C32.025 11.7396 32.4921 12.0941 33.0677 12.3761C33.7718 12.7226 34.5572 12.8676 35.2817 12.9402C35.5254 12.9643 35.7827 12.9804 36.0467 12.9804C36.8795 12.9804 37.7529 12.8193 38.4706 12.2714C39.256 11.6671 39.7841 10.6357 39.8722 9.53181C39.9331 8.76634 39.8857 8.09756 39.6893 7.57382C39.493 7.05008 39.2086 6.63109 38.8227 6.30879C38.4435 5.98649 38.017 5.7367 37.543 5.55943C37.0691 5.37411 36.5884 5.23713 36.1009 5.13238C35.6202 5.02764 35.1733 4.92289 34.7671 4.83425C34.3608 4.73756 34.0359 4.62476 33.7989 4.47972C33.5551 4.33469 33.44 4.13325 33.4536 3.86735C33.4671 3.58533 33.5958 3.36778 33.853 3.22274C34.1036 3.07771 34.4353 3.00519 34.8483 3.00519C34.8551 3.00519 34.8551 3.00519 34.8619 3.00519C35.4442 3.00519 35.9519 3.16634 36.3717 3.48864C36.7915 3.81095 37.0556 4.27023 37.1571 4.85843C38.1186 4.8826 39.0868 4.91483 40.0482 4.94706C40.1701 3.62562 40.2919 2.30418 40.4138 0.982744C39.6961 0.990802 38.9784 0.998859 38.2675 1.00692C38.0712 1.48231 37.9764 1.71598 37.78 2.18332C37.4415 1.7321 36.9811 1.39368 36.4056 1.16001C35.6947 0.869939 34.9364 0.837708 34.2051 0.829651C34.1848 0.829651 34.1645 0.829651 34.1374 0.829651Z" fill="url(#paint8_linear_38_546)"/>
<path d="M46.7375 0.805683C46.7646 0.805683 46.7984 0.805683 46.8255 0.805683C47.5635 0.813741 48.2812 0.854029 48.9379 1.18439C49.466 1.45029 49.8723 1.83705 50.1431 2.34468L50.2718 2.57835L50.3801 2.32856L50.9488 1.01518L52.8514 0.991007L52.1472 5.43878C51.267 5.37432 50.3801 5.30986 49.4999 5.25345C49.4322 4.56856 49.202 4.02065 48.8161 3.64194C48.4098 3.23906 47.8885 3.02151 47.2724 3.01345C47.2453 3.01345 47.225 3.01345 47.1979 3.01345C46.7916 3.01345 46.4531 3.09403 46.1823 3.26324C45.8776 3.44856 45.6948 3.73863 45.6474 4.11734C45.6 4.47993 45.7219 4.78611 45.9927 4.99561C46.2297 5.17288 46.5547 5.33403 46.9609 5.46295C47.3265 5.57576 47.7531 5.71273 48.2609 5.86583C48.728 6.01086 49.1952 6.19619 49.6353 6.4218C50.0754 6.64741 50.4681 6.96165 50.7999 7.34036C51.1249 7.71906 51.3618 8.21863 51.504 8.83101C51.6801 9.60453 51.5785 10.4264 51.4905 11.1516C51.3347 12.4247 50.7322 13.5769 49.8791 14.2457C49.3713 14.6405 48.7281 14.8419 47.963 14.8419C47.5838 14.8419 47.164 14.7936 46.7239 14.6888C45.8438 14.4874 45.1532 14.1973 44.6115 13.8025C44.0766 13.4158 43.6636 12.9726 43.3792 12.4811L43.2506 12.2555L43.149 12.4972C42.9595 12.9484 42.8579 13.1901 42.6819 13.6011C42.1131 13.4963 41.5309 13.3996 40.9621 13.303L41.1652 11.345L41.3616 9.41115C42.1876 9.49173 43.0204 9.58036 43.8464 9.67705C43.8938 10.2975 44.124 10.8454 44.5303 11.3208C44.9703 11.8284 45.5594 12.1507 46.2906 12.2796C46.4193 12.3038 46.5479 12.3119 46.663 12.3119C46.9135 12.3119 47.1369 12.2555 47.313 12.1427C47.5906 11.9654 47.7531 11.6914 47.8072 11.3047C47.8682 10.8857 47.7734 10.5473 47.5229 10.2894C47.2994 10.0558 46.9812 9.85432 46.5885 9.69317C46.2026 9.53201 45.776 9.37892 45.3156 9.22583C44.8688 9.08079 44.4084 8.89547 43.948 8.68597C43.5079 8.48453 43.1016 8.21058 42.7496 7.87216C42.4043 7.54986 42.1402 7.12281 41.9574 6.61518C41.7814 6.12367 41.734 5.48712 41.8085 4.66525C41.8626 4.01259 42.1741 3.18266 42.5465 2.69115C42.9459 2.15935 43.5079 1.71619 44.273 1.32942C44.9568 0.999065 45.8302 0.805683 46.7375 0.805683ZM46.7375 0.644532C45.8979 0.644532 44.9839 0.805683 44.2188 1.19245C43.5756 1.51475 42.9256 1.95791 42.4449 2.59446C42.059 3.11014 41.734 3.96424 41.673 4.65719C41.6053 5.45489 41.646 6.14784 41.8355 6.6877C42.0251 7.22755 42.3027 7.66266 42.6683 8.00914C43.0339 8.35561 43.4469 8.62957 43.9006 8.84712C44.3542 9.05662 44.8146 9.24194 45.2818 9.39504C45.7422 9.54813 46.1687 9.70122 46.5479 9.85432C46.9271 10.0074 47.225 10.2008 47.4349 10.4183C47.6447 10.6359 47.726 10.926 47.6786 11.2886C47.6312 11.6189 47.489 11.8606 47.2521 12.0057C47.0896 12.1104 46.8932 12.1588 46.663 12.1588C46.5547 12.1588 46.4396 12.1507 46.3109 12.1265C45.6 11.9976 45.0448 11.6914 44.625 11.216C44.212 10.7326 43.9886 10.1847 43.9751 9.54007C43.061 9.43532 42.1538 9.33863 41.2397 9.24194C41.0975 10.644 40.9486 12.046 40.8064 13.448C41.4564 13.5527 42.1064 13.6655 42.7563 13.7783C42.9595 13.2949 43.061 13.0532 43.2641 12.5697C43.562 13.0854 43.9886 13.5447 44.537 13.9395C45.2005 14.423 45.9792 14.6808 46.6969 14.8419C47.0963 14.9306 47.5296 14.995 47.963 14.995C48.6536 14.995 49.351 14.8339 49.9468 14.3665C50.8608 13.6575 51.4634 12.4327 51.6191 11.1596C51.7139 10.3781 51.8087 9.56424 51.6327 8.7746C51.4905 8.13 51.24 7.60626 50.8947 7.21144C50.5494 6.80856 50.1431 6.49432 49.6895 6.26065C49.2291 6.02698 48.7687 5.84165 48.2947 5.69662C47.8208 5.55158 47.3875 5.42266 46.9948 5.29374C46.6021 5.16482 46.2906 5.01978 46.0604 4.84252C45.8302 4.66525 45.7354 4.43158 45.776 4.1254C45.8167 3.80309 45.9724 3.55331 46.2365 3.39216C46.487 3.23906 46.8052 3.15849 47.1911 3.15849C47.2114 3.15849 47.2385 3.15849 47.2588 3.15849C47.8411 3.1746 48.3286 3.36799 48.7213 3.75475C49.1072 4.14151 49.3239 4.68942 49.3713 5.39849C50.3327 5.46295 51.2874 5.52741 52.2488 5.59993C52.4993 4.00453 52.7566 2.40914 53.0071 0.813741C52.2894 0.821798 51.5785 0.829856 50.8608 0.837913C50.6171 1.40194 50.4952 1.68396 50.2582 2.23993C49.9671 1.70007 49.5405 1.29719 48.9921 1.02324C48.3083 0.676762 47.5432 0.644532 46.8323 0.636475C46.7984 0.644532 46.7646 0.644532 46.7375 0.644532Z" fill="url(#paint9_linear_38_546)"/>
</g>
<defs>
<linearGradient id="paint0_linear_38_546" x1="5.97052" y1="9.98408" x2="10.5417" y2="9.98408" gradientUnits="userSpaceOnUse">
<stop stop-color="white"/>
<stop offset="1"/>
</linearGradient>
<linearGradient id="paint1_linear_38_546" x1="44.24" y1="9.98335" x2="48.8112" y2="9.98335" gradientUnits="userSpaceOnUse">
<stop stop-color="white"/>
<stop offset="1"/>
</linearGradient>
<linearGradient id="paint2_linear_38_546" x1="8.23565" y1="1.42306" x2="8.23565" y2="14.969" gradientUnits="userSpaceOnUse">
<stop stop-color="#FF0400"/>
<stop offset="0.14" stop-color="#FF2B00"/>
<stop offset="0.4549" stop-color="#FF7F00"/>
<stop offset="0.713" stop-color="#FFBD00"/>
<stop offset="0.9012" stop-color="#FFE300"/>
<stop offset="1" stop-color="#FFF100"/>
</linearGradient>
<linearGradient id="paint3_linear_38_546" x1="22.0387" y1="1.17066" x2="22.0387" y2="12.8673" gradientUnits="userSpaceOnUse">
<stop stop-color="#FF0400"/>
<stop offset="0.14" stop-color="#FF2B00"/>
<stop offset="0.4549" stop-color="#FF7F00"/>
<stop offset="0.713" stop-color="#FFBD00"/>
<stop offset="0.9012" stop-color="#FFE300"/>
<stop offset="1" stop-color="#FFF100"/>
</linearGradient>
<linearGradient id="paint4_linear_38_546" x1="34.875" y1="0.816783" x2="34.875" y2="12.9782" gradientUnits="userSpaceOnUse">
<stop stop-color="#FF0400"/>
<stop offset="0.14" stop-color="#FF2B00"/>
<stop offset="0.4549" stop-color="#FF7F00"/>
<stop offset="0.713" stop-color="#FFBD00"/>
<stop offset="0.9012" stop-color="#FFE300"/>
<stop offset="1" stop-color="#FFF100"/>
</linearGradient>
<linearGradient id="paint5_linear_38_546" x1="46.9106" y1="0.630579" x2="46.9106" y2="14.9894" gradientUnits="userSpaceOnUse">
<stop stop-color="#FF0400"/>
<stop offset="0.14" stop-color="#FF2B00"/>
<stop offset="0.4549" stop-color="#FF7F00"/>
<stop offset="0.713" stop-color="#FFBD00"/>
<stop offset="0.9012" stop-color="#FFE300"/>
<stop offset="1" stop-color="#FFF100"/>
</linearGradient>
<linearGradient id="paint6_linear_38_546" x1="1.78996" y1="8.21037" x2="14.681" y2="8.21037" gradientUnits="userSpaceOnUse">
<stop stop-color="#FF0400"/>
<stop offset="0.14" stop-color="#FF2B00"/>
<stop offset="0.4549" stop-color="#FF7F00"/>
<stop offset="0.713" stop-color="#FFBD00"/>
<stop offset="0.9012" stop-color="#FFE300"/>
<stop offset="1" stop-color="#FFF100"/>
</linearGradient>
<linearGradient id="paint7_linear_38_546" x1="15.7246" y1="7.03338" x2="28.3531" y2="7.03338" gradientUnits="userSpaceOnUse">
<stop stop-color="#FF0400"/>
<stop offset="0.14" stop-color="#FF2B00"/>
<stop offset="0.4549" stop-color="#FF7F00"/>
<stop offset="0.713" stop-color="#FFBD00"/>
<stop offset="0.9012" stop-color="#FFE300"/>
<stop offset="1" stop-color="#FFF100"/>
</linearGradient>
<linearGradient id="paint8_linear_38_546" x1="29.3303" y1="6.91131" x2="40.4193" y2="6.91131" gradientUnits="userSpaceOnUse">
<stop stop-color="#FF0400"/>
<stop offset="0.14" stop-color="#FF2B00"/>
<stop offset="0.4549" stop-color="#FF7F00"/>
<stop offset="0.713" stop-color="#FFBD00"/>
<stop offset="0.9012" stop-color="#FFE300"/>
<stop offset="1" stop-color="#FFF100"/>
</linearGradient>
<linearGradient id="paint9_linear_38_546" x1="40.8082" y1="7.82424" x2="53.0122" y2="7.82424" gradientUnits="userSpaceOnUse">
<stop stop-color="#FF0400"/>
<stop offset="0.14" stop-color="#FF2B00"/>
<stop offset="0.4549" stop-color="#FF7F00"/>
<stop offset="0.713" stop-color="#FFBD00"/>
<stop offset="0.9012" stop-color="#FFE300"/>
<stop offset="1" stop-color="#FFF100"/>
</linearGradient>
<clipPath id="clip0_38_546">
<rect width="56" height="28" fill="white"/>
</clipPath>
</defs>
</svg>
