<svg width="160" height="80" viewBox="0 0 160 80" fill="none" xmlns="http://www.w3.org/2000/svg">
<path d="M29.1001 45.6201L29.1401 45.5801V45.5901L29.1001 45.6201Z" fill="url(#paint0_linear_8235_28)"/>
<path d="M0.120107 30.5598L0.200107 30.7498L0.270107 30.8998L0.150107 30.6198L0.110107 30.5098L0.120107 30.5598Z" fill="url(#paint1_linear_8235_28)"/>
<path d="M20.3799 25.9999L20.45 26.0599L20.62 26.1899L20.74 26.2299L20.99 26.2999H21.12L21.37 26.2899L21.4799 26.2599L21.68 26.1799L21.7299 26.1099L21.79 25.9999L21.85 25.8699L21.8899 25.7699L21.9799 25.5599L22.03 25.4299L22.1399 25.1599L22.2 25.0099L22.4699 24.3399L22.61 23.9599L22.92 23.1799L23.07 22.7699L23.3799 21.9699L23.52 21.5899L23.66 21.2099L23.7199 21.0399L23.85 20.6899L23.9 20.5399L24.01 20.2399L24.0599 20.1099L24.1399 19.8699L24.17 19.7699L24.2299 19.5899L24.25 19.5299L24.28 19.4399V19.4199L24.17 19.1699L24.02 18.9899L23.92 18.9099L23.7 18.7599L23.59 18.7099L23.36 18.6299H23.26L22.92 18.7299L22.7099 18.8799L22.6399 18.9899L22.5599 19.1399L22.49 19.2899L22.44 19.3899L22.35 19.6099L22.29 19.7399L22.18 20.0099L22.12 20.1599L21.86 20.8099L21.7299 21.1699L21.44 21.9199L21.2999 22.2999L21.02 23.0599L20.8899 23.4199L20.6399 24.1099L20.54 24.4099L20.44 24.6899L20.4 24.8199L20.32 25.0499L20.29 25.1499L20.24 25.3299L20.2299 25.3899L20.2 25.4899V25.5199L20.27 25.7999L20.3799 25.9999Z" fill="#FFAB00"/>
<path d="M8.03998 19.7606L8.06998 19.8606L8.13998 20.0706L8.17998 20.2006L8.26998 20.4706L8.31998 20.6206L8.54998 21.2806L8.68998 21.6406L8.95998 22.4006L9.10998 22.7806L9.39998 23.5506L9.53998 23.9206L9.81998 24.6206L9.94998 24.9206L10.07 25.2106L10.12 25.3406L10.22 25.5706L10.27 25.6706L10.35 25.8506L10.38 25.9106L10.44 26.0106L10.46 26.0406L10.66 26.2106L10.78 26.2606L11.03 26.3206L11.16 26.3106L11.42 26.2606L11.53 26.1906L11.75 26.0406L11.83 25.9206L11.95 25.6506L11.96 25.5406L11.95 25.4706L11.93 25.3206L11.91 25.2206L11.85 25.0106L11.81 24.8706L11.72 24.5706L11.65 24.3906L11.51 23.9906L11.42 23.7406L11.23 23.2206L11.11 22.9106L10.71 21.8206L10.47 21.1906L10.37 20.9306L10.18 20.4406L10.1 20.2306L9.93998 19.8506L9.87998 19.6906L9.74998 19.4106L9.69998 19.2906L9.59998 19.0906L9.55998 19.0206L9.47998 18.8906L9.43998 18.8506L9.36998 18.7806L9.33998 18.7606L9.12998 18.6606L8.97998 18.6406H8.90998L8.59998 18.6906L8.45998 18.7606L8.19998 18.9306L8.11998 19.0506L8.03998 19.1806L8.00998 19.2506L7.97998 19.3906V19.4706L7.99998 19.6106L8.03998 19.7606Z" fill="#FFAB00"/>
<path d="M15.1899 22.4302L15.1999 22.6502L15.2099 23.0502V23.2202L15.2199 23.5402L15.2299 23.6702L15.2499 23.9102L15.2599 24.0002L15.2899 24.1802L15.3099 24.2502L15.3799 24.4802L15.4299 24.5502L15.5899 24.7202L15.6999 24.7802L15.9399 24.8802L16.0599 24.8902L16.3099 24.9002L16.4299 24.8702L16.6399 24.7902L16.7199 24.7102L16.7699 24.6202L16.7999 24.5002L16.8099 24.4202L16.8299 24.2502L16.8399 24.1302L16.8599 23.8802L16.8699 23.7302L16.8799 23.4002L16.8899 23.2102L16.8999 22.8002V22.5702L16.9099 22.0702V21.7902V21.2002V20.8802V20.2502V19.8702V19.7002V19.3702V19.2202V18.9402L16.8999 18.8102V18.3402L16.8899 18.1602L16.8799 17.8202L16.8699 17.7002L16.8399 17.4802L16.8299 17.4102L16.7899 17.2702L16.7699 17.2302L16.6599 17.1002L16.5799 17.0502L16.2099 16.9502H15.9699L15.8499 16.9902L15.6299 17.0902L15.5399 17.1702L15.3799 17.3502L15.3399 17.4702L15.3099 17.6102L15.2899 17.7702L15.2799 17.8702L15.2599 18.1002L15.2499 18.2302L15.2399 18.5202L15.2299 18.6802L15.2099 19.3702L15.1999 19.7702L15.1899 20.6002V21.0302V21.9202V22.4302Z" fill="#FFAB00"/>
<path d="M19.28 54.6204L19.46 54.4104L19.82 53.9704L20.02 53.7204L20.45 53.2004L20.69 52.9004L21.19 52.2804L21.47 51.9304L22.05 51.2004L22.38 50.8004L23.05 49.9704L23.42 49.5004L27.02 45.0404L27.12 41.8304L27.15 40.8904L27.17 40.3504L27.19 40.1204L27.21 39.6704L27.23 39.4704L27.25 39.2304L27.27 39.0104L27.29 38.8504L27.37 38.2404L27.42 37.9604L27.54 37.3904L27.62 37.0804L27.8 36.4304L27.93 36.0404L27.99 35.8604L28.26 35.1704L28.43 34.8404L28.61 34.5104L28.72 34.3404L28.88 34.1004L28.81 34.2104L28.94 34.0004L29.07 33.8204L29.34 33.4504L29.49 33.2504L29.82 32.8204L30 32.5904L30.42 32.0504L30.65 31.7404L30.75 31.6004L30.91 31.3304L30.98 31.2104L31.08 30.9704L31.12 30.8604L31.18 30.6404L31.19 30.5304L31.2 30.3104L31.18 30.2004L31.15 29.9704L31.12 29.8404L31.04 29.5804L30.99 29.4304L30.81 29.0004L30.67 28.7404L30.58 28.6204L30.4 28.4004L30.31 28.3104L30.1 28.1304L29.99 28.0504L29.76 27.9004L29.63 27.8504L29.38 27.7404L29.25 27.7004L28.69 27.5804H28.4L27.8 27.6104L27.68 27.6404L28.38 27.5904L27.67 27.6404L27.17 27.7604L26.92 27.8504L26.41 28.0504L26.18 28.1904L25.72 28.4704L25.53 28.6304L25.42 28.7304L25.38 28.7704L25.31 28.8404L25.3 28.8604L25.03 29.0804L24.76 29.3804L24.31 29.9004L23.99 30.3104L23.83 30.5304L23.49 31.0004L23.31 31.2504L22.96 31.7604L22.79 32.0304L22.09 33.1304L21.76 33.6804L21.45 34.2304L21.3 34.5004L21.01 35.0304L20.89 35.2804L20.65 35.7504L20.51 36.0204L20.45 36.1304L20.33 36.3404L20.28 36.4204L20.19 36.5804L20.15 36.6404L20.07 36.7404L20.03 36.7804L19.96 36.8504L19.93 36.8704L19.82 36.9104L19.76 36.8904L19.65 36.8404L19.53 36.7704L19.44 36.7204L19.26 36.6104L19.14 36.5504L18.91 36.4004L18.77 36.3204L18.49 36.1504L18.33 36.0604L18.01 35.8704L17.84 35.7604L17.13 35.3304L16.75 35.1004L14.27 33.5704L12.66 32.5804L11.9 32.1104L11.15 31.6504L10.78 31.4304L10.06 30.9904L9.71 30.7804L9.03 30.3604L8.7 30.1604L8.36 29.9504L8.58 30.0904L7.46 29.4004L6.92 29.0604L6.38 28.7404L6.13 28.5804L5.62 28.2804L5.39 28.1404L4.94 27.8704L4.74 27.7604L4.36 27.5304L4.2 27.4504L3.9 27.2804L3.79 27.2204L3.59 27.1204L3.53 27.1004L3.07 26.9804L2.76 26.9404L2.61 26.9504L2.31 26.9704L2.17 27.0104L1.88 27.1004L1.74 27.1604L1.46 27.3104L1.34 27.4004L1.25 27.4704L1.1 27.5804L0.99 27.7004L0.76 27.9404L0.66 28.0804L0.47 28.3704L0.39 28.5304L0.38 28.5704L0.37 28.5804L0.09 29.3104L0.36 28.6104L0.12 29.1604L0.02 29.5304L0 29.7004V30.0404L0.03 30.2104L0.06 30.3304L0.07 30.4104L0.15 30.6204L0.33 31.0404L0.48 31.2504L0.6 31.3904L0.66 31.4504L0.69 31.4804L0.8 31.5904L1.05 31.8104L1.21 31.9404L1.57 32.2104L1.79 32.3704L2.03 32.5304L2.09 32.5804L1.86 32.4104L2.17 32.6304L2.34 32.7504L3.04 33.2404L3.43 33.5004L4.18 33.9904L4.5 34.1904L4.82 34.3904L4.61 34.2604L4.68 34.3004L4.92 34.4604L6.32 35.3904L6.75 35.6704L6.94 35.8004L7.32 36.0604L7.48 36.1704L7.8 36.3904L7.93 36.4804L8.18 36.6504L8.27 36.7204L8.44 36.8404L8.49 36.8804L8.57 36.9504V36.9604L8.56 37.0204L8.51 37.0604L8.47 37.0804L8.29 37.1704L8.17 37.1904L7.67 37.4004L7.32 37.6304L7.15 37.7804L6.82 38.0804L6.68 38.2504L6.43 38.5804L6.35 38.7504L6.17 39.3004L6.11 39.7004V39.9104L6.12 40.3304L6.15 40.5404L6.24 40.9304L6.32 41.1104L6.43 41.4104L6.47 41.5404L6.46 41.5804L6.42 41.6504L6.38 41.6704L6.27 41.7104L6.19 41.7304L5.68 41.9504L5.37 42.1704L5.23 42.3204L4.97 42.6204L4.86 42.7904L4.66 43.1504L4.59 43.3404L4.47 43.6804L4.59 43.3404L4.46 43.7204L4.44 43.7904L4.45 43.7504L4.42 43.9204L4.37 44.3104V44.5004L4.41 44.8604L4.46 45.0304L4.59 45.3604L4.7 45.4904L5.03 45.9104L4.47 46.5304L4.12 46.9504L3.96 47.2104L3.93 47.2804L3.95 47.2204L3.94 47.2304L3.92 47.3004L3.9 47.3404L3.89 47.3604L3.88 47.3904L3.86 47.4304L3.8 47.6004L3.77 47.7504L3.79 47.6404L3.77 47.7104L3.74 47.9004L3.73 48.0404L3.72 48.0604L3.71 48.2504V48.8404L3.72 48.8804V48.9704L3.76 49.2104L3.8 49.3104L3.9 49.5204L3.98 49.6304L4.17 49.8604L4.31 50.0104L4.63 50.3604L4.83 50.5704L4.93 50.6604L5.13 50.8404L5.25 50.9404L5.48 51.1204L5.62 51.2204L5.91 51.4204L6.08 51.5304L6.45 51.7704L6.68 51.9104L7.15 52.2004L7.44 52.3704L7.74 52.5404L7.9 52.6404L8.24 52.8404L8.42 52.9404L9.65 53.6604L10.42 54.0904L10.78 54.2904L11.47 54.6604L11.79 54.8304L12.41 55.1404L12.7 55.2804L13.25 55.5404L13.51 55.6504L14 55.8604L14.23 55.9404L14.67 56.1004L14.87 56.1604L15.25 56.2704L15.42 56.3004L16.06 56.4304L16.37 56.4704L16.66 56.5104L16.79 56.5204L17.02 56.5404H17.1L17.32 56.5504L17.45 56.5304L17.53 56.4904L17.62 56.4404L17.67 56.4104L17.77 56.3304L17.83 56.2704L17.95 56.1504L18.03 56.0704L18.19 55.9004L18.28 55.8004L18.48 55.5704L18.6 55.4404L18.84 55.1504L18.99 54.9804L19.28 54.6204Z" fill="url(#paint2_linear_8235_28)"/>
<path d="M4.13989 46.9298L4.20989 46.8398L4.13989 46.9198V46.9298Z" fill="url(#paint3_linear_8235_28)"/>
<path d="M3.69995 48.2801V48.5101L3.70995 48.7501V48.2501L3.71995 48.0801L3.69995 48.2801Z" fill="url(#paint4_linear_8235_28)"/>
<path d="M36.16 49.7102L36.07 49.4402L35.99 49.3302L35.85 49.2002L35.71 49.0802L35.6 48.9902L35.38 48.8202L35.24 48.7102L34.94 48.4902L34.76 48.3602L34.39 48.0902L34.18 47.9402L33.74 47.6302L33.49 47.4602L32.98 47.1102L32.71 46.9202L32.14 46.5302L31.83 46.3202L31.36 46.0102L31.07 45.8402L30.94 45.7702L30.69 45.6402L30.57 45.5902L30.4 45.5202L30.44 45.5402L30.34 45.5002L30.24 45.4702L30.03 45.4302L29.93 45.4202L29.75 45.4102L29.66 45.4202L29.31 45.4902L29.14 45.5802L29.09 45.6302H29.08V45.6402L29.06 45.6602L29.03 45.6802L28.99 45.7202L28.82 45.9202L28.69 46.0702L28.42 46.3802L28.25 46.5802L27.89 47.0102L27.69 47.2602L27.26 47.7802L27.02 48.0702L26.54 48.6702L26.27 48.9902L25.74 49.6502L25.46 50.0002L24.9 50.7002L24.6 51.0702L24.03 51.7902L23.76 52.1402L23.51 52.4602L22.86 53.2702L22.29 53.9902L21.73 54.7102L21.46 55.0402L20.95 55.7002L20.72 56.0002L20.27 56.5702L20.08 56.8202L19.72 57.3002L19.58 57.4802L19.44 57.6702L19.39 57.7402L19.28 57.8902L19.24 57.9502L19.16 58.0602L19.14 58.1002L19.09 58.1702L19.08 58.1802L18.99 58.4702L18.97 58.6502L18.98 58.7402L19.02 58.9202L19.08 59.0202L19.2 59.2202L19.3 59.3302L19.52 59.5602L19.67 59.6902L19.99 59.9702L20.2 60.1302L20.65 60.4702L20.91 60.6602L21.49 61.0802L21.83 61.3102L22.83 62.0202L23.45 62.4402L23.7 62.6202L23.95 62.7902L24.06 62.8602L24.26 63.0002L24.35 63.0502L24.5 63.1602L24.55 63.1902L24.65 63.2502L24.67 63.2602L24.9 63.3902L25.01 63.4202L25.23 63.4502L25.36 63.4302L25.48 63.3902L25.55 63.3602L25.69 63.2902L25.77 63.2402L25.93 63.1302L26.02 63.0502L26.2 62.8902L26.31 62.7902L26.52 62.5902L26.64 62.4602L26.89 62.2002L27.03 62.0402L27.31 61.7202L27.47 61.5302L27.8 61.1402L27.98 60.9202L28.36 60.4602L28.57 60.2102L29 59.6702L29.24 59.3802L29.73 58.7702L30 58.4302L30.56 57.7402L30.86 57.3602L31.76 56.2302L32.34 55.5002L32.61 55.1502L33.15 54.4702L33.4 54.1502L33.89 53.5402L34.11 53.2502L34.54 52.7202L34.72 52.4802L35.07 52.0402L35.21 51.8602L35.22 51.8502L35.26 51.8302L35.73 51.1902V51.1802L36.02 50.6702L36.1 50.4702L36.14 50.3402L36.17 50.1702L36.18 49.8602L36.16 49.7102Z" fill="#FF7F00"/>
<path d="M29.07 33.8203L29.03 33.8803L29.07 33.8203Z" fill="url(#paint5_linear_8235_28)"/>
<path d="M28.6101 34.5098L28.5701 34.5898L28.6101 34.5098Z" fill="url(#paint6_linear_8235_28)"/>
<path d="M116.12 54.5195H113.61V62.6695H116.12V54.5195Z" fill="#FF8200"/>
<path d="M135.56 56.4398L135.61 58.0298L135.63 58.4998L135.65 58.6898L135.67 58.8698V58.9498L135.69 59.0898L135.7 59.1398L135.78 59.7098L135.79 59.8498V59.8898V59.9698L135.74 59.9498L135.69 59.8798L135.65 59.8298L135.49 59.5898L135.39 59.4298L135.29 59.2598L135.2 59.1098L135.14 59.0198L135.02 58.8298L134.95 58.7198L134.81 58.4898L134.73 58.3698L134.39 57.8398L134.2 57.5598L133.82 56.9698L133.62 56.6698L132.21 54.5098L130.94 54.5498L129.67 54.5998L129.63 58.6298L129.59 62.6698H132.15L132.05 60.3598L132 59.4198L131.97 58.8398L131.95 58.5898L131.94 58.3398L131.93 58.2298L131.91 58.0298L131.9 57.9398L131.89 57.7798L131.88 57.7198L131.86 57.6098V57.5798L131.77 57.1098L132.12 57.6498L132.22 57.8098L132.31 57.9498L132.36 58.0398L132.49 58.2298L132.56 58.3398L132.7 58.5698L132.78 58.6998L133.12 59.2298L133.31 59.5298L133.7 60.1298L133.89 60.4298L135.32 62.6698H136.61H137.9V54.5198H135.55L135.56 56.4398Z" fill="#FF8200"/>
<path d="M129.92 37.6198L130.07 36.8698L130.15 36.2898L130.18 35.9798L130.25 35.3398L130.27 34.9998L130.31 34.3198L130.33 33.9698L130.36 32.5698L130.35 31.9198L130.33 31.2698L130.31 30.9798L130.26 30.3998L130.23 30.1398L129.99 28.6698L129.79 27.7298L129.67 27.2798L129.41 26.4098L129.26 25.9898L128.93 25.1698L128.75 24.7798L128.36 24.0098L128.14 23.6398L127.68 22.9198L127.43 22.5798L126.91 21.8998L126.62 21.5798L126.03 20.9398L125.71 20.6398L124.62 19.7098L123.86 19.1598L123.46 18.9198L122.65 18.4598L122.21 18.2598L121.33 17.8698L120.85 17.7098L119.89 17.4098L119.37 17.2898L118.32 17.0498L117.75 16.9698L116.6 16.8098L115.98 16.7498L114.72 16.6598L114.04 16.6398L111.1 16.5498V23.5998L113.41 23.6898L114.3 23.7298L114.84 23.7698L115.07 23.7998L115.53 23.8498L115.74 23.8798L116.14 23.9498L116.32 23.9898L116.67 24.0698L116.83 24.1198L117.15 24.2298L117.3 24.2998L117.89 24.5798L118.18 24.7598L119.02 25.3798L119.51 25.8498L119.73 26.1098L120.15 26.6498L120.33 26.9498L120.67 27.5698L120.81 27.9098L121.08 28.6098L121.18 28.9898L121.37 29.7798L121.44 30.2098L121.56 31.0798L121.59 31.5598L121.64 32.5298V33.0498L121.6 34.2598L121.54 35.0198L121.49 35.3798L121.38 36.0698L121.3 36.3898L121.14 37.0198L121.04 37.3198L120.82 37.8898L120.69 38.1598L120.42 38.6798L120.27 38.9298L119.94 39.3998L119.75 39.6198L119.37 40.0598L119.15 40.2598L118.59 40.7498L118.2 41.0298L118 41.1498L117.59 41.3798L117.37 41.4798L116.91 41.6598L116.67 41.7298L116.17 41.8598L115.89 41.9198L115.33 42.0098L115.01 42.0398L114.37 42.0998L114.01 42.1198L113.27 42.1398H112.87H111.1V49.2298L114.2 49.1398L115.39 49.0998L116.1 49.0598L116.42 49.0398L117.05 48.9798L117.33 48.9498L117.9 48.8698L118.16 48.8298L119.18 48.6298L119.68 48.4798L120.18 48.3298L120.43 48.2398L120.96 48.0598L121.23 47.9498L122.87 47.2098L123.88 46.6298L124.35 46.2998L125.27 45.6098L125.68 45.2298L126.49 44.4398L126.86 44.0098L127.56 43.1198L127.87 42.6298L128.47 41.6398L128.72 41.1098L129.21 40.0198L129.41 39.4398L129.78 38.2498L129.92 37.6198Z" fill="#FF8200"/>
<path d="M155.85 58.0496L155.75 59.6896H157.49V60.2996L157.45 60.7296L157.37 60.9096L157.28 60.9697L157.18 61.0196L157.12 61.0396L156.98 61.0696L156.89 61.0797L156.71 61.0896L156.6 61.0996H156.36H156.22L155.5 61.0196L155.04 60.8797L154.84 60.7796L154.46 60.5597L154.31 60.4296L154.03 60.1297L153.94 59.9596L153.83 59.6896L153.77 59.4697L153.74 59.3496L153.67 58.8297L153.66 58.5696L153.68 58.0797L153.71 57.8297L153.75 57.7296L153.83 57.5196L153.89 57.4196L154.04 57.2096L154.14 57.0797L154.47 56.7397L154.71 56.5496L154.85 56.4697L155.12 56.3297L155.27 56.2696L155.56 56.1796L155.71 56.1497L156.02 56.0996L156.18 56.0896H156.5L156.65 56.1196L156.97 56.1696L157.12 56.2197L157.42 56.3297L157.57 56.3997L158.19 56.7096L158.78 56.1297L159.2 55.6796L159.3 55.5597L159.33 55.5196L159.37 55.4396V55.4196L159.3 55.3097L159.18 55.2197L159.1 55.1696L158.91 55.0696L158.79 55.0196L158.55 54.9096L158.42 54.8596L157.85 54.6596L157.57 54.5797L157.28 54.5096L157.15 54.4796L156.89 54.4396L156.77 54.4196L156.13 54.3896L155.69 54.4096L155.47 54.4396L155.03 54.4996L154.82 54.5396L154.39 54.6497L154.18 54.7096L153.77 54.8496L153.57 54.9396L153.19 55.1096L153.02 55.2096L152.68 55.4096L152.53 55.5196L152.25 55.7496L152.13 55.8797L151.68 56.4596L151.45 56.8896L151.36 57.1196L151.2 57.5797L151.15 57.8196L151.07 58.3097V58.5496V59.0396L151.11 59.2896L151.19 59.7696L151.27 59.9996L151.44 60.4496L151.56 60.6596L151.81 61.0797L151.97 61.2596L152.4 61.7096L152.7 61.9496L152.87 62.0597L153.22 62.2596L153.43 62.3496L153.86 62.5296L154.12 62.6096L154.35 62.6796L154.5 62.6996L154.82 62.7397L155.02 62.7596L155.43 62.7796L155.66 62.7896H156.14L156.4 62.7796L156.87 62.7696L157.15 62.7596L157.27 62.7496L157.71 62.7096L157.88 62.6796L158.21 62.6096L158.36 62.5597L158.66 62.4396L158.82 62.3496L159.61 61.9596L159.65 59.9596L159.7 57.9596L157.77 57.9996L155.85 58.0496Z" fill="#FF8200"/>
<path d="M152.01 26.0004V32.2404V33.4504V34.1904L152 34.5204V35.1704V35.4604L151.99 36.0304V36.2804L151.98 36.7704L151.97 36.9904L151.96 37.4104L151.95 37.6004L151.93 37.9704L151.91 38.1304L151.89 38.4404L151.87 38.5704L151.81 39.0804L151.76 39.2804L151.66 39.6504L151.59 39.8104L151.45 40.1104L151.36 40.2504L151.17 40.5304L151.06 40.6904L150.79 41.0104L150.57 41.2104L150.45 41.3004L150.2 41.4904L150.06 41.5804L149.76 41.7504L149.59 41.8304L149.04 42.0804L148.73 42.1904L148.57 42.2304L148.25 42.2804L148.06 42.3004L147.65 42.3104H147.38L146.71 42.3004L146.36 42.2604L146.2 42.2304L145.89 42.1404L145.73 42.0804L145.38 41.9304L145.17 41.8304L144.56 41.4804L144.2 41.2204L144.03 41.0804L143.72 40.7804L143.58 40.6204L143.32 40.2904L143.21 40.1204L143.01 39.7504L142.92 39.5604L142.77 39.1604L142.71 38.9504L142.62 38.5204L142.59 38.2904L142.55 37.8304V37.5904L142.63 36.6404L142.76 36.0504L142.87 35.7704L143.1 35.2404L143.25 35.0004L143.58 34.5304L143.77 34.3304L144.18 33.9404L144.42 33.7704L144.9 33.4704L145.17 33.3504L145.73 33.1304L146.03 33.0604L146.65 32.9404L146.99 32.9204L147.72 32.9104L148.16 32.9304L148.36 32.9604L148.76 33.0304L148.95 33.0804L149.33 33.2004L149.52 33.2804L149.58 33.2604L149.6 33.2004L149.59 33.1404L149.58 33.0004L149.56 32.9004L149.51 32.6804L149.48 32.5304L149.39 32.2104L149.34 32.0104L149.22 31.5804L149.15 31.3304L148.99 30.7904L148.89 30.4704L148.7 29.8004L148.58 29.4204L147.37 25.4504L146.06 25.4004L144.73 25.4304L143.88 25.5404L143.46 25.6304L142.61 25.8504L142.19 26.0104L141.33 26.3504L140.88 26.5704L140.44 26.7904L140.18 26.9304L140.06 27.0004L139.61 27.2704L139.4 27.4304L138.98 27.7604L138.75 27.9704L138.51 28.1904L138.38 28.3204L138.11 28.5804L137.96 28.7304L137.53 29.1604L137.29 29.4204L137.18 29.5404L136.79 29.9804L136.64 30.2004L136.35 30.6304L136.2 30.8904L136.06 31.1604L135.98 31.3104L135.83 31.6204L135.74 31.8004L135.37 32.5904L135.16 33.0804L135.07 33.3104L134.91 33.7604L134.84 33.9804L134.71 34.4204L134.66 34.6404L134.57 35.0804L134.54 35.3104L134.47 35.7704L134.45 36.0204L134.41 36.5204L134.4 36.7904L134.39 37.3604V37.6704L134.4 38.5504L134.42 39.0804L134.44 39.3304L134.48 39.8204L134.52 40.0504L134.59 40.5104L134.64 40.7304L134.86 41.6104L135.03 42.0704L135.21 42.5204L135.31 42.7704L135.53 43.2504L135.65 43.5204L136.25 44.5904L136.72 45.2804L136.98 45.6104L137.53 46.2504L137.83 46.5504L138.44 47.1304L138.77 47.4004L139.44 47.9104L139.79 48.1404L140.5 48.5804L140.87 48.7604L141.62 49.1104L142 49.2504L142.77 49.5104L143.15 49.6004L143.48 49.6604L143.68 49.6804L144.1 49.7304L144.34 49.7404L144.83 49.7604L145.11 49.7704H145.67L145.97 49.7604L146.78 49.7204L147.27 49.6804L147.5 49.6504L147.95 49.5804L148.17 49.5404L148.58 49.4404L148.78 49.3904L149.56 49.1304L149.92 48.9504L150.65 48.5504L151.03 48.3004L152.01 47.6304V49.1904H160V26.0004H152.01Z" fill="#FF8200"/>
<path d="M110.01 16.5898H101.39V49.1898H110.01V16.5898Z" fill="#FF8200"/>
<path d="M97.3101 54.5996L96.4501 56.4596L96.1101 57.2196L95.8901 57.7096L95.8001 57.9296L95.6201 58.3396L95.5601 58.4996L95.5001 58.6396L95.4701 58.6996L95.4401 58.8096L95.4201 58.8496L95.2701 59.2096L95.1801 59.3396L95.1301 59.3496L95.0501 59.3396L95.0101 59.2796L94.9301 59.1296L94.9001 58.9896L94.8601 58.8696L94.8201 58.7596L94.7901 58.6796L94.6501 58.3496L94.5501 58.1296L94.3501 57.6696L94.2401 57.4096L93.9901 56.8796L93.8701 56.5996L92.9301 54.5996H90.1801L90.1401 58.6296L90.1001 62.6696H92.4501L92.4401 60.8296L92.4001 59.2996L92.3701 58.8396L92.3501 58.6496L92.3401 58.4696L92.3301 58.3996L92.3101 58.2596L92.3001 58.1996L92.2201 57.6396L92.2001 57.5096V57.4596V57.3896L92.2301 57.4296L92.2701 57.4996L92.3001 57.5596L92.3601 57.6896L92.4001 57.7696L92.4801 57.9496L92.5301 58.0496L92.7501 58.5096L92.8801 58.7896L93.1501 59.3796L93.3001 59.6996L94.3701 62.0396H95.0901H95.8201L96.8401 59.8296L97.2401 58.9696L97.4901 58.4596L97.5901 58.2596L97.6801 58.0596L97.7301 57.9796L97.8101 57.8196L97.8401 57.7596L97.8901 57.6596L97.9201 57.6196L97.9501 57.5696V57.5596L97.9801 57.5896L97.9901 57.6596L97.9801 57.7196L97.9701 57.8396L97.9601 57.9196L97.9401 58.0796L97.9201 58.1696L97.9001 58.3396L97.8801 58.4896L97.8701 58.5796L97.8401 58.9696L97.8301 59.1996L97.8101 59.6896L97.8001 59.9496L97.7901 60.4896V60.7496L97.7801 62.6696H100.14L100.05 54.5996H97.3101Z" fill="#FF8200"/>
<path d="M65.03 16.5898H39.48V23.6398H65.03V16.5898Z" fill="#FF8200"/>
<path d="M56.5599 24.7402H47.9399V49.1902H56.5599V24.7402Z" fill="#FF8200"/>
<path d="M52.63 59.6902H54.2299L54.18 60.3602L54.13 61.0202H53.04L52.56 61.0102L52.2799 60.9802L52.15 60.9502L51.91 60.8902L51.7999 60.8502L51.59 60.7702L51.5 60.7102L51.32 60.5902L51.24 60.5202L51.09 60.3702L51.02 60.2802L50.9 60.0902L50.84 59.9802L50.7299 59.7502L50.68 59.6202L50.5499 59.1802L50.5 58.9002L50.49 58.7602V58.4902L50.5 58.3502L50.54 58.0902L50.57 57.9702L50.74 57.4802L50.88 57.2702L51.18 56.8602L51.38 56.7002L51.7799 56.4002L52.02 56.2902L52.5099 56.1202L52.77 56.0902L53.04 56.0602L53.18 56.0702L53.4599 56.0902L53.5999 56.1102L53.88 56.1702L54.02 56.2202L54.2999 56.3302L54.45 56.4002L55.06 56.7102L55.65 56.1302L56.07 55.6802L56.1699 55.5602L56.2 55.5202L56.25 55.4402V55.4202L56.18 55.3302L56.07 55.2502L55.9799 55.2002L55.7999 55.1002L55.7 55.0402L55.47 54.9202L55.3499 54.8602L54.83 54.6402L54.5099 54.5502L54.34 54.5202L53.99 54.4702L53.77 54.4602L53.5299 54.4502H53.4H53.1199H52.9599L52.52 54.4602H52.2599L52.15 54.4702L51.7299 54.5002L51.56 54.5302L51.22 54.6102L51.0499 54.6702L50.7 54.8002L50.49 54.9002L49.7299 55.3302L49.27 55.6702L49.07 55.8602L48.68 56.2602L48.5299 56.4702L48.25 56.9002L48.16 57.1202L48.07 57.4302L48.02 57.6702L48 57.8102L47.95 58.3802V58.6902L47.97 59.3002L48.0099 59.5802L48.06 59.8502L48.08 59.9702L48.15 60.1902L48.18 60.2802L48.6199 61.0302L49 61.4802L49.2299 61.6802L49.7299 62.0502L50.0299 62.2102L50.65 62.5002L51 62.6102L51.22 62.6802L51.3699 62.7002L51.7 62.7402L51.8899 62.7602L52.2999 62.7802L52.5299 62.7902H53.0099L53.27 62.7802L53.75 62.7702L54.02 62.7602L54.1399 62.7502L54.58 62.7102L54.7599 62.6802L55.09 62.6102L55.24 62.5602L55.54 62.4402L55.7 62.3502L56.4799 61.9602V58.0502H52.72L52.63 59.6902Z" fill="#FF8200"/>
<path d="M91.82 25.9904L87.87 26.0304L83.91 26.0704L83.75 39.2404L83.29 40.0804L82.96 40.6003L82.72 40.9104L82.59 41.0504L82.32 41.3104L82.17 41.4304L81.87 41.6504L81.71 41.7404L81.38 41.9203L81.2 41.9904L80.84 42.1203L80.65 42.1703L80.26 42.2504L80.05 42.2704L79.63 42.3104L79.4 42.3204L78.62 42.2803L78.12 42.2104L77.89 42.1604L77.43 42.0303L77.22 41.9403L76.8 41.7504L76.61 41.6404L76.24 41.3904L76.06 41.2504L75.73 40.9403L75.58 40.7704L75.29 40.4104L75.16 40.2104L74.91 39.8004L74.8 39.5704L74.63 39.1203L74.54 38.8004L74.51 38.6404L74.41 37.9504V37.6003L74.44 36.8904L74.51 36.5604L74.58 36.2304L74.63 36.0704L74.74 35.7704L74.8 35.6304L75.27 34.8604L75.66 34.3804L75.89 34.1703L76.35 33.7603L76.6 33.6003L77.11 33.3004L77.37 33.2104L77.78 33.0804L78.08 33.0103L78.24 32.9804L78.9 32.9004L79.24 32.8904L79.9 32.9004L80.2 32.9403L80.48 32.9904L80.61 33.0204L80.86 33.0904L80.96 33.1304L81.38 33.2803L81.48 33.3104L81.51 33.3204L81.57 33.3304V33.3204L81.56 33.2304L81.52 33.0904L81.49 32.9804L81.43 32.7504L81.39 32.6003L81.3 32.2904L81.25 32.1104L81.14 31.7404L81.08 31.5304L80.95 31.1104L80.89 30.8904L80.61 29.9704L80.46 29.4904L80.17 28.5304L80.03 28.0704L79.89 27.6304L79.83 27.4204L79.7 27.0104L79.64 26.8304L79.53 26.4704L79.48 26.3204L79.39 26.0304L79.35 25.9204L79.28 25.7104L79.25 25.6404L79.21 25.5304L79.2 25.5104L79.13 25.4604L79.05 25.4304L78.99 25.4104L78.74 25.3704H78.56L78.18 25.3604H77.96L77.49 25.3804L77.24 25.4004L76.2 25.5104L75.69 25.5904L75.19 25.6804L74.97 25.7304L74.53 25.8404L74.35 25.9004L73.01 26.4304L72.15 26.8604L71.75 27.1204L70.97 27.6604L70.6 27.9604L69.89 28.5904L69.56 28.9404L68.92 29.6604L68.63 30.0504L68.08 30.8404L67.84 31.2704L67.38 32.1404L67.19 32.6003L66.83 33.5404L66.68 34.0303L66.47 34.9304L66.37 35.5604L66.33 35.9004L66.27 36.5704L66.25 36.9203L66.23 37.6203L66.24 37.9704L66.26 38.6703L66.29 39.0204L66.36 39.7004L66.41 40.0404L66.51 40.6903L66.58 41.0004L66.73 41.6104L66.83 41.8804L67.41 43.3204L67.89 44.2304L68.18 44.6604L68.78 45.5004L69.12 45.8904L69.81 46.6504L70.2 46.9904L70.98 47.6604L71.4 47.9504L72.26 48.5004L72.7 48.7304L73.62 49.1604L74.09 49.3304L75.04 49.6304L75.53 49.7204L75.59 49.7304H75.64L75.75 49.7404H75.83L76.15 49.7603H76.35H76.79H77.04L77.54 49.7504H77.8L78.6 49.7104L79.1 49.6703L79.33 49.6504L79.77 49.5804L79.98 49.5404L80.39 49.4604L80.59 49.4004L81.34 49.1504L81.71 48.9804L82.43 48.5904L82.8 48.3404L83.82 47.6604L83.86 48.3904L83.91 49.1104L91.82 49.2004V25.9904Z" fill="#FF8200"/>
<path d="M77.76 62.26L77.7 62.1L77.66 61.99L77.56 61.74L77.5 61.59L77.37 61.27L77.3 61.09L77.15 60.7L77.07 60.49L76.9 60.05L76.81 59.81L76.43 58.83L76.22 58.31L74.72 54.5L71.71 54.59L70.34 58.04L69.79 59.43L69.62 59.86L69.54 60.07L69.38 60.47L69.31 60.65L69.17 61L69.11 61.16L68.99 61.46L68.94 61.58L68.85 61.81L68.82 61.89L68.76 62.04L68.74 62.08L68.5 62.67H71.12L71.32 61.93L71.5 61.37L71.55 61.22L71.58 61.17L71.62 61.08L71.64 61.06L71.8 61.01L72.01 60.98H72.15L72.46 60.95H72.64L73.02 60.93H74.69L75 61.8L75.31 62.68H77.33L77.49 62.66H77.55L77.66 62.64H77.7L77.83 62.59L77.85 62.55V62.46L77.83 62.4L77.78 62.27L77.76 62.26ZM74.12 59.18L74.1 59.24L74.06 59.27L73.97 59.32L73.89 59.34L73.71 59.37H73.59L73.33 59.39H72.79L72.58 59.36H72.5L72.35 59.31L72.3 59.29L72.23 59.25V59.23L72.27 58.99L72.33 58.75L72.37 58.6L72.56 57.95L72.67 57.61L72.78 57.28L72.83 57.13L72.94 56.84L72.99 56.72L73.08 56.51L73.11 56.45L73.17 56.36H73.18L73.26 56.53L73.34 56.72L73.39 56.85L73.49 57.12L73.54 57.27L73.65 57.59L73.7 57.75L73.81 58.08L73.86 58.24L73.95 58.55L73.99 58.68L74.06 58.93L74.08 59.02L74.11 59.18V59.21L74.12 59.18Z" fill="#FF8200"/>
<defs>
<linearGradient id="paint0_linear_8235_28" x1="29.1001" y1="45.6001" x2="29.1401" y2="45.6001" gradientUnits="userSpaceOnUse">
<stop stop-color="#FFAB00"/>
<stop offset="0.85" stop-color="#FF7E00"/>
</linearGradient>
<linearGradient id="paint1_linear_8235_28" x1="0.110107" y1="30.6998" x2="0.270107" y2="30.6998" gradientUnits="userSpaceOnUse">
<stop stop-color="#FFAB00"/>
<stop offset="0.85" stop-color="#FF7E00"/>
</linearGradient>
<linearGradient id="paint2_linear_8235_28" x1="11.51" y1="30.3604" x2="28.66" y2="56.4204" gradientUnits="userSpaceOnUse">
<stop stop-color="#FFAB00"/>
<stop offset="0.85" stop-color="#FF7E00"/>
</linearGradient>
<linearGradient id="paint3_linear_8235_28" x1="4.13989" y1="46.8898" x2="4.20989" y2="46.8898" gradientUnits="userSpaceOnUse">
<stop stop-color="#FFAB00"/>
<stop offset="0.85" stop-color="#FF7E00"/>
</linearGradient>
<linearGradient id="paint4_linear_8235_28" x1="3.69995" y1="48.4201" x2="3.71995" y2="48.4201" gradientUnits="userSpaceOnUse">
<stop stop-color="#FFAB00"/>
<stop offset="0.85" stop-color="#FF7E00"/>
</linearGradient>
<linearGradient id="paint5_linear_8235_28" x1="29.04" y1="33.8403" x2="29.06" y2="33.8803" gradientUnits="userSpaceOnUse">
<stop stop-color="#FFAB00"/>
<stop offset="0.85" stop-color="#FF7E00"/>
</linearGradient>
<linearGradient id="paint6_linear_8235_28" x1="28.5701" y1="34.5498" x2="28.6101" y2="34.5498" gradientUnits="userSpaceOnUse">
<stop stop-color="#FFAB00"/>
<stop offset="0.85" stop-color="#FF7E00"/>
</linearGradient>
</defs>
</svg>
