<svg width="100" height="100" viewBox="0 0 100 100" fill="none" xmlns="http://www.w3.org/2000/svg">
<path d="M12.76 65.9102C12.9 66.2502 12.97 66.6202 12.97 66.9802C13.5 66.6102 14.14 66.4702 14.77 66.5702C14.61 66.3702 14.5 66.1402 14.41 65.9102H12.76Z" fill="white"/>
<path d="M60.6299 17.6799C60.7099 18.2399 60.7599 18.7799 60.7699 19.3199C61.2199 19.0799 61.7599 19.0399 62.2599 19.1999C61.7899 18.6999 61.5699 18.0299 61.6099 17.3599C61.3099 17.5399 60.9699 17.6399 60.6299 17.6699V17.6799Z" fill="white"/>
<path d="M93.88 35.6301L72.66 20.9501C72.98 21.5901 72.96 22.3901 72.52 23.0101C71.9 23.9001 70.69 24.0901 69.82 23.4501C68.95 22.8001 68.75 21.5601 69.38 20.6801C69.79 20.1001 70.46 19.8201 71.11 19.8801L69.26 18.6001C69.69 19.3401 69.69 20.2901 69.18 21.0101C68.49 21.9901 67.13 22.2001 66.14 21.4601C65.51 20.9901 65.19 20.2701 65.21 19.5401C64.6 19.9501 63.83 20.0401 63.13 19.7801C63.73 20.4701 63.8 21.5101 63.26 22.2801C62.63 23.1801 61.41 23.3701 60.53 22.7201C60.49 22.6901 60.46 22.6501 60.42 22.6201C60.36 22.9001 60.29 23.1801 60.21 23.4601C60.83 24.0101 60.96 24.9601 60.47 25.6501C60.16 26.0901 59.67 26.3201 59.17 26.3201C58.82 27.1201 58.46 27.8401 58.12 28.4901C58.09 28.5501 58.05 28.6201 58.02 28.6801C57.98 28.8001 57.93 28.9101 57.86 29.0201C57.83 29.0701 57.79 29.1101 57.75 29.1501C55.57 32.6701 51.78 34.0101 51.78 34.0101C52.11 34.0101 56.24 36.8701 56.24 36.8701C63.76 49.3201 53.04 61.1601 46.88 63.6601C43.81 64.9101 40.5 65.4701 37.95 65.7201C37.92 65.8601 37.87 65.9901 37.79 66.1101C37.47 66.5601 36.86 66.6601 36.42 66.3301C36.26 66.2101 36.14 66.0401 36.07 65.8601C34.54 65.9401 33.58 65.9101 33.58 65.9101H31.43C31.52 65.9501 31.6 66.0001 31.68 66.0601C32.4 66.5901 32.56 67.6201 32.05 68.3501C31.53 69.0801 30.54 69.2401 29.82 68.7101C29.1 68.1801 28.94 67.1501 29.45 66.4201C29.61 66.1901 29.83 66.0201 30.06 65.9101H28.47C28.42 66.1301 28.32 66.3401 28.19 66.5401C27.6 67.3701 26.47 67.5601 25.65 66.9501C25.29 66.6901 25.07 66.3101 24.96 65.9101H22.79C23.07 66.4201 23.18 67.0201 23.08 67.6001C23.88 66.9201 25.05 66.8401 25.93 67.5001C26.97 68.2801 27.21 69.7701 26.46 70.8401C25.89 71.6601 24.9 71.9801 24 71.7401C24.81 72.5801 24.94 73.9201 24.24 74.9101C23.68 75.7101 22.73 76.0501 21.83 75.8701C22.38 76.5501 22.55 77.4701 22.28 78.3001C23 77.4401 24.24 77.2801 25.16 77.9501C26.12 78.6701 26.34 80.0401 25.65 81.0301C24.96 82.0101 23.62 82.2301 22.65 81.5201C21.88 80.9501 21.59 79.9501 21.86 79.0701C21.39 79.6701 20.71 79.9901 20.01 80.0101L40.53 92.6701L58.1 92.7901L61.98 71.9201L74.87 72.0001C84.39 72.0601 96.02 65.5001 99.52 52.8201C101.03 44.7001 98.58 38.6801 93.88 35.6301ZM37.79 71.1801C38.11 70.7301 38.72 70.6301 39.16 70.9601C39.6 71.2901 39.7 71.9201 39.38 72.3701C39.06 72.8201 38.45 72.9201 38.01 72.5901C37.57 72.2601 37.47 71.6301 37.79 71.1801ZM33.6 68.8001C34.02 68.2101 34.83 68.0801 35.41 68.5101C35.99 68.9401 36.12 69.7701 35.71 70.3601C35.29 70.9501 34.48 71.0801 33.9 70.6501C33.32 70.2201 33.19 69.3901 33.6 68.8001ZM31.16 72.8401C31.65 72.1501 32.59 72.0001 33.26 72.5001C33.94 73.0001 34.09 73.9701 33.6 74.6601C33.11 75.3501 32.17 75.5001 31.5 75.0001C30.83 74.5001 30.67 73.5301 31.16 72.8401ZM26.94 70.4701C27.54 69.6201 28.7 69.4301 29.54 70.0501C30.37 70.6701 30.56 71.8601 29.97 72.7201C29.37 73.5701 28.21 73.7601 27.37 73.1401C26.54 72.5201 26.35 71.3301 26.94 70.4701ZM24.98 77.4601C24.07 76.7801 23.86 75.4801 24.52 74.5501C25.17 73.6201 26.44 73.4101 27.36 74.0901C28.27 74.7701 28.48 76.0701 27.82 77.0001C27.17 77.9301 25.9 78.1401 24.98 77.4601ZM29.25 82.9401C28.69 83.7401 27.6 83.9101 26.82 83.3301C26.04 82.7501 25.86 81.6301 26.42 80.8401C26.98 80.0401 28.07 79.8701 28.85 80.4501C29.63 81.0301 29.81 82.1501 29.25 82.9401ZM29.12 79.2501C28.38 78.7001 28.21 77.6501 28.74 76.8901C29.27 76.1401 30.3 75.9701 31.04 76.5201C31.78 77.0701 31.95 78.1201 31.42 78.8801C30.89 79.6301 29.86 79.8001 29.12 79.2501ZM32.78 84.8401C32.35 85.4401 31.53 85.5801 30.94 85.1401C30.35 84.7001 30.21 83.8501 30.64 83.2501C31.07 82.6501 31.89 82.5101 32.48 82.9501C33.07 83.3901 33.21 84.2401 32.78 84.8401ZM33.29 81.0801C32.73 80.6601 32.6 79.8601 33 79.2901C33.4 78.7201 34.18 78.5901 34.74 79.0101C35.3 79.4301 35.43 80.2301 35.03 80.8001C34.63 81.3701 33.85 81.5001 33.29 81.0801ZM36.41 86.8401C36.12 87.2501 35.56 87.3401 35.16 87.0401C34.76 86.7401 34.67 86.1701 34.96 85.7601C35.25 85.3501 35.81 85.2601 36.21 85.5601C36.61 85.8601 36.7 86.4301 36.41 86.8401ZM35.56 76.8001C35.05 76.4201 34.93 75.6901 35.3 75.1601C35.67 74.6401 36.38 74.5201 36.9 74.9001C37.41 75.2801 37.53 76.0101 37.16 76.5401C36.79 77.0601 36.08 77.1801 35.56 76.8001ZM38.58 82.6101C38.31 82.9901 37.8 83.0701 37.42 82.8001C37.05 82.5201 36.96 81.9901 37.23 81.6101C37.5 81.2301 38.01 81.1501 38.39 81.4201C38.77 81.6901 38.85 82.2301 38.58 82.6101ZM39.95 88.7201C39.79 88.9501 39.47 89.0001 39.24 88.8301C39.01 88.6601 38.96 88.3401 39.12 88.1001C39.28 87.8701 39.6 87.8201 39.83 87.9901C40.06 88.1601 40.11 88.4801 39.95 88.7201ZM40.81 78.4801C40.57 78.8201 40.11 78.8901 39.78 78.6501C39.45 78.4001 39.37 77.9301 39.61 77.5901C39.85 77.2501 40.31 77.1801 40.64 77.4201C40.97 77.6701 41.05 78.1401 40.81 78.4801ZM41.47 68.0401C41.24 68.3601 40.8 68.4401 40.48 68.2001C40.16 67.9601 40.09 67.5101 40.32 67.1801C40.55 66.8601 40.99 66.7801 41.31 67.0201C41.63 67.2601 41.7 67.7101 41.47 68.0401ZM43.02 74.2501C42.82 74.5301 42.44 74.5901 42.17 74.3901C41.9 74.1901 41.84 73.8001 42.03 73.5201C42.23 73.2401 42.61 73.1801 42.88 73.3801C43.15 73.5801 43.21 73.9701 43.02 74.2501ZM80.56 28.1801C80.79 27.8501 81.24 27.7801 81.56 28.0201C81.88 28.2601 81.96 28.7201 81.72 29.0501C81.49 29.3801 81.04 29.4501 80.72 29.2101C80.4 28.9701 80.32 28.5101 80.56 28.1801ZM78.85 31.9001C78.66 32.1601 78.3 32.2201 78.04 32.0301C77.78 31.8401 77.72 31.4701 77.91 31.2001C78.1 30.9401 78.46 30.8801 78.72 31.0701C78.98 31.2601 79.04 31.6301 78.85 31.9001ZM76.87 25.8001C77.2 25.3301 77.83 25.2301 78.29 25.5701C78.75 25.9101 78.85 26.5601 78.52 27.0301C78.19 27.5001 77.56 27.6001 77.1 27.2601C76.64 26.9201 76.54 26.2701 76.87 25.8001ZM76.11 30.5801C75.82 30.9901 75.27 31.0801 74.87 30.7801C74.47 30.4801 74.38 29.9101 74.67 29.5001C74.96 29.0901 75.51 29.0001 75.91 29.3001C76.31 29.6001 76.4 30.1701 76.11 30.5801ZM73.14 23.3801C73.58 22.7501 74.45 22.6101 75.06 23.0701C75.68 23.5301 75.82 24.4101 75.38 25.0501C74.94 25.6801 74.07 25.8201 73.46 25.3601C72.84 24.9001 72.7 24.0201 73.14 23.3801ZM70.91 27.1001C71.32 26.5201 72.11 26.3901 72.67 26.8101C73.24 27.2301 73.37 28.0401 72.96 28.6201C72.55 29.2001 71.76 29.3301 71.2 28.9101C70.63 28.4901 70.5 27.6801 70.91 27.1001ZM70.42 31.5601C70.09 32.0301 69.46 32.1301 69 31.7901C68.54 31.4501 68.44 30.8001 68.77 30.3301C69.1 29.8601 69.73 29.7601 70.19 30.1001C70.65 30.4401 70.75 31.0901 70.42 31.5601ZM67.3 24.6001C67.79 23.9101 68.73 23.7501 69.41 24.2601C70.09 24.7601 70.24 25.7301 69.76 26.4301C69.27 27.1201 68.33 27.2801 67.65 26.7701C66.97 26.2701 66.82 25.3001 67.3 24.6001ZM67.14 29.9001C66.74 30.4701 65.96 30.6001 65.4 30.1801C64.84 29.7701 64.72 28.9701 65.12 28.4001C65.52 27.8301 66.3 27.7001 66.86 28.1201C67.42 28.5301 67.54 29.3301 67.14 29.9001ZM63.65 22.3201C64.22 21.5101 65.33 21.3301 66.13 21.9201C66.93 22.5101 67.11 23.6501 66.54 24.4601C65.97 25.2701 64.86 25.4501 64.06 24.8601C63.26 24.2701 63.08 23.1301 63.65 22.3201ZM61.21 31.2001C60.87 31.6901 60.2 31.8001 59.72 31.4401C59.24 31.0901 59.13 30.4001 59.48 29.9101C59.82 29.4201 60.49 29.3101 60.97 29.6701C61.45 30.0201 61.56 30.7101 61.21 31.2001ZM61.82 28.2301C61.17 27.7501 61.02 26.8201 61.49 26.1601C61.96 25.5001 62.86 25.3501 63.51 25.8301C64.16 26.3101 64.31 27.2401 63.84 27.9001C63.37 28.5601 62.47 28.7101 61.82 28.2301ZM82.78 52.5301C82.33 54.9401 80.4 56.8801 77.39 56.8601L64.08 56.7701L65.7 48.0501L80.01 48.1401C81.99 48.1501 83.23 50.1201 82.78 52.5201V52.5301ZM84.46 31.0801C84.31 31.2901 84.02 31.3401 83.81 31.1901C83.6 31.0401 83.55 30.7401 83.7 30.5201C83.85 30.3101 84.14 30.2601 84.35 30.4101C84.56 30.5601 84.61 30.8601 84.46 31.0801Z" fill="white"/>
<path d="M14.3201 71.7801C14.5401 72.1401 14.6601 72.5501 14.7001 72.9701C15.1301 72.7201 15.6201 72.6101 16.1101 72.6301C15.8901 72.2501 15.7701 71.8201 15.7501 71.3901C15.3201 71.6601 14.8201 71.8001 14.3101 71.7801H14.3201Z" fill="white"/>
<path d="M10.3301 69.5501C10.5701 69.9501 10.7001 70.4001 10.7201 70.8601C11.1701 70.5901 11.6901 70.4601 12.2101 70.4901C11.9701 70.0701 11.8401 69.5901 11.8501 69.1001C11.4001 69.4101 10.8701 69.5701 10.3401 69.5501H10.3301Z" fill="white"/>
<path d="M6.26001 67.5602C6.47001 67.9102 6.59001 68.3202 6.60001 68.7302C7.08001 68.3902 7.65001 68.2302 8.22001 68.2602C7.99001 67.8602 7.87001 67.4102 7.86001 66.9502C7.42001 67.3702 6.84001 67.5802 6.26001 67.5602Z" fill="white"/>
<path d="M67.6601 17.5002L65.8401 16.2402C66.1301 16.6902 66.2701 17.2302 66.2301 17.7602C66.6601 17.5002 67.1601 17.4202 67.6601 17.5002Z" fill="white"/>
<path d="M18.6799 68.7198C18.3199 68.2498 18.1399 67.6698 18.1499 67.0898C17.6399 67.4598 17.0099 67.6098 16.3899 67.5198C16.7399 67.9698 16.9299 68.5098 16.9499 69.0598C17.4599 68.7298 18.0799 68.6198 18.6699 68.7098L18.6799 68.7198Z" fill="white"/>
<path d="M20.8601 71.4901C21.4501 71.0501 22.19 70.9001 22.89 71.0901C22.38 70.5501 22.15 69.8001 22.26 69.0801C21.72 69.5701 21 69.7701 20.3 69.6701C20.71 70.1901 20.9001 70.8401 20.8601 71.4901Z" fill="white"/>
<path d="M62.77 15.49C63.26 15.21 63.83 15.11 64.39 15.23L62.22 13.73C62.63 14.23 62.83 14.86 62.78 15.49H62.77Z" fill="white"/>
<path d="M19.88 73.3701C19.4 73.7501 18.82 73.9501 18.22 73.9301C18.47 74.3601 18.6 74.8401 18.61 75.3401C19.15 75.0001 19.8 74.8801 20.42 75.0201C20.05 74.5501 19.86 73.9701 19.88 73.3801V73.3701Z" fill="white"/>
<path d="M48.23 32.52C53.54 31.72 58.43 26.72 59.56 20.65L59.67 20.06C60.91 13.4 57.21 8.05996 48.76 7.20996L10.99 7.65996L4.85004 7.61996L2.15004 22.16L7.86004 22.2L5.97004 32.37L0.0400391 64.22L34.02 64.44C49.85 63.96 56.01 55.93 57.65 47.13L57.95 45.53C59.31 38.19 54.4 32.96 48.24 32.5L48.23 32.52ZM25.96 21.64L38.76 21.72C40.53 21.73 41.66 23.35 41.3 25.33C40.93 27.31 39.23 28.91 36.53 28.89L24.62 28.81L25.95 21.63L25.96 21.64ZM34.3 49.72L20.75 49.63L22.36 40.97L36.92 41.07C38.93 41.08 40.2 43.03 39.76 45.43C39.32 47.82 37.36 49.75 34.29 49.73L34.3 49.72Z" fill="white"/>
</svg>
