<svg width="100" height="100" viewBox="0 0 100 100" fill="none" xmlns="http://www.w3.org/2000/svg">
<path fill-rule="evenodd" clip-rule="evenodd" d="M5.49997 25.6114V35.0806H28.2674C27.9389 36.4912 20.0142 58.8998 19.4269 60.6581C19.2548 61.1734 19.0759 61.5709 18.8815 62.1598C17.1151 67.5106 15.083 72.9042 13.3186 78.2201L10.4883 86.2654H32.4883C32.1224 85.7187 32.0669 86.0857 31.3911 85.0598C31.0612 84.559 30.8255 83.9675 30.8255 83.1943V73.2133C30.8255 70.6118 33.1984 69.2464 35.9418 69.2464V31.6256C35.9418 29.3755 38.0295 27.1469 40.2906 27.1469H50.2673C51.2729 27.1469 52.2995 28.008 52.7886 28.5914C53.2158 29.101 54.1605 30.6176 54.4883 30.8578C54.8342 30.6261 55.4851 29.6996 55.7673 29.3223C57.3375 27.2232 57.2735 25.971 58.3629 23.2176C58.6379 22.5227 58.8633 21.8293 59.1091 21.149L60.6093 16.8915C60.8872 16.1498 61.0735 15.4054 61.3952 14.7346H5.37207C5.37207 18.5002 5.49997 21.8415 5.49997 25.6114V25.6114Z" fill="white"/>
<path fill-rule="evenodd" clip-rule="evenodd" d="M57.9417 70.3981C57.9417 69.4546 58.4077 68.512 58.8704 68.0002C60.8368 65.8256 64.8487 67.2653 64.8487 70.0142V70.782C64.8487 72.2673 63.2636 73.8531 61.7789 73.8531H61.0115C59.5147 73.8531 57.9417 72.3328 57.9417 70.3981ZM40.6744 71.2938C40.6744 72.4123 40.0627 73.8531 39.0116 73.8531H35.3022V82.6825H39.5232C42.3894 82.6825 45.4872 80.8129 46.7618 79.1754C48.4678 76.9838 49.2441 74.7309 49.2441 70.91H49.372C49.372 77.1079 55.1118 82.4266 60.6278 82.4266C63.1605 82.4266 64.6109 82.3732 66.9144 81.1661C69.3512 79.8892 71.389 77.7969 72.5231 75.2607C77.3346 64.4998 65.015 53.4261 54.5645 60.3654C51.4753 62.4167 49.372 66.0862 49.372 69.8863L49.2441 58.2417H40.6744V71.2938L40.6744 71.2938Z" fill="white"/>
<path fill-rule="evenodd" clip-rule="evenodd" d="M40.6743 56.3223H49.2441V44.2939C49.8929 44.7285 53.893 50.3837 54.4882 50.82C54.8018 50.5901 55.466 49.6446 55.7488 49.2659C56.2373 48.6114 59.1057 44.7983 59.4766 44.5498V56.3223H68.0463V31.8816H59.4766C59.3746 32.3196 59.1934 32.4834 58.9658 32.7781C58.4894 33.3952 54.7122 38.4316 54.6161 38.7915H54.3603C54.2451 38.36 53.3796 37.3935 53.0798 37.0015L50.435 33.5053C50.1839 33.1977 50.001 32.9398 49.7747 32.6304C49.4511 32.1881 49.3414 31.8816 48.9882 31.8816H40.6743V56.3223H40.6743Z" fill="white"/>
<path fill-rule="evenodd" clip-rule="evenodd" d="M76.9998 44.038C76.9998 43.0945 77.4657 42.1519 77.9285 41.6401C79.8948 39.4655 83.9067 40.9052 83.9067 43.6541V44.4219C83.9067 45.9072 82.3216 47.493 80.837 47.493H80.0695C78.5727 47.493 76.9998 45.9727 76.9998 44.038ZM79.6858 56.0665C82.2185 56.0665 83.6689 56.0131 85.9724 54.806C88.4092 53.5291 90.447 51.4369 91.5811 48.9006C96.3386 38.2605 84.2531 26.9827 73.5457 34.0564C71.1817 35.6181 69.4237 38.2531 68.7353 41.0165C68.086 43.6234 68.2475 46.0865 69.2493 48.5929C70.3129 51.2541 72.4524 53.5436 74.9523 54.7879C76.1839 55.4009 77.8616 56.0665 79.6858 56.0665V56.0665Z" fill="white"/>
<path fill-rule="evenodd" clip-rule="evenodd" d="M73.5464 65.1516C73.5464 68.6047 74.3485 71.4482 76.3932 72.9245C79.2694 75.001 85.4417 72.7633 85.4417 74.6208C85.4417 75.2031 85.1366 75.6446 84.4184 75.6446H75.3371V82.5545H87.9998C91.881 82.5545 94.3951 79.5667 94.3951 75.2607C94.3951 71.9738 93.6188 68.9466 91.1564 67.624C89.4317 66.6976 86.7182 66.9245 84.2895 66.9441C83.906 66.9473 83.4123 67.0115 83.0724 66.8821C82.1699 66.5387 82.3279 65.1517 83.5231 65.1517H92.6045V58.2417H79.9417C76.27 58.2417 73.5464 61.1684 73.5464 65.1517L73.5464 65.1516Z" fill="white"/>
</svg>
