<svg width="100" height="100" viewBox="0 0 100 100" fill="none" xmlns="http://www.w3.org/2000/svg">
<path d="M33.17 63.4099L32.84 63.7199C29.35 66.9599 24.64 68.9599 19.44 68.9599C8.71 68.9599 0 60.4699 0 49.9999C0 39.5299 8.7 31.0399 19.44 31.0399C24.81 31.0399 29.68 33.1699 33.2 36.6199L27.53 42.1899C25.46 40.1499 22.6 38.8899 19.44 38.8899C13.15 38.8899 8.06 43.8699 8.06 49.9999C8.06 56.1299 13.16 61.1099 19.44 61.1099C21.52 61.1099 23.47 60.5599 25.14 59.6099V54.8699H19.42V47.6299H33.18V63.4099H33.17ZM100 23.1499V76.8499H44.96V23.1499H100ZM90.6 67.7299L79.15 45.2999L72.43 32.2599L54.37 67.7299H62.94L65.07 63.5699H79.87L82 67.7299H90.61H90.6ZM68.6 56.6099H76.31L72.45 49.0499L68.59 56.6099H68.6Z" fill="white"/>
</svg>
