<svg width="100" height="100" viewBox="0 0 100 100" fill="none" xmlns="http://www.w3.org/2000/svg">
<path d="M15.87 82.9598C12.52 82.9398 9.81995 80.2198 9.83995 76.8698C9.84995 73.4498 12.61 70.7798 16.08 70.8298C19.44 70.8798 22.1 73.6298 22.03 76.9898C21.96 80.3598 19.26 82.9798 15.87 82.9598Z" fill="white"/>
<path d="M6.65006 55.54C3.63006 55.55 1.31006 53.26 1.31006 50.28C1.31006 47.33 3.69006 44.97 6.65006 44.98C9.56006 44.99 12.0001 47.47 11.9401 50.36C11.8901 53.25 9.56006 55.53 6.65006 55.54Z" fill="white"/>
<path d="M26.22 92.0499C23.24 92.0499 20.89 89.7199 20.91 86.7599C20.93 83.7699 23.26 81.5099 26.27 81.5299C29.18 81.5499 31.46 83.8299 31.48 86.7399C31.5 89.7399 29.21 92.0499 26.21 92.0599L26.22 92.0499Z" fill="white"/>
<path d="M9.21989 69.5398C6.15989 69.5498 3.88989 67.3398 3.88989 64.3398C3.88989 61.3498 6.17989 59.0698 9.18989 59.0698C12.1399 59.0698 14.3799 61.2798 14.4099 64.2198C14.4499 67.2898 12.2699 69.5298 9.21989 69.5398Z" fill="white"/>
<path d="M3.21009 36.04C3.23009 33.05 5.58009 30.78 8.57009 30.84C11.4301 30.9 13.7201 33.25 13.7201 36.13C13.7201 39.09 11.3301 41.46 8.39009 41.41C5.40009 41.37 3.18009 39.06 3.20009 36.03L3.21009 36.04Z" fill="white"/>
<path d="M33.7899 92.99C33.8099 89.98 36.1299 87.74 39.1499 87.8C42.0799 87.86 44.3099 90.13 44.3099 93.05C44.3099 95.99 41.9099 98.4 38.9999 98.37C36.0199 98.34 33.7699 96.01 33.7899 92.99Z" fill="white"/>
<path d="M82.6099 26.5401C82.5899 29.2701 80.3999 31.4001 77.6699 31.3501C75.0199 31.2901 72.8999 29.1601 72.8699 26.5301C72.8399 23.8601 75.0799 21.6201 77.7599 21.6201C80.4699 21.6201 82.6299 23.8201 82.6099 26.5401Z" fill="white"/>
<path d="M83.95 41.3201C81.26 41.3001 79.1801 39.2401 79.1601 36.5501C79.1401 33.8001 81.28 31.6701 84.04 31.6901C86.69 31.7101 88.87 33.8701 88.88 36.4701C88.88 39.1901 86.71 41.3301 83.95 41.3101V41.3201Z" fill="white"/>
<path d="M38.9599 68.5301C36.2699 68.5201 34.1899 66.4501 34.1799 63.7701C34.1799 61.0101 36.2699 58.9801 39.1099 59.0101C41.7699 59.0401 43.8899 61.2101 43.8299 63.8401C43.7799 66.5001 41.6499 68.5401 38.9599 68.5301Z" fill="white"/>
<path d="M33.0801 58.7902C30.4101 58.7502 28.3901 56.6502 28.4101 53.9402C28.4301 51.2502 30.5201 49.1802 33.2001 49.1802C35.9201 49.1802 37.9801 51.3402 37.9301 54.1402C37.8801 56.8502 35.8201 58.8202 33.0801 58.7902Z" fill="white"/>
<path d="M53.1801 90.3702C55.7701 90.3702 57.8401 92.4501 57.8601 95.0601C57.8901 97.7201 55.7401 99.8201 53.0501 99.7701C50.4401 99.7201 48.4201 97.6302 48.4601 95.0102C48.5001 92.3902 50.5601 90.3602 53.1701 90.3702H53.1801Z" fill="white"/>
<path d="M14.5499 27.8802C11.8999 27.8802 9.8699 25.8902 9.8399 23.2702C9.8099 20.6702 12.0599 18.4402 14.6499 18.5002C17.2499 18.5602 19.2499 20.6402 19.2399 23.2802C19.2299 25.9402 17.2599 27.8802 14.5599 27.8802H14.5499Z" fill="white"/>
<path d="M68.47 23.8501C65.8 23.8501 63.78 21.8501 63.78 19.2101C63.78 16.5801 65.83 14.5601 68.49 14.5601C71.15 14.5601 73.16 16.5701 73.16 19.2301C73.16 21.8901 71.16 23.8601 68.48 23.8501H68.47Z" fill="white"/>
<path d="M33.7 38.1802C36.27 38.1802 38.19 40.0602 38.21 42.5802C38.23 45.1802 36.27 47.1502 33.66 47.1402C31.09 47.1402 29.08 45.0902 29.14 42.5402C29.19 40.0402 31.14 38.1702 33.7 38.1802Z" fill="white"/>
<path d="M81.8899 48.0202C81.8999 45.4102 83.8399 43.5202 86.4799 43.5602C88.9999 43.5902 90.9399 45.5202 90.9599 48.0102C90.9799 50.5402 88.9399 52.6102 86.4199 52.6302C83.9299 52.6502 81.8799 50.5602 81.8899 48.0302V48.0202Z" fill="white"/>
<path d="M53.66 68.7901C53.65 71.2701 51.66 73.2301 49.17 73.2301C46.65 73.2301 44.76 71.3001 44.76 68.7601C44.76 66.2301 46.68 64.3101 49.2 64.3101C51.66 64.3101 53.67 66.3401 53.66 68.7901Z" fill="white"/>
<path d="M61.72 15.4999C61.76 17.9299 59.69 20.0199 57.25 20.0199C54.9 20.0199 52.88 17.9999 52.84 15.6099C52.8 13.2299 54.74 11.1899 57.13 11.0899C59.53 10.9899 61.68 13.0599 61.72 15.4899V15.4999Z" fill="white"/>
<path d="M28.4599 12.8998C28.4199 15.1498 26.4099 17.0698 24.1999 16.9898C21.9899 16.9098 20.1699 15.0298 20.1699 12.8398C20.1699 10.5698 22.0999 8.65984 24.3499 8.67984C26.6199 8.69984 28.5099 10.6298 28.4599 12.8998Z" fill="white"/>
<path d="M84.75 63.8298C82.45 63.8298 80.58 61.9798 80.61 59.7098C80.64 57.4198 82.48 55.6398 84.81 55.6598C87.05 55.6798 88.84 57.4498 88.88 59.6798C88.93 61.9298 87.04 63.8298 84.75 63.8298Z" fill="white"/>
<path d="M67.2 96.76C64.86 96.76 63.05 94.96 63.08 92.64C63.11 90.44 64.93 88.62 67.15 88.59C69.49 88.55 71.3 90.33 71.31 92.67C71.31 95.07 69.62 96.75 67.2 96.76Z" fill="white"/>
<path d="M45.4701 11.8899C47.7001 11.8899 49.5401 13.6899 49.5701 15.9199C49.6101 18.2199 47.7401 20.0699 45.4001 20.0399C43.1301 20.0099 41.3801 18.2099 41.4001 15.9399C41.4201 13.6799 43.2101 11.8899 45.4601 11.8799L45.4701 11.8899Z" fill="white"/>
<path d="M44.3 33.3502C44.33 35.6302 42.58 37.4002 40.3 37.3902C38.11 37.3902 36.35 35.6802 36.29 33.4902C36.23 31.3202 38.1 29.4402 40.33 29.4502C42.55 29.4502 44.27 31.1402 44.3 33.3502Z" fill="white"/>
<path d="M56.7 67.3801C56.7 65.2601 58.43 63.5701 60.56 63.6101C62.6 63.6501 64.26 65.3501 64.25 67.3801C64.23 69.4401 62.5799 71.1201 60.5499 71.1601C58.4399 71.2001 56.6999 69.4901 56.7099 67.3801H56.7Z" fill="white"/>
<path d="M79.4199 73.5602C77.3399 73.5802 75.68 71.9802 75.61 69.9002C75.54 67.8002 77.2799 66.0602 79.4199 66.0802C81.4699 66.1002 83.1699 67.7902 83.1699 69.8202C83.1699 71.8502 81.4699 73.5402 79.4199 73.5602Z" fill="white"/>
<path d="M38.2101 20.3399C38.2301 22.4099 36.5601 24.0899 34.5001 24.0699C32.4901 24.0499 30.9001 22.4499 30.8801 20.4299C30.8601 18.3799 32.3901 16.7799 34.4101 16.7399C36.5401 16.6899 38.1901 18.2599 38.2101 20.3399Z" fill="white"/>
<path d="M79.9301 82.59C81.9201 82.61 83.4001 84.1101 83.4001 86.1101C83.4001 88.0801 81.8701 89.6201 79.9101 89.6401C77.8801 89.6601 76.3001 88.0401 76.3601 86.0101C76.4201 84.0101 77.9201 82.57 79.9301 82.59Z" fill="white"/>
<path d="M40.2801 5.92005C40.2801 7.95005 38.8401 9.40005 36.8201 9.39005C34.8401 9.39005 33.2801 7.90005 33.2301 5.96005C33.1801 4.00005 34.8701 2.30005 36.8401 2.34005C38.7601 2.38005 40.2801 3.95005 40.2801 5.92005Z" fill="white"/>
<path d="M70.68 74.4698C72.61 74.4698 74.11 75.9598 74.07 77.8298C74.04 79.6698 72.43 81.2198 70.58 81.1798C68.81 81.1398 67.32 79.6098 67.29 77.8198C67.26 75.9198 68.73 74.4598 70.67 74.4698H70.68Z" fill="white"/>
<path d="M50.8199 25.99C52.6999 25.95 54.2699 27.46 54.2799 29.32C54.2799 31.1 52.7999 32.62 50.9999 32.67C49.1199 32.73 47.5799 31.23 47.5699 29.33C47.5599 27.51 48.9999 26.03 50.8199 25.99Z" fill="white"/>
<path d="M29.0801 28.2302C29.1201 29.9502 27.6901 31.4502 25.9401 31.5202C24.0901 31.5902 22.5601 30.1802 22.5101 28.3502C22.4701 26.6002 23.8701 25.1502 25.6601 25.0802C27.5401 25.0102 29.0401 26.3902 29.0801 28.2302Z" fill="white"/>
<path d="M69.0601 63.0399C67.4101 62.9999 66.0801 61.6399 66.1101 60.0099C66.1401 58.2799 67.5501 56.9699 69.2901 57.0499C70.9401 57.1299 72.2101 58.5099 72.1501 60.1499C72.0801 61.7999 70.7201 63.0699 69.0601 63.0299V63.0399Z" fill="white"/>
<path d="M92.88 75.89C92.91 77.53 91.57 78.89 89.92 78.89C88.27 78.89 86.93 77.55 86.94 75.91C86.95 74.32 88.22 73.05 89.81 73.02C91.51 72.98 92.85 74.24 92.88 75.89Z" fill="white"/>
<path d="M50.8299 0.220021C52.5399 0.240021 53.7599 1.50002 53.7299 3.22002C53.6999 4.92002 52.3999 6.15002 50.7099 6.10002C49.0899 6.05002 47.9199 4.82002 47.9199 3.17002C47.9199 1.44002 49.1399 0.200021 50.8399 0.210021L50.8299 0.220021Z" fill="white"/>
<path d="M62.6801 82.1998C62.7101 83.7598 61.4301 85.1098 59.8601 85.1898C58.3201 85.2598 56.9401 83.9798 56.8701 82.3998C56.8001 80.7398 58.1201 79.3198 59.7401 79.3198C61.2801 79.3198 62.6401 80.6598 62.6701 82.2098L62.6801 82.1998Z" fill="white"/>
<path d="M64.7499 31.76C64.7199 33.2 63.4699 34.43 62.0399 34.44C60.5199 34.45 59.2999 33.2 59.3299 31.63C59.3499 30.09 60.4599 29 61.9999 29C63.5899 29 64.7899 30.2 64.7499 31.76Z" fill="white"/>
<path d="M74.7799 49.1501C74.7799 50.5001 73.6599 51.6301 72.3399 51.6001C71.0699 51.5701 70.0199 50.5301 69.9799 49.2401C69.9299 47.8901 71.0099 46.7401 72.3299 46.7101C73.6399 46.6801 74.7799 47.8101 74.7799 49.1501Z" fill="white"/>
<path d="M47.8899 80.3302C49.1599 80.2902 50.2499 81.3202 50.2999 82.6202C50.3499 83.9702 49.4399 85.0002 48.1099 85.0902C46.7299 85.1802 45.6099 84.1402 45.5999 82.7602C45.5899 81.4602 46.6099 80.3802 47.8899 80.3402V80.3302Z" fill="white"/>
<path d="M98.69 63.1801C98.7 64.5301 97.76 65.5101 96.4 65.5401C95.04 65.5701 94.04 64.6401 93.99 63.3101C93.94 61.9401 95.02 60.8001 96.36 60.8101C97.63 60.8101 98.68 61.8901 98.69 63.1801Z" fill="white"/>
<path d="M67.3701 4.89022C67.3301 6.17022 66.2701 7.16022 64.9501 7.15022C63.6301 7.15022 62.6101 6.13022 62.6101 4.83022C62.6101 3.46022 63.7201 2.41022 65.0901 2.47022C66.3701 2.52022 67.4101 3.62022 67.3701 4.89022Z" fill="white"/>
<path d="M20.29 36.3C21.51 36.3 22.63 37.44 22.64 38.69C22.66 39.94 21.59 41.03 20.31 41.06C18.94 41.09 17.86 40 17.9 38.62C17.94 37.34 19.02 36.29 20.29 36.29V36.3Z" fill="white"/>
</svg>
