<svg width="100" height="100" viewBox="0 0 100 100" fill="none" xmlns="http://www.w3.org/2000/svg">
<g clip-path="url(#clip0_8073_76)">
<mask id="mask0_8073_76" style="mask-type:luminance" maskUnits="userSpaceOnUse" x="0" y="0" width="100" height="100">
<path d="M100 0H0V100H100V0Z" fill="white"/>
</mask>
<g mask="url(#mask0_8073_76)">
<path d="M31.5799 69.5298H29.2199C28.7899 69.5298 28.4199 69.8998 28.4199 70.3298V85.1798C28.4199 85.6098 28.7799 85.9798 29.2199 85.9798H31.5799C33.1699 85.9798 34.4699 84.6798 34.4699 83.0898V72.4198C34.4699 70.8298 33.1799 69.5298 31.5799 69.5298Z" fill="white"/>
<path d="M90.62 0H72.39C72.2 0.15 72.06 0.37 72.06 0.62V14.95C72.06 15.38 72.42 15.75 72.86 15.75H81.92C82.88 15.75 83.65 16.51 83.65 17.48V25.59C83.65 26.55 82.89 27.32 81.92 27.32H72.86C72.43 27.32 72.06 27.69 72.06 28.12V42.97C72.06 43.4 72.42 43.77 72.86 43.77H84.21C85.17 43.77 85.94 44.53 85.94 45.5V56C85.94 56.96 85.18 57.73 84.21 57.73H60.25C59.29 57.73 58.52 56.97 58.52 56V0H47.93V4.86C47.93 9.91 43.85 14 38.8 14H16.65C15.69 14 14.92 13.24 14.92 12.27V0H9.37C4.2 0 0 4.2 0 9.38V90.62C0 95.8 4.2 100 9.38 100H58.53V73.6C58.53 72.64 59.29 71.87 60.26 71.87H84.22C85.18 71.87 85.95 72.63 85.95 73.6V84.03C85.95 84.99 85.19 85.76 84.22 85.76H72.87C72.44 85.76 72.07 86.13 72.07 86.56V100H90.63C95.81 100 100.01 95.8 100.01 90.62V9.38C100 4.2 95.8 0 90.62 0ZM47.94 54.11C47.94 58.2 45.38 61.72 41.77 63.11C41.6 63.18 41.47 63.34 41.47 63.54V63.97C41.47 64.17 41.57 64.34 41.77 64.4C45.39 65.8 47.94 69.28 47.94 73.4V90.78C47.94 95.83 43.86 99.92 38.81 99.92H16.65C15.69 99.92 14.92 99.16 14.92 98.19V29.85C14.92 28.89 15.68 28.12 16.65 28.12H34.9C42.13 28.12 47.97 33.97 47.97 41.18L47.94 54.11Z" fill="white"/>
<path d="M31.5799 41.98H29.2199C28.7899 41.98 28.4199 42.35 28.4199 42.78V57.13C28.4199 57.56 28.7799 57.93 29.2199 57.93H31.5799C33.1699 57.93 34.4699 56.63 34.4699 55.04V44.87C34.4699 43.28 33.1799 41.98 31.5799 41.98Z" fill="white"/>
</g>
</g>
<defs>
<clipPath id="clip0_8073_76">
<rect width="100" height="100" fill="white"/>
</clipPath>
</defs>
</svg>
