<svg width="160" height="80" viewBox="0 0 160 80" fill="none" xmlns="http://www.w3.org/2000/svg">
<g clip-path="url(#clip0_8073_85)">
<path d="M83.34 20.4796C83.29 19.9996 82.9 19.6396 82.42 19.6396H71.24C70.76 19.6396 70.37 20.0096 70.32 20.4796L67.05 57.0496C67 57.5796 67.42 58.0597 67.97 58.0597H73.32C73.8 58.0597 74.21 57.6896 74.24 57.1896L74.58 52.2496C74.6 52.0196 74.78 51.8396 75.01 51.8396H78.64C78.87 51.8396 79.05 52.0196 79.07 52.2496L79.41 57.1896C79.45 57.6696 79.85 58.0597 80.33 58.0597H85.7C86.25 58.0597 86.68 57.5996 86.62 57.0496L83.35 20.4796H83.34ZM75.57 45.7096C75.32 45.7096 75.13 45.4996 75.14 45.2496L76.47 27.2896C76.49 27.1497 76.59 27.0596 76.72 27.0596H76.9C77.04 27.0596 77.15 27.1697 77.15 27.2896L78.48 45.2496C78.5 45.4996 78.3 45.7096 78.05 45.7096H75.56H75.57Z" fill="#0041FF"/>
<path d="M156.72 20.4796C156.68 19.9996 156.28 19.6396 155.8 19.6396H144.62C144.14 19.6396 143.75 20.0096 143.7 20.4796L140.45 57.0496C140.4 57.5796 140.82 58.0597 141.37 58.0597H146.72C147.2 58.0597 147.61 57.6896 147.64 57.1896L147.98 52.2496C148 52.0196 148.18 51.8396 148.41 51.8396H152.04C152.27 51.8396 152.45 52.0196 152.47 52.2496L152.81 57.1896C152.85 57.6696 153.25 58.0597 153.73 58.0597H159.08C159.63 58.0597 160.06 57.5996 160 57.0496L156.73 20.4796H156.72ZM148.95 45.7096C148.7 45.7096 148.51 45.4996 148.52 45.2496L149.85 27.2896C149.87 27.1497 149.97 27.0596 150.1 27.0596H150.28C150.42 27.0596 150.53 27.1697 150.53 27.2896L151.86 45.2496C151.88 45.4996 151.68 45.7096 151.43 45.7096H148.94H148.95Z" fill="#0041FF"/>
<path d="M32.3 42.2004V50.1504C32.3 50.3804 32.5 50.5804 32.73 50.5804H38.81C39.33 50.5804 39.73 50.9904 39.73 51.5004V57.1204C39.73 57.6404 39.32 58.0404 38.81 58.0404H25.97C25.45 58.0404 25.05 57.6304 25.05 57.1204V20.5704C25.05 20.0504 25.46 19.6504 25.97 19.6504H38.81C39.33 19.6504 39.73 20.0604 39.73 20.5704V26.1504C39.73 26.6704 39.32 27.0704 38.81 27.0704H32.73C32.5 27.0704 32.3 27.2704 32.3 27.5004V35.1604C32.3 35.3904 32.5 35.5904 32.73 35.5904H37.58C38.1 35.5904 38.5 36.0004 38.5 36.5104V40.8504C38.5 41.3704 38.09 41.7704 37.58 41.7704H32.73C32.5 41.7704 32.3 41.9704 32.3 42.2004Z" fill="#0041FF"/>
<path d="M107.82 19.6396H91.94C91.42 19.6396 91.02 20.0496 91.02 20.5596V26.1396C91.02 26.6596 91.43 27.0596 91.94 27.0596H95.83C96.06 27.0596 96.26 27.2596 96.26 27.4896V57.1196C96.26 57.6396 96.67 58.0396 97.18 58.0396H102.57C103.09 58.0396 103.49 57.6296 103.49 57.1196V27.4796C103.49 27.2496 103.69 27.0496 103.92 27.0496H107.81C108.33 27.0496 108.73 26.6396 108.73 26.1296V20.5696C108.73 20.0496 108.32 19.6496 107.81 19.6496L107.82 19.6396Z" fill="#0041FF"/>
<path d="M60.44 50.5804H54.95C54.72 50.5804 54.52 50.3804 54.52 50.1504V20.5704C54.52 20.0504 54.11 19.6504 53.6 19.6504H48.21C47.69 19.6504 47.29 20.0604 47.29 20.5704V57.1404C47.29 57.6604 47.7 58.0604 48.21 58.0604H60.44C60.96 58.0604 61.36 57.6504 61.36 57.1404V51.5204C61.36 51.0004 60.95 50.5804 60.44 50.5804Z" fill="#0041FF"/>
<path d="M129.9 39.9096V39.6796C129.9 39.5696 129.97 39.4797 130.06 39.4496C132 38.6996 133.37 36.8197 133.37 34.6297V26.6296C133.39 22.7696 130.26 19.6396 126.4 19.6396H116.62C116.1 19.6396 115.7 20.0496 115.7 20.5596V57.1396C115.7 57.6596 116.11 58.0597 116.62 58.0597H122.01C122.53 58.0597 122.93 57.6496 122.93 57.1396V43.8196C122.93 43.5896 123.13 43.3896 123.36 43.3896H124.62C125.47 43.3896 126.17 44.0796 126.17 44.9396V57.1497C126.17 57.6697 126.58 58.0696 127.09 58.0696H132.48C133 58.0696 133.4 57.6596 133.4 57.1497V44.9897C133.4 42.7896 132.03 40.9196 130.09 40.1696C129.97 40.0996 129.89 40.0097 129.89 39.8997L129.9 39.9096ZM126.15 35.6396C126.15 36.4896 125.46 37.1896 124.6 37.1896H123.34C123.11 37.1896 122.91 36.9896 122.91 36.7596V27.4796C122.91 27.2496 123.11 27.0496 123.34 27.0496H124.6C125.45 27.0496 126.15 27.7396 126.15 28.5996V35.6396Z" fill="#0041FF"/>
<path d="M17.71 26.6296C17.71 22.7696 14.58 19.6396 10.71 19.6396H0.92C0.4 19.6396 0 20.0496 0 20.5596V57.1396C0 57.6596 0.41 58.0597 0.92 58.0597H12.8C15.5 58.0597 17.69 55.8696 17.69 53.1696V43.8696C17.69 41.6696 16.32 39.7996 14.38 39.0496C14.27 39.0096 14.22 38.9296 14.22 38.8196V38.5896C14.22 38.4796 14.29 38.3897 14.38 38.3596C16.32 37.6096 17.69 35.7297 17.69 33.5396L17.71 26.6196V26.6296ZM10.47 49.0496C10.47 49.8996 9.78 50.5996 8.92 50.5996H7.66C7.43 50.5996 7.23 50.3996 7.23 50.1696V42.2197C7.23 41.9897 7.43 41.7896 7.66 41.7896H8.92C9.77 41.7896 10.47 42.4796 10.47 43.3396V49.0496ZM10.47 34.0496C10.47 34.8996 9.78 35.5996 8.92 35.5996H7.66C7.43 35.5996 7.23 35.3996 7.23 35.1696V27.4896C7.23 27.2596 7.43 27.0596 7.66 27.0596H8.92C9.77 27.0596 10.47 27.7497 10.47 28.6096V34.0496Z" fill="#0041FF"/>
</g>
<defs>
<clipPath id="clip0_8073_85">
<rect width="160" height="80" fill="white"/>
</clipPath>
</defs>
</svg>
