<svg width="100" height="100" viewBox="0 0 100 100" fill="none" xmlns="http://www.w3.org/2000/svg">
<path d="M73.6699 61.6501L73.7499 61.5801L73.6699 61.6501Z" fill="white"/>
<path d="M12.05 30.6501H12.06L12.05 30.6401V30.6501Z" fill="white"/>
<path d="M11.3501 29.2699L11.5201 29.6699L11.6801 29.9999L11.4101 29.3999L11.3201 29.1499L11.3501 29.2699Z" fill="white"/>
<path d="M54.92 19.4601L55.07 19.6001L55.45 19.8801L55.7 19.9701L56.23 20.1001L56.5 20.1101L57.05 20.1001L57.28 20.0301L57.7 19.8601L57.82 19.7101L57.95 19.4701L58.08 19.1801L58.17 18.9701L58.36 18.5201L58.47 18.2501L58.71 17.6601L58.84 17.3301L59.41 15.9001L59.72 15.0801L60.37 13.4001L60.7 12.5301L61.36 10.7901L61.67 9.97012L61.97 9.17012L62.11 8.79012L62.37 8.05012L62.5 7.72012L62.73 7.08012L62.83 6.80012L63.01 6.28012L63.08 6.07012L63.2 5.69012L63.24 5.56012L63.3 5.35012V5.31012L63.08 4.78012L62.74 4.39012L62.52 4.22012L62.05 3.90012L61.81 3.79012L61.33 3.62012H61.11L60.37 3.83012L59.92 4.16012L59.78 4.39012L59.6 4.71012L59.45 5.05012L59.35 5.26012L59.15 5.73012L59.04 6.01012L58.8 6.59012L58.66 6.92012L58.11 8.30012L57.81 9.08012L57.2 10.6801L56.9 11.5001L56.29 13.1401L56.01 13.9101L55.48 15.4001L55.26 16.0401L55.05 16.6501L54.96 16.9201L54.8 17.4301L54.73 17.6301L54.62 18.0101L54.59 18.1401L54.54 18.3701V18.4201L54.69 19.0301L54.92 19.4601Z" fill="white"/>
<path d="M28.39 6.03988L28.45 6.25988L28.6 6.71988L28.69 6.99988L28.88 7.57988L28.99 7.90988L29.49 9.29988L29.77 10.0899L30.37 11.7099L30.68 12.5399L31.31 14.1999L31.62 14.9899L32.22 16.4999L32.49 17.1499L32.74 17.7699L32.86 18.0399L33.08 18.5499L33.18 18.7599L33.35 19.1399L33.42 19.2699L33.55 19.4899L33.58 19.5399L34.01 19.9199L34.27 20.0099L34.81 20.1499L35.09 20.1199L35.65 20.0199L35.9 19.8799L36.37 19.5499L36.53 19.2999L36.79 18.7099L36.81 18.4699L36.8 18.3199L36.76 17.9999L36.71 17.7899L36.58 17.3299L36.49 17.0399L36.29 16.3999L36.15 15.9999L35.84 15.1399L35.65 14.6099L35.24 13.4899L34.99 12.8099L34.12 10.4699L33.61 9.12988L33.4 8.55988L32.98 7.49988L32.81 7.04988L32.48 6.22988L32.33 5.89988L32.06 5.27988L31.95 5.04988L31.74 4.60988L31.65 4.45988L31.47 4.17988L31.4 4.07988L31.25 3.92988L31.18 3.88988L30.73 3.68988L30.41 3.62988L30.25 3.63988L29.59 3.73988L29.29 3.88988L28.73 4.25988L28.55 4.52988L28.38 4.79988L28.33 4.94988L28.25 5.24988V5.41988L28.3 5.71988L28.39 6.03988Z" fill="white"/>
<path d="M43.77 11.79V12.25L43.79 13.12L43.8 13.49L43.83 14.16L43.85 14.44L43.89 14.96L43.92 15.17L43.98 15.55L44.01 15.69L44.17 16.19L44.28 16.35L44.62 16.72L44.86 16.84L45.36 17.05L45.63 17.08L46.17 17.1L46.42 17.04L46.89 16.86L47.05 16.69L47.16 16.49L47.22 16.25L47.24 16.08L47.29 15.69L47.31 15.45L47.35 14.91L47.36 14.58L47.39 13.88L47.41 13.46L47.43 12.58L47.44 12.08L47.45 11.02V10.41L47.46 9.15V8.45V7.1V6.29V5.92V5.21L47.45 4.89V4.28V4L47.43 2.99L47.42 2.6L47.38 1.88L47.36 1.62L47.31 1.15L47.28 0.98L47.2 0.69L47.15 0.6L46.92 0.32L46.75 0.23L45.96 0L45.43 0.01L45.18 0.1L44.71 0.31L44.51 0.48L44.17 0.87L44.08 1.12L44.01 1.43L43.97 1.77L43.95 1.99L43.91 2.47L43.9 2.76L43.86 3.38L43.85 3.72L43.8 5.22L43.78 6.07L43.75 7.85V8.79L43.76 10.7L43.77 11.79Z" fill="white"/>
<path d="M52.5601 81.0102L52.9401 80.5602L53.7101 79.6102L54.1501 79.0702L55.0701 77.9402L55.5801 77.3002L56.6601 75.9602L57.2701 75.2202L58.5201 73.6602L59.2201 72.7902L60.6601 71.0002L61.4601 70.0102L69.2001 60.4002L69.4101 53.4902L69.4801 51.4902L69.5301 50.3302L69.5601 49.8202L69.6101 48.8502L69.6401 48.4302L69.6801 47.9202L69.7301 47.4402L69.7701 47.1002L69.9501 45.7902L70.0701 45.1702L70.3201 43.9502L70.5001 43.2902L70.8801 41.8902L71.1401 41.0502L71.2801 40.6602L71.8601 39.1802L72.2401 38.4702L72.6201 37.7702L72.8501 37.4102L73.1901 36.8802L73.0401 37.1202L73.3201 36.6802L73.6001 36.2902L74.1801 35.4802L74.5101 35.0502L75.2101 34.1402L75.6201 33.6302L76.5201 32.4702L77.0101 31.8002L77.2101 31.5002L77.5701 30.9202L77.7001 30.6602L77.9401 30.1602L78.0101 29.9202L78.1301 29.4402L78.1601 29.2102L78.1801 28.7402L78.1501 28.4902L78.0801 27.9902L78.0101 27.7202L77.8501 27.1502L77.7401 26.8402L77.3501 25.9102L77.0401 25.3502L76.8601 25.1102L76.4801 24.6302L76.2601 24.4302L75.8201 24.0402L75.5801 23.8702L75.0801 23.5602L74.8101 23.4302L74.2701 23.2002L73.9801 23.1202L72.8001 22.8702L72.1601 22.8602L70.8701 22.9302L70.6101 22.9902L72.1301 22.8902L70.6001 23.0002L69.5201 23.2402L68.9701 23.4402L67.9001 23.8802L67.3901 24.1602L66.4101 24.7702L65.9901 25.1202L65.7501 25.3402L65.6701 25.4202L65.5201 25.5802L65.4901 25.6202L64.9301 26.0902L64.3301 26.7402L63.3801 27.8602L62.6901 28.7302L62.3301 29.2102L61.6001 30.2102L61.2301 30.7502L60.4701 31.8502L60.0901 32.4302L58.5901 34.7902L57.9001 35.9802L57.2101 37.1602L56.9001 37.7402L56.2801 38.8802L56.0101 39.4202L55.5001 40.4302L55.2001 41.0002L55.0701 41.2402L54.8201 41.6902L54.7101 41.8702L54.5101 42.2102L54.4101 42.3302L54.2401 42.5702L54.1701 42.6502L54.0201 42.8002L53.9601 42.8402L53.7101 42.9302L53.5901 42.8802L53.3601 42.7702L53.0901 42.6202L52.9101 42.5102L52.5001 42.2802L52.2601 42.1402L51.7501 41.8402L51.4601 41.6602L50.8501 41.3002L50.5101 41.0902L49.8201 40.6802L49.4601 40.4502L47.9301 39.5202L47.1201 39.0302L41.7801 35.7302L38.3301 33.6102L36.6901 32.6102L35.0701 31.6202L34.2801 31.1402L32.7301 30.1902L31.9801 29.7402L30.5101 28.8402L29.8101 28.4202L29.0701 27.9702L29.5501 28.2702L27.1401 26.7702L25.9701 26.0502L24.8201 25.3502L24.2701 25.0102L23.1901 24.3602L22.6901 24.0702L21.7301 23.4902L21.2901 23.2402L20.4701 22.7602L20.1201 22.5702L19.4801 22.2202L19.2401 22.0902L18.8101 21.8802L18.6801 21.8302L17.6901 21.5602L17.0401 21.4902L16.7101 21.5002L16.0701 21.5602L15.7501 21.6402L15.1301 21.8202L14.8301 21.9702L14.2401 22.2802L13.9701 22.4702L13.7901 22.6202L13.4601 22.8702L13.2201 23.1202L12.7301 23.6402L12.5201 23.9402L12.1101 24.5602L11.9401 24.9102L11.9101 24.9802L11.8901 25.0202L11.2901 26.5902L11.8701 25.0702L11.3601 26.2602L11.1401 27.0602L11.1101 27.4302L11.1001 28.1602L11.1601 28.5302L11.2301 28.7802L11.2501 28.9502L11.4101 29.4002L11.8101 30.3002L12.1201 30.7502L12.3901 31.0602L12.5201 31.1902L12.5801 31.2502L12.8201 31.4802L13.3601 31.9502L13.7101 32.2302L14.4701 32.8102L14.9501 33.1502L15.4601 33.5102L15.5901 33.6102L15.1001 33.2502L15.7601 33.7302L16.1201 33.9802L17.6301 35.0302L18.4701 35.5902L20.0701 36.6402L20.7701 37.0802L21.4601 37.5102L21.0001 37.2202L21.1501 37.3202L21.6801 37.6602L24.6901 39.6602L25.6001 40.2702L26.0201 40.5502L26.8301 41.0902L27.1801 41.3302L27.8601 41.8002L28.1501 42.0002L28.6801 42.3702L28.8801 42.5202L29.2401 42.7802L29.3501 42.8702L29.5201 43.0102L29.5301 43.0302L29.4901 43.1602L29.4001 43.2502L29.3201 43.3002L28.9301 43.4802L28.6601 43.5302L27.5901 43.9802L26.8301 44.4702L26.4701 44.7802L25.7601 45.4502L25.4601 45.8002L24.9201 46.5202L24.7501 46.8802L24.3701 48.0602L24.2301 48.9302V49.3802L24.2601 50.2902L24.3301 50.7302L24.5201 51.5802L24.6801 51.9602L24.9301 52.6002L25.0001 52.8802L24.9801 52.9602L24.9101 53.1102L24.8101 53.1602L24.5801 53.2402L24.4001 53.2902L23.3101 53.7602L22.6401 54.2402L22.3501 54.5502L21.7901 55.2002L21.5501 55.5702L21.1201 56.3402L20.9601 56.7502L20.7101 57.4702L20.9601 56.7502L20.6801 57.5702L20.6501 57.7102L20.6701 57.6302L20.6001 57.9902L20.4801 58.8302L20.5001 59.2402L20.5701 60.0302L20.6901 60.3902L20.9701 61.0902L21.2001 61.3802L21.9101 62.2702L20.7101 63.6002L19.9601 64.5102L19.6001 65.0702L19.5401 65.2102L19.5901 65.1002L19.5801 65.1202L19.5201 65.2602L19.4801 65.3502L19.4601 65.4002L19.4301 65.4602L19.4001 65.5502L19.2701 65.9202L19.2001 66.2402L19.2501 66.0002L19.2001 66.1502L19.1401 66.5502L19.1101 66.8502L19.1001 66.9102L19.0801 67.3102L19.0701 68.5802L19.0901 68.6702V68.8602L19.1801 69.3702L19.2701 69.6002L19.4801 70.0302L19.6601 70.2702L20.0701 70.7702L20.3601 71.0902L21.0501 71.8502L21.4801 72.2902L21.7001 72.4902L22.1401 72.8902L22.3801 73.0902L22.8801 73.4802L23.1701 73.6902L23.8001 74.1202L24.1701 74.3702L24.9701 74.8702L25.4501 75.1702L26.4801 75.7902L27.1001 76.1602L27.7401 76.5402L28.0901 76.7502L28.8101 77.1702L29.2001 77.4002L31.8601 78.9402L33.5001 79.8702L34.2701 80.2902L35.7501 81.0902L36.4401 81.4502L37.7801 82.1302L38.4001 82.4302L39.6001 82.9902L40.1401 83.2202L41.2101 83.6702L41.6901 83.8502L42.6301 84.1902L43.0601 84.3202L43.8901 84.5502L44.2601 84.6302L45.6401 84.8902L46.2901 84.9802L46.9201 85.0702L47.1901 85.0902L47.6901 85.1402H47.8601L48.3401 85.1502L48.6301 85.1102L48.8001 85.0202L48.9801 84.9202L49.0801 84.8402L49.3001 84.6702L49.4301 84.5602L49.7001 84.3002L49.8701 84.1302L50.2101 83.7702L50.4101 83.5402L50.8401 83.0602L51.0901 82.7702L51.6101 82.1502L51.9201 81.7802L52.5601 81.0102Z" fill="white"/>
<path d="M19.99 64.4798L20.15 64.2798L20.01 64.4498L19.99 64.4798Z" fill="white"/>
<path d="M19.05 67.3702V67.8702L19.07 68.3802L19.08 67.3102L19.1 66.9502L19.05 67.3702Z" fill="white"/>
<path d="M88.8399 70.4502L88.6599 69.8702L88.4799 69.6402L88.1899 69.3602L87.8799 69.0802L87.6499 68.9102L87.1699 68.5302L86.8699 68.3002L86.2199 67.8302L85.8399 67.5502L85.0399 66.9702L84.5899 66.6502L83.6399 65.9802L83.1099 65.6102L82.0199 64.8602L81.4299 64.4502L80.1999 63.6002L79.5399 63.1502L78.5199 62.4902L77.9099 62.1202L77.6299 61.9702L77.0799 61.6902L76.8299 61.5902L76.4599 61.4402L76.5399 61.4802L76.3399 61.4002L76.1099 61.3402L75.6699 61.2402L75.4599 61.2202L75.0599 61.2002L74.8699 61.2202L74.1199 61.3802L73.7499 61.5802L73.6399 61.6702L73.6299 61.6802L73.6199 61.6902L73.5799 61.7302L73.5199 61.7902L73.4399 61.8802L73.0599 62.3002L72.7899 62.6102L72.1999 63.3002L71.8399 63.7302L71.0699 64.6502L70.6299 65.1802L69.7099 66.3002L69.1999 66.9202L68.1599 68.2002L67.5999 68.9002L66.4499 70.3202L65.8499 71.0602L64.6299 72.5802L63.9999 73.3702L62.7699 74.9302L62.1799 75.6702L61.6399 76.3602L60.2599 78.1002L59.0299 79.6602L57.8199 81.2002L57.2499 81.9202L56.1399 83.3302L55.6399 83.9702L54.6899 85.2102L54.2799 85.7402L53.4999 86.7602L53.1899 87.1702L52.9099 87.5602L52.7799 87.7202L52.5499 88.0402L52.4599 88.1702L52.2999 88.4002L52.2399 88.4802L52.1499 88.6302L52.1299 88.6702L51.9199 89.2802L51.8799 89.6602L51.9099 89.8602L52.0099 90.2502L52.1199 90.4602L52.3899 90.8902L52.5999 91.1302L53.0699 91.6302L53.3899 91.9202L54.0899 92.5102L54.5399 92.8602L55.4899 93.5802L56.0699 94.0002L57.2999 94.8902L58.0299 95.4002L60.1999 96.9102L61.5199 97.8202L62.0699 98.2002L62.5999 98.5702L62.8299 98.7302L63.2699 99.0302L63.4499 99.1402L63.7799 99.3602L63.8899 99.4402L64.0899 99.5702L64.1399 99.6002L64.6399 99.8602L64.8799 99.9202L65.3599 100L65.6199 99.9402L65.8999 99.8702L66.0399 99.8002L66.3399 99.6502L66.5099 99.5402L66.8599 99.3002L67.0499 99.1402L67.4399 98.8002L67.6699 98.5802L68.1199 98.1402L68.3799 97.8702L68.9099 97.3002L69.2099 96.9602L69.8299 96.2702L70.1699 95.8602L70.8799 95.0302L71.2699 94.5602L72.0799 93.5702L72.5399 93.0202L73.4699 91.8702L73.9799 91.2402L75.0299 89.9302L75.6099 89.2002L76.7999 87.7102L77.4499 86.8902L79.3799 84.4702L80.6299 82.9002L81.2199 82.1602L82.3799 80.6902L82.9199 80.0102L83.9799 78.6702L84.4499 78.0702L85.3699 76.9202L85.7599 76.4102L86.4999 75.4602L86.7999 75.0802L86.8299 75.0402L86.9199 75.0102L87.9199 73.6402L87.9299 73.6202L88.5599 72.5202L88.7099 72.0802L88.8099 71.8002L88.8599 71.4502L88.8999 70.7602L88.8399 70.4502Z" fill="white"/>
<path d="M73.6 36.29L73.51 36.41L73.6 36.29Z" fill="white"/>
<path d="M72.63 37.77H72.62L72.53 37.94L72.63 37.77Z" fill="white"/>
</svg>
