<svg width="160" height="80" viewBox="0 0 160 80" fill="none" xmlns="http://www.w3.org/2000/svg">
<g clip-path="url(#clip0_8320_595)">
<path fill-rule="evenodd" clip-rule="evenodd" d="M52.25 0.342803L109.38 22.8528C110.8 23.3228 110.77 24.8428 110.77 24.8428C110.77 25.7528 110.15 26.3728 109.38 26.2128L52.25 18.2528C49.82 17.7728 47.79 16.0028 47.79 14.3328V1.8828C47.79 0.202803 49.82 -0.467197 52.25 0.342803Z" fill="white"/>
<path d="M52.13 19.0332L84.3 32.8432C86.78 33.9232 100.92 30.4632 100.92 28.3432V23.3432C100.92 21.2332 98.85 18.7232 96.32 17.7532L52.13 0.813175C50.14 0.053175 48.55 0.933175 48.55 2.78317V14.1432C48.55 15.9832 50.14 18.1732 52.13 19.0332Z" fill="url(#paint0_linear_8320_595)"/>
<path fill-rule="evenodd" clip-rule="evenodd" d="M52.13 19.0332L84.3 32.8432C86.78 33.9232 100.92 30.4632 100.92 28.3432V23.3432C100.92 21.2332 98.85 18.7232 96.32 17.7532L52.13 0.813175C50.14 0.053175 48.55 0.933175 48.55 2.78317V14.1432C48.55 15.9832 50.14 18.1732 52.13 19.0332Z" fill="#B91818"/>
<path fill-rule="evenodd" clip-rule="evenodd" d="M52.13 19.0332L84.3 32.8432C86.78 33.9232 100.92 30.4632 100.92 28.3432V23.3432C100.92 21.2332 98.85 18.7232 96.32 17.7532L52.13 0.813175C50.14 0.053175 48.55 0.933175 48.55 2.78317V14.1432C48.55 15.9832 50.14 18.1732 52.13 19.0332Z" fill="url(#paint1_linear_8320_595)"/>
<path fill-rule="evenodd" clip-rule="evenodd" d="M52.13 31.0725L84.3 17.2425C86.78 16.1625 100.92 19.6325 100.92 21.7525V26.7625C100.92 28.8825 98.85 31.3925 96.32 32.3625L52.13 49.3325C50.14 50.0925 48.55 49.2125 48.55 47.3625V35.9825C48.55 34.1325 50.14 31.9425 52.13 31.0825V31.0725Z" fill="#7B170F"/>
<path d="M52.13 31.0725L84.3 17.2425C86.78 16.1625 100.92 19.6325 100.92 21.7525V26.7625C100.92 28.8825 98.85 31.3925 96.32 32.3625L52.13 49.3325C50.14 50.0925 48.55 49.2125 48.55 47.3625V35.9825C48.55 34.1325 50.14 31.9425 52.13 31.0825V31.0725Z" fill="url(#paint2_linear_8320_595)"/>
<path d="M52.25 0.342803L109.38 22.8528C110.8 23.3228 110.77 24.8428 110.77 24.8428C110.77 25.7528 110.15 26.3728 109.38 26.2128L52.25 18.2528C49.82 17.7728 47.79 16.0028 47.79 14.3328V1.8828C47.79 0.202803 49.82 -0.467197 52.25 0.342803Z" fill="url(#paint3_linear_8320_595)"/>
<path d="M52.25 0.342803L109.38 22.8528C110.8 23.3228 110.77 24.8428 110.77 24.8428C110.77 25.7528 110.15 26.3728 109.38 26.2128L52.25 18.2528C49.82 17.7728 47.79 16.0028 47.79 14.3328V1.8828C47.79 0.202803 49.82 -0.467197 52.25 0.342803Z" fill="url(#paint4_linear_8320_595)"/>
<path d="M52.0901 49.7633L109.44 27.2533C110.86 26.7833 110.84 25.2633 110.84 25.2633C110.84 24.3533 110.22 23.7333 109.44 23.8933L52.0901 31.8533C49.6501 32.3333 47.6101 34.1033 47.6101 35.7733V48.2133C47.6101 49.8933 49.6501 50.5633 52.0901 49.7533V49.7633Z" fill="url(#paint5_linear_8320_595)"/>
<path d="M35.13 67.6934C35.05 67.6134 35 67.5034 35 67.3734V58.2034C35 58.0734 35.04 57.9634 35.13 57.8734C35.21 57.7834 35.32 57.7334 35.45 57.7334H36.34C36.47 57.7334 36.58 57.7834 36.67 57.8734C36.76 57.9634 36.81 58.0734 36.81 58.2034V59.0534C37.34 58.1734 38.24 57.7334 39.52 57.7334H40.28C40.41 57.7334 40.52 57.7734 40.6 57.8634C40.68 57.9534 40.73 58.0534 40.73 58.1834V58.9734C40.73 59.1034 40.69 59.2034 40.6 59.2834C40.52 59.3634 40.41 59.4034 40.28 59.4034H39.12C38.42 59.4034 37.87 59.6034 37.47 60.0134C37.07 60.4234 36.87 60.9734 36.87 61.6734V67.3734C36.87 67.5034 36.82 67.6134 36.73 67.6934C36.64 67.7734 36.53 67.8234 36.4 67.8234H35.45C35.32 67.8234 35.21 67.7834 35.13 67.6934Z" fill="white"/>
<path d="M43.0199 66.783C42.2199 65.963 41.7899 64.843 41.7099 63.423L41.6899 62.763L41.7099 62.123C41.7999 60.723 42.2399 59.613 43.0399 58.783C43.8299 57.953 44.8799 57.543 46.1899 57.543C47.6199 57.543 48.7399 58.003 49.5299 58.913C50.3199 59.823 50.7099 61.053 50.7099 62.603V62.933C50.7099 63.063 50.6699 63.173 50.5799 63.253C50.4999 63.333 50.3899 63.383 50.2599 63.383H43.5499V63.553C43.5899 64.393 43.8399 65.103 44.3199 65.693C44.7899 66.283 45.4199 66.573 46.1899 66.573C46.7799 66.573 47.2699 66.453 47.6499 66.213C48.0299 65.973 48.3099 65.723 48.4899 65.463C48.6099 65.303 48.6899 65.213 48.7499 65.183C48.8099 65.153 48.9099 65.133 49.0699 65.133H50.0199C50.1399 65.133 50.2299 65.163 50.3099 65.233C50.3899 65.293 50.4299 65.393 50.4299 65.503C50.4299 65.783 50.2499 66.133 49.8999 66.533C49.5399 66.933 49.0499 67.283 48.4099 67.573C47.7699 67.863 47.0399 68.013 46.2099 68.013C44.8799 68.013 43.8099 67.603 43.0199 66.783ZM48.8599 62.043V61.983C48.8599 61.093 48.6199 60.363 48.1299 59.803C47.6499 59.243 46.9999 58.963 46.1799 58.963C45.3599 58.963 44.7199 59.243 44.2499 59.803C43.7799 60.363 43.5399 61.093 43.5399 61.983V62.043H48.8499H48.8599Z" fill="white"/>
<path d="M54.0801 67.6332C53.5401 67.3732 53.1101 67.0232 52.7901 66.5732C52.4701 66.1232 52.3201 65.6332 52.3201 65.0932C52.3201 64.2432 52.6701 63.5432 53.3801 62.9932C54.0801 62.4432 55.0401 62.0832 56.2401 61.9132L59.1301 61.5032V60.9432C59.1301 59.6232 58.3701 58.9632 56.8601 58.9632C56.2901 58.9632 55.8301 59.0832 55.4601 59.3232C55.1001 59.5632 54.8301 59.8432 54.6501 60.1632C54.6101 60.2832 54.5601 60.3632 54.5101 60.4132C54.4501 60.4632 54.3701 60.4932 54.2701 60.4932H53.4401C53.3201 60.4932 53.2201 60.4532 53.1401 60.3632C53.0601 60.2832 53.0101 60.1832 53.0101 60.0632C53.0201 59.7532 53.1701 59.4032 53.4501 59.0032C53.7301 58.6132 54.1601 58.2632 54.7401 57.9732C55.3201 57.6832 56.0401 57.5332 56.8901 57.5332C58.3401 57.5332 59.3801 57.8732 60.0101 58.5532C60.6401 59.2332 60.9601 60.0732 60.9601 61.0832V67.3632C60.9601 67.4932 60.9201 67.6032 60.8301 67.6832C60.7501 67.7632 60.6401 67.8132 60.5101 67.8132H59.6201C59.4901 67.8132 59.3801 67.7732 59.3001 67.6832C59.2201 67.6032 59.1701 67.4932 59.1701 67.3632V66.5332C58.8901 66.9432 58.4701 67.2932 57.9301 67.5832C57.3901 67.8632 56.7001 68.0132 55.8601 68.0132C55.2201 68.0132 54.6401 67.8832 54.0901 67.6232L54.0801 67.6332ZM58.3201 65.7432C58.8601 65.1932 59.1201 64.4032 59.1201 63.3732V62.8332L56.8701 63.1632C55.9501 63.2932 55.2601 63.5132 54.8001 63.8132C54.3301 64.1132 54.1001 64.5032 54.1001 64.9632C54.1001 65.4832 54.3101 65.8732 54.7401 66.1532C55.1701 66.4332 55.6701 66.5732 56.2501 66.5732C57.0901 66.5732 57.7801 66.3032 58.3201 65.7532V65.7432Z" fill="white"/>
<path d="M64.38 66.7027C63.69 65.8227 63.33 64.7127 63.29 63.3627L63.27 62.7827L63.29 62.2027C63.33 60.8727 63.69 59.7627 64.38 58.8727C65.06 57.9827 66.08 57.5427 67.42 57.5427C68.76 57.5427 69.8 58.0127 70.56 58.9627V54.5027C70.56 54.3727 70.6 54.2627 70.69 54.1827C70.77 54.1027 70.88 54.0527 71.01 54.0527H71.94C72.07 54.0527 72.18 54.0927 72.26 54.1827C72.34 54.2627 72.39 54.3727 72.39 54.5027V67.3727C72.39 67.5027 72.35 67.6127 72.26 67.6927C72.18 67.7727 72.07 67.8227 71.94 67.8227H71.07C70.94 67.8227 70.83 67.7827 70.75 67.6927C70.67 67.6127 70.62 67.5027 70.62 67.3727V66.5527C69.87 67.5227 68.8 68.0127 67.42 68.0127C66.04 68.0127 65.06 67.5727 64.37 66.6927L64.38 66.7027ZM69.83 65.5627C70.28 64.9727 70.52 64.2727 70.56 63.4627C70.57 63.3227 70.58 63.0727 70.58 62.7227C70.58 62.3727 70.58 62.1127 70.56 61.9627C70.53 61.2027 70.29 60.5327 69.82 59.9627C69.35 59.3927 68.69 59.1127 67.82 59.1127C66.9 59.1127 66.23 59.3927 65.81 59.9627C65.39 60.5327 65.16 61.2827 65.12 62.2127L65.1 62.7727C65.1 65.2127 66 66.4427 67.81 66.4427C68.7 66.4427 69.37 66.1427 69.82 65.5627H69.83Z" fill="white"/>
<path d="M76.7699 71.3934C76.6899 71.3134 76.6499 71.2234 76.6499 71.1234C76.6499 71.0334 76.6799 70.9134 76.7499 70.7734L78.2399 67.2234L74.5399 58.4734C74.4799 58.3034 74.4399 58.1934 74.4399 58.1434C74.4399 58.0234 74.4799 57.9334 74.5599 57.8534C74.6399 57.7734 74.7299 57.7334 74.8499 57.7334H75.7999C76.0099 57.7334 76.1599 57.8434 76.2699 58.0634L79.2199 65.1234L82.2399 58.0634C82.3399 57.8434 82.4999 57.7334 82.7199 57.7334H83.6299C83.7499 57.7334 83.8399 57.7734 83.9199 57.8534C83.9999 57.9334 84.0399 58.0234 84.0399 58.1234C84.0399 58.1634 84.0099 58.2834 83.9399 58.4734L78.4299 71.1734C78.3299 71.3934 78.1699 71.5034 77.9499 71.5034H77.0399C76.9399 71.5034 76.8499 71.4634 76.7699 71.3934Z" fill="white"/>
<path d="M85.9901 71.373C85.8901 71.283 85.8501 71.163 85.8501 71.023V58.223C85.8501 58.083 85.9001 57.963 85.9901 57.873C86.0901 57.783 86.2001 57.733 86.3301 57.733H88.5201C88.6601 57.733 88.7801 57.783 88.8701 57.873C88.9601 57.963 89.0101 58.083 89.0101 58.223V58.923C89.7101 58.003 90.7101 57.543 92.0201 57.543C93.3301 57.543 94.2801 57.943 94.9901 58.723C95.7001 59.513 96.0901 60.623 96.1501 62.063C96.1601 62.233 96.1701 62.473 96.1701 62.783C96.1701 63.093 96.1701 63.333 96.1501 63.503C96.1001 64.903 95.7101 66.003 94.9901 66.813C94.2701 67.623 93.2801 68.023 92.0201 68.023C90.7601 68.023 89.8101 67.593 89.1901 66.723V71.023C89.1901 71.163 89.1401 71.283 89.0501 71.373C88.9601 71.463 88.8401 71.513 88.7001 71.513H86.3301C86.2001 71.513 86.0901 71.473 85.9901 71.373ZM92.2801 64.873C92.5401 64.513 92.7001 64.013 92.7401 63.383C92.7701 63.123 92.7801 62.923 92.7801 62.783C92.7801 62.643 92.7701 62.443 92.7401 62.183C92.7001 61.553 92.5501 61.053 92.2801 60.693C92.0101 60.333 91.5801 60.153 90.9701 60.153C90.3601 60.153 89.9401 60.333 89.6601 60.703C89.3801 61.073 89.2201 61.543 89.1901 62.123L89.1701 62.843L89.1901 63.583C89.2201 64.113 89.3801 64.553 89.6701 64.903C89.9701 65.253 90.4001 65.423 90.9701 65.423C91.5801 65.423 92.0101 65.243 92.2801 64.883V64.873Z" fill="#E73635"/>
<path d="M98.2301 67.673C98.1301 67.573 98.0801 67.463 98.0801 67.333V54.533C98.0801 54.393 98.1301 54.273 98.2301 54.183C98.3301 54.093 98.4401 54.043 98.5701 54.043H100.86C101 54.043 101.12 54.093 101.21 54.183C101.3 54.273 101.35 54.393 101.35 54.533V67.333C101.35 67.473 101.3 67.593 101.21 67.683C101.12 67.773 101 67.823 100.86 67.823H98.5701C98.4401 67.823 98.3301 67.773 98.2301 67.673Z" fill="#E73635"/>
<path d="M104.78 67.6227C104.22 67.3627 103.78 66.9927 103.46 66.5327C103.14 66.0727 102.99 65.5627 102.99 65.0127C102.99 64.1227 103.36 63.4027 104.09 62.8627C104.82 62.3227 105.83 61.9427 107.11 61.7427L109.53 61.3727V61.1027C109.53 60.6127 109.43 60.2527 109.22 60.0127C109.01 59.7827 108.66 59.6627 108.17 59.6627C107.87 59.6627 107.63 59.7127 107.43 59.8227C107.24 59.9227 107.04 60.0727 106.83 60.2527C106.65 60.4127 106.51 60.5127 106.42 60.5627C106.38 60.6627 106.31 60.7227 106.21 60.7227H104.1C103.97 60.7227 103.86 60.6827 103.78 60.5927C103.7 60.5127 103.66 60.4127 103.67 60.2927C103.68 59.9427 103.85 59.5527 104.18 59.1327C104.51 58.7027 105.01 58.3427 105.69 58.0227C106.37 57.7127 107.2 57.5527 108.2 57.5527C109.79 57.5527 110.97 57.9027 111.73 58.6127C112.49 59.3127 112.87 60.2627 112.87 61.4527V67.3427C112.87 67.4727 112.82 67.5827 112.73 67.6827C112.64 67.7827 112.52 67.8327 112.38 67.8327H110.13C110 67.8327 109.89 67.7827 109.79 67.6827C109.69 67.5827 109.64 67.4727 109.64 67.3427V66.6627C109.36 67.0627 108.96 67.3927 108.45 67.6427C107.94 67.8927 107.33 68.0227 106.64 68.0227C105.95 68.0227 105.33 67.8927 104.77 67.6227H104.78ZM109.01 65.2227C109.38 64.8327 109.56 64.2627 109.56 63.5127V63.2427L107.91 63.5327C106.75 63.7427 106.16 64.1427 106.16 64.7527C106.16 65.0727 106.3 65.3327 106.57 65.5227C106.84 65.7127 107.17 65.8027 107.56 65.8027C108.15 65.8027 108.64 65.6127 109 65.2227H109.01Z" fill="#E73635"/>
<path d="M116.33 71.3932C116.25 71.3132 116.21 71.2232 116.21 71.1032C116.21 71.0132 116.23 70.9332 116.27 70.8532L117.78 67.2032L114.06 58.4032C114.02 58.3032 114 58.2232 114 58.1732C114.03 58.0532 114.08 57.9532 114.16 57.8732C114.24 57.7932 114.33 57.7432 114.45 57.7432H116.66C116.93 57.7432 117.12 57.8832 117.22 58.1532L119.43 63.7932L121.7 58.1532C121.83 57.8832 122.02 57.7432 122.28 57.7432H124.45C124.57 57.7432 124.67 57.7832 124.75 57.8732C124.83 57.9532 124.88 58.0532 124.88 58.1532C124.88 58.2032 124.86 58.2832 124.82 58.4032L119.33 71.1032C119.23 71.3732 119.03 71.5132 118.75 71.5132H116.62C116.5 71.5132 116.41 71.4732 116.33 71.3932Z" fill="#E73635"/>
<path d="M57.94 79.5025C57.49 79.1025 57.25 78.5625 57.22 77.8725C57.22 77.7025 57.22 77.4425 57.22 77.0925C57.22 76.7425 57.22 76.4725 57.22 76.3125C57.25 75.6325 57.49 75.0925 57.94 74.6925C58.39 74.2925 59.02 74.1025 59.82 74.1025C60.36 74.1025 60.83 74.1925 61.21 74.3625C61.59 74.5425 61.88 74.7525 62.07 75.0025C62.26 75.2525 62.36 75.4825 62.38 75.7025V75.7225C62.38 75.7225 62.36 75.8025 62.32 75.8325C62.28 75.8625 62.24 75.8725 62.18 75.8725H61.63C61.57 75.8725 61.52 75.8725 61.5 75.8425C61.47 75.8225 61.45 75.7825 61.42 75.7225C61.33 75.4725 61.15 75.2625 60.89 75.0825C60.63 74.9025 60.27 74.8125 59.83 74.8125C59.32 74.8125 58.92 74.9325 58.62 75.1925C58.33 75.4425 58.17 75.8325 58.15 76.3625C58.15 76.5225 58.15 76.7725 58.15 77.1025C58.15 77.4325 58.15 77.6825 58.15 77.8425C58.17 78.3725 58.33 78.7725 58.62 79.0225C58.91 79.2725 59.31 79.4025 59.83 79.4025C60.35 79.4025 60.76 79.2725 61.07 79.0225C61.38 78.7625 61.53 78.3825 61.53 77.8725V77.5225H60.14C60.08 77.5225 60.03 77.5025 59.99 77.4725C59.95 77.4325 59.93 77.3825 59.93 77.3225V77.0525C59.93 76.9925 59.95 76.9525 59.99 76.9125C60.03 76.8725 60.08 76.8525 60.14 76.8525H62.24C62.3 76.8525 62.35 76.8725 62.39 76.9025C62.43 76.9425 62.45 76.9925 62.45 77.0525V77.8525C62.45 78.3125 62.34 78.7025 62.13 79.0425C61.92 79.3825 61.62 79.6425 61.22 79.8325C60.82 80.0225 60.36 80.1125 59.82 80.1125C59.01 80.1125 58.38 79.9125 57.93 79.5125L57.94 79.5025Z" fill="white"/>
<path d="M64.9399 79.9726C64.9399 79.9726 64.8799 79.9026 64.8799 79.8526C64.8799 79.8026 64.8799 79.7726 64.8799 79.7626L67.1799 74.3626C67.2299 74.2426 67.3299 74.1826 67.4799 74.1826H68.1099C68.2599 74.1826 68.3599 74.2426 68.4099 74.3626L70.6999 79.7626L70.7199 79.8526C70.7199 79.8526 70.6999 79.9326 70.6599 79.9726C70.6199 80.0026 70.5799 80.0226 70.5299 80.0226H70.0599C69.9899 80.0226 69.9399 80.0026 69.8999 79.9726C69.8599 79.9426 69.8399 79.9126 69.8299 79.8726L69.3199 78.6826H66.2799L65.7699 79.8726C65.7699 79.8726 65.7299 79.9326 65.6899 79.9726C65.6499 80.0026 65.5999 80.0226 65.5399 80.0226H65.0699C65.0699 80.0226 64.9799 80.0026 64.9399 79.9726ZM69.0599 77.9726L67.8099 75.0126L66.5599 77.9726H69.0599Z" fill="white"/>
<path d="M73.6301 79.9629C73.6301 79.9629 73.5701 79.8829 73.5701 79.8229V74.3729C73.5701 74.3129 73.5901 74.2629 73.6301 74.2229C73.6701 74.1829 73.7201 74.1729 73.7801 74.1729H74.2401C74.3401 74.1729 74.4201 74.2129 74.4801 74.3029L76.4401 77.6729L78.4201 74.3029C78.4201 74.3029 78.4601 74.2429 78.5001 74.2129C78.5401 74.1829 78.5901 74.1729 78.6501 74.1729H79.1001C79.1701 74.1729 79.2201 74.1929 79.2601 74.2229C79.3001 74.2629 79.3201 74.3129 79.3201 74.3729V79.8229C79.3201 79.8729 79.3001 79.9229 79.2601 79.9629C79.2201 80.0029 79.1601 80.0129 79.1001 80.0129H78.6501C78.5901 80.0129 78.5401 79.9929 78.5001 79.9629C78.4601 79.9229 78.4401 79.8829 78.4401 79.8229V75.7129L76.8901 78.4329C76.8301 78.5529 76.7301 78.6129 76.5901 78.6129H76.3001C76.1601 78.6129 76.0601 78.5529 76.0001 78.4329L74.4401 75.7129V79.8229C74.4401 79.8729 74.4201 79.9229 74.3801 79.9629C74.3401 80.0029 74.2901 80.0129 74.2301 80.0129H73.7801C73.7201 80.0129 73.6701 79.9929 73.6301 79.9629Z" fill="white"/>
<path d="M82.85 79.9629C82.85 79.9629 82.79 79.8829 82.79 79.8229V74.3629C82.79 74.3029 82.81 74.2629 82.85 74.2229C82.89 74.1829 82.94 74.1729 83 74.1729H83.49C83.55 74.1729 83.6 74.1929 83.64 74.2229C83.68 74.2629 83.7 74.3029 83.7 74.3629V79.8229C83.7 79.8729 83.68 79.9229 83.64 79.9629C83.6 80.0029 83.55 80.0129 83.49 80.0129H83C82.94 80.0129 82.89 79.9929 82.85 79.9629Z" fill="white"/>
<path d="M87.2399 79.9629C87.2399 79.9629 87.1799 79.8829 87.1799 79.8229V74.3729C87.1799 74.3129 87.1999 74.2629 87.2399 74.2229C87.2799 74.1829 87.3299 74.1729 87.3899 74.1729H87.8199C87.9299 74.1729 88.0099 74.2129 88.0499 74.2929L91.1299 78.5529V74.3829C91.1299 74.3229 91.1499 74.2729 91.1899 74.2329C91.2299 74.1929 91.2799 74.1829 91.3399 74.1829H91.7799C91.8499 74.1829 91.8999 74.2029 91.9399 74.2329C91.9799 74.2729 91.9999 74.3229 91.9999 74.3829V79.8229C91.9999 79.8729 91.9799 79.9229 91.9399 79.9629C91.8999 80.0029 91.8499 80.0229 91.7899 80.0229H91.3399C91.2499 80.0229 91.1699 79.9829 91.1199 79.9029L88.0499 75.6929V79.8329C88.0499 79.8829 88.0299 79.9329 87.9899 79.9729C87.9499 80.0129 87.8899 80.0229 87.8299 80.0229H87.3799C87.3199 80.0229 87.2699 80.0029 87.2299 79.9729L87.2399 79.9629Z" fill="white"/>
<path d="M95.95 79.5025C95.5 79.1025 95.26 78.5625 95.23 77.8725C95.23 77.7025 95.23 77.4425 95.23 77.0925C95.23 76.7425 95.23 76.4725 95.23 76.3125C95.26 75.6325 95.5 75.0925 95.95 74.6925C96.4 74.2925 97.03 74.1025 97.83 74.1025C98.37 74.1025 98.84 74.1925 99.22 74.3625C99.6 74.5425 99.89 74.7525 100.08 75.0025C100.27 75.2525 100.37 75.4825 100.39 75.7025V75.7225C100.39 75.7225 100.37 75.8025 100.33 75.8325C100.29 75.8625 100.25 75.8725 100.19 75.8725H99.64C99.58 75.8725 99.53 75.8725 99.51 75.8425C99.48 75.8225 99.46 75.7825 99.43 75.7225C99.34 75.4725 99.16 75.2625 98.9 75.0825C98.64 74.9025 98.28 74.8125 97.84 74.8125C97.33 74.8125 96.93 74.9325 96.63 75.1925C96.34 75.4425 96.18 75.8325 96.16 76.3625C96.16 76.5225 96.16 76.7725 96.16 77.1025C96.16 77.4325 96.16 77.6825 96.16 77.8425C96.18 78.3725 96.34 78.7725 96.63 79.0225C96.92 79.2725 97.32 79.4025 97.84 79.4025C98.36 79.4025 98.77 79.2725 99.08 79.0225C99.39 78.7625 99.54 78.3825 99.54 77.8725V77.5225H98.15C98.09 77.5225 98.04 77.5025 98 77.4725C97.96 77.4325 97.94 77.3825 97.94 77.3225V77.0525C97.94 76.9925 97.96 76.9525 98 76.9125C98.04 76.8725 98.09 76.8525 98.15 76.8525H100.25C100.31 76.8525 100.36 76.8725 100.4 76.9025C100.44 76.9425 100.46 76.9925 100.46 77.0525V77.8525C100.46 78.3125 100.35 78.7025 100.14 79.0425C99.93 79.3825 99.63 79.6425 99.23 79.8325C98.83 80.0225 98.37 80.1125 97.83 80.1125C97.02 80.1125 96.39 79.9125 95.94 79.5125L95.95 79.5025Z" fill="white"/>
</g>
<defs>
<linearGradient id="paint0_linear_8320_595" x1="84.48" y1="-0.306824" x2="63.65" y2="32.9932" gradientUnits="userSpaceOnUse">
<stop stop-color="#520E1E" stop-opacity="0.25"/>
<stop offset="1" stop-color="#AB3517" stop-opacity="0"/>
</linearGradient>
<linearGradient id="paint1_linear_8320_595" x1="78.37" y1="13.3332" x2="31.5801" y2="36.8532" gradientUnits="userSpaceOnUse">
<stop offset="0.21" stop-color="#520E1E" stop-opacity="0.5"/>
<stop offset="0.25" stop-color="#631219" stop-opacity="0.43"/>
<stop offset="0.43" stop-color="#982A15" stop-opacity="0.14"/>
<stop offset="0.51" stop-color="#AB3517" stop-opacity="0"/>
</linearGradient>
<linearGradient id="paint2_linear_8320_595" x1="76.38" y1="16.4625" x2="72.16" y2="54.6625" gradientUnits="userSpaceOnUse">
<stop offset="0.15" stop-color="#1E0C19" stop-opacity="0.5"/>
<stop offset="0.3" stop-color="#621810" stop-opacity="0.3"/>
<stop offset="0.45" stop-color="#982D15" stop-opacity="0.1"/>
<stop offset="0.52" stop-color="#AB3517" stop-opacity="0"/>
</linearGradient>
<linearGradient id="paint3_linear_8320_595" x1="75.42" y1="29.3728" x2="82.31" y2="0.742802" gradientUnits="userSpaceOnUse">
<stop stop-color="#E73C30"/>
<stop offset="1" stop-color="#EA5A73"/>
</linearGradient>
<linearGradient id="paint4_linear_8320_595" x1="80.38" y1="29.2728" x2="77.72" y2="5.8728" gradientUnits="userSpaceOnUse">
<stop stop-color="#801719"/>
<stop offset="0.4" stop-color="#C02118" stop-opacity="0"/>
</linearGradient>
<linearGradient id="paint5_linear_8320_595" x1="74.6901" y1="52.9033" x2="80.3601" y2="24.8833" gradientUnits="userSpaceOnUse">
<stop stop-color="#EB5E4C"/>
<stop offset="1" stop-color="#EE7090"/>
</linearGradient>
<clipPath id="clip0_8320_595">
<rect width="160" height="80" fill="white"/>
</clipPath>
</defs>
</svg>
