<svg width="160" height="80" viewBox="0 0 160 80" fill="none" xmlns="http://www.w3.org/2000/svg">
<path fill-rule="evenodd" clip-rule="evenodd" d="M141.12 34.8798C141.2 34.9098 141.27 34.9498 141.34 34.9898C141.72 35.1898 142.08 35.4298 142.39 35.7198C142.89 36.1598 143.28 36.7098 143.55 37.3198C143.77 37.8298 143.89 38.3798 143.91 38.9398V38.9998L153.5 28.0198L153.63 27.8698L159.59 21.0398C160.03 20.5398 160.09 20.0898 159.89 19.7098C159.88 19.7098 159.87 19.7098 159.86 19.6898C159.86 19.6898 159.85 19.6698 159.84 19.6598C159.82 19.6198 159.8 19.5798 159.77 19.5398C159.71 19.4698 159.65 19.4098 159.58 19.3498C159.46 19.2698 159.31 19.2298 159.17 19.2398H153.33C152.84 19.2398 152.35 19.2798 151.87 19.3598C150.27 19.9398 148.84 20.9098 147.7 22.1798C145.31 24.9198 143.23 29.3898 141.78 33.0598L141.11 34.8798H141.12ZM146.22 25.8798C145.94 26.5498 145.7 27.2398 145.53 27.9398C145.41 28.4198 145.32 28.8998 145.23 29.3798C145.19 29.6098 145.16 29.8498 145.12 30.0798C145.04 30.7798 144.96 31.4798 144.93 32.1998C144.9 32.7198 144.87 33.2198 144.83 33.7198C144.82 33.9198 144.8 34.1198 144.79 34.3198C144.75 34.8098 144.69 35.3098 144.62 35.7998C144.61 35.8798 144.6 35.9598 144.58 36.0398C144.58 36.0798 144.57 36.1198 144.56 36.1598C144.45 36.9298 144.28 37.6998 144.07 38.4598C144.49 37.7498 144.82 36.9898 145.06 36.1898L147.92 32.2998L149.43 30.2598L145.39 34.9198C145.42 34.7498 145.45 34.5898 145.48 34.4198C145.54 34.1198 145.58 33.8098 145.62 33.5098L149.4 28.3298L145.75 32.4898C145.75 32.4898 145.75 32.4398 145.76 32.4098C145.76 32.4098 145.77 32.3298 145.77 32.2798L145.88 31.1598L145.9 31.1798L148.58 27.4298L149.15 26.6298L148.46 27.4198L146.01 30.1598C146.07 29.7198 146.13 29.2698 146.21 28.8298L149.11 24.7298L146.43 27.6898C146.55 27.1598 146.69 26.6298 146.85 26.1098C147.3 24.7798 147.84 23.4798 148.47 22.2198C147.53 23.3098 146.76 24.5298 146.19 25.8498L146.22 25.8798Z" fill="white"/>
<path d="M53.42 27.28C53.14 27.28 52.93 27.19 52.78 27.01C52.63 26.81 52.58 26.57 52.63 26.29L53.39 22.77C53.44 22.49 53.58 22.27 53.81 22.09C54.06 21.89 54.31 21.79 54.57 21.79H59.29C59.57 21.79 59.78 21.89 59.93 22.09C60.08 22.27 60.13 22.49 60.08 22.77L59.29 26.29C59.26 26.57 59.14 26.81 58.91 27.01C58.68 27.19 58.43 27.28 58.15 27.28H53.43H53.42Z" fill="white"/>
<path d="M48.66 49.6898C48.38 49.6898 48.17 49.5998 48.02 49.4198C47.89 49.2198 47.86 48.9898 47.91 48.7398L51.65 30.9498C51.7 30.6998 51.84 30.4798 52.07 30.3098C52.3 30.1098 52.55 30.0098 52.83 30.0098H57.55C57.83 30.0098 58.03 30.0998 58.15 30.2698C58.3 30.4498 58.35 30.6698 58.3 30.9498L54.52 48.7398C54.47 49.0198 54.33 49.2398 54.1 49.4198C53.9 49.5998 53.66 49.6898 53.38 49.6898H48.66Z" fill="white"/>
<path fill-rule="evenodd" clip-rule="evenodd" d="M0.19 49.5002C0.32 49.6302 0.49 49.6902 0.72 49.6902H5.89C6.49 49.6902 6.97 49.4102 7.33 48.8602L9.52 45.1902H19.38L19.98 48.7902C20.08 49.4002 20.47 49.7002 21.15 49.7002H25.95C26.23 49.7002 26.45 49.6002 26.63 49.4002C26.81 49.2002 26.88 48.9202 26.86 48.5702L23.2 24.3002C23.1 23.5702 22.67 23.2002 21.92 23.2002H15.8C15.07 23.2002 14.49 23.5702 14.06 24.3002L0.11 48.5602C0.03 48.7102 0 48.8502 0 48.9802C0 49.1802 0.06 49.3602 0.19 49.5102V49.5002ZM19 39.5102H12.28L17.68 29.8602L19 39.5102Z" fill="white"/>
<path d="M31.86 49.46C32.01 49.61 32.26 49.69 32.62 49.69H36.93C37.28 49.69 37.56 49.61 37.76 49.46C37.99 49.28 38.2 49.04 38.4 48.74L49.24 31.17C49.37 30.97 49.43 30.79 49.43 30.64C49.43 30.44 49.37 30.29 49.24 30.19C49.11 30.06 48.94 30 48.71 30H43.88C43.35 30 42.94 30.26 42.63 30.79L36.06 42.11L34.36 30.87C34.28 30.59 34.17 30.38 34.02 30.23C33.89 30.08 33.67 30 33.34 30H29.11C28.73 30 28.46 30.1 28.28 30.3C28.13 30.5 28.08 30.77 28.13 31.09L31.57 48.73C31.65 49.03 31.75 49.27 31.87 49.45L31.86 49.46Z" fill="white"/>
<path fill-rule="evenodd" clip-rule="evenodd" d="M60.51 48.3701C61.67 49.5101 63.3 50.0701 65.42 50.0701C66.75 50.0701 67.86 49.8701 68.74 49.4601C69.62 49.0301 70.5 48.4001 71.38 47.5701L71.12 48.7401C71.07 48.9901 71.12 49.2201 71.27 49.4201C71.42 49.6001 71.64 49.6901 71.91 49.6901H76.4C76.65 49.6901 76.89 49.6001 77.12 49.4201C77.35 49.2401 77.49 49.0201 77.54 48.7401L81.32 30.9501C81.37 30.7001 81.32 30.4801 81.17 30.3101C81.02 30.1101 80.81 30.0101 80.53 30.0101H76.07C75.79 30.0101 75.54 30.1001 75.31 30.2701C75.11 30.4501 74.98 30.6701 74.93 30.9501L74.7 31.9001C74.17 31.1701 73.5 30.6101 72.7 30.2301C71.89 29.8301 70.79 29.6201 69.38 29.6201C66.84 29.6201 64.75 30.4001 63.11 31.9701C61.47 33.5101 60.29 35.6801 59.56 38.4801L58.99 41.1701C58.86 41.8301 58.8 42.5801 58.8 43.4401C58.8 45.5601 59.37 47.2001 60.5 48.3601L60.51 48.3701ZM70.9 43.7901C70.22 44.4701 69.33 44.8101 68.22 44.8101C67.36 44.8101 66.76 44.6001 66.41 44.1701C66.06 43.7401 65.88 43.1201 65.88 42.3201C65.88 41.9201 65.92 41.4901 65.99 41.0301C66.07 40.3201 66.23 39.5401 66.48 38.6801C66.83 37.4901 67.32 36.5701 67.95 35.9201C68.58 35.2401 69.44 34.9001 70.52 34.9001C71.4 34.9001 72.04 35.1301 72.45 35.5801C72.85 36.0301 73.05 36.6501 73.05 37.4401C73.05 37.6201 73.02 37.9101 72.97 38.3101C72.84 39.1401 72.64 40.0901 72.37 41.1501C72.09 42.2101 71.6 43.0901 70.9 43.8001V43.7901Z" fill="white"/>
<path d="M92.23 49.6901C87.52 49.6901 85.17 47.9201 85.17 44.3901C85.17 43.6801 85.26 42.9401 85.43 42.1601L86.9 35.1601H83.95C83.67 35.1601 83.46 35.0701 83.31 34.9001C83.16 34.7001 83.12 34.4701 83.2 34.2201L83.84 30.9601C83.89 30.7101 84.03 30.4901 84.26 30.3201C84.49 30.1201 84.74 30.0201 85.02 30.0201H88L89.32 23.7701C89.37 23.4901 89.51 23.2701 89.74 23.0901C89.97 22.9101 90.21 22.8301 90.46 22.8301H95.11C95.39 22.8301 95.59 22.9301 95.71 23.1301C95.86 23.3101 95.91 23.5201 95.86 23.7701L94.54 30.0201H99.26C99.54 30.0201 99.74 30.1101 99.86 30.2801C100.01 30.4601 100.06 30.6801 100.01 30.9601L99.33 34.2201C99.28 34.5001 99.14 34.7201 98.91 34.9001C98.68 35.0801 98.44 35.1601 98.19 35.1601H93.43L92.07 41.6001C91.97 42.0301 91.92 42.4601 91.92 42.8901C91.92 43.3701 92.03 43.7201 92.26 43.9501C92.51 44.1801 92.93 44.2901 93.51 44.2901H96.57C96.85 44.2901 97.05 44.3901 97.17 44.5901C97.32 44.7701 97.37 44.9901 97.32 45.2701L96.56 48.7501C96.51 49.0301 96.37 49.2501 96.14 49.4301C95.91 49.6101 95.67 49.7001 95.42 49.7001H92.21L92.23 49.6901Z" fill="white"/>
<path d="M99.73 49.4295C99.88 49.6095 100.09 49.6995 100.37 49.6995H105.36C105.64 49.6995 105.89 49.6095 106.12 49.4295C106.35 49.2495 106.49 49.0295 106.54 48.7495L108.58 39.2095C108.78 38.1995 109.21 37.4195 109.86 36.8595C110.51 36.2995 111.35 36.0295 112.35 36.0295H116.16C116.44 36.0295 116.69 35.9395 116.92 35.7695C117.15 35.5695 117.27 35.3395 117.3 35.0895L118.17 30.9595C118.22 30.6795 118.17 30.4595 118.02 30.2795C117.89 30.0995 117.71 30.0195 117.45 30.0195H115.26C113.95 30.0195 112.84 30.2295 111.94 30.6595C111.03 31.0595 110.25 31.6595 109.6 32.4395L109.9 30.9995C109.95 30.7195 109.9 30.4995 109.75 30.3195C109.62 30.1195 109.42 30.0195 109.15 30.0195H104.54C104.26 30.0195 104.01 30.1195 103.78 30.3195C103.55 30.4995 103.41 30.7195 103.36 30.9995L99.62 48.7495C99.57 48.9995 99.61 49.2295 99.73 49.4295Z" fill="white"/>
<path d="M122.61 27.28C122.33 27.28 122.12 27.19 121.97 27.01C121.82 26.81 121.77 26.57 121.82 26.29L122.58 22.77C122.63 22.49 122.77 22.27 123 22.09C123.25 21.89 123.5 21.79 123.76 21.79H128.48C128.76 21.79 128.97 21.89 129.12 22.09C129.27 22.27 129.32 22.49 129.27 22.77L128.48 26.29C128.45 26.57 128.33 26.81 128.1 27.01C127.87 27.19 127.62 27.28 127.34 27.28H122.62H122.61Z" fill="white"/>
<path d="M117.86 49.6898C117.58 49.6898 117.37 49.5998 117.22 49.4198C117.09 49.2198 117.06 48.9898 117.11 48.7398L120.85 30.9498C120.9 30.6998 121.04 30.4798 121.27 30.3098C121.5 30.1098 121.75 30.0098 122.03 30.0098H126.75C127.03 30.0098 127.23 30.0998 127.35 30.2698C127.5 30.4498 127.55 30.6698 127.5 30.9498L123.72 48.7398C123.67 49.0198 123.53 49.2398 123.3 49.4198C123.1 49.5998 122.86 49.6898 122.58 49.6898H117.86Z" fill="white"/>
<path fill-rule="evenodd" clip-rule="evenodd" d="M130.69 31.36L134.36 38.74C134.3 39.03 134.27 39.33 134.27 39.64C134.27 42.11 136.26 44.1 138.72 44.1C141.18 44.1 143.17 42.1 143.17 39.64C143.17 37.5 141.67 35.71 139.66 35.28L137.29 30.72C137.09 30.27 136.75 30.04 136.27 30.04H131.59C131.31 30.04 131.07 30.15 130.87 30.38C130.69 30.58 130.61 30.81 130.61 31.06C130.61 31.11 130.64 31.21 130.69 31.36ZM138.72 41.34C139.66 41.34 140.42 40.58 140.42 39.64C140.42 38.7 139.66 37.94 138.72 37.94C137.78 37.94 137.02 38.7 137.02 39.64C137.02 40.58 137.78 41.34 138.72 41.34Z" fill="white"/>
<path fill-rule="evenodd" clip-rule="evenodd" d="M136.23 44.3997C136.3 44.4397 136.37 44.4696 136.45 44.5096L135.78 46.3297C134.33 50.0097 132.25 54.4796 129.86 57.2096C128.72 58.4796 127.29 59.4496 125.69 60.0296C125.21 60.1096 124.72 60.1497 124.23 60.1497H118.39C118.24 60.1497 118.1 60.1196 117.98 60.0396C117.91 59.9797 117.85 59.9196 117.79 59.8496C117.76 59.8096 117.74 59.7696 117.72 59.7296C117.72 59.7196 117.72 59.7097 117.7 59.6996C117.7 59.6996 117.68 59.6896 117.67 59.6796C117.47 59.2997 117.53 58.8496 117.97 58.3496L123.93 51.5196L124.06 51.3696L133.65 40.3896V40.4496C133.67 41.0096 133.79 41.5596 134.01 42.0696C134.27 42.6796 134.67 43.2296 135.17 43.6696C135.49 43.9596 135.84 44.2097 136.22 44.3997H136.23ZM132.04 51.4496C131.86 52.1496 131.63 52.8396 131.35 53.5096C130.78 54.8296 130.01 56.0596 129.07 57.1396C129.7 55.8796 130.24 54.5796 130.69 53.2496C130.86 52.7296 130.99 52.2096 131.11 51.6696L128.43 54.6297L131.33 50.5296C131.41 50.0896 131.47 49.6496 131.53 49.1996L129.08 51.9396L128.39 52.7296L128.96 51.9296L131.64 48.1796L131.66 48.1996L131.77 47.0797C131.77 47.0797 131.77 46.9896 131.78 46.9496C131.78 46.9496 131.78 46.8996 131.79 46.8696L128.14 51.0296L131.92 45.8496C131.96 45.5496 132 45.2396 132.06 44.9396C132.09 44.7696 132.12 44.6096 132.15 44.4396L128.11 49.0996L129.62 47.0597L132.48 43.1696C132.72 42.3796 133.05 41.6197 133.47 40.8997C133.26 41.6497 133.1 42.4196 132.98 43.1996C132.98 43.2396 132.97 43.2796 132.96 43.3196C132.95 43.3996 132.93 43.4797 132.92 43.5597C132.85 44.0497 132.79 44.5396 132.75 45.0396C132.74 45.2396 132.72 45.4396 132.71 45.6396C132.67 46.1396 132.64 46.6496 132.61 47.1596C132.57 47.8796 132.5 48.5796 132.42 49.2796C132.39 49.5096 132.35 49.7396 132.31 49.9796C132.23 50.4696 132.13 50.9496 132.01 51.4296L132.04 51.4496Z" fill="white"/>
<path d="M138.72 44.9699C140.64 44.9699 142.33 43.9499 143.26 42.4199L146.22 48.3799C146.27 48.5299 146.3 48.6299 146.3 48.6799C146.3 48.9299 146.21 49.1599 146.03 49.3599C145.83 49.5899 145.59 49.6999 145.31 49.6999H140.63C140.15 49.6999 139.81 49.4699 139.61 49.0199L137.42 44.7999C137.84 44.8999 138.27 44.9599 138.72 44.9599V44.9699Z" fill="white"/>
</svg>
