<svg width="60" height="28" viewBox="0 0 60 28" fill="none" xmlns="http://www.w3.org/2000/svg">
<path d="M60 11.3171L56 10V28L60 25V11.3171Z" fill="#9D9D9D"/>
<path d="M0 0L2.54161 12.1747C3.82405 18.3177 4.46527 21.3893 6.68644 23.1946C8.90761 25 12.0454 25 18.3208 25H60V16.1194C60 8.52064 60 4.72126 57.6394 2.36063C55.2787 0 51.4794 0 43.8806 0H0Z" fill="url(#paint0_linear_321_168408)"/>
<path d="M22.2207 16.6129V18.3731H17.4226V16.6129H22.2207ZM18.2375 8.8811V18.3731H15.9492V8.8811H18.2375Z" fill="#16181E"/>
<path d="M25.6173 8.8811V18.3731H23.3355V8.8811H25.6173Z" fill="#16181E"/>
<path d="M30.8196 16.137L32.795 8.8811H35.357L32.1561 18.3731H30.5002L30.8196 16.137ZM29.0268 8.8811L31.0022 16.137L31.3347 18.3731H29.6592L26.4778 8.8811H29.0268Z" fill="#16181E"/>
<path d="M42.5869 16.6129V18.3731H37.5279V16.6129H42.5869ZM38.3428 8.8811V18.3731H36.0546V8.8811H38.3428ZM41.935 12.6492V14.3508H37.5279V12.6492H41.935ZM42.6064 8.8811V10.6478H37.5279V8.8811H42.6064Z" fill="#16181E"/>
<circle cx="48.8229" cy="13.1615" r="2.22524" fill="#FF4C00"/>
<defs>
<linearGradient id="paint0_linear_321_168408" x1="54.6269" y1="2.23214" x2="26.4936" y2="27.762" gradientUnits="userSpaceOnUse">
<stop stop-color="#D9D9D9"/>
<stop offset="0.526499" stop-color="white"/>
</linearGradient>
</defs>
</svg>
