<svg width="160" height="80" viewBox="0 0 160 80" fill="none" xmlns="http://www.w3.org/2000/svg">
<path d="M0 50.83L8.47 28.79H11.61L20.63 50.83H17.31L14.74 44.15H5.52L3.1 50.83H0ZM6.36 41.78H13.83L11.53 35.68C10.83 33.83 10.31 32.3 9.97 31.11C9.69 32.52 9.29 33.93 8.78 35.32L6.36 41.79V41.78Z" fill="white"/>
<path d="M22.96 50.83V28.79H30.55C32.26 28.79 33.57 28.89 34.47 29.11C35.73 29.4 36.81 29.93 37.7 30.69C38.86 31.67 39.73 32.93 40.31 34.46C40.89 35.99 41.17 37.74 41.17 39.7C41.17 41.37 40.97 42.86 40.58 44.15C40.19 45.44 39.69 46.51 39.08 47.36C38.47 48.21 37.8 48.87 37.07 49.36C36.34 49.85 35.47 50.21 34.44 50.47C33.41 50.73 32.23 50.85 30.9 50.85H22.95L22.96 50.83ZM25.88 48.23H30.59C32.04 48.23 33.18 48.1 34.01 47.82C34.84 47.55 35.5 47.17 35.99 46.68C36.68 45.99 37.22 45.06 37.61 43.89C38 42.72 38.19 41.31 38.19 39.64C38.19 37.33 37.81 35.56 37.05 34.33C36.29 33.09 35.37 32.26 34.29 31.84C33.51 31.54 32.25 31.39 30.52 31.39H25.89V48.23H25.88Z" fill="white"/>
<path d="M53.37 50.8297V28.9697H57.82V47.1197H68.89V50.8297H53.37Z" fill="white"/>
<path d="M72.03 28.79H76.48V40.73C76.48 42.62 76.53 43.85 76.65 44.41C76.84 45.31 77.29 46.04 78.01 46.58C78.73 47.13 79.71 47.4 80.95 47.4C82.19 47.4 83.17 47.14 83.81 46.63C84.45 46.11 84.84 45.48 84.97 44.73C85.1 43.98 85.16 42.73 85.16 40.99V28.8H89.61V40.38C89.61 43.03 89.49 44.9 89.25 45.99C89.01 47.08 88.57 48 87.92 48.76C87.27 49.51 86.41 50.11 85.33 50.56C84.25 51.01 82.83 51.23 81.09 51.23C78.99 51.23 77.39 50.99 76.3 50.5C75.21 50.01 74.35 49.38 73.72 48.6C73.09 47.82 72.67 47.01 72.47 46.16C72.18 44.9 72.03 43.03 72.03 40.57V28.81V28.79Z" fill="white"/>
<path d="M94.34 50.83V28.79H98.67L107.69 43.51V28.79H111.82V50.83H107.36L98.47 36.46V50.83H94.34Z" fill="white"/>
<path d="M136.41 50.83H131.57L129.65 45.82H120.84L119.02 50.83H114.3L122.89 28.79H127.6L136.43 50.83H136.41ZM128.21 42.11L125.17 33.93L122.19 42.11H128.2H128.21Z" fill="white"/>
<path d="M138.71 50.83V28.79H145.37L149.37 43.83L153.32 28.79H160V50.83H155.87V33.48L151.49 50.83H147.21L142.85 33.48V50.83H138.71Z" fill="white"/>
</svg>
