<svg width="160" height="80" viewBox="0 0 160 80" fill="none" xmlns="http://www.w3.org/2000/svg">
<path d="M41.63 62.5902H3.56C1.59 62.5902 0 61.0002 0 59.0302V20.9702C0 19.0102 1.59 17.4102 3.56 17.4102H41.63C43.59 17.4102 45.18 19.0102 45.18 20.9702V59.0402C45.18 61.0102 43.59 62.6002 41.63 62.6002" fill="#EC2631"/>
<path d="M18.79 39.2398L18.53 41.5198H8.67L8.01 47.4598H4.56L5.17 42.0298C5.34 40.4998 6.73 39.2498 8.26 39.2498H18.79V39.2398ZM22.9 33.2998L22.65 35.5798H5.89L4.38 33.2998H22.9Z" fill="#231F20"/>
<path d="M41.93 35.5698H28.62L28.45 37.0698L28.37 37.7298C28.28 38.5498 28.88 39.2298 29.7 39.2298H38.07C39.97 39.2298 41.35 40.7798 41.14 42.6798L40.99 43.9998C40.77 45.8998 39.05 47.4498 37.15 47.4498H23.89L24.14 45.1798H35.91C36.73 45.1798 37.49 44.4998 37.58 43.6798L37.66 43.0198C37.75 42.1898 37.15 41.5198 36.33 41.5198H27.96C26.06 41.5198 24.68 39.9598 24.9 38.0698L24.94 37.7398L25.05 36.7498V36.7298L25.18 35.5798L23.67 33.2998H42.19L41.94 35.5798L41.93 35.5698Z" fill="#231F20"/>
<path d="M61 34.8696L60.8 36.6796H52.94L52.41 41.4096H49.67L50.15 37.0896C50.29 35.8696 51.39 34.8696 52.61 34.8696H60.99H61ZM64.27 30.1396L64.07 31.9496H50.73L49.53 30.1396H64.27Z" fill="white"/>
<path d="M74.69 39.5999C75.35 39.5999 75.95 39.0599 76.02 38.3999L76.61 33.1499C76.68 32.4899 76.2 31.9499 75.54 31.9499H68.89L68.76 33.1499L68.36 36.6999L68.17 38.4099C68.1 39.0699 68.58 39.6099 69.24 39.6099H74.7L74.69 39.5999ZM76.94 30.1399C78.45 30.1399 79.55 31.3699 79.38 32.8799L78.73 38.6599C78.56 40.1699 77.19 41.3999 75.68 41.3999H67.83C66.32 41.3999 65.22 40.1599 65.39 38.6599L65.61 36.6899L66.04 32.8799V32.8599L66.14 31.9399L64.94 30.1299H76.94V30.1399Z" fill="white"/>
<path d="M92.74 30.1401C94.25 30.1401 95.35 31.3701 95.18 32.8801C95.06 34.0001 95.07 34.8601 94.15 35.7701C94.87 36.6801 94.66 37.5501 94.54 38.6601L94.24 41.4001H91.5L91.89 37.8701C91.96 37.2101 91.48 36.6701 90.83 36.6701H84.17L83.64 41.4001H80.9L81.38 37.0801C81.52 35.8601 82.62 34.8601 83.85 34.8601H91.03C91.69 34.8601 92.29 34.3201 92.36 33.6601L92.42 33.1301C92.49 32.4701 92.01 31.9301 91.36 31.9301H81.96L80.76 30.1201H92.76L92.74 30.1401Z" fill="white"/>
<path d="M97.33 36.3896L97.72 32.8896V32.8696L97.82 31.9496L96.62 30.1396H111.36C112.87 30.1396 113.97 31.3697 113.8 32.8797L112.85 41.3997H110.11L111.03 33.1396C111.1 32.4796 110.62 31.9396 109.96 31.9396H107.23L106.39 39.4996H103.65L104.08 35.6396L104.49 31.9296H100.57L100.44 33.1297L100.16 35.6396L100.08 36.3696L99.52 41.3997H96.78L97.34 36.3696L97.33 36.3896Z" fill="white"/>
<path d="M119.39 30.1396L118.47 38.3997C118.4 39.0597 118.88 39.5996 119.53 39.5996H124.99C125.65 39.5996 126.25 39.0597 126.32 38.3997L127.24 30.1396H129.98L129.03 38.6596C128.86 40.1696 127.49 41.3997 125.98 41.3997H118.13C116.62 41.3997 115.52 40.1596 115.69 38.6596L116.44 31.9496L115.24 30.1396H119.39Z" fill="white"/>
<path d="M134.99 35.7802L134.7 38.4102C134.63 39.0702 135.11 39.6102 135.76 39.6102H145.16L144.96 41.4202H134.36C132.85 41.4202 131.75 40.1802 131.92 38.6802L132.56 32.9002L132.67 31.9702L131.47 30.1602H135.62L134.99 35.7902V35.7802Z" fill="white"/>
<path d="M155.18 30.1396L160 41.4096H157.91L156.69 38.4897H151.47L151.82 37.9096C152.29 37.1396 153.08 36.6796 153.94 36.6796H155.93L154.15 32.4196L148.68 41.4096H145.51L151.42 31.9496H151.41L150.21 30.1396H155.18Z" fill="white"/>
<path d="M93.77 47.0202H83.18L83.05 48.2102L82.99 48.7402C82.92 49.4002 83.39 49.9302 84.05 49.9302H90.7C92.21 49.9302 93.3 51.1602 93.14 52.6702L93.02 53.7202C92.85 55.2302 91.48 56.4602 89.97 56.4602H79.42L79.62 54.6502H88.97C89.63 54.6502 90.23 54.1102 90.3 53.4602L90.36 52.9302C90.43 52.2702 89.96 51.7402 89.3 51.7402H82.65C81.14 51.7402 80.05 50.5102 80.21 49.0002L80.24 48.7402L80.33 47.9502V47.9302L80.44 47.0102L79.24 45.2002H93.97L93.77 47.0102V47.0202Z" fill="white"/>
<path d="M107.21 45.21C108.72 45.21 109.81 46.44 109.64 47.95L109.52 49C109.35 50.51 107.98 51.74 106.47 51.74H98.63L98.1 56.47H95.36L95.84 52.15C95.97 50.93 97.08 49.93 98.3 49.93H105.48C106.14 49.93 106.74 49.39 106.81 48.74L106.87 48.21C106.94 47.55 106.47 47.02 105.81 47.02H96.42L95.22 45.21H107.21Z" fill="white"/>
<path d="M114.87 45.21L113.62 56.47H110.88L111.93 47.02L110.73 45.21H114.87Z" fill="white"/>
<path d="M119.36 45.21C119.97 45.21 120.47 45.43 120.85 45.86L127.62 53.48L128.54 45.21H131.28L130.02 56.47H128.62C128.01 56.47 127.51 56.25 127.12 55.82L120.35 48.2L119.43 56.47H116.69L117.74 47.02L116.54 45.21H119.34H119.36Z" fill="white"/>
</svg>
