<svg width="160" height="91" viewBox="0 0 160 91" fill="none" xmlns="http://www.w3.org/2000/svg">
<path d="M55.6774 42.5689H58.8641V48.6277H60.8912V42.5689H64.0506V40.5562H55.6774V42.5689Z" fill="#6FBCBD"/>
<path d="M81.6554 42.5689H84.8421V48.6277H86.8784V42.5689H90.0286V40.5562H81.6554V42.5689Z" fill="#6FBCBD"/>
<path d="M128.79 42.5689H131.977V48.6277H134.004V42.5689H137.163V40.5562H128.79V42.5689Z" fill="#6FBCBD"/>
<path d="M49.0847 40.5562C48.5551 40.5562 48.0986 40.628 47.7242 40.7821C47.3498 40.9361 47.0485 41.1518 46.8202 41.429C46.5919 41.7063 46.4185 42.0452 46.318 42.4354C46.2084 42.8256 46.1628 43.2672 46.1628 43.7601V45.4237C46.1628 45.9063 46.2176 46.3479 46.318 46.7484C46.4185 47.1489 46.5919 47.4775 46.8202 47.7548C47.0485 48.032 47.3498 48.2477 47.7242 48.4017C48.0986 48.5558 48.5551 48.6277 49.0847 48.6277H54.7095V46.5328H49.2674C48.8656 46.5328 48.5917 46.4301 48.4273 46.235C48.2721 46.0398 48.1899 45.701 48.1899 45.2183V43.8628C48.1899 43.3699 48.2721 43.031 48.4273 42.8462C48.5917 42.6613 48.8656 42.5689 49.2582 42.5689H54.7004V40.5562H49.0847Z" fill="#6FBCBD"/>
<path d="M122.398 40.5562C121.869 40.5562 121.412 40.628 121.038 40.7821C120.663 40.9361 120.362 41.1518 120.134 41.429C119.905 41.7063 119.732 42.0452 119.632 42.4354C119.522 42.8256 119.476 43.2672 119.476 43.7601V45.4237C119.476 45.9063 119.531 46.3479 119.632 46.7484C119.732 47.1489 119.905 47.4775 120.134 47.7548C120.362 48.032 120.663 48.2477 121.038 48.4017C121.412 48.5558 121.869 48.6277 122.398 48.6277H128.023V46.5328H122.581C122.179 46.5328 121.905 46.4301 121.741 46.235C121.586 46.0398 121.503 45.701 121.503 45.2183V43.8628C121.503 43.3699 121.586 43.031 121.741 42.8462C121.905 42.6613 122.179 42.5689 122.572 42.5689H128.014V40.5562H122.398Z" fill="#6FBCBD"/>
<path d="M32.7395 57.7151L23.5628 68.0356C22.4853 69.2473 20.723 69.2473 19.6455 68.0356L0.808101 46.8504C-0.269367 45.6387 -0.269367 43.6568 0.808101 42.445L6.00369 36.6122H10.6514C15.8927 36.6122 18.2941 35.2053 19.1342 31.5906H11.3545H10.4597L19.6455 21.2701C20.723 20.0584 22.4853 20.0584 23.5628 21.2701L32.7395 31.5906H27.9457C21.0974 31.5906 19.0977 33.9627 19.0977 40.5452V48.7399C19.0977 55.3224 21.1065 57.7049 27.9457 57.7049H32.7395V57.7151Z" fill="#6FBCBD"/>
<path d="M42.3917 42.4559L37.1961 36.623H28.1837C25.0152 36.623 24.2299 37.6602 24.2299 40.8744V48.5352C24.2299 51.7905 25.0152 52.7455 28.2111 52.7455H37.1595L42.3825 46.8716C43.4691 45.6496 43.4691 43.6676 42.3917 42.4559ZM32.9136 47.8369H31.7174V43.452H32.9136V47.8369ZM32.9136 42.2813H31.7174V40.9669H32.9136V42.2813Z" fill="#6FBCBD"/>
<path d="M67.8674 48.6276V40.5869H69.8945V48.6276H67.8674Z" fill="#6FBCBD"/>
<path d="M93.1057 46.5122H99.26V48.6071H91.0603L91.0786 40.5664L99.2326 40.5562L99.2418 42.5381L93.1057 42.5689V43.7293H96.4385V45.3621L93.1057 45.3518V46.5122Z" fill="#6FBCBD"/>
<path d="M153.846 46.5122H160V48.6071H151.8L151.819 40.5664L159.973 40.5562L159.982 42.5381L153.846 42.5689V43.7293H157.178V45.3621L153.846 45.3518V46.5122Z" fill="#6FBCBD"/>
<path d="M102.456 45.7112V48.6174H100.429L100.447 40.5767H106.3C106.748 40.5767 107.122 40.6383 107.432 40.7512C107.743 40.8642 107.989 41.0388 108.181 41.2647C108.373 41.4906 108.51 41.7576 108.592 42.0759C108.674 42.3943 108.72 42.7537 108.72 43.1439V43.719C108.72 44.1092 108.674 44.4584 108.592 44.7665C108.51 45.0745 108.373 45.3415 108.181 45.5572C107.999 45.7728 107.752 45.9371 107.46 46.0604C107.168 46.1733 106.802 46.2349 106.382 46.2349H106.172C106.072 46.2349 105.917 46.2349 105.917 46.2349V46.2965C105.999 46.389 108.848 48.5147 108.848 48.5147V48.6071H106.209L102.456 45.7112ZM102.456 42.5894V44.5303H105.935C106.2 44.5303 106.391 44.4686 106.51 44.3557C106.629 44.2427 106.684 44.0168 106.684 43.6779V43.4007C106.684 43.0926 106.629 42.8769 106.51 42.764C106.391 42.651 106.2 42.5894 105.935 42.5894H102.456Z" fill="#6FBCBD"/>
<path d="M137.921 48.6276V40.5869H139.948V48.6276H137.921Z" fill="#6FBCBD"/>
<path d="M148.76 40.5767H151.106V40.6691L147.408 48.5763L144.377 48.5865L140.706 40.6691V40.5767H143.089L145.719 46.6149H146.103L148.76 40.5767Z" fill="#6FBCBD"/>
<path d="M119.321 48.5866H112.5L113.578 46.5123H116.226L114.463 43.1029H114.199L111.359 48.5866H109.341L113.477 40.5356H115.176L119.321 48.5866Z" fill="#6FBCBD"/>
<path d="M78.633 46.5328H78.4138L74.5788 40.5459H71.666V48.5866H73.6565V42.6305H73.8848L77.656 48.5866H80.6418V40.5459H78.633V46.5328Z" fill="#6FBCBD"/>
</svg>
