<svg width="48" height="48" viewBox="0 0 48 48" fill="none" xmlns="http://www.w3.org/2000/svg">
<g clip-path="url(#clip0_825_507)">
<path d="M46.2188 0C47.2023 0 48 0.797741 48 1.78125V46.2188C48 47.2023 47.2023 48 46.2188 48H1.78125C0.797741 48 0 47.2023 0 46.2188V1.78125C0 0.797741 0.797741 0 1.78125 0H46.2188ZM35.7891 9.60059H34.8125C34.3025 9.3096 33.7529 9.05137 33.1631 8.82715C30.8399 7.944 27.8113 7.50197 24.0723 7.50195C21.8211 7.50195 19.3773 7.58892 16.7373 7.76172C14.0974 7.93932 11.2175 8.17914 8.09766 8.48633V40.502H21.2158V34.6943C21.9261 34.6943 22.5646 34.7036 23.1357 34.7324C23.7021 34.7564 24.2544 34.7715 24.792 34.7715C26.8799 34.7715 28.8383 34.4255 30.667 33.7344C32.4957 33.0432 34.1039 32.069 35.4814 30.8115C36.859 29.5491 37.9442 28.0512 38.7266 26.3184C39.509 24.5856 39.9023 22.67 39.9023 20.582C39.9023 18.9415 39.7511 17.4672 39.4512 16.1592V13.2676H43.4443V9.60059H39.4561V5.57324H35.7891V9.60059ZM26.1982 15.8447C26.923 15.8447 27.4853 16.0946 27.8789 16.5986C28.2723 17.0977 28.4688 17.6884 28.4688 18.3555C28.4687 19.9201 27.9742 21.1967 26.9902 22.1807C26.0063 23.1646 24.8399 23.9901 23.4863 24.6621L21.1348 25.8096V18.2354C21.8163 17.7554 22.4261 17.3568 22.9541 17.04C23.482 16.7233 24.0385 16.445 24.6191 16.2051C25.2047 15.9651 25.7279 15.8448 26.1982 15.8447Z" fill="white"/>
</g>
<defs>
<clipPath id="clip0_825_507">
<rect width="48" height="48" fill="white"/>
</clipPath>
</defs>
</svg>
