<svg width="160" height="80" viewBox="0 0 160 80" fill="none" xmlns="http://www.w3.org/2000/svg">
<path d="M54.65 19.6201L50.68 23.5901L49.05 21.9601L47.82 23.1901L50.07 25.4401C50.25 25.6201 50.47 25.7001 50.69 25.7001C50.91 25.7001 51.13 25.6101 51.31 25.4401L55.89 20.8101L54.66 19.6201H54.65Z" fill="url(#paint0_linear_9702_32)"/>
<path d="M15.91 27.2402C17.76 26.0902 19.66 25.4802 20.93 25.1702C20.93 25.0802 20.93 24.9502 20.97 24.8602C19.91 24.4602 18.77 24.2402 17.53 24.2402C15.77 24.2402 14.09 24.7202 12.68 25.5602C12.77 25.7402 12.81 25.9102 12.81 26.0902C13.6 26.3102 14.7 26.6602 15.89 27.2402H15.91Z" fill="url(#paint1_linear_9702_32)"/>
<path d="M8.95 30.8998C9.74 30.7698 10.93 30.6398 12.25 30.6398C12.25 30.5998 12.29 30.5998 12.29 30.5498C13.13 29.3598 14.14 28.4298 15.2 27.6898C14.19 27.2498 13.26 26.9398 12.56 26.7598C12.34 27.1098 11.94 27.3798 11.46 27.3798C11.15 27.3798 10.89 27.2498 10.62 27.0698C9.69 27.9998 8.95 29.0498 8.46 30.2898C8.72 30.4698 8.86 30.6398 8.94 30.9098L8.95 30.8998Z" fill="url(#paint2_linear_9702_32)"/>
<path d="M22.26 32.9203H22.48C22.7 32.9203 22.88 32.9604 23.05 33.0504C24.11 31.7704 24.81 30.5804 25.25 29.7904C25.03 29.5704 24.85 29.2204 24.85 28.8604C24.85 28.5004 24.98 28.2004 25.2 27.9804C24.63 27.2304 23.92 26.6104 23.17 26.0404C22.95 26.3004 22.6 26.4804 22.2 26.4804C21.72 26.4804 21.32 26.2204 21.1 25.8604C19.95 26.1204 18.32 26.7004 16.65 27.6204C18.68 28.7204 20.79 30.4004 22.25 32.9104L22.26 32.9203Z" fill="url(#paint3_linear_9702_32)"/>
<path d="M16 28.0303C14.99 28.6903 13.97 29.5703 13.14 30.6303C15.65 30.7603 18.69 31.3403 21.6 33.1903C20.19 30.6803 18.03 29.0503 16 28.0303Z" fill="url(#paint4_linear_9702_32)"/>
<path d="M9 31.5996C8.87 32.1296 8.43 32.4796 7.9 32.5696C7.81 33.0496 7.81 33.5396 7.81 34.0196C7.81 36.4396 8.69 38.6496 10.15 40.3696C10.19 40.3696 10.28 40.3297 10.33 40.3297C9.85 36.8497 10.33 33.8496 11.83 31.3896C10.68 31.3896 9.71 31.4796 9.01 31.6096L9 31.5996Z" fill="url(#paint5_linear_9702_32)"/>
<path d="M23.32 35.3496C23.85 36.9796 24.07 38.8796 23.89 41.0296C23.98 41.0696 24.07 41.1196 24.15 41.1596C24.94 40.4096 25.65 39.5296 26.18 38.5196C25.3 37.2396 24.33 36.1796 23.32 35.3496Z" fill="url(#paint6_linear_9702_32)"/>
<path d="M26.14 30.1504C26.05 30.1504 25.96 30.1504 25.88 30.1104C25.44 30.9504 24.69 32.1804 23.59 33.5004C23.72 33.6804 23.77 33.9004 23.77 34.1604C23.77 34.3404 23.73 34.5103 23.68 34.6903C24.69 35.5703 25.66 36.5804 26.54 37.8204C27.02 36.6304 27.29 35.3503 27.29 34.0303C27.29 32.6203 26.98 31.3004 26.45 30.1104C26.36 30.1104 26.27 30.1504 26.14 30.1504Z" fill="url(#paint7_linear_9702_32)"/>
<path d="M54.38 33.3198C58.52 32.2198 61.78 28.6498 62.27 24.1498C62.89 18.2898 58.66 12.9998 52.8 12.3898C47.2 11.7698 42.14 15.6098 41.12 21.0698C40.5 24.0198 37.99 25.8698 35.08 25.5198C33.58 25.3398 32.39 24.6798 31.42 23.5798C28.64 19.8298 24.37 17.1898 19.35 16.6598C9.79 15.6498 1.24 22.5198 0.179999 32.0898C-0.830001 41.6498 6.04 50.1998 15.6 51.2598C20.4 51.7898 24.99 50.2898 28.47 47.4698C29.7 46.5898 31.6 46.8098 33.18 47.7798C34.63 48.7098 35.82 50.5098 35.6 52.0098C35.51 52.4498 35.42 52.9398 35.38 53.4198C34.63 60.4698 39.7 66.8198 46.79 67.6098C53.84 68.3598 60.19 63.2898 60.98 56.1998C61.6 50.5998 58.51 45.4498 53.67 43.1998C52.17 42.3198 51.47 40.1598 51.69 37.9998C51.95 35.8398 52.7 33.7698 54.38 33.3298V33.3198ZM24.64 41.6898C24.73 41.8698 24.77 42.0398 24.77 42.2598C24.77 42.9698 24.2 43.5398 23.49 43.5398C23.14 43.5398 22.83 43.4098 22.61 43.1898C21.11 44.0298 19.39 44.5098 17.54 44.5098C15.25 44.5098 13.18 43.7598 11.46 42.5298C11.24 42.7498 10.93 42.8798 10.62 42.8798C9.91 42.8798 9.34 42.3098 9.34 41.5998C9.34 41.2898 9.43 41.0298 9.6 40.8098C8.06 38.9998 7.09 36.6198 7.09 34.0198C7.09 33.4898 7.13 32.9598 7.22 32.4798C6.78 32.2598 6.47 31.8198 6.47 31.3298C6.47 30.6198 7.04 30.0498 7.75 30.0498H7.88C8.45 28.6798 9.25 27.4898 10.3 26.5198C10.26 26.3898 10.21 26.2598 10.21 26.1198C10.21 25.4098 10.78 24.8398 11.49 24.8398C11.75 24.8398 11.97 24.9298 12.2 25.0598C13.74 24.1298 15.59 23.6098 17.53 23.6098C18.85 23.6098 20.17 23.8698 21.32 24.3198C21.54 24.0998 21.85 24.0098 22.16 24.0098C22.87 24.0098 23.44 24.5798 23.44 25.2898V25.4698C24.32 26.0898 25.11 26.8398 25.78 27.6698C25.87 27.6298 26 27.6298 26.09 27.6298C26.8 27.6298 27.37 28.1998 27.37 28.9098C27.37 29.2598 27.24 29.5698 27.02 29.7898C27.59 31.1098 27.95 32.5698 27.95 34.0598C27.99 37.0098 26.72 39.7398 24.65 41.6798L24.64 41.6898ZM36.18 43.4098C34.77 42.4398 33.58 40.9398 34.02 39.3598C34.42 38.2098 34.68 37.0198 34.81 35.7498C34.85 35.3098 34.9 34.8198 34.9 34.3798C34.9 34.2498 34.9 34.1598 34.94 34.0298C35.25 30.9898 37.98 28.8298 41.02 29.1398C42.3 29.2698 43.4 29.8498 44.24 30.6398C45.08 31.4298 46 32.0898 47.06 32.5798C48.43 33.2398 48.95 35.3998 48.73 37.4298C48.51 39.5898 47.19 41.7898 45.73 42.0598C44.19 42.3698 42.69 42.9898 41.41 43.8198C39.82 44.6598 37.71 44.4798 36.17 43.4198L36.18 43.4098ZM52.53 49.8898C53.54 50.3698 54.29 51.2098 54.69 52.2698C55.4 53.9898 55.79 55.8398 55.92 57.6898C55.96 58.1698 55.79 58.6598 55.44 59.0098C55.09 59.3598 54.65 59.5798 54.16 59.5798C53.67 59.5798 53.19 59.3998 52.84 59.0498L52.31 58.5198C51.74 57.8998 50.9 57.5898 50.06 57.5898H46.45C45.61 57.5898 44.82 57.9398 44.2 58.5198L43.67 59.0498C43.32 59.3998 42.83 59.5798 42.39 59.5798C41.91 59.5798 41.46 59.3598 41.11 59.0098C40.76 58.6598 40.58 58.1698 40.63 57.6898C40.76 55.8398 41.16 54.0298 41.86 52.2698C42.26 51.2598 43.05 50.4198 44.02 49.8898C44.99 49.4098 46.14 49.2298 47.19 49.5398C48.38 50.0198 48.2 50.0198 49.39 49.5398C50.4 49.2298 51.55 49.3598 52.52 49.8898H52.53ZM45.79 22.6598C45.79 19.3098 48.52 16.6198 51.83 16.6198C55.14 16.6198 57.87 19.3498 57.87 22.6598C57.87 25.9698 55.14 28.6998 51.83 28.6998C48.53 28.7398 45.79 26.0098 45.79 22.6598Z" fill="url(#paint8_linear_9702_32)"/>
<path d="M22.48 35.4396C22.3 35.4396 22.08 35.3996 21.95 35.3096C19.7 37.5996 16.44 40.0196 11.9 41.6596C11.9 41.7496 11.9 41.8396 11.86 41.8796C13.45 43.0296 15.43 43.7296 17.59 43.7296C19.31 43.7296 20.89 43.2896 22.3 42.5396C22.26 42.4496 22.26 42.3196 22.26 42.2296C22.26 41.6096 22.66 41.1296 23.23 40.9996C23.41 38.8396 23.19 36.9896 22.66 35.4496C22.57 35.4496 22.53 35.4496 22.48 35.4496V35.4396Z" fill="url(#paint9_linear_9702_32)"/>
<path d="M21.2 34.16C21.2 34.03 21.24 33.9 21.24 33.76C18.24 31.91 15.12 31.34 12.65 31.29C11.06 33.71 10.49 36.75 11.02 40.32C11.33 40.45 11.55 40.67 11.73 40.94C16.09 39.35 19.18 37.02 21.38 34.86C21.25 34.68 21.2 34.42 21.2 34.15V34.16Z" fill="url(#paint10_linear_9702_32)"/>
<path d="M50.9 53.24C50.68 53.15 50.46 53.2 50.28 53.33C50.1 53.46 50.06 53.68 50.15 53.9C50.24 54.08 50.41 54.25 50.63 54.25C50.76 54.25 50.89 54.21 51.03 54.12C51.12 54.03 51.21 53.86 51.21 53.72C51.21 53.5 51.08 53.32 50.9 53.24Z" fill="url(#paint11_linear_9702_32)"/>
<path d="M51.56 53.0998C51.74 53.1898 52 53.1398 52.13 52.9698C52.31 52.7898 52.31 52.5698 52.22 52.3998C52.13 52.2198 51.96 52.0898 51.74 52.0898C51.61 52.0898 51.48 52.1298 51.39 52.2198C51.3 52.3098 51.21 52.4798 51.21 52.6198C51.21 52.8398 51.34 53.0598 51.56 53.0998Z" fill="url(#paint12_linear_9702_32)"/>
<path d="M51.96 54.2902C51.78 54.2002 51.52 54.2502 51.39 54.4202C51.21 54.5502 51.17 54.8202 51.26 54.9902C51.35 55.2102 51.52 55.3402 51.74 55.3402C51.87 55.3402 52 55.3002 52.14 55.1602C52.23 55.0702 52.32 54.9002 52.32 54.7602C52.28 54.5802 52.14 54.3602 51.97 54.2802L51.96 54.2902Z" fill="url(#paint13_linear_9702_32)"/>
<path d="M45.3 51.5596C44.73 51.5596 44.2 51.7796 43.76 52.2196C43.36 52.6196 43.1 53.1896 43.1 53.7596C43.1 54.3296 43.32 54.8596 43.76 55.2996C44.16 55.6996 44.73 55.9596 45.3 55.9596C45.87 55.9596 46.4 55.7396 46.84 55.2996C47.24 54.8996 47.5 54.3296 47.5 53.7596C47.5 53.1896 47.28 52.6596 46.84 52.2196C46.4 51.8196 45.87 51.5596 45.3 51.5596ZM46.05 54.4696C45.87 54.6496 45.57 54.7796 45.3 54.7796C45.03 54.7796 44.77 54.6496 44.55 54.4696C44.33 54.2896 44.24 53.9896 44.24 53.7196C44.24 53.4496 44.37 53.1496 44.55 52.9696C44.73 52.7496 45.03 52.6596 45.3 52.6596C45.57 52.6596 45.83 52.7896 46.05 52.9696C46.27 53.1496 46.36 53.4496 46.36 53.7196C46.36 54.0296 46.23 54.2896 46.05 54.4696Z" fill="url(#paint14_linear_9702_32)"/>
<path d="M53.02 53.1896C52.84 53.0996 52.58 53.1496 52.45 53.3196C52.27 53.4496 52.23 53.7196 52.32 53.8896C52.41 54.1096 52.58 54.2396 52.8 54.2396C52.93 54.2396 53.06 54.1996 53.2 54.0596C53.29 53.9696 53.38 53.7996 53.38 53.6596C53.38 53.4796 53.25 53.2596 53.03 53.1796L53.02 53.1896Z" fill="url(#paint15_linear_9702_32)"/>
<path d="M99.02 24.0201L94.53 40.9001C94.49 41.0301 94.4 41.1201 94.27 41.1201H89.2C89.07 41.1201 88.98 41.0301 88.94 40.9401L86.82 35.1201C86.73 34.8601 86.38 34.8601 86.29 35.1201L84.22 40.9401C84.18 41.0701 84.09 41.1201 83.96 41.1201H78.89C78.76 41.1201 78.67 41.0301 78.63 40.9001L74.14 24.0201C74.1 23.8401 74.23 23.6701 74.4 23.6701H79.25C79.38 23.6701 79.51 23.7601 79.51 23.8901L81.27 32.4401C81.31 32.7001 81.71 32.7501 81.8 32.4801L84.88 23.8401C84.92 23.7101 85.01 23.6601 85.14 23.6601H88C88.13 23.6601 88.22 23.7501 88.26 23.8401L91.39 32.5601C91.48 32.7801 91.83 32.7801 91.87 32.5201L93.68 23.8401C93.72 23.7101 93.81 23.6201 93.94 23.6201H98.79C98.92 23.7101 99.05 23.8401 99.01 24.0201H99.02Z" fill="white"/>
<path d="M118.45 32.5303C118.45 33.0103 118.41 33.6304 118.32 34.1604C118.28 34.2904 118.19 34.3804 118.06 34.3804H105.85C105.63 34.3804 105.5 34.6004 105.63 34.8204C106.38 36.1004 107.7 36.8904 109.2 36.8904C110.48 36.8904 111.62 36.3203 112.46 35.2603C112.5 35.1703 112.64 35.1303 112.72 35.1703L117.39 36.0103C117.57 36.0503 117.65 36.2304 117.61 36.4104C117.52 36.6304 117.39 36.8903 117.3 37.0303L117.21 37.1604C117.12 37.2904 117.08 37.3803 116.99 37.5103C116.9 37.6903 116.77 37.8204 116.68 37.9504L116.64 38.0404C116.64 38.0404 116.6 38.1303 116.55 38.1703L116.51 38.2104C116.47 38.3004 116.38 38.3904 116.33 38.4304L116.29 38.4704C116.2 38.6004 116.07 38.6904 115.98 38.8204L115.94 38.8604C115.85 38.9504 115.81 38.9904 115.72 39.0804H115.68C115.59 39.1704 115.5 39.2104 115.42 39.3004L115.33 39.3904C115.2 39.5204 115.07 39.6104 114.93 39.7004L114.84 39.7904C114.71 39.8804 114.53 40.0103 114.4 40.1003L114.36 40.1404C114.18 40.2304 114.01 40.3604 113.83 40.4504L113.79 40.4904C113.79 40.4904 113.7 40.5304 113.66 40.5804H113.62C113.53 40.6204 113.49 40.6703 113.4 40.7104H113.36C113.18 40.8004 113.05 40.8404 112.88 40.9304H112.84C112.75 40.9704 112.66 41.0204 112.53 41.0604L112.4 41.1003C112.27 41.1404 112.18 41.1903 112.05 41.2304C111.92 41.2704 111.79 41.3204 111.65 41.3604L111.56 41.4004C111.3 41.4404 111.03 41.5304 110.77 41.5804H110.68C110.42 41.6204 110.11 41.6703 109.84 41.6703H108.74C108.65 41.6703 108.52 41.6704 108.43 41.6304H108.3C108.17 41.6304 108.04 41.5904 107.9 41.5904H107.81C107.68 41.5904 107.59 41.5504 107.46 41.5504L107.33 41.5103C107.24 41.5103 107.11 41.4703 107.02 41.4203H106.89C106.76 41.3803 106.63 41.3304 106.49 41.2904C106.35 41.2504 106.23 41.2004 106.09 41.1604C106.09 41.1604 106.06 41.147 106 41.1203H105.96C105.87 41.0803 105.78 41.0303 105.7 41.0303H105.66C105.66 41.0303 105.62 40.9904 105.57 40.9904C105.44 40.9504 105.31 40.9004 105.22 40.8104C105.13 40.7704 105 40.6804 104.87 40.6304C104.83 40.6304 104.83 40.5904 104.78 40.5904H104.74L104.48 40.4604L104.39 40.4203C104.26 40.3303 104.17 40.2904 104.04 40.2004C102.94 39.4504 101.97 38.4804 101.31 37.3804C101.27 37.2904 101.18 37.2003 101.13 37.1203L101.09 37.0804C101.05 36.9904 101 36.9004 100.96 36.8204L100.92 36.7803C100.92 36.7803 100.88 36.7403 100.88 36.6903C100.7 36.3403 100.57 35.9404 100.44 35.5404C100.35 35.3204 100.31 35.1404 100.26 34.9704C100.22 34.8404 100.17 34.6603 100.17 34.5303C100.08 34.0904 100.04 33.6004 99.99 33.1604V32.1903C100.03 31.4003 100.17 30.5604 100.43 29.8104C100.52 29.5504 100.61 29.3304 100.69 29.1004C100.73 28.9704 100.78 28.8404 100.87 28.7504C100.87 28.7104 100.91 28.7104 100.91 28.6604L100.95 28.5704C100.95 28.5704 100.99 28.5304 100.99 28.4804C100.99 28.4304 101.03 28.4404 101.03 28.3904L101.12 28.2604C101.16 28.1304 101.25 28.0404 101.34 27.9104C102.05 26.8104 102.97 25.7904 104.07 25.0904C104.2 25.0004 104.29 24.9604 104.42 24.8704L104.51 24.8304C104.6 24.7904 104.69 24.7404 104.77 24.7004H104.81C104.81 24.7004 104.85 24.6604 104.9 24.6604C105.03 24.6204 105.12 24.5304 105.25 24.4804C105.38 24.4304 105.51 24.3504 105.6 24.3004C105.64 24.3004 105.64 24.2604 105.69 24.2604H105.73C105.82 24.2204 105.91 24.1704 105.99 24.1704H106.03C106.03 24.1704 106.07 24.1704 106.12 24.1304C106.25 24.0904 106.38 24.0404 106.52 24.0004C106.65 23.9604 106.78 23.9104 106.92 23.8704H107.05C107.14 23.8304 107.27 23.8304 107.36 23.7804H107.45C107.58 23.7404 107.76 23.7404 107.89 23.6904C108.02 23.6904 108.15 23.6504 108.29 23.6504H108.42C108.51 23.6504 108.64 23.6504 108.73 23.6104H109.83C110.09 23.6104 110.4 23.6504 110.67 23.7004H110.8C111.06 23.7404 111.33 23.7904 111.59 23.8804L111.72 23.9204C111.85 23.9604 111.98 24.0104 112.12 24.0504C112.25 24.0904 112.34 24.1404 112.47 24.1804C112.51 24.1804 112.56 24.2204 112.56 24.2204C112.65 24.2604 112.74 24.3104 112.87 24.3504H112.91C113.04 24.3904 113.22 24.4804 113.39 24.5704H113.43C113.52 24.6104 113.56 24.6604 113.65 24.7004H113.69L113.65 24.8304L113.74 24.7004C113.74 24.7004 113.83 24.7404 113.87 24.7904C114.05 24.8804 114.27 25.0104 114.44 25.1404C114.62 25.2304 114.75 25.3604 114.88 25.4504H114.92C114.92 25.4504 114.96 25.4904 115.01 25.5404C115.14 25.6304 115.27 25.7204 115.41 25.8504L115.5 25.8904C115.59 25.9804 115.68 26.0704 115.76 26.1504L115.8 26.1904C115.89 26.2804 115.93 26.3204 116.02 26.4104L116.06 26.4504C116.19 26.5804 116.28 26.6704 116.37 26.8004L116.41 26.8404C116.45 26.9304 116.54 26.9704 116.59 27.0604L116.63 27.1504C116.72 27.2404 116.76 27.3304 116.85 27.4104C116.89 27.5004 116.94 27.5404 117.03 27.6304L117.12 27.7604C117.16 27.8504 117.21 27.8904 117.25 27.9804L117.43 28.2404C117.78 28.8604 118.05 29.4704 118.22 30.1304C118.31 30.7903 118.44 31.6303 118.44 32.5103L118.45 32.5303ZM112.98 30.2404C112.76 28.9604 111.26 27.9504 109.41 27.9504C107.69 27.9504 106.06 28.9604 105.84 30.2404C105.8 30.4204 105.93 30.5904 106.1 30.5904H112.71C112.89 30.5504 113.02 30.4104 112.97 30.2404H112.98Z" fill="white"/>
<path d="M140.44 32.53C140.44 37.55 136.3 41.65 131.19 41.65C129.56 41.65 128.02 41.25 126.61 40.46C126.52 40.42 126.39 40.46 126.39 40.59V40.85C126.39 40.98 126.26 41.11 126.13 41.11H121.28C121.15 41.11 121.02 40.98 121.02 40.85V18.51C121.02 18.38 121.15 18.25 121.28 18.25H126.13C126.26 18.25 126.39 18.38 126.39 18.51V24.55C126.39 24.64 126.52 24.73 126.61 24.68C128.02 23.89 129.56 23.49 131.19 23.49C136.3 23.4 140.44 27.5 140.44 32.52V32.53ZM134.62 32.53C134.62 30.24 132.73 28.34 130.39 28.34C128.05 28.34 126.42 30.23 126.42 32.53C126.42 34.83 128.05 36.72 130.39 36.72C132.73 36.72 134.62 34.83 134.62 32.53Z" fill="white"/>
<path d="M159.96 33.54C159.96 34.02 159.92 34.51 159.83 34.99C159.26 37.94 156.83 40.37 153.66 41.11C152.95 41.29 152.25 41.37 151.54 41.37C150.83 41.37 150.13 41.28 149.42 41.11C146.42 40.4 144.13 38.25 143.38 35.47C143.34 35.29 143.29 35.16 143.29 34.99C143.29 34.9 143.25 34.81 143.25 34.73C143.25 34.6 143.34 34.47 143.47 34.42L147.96 33.27C148.09 33.23 148.27 33.31 148.31 33.49C148.44 34.02 148.66 34.46 148.93 34.81C149.41 35.74 150.38 36.35 151.49 36.35C152.99 36.35 154.22 35.16 154.31 33.66C154.4 32.03 153.08 30.66 151.49 30.66H150.26C150.13 30.66 150 30.53 150 30.4L149.96 27.18C149.96 27 150.09 26.92 150.22 26.92H151.41C152.69 26.92 153.7 25.86 153.7 24.63C153.7 23.26 152.51 22.16 151.1 22.34C150.79 22.38 150.53 22.47 150.26 22.6L150.13 22.64C150.04 22.68 149.91 22.77 149.78 22.95C149.56 23.13 149.43 23.35 149.3 23.61C149.12 23.96 148.99 24.49 148.9 24.98C148.86 25.16 148.72 25.24 148.55 25.2L144.28 24.1C144.15 24.06 144.06 23.92 144.06 23.79C144.15 23.13 144.32 22.38 144.59 21.76C145.74 19.29 148.47 17.71 151.51 17.71C155.61 17.71 158.96 20.66 158.96 24.28V25.21C158.78 26.22 158.34 27.24 157.68 28.07C157.59 28.2 157.59 28.33 157.72 28.47L157.76 28.51C157.76 28.51 157.85 28.6 157.89 28.64C157.89 28.64 157.92 28.67 157.98 28.73C158.07 28.82 158.11 28.86 158.16 28.95C159.09 30.05 159.7 31.33 159.92 32.7V32.83C159.92 32.83 159.92 32.96 159.96 33.01C159.96 33.1 159.96 33.19 160 33.32V33.54C159.96 33.45 159.96 33.5 159.96 33.54Z" fill="white"/>
<path d="M77.91 52.3105C77.73 51.9105 77.65 51.4705 77.65 50.9905C77.65 50.5105 77.74 50.0605 77.91 49.6705C78.08 49.2805 78.31 48.9205 78.62 48.6105C78.93 48.3005 79.28 48.0805 79.72 47.9505C80.12 47.7705 80.6 47.7305 81.04 47.7305H81.97C82.45 47.7305 82.9 47.8205 83.29 47.9505C83.69 48.1305 84.08 48.3505 84.39 48.6105C84.7 48.9205 84.92 49.2705 85.1 49.6705C85.28 50.0705 85.36 50.5105 85.36 50.9905C85.36 51.4705 85.27 51.9205 85.1 52.3105C84.93 52.7005 84.7 53.0605 84.39 53.3705C84.08 53.6805 83.73 53.9005 83.29 54.0305C82.89 54.2105 82.41 54.2505 81.97 54.2505H81.04C80.56 54.2505 80.11 54.1605 79.72 54.0305C79.32 53.8505 78.93 53.6305 78.62 53.3705C78.31 53.0605 78.05 52.7105 77.91 52.3105ZM78.88 50.9505C78.88 51.5705 79.06 52.1005 79.45 52.4905C79.84 52.8805 80.33 53.1105 80.95 53.1105H82.05C82.27 53.1105 82.49 53.0705 82.71 53.0205C82.93 52.9305 83.19 52.8005 83.42 52.6205C83.65 52.4405 83.82 52.1805 83.95 51.8705C84.08 51.5605 84.13 51.2505 84.13 50.9905C84.13 50.7705 84.09 50.5105 84.04 50.2805C83.99 50.0505 83.86 49.8005 83.64 49.5705C83.46 49.3505 83.2 49.1705 82.93 49.0405C82.62 48.9105 82.36 48.8605 82.05 48.8605H80.95C80.64 48.8605 80.38 48.9005 80.11 48.9905C79.84 49.0805 79.63 49.2505 79.45 49.4305C79.27 49.6105 79.1 49.8305 79.01 50.0905C78.92 50.3505 78.88 50.6205 78.88 50.9305V50.9505Z" fill="white"/>
<path d="M90.29 54.2496H89.06V47.6396H93.55C93.9 47.6396 94.21 47.6796 94.52 47.8196C94.83 47.9496 95.09 48.0796 95.31 48.2996C95.53 48.5196 95.71 48.7796 95.84 49.0496C95.97 49.3596 96.02 49.6696 96.02 50.0196C96.02 50.4996 95.89 50.9496 95.62 51.3396C95.35 51.7296 95 51.9996 94.61 52.1796L96.33 54.2496H94.74L93.29 52.3997H90.34V54.2496H90.3H90.29ZM90.29 48.8297V51.3396H93.59C93.94 51.3396 94.25 51.2097 94.47 50.9897C94.69 50.7697 94.82 50.4597 94.82 50.0597C94.82 49.8797 94.78 49.7096 94.69 49.5296C94.6 49.3496 94.47 49.1796 94.29 49.0496C94.07 48.9196 93.85 48.8297 93.58 48.8297H90.28H90.29Z" fill="white"/>
<path d="M99.94 54.2496V47.6396H101.17V54.2496H99.94Z" fill="white"/>
<path d="M105.19 52.3105C105.01 51.9105 104.93 51.4705 104.93 50.9905C104.93 50.5105 105.02 50.0605 105.19 49.6705C105.36 49.2805 105.59 48.9205 105.9 48.6105C106.21 48.3005 106.56 48.0805 107 47.9505C107.4 47.7705 107.88 47.7305 108.32 47.7305H111.76V49.3605H110.57V48.9205H108.23C107.92 48.9205 107.66 48.9605 107.39 49.0505C107.12 49.1405 106.91 49.3105 106.73 49.4905C106.55 49.6705 106.38 49.8905 106.29 50.1505C106.2 50.4105 106.11 50.6805 106.11 50.9905C106.11 51.3905 106.2 51.7405 106.37 52.0905C106.54 52.4405 106.81 52.7105 107.12 52.8805C107.47 53.0605 107.83 53.1405 108.18 53.1405H110.52V51.4205H107.96V50.4105H111.66V54.2405H108.22C107.74 54.2405 107.29 54.1505 106.9 54.0205C106.5 53.8405 106.11 53.6205 105.8 53.3605C105.58 53.0505 105.36 52.7005 105.18 52.3005L105.19 52.3105Z" fill="white"/>
<path d="M115.72 54.2496V47.6396H116.95V54.2496H115.72Z" fill="white"/>
<path d="M122.15 54.2498H120.96V48.1698C120.96 47.9898 121 47.8598 121.09 47.7698C121.18 47.6798 121.31 47.6398 121.53 47.6398H121.84C121.97 47.6398 122.1 47.6398 122.19 47.6798C122.32 47.7198 122.41 47.8098 122.54 47.9398L126.68 52.2998V47.5898H127.87V53.7598C127.87 54.0698 127.74 54.2398 127.43 54.2398H127.17C127.04 54.2398 126.95 54.2398 126.86 54.1998C126.77 54.1598 126.64 54.0698 126.46 53.8898L122.1 49.3098V54.2498H122.14H122.15Z" fill="white"/>
<path d="M132.73 54.2496H131.36L134.89 47.9897C134.93 47.8997 135.02 47.8096 135.15 47.7296C135.28 47.6496 135.37 47.6396 135.46 47.6396H135.72C135.85 47.6396 135.94 47.6796 136.03 47.7296C136.12 47.7696 136.21 47.8597 136.25 47.9897L139.78 54.2496H138.46L137.8 53.0196H133.35L132.73 54.2496ZM133.96 52.0496H137.26L135.59 49.0496L133.96 52.0496Z" fill="white"/>
<path d="M148.94 54.2496H143.3V47.6396H144.53V53.0597H148.94V54.2496Z" fill="white"/>
<path d="M152.38 50.3297C152.29 50.0697 152.2 49.7996 152.2 49.5396C152.2 48.9697 152.38 48.5296 152.73 48.1696C153.08 47.8196 153.57 47.6396 154.14 47.6396H159.12V48.8297H154.18C153.96 48.8297 153.78 48.9196 153.65 49.0496C153.52 49.1796 153.43 49.3996 153.43 49.6196C153.43 49.8396 153.52 50.0596 153.65 50.1896C153.78 50.3196 153.96 50.4096 154.18 50.4096H157.26C157.52 50.4096 157.79 50.4497 158.01 50.5396C158.23 50.6296 158.41 50.7196 158.58 50.8496C158.75 50.9796 158.89 51.1596 159.02 51.4196C159.15 51.6796 159.24 51.9496 159.24 52.2996C159.24 52.5596 159.2 52.8296 159.11 53.0496C159.02 53.2696 158.93 53.4496 158.76 53.6196C158.63 53.7996 158.41 53.9297 158.14 54.0597C157.87 54.1897 157.57 54.2397 157.21 54.2397H152.23V53.0496H157.17C157.39 53.0496 157.61 52.9597 157.74 52.8297C157.87 52.6997 157.96 52.4796 157.96 52.2096C157.96 51.9396 157.87 51.7696 157.74 51.5896C157.61 51.4596 157.39 51.3696 157.17 51.3696H154.09C153.87 51.3696 153.69 51.3296 153.47 51.2796C153.25 51.2396 153.03 51.0996 152.81 50.9296C152.63 50.7996 152.46 50.5797 152.37 50.3097L152.38 50.3297Z" fill="white"/>
<defs>
<linearGradient id="paint0_linear_9702_32" x1="51.85" y1="25.7301" x2="51.85" y2="19.6201" gradientUnits="userSpaceOnUse">
<stop offset="0.22" stop-color="#72DB45"/>
<stop offset="1" stop-color="#74B000"/>
</linearGradient>
<linearGradient id="paint1_linear_9702_32" x1="16.84" y1="27.2602" x2="16.84" y2="24.2602" gradientUnits="userSpaceOnUse">
<stop stop-color="#E7BD00"/>
<stop offset="1" stop-color="#E7A100"/>
</linearGradient>
<linearGradient id="paint2_linear_9702_32" x1="11.84" y1="30.8998" x2="11.84" y2="26.7498" gradientUnits="userSpaceOnUse">
<stop stop-color="#E7BD00"/>
<stop offset="1" stop-color="#E7A100"/>
</linearGradient>
<linearGradient id="paint3_linear_9702_32" x1="20.96" y1="33.0304" x2="20.96" y2="25.8704" gradientUnits="userSpaceOnUse">
<stop stop-color="#E7BD00"/>
<stop offset="1" stop-color="#E7A100"/>
</linearGradient>
<linearGradient id="paint4_linear_9702_32" x1="17.37" y1="33.1903" x2="17.37" y2="28.0403" gradientUnits="userSpaceOnUse">
<stop stop-color="#E7BD00"/>
<stop offset="1" stop-color="#E7A100"/>
</linearGradient>
<linearGradient id="paint5_linear_9702_32" x1="9.81" y1="40.3496" x2="9.81" y2="31.3296" gradientUnits="userSpaceOnUse">
<stop stop-color="#E7BD00"/>
<stop offset="1" stop-color="#E7A100"/>
</linearGradient>
<linearGradient id="paint6_linear_9702_32" x1="24.75" y1="41.1596" x2="24.75" y2="35.3296" gradientUnits="userSpaceOnUse">
<stop stop-color="#E7BD00"/>
<stop offset="1" stop-color="#E7A100"/>
</linearGradient>
<linearGradient id="paint7_linear_9702_32" x1="25.43" y1="37.8104" x2="25.43" y2="30.1004" gradientUnits="userSpaceOnUse">
<stop stop-color="#E7BD00"/>
<stop offset="1" stop-color="#E7A100"/>
</linearGradient>
<linearGradient id="paint8_linear_9702_32" x1="31.21" y1="67.5598" x2="31.21" y2="12.2798" gradientUnits="userSpaceOnUse">
<stop stop-color="#E7BD00"/>
<stop offset="1" stop-color="#E7A100"/>
</linearGradient>
<linearGradient id="paint9_linear_9702_32" x1="17.57" y1="43.7596" x2="17.57" y2="35.3296" gradientUnits="userSpaceOnUse">
<stop stop-color="#E7BD00"/>
<stop offset="1" stop-color="#E7A100"/>
</linearGradient>
<linearGradient id="paint10_linear_9702_32" x1="16.1" y1="40.97" x2="16.1" y2="31.33" gradientUnits="userSpaceOnUse">
<stop stop-color="#E7BD00"/>
<stop offset="1" stop-color="#E7A100"/>
</linearGradient>
<linearGradient id="paint11_linear_9702_32" x1="50.66" y1="54.27" x2="50.66" y2="53.18" gradientUnits="userSpaceOnUse">
<stop stop-color="#E7BD00"/>
<stop offset="1" stop-color="#E7A100"/>
</linearGradient>
<linearGradient id="paint12_linear_9702_32" x1="51.74" y1="53.1698" x2="51.74" y2="52.0898" gradientUnits="userSpaceOnUse">
<stop stop-color="#E7BD00"/>
<stop offset="1" stop-color="#E7A100"/>
</linearGradient>
<linearGradient id="paint13_linear_9702_32" x1="51.76" y1="55.3502" x2="51.76" y2="54.2602" gradientUnits="userSpaceOnUse">
<stop stop-color="#E7BD00"/>
<stop offset="1" stop-color="#E7A100"/>
</linearGradient>
<linearGradient id="paint14_linear_9702_32" x1="45.3" y1="55.9096" x2="45.3" y2="51.5796" gradientUnits="userSpaceOnUse">
<stop stop-color="#E7BD00"/>
<stop offset="1" stop-color="#E7A100"/>
</linearGradient>
<linearGradient id="paint15_linear_9702_32" x1="52.82" y1="54.2596" x2="52.82" y2="53.1796" gradientUnits="userSpaceOnUse">
<stop stop-color="#E7BD00"/>
<stop offset="1" stop-color="#E7A100"/>
</linearGradient>
</defs>
</svg>
