<svg width="160" height="80" viewBox="0 0 160 80" fill="none" xmlns="http://www.w3.org/2000/svg">
<path d="M53.6875 64.3004C53.5401 63.9971 53.2821 63.6575 53.0242 63.4635C52.8031 63.2937 52.3977 63.0753 51.7466 63.0753C50.6288 63.0753 49.8426 63.7667 49.8426 64.8098C49.8426 65.2464 49.9655 65.5011 50.2726 65.7801C50.6165 66.1197 51.0342 66.3016 51.4641 66.4836L52.5574 66.9566C53.2207 67.2477 53.8349 67.5509 54.314 68.0118C54.8914 68.5819 55.137 69.2368 55.137 70.0495C55.137 72.1114 53.5893 73.4941 51.5501 73.4941C50.8008 73.4941 49.8672 73.3485 49.081 72.5844C48.4914 72.0507 48.1474 71.2745 48 70.5953L49.2284 70.2557C49.3144 70.8378 49.5846 71.3473 49.904 71.6869C50.3954 72.172 50.9605 72.3054 51.5378 72.3054C53.0856 72.3054 53.8226 71.2138 53.8226 70.0858C53.8226 69.5764 53.6752 69.1398 53.2576 68.7759C52.9382 68.4727 52.496 68.2665 51.894 67.9997L50.8745 67.5267C50.4322 67.3205 49.8672 67.09 49.3635 66.6049C48.8722 66.1318 48.5774 65.6103 48.5774 64.7734C48.5774 63.039 49.9163 61.8867 51.7589 61.8867C52.4591 61.8867 53.0242 62.0201 53.577 62.3961C54.0315 62.6994 54.4246 63.1481 54.6825 63.6454L53.6875 64.3004ZM61.3896 63.2573V73.3H60.1244V63.2573H57.3605V62.0808H64.1413V63.2573H61.3896ZM68.9812 68.9579C68.9812 69.9039 68.9812 70.9227 69.8902 71.6869C70.3447 72.075 71.1309 72.3297 71.7574 72.3297C72.3839 72.3297 73.1701 72.075 73.6246 71.6869C74.5336 70.9349 74.5336 69.9039 74.5336 68.9579V62.0808H75.7988V69.2975C75.7988 70.2435 75.7006 71.1411 75.0864 71.9901C74.4107 72.9119 73.2192 73.5062 71.7697 73.5062C70.3202 73.5062 69.1286 72.924 68.453 71.9901C67.8388 71.1532 67.7405 70.2435 67.7405 69.2975V62.0808H69.0058L68.9812 68.9579ZM80.5896 62.0808H82.9113C84.0537 62.0808 85.6752 62.2021 87.1002 63.3907C88.1443 64.2519 89.0411 65.6831 89.0411 67.6965C89.0411 70.0495 87.8618 71.3109 87.0511 72.0022C86.0069 72.8755 84.9259 73.3 82.899 73.3H80.6019V62.0808H80.5896ZM81.8549 72.1114H82.9605C83.8695 72.1114 85.1102 72.0143 86.2157 71.1047C87.0633 70.4012 87.7512 69.2853 87.7512 67.6965C87.7512 65.0038 85.8472 63.2573 82.9605 63.2573H81.8549V72.1114ZM94.4952 62.0808V73.3H93.2299V62.0808H94.4952ZM98.6718 67.6965C98.6718 64.3489 101.313 61.8988 104.58 61.8988C107.848 61.8988 110.489 64.3489 110.489 67.6965C110.489 71.0319 107.86 73.4941 104.58 73.4941C101.301 73.4941 98.6718 71.0198 98.6718 67.6965ZM99.9739 67.6965C99.9739 70.2678 102.038 72.3176 104.593 72.3176C107.148 72.3176 109.212 70.2678 109.212 67.6965C109.212 65.1251 107.148 63.0753 104.593 63.0753C102.038 63.0753 99.9739 65.1251 99.9739 67.6965Z" fill="white"/>
<path d="M60.8 7.00355V30.2668H55.3704V7.00355H60.8ZM53.7244 6.96717V30.2668H48.2948V6.96717H53.7244ZM105.084 6.95504V21.0124C105.084 21.0124 96.0676 11.0061 94.8269 9.8781C92.4069 7.67064 89.3727 6.49414 85.7121 6.49414C81.0196 6.49414 78.0837 8.33773 76.4867 9.91449C74.3739 12.0007 72.8507 15.3846 72.8507 18.7322C72.8507 22.1525 74.2633 25.2818 76.5236 27.3801C78.2925 29.0539 81.2898 30.8004 85.6998 30.8004C89.6553 30.8004 92.6157 29.4784 94.8023 27.3801C96.5343 25.7184 97.6153 23.705 98.119 21.6189L105.772 30.2668H110.391V6.95504H105.084ZM90.8468 23.8506C89.7167 24.9664 88.0215 25.8397 85.6261 25.8397C83.7958 25.8397 82.1006 25.3546 80.5773 23.9234C79.1278 22.5285 78.4276 20.8184 78.4276 18.6958C78.4276 16.1124 79.4841 14.4143 80.5159 13.4319C81.7812 12.1826 83.6238 11.4427 85.6752 11.4427C87.8249 11.4427 89.7044 12.316 90.8591 13.4319C91.9155 14.475 92.9105 16.2579 92.9105 18.6594C92.8983 21.3399 91.7681 22.9773 90.8468 23.8506Z" fill="white"/>
<path d="M67.4088 20.7334C68.711 20.4181 69.8779 19.7267 70.6887 18.9626C72.2119 17.495 72.519 15.6878 72.519 14.2323C72.519 11.6489 71.4626 9.95084 70.4676 9.00478C69.3374 7.9617 67.4703 6.94287 64.4607 6.94287H55.3705V11.0667H62.9252C63.6376 11.0667 65.038 11.0788 65.9225 11.7459C66.377 12.0977 67.0158 12.886 67.0158 14.2081C67.0158 15.3603 66.5244 16.0395 66.1313 16.4155C65.21 17.3252 63.871 17.3737 62.8883 17.3737H61.6353V21.1337L68.0108 30.2303H74.6442L67.4088 20.7334ZM99.5931 44.9063V49.5153H105.723C105.231 51.3346 104.114 52.2807 103.929 52.4262C103.364 52.9114 102.062 53.7483 99.5808 53.7483C97.6768 53.7483 96.0184 53.2631 94.5321 51.8198C92.6649 50.0247 92.0138 47.793 91.7067 46.0343C92.0015 44.2756 92.6649 42.0439 94.5321 40.2488C96.0307 38.8055 97.6768 38.3324 99.5808 38.3324C102.05 38.3324 103.364 39.1936 103.929 39.6666C104.101 39.8 105.023 40.6005 105.563 42.0803L110.428 39.7515C109.863 38.5629 109.138 37.447 108.229 36.5252C105.453 33.675 102.283 33.1655 99.3351 33.1655C96.3378 33.1655 93.1194 33.6507 90.1958 36.6101C89.8027 36.9983 89.3605 37.5077 88.9305 38.1263C88.9305 38.1263 88.9305 38.1263 88.9182 38.1141V38.1384L88.8937 38.1748C88.5374 37.6411 88.1443 37.1681 87.7267 36.7678C85.2207 34.3663 81.9655 33.1777 78.0714 33.1777C73.0964 33.1777 69.9885 35.1425 68.2933 36.8042C67.8879 37.2045 67.4948 37.7381 67.1386 38.3567L67.0895 38.2718C66.7701 37.8715 66.4261 37.5198 66.0576 37.1681C62.9866 34.245 59.5102 33.7841 56.2058 33.7841H48.2457V58.4058H56.3777C58.4783 58.4058 62.7777 58.1511 66.2296 54.7064C66.4998 54.4396 66.7578 54.1606 67.0035 53.8574C67.3966 54.3911 67.8265 54.8763 68.281 55.325C69.9639 56.9867 73.0718 58.9516 78.0591 58.9516C81.9532 58.9516 85.2085 57.7629 87.7144 55.3614C88.1321 54.9612 88.5252 54.476 88.8814 53.9545C88.8937 53.9666 88.8937 53.9787 88.906 53.9908V54.0151C88.906 54.0151 88.906 54.0151 88.9182 54.003C89.3605 54.6215 89.8027 55.1188 90.1835 55.5191C93.1071 58.4785 96.3255 58.9637 99.3228 58.9637C102.283 58.9637 105.416 58.4421 108.192 55.604C110.968 52.7658 112 48.2054 112 45.2095V44.9427L99.5931 44.9063ZM63.6991 47.6959C63.4657 48.3388 62.7777 50.6311 61.2914 51.8804C59.4242 53.4329 56.7954 53.5178 55.6039 53.5178H54.0192V38.478H55.5916C57.3482 38.478 59.7804 38.757 61.6599 40.6005C62.6303 41.5587 63.5271 43.3174 63.8956 45.9009C63.9325 46.1556 63.9693 46.4103 64.0184 46.6529C63.8956 47.1016 63.785 47.4534 63.6991 47.6959ZM84.7171 49.9762C84.3609 50.619 83.9555 51.1527 83.5255 51.5651C82.2849 52.7537 80.3071 53.6755 78.0223 53.6755C75.848 53.6755 73.9071 52.8992 72.5559 51.5651C72.2856 51.3104 72.0154 51.0071 71.7697 50.6554H71.782C71.782 50.6554 70.6273 49.018 69.8779 46.0343C70.6273 43.0627 71.782 41.4132 71.782 41.4132H71.7697C72.0277 41.0614 72.2856 40.7582 72.5559 40.5035C73.9071 39.1693 75.848 38.3931 78.0223 38.3931C80.3071 38.3931 82.2971 39.3149 83.5255 40.5035C83.9555 40.928 84.3731 41.4617 84.7171 42.0924C85.0365 42.6261 85.663 43.7177 86.0192 45.2338C86.0806 45.5006 86.142 45.7675 86.2035 46.0343C86.142 46.3011 86.0929 46.568 86.0192 46.8348C85.6507 48.3509 85.0365 49.4425 84.7171 49.9762Z" fill="white"/>
<path d="M98.119 21.6798L91.3505 13.9658C91.3505 13.9658 94.5935 18.2109 91.633 22.9048L94.2618 27.817C94.2495 27.817 97.2345 25.6217 98.119 21.6798Z" fill="url(#paint0_linear_652_1252)"/>
<path d="M61.7458 21.2671C61.7458 21.2671 64.2272 21.7159 67.4457 20.8184L74.6564 30.3517H68.023L61.7458 21.2671Z" fill="url(#paint1_linear_652_1252)"/>
<path d="M91.5839 45.1853C91.6207 45.4522 91.6576 45.7433 91.7067 46.0465C92.0015 44.2878 92.6649 42.0561 94.532 40.261C96.0307 38.8177 97.6768 38.3446 99.5808 38.3446C102.05 38.3446 103.364 39.2058 103.929 39.6788C104.101 39.8122 105.023 40.6127 105.563 42.0925L110.428 39.7637C109.863 38.5751 109.138 37.4592 108.229 36.5374C105.453 33.6871 102.283 33.1777 99.3351 33.1777C96.3378 33.1777 93.1194 33.6629 90.1958 36.6223C89.8027 37.0105 89.3604 37.5199 88.9305 38.1385C88.9305 38.1385 88.9305 38.1385 88.9182 38.1263V38.1506L88.8936 38.187C90.38 40.3702 91.3259 43.4509 91.5839 45.1853Z" fill="url(#paint2_linear_652_1252)"/>
<path d="M86.7194 48.5815C86.5351 47.7325 86.3877 46.8956 86.2034 46.0465C86.142 46.3134 86.0929 46.5802 86.0192 46.847C85.6507 48.3632 85.0364 49.4548 84.7171 49.9884C84.3608 50.6313 83.9555 51.1649 83.5255 51.5773C82.2848 52.7659 80.3071 53.6877 78.0222 53.6877C75.848 53.6877 73.9071 52.9115 72.5558 51.5773C72.2856 51.3226 72.0153 51.0194 71.7697 50.6676H71.7819C71.7819 50.6676 70.6272 49.0302 69.8779 46.0465C69.6322 45.0641 69.5339 43.4267 69.1654 42.1289L64.3009 47.7203C65.1608 50.6313 66.5735 53.615 68.3055 55.313C69.9885 56.9747 73.0963 58.9395 78.0837 58.9395C81.9777 58.9395 85.233 57.7509 87.7389 55.3494C88.1566 54.9491 88.5497 54.464 88.9059 53.9424C87.9846 52.6446 87.2107 50.8496 86.7194 48.5815Z" fill="url(#paint3_linear_652_1252)"/>
<path d="M99.5931 44.9066V49.5156H105.723C105.231 51.3349 104.114 52.281 103.929 52.4265C103.364 52.9117 102.062 53.7486 99.5808 53.7486C97.6767 53.7486 96.0184 53.2634 94.532 51.8201C92.3455 49.7097 91.8172 47.0049 91.5838 45.1735C91.2767 43.0145 89.8886 38.8058 87.7144 36.7318C85.2084 34.3302 81.9531 33.1416 78.0591 33.1416C73.084 33.1416 69.9762 35.1065 68.281 36.7681C67.8633 37.1805 67.4948 37.7385 67.114 38.2843C67.114 38.2843 67.8019 39.3152 68.4161 40.892C69.1286 42.7234 69.7182 45.4646 69.8533 46.0225C70.6027 43.0509 71.7574 41.4014 71.7574 41.4014H71.7451C72.003 41.0496 72.261 40.7464 72.5313 40.4917C73.8825 39.1575 75.8234 38.3813 77.9977 38.3813C80.2825 38.3813 82.2725 39.3031 83.5009 40.4917C83.9309 40.9162 84.3485 41.4499 84.6925 42.0806C85.0119 42.6143 85.6384 43.7059 85.9946 45.222C86.2648 46.3378 86.4491 47.4537 86.6948 48.5574C87.0756 50.8862 87.9723 52.657 88.8813 53.9427V53.9669C88.8813 53.9669 88.8813 53.9669 88.8936 53.9548C89.3359 54.5734 89.7781 55.0706 90.1589 55.4709C93.0825 58.4303 96.3009 58.9155 99.2982 58.9155C102.259 58.9155 105.391 58.394 108.167 55.5558C110.944 52.7176 111.975 48.1572 111.975 45.1613V44.8945L99.5931 44.9066Z" fill="url(#paint4_linear_652_1252)"/>
<path d="M63.699 47.6965C63.4656 48.3393 62.7777 50.6317 61.2913 51.881C59.4242 53.4335 56.7954 53.5184 55.6038 53.5184H55.4564C54.9282 55.1194 54.6457 56.7083 54.572 58.3699H56.39C58.4906 58.3699 62.79 58.1152 66.2418 54.6706C66.5121 54.4038 66.77 54.1248 67.0157 53.8216C65.5294 51.8203 64.5098 49.3339 64.0307 46.6655C63.8956 47.1022 63.785 47.4539 63.699 47.6965Z" fill="url(#paint5_linear_652_1252)"/>
<path d="M99.5931 44.9067V49.5157H105.723C105.231 51.335 104.114 52.2811 103.929 52.4266C103.364 52.9118 102.062 53.7487 99.5808 53.7487C97.6767 53.7487 96.0184 53.2635 94.532 51.8202C92.6648 50.0251 92.0138 47.7934 91.7067 46.0347C91.6575 46.3379 91.6084 46.6169 91.5838 46.8837C91.3382 48.6182 90.3923 51.6989 88.8813 53.9185C88.8936 53.9306 88.8936 53.9428 88.9059 53.9549V53.9791C88.9059 53.9791 88.9059 53.9791 88.9182 53.967C89.3604 54.5856 89.8027 55.0829 90.1835 55.4831C93.1071 58.4426 96.3255 58.9277 99.3228 58.9277C102.283 58.9277 105.416 58.4062 108.192 55.568C110.968 52.7177 112 48.1694 112 45.1736V44.9067H99.5931Z" fill="white"/>
<path d="M55.3704 11.0791H60.8V15.2514H55.3704V11.0791Z" fill="url(#paint6_linear_652_1252)"/>
<defs>
<linearGradient id="paint0_linear_652_1252" x1="91.7657" y1="21.9545" x2="98.1387" y2="15.5" gradientUnits="userSpaceOnUse">
<stop stop-opacity="0"/>
<stop offset="1" stop-opacity="0.5"/>
</linearGradient>
<linearGradient id="paint1_linear_652_1252" x1="68.0919" y1="25.7929" x2="62.7222" y2="18.0491" gradientUnits="userSpaceOnUse">
<stop stop-opacity="0"/>
<stop offset="1" stop-opacity="0.5"/>
</linearGradient>
<linearGradient id="paint2_linear_652_1252" x1="99.6667" y1="38.6762" x2="84.3558" y2="51.9678" gradientUnits="userSpaceOnUse">
<stop stop-opacity="0"/>
<stop offset="1" stop-opacity="0.5"/>
</linearGradient>
<linearGradient id="paint3_linear_652_1252" x1="77.3421" y1="49.8043" x2="86.6201" y2="40.4075" gradientUnits="userSpaceOnUse">
<stop stop-opacity="0"/>
<stop offset="1" stop-opacity="0.5"/>
</linearGradient>
<linearGradient id="paint4_linear_652_1252" x1="78.1705" y1="46.0401" x2="57.6997" y2="46.0401" gradientUnits="userSpaceOnUse">
<stop stop-opacity="0"/>
<stop offset="1" stop-opacity="0.5"/>
</linearGradient>
<linearGradient id="paint5_linear_652_1252" x1="59.1252" y1="55.3212" x2="68.818" y2="47.7224" gradientUnits="userSpaceOnUse">
<stop stop-opacity="0"/>
<stop offset="1" stop-opacity="0.5"/>
</linearGradient>
<linearGradient id="paint6_linear_652_1252" x1="58.0877" y1="15.0719" x2="58.0877" y2="9.25006" gradientUnits="userSpaceOnUse">
<stop stop-opacity="0"/>
<stop offset="1" stop-opacity="0.5"/>
</linearGradient>
</defs>
</svg>
