<svg width="100" height="100" viewBox="0 0 100 100" fill="none" xmlns="http://www.w3.org/2000/svg">
<path d="M1.18006 50.0099C1.18006 37.8699 1.18006 25.7299 1.18006 13.5999C1.18006 5.4199 6.28006 0.369898 14.4401 0.379898C30.0501 0.389898 45.6501 0.379898 61.2601 0.379898C69.6101 0.379898 74.6801 5.3799 74.6801 13.6699C74.6801 37.8699 74.6601 62.0799 74.6901 86.2799C74.6901 91.0099 73.2501 95.0799 69.0901 97.5299C67.1301 98.6899 64.6301 99.4799 62.3701 99.4999C46.0401 99.6599 29.7101 99.6399 13.3801 99.5699C6.31006 99.5399 1.21006 94.2599 1.18006 87.0799C1.13006 74.7299 1.17006 62.3699 1.16006 50.0099H1.18006ZM71.8701 50.0999C71.8701 37.9599 71.8701 25.8299 71.8701 13.6899C71.8701 7.3999 67.9301 3.2899 61.6801 3.2699C45.8601 3.2199 30.0401 3.2299 14.2201 3.2699C7.97006 3.2899 3.94006 7.3999 3.94006 13.6499C3.92006 37.8499 3.93006 62.0499 3.94006 86.2499C3.94006 92.4399 7.81006 96.5999 13.9601 96.6399C29.9201 96.7399 45.8901 96.7399 61.8501 96.6399C68.0601 96.5999 71.8601 92.4999 71.8701 86.2899C71.8701 74.2299 71.8701 62.1599 71.8701 50.0999Z" fill="white"/>
<path d="M91.7 59.37H84.46V36H91.7V59.37Z" fill="white"/>
<path d="M45.3401 37.98V8.84005C41.0201 8.84005 36.7901 8.88005 32.5601 8.82005C30.8601 8.80005 30.4201 9.50005 30.4201 11.17C30.4901 25.05 30.4201 38.92 30.5201 52.8C30.5201 53.78 31.1601 54.95 31.8601 55.69C34.0901 58.04 36.7701 60.0201 38.7401 62.5601C40.2201 64.4701 41.4001 66.93 41.7801 69.29C42.2901 72.53 41.9501 75.92 41.9001 79.24C41.8701 81.46 40.7501 82.35 38.1501 82.34C35.5301 82.34 34.3801 81.47 34.3501 79.27C34.3001 74.86 34.3301 70.4501 34.3301 66.0401C34.3301 64.1001 34.3301 62.1701 34.3301 60.18H30.4501C30.4501 71.1801 30.4401 82.02 30.4901 92.85C30.4901 93.33 31.0201 94.17 31.3801 94.22C36.0201 94.82 40.6701 95.0201 45.4201 94.22V91.67C45.4201 76.64 45.3801 61.6 45.4701 46.57C45.4801 44.58 45.0001 43.2001 43.3701 42C37.3001 37.5201 34.5801 31.5 35.2801 23.9501C35.5301 21.26 36.7801 19.86 39.1001 19.97C41.2901 20.07 41.8901 20.91 41.8901 23.87C41.8901 28.55 41.8901 33.22 41.8901 37.98H45.3101H45.3401ZM52.0001 40.76L51.5101 41.0801V91.25C54.2601 90.44 56.8901 89.93 59.3101 88.91C65.3001 86.3901 68.3201 81.72 68.4001 75.21C68.4501 71.38 68.3701 67.5601 68.4201 63.73C68.4701 59.72 67.2701 56.1101 64.5501 53.2401C60.4901 48.9601 56.1901 44.91 52.0001 40.76ZM24.4401 6.66005C22.8701 7.10005 21.4601 7.41005 20.1101 7.89005C13.0701 10.37 9.77008 14.91 9.65008 22.33C9.60008 25.58 9.38008 28.8601 9.73008 32.07C10.0001 34.5 10.4301 37.3501 11.8801 39.1301C15.5701 43.66 19.8701 47.7001 23.9201 51.94L24.4401 51.53V6.66005ZM24.3701 91.64V57.75H9.82008C9.82008 65.2201 9.64008 72.51 9.90008 79.79C10.0201 83.15 11.9401 85.9 14.6901 87.95C17.5401 90.07 20.8101 91.1 24.3701 91.64ZM66.5601 34.7201C66.5601 28.9801 66.7501 23.49 66.5001 18.02C66.3001 13.61 64.0401 10.12 60.0601 8.15005C57.4501 6.86005 54.5601 6.14005 51.5501 5.08005V34.73H66.5601V34.7201ZM26.7801 50.1101C26.7801 64.4001 26.7801 78.7 26.7801 92.99C26.7801 93.5 26.7001 94.02 26.8101 94.5C26.8901 94.84 27.2201 95.1301 27.4401 95.44C27.7301 95.1301 28.1301 94.8501 28.2801 94.48C28.4301 94.1001 28.3101 93.6301 28.3101 93.19C28.3101 64.46 28.3101 35.72 28.3101 6.99005C28.3101 6.41005 28.3901 5.81005 28.2501 5.27005C28.1801 4.98005 27.7401 4.71005 27.4101 4.60005C27.3001 4.56005 26.8801 5.01005 26.8301 5.28005C26.7301 5.84005 26.7901 6.43005 26.7901 7.01005C26.7901 21.38 26.7901 35.7401 26.7901 50.1101H26.7801ZM47.6101 4.05005V6.80005C47.6101 35.61 47.6101 64.41 47.6101 93.22C47.6101 93.58 47.5301 93.97 47.6301 94.3C47.7601 94.7101 48.0501 95.0601 48.2701 95.44C48.5601 95.05 48.9201 94.69 49.1001 94.26C49.2301 93.96 49.1301 93.55 49.1301 93.19C49.1301 64.46 49.1301 35.72 49.1301 6.99005C49.1301 6.41005 49.2401 5.79005 49.0601 5.27005C48.9301 4.91005 48.4001 4.69005 47.6001 4.06005L47.6101 4.05005Z" fill="white"/>
<path d="M97.0299 63.0298C97.0699 61.1198 96.2499 60.4598 94.4299 60.5198C91.7599 60.5998 89.0899 60.5398 86.4199 60.5398C83.6799 60.5398 80.9299 60.5798 78.1899 60.5298C76.6599 60.4998 75.8899 61.1298 75.8899 62.6798C75.8899 66.5798 75.8999 70.4798 75.8899 74.3798C75.8899 75.9398 76.6399 76.5698 78.1699 76.5598C83.7299 76.5298 89.2899 76.5398 94.8499 76.5598C96.3999 76.5598 97.0499 75.8598 97.0299 74.3098C96.9799 70.5598 96.9599 66.7998 97.0399 63.0498L97.0299 63.0298ZM90.8799 63.2798H78.3099V62.8098H90.8999L90.8799 63.2798ZM94.1199 63.2798H92.1799V62.8098H94.1299V63.2798H94.1199Z" fill="white"/>
<path d="M45.34 37.98H41.9199C41.9199 33.23 41.9199 28.55 41.9199 23.87C41.9199 20.91 41.32 20.08 39.13 19.97C36.8 19.86 35.55 21.26 35.31 23.95C34.62 31.51 37.34 37.53 43.4 42C45.03 43.2 45.51 44.57 45.5 46.57C45.41 61.6 45.45 76.64 45.45 91.67V94.22C40.7 95.03 36.05 94.83 31.41 94.22C31.05 94.17 30.52 93.33 30.52 92.85C30.47 82.01 30.4799 71.18 30.4799 60.18H34.36C34.36 62.17 34.36 64.1 34.36 66.04C34.36 70.45 34.32 74.86 34.38 79.27C34.41 81.47 35.55 82.34 38.18 82.34C40.77 82.34 41.9 81.46 41.93 79.24C41.97 75.92 42.32 72.53 41.81 69.29C41.44 66.93 40.25 64.47 38.77 62.56C36.8 60.02 34.1199 58.04 31.8899 55.69C31.1899 54.95 30.5599 53.78 30.5499 52.8C30.4599 38.92 30.52 25.05 30.45 11.17C30.45 9.50999 30.88 8.79999 32.59 8.81999C36.82 8.86999 41.0399 8.83999 45.3699 8.83999V37.97L45.34 37.98Z" fill="white"/>
<path d="M51.99 40.76C56.19 44.91 60.49 48.96 64.54 53.24C67.26 56.11 68.46 59.73 68.41 63.73C68.36 67.56 68.43 71.38 68.39 75.21C68.31 81.72 65.29 86.38 59.3 88.91C56.88 89.93 54.25 90.44 51.5 91.25V41.08L51.99 40.76Z" fill="white"/>
<path d="M24.4401 6.65991V51.5299L23.9201 51.9399C19.8701 47.6999 15.5701 43.6699 11.8801 39.1299C10.4301 37.3499 10.0001 34.4999 9.73008 32.0699C9.38008 28.8599 9.60008 25.5799 9.65008 22.3299C9.77008 14.9099 13.0701 10.3599 20.1101 7.88991C21.4601 7.41991 22.8601 7.09991 24.4401 6.65991Z" fill="white"/>
<path d="M24.3699 91.6302C20.8099 91.0902 17.5399 90.0702 14.6899 87.9402C11.9399 85.8902 10.0199 83.1402 9.89988 79.7802C9.64988 72.5002 9.81988 65.2102 9.81988 57.7402H24.3699V91.6202V91.6302Z" fill="white"/>
<path d="M66.5701 34.7101H51.5601V5.07007C54.5701 6.13007 57.4601 6.85007 60.0701 8.14007C64.0401 10.1101 66.3101 13.6001 66.5101 18.0101C66.7501 23.4801 66.5701 28.9801 66.5701 34.7101Z" fill="white"/>
<path d="M26.79 50.0999C26.79 35.7299 26.79 21.3699 26.79 6.9999C26.79 6.4199 26.74 5.8299 26.83 5.2699C26.88 4.9999 27.3 4.5499 27.41 4.5899C27.74 4.6999 28.18 4.9699 28.25 5.2599C28.39 5.7999 28.31 6.3999 28.31 6.9799C28.31 35.7099 28.31 64.4499 28.31 93.1799C28.31 93.6099 28.42 94.0899 28.28 94.4699C28.14 94.8399 27.73 95.1099 27.44 95.4299C27.22 95.1199 26.89 94.8399 26.81 94.4899C26.7 94.0099 26.78 93.4899 26.78 92.9799C26.78 78.6899 26.78 64.3899 26.78 50.0999H26.79Z" fill="white"/>
<path d="M47.6101 4.05004C48.4001 4.68004 48.9401 4.90004 49.0701 5.26004C49.2501 5.78004 49.1401 6.40004 49.1401 6.98004C49.1401 35.71 49.1401 64.45 49.1401 93.18C49.1401 93.54 49.2501 93.95 49.1101 94.25C48.9201 94.68 48.5601 95.04 48.2801 95.43C48.0601 95.05 47.7701 94.69 47.6401 94.29C47.5301 93.96 47.6201 93.58 47.6201 93.21C47.6201 64.4 47.6201 35.6 47.6201 6.79004V4.04004L47.6101 4.05004Z" fill="white"/>
<path d="M88.0001 13.6299C82.0601 13.6699 77.3301 18.4599 77.3401 24.4099C77.3501 30.3499 82.1001 35.0999 88.0601 35.1199C94.0001 35.1399 98.8001 30.3999 98.8301 24.4599C98.8701 18.4199 94.0401 13.5899 88.0001 13.6299ZM88.5601 18.8599C88.5601 18.2399 89.0601 17.7499 89.6701 17.7499C90.2801 17.7499 90.7801 18.2499 90.7801 18.8599C90.7801 19.4699 90.2801 19.9699 89.6701 19.9699C89.0601 19.9699 88.5601 19.4699 88.5601 18.8599ZM92.7501 25.0599C91.2101 25.0599 89.9601 23.8099 89.9601 22.2699C89.9601 20.7299 91.2101 19.4799 92.7501 19.4799C94.2901 19.4799 95.5401 20.7299 95.5401 22.2699C95.5401 23.8099 94.2901 25.0599 92.7501 25.0599Z" fill="white"/>
</svg>
