<svg width="160" height="80" viewBox="0 0 160 80" fill="none" xmlns="http://www.w3.org/2000/svg">
<g clip-path="url(#clip0_8502_2)">
<path d="M12.75 29.04C6.9 29.04 0 31.66 0 40.17C0 48.68 6.9 51.3 12.75 51.3H19.2V40.14H14.88V47.01H12.75C7.18 47.01 4.6 44.57 4.6 40.14C4.6 36.48 7.14 33.34 13.52 33.34H19.2V29.05H12.75V29.04Z" fill="#3188FF"/>
<path d="M26.99 51.3002V45.2002H36.78V51.3002H41.1V37.4902C41.16 35.1502 40.23 32.8802 38.56 31.2502C36.85 29.5402 34.62 28.7002 31.87 28.7002C29.12 28.7002 26.96 29.5402 25.25 31.2502C23.56 32.8802 22.63 35.1502 22.67 37.4902V51.3002H26.99ZM26.99 37.3802C26.99 34.8702 28.8 32.9802 31.87 32.9802C34.94 32.9802 36.78 34.9702 36.78 37.7902V40.8602H26.99V37.3702V37.3802Z" fill="#3188FF"/>
<path d="M59.49 51.3V47.01H48.9V29.04H44.58V51.3H59.49Z" fill="#3188FF"/>
<path d="M82.8 51.3H87.82L92.73 43.38L97.26 51.3H102.28L95.76 39.89H95.27L95.83 39.23L102.28 29.04H97.26L92.52 36.51L87.82 29.04H82.8L89.63 39.89H89.98L89.39 40.66L82.81 51.3H82.8Z" fill="#3188FF"/>
<path d="M111.25 29.0403C105.92 29.0403 104.04 32.0703 104.04 35.4903C104.04 38.6603 105.47 42.0803 110.52 42.0803H113.62C115.85 42.0803 117.07 42.4603 117.07 44.5203C117.07 46.3703 115.85 47.0003 113.62 47.0003H105.01V51.2903H113.62C119.47 51.2903 121.22 48.9903 121.22 44.6603C121.22 41.4503 119.86 38.0003 113.9 38.0003H111.01C109.16 38.0003 108.19 37.5103 108.19 35.7303C108.19 34.0903 109.17 33.3203 111.05 33.3203H119.48V29.0303H111.26L111.25 29.0403Z" fill="#3188FF"/>
<path d="M141.08 29.04H136.48L131.15 39.89L125.82 29.04H121.22L129.06 44.04V51.3H133.38V44.04L141.08 29.04Z" fill="#3188FF"/>
<path d="M150.04 29.0403C144.71 29.0403 142.83 32.0703 142.83 35.4903C142.83 38.6603 144.26 42.0803 149.31 42.0803H152.41C154.64 42.0803 155.86 42.4603 155.86 44.5203C155.86 46.3703 154.64 47.0003 152.41 47.0003H143.8V51.2903H152.41C158.26 51.2903 160.01 48.9903 160.01 44.6603C160.01 41.4503 158.65 38.0003 152.69 38.0003H149.8C147.95 38.0003 146.98 37.5103 146.98 35.7303C146.98 34.0903 147.96 33.3203 149.84 33.3203H158.27V29.0303H150.05L150.04 29.0403Z" fill="#3188FF"/>
<path d="M66.52 51.3002V45.2002H76.31V51.3002H80.63V37.4902C80.69 35.1502 79.76 32.8802 78.09 31.2502C76.38 29.5402 74.15 28.7002 71.4 28.7002C68.65 28.7002 66.49 29.5402 64.78 31.2502C63.09 32.8802 62.16 35.1502 62.2 37.4902V51.3002H66.52ZM66.52 37.3902C66.52 34.8802 68.33 32.9902 71.4 32.9902C74.47 32.9902 76.31 34.9802 76.31 37.8002V40.8702H66.52V37.3802V37.3902Z" fill="#3188FF"/>
</g>
<defs>
<clipPath id="clip0_8502_2">
<rect width="160" height="80" fill="white"/>
</clipPath>
</defs>
</svg>
