<svg width="100" height="100" viewBox="0 0 100 100" fill="none" xmlns="http://www.w3.org/2000/svg">
<g clip-path="url(#clip0_9532_119)">
<path d="M76.2 45.85C76.22 45.07 76.18 43.43 73.29 43.27H67.52V48.28H73.75C73.75 48.28 76.24 48.06 76.21 45.86L76.2 45.85Z" fill="white"/>
<path d="M95.8301 44.1602C89.5701 41.3502 74.8101 34.8402 69.8801 32.6302C66.16 30.9702 62.0301 29.1002 58.2701 27.4102C55.0401 26.1002 51.9501 23.9102 48.3201 24.5502C39.4401 27.7302 34.0001 30.9602 18.9501 37.5302C13.6501 40.0002 7.93006 42.3302 2.89006 44.7602C-1.09994 47.2602 -0.769944 52.2702 2.69006 55.1002C3.49006 55.7102 3.84006 55.8202 4.73006 56.2202C8.68006 57.9902 12.7201 59.7602 17.1901 61.7602C24.8101 65.1402 35.8901 70.1402 42.3101 73.1102C45.2301 74.5402 48.6501 76.1802 52.0401 75.3102C56.9301 73.5602 73.9301 65.5902 86.0001 60.1302C88.8601 58.8202 91.7901 57.4802 94.5801 56.1802C96.3501 55.3002 97.9701 54.8102 98.8901 53.4102L98.9401 53.3302C101.36 49.8402 99.2501 45.6402 95.8201 44.1602H95.8301ZM29.8601 60.7302H25.5801V51.6502L17.8801 39.6502H22.8301L27.9501 47.8202L32.6301 39.6502H37.5601L29.8401 51.6502L29.8601 60.7302ZM46.0701 60.7302C39.0801 58.2402 38.7201 52.1202 38.7901 49.8302C39.5501 39.3802 47.4201 39.3402 50.0001 39.3302C57.3901 39.3702 58.2801 45.7602 58.2801 45.7602L53.9801 46.5602C53.5001 44.2202 51.4601 43.2202 50.8001 43.0302C45.2301 42.4802 44.1601 45.2702 43.3501 47.7302C42.5101 55.0302 45.3201 56.1902 46.3801 56.8502C51.2701 58.9302 54.2201 55.7102 54.2201 55.7102V53.1002L49.2901 53.0602L49.3301 49.5102L58.4801 49.5902L58.5201 57.9302C54.8401 61.5702 48.7301 61.1702 46.0701 60.7502V60.7302ZM77.1901 60.7302C77.1901 60.7302 72.6001 53.8902 71.4301 52.6602C70.2601 51.4302 67.6101 52.0302 67.6101 52.0302V60.7302H63.3201V39.6302C63.3201 39.6302 65.94 39.6802 73.6701 39.6302C80.7101 39.8502 80.5201 44.2702 80.6301 45.3902C80.8201 49.1602 77.8201 50.6302 75.3601 51.5302C77.8701 52.9002 82.2701 60.7202 82.2701 60.7202H77.1901V60.7302Z" fill="white"/>
</g>
<defs>
<clipPath id="clip0_9532_119">
<rect width="100" height="100" fill="white"/>
</clipPath>
</defs>
</svg>
