<svg width="48" height="48" viewBox="0 0 48 48" fill="none" xmlns="http://www.w3.org/2000/svg">
<g clip-path="url(#clip0_809_653)">
<path d="M45.5952 19.2526C46.9248 19.2526 48 18.1726 48 16.8382C48 15.5038 46.9248 14.4238 45.5952 14.4238C44.2656 14.4238 43.1904 15.5038 43.1904 16.8382C43.1904 18.1726 44.2656 19.2526 45.5952 19.2526Z" fill="white"/>
<path d="M45.5952 20.7215C44.9952 20.3759 44.2224 20.1167 43.4496 20.1167H43.1904V28.8287C43.1904 29.1743 43.1904 29.4335 43.2768 29.7791C43.704 32.0207 45.6816 33.6623 48 33.6623V24.9503C48 24.6047 48 24.3455 47.9136 23.9999C47.6544 22.6175 46.7952 21.4127 45.5952 20.7215Z" fill="white"/>
<path d="M11.8509 20.1167H9.18693C9.01413 20.1167 8.92773 20.2031 8.92773 20.3759C8.92773 20.4623 9.01413 20.5487 9.01413 20.5487C9.10053 20.6351 9.27333 20.6351 9.35973 20.7215C10.8189 21.5855 11.7645 23.1359 11.7645 24.8639V28.8335C11.7645 29.1791 11.7645 29.4383 11.8509 29.7839C12.2781 32.0255 14.2557 33.6671 16.5741 33.6671V24.9551C16.5741 24.6095 16.5741 24.3503 16.4877 24.0047C16.0605 21.7631 14.1693 20.1215 11.8509 20.1215V20.1167Z" fill="white"/>
<path d="M2.9184 14.3374H0.2592C0.0864 14.3374 0 14.4238 0 14.5966C0 14.683 0.0864 14.7694 0.0864 14.7694C0.3456 14.8558 0.432 14.9422 0.5136 15.0286C1.9728 15.8926 2.9184 17.443 2.9184 19.171V28.8334C2.9184 29.179 2.9184 29.4382 3.0048 29.7838C3.432 32.0254 5.4096 33.667 7.728 33.667V19.171C7.728 18.8254 7.728 18.5662 7.6416 18.2206C7.2144 16.0654 5.2368 14.3374 2.9184 14.3374Z" fill="white"/>
<path d="M28.5938 20.1167H23.7842C21.1202 20.1167 18.9746 22.2719 18.9746 24.9503V28.8335C18.9746 31.5071 21.1202 33.6671 23.7842 33.6671H28.5938C31.2578 33.6671 33.4034 31.5119 33.4034 28.8335V24.9503C33.4034 22.2767 31.2578 20.1167 28.5938 20.1167ZM28.5938 28.8335V30.2159C28.5938 31.3391 27.821 32.2847 26.789 32.5439C26.6162 32.6303 26.4434 32.6303 26.189 32.6303C26.0162 32.6303 25.7618 32.6303 25.589 32.5439C24.557 32.2847 23.7842 31.3343 23.7842 30.2159V23.4863C23.7842 22.3631 24.557 21.4175 25.589 21.1583C25.7618 21.0719 26.0162 21.0719 26.189 21.0719C26.4482 21.0719 26.6162 21.0719 26.789 21.1583C27.821 21.4175 28.5938 22.3679 28.5938 23.4863V28.8335Z" fill="white"/>
<path d="M43.3627 33.2306C43.1899 33.1442 43.1035 33.1442 43.0171 33.0578C41.5579 32.1938 40.6123 30.6434 40.6123 28.9154V19.1666C40.6123 18.821 40.6123 18.5618 40.5259 18.2162C40.0987 15.9746 38.1211 14.333 35.8027 14.333V28.829C35.8027 29.1746 35.8027 29.4338 35.8891 29.7794C36.3163 32.021 38.2939 33.6626 40.6123 33.6626H43.2763C43.4491 33.6626 43.5355 33.5762 43.5355 33.4034C43.4491 33.317 43.4491 33.2306 43.3627 33.2306Z" fill="white"/>
</g>
<defs>
<clipPath id="clip0_809_653">
<rect width="48" height="48" fill="white"/>
</clipPath>
</defs>
</svg>
