<svg width="100" height="100" viewBox="0 0 100 100" fill="none" xmlns="http://www.w3.org/2000/svg">
<path d="M81.517 40.0652C81.856 38.1907 82.0255 36.231 81.9407 34.2714C81.856 32.3969 81.517 30.6928 80.9238 28.9035C80.7543 28.4775 80.6695 28.4775 80.2458 28.6479C75.4152 31.6301 70.3303 33.7601 64.8217 35.0382C60.4995 36.0606 56.0926 36.1458 51.6858 35.5494C44.1432 34.6122 37.1091 32.2265 30.1598 29.3296C27.8716 28.3923 25.5834 27.5403 23.1258 27.2847C19.2274 26.8587 16.1764 29.3296 15.7527 33.2489C15.329 37.1683 15.9222 40.9172 16.9392 44.6662C18.2104 49.182 19.9901 53.5273 22.8715 57.2763C26.3462 61.8773 31.0073 64.7742 36.3464 66.5634C41.7703 68.3527 47.4484 68.7787 53.1265 68.3527C59.4826 67.9267 65.5844 66.4782 71.6015 64.5186C72.2795 64.263 72.788 63.9221 73.127 63.3257C74.2287 61.7069 74.8219 59.9176 75.4151 58.1283C75.4999 57.9579 75.5846 57.7023 75.6694 57.5319C75.5846 59.5768 75.0762 61.4512 74.4829 63.3257C73.8049 65.3706 73.8049 65.3706 71.771 66.2226C67.5336 68.0971 63.042 69.1195 58.4656 69.8012C50.4993 70.9088 42.533 70.9088 34.5667 70.568C29.9903 70.3976 25.4139 69.9716 21.0071 68.8639C19.8206 68.5231 18.7189 68.1823 17.7019 67.5859C16.6002 66.9043 16.4307 66.0522 17.3629 65.0298C17.9561 64.3482 19.3968 63.4109 20.2443 63.1553C20.2443 63.1553 20.2443 63.2405 20.1596 63.2405C18.7189 64.5186 19.0579 65.6262 20.7528 66.4782C22.5325 67.3303 24.4817 67.5007 26.3462 67.6711C27.0242 67.7563 27.6174 67.7563 28.4649 67.7563C27.7869 66.9043 27.1936 66.2226 26.5157 65.4558C23.041 61.366 19.9901 56.9355 17.6171 52.0789C15.2442 47.2223 13.7187 42.1101 13.1255 36.7423C12.8713 34.0157 12.7865 31.3744 13.4645 28.6479C14.3967 24.9842 16.3459 23.5357 20.3291 23.2801C23.4647 23.1097 26.5157 23.9617 29.4818 24.9842C34.3125 26.6883 39.0583 28.7331 43.889 30.5224C46.6856 31.5449 49.5671 32.4821 52.5332 32.9081C55.7537 33.4193 58.9741 33.4193 62.1945 33.0785C67.6184 32.3969 72.7032 30.6928 77.4491 27.7959C78.4661 27.1143 79.5678 26.4326 80.4153 25.6658C80.839 25.2398 81.0085 25.4102 81.178 25.8362C82.7035 28.8183 83.1272 32.0561 82.7882 35.379C82.6187 36.9979 82.2797 38.6167 81.7712 40.1504C81.517 40.406 81.4323 40.3208 81.517 40.0652Z" fill="white"/>
<path d="M43.211 70.9939C40.1601 70.9939 37.1939 70.9087 34.482 70.8235C30.4141 70.6531 25.5835 70.3122 20.8376 69.1194C19.7359 68.8638 18.5494 68.4378 17.5324 67.8413C16.9392 67.5005 16.6002 67.0745 16.6002 66.6485C16.5154 66.2225 16.7697 65.7113 17.1934 65.2C17.7867 64.5184 19.2274 63.5812 20.0749 63.3256L20.2444 63.2404L20.1596 63.4108C20.1596 63.4108 20.1596 63.496 20.0749 63.496C19.3969 64.0924 19.1426 64.6888 19.2274 65.2C19.3121 65.7113 19.8206 66.2225 20.6681 66.6485C22.4478 67.5005 24.3122 67.6709 26.2614 67.8413C26.6852 67.8413 27.1089 67.9266 27.6174 67.9266C27.7869 67.9266 28.0412 67.9266 28.2106 67.9266L27.6174 67.2449C27.1937 66.7337 26.7699 66.2225 26.3462 65.7965C22.6173 61.4511 19.7359 57.1057 17.4477 52.4195C14.99 47.3925 13.4645 42.2803 12.956 37.0829C12.7018 34.8676 12.5323 31.8855 13.295 28.9886C14.312 25.2396 16.2612 23.706 20.2444 23.4504C23.4648 23.28 26.5157 24.2172 29.3971 25.1544C32.109 26.0917 34.7362 27.1141 37.3634 28.1366C39.4821 28.9886 41.6008 29.8406 43.8042 30.6075C46.3467 31.5447 49.3129 32.5671 52.4485 32.9932C55.6689 33.5044 58.8894 33.5044 62.1098 33.1636C67.5336 32.4819 72.7033 30.6927 77.3644 27.881C78.2119 27.3697 79.3983 26.6029 80.3306 25.7509C80.5848 25.5805 80.6695 25.4953 80.839 25.4953C81.0085 25.4953 81.0933 25.6657 81.2628 25.9213C82.7035 28.8182 83.212 31.8855 82.9577 35.4641C82.7882 37.0829 82.4492 38.7018 81.9408 40.2354C81.856 40.2354 81.6865 40.3206 81.6018 40.2354C81.517 40.1502 81.6018 39.9798 81.6018 39.8946C81.9408 37.7645 82.1103 35.8901 82.0255 34.1008C81.9408 32.3115 81.6018 30.4371 81.0085 28.733C80.9238 28.5626 80.9238 28.4774 80.839 28.3922C80.7543 28.3922 80.6695 28.3922 80.5 28.4774C75.6694 31.4595 70.4151 33.6748 64.9912 34.8676C60.7538 35.8049 56.4317 35.9753 51.8553 35.3788C45.4145 34.5268 38.7194 32.6523 30.2446 29.159C27.7022 28.1366 25.5835 27.3697 23.2953 27.1141C21.4308 26.9437 19.6511 27.3697 18.3799 28.4774C17.0239 29.585 16.2612 31.2039 16.007 33.0784C15.668 36.4865 16.007 40.1502 17.1934 44.4956C18.6341 49.693 20.4986 53.6976 23.041 57.1057C26.3462 61.4511 30.7531 64.5184 36.5159 66.3929C41.4313 68.0117 46.9399 68.6082 53.2113 68.1822C59.1436 67.7561 65.1607 66.4781 71.6863 64.348C72.3643 64.0924 72.788 63.7516 73.2117 63.1552C74.2287 61.7067 74.7372 60.0026 75.3304 58.469L75.4999 57.9578C75.5847 57.7873 75.5847 57.6169 75.7542 57.4465L75.9237 57.1909V57.5317C75.8389 59.6618 75.2457 61.6215 74.7372 63.3256C74.0592 65.3704 74.0592 65.4557 72.0253 66.3077C68.1269 68.0118 63.8895 69.1194 58.6351 69.8862C53.296 70.8235 48.1264 70.9939 43.211 70.9939ZM19.9054 63.4108C19.0579 63.7516 17.8714 64.5184 17.2782 65.2C16.8544 65.7113 16.6849 66.1373 16.6849 66.5633C16.7697 66.9893 17.0239 67.3301 17.6172 67.6709C18.6341 68.3526 19.8206 68.6934 20.9223 68.949C25.6682 70.1418 30.4141 70.4827 34.482 70.6531C41.6008 70.9087 50.0756 71.0791 58.3809 69.8862C63.6352 69.1194 67.8726 68.0118 71.6863 66.3077C73.6355 65.4557 73.6355 65.4557 74.3135 63.4108C74.8219 61.8771 75.3304 60.0026 75.4999 58.043C75.4999 58.1282 75.4999 58.1282 75.4152 58.2134L75.3304 58.7246C74.7372 60.3434 74.2287 62.0475 73.2117 63.496C72.788 64.0924 72.2795 64.5184 71.6015 64.6888C65.0759 66.9041 59.0588 68.1822 53.1265 68.523C46.7704 68.949 41.3466 68.3526 36.3464 66.7337C30.5836 64.774 26.0919 61.7067 22.7868 57.3613C20.1596 53.9532 18.2952 49.9486 16.8544 44.666C15.668 40.3206 15.2442 36.6569 15.668 33.2488C15.8375 31.3743 16.7697 29.6702 18.0409 28.5626C19.3969 27.4549 21.1766 27.0289 23.1258 27.1993C25.4987 27.4549 27.6174 28.2218 30.1598 29.2442C38.6346 32.7375 45.245 34.612 51.6858 35.4641C56.2622 36.0605 60.5843 35.8901 64.737 34.9528C70.1608 33.76 75.3304 31.5447 80.1611 28.5626C80.3306 28.4774 80.5 28.3922 80.5848 28.3922C80.6695 28.4774 80.7543 28.5626 80.839 28.8182C81.4323 30.5223 81.7713 32.3115 81.9408 34.186C82.0255 35.9753 81.9408 37.8497 81.517 39.9798C81.4323 40.1502 81.4323 40.1502 81.517 40.1502C81.517 40.1502 81.6018 40.1502 81.6865 40.1502C82.195 38.6166 82.534 36.9977 82.7035 35.3788C83.0425 31.8003 82.534 28.733 81.0933 25.9213C81.0085 25.6657 80.9238 25.5805 80.7543 25.5805C80.6695 25.5805 80.5848 25.6657 80.3306 25.8361C79.3136 26.7733 78.2119 27.4549 77.2796 28.0514C72.6185 30.9483 67.4489 32.6523 62.025 33.334C58.8046 33.76 55.5842 33.6748 52.3638 33.1636C49.2281 32.7375 46.2619 31.7151 43.7195 30.7779C41.5161 30.011 39.3974 29.159 37.2787 28.307C34.6515 27.2845 32.0243 26.1769 29.3124 25.3248C26.4309 24.3876 23.38 23.4504 20.2444 23.6208C16.346 23.8764 14.3968 25.3248 13.4645 28.9886C12.7018 31.8855 12.8713 34.7824 13.1255 36.9977C13.634 42.1951 15.1595 47.3073 17.6172 52.3343C19.9054 56.9353 22.7868 61.2807 26.5157 65.6261C26.9394 66.1373 27.3632 66.5633 27.7869 67.1597L28.5496 68.097H28.3801C28.1259 68.097 27.8717 68.097 27.6174 68.097C27.1089 68.097 26.6852 68.0118 26.2614 68.0118C24.3122 67.8413 22.363 67.5857 20.5833 66.8189C19.6511 66.3929 19.1426 65.8817 19.0579 65.2852C19.0579 64.6036 19.3121 64.0072 19.9054 63.4108Z" fill="white"/>
<path d="M35.3295 77.5548C33.6345 77.4695 31.8548 77.3843 30.1599 77.2991C23.2953 76.9583 16.5155 76.1915 9.90514 74.4874C7.36271 73.8058 4.90502 72.9538 2.61683 71.5053C2.02359 71.1645 1.51511 70.7385 1.09137 70.2273C-0.349344 68.6936 -0.349344 66.9895 1.00662 65.3707C2.44733 63.5814 4.39653 62.559 6.43048 61.6217C7.10846 61.2809 7.7017 61.0253 8.37968 60.8549C7.44745 61.5365 6.43048 62.2181 5.583 62.985C4.82027 63.6666 4.14229 64.3482 3.71855 65.2855C3.04057 66.7339 3.37956 68.012 4.65078 68.9492C6.51523 70.3125 8.63392 70.9089 10.7526 71.5905C14.9053 72.7834 19.2274 73.465 23.5495 74.0614C32.5328 75.2543 41.5161 75.5951 50.5841 75.3395C54.2282 75.2543 57.8724 75.0839 61.4318 74.743C69.7371 73.9762 78.0424 72.7834 86.0087 70.1421C88.7206 69.2048 91.4325 68.1824 93.8055 66.5635C94.7377 65.9671 95.5852 65.2855 96.2632 64.3482C97.6191 62.6442 97.4496 61.2809 95.7547 59.9177C94.1445 58.5544 92.28 57.7024 90.5003 56.6799C90.3308 56.5947 90.1613 56.5095 89.9918 56.2539C90.7546 56.5095 91.5173 56.6799 92.28 56.9355C94.2292 57.6172 96.1784 58.2988 97.8734 59.5768C100.585 61.5365 100.67 63.837 98.2124 66.1375C96.5174 67.7564 94.4835 68.7788 92.3648 69.6308C87.8731 71.5053 83.212 72.7834 78.4661 73.8058C72.0253 75.1691 65.5845 76.1063 59.0589 76.7027C54.313 77.1287 49.5671 77.4695 44.8212 77.5548C44.6517 77.5548 44.4822 77.64 44.3128 77.64C44.228 77.7252 44.0585 77.7252 43.889 77.7252C41.1771 77.7252 38.3804 77.7252 35.6685 77.7252C35.5837 77.64 35.4142 77.64 35.3295 77.5548Z" fill="white"/>
<path d="M35.5837 77.7249C35.499 77.7249 35.4142 77.7249 35.3295 77.6397C34.821 77.6397 34.2278 77.5545 33.7193 77.5545C32.5328 77.4693 31.3463 77.4693 30.1599 77.3841C24.4818 77.0433 17.1087 76.4469 9.90514 74.5724C7.61695 73.976 4.98977 73.1239 2.61683 71.5903C1.93885 71.1643 1.43036 70.7382 1.09137 70.3122C-0.349344 68.6934 -0.349344 66.9893 1.00662 65.3704C2.53208 63.5812 4.56603 62.5587 6.43048 61.6215C7.02372 61.2807 7.7017 61.025 8.37968 60.8546L8.80342 60.7694L8.46443 61.0251C8.21019 61.2807 7.87119 61.4511 7.5322 61.7067C6.85422 62.1327 6.26099 62.6439 5.66775 63.1551C5.07452 63.6664 4.31179 64.4332 3.8033 65.4556C3.12532 66.9041 3.46431 68.0969 4.65078 69.0342C6.43048 70.3122 8.46443 70.9938 10.7526 71.5903C15.329 72.8683 19.9901 73.6351 23.5495 74.0612C31.9396 75.1688 40.7533 75.5948 50.5841 75.3392C54.4825 75.254 58.0419 74.9984 61.4318 74.7428C68.8049 74.0612 77.4491 72.9535 86.0087 70.1418C89.3138 69.0342 91.6868 67.9265 93.8055 66.5633C94.9072 65.8816 95.6699 65.1148 96.2632 64.348C97.5344 62.6439 97.3649 61.3659 95.7547 60.0026C94.314 58.8098 92.7038 57.9577 91.0935 57.1057C90.924 57.0205 90.6698 56.9353 90.5003 56.7649C90.3308 56.6797 90.1613 56.5945 89.9918 56.3389L89.9071 56.1685L90.0766 56.2537C90.3308 56.3389 90.5851 56.4241 90.7545 56.4241C91.263 56.5945 91.7715 56.7649 92.28 56.9353C94.0597 57.5317 96.0937 58.2985 97.8734 59.5766C99.2293 60.599 99.9921 61.7067 99.9921 62.8143C100.077 63.922 99.4836 65.1148 98.2124 66.2225C96.4327 67.8413 94.314 68.8638 92.3648 69.7158C88.5511 71.3347 84.229 72.6979 78.4661 73.8908C72.449 75.1688 66.0929 76.1061 59.0589 76.7877C54.1435 77.2137 49.3976 77.5545 44.8212 77.6397C44.7365 77.6397 44.567 77.6397 44.4822 77.7249C44.3975 77.7249 44.3975 77.7249 44.3128 77.7249C44.228 77.8101 44.0585 77.8101 43.9738 77.8101C43.9738 77.8101 43.9738 77.8101 43.889 77.8101C41.1771 77.8101 38.3804 77.8101 35.6685 77.8101C35.6685 77.7249 35.6685 77.7249 35.5837 77.7249ZM8.04069 61.0251C7.5322 61.1955 6.93897 61.4511 6.51523 61.7067C4.56603 62.6439 2.61683 63.6664 1.09137 65.4556C-0.264596 67.0745 -0.264596 68.6934 1.17612 70.227C1.59986 70.653 2.10834 71.079 2.70158 71.5051C5.07452 73.0387 7.7017 73.8056 9.90514 74.4872C17.1087 76.4469 24.5665 77.0433 30.1599 77.2989C31.3463 77.3841 32.5328 77.3841 33.7193 77.4693C34.2278 77.4693 34.821 77.5545 35.3295 77.5545C35.4142 77.6397 35.499 77.6397 35.5837 77.6397H35.6685C38.3804 77.6397 41.1771 77.6397 43.889 77.6397H43.9738C44.0585 77.6397 44.1433 77.6397 44.228 77.5545C44.3128 77.5545 44.3128 77.5545 44.3975 77.5545C44.4822 77.5545 44.6517 77.4693 44.7365 77.4693C49.3129 77.3841 54.0588 77.0433 58.9741 76.6173C66.0082 75.9356 72.3643 74.9984 78.3814 73.7204C84.1442 72.4423 88.3816 71.1643 92.28 69.5454C94.314 68.6934 96.4327 67.6709 98.1276 66.0521C99.3141 64.9444 99.9073 63.8368 99.8226 62.7291C99.7378 61.6215 99.0598 60.599 97.7039 59.5766C95.9242 58.2985 93.8902 57.5317 92.1953 56.9353C91.6868 56.7649 91.1783 56.5945 90.6698 56.4241C90.5003 56.3389 90.3308 56.3389 90.1613 56.2537C90.2461 56.3389 90.4156 56.4241 90.5003 56.5093C90.6698 56.5945 90.924 56.6797 91.0935 56.8501C92.7038 57.7021 94.314 58.5542 95.7547 59.747C97.4496 61.1955 97.6191 62.5587 96.2632 64.2628C95.6699 65.0296 94.9072 65.7112 93.8055 66.4781C91.6868 67.9265 89.3138 69.0342 86.0087 70.0566C77.4491 72.8683 68.7201 73.976 61.4318 74.6576C57.9571 74.9984 54.3977 75.1688 50.4993 75.254C40.6686 75.5096 31.8548 75.0836 23.4648 73.976C19.9054 73.5499 15.2443 72.7831 10.6679 71.5051C8.37968 70.8234 6.34573 70.227 4.56603 68.8638C3.29481 68.0117 2.95582 66.6485 3.71855 65.2C4.14229 64.2628 4.98977 63.4959 5.583 62.8995C6.17624 62.3883 6.85422 61.8771 7.44745 61.3659C7.61695 61.2807 7.78645 61.1103 8.04069 61.0251Z" fill="white"/>
<path d="M83.8052 49.0117C87.5341 44.7515 90.7545 40.2357 93.2969 35.1235C94.3139 33.0787 95.2461 30.9486 95.5851 28.5629C96.0089 25.4103 94.3139 24.1323 91.5172 23.8767C89.907 23.7915 88.3816 24.1323 86.8561 24.4731C88.9748 23.1951 91.0935 22.0874 93.6359 22.0022C96.8563 21.917 98.8055 24.3027 98.297 27.6256C97.8733 30.5226 96.5173 33.0787 95.1614 35.6348C92.4494 40.747 88.8053 45.1775 84.3984 49.0117C84.3137 49.0969 84.2289 49.1821 84.1442 49.1821C83.8899 49.4377 83.8052 49.2673 83.8052 49.0117Z" fill="white"/>
<path d="M83.9747 49.3525C83.89 49.3525 83.89 49.3525 83.8052 49.3525C83.7205 49.2673 83.6357 49.1821 83.6357 49.0117C87.6189 44.4959 90.7546 39.9801 93.1275 35.1235C94.0597 33.249 95.0767 31.0338 95.4157 28.6481C95.5852 27.2848 95.4157 26.2624 94.8224 25.4955C94.1445 24.6435 93.0427 24.2175 91.4325 24.1323C90.0766 24.0471 88.7206 24.3027 87.3646 24.6435C87.1951 24.7287 86.9409 24.7287 86.7714 24.8139L86.3477 24.8991L86.6867 24.7287C88.6359 23.5359 90.924 22.2578 93.5512 22.2578C95.0767 22.2578 96.4327 22.769 97.2801 23.7915C98.2124 24.8139 98.5513 26.3476 98.2971 28.0516C97.8734 30.9486 96.5174 33.5047 95.1614 36.0608C92.4495 41.0878 88.8054 45.6035 84.3985 49.4377C84.3137 49.5229 84.3137 49.5229 84.229 49.6081C84.229 49.6081 84.1442 49.6081 84.1442 49.6933C84.1442 49.3525 84.0595 49.3525 83.9747 49.3525ZM83.89 49.0117C83.89 49.0969 83.89 49.1821 83.9747 49.2673C84.0595 49.2673 84.1442 49.2673 84.229 49.2673C84.229 49.2673 84.3137 49.2673 84.3137 49.1821C84.3985 49.0969 84.3985 49.0969 84.4832 49.0117C88.8901 45.1775 92.4495 40.6617 95.1614 35.7199C96.5174 33.1638 97.7886 30.6077 98.2971 27.7108C98.5513 26.092 98.2124 24.6435 97.3649 23.6211C96.5174 22.6838 95.2462 22.1726 93.7207 22.1726C91.263 22.1726 89.1443 23.2803 87.2799 24.3879C87.3646 24.3879 87.4494 24.3879 87.4494 24.3027C88.8054 24.0471 90.1613 23.7063 91.5173 23.7915C93.1275 23.8767 94.314 24.3879 94.9919 25.2399C95.5852 26.0068 95.8394 27.1144 95.6699 28.5629C95.3309 31.0338 94.314 33.249 93.3817 35.1235C90.9241 39.9801 87.7884 44.4959 83.89 49.0117Z" fill="white"/>
<path d="M83.8054 49.0117C83.8901 49.1821 84.0596 49.2673 84.2291 49.2673C83.2969 50.1194 82.2799 50.9714 81.3477 51.8234L81.2629 51.7382C82.1104 50.801 82.9579 49.8638 83.8054 49.0117Z" fill="white"/>
<path d="M81.3477 51.9084L81.1782 51.738L83.8054 48.9263L83.8901 49.0115C83.9749 49.1819 84.0596 49.2671 84.2291 49.2671H84.3986L81.3477 51.9084ZM83.8054 49.0967L81.4325 51.6528L84.0596 49.3523C83.9749 49.2671 83.8054 49.1819 83.8054 49.0967Z" fill="white"/>
<path d="M81.517 40.0657C81.517 40.2361 81.6017 40.3213 81.7712 40.3213C81.517 41.5141 81.0085 42.5366 80.5 43.6442C80.9237 42.4514 81.178 41.2585 81.517 40.0657Z" fill="white"/>
<path d="M80.5 43.644L80.4153 43.5588C80.6695 42.7919 80.9238 42.1103 81.0933 41.3435C81.178 40.9175 81.3475 40.4062 81.4323 39.9802L81.517 39.8098L81.6018 39.9802C81.6865 40.1506 81.6865 40.1506 81.7712 40.2358H81.856V40.321C81.6017 41.3435 81.178 42.4511 80.5 43.644ZM81.517 40.2358C81.4323 40.6618 81.2628 41.0027 81.178 41.4287C81.0933 41.8547 80.9238 42.2807 80.839 42.7067C81.2628 41.8547 81.517 41.0879 81.6865 40.321C81.6018 40.321 81.517 40.321 81.517 40.2358Z" fill="white"/>
</svg>
