<svg width="160" height="80" viewBox="0 0 160 80" fill="none" xmlns="http://www.w3.org/2000/svg">
<path d="M22.03 22.8301H29.28L17.89 56.2301H11.3L0 22.8301H7.46L14.71 48.1901L22.03 22.8301Z" fill="white"/>
<path d="M52.12 53.2102C50.04 55.7802 46.87 57.0702 42.63 57.0702C38.39 57.0702 35.22 55.7802 33.14 53.2102C31.06 50.6402 30.01 47.5402 30.01 43.9202C30.01 40.3002 31.05 37.2702 33.14 34.6602C35.22 32.0502 38.39 30.7402 42.63 30.7402C46.87 30.7402 50.04 32.0502 52.12 34.6602C54.2 37.2702 55.25 40.3602 55.25 43.9202C55.25 47.4802 54.21 50.6402 52.12 53.2102ZM46.95 49.6402C47.96 48.3002 48.47 46.3902 48.47 43.9202C48.47 41.4502 47.96 39.5402 46.95 38.2102C45.94 36.8802 44.49 36.2102 42.6 36.2102C40.71 36.2102 39.26 36.8802 38.24 38.2102C37.22 39.5402 36.71 41.4502 36.71 43.9202C36.71 46.3902 37.22 48.3002 38.24 49.6402C39.26 50.9802 40.71 51.6502 42.6 51.6502C44.49 51.6502 45.94 50.9802 46.95 49.6402Z" fill="white"/>
<path d="M66.7 56.2301H60.24V22.8301H66.7V56.2301Z" fill="white"/>
<path d="M71.48 36.3601V31.7601H74.92V24.8701H81.31V31.7601H85.32V36.3601H81.31V49.4101C81.31 50.4201 81.44 51.0501 81.7 51.3001C81.96 51.5501 82.74 51.6701 84.06 51.6701C84.26 51.6701 84.46 51.6701 84.68 51.6601C84.9 51.6601 85.11 51.6401 85.33 51.6301V56.4601L82.27 56.5701C79.22 56.6801 77.13 56.1501 76.02 54.9801C75.29 54.2401 74.93 53.1001 74.93 51.5601V36.3501H71.49L71.48 36.3601Z" fill="white"/>
<path d="M116.83 56.9596H90.43V22.0996H116.01V29.4596H98.7V35.0996H114.56V42.3496H98.7V49.4896H116.83V56.9496V56.9596ZM91.88 55.5096H115.38V50.9596H97.25V40.9196H113.11V36.5696H97.25V28.0296H114.56V23.5696H91.88V55.5196V55.5096Z" fill="#21B3E0"/>
<path d="M143.06 56.96H134.99V41.21C134.99 40.03 134.84 39.13 134.55 38.54C134.05 37.53 133.08 37.04 131.6 37.04C129.72 37.04 128.48 37.81 127.79 39.39C127.41 40.27 127.22 41.44 127.22 42.86V56.95H119.31V30.84H127.01V32.98C127.41 32.52 127.8 32.15 128.19 31.85C129.64 30.76 131.48 30.21 133.66 30.21C136.36 30.21 138.62 30.94 140.36 32.38C142.14 33.86 143.05 36.28 143.05 39.59V56.95L143.06 56.96ZM136.44 55.51H141.61V39.6C141.61 36.74 140.88 34.69 139.45 33.51C137.97 32.29 136.03 31.67 133.67 31.67C131.81 31.67 130.26 32.12 129.07 33.02C128.45 33.49 127.76 34.28 127.04 35.35C126.84 35.65 126.47 35.78 126.13 35.68C125.79 35.58 125.56 35.27 125.56 34.91V32.31H120.76V55.51H125.77V42.87C125.77 41.25 126 39.89 126.46 38.82C127.39 36.68 129.12 35.59 131.6 35.59C133.66 35.59 135.09 36.37 135.85 37.9C136.25 38.71 136.44 39.79 136.44 41.21V55.51Z" fill="#21B3E0"/>
<path d="M155.46 57.3094C152.59 57.3094 150.61 56.7094 149.43 55.4894C148.58 54.6194 148.14 53.2994 148.14 51.5694V37.0894H144.7V31.0394H148.14V24.1494H155.98V31.0394H159.99V37.0894H155.98V49.4194C155.98 50.5494 156.15 50.7994 156.16 50.8094C156.14 50.7894 156.48 50.9694 158 50.9694C158.19 50.9694 158.39 50.9694 158.6 50.9594C158.81 50.9594 159.02 50.9394 159.22 50.9294L160 50.8694V57.1794L156.24 57.3194C155.97 57.3194 155.71 57.3294 155.46 57.3294V57.3094ZM146.15 35.6294H149.59V51.5594C149.59 52.8994 149.89 53.8794 150.47 54.4694C151.44 55.4794 153.36 55.9394 156.18 55.8394L158.54 55.7494V52.3794C156.59 52.4394 155.6 52.2594 155.13 51.8094C154.71 51.3994 154.52 50.6594 154.52 49.3994V35.6194H158.53V32.4694H154.52V25.5794H149.58V32.4694H146.14V35.6194L146.15 35.6294Z" fill="#21B3E0"/>
</svg>
