<svg width="100" height="100" viewBox="0 0 100 100" fill="none" xmlns="http://www.w3.org/2000/svg">
<g clip-path="url(#clip0_9344_41)">
<path d="M50.01 99.83C22.41 99.83 0.0100098 77.47 0.0100098 49.92C0.0100098 22.37 22.41 0 50.01 0C77.61 0 100 22.36 100 49.92C100 77.48 77.6 99.84 50.01 99.84V99.83ZM50.01 13.31C29.75 13.31 13.35 29.68 13.35 49.92C13.35 70.16 29.75 86.53 50.01 86.53C70.27 86.53 86.67 70.16 86.67 49.92C86.67 29.68 70.27 13.31 50.01 13.31Z" fill="white"/>
<path d="M50.0101 66.55C59.2101 66.55 66.6701 59.1 66.6701 49.91C66.6701 40.72 59.2101 33.27 50.0101 33.27C40.8101 33.27 33.3501 40.72 33.3501 49.91C33.3501 59.1 40.8101 66.55 50.0101 66.55Z" fill="white"/>
</g>
<defs>
<clipPath id="clip0_9344_41">
<rect width="100" height="100" fill="white"/>
</clipPath>
</defs>
</svg>
