<svg width="160" height="80" viewBox="0 0 160 80" fill="none" xmlns="http://www.w3.org/2000/svg">
<g clip-path="url(#clip0_9219_2)">
<path d="M9.50999 19.82L85.35 23.83C89.58 24.05 92.83 27.66 92.6 31.88L91.5 52.94C91.28 57.17 87.66 60.42 83.45 60.19L7.25999 56.17C3.03999 55.94 -0.210007 52.33 0.00999281 48.11L1.10999 27.05C1.31999 22.99 4.66999 19.82 8.67999 19.79C8.94999 19.79 9.22999 19.8 9.50999 19.82Z" fill="#FFA919"/>
<path d="M74.09 49.0399V40.3699L74.4 41.9499L66.12 30.9199H70.8L76.98 39.3799L75.25 39.3199L81.02 30.9199H85.44L77.7 41.7999L77.99 40.1399V49.0199H74.08L74.09 49.0399Z" fill="#111111"/>
<path d="M27.96 49.0397V30.9297H31.84V45.5497H41.5V49.0397H27.96Z" fill="#111111"/>
<path d="M11.53 39.2999H15.93C16.41 39.2999 16.85 39.1899 17.25 38.9599C17.65 38.7499 17.99 38.4299 18.23 38.0499C18.47 37.6699 18.59 37.2399 18.59 36.7599C18.59 36.2799 18.47 35.8899 18.23 35.5499C17.98 35.1899 17.65 34.8999 17.25 34.7199C16.85 34.5199 16.41 34.4099 15.97 34.4099H11.53V39.2999ZM7.70001 49.0299V30.9199H16.65C17.75 30.9199 18.76 31.1799 19.65 31.6999C20.55 32.1799 21.3 32.8999 21.83 33.7699C22.36 34.6499 22.63 35.6399 22.63 36.7499C22.63 37.8599 22.36 38.9099 21.8 39.8299C21.25 40.7399 20.47 41.4899 19.55 42.0099C18.62 42.5399 17.59 42.8099 16.45 42.8099H11.59V49.0399H7.71001L7.70001 49.0299Z" fill="#111111"/>
<path fill-rule="evenodd" clip-rule="evenodd" d="M45.65 49.0397H49.69L51.28 45.3297H59.63L61.22 49.0397H65.25L57.47 30.9297H53.42L45.64 49.0397H45.65ZM55.46 35.5997L52.62 42.2097H58.3L55.46 35.5997Z" fill="#111111"/>
<path fill-rule="evenodd" clip-rule="evenodd" d="M102.31 30.9404H98.43V49.0504H102.31V41.8304H112.07V49.0504H115.95V30.9404H112.07V38.3104H102.31V30.9404Z" fill="#F5F5F5"/>
<path d="M130.01 49.0602C128.39 49.0602 126.95 48.7302 125.71 48.0602C124.48 47.3902 123.52 46.4802 122.81 45.3202C122.11 44.1502 121.76 42.8202 121.76 41.3502V30.9502H125.62V41.1702C125.62 42.0002 125.81 42.7602 126.18 43.4202C126.55 44.0702 127.1 44.6202 127.74 45.0102C128.41 45.4002 129.16 45.6002 129.99 45.6002C130.82 45.6002 131.6 45.4102 132.27 45.0102C132.94 44.6302 133.49 44.0902 133.88 43.4202C134.28 42.7502 134.47 42.0002 134.47 41.1702V30.9502H138.21V41.3502C138.21 42.8202 137.86 44.1402 137.16 45.3202C136.46 46.4802 135.49 47.4002 134.24 48.0602C133.01 48.7302 131.6 49.0702 130 49.0702L130.01 49.0602Z" fill="#F5F5F5"/>
<path d="M147.76 45.6804H153.18C153.78 45.6804 154.3 45.6004 154.73 45.4504C155.18 45.3004 155.52 45.0404 155.76 44.7004C156.02 44.3604 156.15 43.9404 156.15 43.4604C156.15 42.9404 156 42.5304 155.71 42.2204C155.41 41.9104 155.04 41.6904 154.57 41.5504C154.09 41.4004 153.59 41.3204 153.1 41.3204H147.75V45.6904L147.76 45.6804ZM147.76 38.2304H152.62C153.12 38.2304 153.57 38.1504 153.97 37.9704C154.37 37.7904 154.67 37.5604 154.87 37.2704C155.09 36.9804 155.21 36.6304 155.21 36.2404C155.21 35.5904 154.96 35.1004 154.46 34.7904C153.96 34.4604 153.28 34.3004 152.42 34.3004H147.77V38.2304H147.76ZM144.04 49.0504V30.9404H152.82C154.17 30.9404 155.29 31.1204 156.2 31.4804C157.13 31.8204 157.83 32.3404 158.32 33.0004C158.8 33.6704 159.04 34.4704 159.04 35.4104C159.04 36.4304 158.75 37.2904 158.19 38.0004C157.64 38.6904 156.83 39.1704 155.76 39.4204L155.81 38.9304C156.59 39.1204 157.29 39.4204 157.93 39.8404C158.55 40.2204 159.07 40.7504 159.43 41.3904C159.81 42.0304 160 42.7704 160 43.6104C160 44.5804 159.82 45.4104 159.46 46.1204C159.11 46.7904 158.59 47.3804 157.96 47.8004C157.32 48.2104 156.6 48.5204 155.79 48.7304C155 48.9404 154.14 49.0404 153.23 49.0404H144.04V49.0504Z" fill="#F5F5F5"/>
</g>
<defs>
<clipPath id="clip0_9219_2">
<rect width="160" height="80" fill="white"/>
</clipPath>
</defs>
</svg>
