<svg width="160" height="80" viewBox="0 0 160 80" fill="none" xmlns="http://www.w3.org/2000/svg">
<g clip-path="url(#clip0_3924:54)">
<path d="M66.5986 32.6783C65.6907 32.8902 64.7444 33.0022 63.772 33.0022C59.4307 33.0022 55.6109 30.7696 53.398 27.3899L37.3685 66.9095H45.0107C49.666 66.9095 53.8566 64.0873 55.6066 59.7735L66.5986 32.6783Z" fill="#F22778"/>
<circle cx="63.7746" cy="20.6113" r="6.61128" fill="#F22778"/>
<path d="M66.6243 32.6724C72.0927 31.3841 76.163 26.473 76.163 20.6113C76.163 20.2007 76.143 19.7947 76.104 19.3943L87.8817 48.1526L99.0028 20.7608C100.708 16.5614 104.387 14.3028 108.21 14H109.989C113.751 14.2981 117.377 16.492 119.122 20.5961L130.949 48.4105L144.852 14H159.741L141.118 60.0914C137.483 69.0872 124.788 69.2018 120.992 60.2731L109.159 32.4433L97.9873 59.9593C94.3144 69.0057 81.5123 69.0252 77.812 59.9899L66.6243 32.6724Z" fill="white"/>
<path d="M15.8626 14.0002L0.544778 51.9157C-2.34822 59.0766 2.92247 66.8905 10.6457 66.8905H37.3685V53.0858H14.9608L30.7513 14.0002H15.8626Z" fill="white"/>
</g>
<defs>
<clipPath id="clip0_3924:54">
<rect width="160" height="80" fill="white"/>
</clipPath>
</defs>
</svg>
