<svg width="160" height="80" viewBox="0 0 160 80" fill="none" xmlns="http://www.w3.org/2000/svg">
<g clip-path="url(#clip0_9467_4)">
<path d="M68.9 49.4804H64V38.2404L57.35 44.8904L50.7 38.2404V49.4804H45.8V26.4204L57.36 37.9704L68.92 26.4204V49.4804H68.9ZM20.5 38.2704H12V42.8504H15.53V45.8504C14.46 46.4704 13.22 46.8104 11.9 46.8004C8.22 46.7504 5.14 43.7604 4.97 40.0904C4.79 36.0604 8.01 32.7304 12 32.7304C13.95 32.7304 15.73 33.5304 17 34.8104L20.5 31.2904C18.24 29.0304 15.08 27.6604 11.61 27.7704C5.49 27.9704 0.4 32.8904 0.0200005 39.0004C-0.42 45.9704 5.12 51.7604 12 51.7604C15.21 51.7604 18.13 50.5004 20.28 48.4404L20.48 48.2504V38.2604L20.5 38.2704ZM37.57 50.8704H28.12L26.76 53.5904H21.29L32.82 30.4104L37.11 38.9304L44.41 53.5904H38.92L37.56 50.8704H37.57ZM35.31 46.3204L32.85 41.3804L30.39 46.3204H35.31ZM106.17 43.2204L104.28 39.4104L102.39 43.2204H106.18H106.17ZM126.06 33.3704H122.46V39.6704H126.06C127.81 39.6704 129.23 38.2804 129.23 36.5404C129.23 34.8004 127.81 33.3704 126.06 33.3704ZM160 23.6904V56.3004H86.67V52.2204H72.98V27.9704H86.67V23.6904H160ZM78.1 37.7404H86.68V32.7104H78.1V37.7404ZM78.1 47.5004H86.68V42.4704H78.1V47.5004ZM115.13 50.8704L104.26 29.1304L93.45 50.8704H98.58L100.26 47.4904H108.3L109.98 50.8704H115.13ZM136.04 50.8704L131.22 41.8304C132.59 40.4904 133.45 38.6204 133.45 36.5504C133.45 32.5204 130.21 29.2204 126.2 29.1404H117.86V50.8604H122.47V43.9504H127.08L130.82 50.8804H136.05L136.04 50.8704ZM154.56 29.1404H137.51V33.3804H143.74V50.8604H148.33V33.3804H154.56V29.1404Z" fill="white"/>
</g>
<defs>
<clipPath id="clip0_9467_4">
<rect width="160" height="80" fill="white"/>
</clipPath>
</defs>
</svg>
