<svg width="160" height="80" viewBox="0 0 160 80" fill="none" xmlns="http://www.w3.org/2000/svg">
<path d="M19.04 49.1291C17.3 50.5191 15.27 51.1891 12.92 51.1891C12.21 51.1891 11.07 50.9091 8.79 50.3391C8.79 50.3391 7.19 49.9491 4.84 49.6291C4.24 49.5591 3.35 49.4491 2.53 49.9491C2.14 50.1991 1.89 50.4791 1.75 50.6991C1.29 50.8091 0.97 50.5591 0.93 50.3391C0.93 50.1591 1.14 49.9091 1.46 49.8391C1.21 49.4091 1.07 48.9891 1.07 48.5191C1.07 48.0191 1.18 47.5191 1.39 47.0991C1.46 46.9191 1.57 46.7791 1.64 46.6391C1.85 46.3191 2.03 46.1391 2.24 45.9591C2.88 45.3191 3.24 44.9991 3.38 44.9291C3.56 44.8591 3.81 44.7491 4.63 44.8591C5.16 44.8991 6.66 45.0691 8.15 45.8891C8.51 46.0691 9 46.3891 9.04 46.4191C9.4 46.6291 9.75 46.8791 10.14 47.1291C10.82 47.5591 11.31 47.9091 11.67 48.1591C12.03 48.4091 12.24 48.5491 12.35 48.6191C13.35 49.1891 14.16 49.4691 14.81 49.4691C15.24 49.4691 15.63 49.3991 15.98 49.2891C16.34 49.1491 16.66 48.9691 16.94 48.7591C17.22 48.5091 17.44 48.2591 17.62 47.9391C17.8 47.6191 17.87 47.2991 17.87 46.9391C17.87 45.2291 16.52 44.0591 13.78 43.3791C12.5 43.0991 11.22 42.7791 9.97 42.4891C8.72 42.1991 7.44 41.8891 6.16 41.5991C3.42 40.4991 2.07 38.6091 2.07 35.8691C2.07 33.8091 2.96 32.1291 4.74 30.8891C5.2 30.5691 7.52 28.9291 10.58 29.1791C12.86 29.3591 13.64 30.4291 16.17 30.2491C16.99 30.1791 17.63 30.0391 18.06 29.8891C18.2 29.8891 18.45 29.8891 18.74 29.8191C19.2 29.7091 19.2 29.5691 19.63 29.4591C19.99 29.3891 19.95 29.4591 20.63 29.3491C20.77 29.3091 20.81 29.3091 20.88 29.3491C21.16 29.5291 20.84 30.5591 20.74 30.8391C20.56 31.3691 20.31 32.1891 19.57 33.0091C18.93 33.7591 18.18 34.2591 17.4 34.4991C17.26 34.5391 16.94 34.6391 16.26 34.6391C15.55 34.6791 14.41 34.6391 13.02 34.2091C13.16 33.9291 13.3 33.6391 13.45 33.3591C13.45 31.5491 12.28 30.6191 9.96 30.6191C9.03 30.6191 8.25 30.7991 7.58 31.1191C6.76 31.5491 6.33 32.1491 6.33 32.9291C6.33 34.3491 7.65 35.3491 10.32 35.9891C14.84 37.0191 17.3 37.6291 17.76 37.8391C20.43 39.0091 21.75 40.9691 21.75 43.7491C21.86 45.8491 20.93 47.6591 19.08 49.0891L19.04 49.1291Z" fill="url(#paint0_linear_8580_2)"/>
<path d="M23.95 50.6198C24.16 50.2998 24.48 49.7698 24.63 49.0498C24.7 48.6898 24.74 48.3398 24.74 48.0898V32.4298C24.74 31.2598 24.42 30.2598 23.74 29.4398C25.95 29.3998 28.15 29.3698 30.36 29.2998C30.36 29.4098 30.32 29.5098 30.32 29.6598V48.1298C30.43 48.5198 30.57 48.9498 30.71 49.3798C30.85 49.8098 30.99 50.2298 31.17 50.6298C28.75 50.5898 26.37 50.6298 23.95 50.6298V50.6198Z" fill="url(#paint1_linear_8580_2)"/>
<path d="M47.62 48.7394C45.98 50.3394 43.88 51.1594 41.32 51.1594C38.76 51.1594 36.73 50.3094 35.13 48.6294C33.56 46.9894 32.78 44.9994 32.78 42.6494C32.78 40.4394 33.6 38.5594 35.24 36.9894C36.88 35.3894 38.91 34.6094 41.25 34.6094C43.59 34.6094 45.7 35.3894 47.41 36.9594C49.15 38.5294 50.01 40.4094 50.01 42.6494C50.05 45.0694 49.23 47.0994 47.63 48.7394H47.62ZM41.25 35.9294C39.61 35.9294 38.76 38.0994 38.76 42.4794V43.4394C38.72 43.6494 38.72 43.8294 38.72 43.9694V44.3594C38.72 48.0294 39.68 49.8794 41.57 49.8794C43.21 49.8794 44.03 48.2094 44.03 44.8994V41.8794C44.07 41.6994 44.07 41.5594 44.07 41.4494V41.0894C44 37.6394 43.11 35.9294 41.26 35.9294H41.25Z" fill="url(#paint2_linear_8580_2)"/>
<path d="M60.5 50.1196C59.72 50.8296 58.79 50.9396 57.72 51.0096C57.54 51.0096 56.19 51.1196 54.73 50.5496C54.02 50.2696 53.84 50.0496 53.73 49.8696C53.48 49.4796 53.59 49.1196 53.55 48.1996C53.51 47.6996 53.44 47.2696 53.41 47.0296L53.34 36.7096V36.3896C53.27 36.3496 53.16 36.3496 52.98 36.3496C52.7 36.3496 52.59 36.3896 52.48 36.3896C52.37 36.3896 52.2 36.3196 52.02 36.0296C52.23 35.8496 52.48 35.6696 52.7 35.4996C52.91 35.3196 53.16 35.1096 53.41 34.9696C53.66 34.7196 53.91 34.5096 54.09 34.2896C54.3 34.0796 54.45 33.8596 54.59 33.6496C55.44 32.2996 56.23 31.2996 56.9 30.6296C57.5 30.0296 58.18 29.6996 58.5 29.4896C59.07 29.1696 59.6 28.9596 60.07 28.8096H60.71C60.85 28.8096 61.03 28.8496 61.17 28.8496C61.17 29.0296 61.13 29.2396 61.13 29.4196C60.45 29.5996 59.88 30.2696 59.49 31.3396C59.17 32.2296 58.99 33.0796 58.99 33.8996V34.6796H61.48V36.4596H58.99V45.7796C58.99 45.8496 58.99 45.9896 58.95 46.2096C58.91 46.3896 58.91 46.5696 58.91 46.6696C58.91 46.8096 58.91 47.1296 59.09 47.3096C59.45 47.6696 60.37 47.3496 60.37 47.3096C60.37 47.3096 61.44 47.0996 61.47 47.0996C61.58 47.3796 61.68 49.0196 60.47 50.1196H60.5Z" fill="url(#paint3_linear_8580_2)"/>
<path d="M78.68 48.7394C77.04 50.3394 74.94 51.1594 72.38 51.1594C69.82 51.1594 67.79 50.3094 66.19 48.6294C64.62 46.9894 63.84 44.9994 63.84 42.6494C63.84 40.4394 64.66 38.5594 66.3 36.9894C67.94 35.3894 69.97 34.6094 72.31 34.6094C74.65 34.6094 76.76 35.3894 78.47 36.9594C80.21 38.5294 81.07 40.4094 81.07 42.6494C81.11 45.0694 80.29 47.0994 78.69 48.7394H78.68ZM72.35 35.9294C70.71 35.9294 69.86 38.0994 69.86 42.4794V43.4394C69.82 43.6494 69.82 43.8294 69.82 43.9694V44.3594C69.82 48.0294 70.78 49.8794 72.67 49.8794C74.31 49.8794 75.13 48.2094 75.13 44.8994V41.8794C75.17 41.6994 75.17 41.5594 75.17 41.4494V41.0894C75.1 37.6394 74.17 35.9294 72.36 35.9294H72.35Z" fill="url(#paint4_linear_8580_2)"/>
<path d="M18.19 49.0595C16.45 50.4495 14.42 51.1195 12.07 51.1195C11.14 51.1195 9.79 50.8395 7.94 50.2695C6.16 49.6995 4.81 49.4195 3.88 49.4195C2.95 49.4195 2.21 49.8495 1.64 50.6995C1.21 50.5595 0.86 50.2395 0.64 49.7395C0.39 49.3095 0.25 48.8895 0.25 48.4195C0.25 47.9195 0.36 47.4195 0.57 46.9995C0.78 46.5795 1.07 46.1795 1.42 45.8295C1.78 45.5095 2.2 45.2295 2.7 45.0495C3.2 44.8695 3.7 44.7695 4.23 44.7695C5.08 44.7695 6.12 45.0895 7.33 45.7295C7.58 45.8695 7.86 46.0495 8.22 46.2595C8.58 46.4695 8.93 46.7195 9.32 46.9695C10 47.3995 10.49 47.7495 10.85 47.9995C11.21 48.2495 11.42 48.3895 11.53 48.4595C12.53 49.0295 13.34 49.3095 13.99 49.3095C14.42 49.3095 14.81 49.2395 15.16 49.1295C15.52 48.9895 15.84 48.8095 16.12 48.5995C16.4 48.3495 16.62 48.0995 16.8 47.7795C16.98 47.4595 17.05 47.1395 17.05 46.7795C17.05 45.0695 15.7 43.8995 12.96 43.2195C11.68 42.9395 10.4 42.6195 9.15 42.3295C7.9 42.0395 6.62 41.7295 5.34 41.4395C2.6 40.3395 1.25 38.4495 1.25 35.7095C1.25 33.6495 2.14 31.9695 3.92 30.7295C5.56 29.5895 7.48 29.0195 9.76 29.0195C10.29 29.0195 10.79 29.0195 11.25 29.0595C11.71 29.0995 12.18 29.1695 12.6 29.2395C13.7 29.4195 14.56 29.5595 15.2 29.6295C15.84 29.7395 16.27 29.7695 16.48 29.7695H16.91C17.05 29.7695 17.16 29.7695 17.27 29.7295C17.48 29.6895 17.73 29.6895 17.95 29.6595C18.17 29.6295 18.38 29.6195 18.55 29.5495C19.37 29.4095 19.8 29.3695 19.83 29.3695C20.01 29.3695 20.11 29.4395 20.11 29.5495C20.11 30.7595 19.68 31.8995 18.79 32.8995C17.86 33.9995 16.76 34.5395 15.48 34.5395C13.99 34.5395 13.06 34.2595 12.67 33.6895V33.2595C12.67 31.4495 11.5 30.5195 9.18 30.5195C8.25 30.5195 7.47 30.6995 6.8 31.0195C5.98 31.4495 5.55 32.0495 5.55 32.8295C5.55 34.2495 6.87 35.2495 9.54 35.8895C14.06 36.9195 16.52 37.5295 16.98 37.7395C19.65 38.9095 20.97 40.8695 20.97 43.6495C20.97 45.8195 20.04 47.6395 18.19 49.0595Z" fill="url(#paint5_linear_8580_2)"/>
<path d="M23.02 50.6599C23.59 49.8399 23.87 48.9499 23.87 48.0299V32.3699C23.87 31.1999 23.55 30.1999 22.87 29.3799H29.49C29.45 29.5599 29.42 29.6599 29.42 29.7399V48.0699C29.42 48.1399 29.56 48.5699 29.81 49.3199C30.02 50.0299 30.2 50.4899 30.31 50.6699H23.01L23.02 50.6599Z" fill="url(#paint6_linear_8580_2)"/>
<path d="M46.76 48.67C45.12 50.27 43.02 51.09 40.46 51.09C37.9 51.09 35.87 50.24 34.27 48.56C32.7 46.92 31.92 44.93 31.92 42.58C31.92 40.37 32.74 38.49 34.38 36.92C36.02 35.32 38.05 34.54 40.39 34.54C42.73 34.54 44.84 35.32 46.55 36.89C48.29 38.46 49.15 40.34 49.15 42.58C49.19 45 48.37 47.03 46.77 48.67H46.76ZM40.39 35.85C38.75 35.85 37.9 38.02 37.9 42.4V43.36C37.86 43.57 37.86 43.75 37.86 43.89V44.28C37.86 47.95 38.82 49.8 40.71 49.8C42.35 49.8 43.17 48.13 43.17 44.82V41.76C43.21 41.58 43.21 41.44 43.21 41.33V40.97C43.17 37.59 42.25 35.85 40.4 35.85H40.39Z" fill="url(#paint7_linear_8580_2)"/>
<path d="M59.64 50.0496C58.96 50.6496 58.04 50.9396 56.86 50.9396C55.86 50.9396 55.01 50.6896 54.26 50.1896C53.51 49.6896 52.98 49.0196 52.69 48.1596C52.58 47.9096 52.55 47.5197 52.55 46.9897L52.48 36.6696V36.3496C52.41 36.3096 52.3 36.3097 52.12 36.3097C52.01 36.3097 51.84 36.3096 51.62 36.3496C51.41 36.3896 51.26 36.3896 51.12 36.3896L51.16 35.9996C51.37 35.8196 51.62 35.6397 51.84 35.4697C52.05 35.2897 52.3 35.0796 52.55 34.9396C52.8 34.6896 53.05 34.4796 53.23 34.2596C53.44 34.0496 53.59 33.8296 53.73 33.6196C54.58 32.2696 55.37 31.2696 56.04 30.5996C56.43 30.2096 56.97 29.8496 57.64 29.4596C58.35 29.0696 58.96 28.8896 59.42 28.8896H60.31L60.24 29.3896C59.56 29.5696 58.99 30.2396 58.6 31.3096C58.28 32.1996 58.1 33.0496 58.1 33.8696V34.7596H60.59V36.4296H58.1V45.7496C58.1 45.8196 58.1 45.9597 58.06 46.1796C58.02 46.3596 58.02 46.5396 58.02 46.6396C58.02 47.3496 58.52 47.7397 59.48 47.7397C59.44 47.7397 59.84 47.6296 60.65 47.4196C60.65 48.5596 60.29 49.4496 59.62 50.0496H59.64Z" fill="url(#paint8_linear_8580_2)"/>
<path d="M77.83 48.67C76.19 50.27 74.09 51.09 71.53 51.09C68.97 51.09 66.94 50.24 65.34 48.56C63.77 46.92 62.99 44.93 62.99 42.58C62.99 40.37 63.81 38.49 65.45 36.92C67.09 35.32 69.12 34.54 71.46 34.54C73.8 34.54 75.91 35.32 77.62 36.89C79.36 38.46 80.22 40.34 80.22 42.58C80.26 45 79.44 47.03 77.84 48.67H77.83ZM71.49 35.85C69.85 35.85 69 38.02 69 42.4V43.36C68.96 43.57 68.96 43.75 68.96 43.89V44.28C68.96 47.95 69.92 49.8 71.81 49.8C73.45 49.8 74.27 48.13 74.27 44.82V41.76C74.31 41.58 74.31 41.44 74.31 41.33V40.97C74.24 37.59 73.31 35.85 71.5 35.85H71.49Z" fill="url(#paint9_linear_8580_2)"/>
<path d="M17.94 49.0195C16.2 50.4095 14.17 51.0795 11.82 51.0795C10.89 51.0795 9.54 50.7995 7.69 50.2295C5.91 49.6595 4.56 49.3795 3.63 49.3795C2.7 49.3795 1.96 49.8095 1.39 50.6595C0.96 50.5195 0.61 50.1995 0.39 49.6995C0.14 49.2695 0 48.8495 0 48.3795C0 47.8795 0.11 47.3795 0.32 46.9595C0.53 46.5395 0.82 46.1395 1.17 45.7895C1.53 45.4695 1.95 45.1895 2.45 45.0095C2.95 44.8295 3.45 44.7295 3.98 44.7295C4.83 44.7295 5.87 45.0495 7.08 45.6895C7.33 45.8295 7.61 46.0095 7.97 46.2195C8.33 46.4295 8.68 46.6795 9.07 46.9295C9.75 47.3595 10.24 47.7095 10.6 47.9595C10.96 48.2095 11.17 48.3495 11.28 48.4195C12.28 48.9895 13.09 49.2695 13.74 49.2695C14.17 49.2695 14.56 49.1995 14.91 49.0895C15.27 48.9495 15.59 48.7695 15.87 48.5595C16.15 48.3095 16.37 48.0595 16.55 47.7395C16.73 47.4195 16.8 47.0995 16.8 46.7395C16.8 45.0295 15.45 43.8595 12.71 43.1795C11.43 42.8995 10.15 42.5795 8.9 42.2895C7.65 41.9995 6.37 41.6895 5.09 41.3995C2.35 40.2995 1 38.4095 1 35.6695C1 33.6095 1.89 31.9295 3.67 30.6895C5.31 29.5495 7.23 28.9795 9.51 28.9795C10.04 28.9795 10.54 28.9795 11 29.0195C11.46 29.0595 11.93 29.1295 12.35 29.1995C13.45 29.3795 14.31 29.5195 14.95 29.5895C15.59 29.6995 16.02 29.7295 16.23 29.7295H16.66C16.8 29.7295 16.91 29.7295 17.02 29.6895C17.23 29.6495 17.48 29.6495 17.7 29.6195C17.92 29.5895 18.13 29.5795 18.3 29.5095C19.12 29.3695 19.55 29.3295 19.58 29.3295C19.76 29.3295 19.86 29.3995 19.86 29.5095C19.86 30.7195 19.43 31.8595 18.54 32.8595C17.61 33.9595 16.51 34.4995 15.23 34.4995C13.74 34.4995 12.81 34.2195 12.42 33.6495V33.2195C12.42 31.4095 11.25 30.4795 8.93 30.4795C8 30.4795 7.22 30.6595 6.55 30.9795C5.73 31.4095 5.3 32.0095 5.3 32.7895C5.3 34.2095 6.62 35.2095 9.29 35.8495C13.81 36.8795 16.27 37.4895 16.73 37.6995C19.4 38.8695 20.72 40.8295 20.72 43.6095C20.72 45.7795 19.79 47.5995 17.94 49.0195Z" fill="url(#paint10_linear_8580_2)"/>
<path d="M22.78 50.6198C23.35 49.7998 23.63 48.9098 23.63 47.9898V32.3298C23.63 31.1598 23.31 30.1598 22.63 29.3398H29.25C29.21 29.5198 29.18 29.6198 29.18 29.6998V48.0298C29.18 48.0998 29.32 48.5298 29.57 49.2798C29.78 49.9898 29.96 50.4498 30.07 50.6298H22.77L22.78 50.6198Z" fill="url(#paint11_linear_8580_2)"/>
<path d="M46.48 48.629C44.84 50.229 42.74 51.049 40.18 51.049C37.62 51.049 35.59 50.199 33.99 48.519C32.42 46.879 31.64 44.889 31.64 42.539C31.64 40.329 32.46 38.449 34.1 36.879C35.74 35.279 37.77 34.499 40.11 34.499C42.45 34.499 44.56 35.279 46.27 36.849C48.01 38.419 48.87 40.299 48.87 42.539C48.91 44.999 48.09 46.989 46.49 48.629H46.48ZM40.14 35.819C38.5 35.819 37.65 37.989 37.65 42.369V43.329C37.61 43.539 37.61 43.719 37.61 43.859V44.249C37.61 47.919 38.57 49.769 40.46 49.769C42.1 49.769 42.92 48.099 42.92 44.789V41.729C42.96 41.549 42.96 41.409 42.96 41.299V40.939C42.89 37.559 41.96 35.819 40.15 35.819H40.14Z" fill="url(#paint12_linear_8580_2)"/>
<path d="M59.4 50.0194C58.72 50.6194 57.8 50.9094 56.62 50.9094C55.62 50.9094 54.77 50.6594 54.02 50.1594C53.27 49.6594 52.74 48.9894 52.45 48.1294C52.34 47.8794 52.31 47.4894 52.31 46.9594L52.24 36.6394V36.3194C52.17 36.2794 52.06 36.2794 51.88 36.2794C51.77 36.2794 51.6 36.2794 51.38 36.3194C51.17 36.3594 51.02 36.3594 50.88 36.3594L50.92 35.9694C51.13 35.7894 51.38 35.6094 51.6 35.4394C51.81 35.2594 52.06 35.0494 52.31 34.9094C52.56 34.6594 52.81 34.4494 52.99 34.2294C53.2 34.0194 53.35 33.7994 53.49 33.5894C54.34 32.2394 55.13 31.2394 55.8 30.5694C56.19 30.1794 56.73 29.8194 57.4 29.4294C58.11 29.0394 58.72 28.8594 59.18 28.8594H60.07L60 29.3594C59.32 29.5394 58.75 30.2094 58.36 31.2794C58.04 32.1694 57.86 33.0194 57.86 33.8394V34.6894H60.35V36.3594H57.86V45.6794C57.86 45.7494 57.86 45.8894 57.82 46.1094C57.78 46.2894 57.78 46.4694 57.78 46.5694C57.78 47.2794 58.28 47.6694 59.24 47.6694C59.2 47.6694 59.6 47.5594 60.41 47.3494C60.41 48.5194 60.02 49.4094 59.38 50.0194H59.4Z" fill="url(#paint13_linear_8580_2)"/>
<path d="M77.58 48.629C75.94 50.229 73.84 51.049 71.28 51.049C68.72 51.049 66.69 50.199 65.09 48.519C63.52 46.879 62.74 44.889 62.74 42.539C62.74 40.329 63.56 38.449 65.2 36.879C66.84 35.279 68.87 34.499 71.21 34.499C73.55 34.499 75.66 35.279 77.37 36.849C79.11 38.419 79.97 40.299 79.97 42.539C79.97 44.999 79.19 46.989 77.59 48.629H77.58ZM71.21 35.819C69.57 35.819 68.72 37.989 68.72 42.369V43.329C68.68 43.539 68.68 43.719 68.68 43.859V44.249C68.68 47.919 69.64 49.769 71.53 49.769C73.17 49.769 73.99 48.099 73.99 44.789V41.729C74.03 41.549 74.03 41.409 74.03 41.299V40.939C73.96 37.559 73.03 35.819 71.22 35.819H71.21Z" fill="url(#paint14_linear_8580_2)"/>
<path d="M101.25 49.3398C100.18 50.0898 98.83 50.4798 97.09 50.4798H84.03C84.71 49.6998 85.06 48.6698 85.06 47.4198C85.06 47.3498 85.06 47.2098 85.02 47.0298C84.98 46.8498 84.98 46.7498 84.98 46.6398V32.5798C84.94 32.1898 84.91 31.6898 84.77 31.1898C84.56 30.4098 84.27 29.7698 83.99 29.2998C86.66 29.2998 89.33 29.3398 92 29.3398C91.79 29.6198 91.5 30.0198 91.32 30.5898C91.07 31.2998 91.04 31.9398 91.07 32.3298L91.11 49.2298C93.1 49.1898 94.42 49.0898 95.02 48.8698C96.41 48.4798 97.12 47.5498 97.12 46.1698C97.12 45.8098 96.87 44.9998 96.41 43.7098C95.91 42.4598 95.7 41.5698 95.7 40.9698C95.7 40.5798 95.77 40.1898 95.88 39.8298C96.13 39.0798 96.95 38.8698 96.95 38.2598C96.95 38.0498 96.88 38.0498 96.91 37.8998C97.05 37.2198 98.76 36.9398 99.9 37.1198C100.29 37.1598 100.58 37.2598 100.86 37.3998C101.25 37.5798 101.5 37.7898 101.64 37.9998H101.6C100.78 38.3598 100.39 38.7798 100.39 39.2498C100.39 39.6798 100.85 40.5698 101.74 41.9198C102.63 43.2698 103.09 44.5198 103.09 45.7298C103.02 47.2998 102.41 48.5098 101.24 49.3198L101.25 49.3398Z" fill="url(#paint15_linear_8580_2)"/>
<path d="M115.48 50.41C115.3 49.98 115.16 49.59 114.98 49.16C114.05 49.8 112.52 50.69 110.5 50.9C109.43 51.01 108.15 51.11 106.98 50.33C105.88 49.58 105.38 48.41 105.24 48.05C104.88 47.2 104.88 46.48 104.88 46.31C104.88 45.06 105.38 43.96 106.3 43C107.15 42.18 108.29 41.58 109.65 41.19C110.58 40.91 111.39 40.62 112.18 40.34C112.78 40.09 113.39 39.88 113.99 39.63C114.67 39.27 114.99 38.78 114.99 38.14C114.99 36.72 114.39 36 113.21 36C112.25 36 111.79 36.36 111.79 37.1C111.79 37.24 111.86 37.46 111.97 37.7C112.08 37.94 112.15 38.16 112.15 38.3C112.15 38.58 111.76 38.83 110.94 39.12C110.66 39.19 110.16 39.37 109.37 39.44C108.52 39.51 108.05 39.55 107.73 39.37C107.37 39.19 107.09 38.69 106.56 37.77C106.1 36.95 106.24 37.06 105.99 36.7C105.28 35.63 104.5 35.38 104.5 34.71C104.5 34.64 104.5 34.39 104.68 34.28C104.79 34.21 104.89 34.24 105.39 34.42C106.1 34.7 106.14 34.74 106.32 34.74C106.43 34.74 106.57 34.74 106.78 34.78C106.96 34.82 107.1 34.85 107.17 34.85H107.6C108.38 34.85 109.09 34.85 109.7 34.81C110.3 34.77 110.8 34.77 111.23 34.7C111.34 34.66 111.48 34.66 111.69 34.63C111.87 34.59 112.12 34.56 112.4 34.49C112.93 34.38 113.33 34.31 113.57 34.31C116.27 34.31 118.16 34.7 119.19 35.52C120.29 36.41 120.86 38.12 120.86 40.64V47.4C120.9 47.76 120.97 48.18 121.07 48.65C121.25 49.36 121.5 49.97 121.71 50.43C119.61 50.47 117.55 50.43 115.48 50.39V50.41ZM112.14 42.97C111.25 44.07 110.79 45.07 110.79 45.96C110.79 46.67 110.97 47.24 111.29 47.74C111.72 48.31 112.25 48.56 112.93 48.56C113.29 48.56 113.68 48.38 114.14 47.99C114.6 47.6 114.85 47.24 114.85 46.92V42.26C114.85 41.94 114.85 41.55 114.89 41.12C114 41.23 113.08 41.87 112.15 42.97H112.14Z" fill="url(#paint16_linear_8580_2)"/>
<path d="M137.22 50.4404C136.51 50.4404 135.8 50.4004 135.08 50.4004H133.59C134.19 49.6204 134.52 48.1204 134.52 45.9504V44.3804C134.52 43.7804 134.52 43.0304 134.48 42.1704C134.44 41.3104 134.44 40.5704 134.44 39.9604V38.3904C134.44 37.8904 134.26 37.4304 133.91 37.0404C133.56 36.6504 133.09 36.4404 132.56 36.4404C131.92 36.4404 131.39 36.6504 130.96 37.0404C130.53 37.4304 130.28 37.9304 130.21 38.5304V44.3304C130.17 45.1104 130.17 45.8204 130.17 46.4304C130.17 47.5004 130.13 47.6804 130.17 47.9204C130.21 48.5204 130.38 49.4504 131.02 50.5204C128.56 50.4804 126.11 50.4804 123.65 50.4504C123.83 50.2004 124.11 49.8504 124.29 49.3104C124.5 48.6704 124.54 48.1004 124.5 47.7804V37.9904C124.5 37.5604 124.43 37.0304 124.29 36.4604C124.11 35.6804 123.83 35.0404 123.58 34.5704C125.79 34.5704 127.99 34.5704 130.2 34.6104V36.0004C131.13 34.9304 132.58 34.4004 134.51 34.4004C135.36 34.4004 136.11 34.5404 136.82 34.8304C137.5 35.1104 138.1 35.5104 138.56 35.9704C139.06 36.4704 139.41 37.0404 139.66 37.7104C139.91 38.3804 140.05 39.1304 140.05 39.9204V45.7204C140.01 46.1804 140.01 46.6104 140.01 46.9304V47.7804C140.01 48.2804 140.08 49.0304 140.47 49.8104C140.61 50.0904 140.79 50.3104 140.9 50.4904C139.65 50.4904 138.44 50.4504 137.2 50.4204L137.22 50.4404Z" fill="url(#paint17_linear_8580_2)"/>
<path d="M148.97 50.41C148.61 50.41 148.15 50.3 147.51 50.13C147.19 50.02 146.91 49.92 146.69 49.85C146.48 49.78 146.3 49.67 146.12 49.6C143.84 48.18 142.74 45.76 142.74 42.34C142.74 40.31 143.27 38.53 144.34 36.97C145.55 35.19 147.19 34.3 149.25 34.3C150.1 34.3 150.85 34.48 151.53 34.83C151.67 34.9 151.92 35.08 152.21 35.33C152.5 35.58 152.85 35.86 153.31 36.26C153.35 36.19 153.35 35.98 153.35 35.73V35.02C153.35 34.74 153.35 34.38 153.39 34.02V32.31C153.43 31.95 153.5 31.24 153.21 30.42C153.03 29.89 152.75 29.49 152.53 29.25H159.11C159.11 35.44 159.11 41.63 159.15 47.86C159.15 48.18 159.15 48.68 159.36 49.28C159.54 49.81 159.79 50.24 160 50.49C156.26 50.45 152.6 50.45 148.97 50.42V50.41ZM153.38 40.73C153.38 39.91 153.2 39.13 152.88 38.31C152.45 37.31 151.88 36.82 151.14 36.82C149.65 36.82 148.86 38.53 148.86 41.98C148.86 44.26 148.97 45.79 149.22 46.46C149.72 48.1 150.82 48.95 152.57 48.95C152.89 48.95 153.14 48.91 153.35 48.81V40.73H153.39H153.38Z" fill="url(#paint18_linear_8580_2)"/>
<path d="M100.43 49.4098C99.36 50.1598 98.01 50.5498 96.27 50.5498H83.21C83.89 49.7698 84.24 48.7398 84.24 47.4898C84.24 47.4198 84.24 47.2798 84.2 47.0998C84.16 46.9198 84.16 46.8198 84.16 46.7098V32.6498C84.16 31.8998 83.88 30.7998 83.27 29.2998H91.24C90.56 30.0498 90.24 31.0798 90.24 32.3998L90.28 49.2998C92.27 49.2598 93.59 49.1598 94.19 48.9398C95.58 48.5498 96.29 47.6198 96.29 46.2398C96.29 45.8798 96.04 45.0698 95.58 43.7798C95.08 42.5298 94.87 41.6398 94.87 41.0398C94.87 40.0098 95.3 39.0798 96.12 38.2998C96.97 37.5198 97.93 37.1598 99.07 37.1598C99.32 37.1598 99.64 37.2698 100.03 37.4398C100.42 37.6098 100.67 37.8298 100.81 38.0398H100.77C99.95 38.3998 99.56 38.8198 99.56 39.2898C99.56 39.7198 100.02 40.6098 100.91 41.9598C101.8 43.3098 102.26 44.5598 102.26 45.7698C102.15 47.3398 101.55 48.5498 100.41 49.3998L100.43 49.4098Z" fill="url(#paint19_linear_8580_2)"/>
<path d="M114.63 50.48L114.13 49.23C112.71 50.37 111.21 50.97 109.65 50.97C108.09 50.97 106.84 50.58 105.77 49.8C104.6 48.95 104.03 47.81 104.03 46.42C104.03 45.17 104.53 44.07 105.45 43.11C106.3 42.29 107.44 41.69 108.8 41.3C109.73 41.02 110.54 40.73 111.33 40.45C111.93 40.2 112.54 39.99 113.14 39.74C113.82 39.38 114.14 38.89 114.14 38.25C114.14 36.83 113.54 36.11 112.36 36.11C111.4 36.11 110.94 36.47 110.94 37.21C110.94 37.35 111.01 37.57 111.12 37.81C111.23 38.05 111.3 38.27 111.3 38.41C111.3 38.69 110.91 38.94 110.09 39.23C109.49 39.44 108.95 39.55 108.52 39.55C107.35 39.55 106.42 38.98 105.71 37.88C105.11 36.95 104.78 35.92 104.78 34.75C104.78 34.57 104.82 34.5 104.85 34.5C104.88 34.5 104.96 34.54 105.06 34.57C105.2 34.64 105.31 34.68 105.45 34.75C105.59 34.82 105.73 34.86 105.88 34.93C106.02 35 106.16 35 106.27 35H106.7C107.48 35 108.19 35 108.8 34.96C109.4 34.92 109.9 34.92 110.33 34.85C110.44 34.81 110.58 34.81 110.79 34.78C110.97 34.74 111.22 34.71 111.5 34.64C112.03 34.53 112.43 34.46 112.67 34.46C115.37 34.46 117.26 34.85 118.29 35.67C119.39 36.56 119.96 38.27 119.96 40.79V47.55C119.96 48.23 120.21 49.22 120.74 50.5H114.62V50.46L114.63 50.48ZM111.28 43.01C110.39 44.11 109.93 45.11 109.93 46C109.93 46.71 110.11 47.28 110.43 47.78C110.86 48.35 111.39 48.6 112.07 48.6C112.43 48.6 112.82 48.42 113.28 48.03C113.74 47.64 113.99 47.28 113.99 46.96V42.33C113.99 42.01 113.99 41.62 114.03 41.19C113.14 41.3 112.22 41.9 111.29 43L111.28 43.01Z" fill="url(#paint20_linear_8580_2)"/>
<path d="M136.37 50.5202C135.55 50.4802 134.88 50.4802 134.23 50.4802H132.74C133.34 49.7002 133.67 48.2002 133.67 46.0302V44.4602C133.67 43.8602 133.67 43.1102 133.63 42.2502C133.59 41.3902 133.59 40.6502 133.59 40.0402V38.4702C133.59 37.9702 133.41 37.5102 133.06 37.1202C132.71 36.7302 132.24 36.5202 131.71 36.5202C131.07 36.5202 130.54 36.7302 130.11 37.1202C129.68 37.5102 129.43 38.0102 129.36 38.6102V44.3802C129.32 45.1602 129.32 45.8702 129.32 46.4802V47.9702C129.32 49.0002 129.6 49.8602 130.14 50.5002H122.81C123.38 49.9002 123.66 49.0102 123.66 47.8302V38.0402C123.66 37.1502 123.41 36.0102 122.88 34.5902H129.39V36.0502C130.32 34.9802 131.77 34.4502 133.7 34.4502C134.55 34.4502 135.3 34.5902 136.01 34.8802C136.69 35.1602 137.29 35.5602 137.75 36.0202C138.25 36.5202 138.6 37.0902 138.85 37.7602C139.1 38.4302 139.24 39.1802 139.24 39.9702V45.7702C139.2 46.2302 139.2 46.6602 139.2 46.9802V47.8302C139.2 48.8602 139.48 49.7502 140.05 50.4602H136.35V50.5002L136.37 50.5202Z" fill="url(#paint21_linear_8580_2)"/>
<path d="M148.11 50.48C147.75 50.48 147.29 50.37 146.65 50.2C146.33 50.09 146.05 49.99 145.83 49.92C145.62 49.85 145.44 49.74 145.26 49.67C142.98 48.25 141.88 45.83 141.88 42.41C141.88 40.38 142.41 38.6 143.48 37.04C144.69 35.26 146.33 34.37 148.39 34.37C149.24 34.37 149.99 34.55 150.67 34.9C150.81 34.97 151.06 35.15 151.35 35.4C151.64 35.65 151.99 35.93 152.45 36.33C152.49 36.26 152.49 36.05 152.49 35.8V35.09C152.49 34.81 152.49 34.45 152.53 34.09V32.38C152.53 30.92 152.28 29.89 151.82 29.25L158.3 29.29V47.9C158.3 48.93 158.55 49.79 159.08 50.46H148.12V50.5L148.11 50.48ZM152.53 40.77C152.53 39.95 152.35 39.17 152.03 38.35C151.6 37.35 151.03 36.86 150.29 36.86C148.8 36.86 148.01 38.57 148.01 42.02C148.01 44.3 148.12 45.83 148.37 46.5C148.87 48.14 149.97 48.99 151.72 48.99C152.04 48.99 152.29 48.95 152.5 48.85V40.77H152.54H152.53Z" fill="url(#paint22_linear_8580_2)"/>
<path d="M100.14 49.4098C99.07 50.1598 97.72 50.5498 95.98 50.5498H82.92C83.6 49.7698 83.95 48.7398 83.95 47.4898C83.95 47.4198 83.95 47.2798 83.91 47.0998C83.87 46.9198 83.87 46.8198 83.87 46.7098V32.6498C83.87 31.8998 83.59 30.7998 82.98 29.2998H90.95C90.27 30.0498 89.95 31.0798 89.95 32.3998L89.99 49.2998C91.98 49.2598 93.3 49.1598 93.9 48.9398C95.29 48.5498 96 47.6198 96 46.2398C96 45.8798 95.75 45.0698 95.29 43.7798C94.79 42.5298 94.58 41.6398 94.58 41.0398C94.58 40.0098 95.01 39.0798 95.83 38.2998C96.68 37.5198 97.64 37.1598 98.78 37.1598C99.03 37.1598 99.35 37.2698 99.74 37.4398C100.13 37.6098 100.38 37.8298 100.52 38.0398H100.48C99.66 38.3998 99.27 38.8198 99.27 39.2898C99.27 39.7198 99.73 40.6098 100.62 41.9598C101.51 43.3098 101.97 44.5598 101.97 45.7698C101.86 47.3398 101.26 48.5498 100.12 49.3998L100.14 49.4098Z" fill="url(#paint23_linear_8580_2)"/>
<path d="M114.34 50.48L113.84 49.23C112.42 50.37 110.92 50.97 109.36 50.97C107.8 50.97 106.55 50.58 105.48 49.8C104.31 48.95 103.74 47.81 103.74 46.42C103.74 45.17 104.24 44.07 105.16 43.11C106.01 42.29 107.15 41.69 108.51 41.3C109.44 41.02 110.25 40.73 111.04 40.45C111.64 40.2 112.25 39.99 112.85 39.74C113.53 39.38 113.85 38.89 113.85 38.25C113.85 36.83 113.25 36.11 112.07 36.11C111.11 36.11 110.65 36.47 110.65 37.21C110.65 37.35 110.72 37.57 110.83 37.81C110.94 38.05 111.01 38.27 111.01 38.41C111.01 38.69 110.62 38.94 109.8 39.23C109.2 39.44 108.66 39.55 108.23 39.55C107.06 39.55 106.13 38.98 105.42 37.88C104.82 36.95 104.49 35.92 104.49 34.75C104.49 34.57 104.53 34.5 104.56 34.5C104.59 34.5 104.67 34.54 104.77 34.57C104.91 34.64 105.02 34.68 105.16 34.75C105.3 34.82 105.44 34.86 105.59 34.93C105.73 35 105.87 35 105.98 35H106.41C107.19 35 107.9 35 108.51 34.96C109.11 34.92 109.61 34.92 110.04 34.85C110.15 34.81 110.29 34.81 110.5 34.78C110.68 34.74 110.93 34.71 111.21 34.64C111.74 34.53 112.14 34.46 112.38 34.46C115.08 34.46 116.97 34.85 118 35.67C119.1 36.56 119.67 38.27 119.67 40.79V47.55C119.67 48.23 119.92 49.22 120.45 50.5H114.33V50.46L114.34 50.48ZM111 43.01C110.11 44.11 109.65 45.11 109.65 46C109.65 46.71 109.83 47.28 110.15 47.78C110.58 48.35 111.11 48.6 111.79 48.6C112.15 48.6 112.54 48.42 113 48.03C113.46 47.64 113.71 47.28 113.71 46.96V42.33C113.71 42.01 113.71 41.62 113.75 41.19C112.86 41.3 111.94 41.9 111.01 43L111 43.01Z" fill="url(#paint24_linear_8580_2)"/>
<path d="M136.09 50.4804C135.27 50.4404 134.6 50.4404 133.95 50.4404H132.46C133.06 49.6604 133.39 48.1604 133.39 45.9904V44.4204C133.39 43.8204 133.39 43.0704 133.35 42.2104C133.31 41.3504 133.31 40.6104 133.31 40.0004V38.4304C133.31 37.9304 133.13 37.4704 132.78 37.0804C132.43 36.6904 131.96 36.4804 131.43 36.4804C130.79 36.4804 130.26 36.6904 129.83 37.0804C129.4 37.4704 129.15 37.9704 129.08 38.5704V44.3704C129.04 45.1504 129.04 45.8604 129.04 46.4704V47.9604C129.04 48.9904 129.32 49.8504 129.86 50.4904H122.53C123.1 49.8904 123.38 49.0004 123.38 47.8204V38.0304C123.38 37.1404 123.13 36.0004 122.6 34.5804H129.11V36.0404C130.04 34.9704 131.49 34.4404 133.42 34.4404C134.27 34.4404 135.02 34.5804 135.73 34.8704C136.41 35.1504 137.01 35.5504 137.47 36.0104C137.97 36.5104 138.32 37.0804 138.57 37.7504C138.82 38.4204 138.96 39.1704 138.96 39.9604V45.7604C138.92 46.2204 138.92 46.6504 138.92 46.9704V47.8204C138.92 48.8504 139.2 49.7404 139.77 50.4504H136.07L136.09 50.4804Z" fill="url(#paint25_linear_8580_2)"/>
<path d="M147.83 50.48C147.47 50.48 147.01 50.37 146.37 50.2C146.05 50.09 145.77 49.99 145.55 49.92C145.34 49.85 145.16 49.74 144.98 49.67C142.7 48.25 141.6 45.83 141.6 42.41C141.6 40.38 142.13 38.6 143.2 37.04C144.41 35.26 146.05 34.37 148.11 34.37C148.96 34.37 149.71 34.55 150.39 34.9C150.53 34.97 150.78 35.15 151.07 35.4C151.36 35.65 151.71 35.93 152.17 36.33C152.21 36.26 152.21 36.05 152.21 35.8V35.09C152.21 34.81 152.21 34.45 152.25 34.09V32.38C152.25 30.92 152 29.89 151.54 29.25L158.02 29.29V47.9C158.02 48.93 158.27 49.79 158.8 50.46H147.84V50.5L147.83 50.48ZM152.24 40.77C152.24 39.95 152.06 39.17 151.74 38.35C151.31 37.35 150.74 36.86 150 36.86C148.51 36.86 147.72 38.57 147.72 42.02C147.72 44.3 147.83 45.83 148.08 46.5C148.58 48.14 149.68 48.99 151.43 48.99C151.75 48.99 152 48.95 152.21 48.85V40.77H152.25H152.24Z" fill="url(#paint26_linear_8580_2)"/>
<defs>
<linearGradient id="paint0_linear_8580_2" x1="11.32" y1="29.0191" x2="11.32" y2="51.1891" gradientUnits="userSpaceOnUse">
<stop offset="0.23" stop-color="#FFD243"/>
<stop offset="0.24" stop-color="#FED143"/>
<stop offset="0.27" stop-color="#DDB13A"/>
<stop offset="0.3" stop-color="#C29733"/>
<stop offset="0.34" stop-color="#AD822E"/>
<stop offset="0.38" stop-color="#9E742A"/>
<stop offset="0.43" stop-color="#966C28"/>
<stop offset="0.5" stop-color="#936927"/>
<stop offset="0.56" stop-color="#986E28"/>
<stop offset="0.62" stop-color="#A57B2C"/>
<stop offset="0.68" stop-color="#BC9132"/>
<stop offset="0.75" stop-color="#DCB03B"/>
<stop offset="0.81" stop-color="#FFD345"/>
</linearGradient>
<linearGradient id="paint1_linear_8580_2" x1="27.46" y1="29.3098" x2="27.46" y2="50.6198" gradientUnits="userSpaceOnUse">
<stop offset="0.23" stop-color="#FFD243"/>
<stop offset="0.24" stop-color="#FED143"/>
<stop offset="0.27" stop-color="#DDB13A"/>
<stop offset="0.3" stop-color="#C29733"/>
<stop offset="0.34" stop-color="#AD822E"/>
<stop offset="0.38" stop-color="#9E742A"/>
<stop offset="0.43" stop-color="#966C28"/>
<stop offset="0.5" stop-color="#936927"/>
<stop offset="0.56" stop-color="#986E28"/>
<stop offset="0.62" stop-color="#A57B2C"/>
<stop offset="0.68" stop-color="#BC9132"/>
<stop offset="0.75" stop-color="#DCB03B"/>
<stop offset="0.81" stop-color="#FFD345"/>
</linearGradient>
<linearGradient id="paint2_linear_8580_2" x1="41.39" y1="34.6094" x2="41.39" y2="51.1594" gradientUnits="userSpaceOnUse">
<stop offset="0.23" stop-color="#FFD243"/>
<stop offset="0.24" stop-color="#FED143"/>
<stop offset="0.27" stop-color="#DDB13A"/>
<stop offset="0.3" stop-color="#C29733"/>
<stop offset="0.34" stop-color="#AD822E"/>
<stop offset="0.38" stop-color="#9E742A"/>
<stop offset="0.43" stop-color="#966C28"/>
<stop offset="0.5" stop-color="#936927"/>
<stop offset="0.56" stop-color="#986E28"/>
<stop offset="0.62" stop-color="#A57B2C"/>
<stop offset="0.68" stop-color="#BC9132"/>
<stop offset="0.75" stop-color="#DCB03B"/>
<stop offset="0.81" stop-color="#FFD345"/>
</linearGradient>
<linearGradient id="paint3_linear_8580_2" x1="56.79" y1="28.8096" x2="56.79" y2="51.0196" gradientUnits="userSpaceOnUse">
<stop offset="0.23" stop-color="#FFD243"/>
<stop offset="0.24" stop-color="#FED143"/>
<stop offset="0.27" stop-color="#DDB13A"/>
<stop offset="0.3" stop-color="#C29733"/>
<stop offset="0.34" stop-color="#AD822E"/>
<stop offset="0.38" stop-color="#9E742A"/>
<stop offset="0.43" stop-color="#966C28"/>
<stop offset="0.5" stop-color="#936927"/>
<stop offset="0.56" stop-color="#986E28"/>
<stop offset="0.62" stop-color="#A57B2C"/>
<stop offset="0.68" stop-color="#BC9132"/>
<stop offset="0.75" stop-color="#DCB03B"/>
<stop offset="0.81" stop-color="#FFD345"/>
</linearGradient>
<linearGradient id="paint4_linear_8580_2" x1="72.46" y1="34.6094" x2="72.46" y2="51.1594" gradientUnits="userSpaceOnUse">
<stop offset="0.23" stop-color="#FFD243"/>
<stop offset="0.24" stop-color="#FED143"/>
<stop offset="0.27" stop-color="#DDB13A"/>
<stop offset="0.3" stop-color="#C29733"/>
<stop offset="0.34" stop-color="#AD822E"/>
<stop offset="0.38" stop-color="#9E742A"/>
<stop offset="0.43" stop-color="#966C28"/>
<stop offset="0.5" stop-color="#936927"/>
<stop offset="0.56" stop-color="#986E28"/>
<stop offset="0.62" stop-color="#A57B2C"/>
<stop offset="0.68" stop-color="#BC9132"/>
<stop offset="0.75" stop-color="#DCB03B"/>
<stop offset="0.81" stop-color="#FFD345"/>
</linearGradient>
<linearGradient id="paint5_linear_8580_2" x1="10.6" y1="28.9795" x2="10.6" y2="51.1195" gradientUnits="userSpaceOnUse">
<stop offset="0.27" stop-color="#FFD345"/>
<stop offset="0.3" stop-color="#F3C843"/>
<stop offset="0.45" stop-color="#BC9338"/>
<stop offset="0.52" stop-color="#A67F34"/>
<stop offset="0.59" stop-color="#BC9537"/>
<stop offset="0.72" stop-color="#F2CB3E"/>
</linearGradient>
<linearGradient id="paint6_linear_8580_2" x1="26.6" y1="29.3799" x2="26.6" y2="50.6799" gradientUnits="userSpaceOnUse">
<stop offset="0.27" stop-color="#FFD345"/>
<stop offset="0.3" stop-color="#F3C843"/>
<stop offset="0.45" stop-color="#BC9338"/>
<stop offset="0.52" stop-color="#A67F34"/>
<stop offset="0.59" stop-color="#BC9537"/>
<stop offset="0.72" stop-color="#F2CB3E"/>
</linearGradient>
<linearGradient id="paint7_linear_8580_2" x1="40.53" y1="34.54" x2="40.53" y2="51.09" gradientUnits="userSpaceOnUse">
<stop offset="0.27" stop-color="#FFD345"/>
<stop offset="0.3" stop-color="#F3C843"/>
<stop offset="0.45" stop-color="#BC9338"/>
<stop offset="0.52" stop-color="#A67F34"/>
<stop offset="0.59" stop-color="#BC9537"/>
<stop offset="0.72" stop-color="#F2CB3E"/>
</linearGradient>
<linearGradient id="paint8_linear_8580_2" x1="55.91" y1="28.8496" x2="55.91" y2="50.9596" gradientUnits="userSpaceOnUse">
<stop offset="0.27" stop-color="#FFD345"/>
<stop offset="0.3" stop-color="#F3C843"/>
<stop offset="0.45" stop-color="#BC9338"/>
<stop offset="0.52" stop-color="#A67F34"/>
<stop offset="0.59" stop-color="#BC9537"/>
<stop offset="0.72" stop-color="#F2CB3E"/>
</linearGradient>
<linearGradient id="paint9_linear_8580_2" x1="71.6" y1="34.54" x2="71.6" y2="51.09" gradientUnits="userSpaceOnUse">
<stop offset="0.27" stop-color="#FFD345"/>
<stop offset="0.3" stop-color="#F3C843"/>
<stop offset="0.45" stop-color="#BC9338"/>
<stop offset="0.52" stop-color="#A67F34"/>
<stop offset="0.59" stop-color="#BC9537"/>
<stop offset="0.72" stop-color="#F2CB3E"/>
</linearGradient>
<linearGradient id="paint10_linear_8580_2" x1="20.71" y1="40.0395" x2="0" y2="40.0395" gradientUnits="userSpaceOnUse">
<stop offset="0.11" stop-color="#F1CA3D"/>
<stop offset="0.27" stop-color="#CBA438"/>
<stop offset="0.41" stop-color="#B08935"/>
<stop offset="0.5" stop-color="#A67F34"/>
<stop offset="0.58" stop-color="#AE8735"/>
<stop offset="0.71" stop-color="#C49D38"/>
<stop offset="0.86" stop-color="#E7C03D"/>
<stop offset="0.91" stop-color="#F2CB3E"/>
</linearGradient>
<linearGradient id="paint11_linear_8580_2" x1="30.09" y1="39.9798" x2="22.63" y2="39.9798" gradientUnits="userSpaceOnUse">
<stop offset="0.11" stop-color="#F1CA3D"/>
<stop offset="0.27" stop-color="#CBA438"/>
<stop offset="0.41" stop-color="#B08935"/>
<stop offset="0.5" stop-color="#A67F34"/>
<stop offset="0.58" stop-color="#AE8735"/>
<stop offset="0.71" stop-color="#C49D38"/>
<stop offset="0.86" stop-color="#E7C03D"/>
<stop offset="0.91" stop-color="#F2CB3E"/>
</linearGradient>
<linearGradient id="paint12_linear_8580_2" x1="48.89" y1="42.779" x2="31.67" y2="42.779" gradientUnits="userSpaceOnUse">
<stop offset="0.11" stop-color="#F1CA3D"/>
<stop offset="0.27" stop-color="#CBA438"/>
<stop offset="0.41" stop-color="#B08935"/>
<stop offset="0.5" stop-color="#A67F34"/>
<stop offset="0.58" stop-color="#AE8735"/>
<stop offset="0.71" stop-color="#C49D38"/>
<stop offset="0.86" stop-color="#E7C03D"/>
<stop offset="0.91" stop-color="#F2CB3E"/>
</linearGradient>
<linearGradient id="paint13_linear_8580_2" x1="60.48" y1="39.8794" x2="50.92" y2="39.8794" gradientUnits="userSpaceOnUse">
<stop offset="0.11" stop-color="#F1CA3D"/>
<stop offset="0.27" stop-color="#CBA438"/>
<stop offset="0.41" stop-color="#B08935"/>
<stop offset="0.5" stop-color="#A67F34"/>
<stop offset="0.58" stop-color="#AE8735"/>
<stop offset="0.71" stop-color="#C49D38"/>
<stop offset="0.86" stop-color="#E7C03D"/>
<stop offset="0.91" stop-color="#F2CB3E"/>
</linearGradient>
<linearGradient id="paint14_linear_8580_2" x1="79.96" y1="42.779" x2="62.74" y2="42.779" gradientUnits="userSpaceOnUse">
<stop offset="0.11" stop-color="#F1CA3D"/>
<stop offset="0.27" stop-color="#CBA438"/>
<stop offset="0.41" stop-color="#B08935"/>
<stop offset="0.5" stop-color="#A67F34"/>
<stop offset="0.58" stop-color="#AE8735"/>
<stop offset="0.71" stop-color="#C49D38"/>
<stop offset="0.86" stop-color="#E7C03D"/>
<stop offset="0.91" stop-color="#F2CB3E"/>
</linearGradient>
<linearGradient id="paint15_linear_8580_2" x1="93.54" y1="50.4798" x2="93.54" y2="29.3098" gradientUnits="userSpaceOnUse">
<stop offset="0.09" stop-color="#FFD243"/>
<stop offset="0.14" stop-color="#EEC23F"/>
<stop offset="0.25" stop-color="#C79C34"/>
<stop offset="0.35" stop-color="#AA802D"/>
<stop offset="0.44" stop-color="#996F29"/>
<stop offset="0.5" stop-color="#936927"/>
<stop offset="0.92" stop-color="#FFD345"/>
</linearGradient>
<linearGradient id="paint16_linear_8580_2" x1="113.1" y1="50.98" x2="113.1" y2="34.25" gradientUnits="userSpaceOnUse">
<stop offset="0.09" stop-color="#FFD243"/>
<stop offset="0.14" stop-color="#EEC23F"/>
<stop offset="0.25" stop-color="#C79C34"/>
<stop offset="0.35" stop-color="#AA802D"/>
<stop offset="0.44" stop-color="#996F29"/>
<stop offset="0.5" stop-color="#936927"/>
<stop offset="0.92" stop-color="#FFD345"/>
</linearGradient>
<linearGradient id="paint17_linear_8580_2" x1="132.26" y1="50.5204" x2="132.26" y2="34.4204" gradientUnits="userSpaceOnUse">
<stop offset="0.09" stop-color="#FFD243"/>
<stop offset="0.14" stop-color="#EEC23F"/>
<stop offset="0.25" stop-color="#C79C34"/>
<stop offset="0.35" stop-color="#AA802D"/>
<stop offset="0.44" stop-color="#996F29"/>
<stop offset="0.5" stop-color="#936927"/>
<stop offset="0.92" stop-color="#FFD345"/>
</linearGradient>
<linearGradient id="paint18_linear_8580_2" x1="151.37" y1="50.48" x2="151.37" y2="29.23" gradientUnits="userSpaceOnUse">
<stop offset="0.09" stop-color="#FFD243"/>
<stop offset="0.14" stop-color="#EEC23F"/>
<stop offset="0.25" stop-color="#C79C34"/>
<stop offset="0.35" stop-color="#AA802D"/>
<stop offset="0.44" stop-color="#996F29"/>
<stop offset="0.5" stop-color="#936927"/>
<stop offset="0.92" stop-color="#FFD345"/>
</linearGradient>
<linearGradient id="paint19_linear_8580_2" x1="92.74" y1="29.3098" x2="92.74" y2="50.5498" gradientUnits="userSpaceOnUse">
<stop offset="0.28" stop-color="#FFD345"/>
<stop offset="0.31" stop-color="#F3C843"/>
<stop offset="0.45" stop-color="#BC9338"/>
<stop offset="0.52" stop-color="#A67F34"/>
<stop offset="0.6" stop-color="#BC9537"/>
<stop offset="0.74" stop-color="#F2CB3E"/>
</linearGradient>
<linearGradient id="paint20_linear_8580_2" x1="112.38" y1="34.41" x2="112.38" y2="50.95" gradientUnits="userSpaceOnUse">
<stop offset="0.28" stop-color="#FFD345"/>
<stop offset="0.31" stop-color="#F3C843"/>
<stop offset="0.45" stop-color="#BC9338"/>
<stop offset="0.52" stop-color="#A67F34"/>
<stop offset="0.6" stop-color="#BC9537"/>
<stop offset="0.74" stop-color="#F2CB3E"/>
</linearGradient>
<linearGradient id="paint21_linear_8580_2" x1="131.44" y1="34.4702" x2="131.44" y2="50.4902" gradientUnits="userSpaceOnUse">
<stop offset="0.28" stop-color="#FFD345"/>
<stop offset="0.31" stop-color="#F3C843"/>
<stop offset="0.45" stop-color="#BC9338"/>
<stop offset="0.52" stop-color="#A67F34"/>
<stop offset="0.6" stop-color="#BC9537"/>
<stop offset="0.74" stop-color="#F2CB3E"/>
</linearGradient>
<linearGradient id="paint22_linear_8580_2" x1="150.48" y1="29.23" x2="150.48" y2="50.48" gradientUnits="userSpaceOnUse">
<stop offset="0.28" stop-color="#FFD345"/>
<stop offset="0.31" stop-color="#F3C843"/>
<stop offset="0.45" stop-color="#BC9338"/>
<stop offset="0.52" stop-color="#A67F34"/>
<stop offset="0.6" stop-color="#BC9537"/>
<stop offset="0.74" stop-color="#F2CB3E"/>
</linearGradient>
<linearGradient id="paint23_linear_8580_2" x1="101.88" y1="39.9298" x2="82.9" y2="39.9298" gradientUnits="userSpaceOnUse">
<stop offset="0.11" stop-color="#F1CA3D"/>
<stop offset="0.27" stop-color="#CBA438"/>
<stop offset="0.41" stop-color="#B08935"/>
<stop offset="0.5" stop-color="#A67F34"/>
<stop offset="0.58" stop-color="#AE8735"/>
<stop offset="0.71" stop-color="#C49D38"/>
<stop offset="0.86" stop-color="#E7C03D"/>
<stop offset="0.91" stop-color="#F2CB3E"/>
</linearGradient>
<linearGradient id="paint24_linear_8580_2" x1="120.46" y1="42.72" x2="103.72" y2="42.72" gradientUnits="userSpaceOnUse">
<stop offset="0.11" stop-color="#F1CA3D"/>
<stop offset="0.27" stop-color="#CBA438"/>
<stop offset="0.41" stop-color="#B08935"/>
<stop offset="0.5" stop-color="#A67F34"/>
<stop offset="0.58" stop-color="#AE8735"/>
<stop offset="0.71" stop-color="#C49D38"/>
<stop offset="0.86" stop-color="#E7C03D"/>
<stop offset="0.91" stop-color="#F2CB3E"/>
</linearGradient>
<linearGradient id="paint25_linear_8580_2" x1="139.76" y1="42.4904" x2="122.5" y2="42.4904" gradientUnits="userSpaceOnUse">
<stop offset="0.11" stop-color="#F1CA3D"/>
<stop offset="0.27" stop-color="#CBA438"/>
<stop offset="0.41" stop-color="#B08935"/>
<stop offset="0.5" stop-color="#A67F34"/>
<stop offset="0.58" stop-color="#AE8735"/>
<stop offset="0.71" stop-color="#C49D38"/>
<stop offset="0.86" stop-color="#E7C03D"/>
<stop offset="0.91" stop-color="#F2CB3E"/>
</linearGradient>
<linearGradient id="paint26_linear_8580_2" x1="158.76" y1="39.86" x2="141.58" y2="39.86" gradientUnits="userSpaceOnUse">
<stop offset="0.11" stop-color="#F1CA3D"/>
<stop offset="0.27" stop-color="#CBA438"/>
<stop offset="0.41" stop-color="#B08935"/>
<stop offset="0.5" stop-color="#A67F34"/>
<stop offset="0.58" stop-color="#AE8735"/>
<stop offset="0.71" stop-color="#C49D38"/>
<stop offset="0.86" stop-color="#E7C03D"/>
<stop offset="0.91" stop-color="#F2CB3E"/>
</linearGradient>
</defs>
</svg>
