<svg width="100" height="100" viewBox="0 0 100 100" fill="none" xmlns="http://www.w3.org/2000/svg">
<g clip-path="url(#clip0_6086_22)">
<path fill-rule="evenodd" clip-rule="evenodd" d="M92.0651 92.6459V0H90.5861L75.2615 16.516H15.3542C11.2868 16.516 8 19.8028 8 23.8702V92.6459C8 96.7132 11.2868 100 15.3542 100H84.711C88.7783 100 92.0651 96.7132 92.0651 92.6459ZM50.3494 63.7232C59.0183 63.7232 65.4686 57.4783 65.4686 48.9327C65.4686 40.3871 59.0183 34.1833 50.3494 34.1833H33.0117V74.9804H44.2689V63.7232H50.3494ZM49.0347 44.0026C51.9928 44.0026 53.9238 46.0157 53.9238 48.9327C53.9238 51.8497 51.9928 53.904 49.0347 53.904H44.2689V44.0026H49.0347Z" fill="white"/>
</g>
<defs>
<clipPath id="clip0_6086_22">
<rect width="100" height="100" fill="white"/>
</clipPath>
</defs>
</svg>
