<svg width="100" height="100" viewBox="0 0 100 100" fill="none" xmlns="http://www.w3.org/2000/svg">
<g clip-path="url(#clip0_9737_83)">
<path d="M49.1501 0.0498596C52.7201 -0.28014 56.4001 1.06986 59.1301 3.32986L83.9201 28.0599L48.5701 63.2999L37.2301 52.1999L61.1501 28.2599L50.2701 17.1799L16.7501 50.8899L50.0101 83.8599L94.5801 39.4199C101.13 45.8399 100.84 54.9999 94.9501 61.7699C84.7201 73.5199 71.4501 84.0399 60.9401 95.7099C54.8101 101.28 45.8201 101.45 39.5001 96.0699L4.54008 61.1699C-1.03992 54.4999 -0.599925 46.1099 5.02008 39.6499C15.8401 27.1899 29.9301 16.0499 41.0601 3.67986C43.3101 1.67986 46.1101 0.32986 49.1601 0.0498596H49.1501Z" fill="white"/>
</g>
<defs>
<clipPath id="clip0_9737_83">
<rect width="100" height="100" fill="white"/>
</clipPath>
</defs>
</svg>
