<svg width="160" height="80" viewBox="0 0 160 80" fill="none" xmlns="http://www.w3.org/2000/svg">
<path d="M159.88 30.2302C159.7 28.8802 158.99 27.9102 157.68 27.4702C156.2 26.9702 154.69 27.0302 153.24 27.5802C152.6 27.8202 152.02 28.2402 151.41 28.5702C151.21 28.3802 150.98 28.1302 150.71 27.9302C149.92 27.3302 148.99 27.1802 148.03 27.1702C146.87 27.1502 145.74 27.3302 144.75 27.9902C144.62 28.0802 144.49 28.1702 144.34 28.2802C144.29 27.9802 144.25 27.7102 144.22 27.4602H141.94V37.3102H144.47V36.9902C144.47 35.5502 144.47 34.1102 144.47 32.6802C144.47 32.2302 144.49 31.7902 144.54 31.3502C144.65 30.4202 145.16 29.7902 146.07 29.5302C146.7 29.3502 147.34 29.3302 147.99 29.4602C148.86 29.6402 149.38 30.1802 149.56 31.0402C149.64 31.4402 149.67 31.8502 149.67 32.2602C149.68 33.8502 149.67 35.4502 149.67 37.0402C149.67 37.1402 149.67 37.2302 149.67 37.3202H152.22V36.9802C152.22 35.5602 152.21 34.1402 152.22 32.7202C152.22 32.1802 152.27 31.6302 152.35 31.0902C152.48 30.3202 152.97 29.8302 153.69 29.5802C154.38 29.3402 155.08 29.3302 155.79 29.4602C156.55 29.6002 157.05 30.0502 157.25 30.8002C157.34 31.1202 157.41 31.4602 157.41 31.7902C157.43 33.5302 157.43 35.2702 157.44 37.0102C157.44 37.1102 157.44 37.2202 157.44 37.3202H159.98V37.0702C159.98 35.3602 159.98 33.6502 159.98 31.9402C159.98 31.3802 159.94 30.8102 159.87 30.2502L159.88 30.2302Z" fill="white"/>
<path d="M136.43 28.3399C135.95 28.0799 135.52 27.7999 135.05 27.6199C133.65 27.0799 132.21 27.0299 130.76 27.3699C129.01 27.7799 127.84 28.8399 127.36 30.5899C127 31.9299 127.03 33.2799 127.49 34.5899C127.86 35.6499 128.55 36.4399 129.55 36.9599C130.26 37.3299 131.03 37.5099 131.83 37.5699C133.19 37.6699 134.5 37.5199 135.72 36.8499C136.03 36.6799 136.32 36.4499 136.63 36.2399C136.69 36.6099 136.75 36.9599 136.81 37.2999H138.82V27.4499H136.55C136.51 27.7599 136.48 28.0599 136.44 28.3299L136.43 28.3399ZM134.73 35.0499C134.26 35.2699 133.62 35.3999 133 35.3899C133 35.4199 132.99 35.4399 132.98 35.4699C132.43 35.3399 131.85 35.2699 131.33 35.0499C130.21 34.5799 129.79 33.6299 129.75 32.4599C129.71 31.1899 130.28 30.1699 131.32 29.6899C131.88 29.4299 132.47 29.3399 133.08 29.3699C133.53 29.3899 133.99 29.4399 134.42 29.5799C135.58 29.9499 136.15 30.8199 136.26 31.9999C136.38 33.2899 135.94 34.4799 134.72 35.0399L134.73 35.0499Z" fill="white"/>
<path d="M122.68 27.6704C120.95 27.0404 119.18 27.0604 117.42 27.5704C116.06 27.9704 115.03 28.7904 114.48 30.1304C114.09 31.0904 114.01 32.0904 114.11 33.1004C114.3 34.8904 115.16 36.2304 116.84 36.9804C118.09 37.5404 119.42 37.6404 120.77 37.5604C121.81 37.5004 122.81 37.2904 123.71 36.7404C124.46 36.2804 125 35.6404 125.31 34.8104C125.27 34.7904 125.25 34.7704 125.22 34.7604C124.49 34.6304 123.77 34.5004 123.04 34.3904C122.96 34.3804 122.86 34.4604 122.78 34.5104C122.49 34.7304 122.24 35.0104 121.93 35.1704C121.09 35.5904 120.17 35.5804 119.26 35.4904C118.59 35.4304 117.96 35.2304 117.43 34.7904C116.91 34.3604 116.64 33.8004 116.58 33.1004H125.54C125.54 32.4904 125.6 31.9004 125.53 31.3204C125.33 29.5304 124.38 28.2804 122.68 27.6604V27.6704ZM116.65 31.3404C116.71 30.7204 116.96 30.2104 117.46 29.8304C117.97 29.4304 118.58 29.2704 119.21 29.2204C120.17 29.1304 121.12 29.1604 122 29.6104C122.7 29.9604 123.05 30.5504 123.11 31.3504H116.65V31.3404Z" fill="white"/>
<path d="M111.67 27.3701C110.7 27.4401 109.57 27.7501 108.72 28.4101C108.67 28.0601 108.64 27.7601 108.6 27.4601H106.32V37.3101H108.85V37.0001C108.85 35.6801 108.85 34.3601 108.85 33.0401C108.85 32.6001 108.88 32.1501 108.92 31.7101C109.01 30.8601 109.45 30.2601 110.26 29.9801C110.62 29.8501 111.02 29.7701 111.4 29.7501C111.78 29.7301 112.16 29.7501 112.55 29.7801L111.66 27.3701H111.67Z" fill="white"/>
<path d="M97.02 22.46H91.59L92.73 25.54H96.79C98.99 25.54 100.77 27.32 100.77 29.52V30.25C100.77 32.45 98.99 34.23 96.79 34.23H94.6V28.71H91.53V37.31H97.02C100.78 37.31 103.82 34.26 103.82 30.51V29.27C103.82 25.51 100.77 22.47 97.02 22.47V22.46Z" fill="white"/>
<path d="M130.14 46.4902L127.54 53.4102L124.94 46.4902H122.27L126.2 56.9502L124.47 61.5702H127.14L132.81 46.4902H130.14Z" fill="white"/>
<path d="M99.42 42.0597C98.56 41.7397 97.66 41.5797 96.75 41.5597C95.02 41.5397 93.29 41.5597 91.54 41.5597V56.3697H94.2V51.1997C94.83 51.1997 95.42 51.2197 96.01 51.1997C96.74 51.1697 97.47 51.1397 98.18 51.0297C99.29 50.8497 100.32 50.4397 101.12 49.5997C102.06 48.6197 102.36 47.4097 102.31 46.0797C102.24 44.2197 101.15 42.7097 99.41 42.0697L99.42 42.0597ZM97.94 48.6397C97.53 48.7597 97.11 48.8397 96.68 48.8597C95.86 48.8897 95.04 48.8597 94.2 48.8597V43.8097C95.42 43.8397 96.63 43.7197 97.81 44.0197C98.92 44.3097 99.57 45.1597 99.6 46.3397C99.63 47.4397 99.02 48.2997 97.94 48.6297V48.6397Z" fill="white"/>
<path d="M118.38 47.46C118.28 47.39 118.22 47.34 118.15 47.31C117.76 47.09 117.39 46.83 116.98 46.68C115.59 46.15 114.15 46.1 112.71 46.44C110.95 46.85 109.78 47.93 109.31 49.69C108.96 51 108.99 52.32 109.43 53.62C109.79 54.69 110.48 55.5 111.48 56.03C112.2 56.41 112.98 56.59 113.78 56.65C115.14 56.75 116.45 56.6 117.67 55.93C117.98 55.76 118.27 55.53 118.58 55.32C118.64 55.68 118.7 56.03 118.76 56.38H120.78V46.54H118.5C118.46 46.85 118.43 47.15 118.39 47.48L118.38 47.46ZM116.68 54.13C116.14 54.38 115.57 54.45 114.98 54.46C114.98 54.49 114.97 54.51 114.96 54.54C114.41 54.41 113.83 54.34 113.31 54.12C112.19 53.65 111.77 52.7 111.73 51.54C111.68 50.27 112.26 49.25 113.3 48.77C113.86 48.51 114.45 48.42 115.05 48.45C115.5 48.47 115.96 48.52 116.39 48.66C117.55 49.03 118.1 49.89 118.24 51.08C118.4 52.43 117.81 53.62 116.68 54.14V54.13Z" fill="white"/>
<path d="M104.22 56.3698H106.71V41.5498H104.22V56.3698Z" fill="white"/>
<path d="M25.92 30.35L15.32 26.43L25.92 22.51L25.93 22.46L0 26.43L25.94 30.4L25.92 30.35Z" fill="url(#paint0_linear_9194_24)"/>
<path d="M32 24.2697L29.85 18.4497L29.84 18.4297L27.68 24.2697L21.85 26.4297L27.68 28.5897L29.84 34.4297L29.85 34.4097L32 28.5897L37.84 26.4297L32 24.2697Z" fill="url(#paint1_linear_9194_24)"/>
<path d="M38.05 56.3295L27.44 52.3995L38.05 48.4795L38.06 48.4395L12.13 52.3995L38.06 56.3695L38.05 56.3295Z" fill="url(#paint2_linear_9194_24)"/>
<path d="M44.13 50.2402L41.98 44.4202L41.97 44.4102L39.81 50.2402L33.97 52.4002L39.81 54.5602L41.97 60.4002L41.98 60.3802L44.13 54.5602L49.96 52.4002L44.13 50.2402Z" fill="url(#paint3_linear_9194_24)"/>
<path d="M76.09 30.8293C74.76 38.7393 68.37 44.9193 60.37 45.9593C59.9 46.0593 59.42 46.1193 58.93 46.1193H45.03L45.9 48.4793L56.5 52.3993L45.9 56.3193L45.06 58.5793H58.91C69.51 58.5793 78.1 49.9893 78.1 39.3893C78.1 36.3093 77.37 33.3993 76.09 30.8193V30.8293Z" fill="url(#paint4_linear_9194_24)"/>
<path d="M45.89 48.4791L45.02 46.1191L45.89 48.4791L56.49 52.3991L45.89 48.4791Z" fill="url(#paint5_linear_9194_24)"/>
<path d="M58.91 20.1992H32.92L33.76 22.4792L44.36 26.3992H44.33L44.36 26.4292L33.76 30.3492L32.9 32.6692H58.91C62.62 32.6692 65.63 35.6792 65.63 39.3892C65.63 42.6092 63.37 45.2892 60.35 45.9592C68.35 44.9192 74.73 38.7392 76.07 30.8292C72.92 24.5292 66.42 20.1992 58.89 20.1992H58.91Z" fill="url(#paint6_linear_9194_24)"/>
<defs>
<linearGradient id="paint0_linear_9194_24" x1="25.6" y1="26.43" x2="0.560001" y2="26.43" gradientUnits="userSpaceOnUse">
<stop stop-color="#77C8FF"/>
<stop offset="1" stop-color="#713EFF"/>
</linearGradient>
<linearGradient id="paint1_linear_9194_24" x1="21.08" y1="26.4297" x2="69.67" y2="26.4297" gradientUnits="userSpaceOnUse">
<stop stop-color="#77C8FF"/>
<stop offset="1" stop-color="#713EFF"/>
</linearGradient>
<linearGradient id="paint2_linear_9194_24" x1="3.52" y1="52.3995" x2="32.42" y2="52.3995" gradientUnits="userSpaceOnUse">
<stop stop-color="#FFD466"/>
<stop offset="1" stop-color="#FF4725"/>
</linearGradient>
<linearGradient id="paint3_linear_9194_24" x1="79.85" y1="35.6902" x2="35.88" y2="55.0902" gradientUnits="userSpaceOnUse">
<stop stop-color="#FFD466"/>
<stop offset="1" stop-color="#FF4725"/>
</linearGradient>
<linearGradient id="paint4_linear_9194_24" x1="77.85" y1="36.7293" x2="48.25" y2="56.8993" gradientUnits="userSpaceOnUse">
<stop stop-color="#FFD466"/>
<stop offset="1" stop-color="#FF4725"/>
</linearGradient>
<linearGradient id="paint5_linear_9194_24" x1="75.09" y1="32.6791" x2="45.49" y2="52.8491" gradientUnits="userSpaceOnUse">
<stop stop-color="#FFD466"/>
<stop offset="1" stop-color="#FF4725"/>
</linearGradient>
<linearGradient id="paint6_linear_9194_24" x1="35.54" y1="19.8692" x2="65.78" y2="35.5092" gradientUnits="userSpaceOnUse">
<stop stop-color="#77C8FF"/>
<stop offset="1" stop-color="#713EFF"/>
</linearGradient>
</defs>
</svg>
