<svg width="160" height="80" viewBox="0 0 160 80" fill="none" xmlns="http://www.w3.org/2000/svg">
<g clip-path="url(#clip0_9738_115)">
<path d="M35.72 70.6397C35.72 70.6397 35.68 70.6397 35.64 70.6197C34.76 70.3997 32.65 69.9197 30.6 69.5497C27.97 69.0797 27.5 68.7697 26.26 68.3097C25.27 67.9397 21.82 66.2897 20.22 65.5197C20.22 65.5197 19.1 64.9397 18.86 64.6897C18.34 64.1497 19.01 63.5397 19.01 63.5397C19.01 63.5397 18.65 64.1197 19.01 64.5397C19.19 64.7397 20.14 65.1597 20.14 65.1597V61.3397L20.03 57.2197C20.65 57.7897 23.92 60.2797 24.73 60.9597C25.66 61.7397 26.24 61.7997 27.96 63.5097C28.58 64.1297 28.43 65.2197 30.13 66.9197C31.32 68.1097 34.99 70.3897 35.63 70.6197C35.66 70.6197 35.68 70.6297 35.71 70.6397H35.72Z" fill="#FAFAFA"/>
<path d="M32.8 30.4004C32.8 30.4004 32.46 31.1604 31.28 31.9304C30.59 32.3804 29.96 32.6304 29.56 32.6204C29.56 32.6204 30.15 32.5504 31.15 31.9104C32.4 31.1104 32.81 30.4004 32.81 30.4004H32.8Z" fill="#FAFAFA"/>
<path d="M24.14 32.85C24.14 32.85 20.07 32.84 18.71 32.81C15.17 32.73 13.26 32.5 13.28 32.6C13.34 32.92 15.65 32.92 18.77 32.92C21.24 32.92 24.13 32.85 24.13 32.85H24.14Z" fill="#FAFAFA"/>
<path d="M45.14 33.46C45.14 33.46 51.84 35.59 52.82 37.11C53.8 38.63 52.38 41.64 51.9 41.93C51.42 42.22 45.22 34.4 45.14 33.46Z" fill="#FAFAFA"/>
<path d="M68.1 22.7597C67.87 22.7597 43.93 15.4097 33.49 13.6497C21.49 11.6297 12.83 10.0797 0.0100098 10.1897C0.0100098 10.1897 5.81001 8.12966 33.88 13.2297C49.34 16.0297 68.11 22.7597 68.11 22.7597H68.1Z" fill="#FAFAFA"/>
<path d="M37.22 54.4103C35.21 54.5503 33.92 53.7403 34.04 53.7403C34.91 53.7203 34.98 53.4803 35.07 53.3403C34.74 53.3403 34.18 53.4603 32.91 53.1203C31.64 52.7803 29.88 51.1103 29.33 50.2503L30.33 50.9703C30.23 50.7803 29.84 50.1803 29.64 49.9303C29.6 49.8803 29.86 49.4003 30.05 49.2503C29.36 49.3703 28.7 49.0503 28.46 48.8203C29.26 48.8203 29.75 48.3403 29.89 48.1003L29.32 47.9603C29.51 47.8203 29.82 47.3803 30.16 47.0403C30.59 46.6103 30.37 46.4303 31.47 45.3803C32.28 44.6103 34.02 42.9103 34.34 42.6503C35.03 42.0903 38.04 41.7803 40.43 42.5003C44.15 43.6303 44.49 44.6403 44.95 44.6603C45.19 44.6603 45.78 44.2903 46.39 43.8503C46.11 43.7103 45.84 43.5803 45.66 43.5203C45.19 43.3603 40.77 40.8703 40.08 39.9303C39.59 39.2603 38.17 37.8603 37.45 37.2903C38.69 36.5203 38.53 35.4303 39.46 34.3403C40.39 33.2503 41.16 32.3203 41.16 31.7003C41.16 31.0803 40.23 31.2303 39.61 29.6803C39.34 29.0103 39.66 27.8703 39.92 27.3503C39.87 27.2503 39.61 26.9803 38.99 26.7303C38.22 26.4203 37.6 26.5703 36.51 26.7303C35.43 26.8903 35.12 28.1303 33.57 31.3803C32.33 33.9903 30.78 34.1703 27.99 34.1703C24.84 34.1703 18.14 34.0103 15.91 34.0103C13.68 34.0103 12.81 33.6003 12.66 33.3903C13.18 35.3003 14.27 39.5303 14.52 41.1403C14.83 43.1603 15.33 49.2603 17.31 53.0803C19.15 56.6203 23.09 59.0903 23.72 59.5603C25.92 61.2003 29.34 63.3103 32.03 64.4003C34.01 65.3903 37.25 65.5403 38.54 65.3303C39.62 64.2403 41.95 59.7503 42.41 57.7303L42.53 57.2803C41.77 56.0703 39.02 54.2503 37.22 54.3803V54.4103ZM37.08 40.0803C37.08 39.6303 37.17 38.9003 37.26 38.9103C37.36 38.9303 37.26 39.8303 37.28 40.1303C37.3 40.4203 37.44 41.3703 37.32 41.3703C36.99 41.3703 37.07 40.5303 37.08 40.0803ZM34.96 35.4603C35.32 35.2503 35.8 35.5303 36.18 35.7403C36.56 35.9503 36.75 36.5803 36.75 36.5803C36.82 36.9203 35.29 37.7903 34.78 37.7603C34.28 37.7303 34.39 37.2303 34.22 36.7303C34.05 36.2303 34.6 35.6703 34.96 35.4603ZM32.88 35.6803C32.88 37.5303 32.92 37.6203 33.78 38.2103C34.64 38.7903 35.83 38.8503 35.83 38.8503H35.88C34.14 39.0903 34.02 38.8803 33.19 38.4003C32.36 37.9103 32.88 35.6803 32.88 35.6803Z" fill="#FAFAFA"/>
<path d="M32.12 49.5704C32.12 49.5704 32.42 49.1204 33.06 49.0404C33.37 49.0004 33.94 49.0204 34.47 49.0604H34.48C35.03 49.1004 36.62 49.2704 36.78 49.3004C36.78 49.3004 36.96 49.4404 37.13 49.4504C37.34 49.4604 37.53 49.1204 37.92 49.1804C38.31 49.2404 38.31 49.8404 38.4 49.8404C38.42 49.8404 38.74 49.0804 39.05 49.1104C39.36 49.1404 39.87 48.9404 40.41 49.5504C41.07 50.2904 41.41 50.8704 40.92 51.2704C40.82 51.3504 40.4 51.4004 40.31 51.4004C39.97 51.4304 40.06 51.0104 39.95 51.0804C39.81 51.1704 39.92 51.5304 39.79 51.5304C39.65 51.5304 39.76 50.5504 39.55 50.6804C39.34 50.8104 39.52 51.5304 39.33 51.4904C39.15 51.4504 39.11 50.8104 38.95 50.9404C38.79 51.0704 38.87 51.7204 38.71 51.5204C38.55 51.3204 38.86 50.3604 38.64 50.4204C38.42 50.4704 38.44 51.8504 38.25 51.8604C38.06 51.8704 37.91 51.4904 37.86 51.7004C37.81 51.9104 37.86 52.0604 37.39 52.0904C36.92 52.1304 37.13 51.8304 36.96 51.8704C36.79 51.9104 36.91 52.2104 36.66 52.1104C36.41 52.0104 36.5 51.7204 36.37 51.8504C36.24 51.9804 36.11 52.0004 36.06 51.9404C36.01 51.8904 35.94 51.2404 35.83 51.3804C35.72 51.5204 35.79 50.3104 35.63 50.4004C35.48 50.4904 35.18 51.5304 35.03 51.5804C34.88 51.6304 34.95 50.6104 34.77 50.6404C34.58 50.6704 34.67 51.6704 34.54 51.5704C34.41 51.4704 34.61 50.7304 34.35 50.8904C34.09 51.0604 34.06 51.4404 33.71 51.4104C33.37 51.3704 33.04 50.9604 33.19 50.7604C33.34 50.5604 33.45 50.3704 33.28 50.3504C33.11 50.3304 32.88 50.2404 33.02 50.0904C33.16 49.9404 34 49.3804 33.8 49.3504C33.6 49.3304 32.23 49.6204 32.13 49.5304L32.12 49.5704Z" fill="#FAFAFA"/>
<path d="M36.3 42.95C36.3 42.95 35.92 42.92 35.94 43.03C35.96 43.14 36 43.42 36.21 43.36C36.42 43.3 36.28 43.17 36.47 43.18C36.67 43.18 36.53 43.51 36.75 43.46C36.97 43.4 36.73 43.2 36.85 43.18C36.97 43.17 36.9 43.45 37.06 43.38C37.22 43.31 37.13 43.16 37.45 43.18C37.76 43.2 37.42 43.46 37.64 43.4C37.85 43.34 37.74 43.12 37.91 43.19C38.09 43.26 38.02 43.5 38.13 43.36C38.24 43.22 38.51 43.02 38.29 42.98C38.07 42.94 37.22 42.96 37.18 43.01C37.14 43.07 37.11 42.99 36.93 42.97C36.75 42.95 36.46 42.98 36.31 42.96L36.3 42.95Z" fill="#FAFAFA"/>
<path d="M85.76 38.0896C83.18 38.0896 81.33 37.4496 80.18 36.1696C79.05 34.8896 78.48 32.8496 78.48 30.0496V27.2896H84.06V30.8196C84.06 31.4696 84.16 31.9797 84.35 32.3596C84.55 32.7197 84.9 32.9096 85.39 32.9096C85.88 32.9096 86.26 32.7596 86.45 32.4596C86.65 32.1596 86.75 31.6696 86.75 30.9896C86.75 30.1196 86.66 29.3996 86.49 28.8296C86.32 28.2396 86.02 27.6896 85.59 27.1596C85.17 26.6296 84.59 26.0096 83.84 25.2996L81.31 22.8996C79.42 21.1196 78.47 19.0696 78.47 16.7796C78.47 14.4896 79.03 12.5396 80.14 11.2796C81.26 10.0196 82.88 9.38965 85 9.38965C87.59 9.38965 89.42 10.0796 90.5 11.4596C91.59 12.8396 92.14 14.9296 92.14 17.7396H86.4V15.7996C86.4 15.4196 86.29 15.1196 86.06 14.8996C85.85 14.6896 85.55 14.5796 85.18 14.5796C84.73 14.5796 84.4 14.7096 84.19 14.9596C83.99 15.2096 83.89 15.5296 83.89 15.9196C83.89 16.3096 84 16.7396 84.21 17.1996C84.42 17.6596 84.85 18.1896 85.48 18.7896L88.73 21.9196C89.38 22.5396 89.98 23.1996 90.52 23.8896C91.07 24.5696 91.5 25.3797 91.83 26.2896C92.16 27.1996 92.33 28.3096 92.33 29.6196C92.33 32.2696 91.84 34.3496 90.86 35.8596C89.89 37.3596 88.19 38.0996 85.76 38.0996V38.0896ZM93.57 37.8297V9.61965H99.18V19.6996H101.84V9.61965H107.45V37.8297H101.84V25.0396H99.18V37.8297H93.57ZM108.68 37.8297L111.41 9.61965H120.98L123.66 37.8297H118.32L117.92 33.2796H114.52L114.17 37.8297H108.69H108.68ZM114.91 28.7796H117.47L116.24 14.4296H115.98L114.91 28.7796ZM124.88 37.8297L125.19 9.61965H132.95C134.98 9.61965 136.51 10.1896 137.53 11.3196C138.56 12.4396 139.07 14.0896 139.07 16.2596V29.4696C139.07 32.1396 138.6 34.1996 137.66 35.6596C136.73 37.1096 134.79 37.8396 132.45 37.8396H124.88V37.8297ZM130.86 32.8496H131.84C132.88 32.8496 133.39 32.3496 133.39 31.3396V16.7896C133.39 15.8496 133.26 15.2496 133.01 14.9796C132.76 14.6996 132.26 14.5596 131.49 14.5596H130.87V32.8496H130.86ZM143.52 37.8297V28.5496L139.02 9.61965H144.61L146.18 19.1696L147.75 9.61965H153.33L148.84 28.5496V37.8297H143.52ZM87.37 68.2696V40.0597H93.01V63.4596H98.81V68.2696H87.37ZM100.06 68.2696L102.78 40.0597H112.35L115.03 68.2696H109.69L109.29 63.7197H105.89L105.54 68.2696H100.06ZM106.3 59.2197H108.86L107.63 44.8696H107.37L106.3 59.2197ZM116.26 68.2696V40.0597H124.02C126.05 40.0597 127.58 40.6296 128.6 41.7596C129.63 42.8796 130.14 44.5296 130.14 46.6996V59.9096C130.14 62.5797 129.67 64.6396 128.73 66.0996C127.8 67.5496 126.17 68.2796 123.83 68.2796H116.26V68.2696ZM121.94 63.2896H122.92C123.96 63.2896 124.47 62.7896 124.47 61.7796V47.2296C124.47 46.2896 124.34 45.6896 124.09 45.4196C123.84 45.1396 123.34 44.9996 122.57 44.9996H121.94V63.2896ZM134.6 68.2696V58.9897L130.1 40.0597H135.69L137.26 49.6096L138.83 40.0597H144.41L139.92 58.9897V68.2696H134.6Z" fill="#FAFAFA"/>
<path d="M156.95 9.62012V10.0001H156.15V12.3301H155.75V10.0001H154.96V9.62012H156.95ZM158.79 12.3401H158.41L157.61 10.1901V12.3401H157.21V9.62012H157.8L158.61 11.7701L159.4 9.62012H160V12.3401H159.6V10.1901L158.79 12.3401Z" fill="#FAFAFA"/>
</g>
<defs>
<clipPath id="clip0_9738_115">
<rect width="160" height="80" fill="white"/>
</clipPath>
</defs>
</svg>
