<svg width="160" height="80" viewBox="0 0 160 80" fill="none" xmlns="http://www.w3.org/2000/svg">
<path d="M105.89 34.9801C107.92 36.9701 110.59 39.8701 112.09 41.3401L118.47 41.2901L118.49 32.3101L118.51 23.3301C117.43 23.3301 115.25 23.3301 114.17 23.3301C114.16 25.4601 114.22 36.5601 114.07 36.4001C113.98 36.4601 112.99 35.4801 108.33 30.7001C106.5 28.8201 103.12 25.3701 101.65 23.8501C100.42 22.3201 101.35 27.1101 101.07 32.4201L101.09 41.2801H103.26H105.43C105.59 40.4101 105.11 33.6201 105.87 34.9701L105.89 34.9801Z" fill="url(#paint0_linear_9095_22)"/>
<path d="M159.74 23.3402H157.16H154.37C153.38 24.6302 152.13 26.0302 151.11 27.2902C150.71 27.6702 150.22 28.4702 149.78 28.7602C149.72 28.7602 149.53 28.5902 149.36 28.3902C148.55 27.4402 146.5 25.0502 145.57 23.8802C145.32 22.7402 140.37 23.4102 139.66 23.2902C139.02 23.3502 142.02 26.2602 141.78 26.2302C143.14 27.8002 144.92 29.8802 146.14 31.4202C147.56 32.5002 145.88 33.2502 145.35 34.1302C144.14 35.5802 143.7 36.0902 142.44 37.6202C141.5 38.8302 140.27 40.0102 139.54 41.1702C139.45 41.3202 144.09 41.3002 144.97 41.3202L145.27 41.0302C147.88 37.8702 150.85 34.4902 153.29 31.4002C155.47 28.9502 157.49 26.4402 159.59 23.9302C159.67 23.6002 159.73 23.4902 159.78 23.5502C159.8 23.5202 159.82 23.4902 159.84 23.4702C159.86 23.4402 159.88 23.4202 159.9 23.3902C159.84 23.3702 159.79 23.3502 159.74 23.3202V23.3402Z" fill="url(#paint1_linear_9095_22)"/>
<path d="M159.88 57.3504C159.88 57.3504 159.88 57.3504 159.88 57.3804C159.9 57.3504 159.92 57.3204 159.95 57.3004V51.3304L153.37 51.2804L146.79 51.2304C146.63 47.6004 146.5 49.0604 151.86 48.7204C155.74 48.7004 157.53 48.6904 159.95 48.6504V44.4404H152.98C146.11 44.4404 146.01 44.4404 145.88 44.6204C145.05 45.6504 144.3 46.5304 143.56 47.4204C142.31 48.8904 142.41 48.6504 142.41 50.0204V51.2304C146.95 56.2204 144.3 55.6104 150.93 55.6104H155.52C155.63 55.9704 155.6 56.2604 155.6 57.0104L155.57 58.0004L149.01 58.0504C145.4 58.0804 142.44 58.1104 142.43 58.1204C142.42 58.1304 142.41 59.0504 142.41 60.1704C142.41 61.8904 142.43 62.2204 142.55 62.3404C141.38 62.5304 155.87 62.5504 155.57 62.4304C157.05 60.9604 158.53 58.9304 159.88 57.3304V57.3504Z" fill="url(#paint2_linear_9095_22)"/>
<path d="M135.07 51.2002C130.7 51.2002 130.56 51.2002 130.47 51.3702C130.44 56.4602 129.11 55.5502 135.09 55.6302C140.48 55.2902 139.76 56.7702 139.87 53.3402C139.87 51.5702 139.85 51.3002 139.73 51.2502C139.65 51.2202 137.56 51.2002 135.07 51.2002Z" fill="url(#paint3_linear_9095_22)"/>
<path d="M140.33 44.5199L140.12 44.4699C139.34 44.3899 127.81 44.4399 123.82 44.5499V53.4999V62.4499C126.84 62.4599 139.28 62.5099 140.12 62.4499L140.32 62.3999C140.32 61.3199 140.32 59.1399 140.32 58.0599C137.3 58.0599 131.22 58.0599 128.2 58.0599C128.2 55.7699 128.24 51.1699 128.25 48.8799C131.25 48.8599 137.28 48.8099 140.28 48.7899C140.29 47.7199 140.31 45.5799 140.33 44.5199Z" fill="url(#paint4_linear_9095_22)"/>
<path d="M125.02 37.0201C125.04 33.5201 125.07 32.7501 125.16 32.7501C125.23 32.7501 125.46 32.9801 125.68 33.2601C127.75 35.7101 129.33 37.5601 131.27 39.9301C131.79 40.4601 131.99 40.8001 132.51 41.3401H135.19H137.87C137.93 40.8001 137.28 40.3801 137.03 39.9401C135.31 37.8401 132.14 34.4701 130.68 32.2201C132.33 30.2801 134.04 28.1901 135.69 26.2301C136.6 25.1601 136.69 25.0601 137.41 24.1901C137.95 23.5001 137.95 23.4901 137.85 23.3701C138.21 23.1501 132.52 23.3101 132.56 23.3101C132.46 23.3301 132.22 23.5501 132.03 23.8001C130.27 25.8901 128.04 28.5401 126.24 30.7101C125.88 31.1101 125.52 31.7001 125.11 31.9401C124.98 31.9101 125.03 24.7801 125.02 23.3501C123.94 23.3501 121.76 23.3501 120.68 23.3501C120.68 27.8201 120.72 36.8301 120.73 41.3001H124.98L125 37.0301L125.02 37.0201Z" fill="url(#paint5_linear_9095_22)"/>
<path d="M79.04 51.2504C78.79 51.1504 68.98 51.1904 68.92 51.2804C68.63 51.2404 70.08 52.9604 70.2 53.0904C70.8 53.8204 71.09 54.1104 71.66 54.8404C72.08 56.0004 73.93 55.4304 74.7 55.6604C74.91 55.6304 74.78 57.5804 74.79 58.0204C72.87 58.0204 69.02 58.0204 67.1 58.0204C67.1 56.5004 67 48.9004 67.16 48.9604C66.81 48.7604 74.2 48.8704 75.52 48.8404C76.64 47.6004 78.08 46.0304 79.06 44.5604C79 44.3904 62.82 44.3504 62.75 44.5204C62.73 44.5804 62.72 47.5304 62.73 51.0704C63.05 60.0204 61.78 55.8504 64.97 60.0804C65.34 60.6104 66.4 61.8004 67 62.4904H72.98C77.51 62.4904 78.98 62.4604 79.07 62.3804C79.21 62.6604 79.28 50.5904 79.04 51.2404V51.2504Z" fill="url(#paint6_linear_9095_22)"/>
<path d="M73.21 35.0698L79.13 35.0498V32.9698V30.8898C75.04 30.8798 66.8 30.8598 62.71 30.8398C62.71 33.4398 62.75 38.6798 62.76 41.2898C63.51 41.2898 66.87 41.3898 66.93 41.2398C67.03 41.1598 67.05 40.5898 67.05 38.2698C67.41 33.5898 65.4 35.5398 73.2 35.0798L73.21 35.0698Z" fill="url(#paint7_linear_9095_22)"/>
<path d="M120.76 45.1698C117.93 47.9998 113.62 52.7098 110.71 55.3598C108.34 53.1898 103.71 48.2098 100.64 45.0798C100.35 44.8098 100.07 44.5898 100.01 44.5898C99.78 47.1198 99.78 64.1598 99.99 62.4098C100.22 62.5298 103.39 62.4498 104.2 62.4498L104.22 59.1298C104.23 57.1098 104.28 55.8098 104.33 55.8098C113.33 64.2498 108.44 63.5798 117.12 55.8098C117.22 55.8098 117.1 62.6698 117.29 62.3898C117.37 62.4698 117.97 62.4998 119.41 62.4998C121.31 62.4998 121.43 62.4898 121.52 62.3298C121.62 62.1398 121.66 45.3798 121.56 44.8798C121.44 44.2898 121.25 44.7798 120.77 45.1698H120.76Z" fill="url(#paint8_linear_9095_22)"/>
<path d="M79.16 23.3605C79.08 23.2805 77.13 23.2505 70.93 23.2505C70.86 23.4005 62.46 22.9305 62.72 23.4805C63.11 29.3305 59.8 27.4205 70.94 27.7705C77.13 27.7705 79.08 27.7405 79.17 27.6605C79.32 27.8705 79.31 23.1405 79.17 23.3505L79.16 23.3605Z" fill="url(#paint9_linear_9095_22)"/>
<path d="M94.47 23.3303C94.47 26.7003 94.47 33.5003 94.47 36.8803C93.61 37.0503 87.21 36.9903 86.24 36.9203L85.74 36.8603C85.74 34.3503 85.83 24.4203 85.74 23.6303L85.67 23.3403H81.34V29.7803C81.34 38.0003 80.55 35.0403 85.43 41.1803C85.1 41.3403 93.11 41.3203 94.53 41.3403C94.66 41.2003 95.16 40.7203 95.17 40.6403C99.36 35.4703 98.94 37.7403 98.86 29.4803C98.42 22.2203 100.71 23.4603 94.45 23.3303H94.47Z" fill="url(#paint10_linear_9095_22)"/>
<path d="M98.77 62.37C94.96 57.9 87.95 51.24 83.21 46.18C82.29 45.26 81.5 44.5 81.45 44.5C81.38 44.5 81.36 47.01 81.37 53.48L81.39 62.46H83.56H85.73C85.74 61.29 85.75 56.02 85.86 55.81C85.91 55.81 86.12 56 86.33 56.22C88.17 58.06 90.56 60.88 92.58 62.5C93.54 62.47 99.11 62.59 98.76 62.37H98.77Z" fill="url(#paint11_linear_9095_22)"/>
<path d="M52.9012 42.0025C52.9909 29.4715 43.2723 19.243 31.1942 19.1566C19.116 19.0701 9.25204 29.1585 9.16236 41.6895C9.07269 54.2205 18.7913 64.449 30.8694 64.5354C42.9476 64.6218 52.8116 54.5335 52.9012 42.0025Z" fill="white"/>
<path d="M6.80001 54.7404C9.75474 54.7404 12.15 51.2974 12.15 47.0504C12.15 42.8033 9.75474 39.3604 6.80001 39.3604C3.84529 39.3604 1.45001 42.8033 1.45001 47.0504C1.45001 51.2974 3.84529 54.7404 6.80001 54.7404Z" fill="white"/>
<path d="M6.09002 43.5203C3.26003 41.8003 2.67002 46.1403 3.52002 47.9603C3.87002 49.6403 6.32002 52.5203 7.82002 50.2903C8.05002 50.2403 8.14003 49.0103 8.27003 48.7103C8.54003 48.0803 8.15002 47.6403 8.04002 46.7403C7.76002 45.4203 7.11002 44.3103 6.09002 43.5203Z" fill="#1C4791"/>
<path d="M44.18 33.5899C39.36 33.1699 35.97 34.1099 30.79 34.3699C27.23 34.6199 22.5 34.5999 20.72 38.2499C18.06 42.7699 22.13 48.8499 27.32 48.1199C29.08 47.8599 30.22 47.1599 31.34 46.1599C32.11 45.2499 32.1 44.8699 33.64 44.8999C35.19 44.9699 36.93 44.1899 38.19 44.7999C39.79 46.3199 42.86 47.0699 44.96 46.0699C50.94 43.6499 50.44 35.2299 44.18 33.5799V33.5899ZM30.93 41.3799C30.7 41.4199 29.48 41.7099 29.23 41.6999C28.14 41.7399 28.58 43.9899 28.32 44.6099C27.37 45.3499 26.22 44.6699 26.27 43.3099C26.27 42.2099 25.96 41.9699 24.57 41.9599C23.39 41.9599 23.11 41.8299 23.1 41.2799C23.21 39.9499 22.94 40.0499 24.51 39.8199C26.96 39.8699 25.22 37.0899 26.55 36.5299C28.66 36.1399 27.62 38.3799 28.57 39.1899C28.69 39.5199 30.65 39.3899 30.94 39.4699C31.56 39.7499 31.5 41.0299 30.94 41.3599L30.93 41.3799ZM40.15 41.0699C39.14 40.5699 39.12 38.8499 40.42 38.5299C41.35 38.2499 41.98 38.9899 42.3 39.7999C42.16 40.7599 40.9 41.6899 40.15 41.0799V41.0699ZM42.76 35.8599C45.94 35.0399 44.44 39.8799 42.32 37.6899C41.84 36.8499 42.09 36.2699 42.76 35.8599ZM44.11 43.6499C42.23 43.9499 41.86 41.5199 43.47 40.9499C45.25 40.5699 45.84 43.2599 44.11 43.6499ZM46.97 40.0099C45.84 41.5999 43.96 39.3599 45.46 38.2899C46.47 37.7499 47.75 39.0099 46.97 40.0099Z" fill="#00BFF2"/>
<path d="M53.48 35.4602C52.26 32.5202 50.34 29.6002 47.42 27.8202C35.72 20.6402 17.17 24.0702 11.44 37.1802C10.84 37.8402 10.79 40.2902 9.61003 39.9702L9.30003 39.9402L9.27003 39.3502C9.27003 37.9702 9.67003 37.2002 10.07 36.2702C10.48 35.5002 10.92 34.4602 11.38 33.7102C15.17 27.4902 21.65 22.8602 29.07 21.9002C33.85 21.1002 39.25 21.7302 43.72 23.3802C43.61 22.8802 41.62 21.1402 41.24 20.9902C40.87 20.6502 39.7 20.4002 39.87 19.7502C40.16 18.0102 40.13 16.1002 39.79 14.4102C39.64 13.0002 39.09 13.9902 38.54 14.3002C38.16 14.6202 37.42 15.1002 37.03 15.4002C34.1 17.0302 33.06 17.4902 29.34 18.0102C25.22 18.2202 20.74 18.9602 17.17 21.0302C10.56 24.5302 5.53003 30.5702 3.92003 37.7302C3.80003 38.4302 3.78003 38.4702 3.12003 38.9802C2.38003 39.5502 1.21003 40.9302 1.21003 41.2302C0.600027 42.1702 0.320027 43.3602 0.220027 44.6602C-0.0499732 45.0002 0.0400268 47.6902 0.220027 48.0302C0.560027 53.0902 5.96003 59.7702 11.17 55.9802C11.98 55.4302 11.67 55.1302 12.33 56.0902C12.65 56.3902 12.49 56.5402 12.78 56.7202C12.88 56.7702 12.96 56.8802 12.96 56.9502C12.96 57.0202 13.04 57.1302 13.14 57.1902C13.42 57.4102 13.29 57.4802 13.62 57.8102C15.6 60.1302 17.08 61.3302 19.34 62.8302C29.02 68.9302 43.3 67.0302 50.58 57.4402C52.21 55.4202 53.51 52.7402 54.21 50.5102C54.42 49.2802 56.15 48.2802 56.43 46.9702C57.32 45.0502 57.18 40.6402 55.98 38.7602C55.6 37.7502 54 36.7302 53.48 35.4602ZM6.19003 53.0302C1.39003 52.7802 -0.519973 43.3602 4.06003 41.6702C6.72003 41.0702 8.50003 43.7502 9.18003 45.8602C9.89003 48.2002 9.56003 52.9802 6.19003 53.0302ZM51.24 43.0502C49.52 48.3002 45.19 48.1202 46.28 49.4802C47.01 53.9102 45.66 58.6502 41.32 60.8702C37.27 63.3602 31.18 62.2202 28.32 58.3302C26.57 56.3002 26.18 53.8102 26.06 51.2102C22.92 50.6702 21.8 50.5302 19.63 48.6602C16.22 45.4502 15.65 40.2002 18.23 36.4402C20.29 33.0002 24.15 32.1602 27.91 32.0502C32.01 31.6802 36.65 31.2802 40.75 30.9302C47.99 29.8302 53.39 36.5902 51.25 43.0402L51.24 43.0502Z" fill="url(#paint12_linear_9095_22)"/>
<defs>
<linearGradient id="paint0_linear_9095_22" x1="109.752" y1="23.3301" x2="109.752" y2="41.3401" gradientUnits="userSpaceOnUse">
<stop stop-color="#2587C8"/>
<stop offset="1" stop-color="#40B9FF"/>
</linearGradient>
<linearGradient id="paint1_linear_9095_22" x1="149.719" y1="23.2021" x2="149.719" y2="41.3202" gradientUnits="userSpaceOnUse">
<stop stop-color="#2587C8"/>
<stop offset="1" stop-color="#40B9FF"/>
</linearGradient>
<linearGradient id="paint2_linear_9095_22" x1="151.179" y1="44.4404" x2="151.179" y2="62.5054" gradientUnits="userSpaceOnUse">
<stop stop-color="#2587C8"/>
<stop offset="1" stop-color="#40B9FF"/>
</linearGradient>
<linearGradient id="paint3_linear_9095_22" x1="135.097" y1="51.2002" x2="135.097" y2="55.6663" gradientUnits="userSpaceOnUse">
<stop stop-color="#2587C8"/>
<stop offset="1" stop-color="#40B9FF"/>
</linearGradient>
<linearGradient id="paint4_linear_9095_22" x1="132.075" y1="44.4307" x2="132.075" y2="62.479" gradientUnits="userSpaceOnUse">
<stop stop-color="#2587C8"/>
<stop offset="1" stop-color="#40B9FF"/>
</linearGradient>
<linearGradient id="paint5_linear_9095_22" x1="129.291" y1="23.2539" x2="129.291" y2="41.3401" gradientUnits="userSpaceOnUse">
<stop stop-color="#2587C8"/>
<stop offset="1" stop-color="#40B9FF"/>
</linearGradient>
<linearGradient id="paint6_linear_9095_22" x1="70.962" y1="44.4111" x2="70.962" y2="62.4904" gradientUnits="userSpaceOnUse">
<stop stop-color="#2587C8"/>
<stop offset="1" stop-color="#40B9FF"/>
</linearGradient>
<linearGradient id="paint7_linear_9095_22" x1="70.92" y1="30.8398" x2="70.92" y2="41.3225" gradientUnits="userSpaceOnUse">
<stop stop-color="#2587C8"/>
<stop offset="1" stop-color="#40B9FF"/>
</linearGradient>
<linearGradient id="paint8_linear_9095_22" x1="110.726" y1="44.5898" x2="110.726" y2="62.5357" gradientUnits="userSpaceOnUse">
<stop stop-color="#2587C8"/>
<stop offset="1" stop-color="#40B9FF"/>
</linearGradient>
<linearGradient id="paint9_linear_9095_22" x1="70.9133" y1="23.2051" x2="70.9133" y2="27.8039" gradientUnits="userSpaceOnUse">
<stop stop-color="#2587C8"/>
<stop offset="1" stop-color="#40B9FF"/>
</linearGradient>
<linearGradient id="paint10_linear_9095_22" x1="90.1074" y1="23.3223" x2="90.1074" y2="41.3403" gradientUnits="userSpaceOnUse">
<stop stop-color="#2587C8"/>
<stop offset="1" stop-color="#40B9FF"/>
</linearGradient>
<linearGradient id="paint11_linear_9095_22" x1="90.0717" y1="44.5" x2="90.0717" y2="62.5063" gradientUnits="userSpaceOnUse">
<stop stop-color="#2587C8"/>
<stop offset="1" stop-color="#40B9FF"/>
</linearGradient>
<linearGradient id="paint12_linear_9095_22" x1="28.527" y1="13.6729" x2="28.527" y2="66.336" gradientUnits="userSpaceOnUse">
<stop stop-color="#2587C8"/>
<stop offset="1" stop-color="#40B9FF"/>
</linearGradient>
</defs>
</svg>
