<svg width="100" height="100" viewBox="0 0 100 100" fill="none" xmlns="http://www.w3.org/2000/svg">
<path d="M0.478851 54.9644C-1.98386 40.1486 4.9403 18.7955 23.8568 7.35508C45.1647 -5.50653 71.4336 -0.958786 87.3877 16.7703C96.4177 26.7896 101.664 46.4018 99.5229 54.9288C97.3457 53.0458 94.8116 50.5587 92.5273 48.7467C90.6 47.219 88.3871 45.9754 86.4598 44.4477C85.6389 43.8082 84.8893 42.7778 84.6395 41.8185C82.1768 31.7992 76.4304 24.267 67.5789 19.0797C60.1908 14.7452 52.1602 13.5372 43.8441 14.9584C33.1366 16.7703 24.8205 22.4906 19.3954 31.8703C17.468 35.1745 16.5044 39.0472 15.041 42.6357C14.7555 43.3463 14.2915 44.1634 13.649 44.5543C9.40174 47.29 5.3329 50.239 1.90652 53.9695C1.58529 54.3604 1.08561 54.5735 0.478851 54.9644Z" fill="white"/>
<path d="M48.5602 99.6455C30.7102 98.8606 15.7876 90.5835 6.21996 73.5653C4.14935 69.8906 2.93555 65.7163 1.47184 61.7205C1.25764 61.1496 1.72175 60.0079 2.25725 59.5798C5.72015 56.7256 9.25446 53.9428 12.8602 51.2313C14.074 50.3037 14.3953 51.3027 14.6095 52.4087C15.3592 55.8694 15.859 59.4371 17.0728 62.7551C19.9645 70.7112 25.4623 76.5622 32.7808 80.7008C39.4567 84.4826 46.7038 85.9097 54.2722 84.9108C66.4103 83.3053 75.5495 76.9904 81.4757 66.2158C83.9033 61.8275 85.1528 57.0824 85.5812 52.1232C85.6883 50.8032 86.1881 50.268 87.3305 51.1243C90.6863 53.6574 93.9707 56.2975 97.2908 58.8306C98.7188 59.9366 98.7902 61.2566 98.3261 62.7908C96.6482 68.3921 94.2563 73.6724 90.8648 78.4531C85.4027 86.0881 78.4055 91.7965 69.8375 95.5426C63.5543 98.2898 56.914 99.4671 48.5602 99.6455Z" fill="white"/>
<path d="M49.9288 81.911C32.4274 82.0525 17.7661 67.7589 17.7306 49.7503C17.6951 31.9187 32.3209 17.6251 50.2128 17.7312C68.1756 17.8374 82.3754 32.2018 82.2689 50.1395C82.2334 67.6527 67.5721 82.194 49.9288 81.911ZM70.0216 68.325C67.2881 68.8203 64.9451 69.3156 62.5666 69.634C52.9817 70.837 43.8583 69.7048 35.9774 63.6548C30.759 59.6568 27.3865 54.4559 27.919 47.486C28.132 44.7617 29.41 42.6035 31.7885 41.3298C34.6639 39.7731 37.7879 39.2424 41.0539 39.8793C44.3908 40.5515 47.7278 41.3652 51.1003 41.9313C55.5022 42.6389 59.6557 40.0562 61.2177 35.9874C62.4601 32.7678 62.1051 29.4775 61.7856 26.2225C61.7146 25.5503 60.8627 24.7011 60.1527 24.4181C52.4137 21.2693 44.8168 21.7292 37.3974 25.4795C23.943 32.2725 18.6891 48.3351 25.1145 61.7442C32.2854 76.7101 50.4968 81.8756 64.6966 73.1721C66.6136 71.9337 68.6371 70.7308 70.0216 68.325ZM64.9806 26.6471C64.9096 26.7886 64.8386 26.9655 64.7676 27.107C65.4776 30.1143 66.3296 33.1216 66.8621 36.1997C67.4301 39.5962 66.8976 42.8512 64.0576 45.1863C60.2592 48.2998 55.9282 49.5381 50.9938 48.4767C47.3728 47.6983 43.7873 47.2383 40.2019 48.8305C37.0424 50.2457 36.2259 53.1468 38.4624 55.8357C41.9058 59.9752 46.5208 62.3103 51.6327 63.6194C58.2002 65.2823 64.8741 65.0346 71.5835 64.5393C72.968 64.4331 73.9975 63.8317 74.53 62.6287C75.382 60.7536 76.305 58.8784 76.7665 56.8972C79.1805 46.7784 76.731 37.898 69.4891 30.3974C68.1401 28.9468 66.4716 27.85 64.9806 26.6471Z" fill="white"/>
</svg>
