<svg width="160" height="80" viewBox="0 0 160 80" fill="none" xmlns="http://www.w3.org/2000/svg">
<g clip-path="url(#clip0_9281_17)">
<path d="M93.05 31.3008H93.99L71.14 69.3108L73.15 60.0808C73.15 60.0808 87.57 33.4108 87.76 33.3708C87.95 33.3308 90.26 31.3108 90.26 31.3108H93.03L93.05 31.3008Z" fill="#D9AB00"/>
<path d="M93.69 1.17043L94.59 -0.0595703L82.81 30.2704L81.61 30.0004L93.69 1.17043Z" fill="#D9AB00"/>
<path d="M93.71 1.73047L87.52 17.8105L92.38 3.51047L93.71 1.73047Z" fill="#57FF2F"/>
<path d="M92.87 2.7002L67.62 39.7702L78.94 39.9102L66.97 76.7602L78.07 40.6402L65.27 39.9302L92.87 2.7002Z" fill="#00DAFF"/>
<path d="M89.83 7.07031L67.94 39.8403H67.48L89.83 7.07031Z" fill="#74DB3E"/>
<path d="M91.8 31.3008H93.07L72.41 67.0008L91.8 31.3008Z" fill="#57FF2F"/>
<path d="M92.58 30.04H93.74L93.07 31.3H91.93" fill="#00DAFF"/>
<path d="M83.17 29.2402L82.35 31.3002H91.95L93.16 29.2402H83.17Z" fill="#EA00FF"/>
<path d="M70.97 69.4502L65.47 80.0602L70.29 69.4502H70.97Z" fill="#EA00FF"/>
<path d="M78.84 40.0908L80.95 40.2808L66.97 76.3608L78.84 40.0908Z" fill="#EA00FF"/>
<path d="M93.83 0.930664L82.42 31.3007H91.95L66.01 78.7007L80.8 40.3107L67.95 39.8107L93.83 0.930664Z" fill="#FF4957"/>
<path d="M67.87 73.6406L65.55 79.9106L66.97 76.7606L67.87 73.6406Z" fill="#57FF2F"/>
<path fill-rule="evenodd" clip-rule="evenodd" d="M47.04 48.7802V64.1402C47.04 64.1402 47.06 64.2202 47.1 64.2302C47.1 64.2302 47.11 64.2302 47.12 64.2302H50.86C50.86 64.2302 50.93 64.2002 50.94 64.1602C50.94 64.1602 50.94 64.1502 50.94 64.1402V59.4702H52.26C52.26 59.4702 53.43 61.0702 55.65 64.2302H60.36V64.1402L57.1 59.4702H60.58C60.58 59.4702 60.65 59.4402 60.66 59.4002C60.66 59.4002 60.66 59.3902 60.66 59.3802V48.7702C60.66 48.7702 60.63 48.6902 60.59 48.6802H47.13C47.13 48.6802 47.05 48.7102 47.04 48.7602V48.7802ZM56.73 52.5902V55.5702H50.94V52.5902H56.73ZM62.21 48.7802V64.1402C62.21 64.1402 62.23 64.2202 62.27 64.2302C62.27 64.2302 62.28 64.2302 62.29 64.2302H73.8C73.8 64.2302 73.87 64.2002 73.88 64.1602C73.88 64.1602 73.88 64.1502 73.88 64.1402V48.7802C73.88 48.7802 73.85 48.7002 73.81 48.6902H62.3C62.3 48.6902 62.22 48.7202 62.21 48.7702V48.7802ZM70.02 52.5902V60.3302H66.11V52.5902H70.02ZM75.23 48.7802V64.1402C75.23 64.1402 75.25 64.2202 75.29 64.2302C75.29 64.2302 75.3 64.2302 75.31 64.2302H86.82C86.82 64.2302 86.89 64.2002 86.9 64.1602C86.9 64.1602 86.9 64.1502 86.9 64.1402V54.6002C86.9 54.6002 86.87 54.5202 86.83 54.5102H81.18C81.18 54.5102 81.1 54.5402 81.09 54.5902V58.3202C81.09 58.3202 81.11 58.4002 81.15 58.4102C81.15 58.4102 81.16 58.4102 81.17 58.4102H82.99V60.3302H79.12V52.5902H86.81C86.81 52.5902 86.88 52.5702 86.89 52.5302C86.89 52.5302 86.89 52.5202 86.89 52.5102V48.7702C86.89 48.7702 86.86 48.6902 86.82 48.6802H75.31C75.31 48.6802 75.23 48.7102 75.22 48.7602L75.23 48.7802ZM88.27 48.7802V64.1402C88.27 64.1402 88.29 64.2202 88.33 64.2302H88.35H99.82C99.82 64.2302 99.9 64.2102 99.91 64.1602C99.91 64.1602 99.91 64.1502 99.91 64.1402V48.7802C99.91 48.7802 99.88 48.7002 99.83 48.6902H96.09C96.09 48.6902 96 48.7202 96 48.7702V60.3202H92.18V48.7702C92.18 48.7702 92.15 48.6902 92.11 48.6802H88.37C88.37 48.6802 88.29 48.7102 88.28 48.7602L88.27 48.7802ZM101.29 48.7802V64.1402C101.29 64.1402 101.31 64.2202 101.36 64.2302C101.36 64.2302 101.37 64.2302 101.38 64.2302H112.89C112.89 64.2302 112.96 64.2002 112.97 64.1602C112.97 64.1602 112.97 64.1502 112.97 64.1402V60.4002C112.97 60.4002 112.94 60.3302 112.9 60.3202H105.2V58.4002H112.9C112.9 58.4002 112.97 58.3702 112.98 58.3302C112.98 58.3302 112.98 58.3202 112.98 58.3102V54.5802C112.98 54.5802 112.95 54.5002 112.91 54.4902H105.21V52.5702H112.91C112.91 52.5702 112.98 52.5502 112.99 52.5102C112.99 52.5102 112.99 52.5002 112.99 52.4902V48.7502C112.99 48.7502 112.96 48.6702 112.92 48.6602H101.41C101.41 48.6602 101.32 48.6902 101.32 48.7402L101.29 48.7802Z" fill="white"/>
</g>
<defs>
<clipPath id="clip0_9281_17">
<rect width="160" height="80" fill="white"/>
</clipPath>
</defs>
</svg>
