<svg width="100" height="100" viewBox="0 0 100 100" fill="none" xmlns="http://www.w3.org/2000/svg">
<path d="M33.19 38.3898L19.61 33.3698L33.19 28.3498L33.21 28.2998L0 33.3698L33.21 38.4498L33.19 38.3898Z" fill="white"/>
<path d="M40.98 30.6099L38.22 23.1599L38.21 23.1299L35.44 30.6099L27.97 33.3699L35.44 36.1399L38.21 43.6099L38.22 43.5899L40.98 36.1399L48.45 33.3699L40.98 30.6099Z" fill="white"/>
<path d="M48.71 71.6498L35.14 66.6298L48.71 61.6098L48.73 61.5498L15.53 66.6298L48.73 71.7098L48.71 71.6498Z" fill="white"/>
<path d="M56.5 63.8601L53.75 56.4101L53.74 56.3901L50.97 63.8601L43.5 66.6301L50.97 69.3901L53.74 76.8701L53.75 76.8401L56.5 69.3901L63.98 66.6301L56.5 63.8601Z" fill="white"/>
<path d="M97.4199 39.0102C95.7099 49.1302 87.5399 57.0602 77.2899 58.3802C76.6899 58.5102 76.0799 58.5802 75.4399 58.5802H57.6399L58.7599 61.6002L72.3299 66.6202L58.7599 71.6402L57.6899 74.5302H75.4299C88.9999 74.5302 99.9999 63.5302 99.9999 49.9602C99.9999 46.0202 99.0699 42.2902 97.4199 38.9902V39.0102Z" fill="white"/>
<path d="M58.7599 61.6101L57.6399 58.5801L58.7599 61.6101L72.3299 66.6301L58.7599 61.6101Z" fill="white"/>
<path d="M75.4299 25.3999H42.1599L43.2399 28.3099L56.8099 33.3299L56.7699 33.3499L56.8099 33.3699L43.2399 38.3899L42.1399 41.3599H75.4499C80.1999 41.3599 84.0599 45.2099 84.0599 49.9699C84.0599 54.0899 81.1699 57.5299 77.2999 58.3799C87.5399 57.0499 95.7199 49.1299 97.4299 39.0099C93.3999 30.9399 85.0699 25.3999 75.4399 25.3999H75.4299Z" fill="white"/>
</svg>
