<svg width="100" height="100" viewBox="0 0 100 100" fill="none" xmlns="http://www.w3.org/2000/svg">
<path d="M13.14 38.95C13.14 19.86 13.14 16.34 12.89 12.32C12.64 8.05002 11.63 6.04002 7.48995 5.16002C6.48995 4.91002 4.34995 4.78002 2.58995 4.78002C1.20995 4.78002 0.449951 4.53002 0.449951 3.65002C0.449951 2.77002 1.32995 2.52002 3.20995 2.52002C9.86995 2.52002 17.78 2.90002 20.42 2.90002C24.69 2.90002 34.24 2.52002 38.13 2.52002C46.04 2.52002 54.46 3.27002 61.24 7.92002C64.7599 10.3 69.78 16.71 69.78 25.13C69.78 34.42 65.89 42.96 53.2 53.26C64.38 67.33 73.0399 78.5 80.45 86.29C87.4799 93.57 92.63 94.45 94.52 94.83C95.8999 95.08 97.03 95.21 98.04 95.21C99.05 95.21 99.55 95.59 99.55 96.21C99.55 97.21 98.67 97.47 97.16 97.47H85.23C78.2 97.47 75.06 96.84 71.79 95.08C66.39 92.19 61.62 86.29 54.58 76.62C49.56 69.71 43.78 61.17 42.15 59.29C41.52 58.54 40.77 58.41 39.8899 58.41L28.9599 58.16C28.33 58.16 27.9599 58.41 27.9599 59.16V60.92C27.9599 72.6 27.96 82.52 28.59 87.8C28.9699 91.44 29.72 94.21 33.49 94.71C35.37 94.96 38.1399 95.21 39.6399 95.21C40.6399 95.21 41.15 95.59 41.15 96.21C41.15 97.09 40.27 97.47 38.6399 97.47C31.3599 97.47 22.0599 97.09 20.18 97.09C17.79 97.09 9.87995 97.47 4.85995 97.47C3.22995 97.47 2.34995 97.09 2.34995 96.21C2.34995 95.58 2.84995 95.21 4.35995 95.21C6.23995 95.21 7.74995 94.96 8.87995 94.71C11.39 94.21 12.02 91.44 12.52 87.8C13.15 82.53 13.15 72.6 13.15 61.05V38.95H13.14ZM27.9599 48.87C27.9599 50.25 28.21 50.75 29.09 51.13C31.7299 52.01 35.5 52.39 38.6399 52.39C43.66 52.39 45.3 51.89 47.56 50.25C51.33 47.49 54.97 41.71 54.97 31.41C54.97 13.58 43.16 8.43002 35.75 8.43002C32.61 8.43002 30.35 8.56002 29.09 8.93002C28.21 9.18002 27.9599 9.68002 27.9599 10.69V48.87Z" fill="white"/>
<path d="M85.23 95.26C78.05 95.26 75.51 94.58 72.84 93.14C67.98 90.54 63.49 85.1 56.37 75.32C54.25 72.4 51.97 69.16 49.96 66.3C47.1 62.23 44.83 59.01 43.82 57.84C42.45 56.2 40.59 56.2 39.89 56.2L29.01 55.95C27.04 55.95 25.74 57.24 25.74 59.17V60.93C25.74 72.59 25.74 82.66 26.38 88.07C26.57 89.88 26.9 93.08 29.11 95.12C27.34 95.08 25.69 95.03 24.29 94.99C22.28 94.93 20.82 94.89 20.16 94.89C19.15 94.89 17.22 94.95 14.98 95.03C14.15 95.06 13.27 95.09 12.37 95.11C13.99 93.22 14.39 90.28 14.69 88.11C15.34 82.66 15.34 72.65 15.34 61.06V38.96C15.34 19.75 15.34 16.29 15.09 12.2C14.91 9.11 14.27 6.6 12.24 4.91C13.31 4.94 14.34 4.97 15.31 5C17.58 5.07 19.37 5.13 20.42 5.13C22.63 5.13 26.23 5.03 29.71 4.93C33.08 4.84 36.26 4.75 38.13 4.75C45.32 4.75 53.54 5.35 59.99 9.76C63.04 11.83 67.57 17.63 67.57 25.14C67.57 34.69 62.86 42.59 51.81 51.56C50.87 52.32 50.72 53.7 51.47 54.65C52.98 56.55 54.44 58.4 55.86 60.19C65.09 71.83 72.37 81.02 78.85 87.83C82.69 91.8 86.05 94.01 88.69 95.27H85.22L85.23 95.26ZM35.75 6.22C32.03 6.22 29.85 6.4 28.46 6.82C27.24 7.17 25.75 8.13 25.75 10.7V48.88C25.75 50.48 26.04 52.24 28.22 53.17C28.28 53.19 28.33 53.22 28.39 53.24C30.96 54.1 34.79 54.61 38.63 54.61C43.87 54.61 46.07 54.06 48.84 52.06C51.96 49.77 57.17 44.07 57.17 31.43C57.17 11.5 43.15 6.23 35.74 6.23L35.75 6.22Z" fill="white"/>
</svg>
