<svg width="160" height="80" viewBox="0 0 160 80" fill="none" xmlns="http://www.w3.org/2000/svg">
<path d="M151.99 24.1801C156.42 24.1801 160 20.5701 160 16.1301C160 11.6901 156.41 8.08008 151.99 8.08008C147.57 8.08008 143.98 11.6901 143.98 16.1301C143.98 20.5701 147.57 24.1801 151.99 24.1801Z" fill="#2BC5EF"/>
<path d="M151.99 29.0701C149.99 27.9201 147.41 27.0601 144.83 27.0601H143.97V56.1101C143.97 57.2601 143.97 58.1201 144.26 59.2701C145.69 66.7501 152.27 72.2101 160 72.2101V43.1601C160 42.0101 160 41.1501 159.71 40.0001C158.85 35.4001 155.99 31.3701 151.98 29.0701H151.99Z" fill="#2BC5EF"/>
<path d="M39.5 27.0601H30.63C30.06 27.0601 29.77 27.3501 29.77 27.9201C29.77 28.2101 30.06 28.5001 30.06 28.5001C30.35 28.7901 30.92 28.7901 31.2 29.0801C36.07 31.9601 39.21 37.1301 39.21 42.8801V56.1101C39.21 57.2601 39.21 58.1201 39.5 59.2701C40.93 66.7501 47.51 72.2101 55.24 72.2101V43.1601C55.24 42.0101 55.24 41.1501 54.95 40.0001C53.52 32.5201 47.22 27.0601 39.49 27.0601H39.5Z" fill="#FF2455"/>
<path d="M9.73 7.79004H0.86C0.29 7.79004 0 8.08004 0 8.65004C0 8.94004 0.29 9.23004 0.29 9.23004C1.15 9.52004 1.43 9.81004 1.72 10.09C6.59 12.97 9.73 18.14 9.73 23.89V56.1C9.73 57.25 9.73 58.11 10.02 59.26C11.45 66.74 18.03 72.2 25.76 72.2V23.89C25.76 22.74 25.76 21.88 25.47 20.73C24.04 13.54 17.46 7.79004 9.73 7.79004Z" fill="#FF2455"/>
<path d="M95.31 27.0601H79.28C70.41 27.0601 63.25 34.2501 63.25 43.1701V56.1101C63.25 65.0301 70.41 72.2201 79.28 72.2201H95.31C104.18 72.2201 111.34 65.0301 111.34 56.1101V43.1701C111.34 34.2501 104.18 27.0601 95.31 27.0601ZM95.31 56.1101V60.7101C95.31 64.4501 92.73 67.6101 89.3 68.4801C88.73 68.7701 88.16 68.7701 87.3 68.7701C86.73 68.7701 85.87 68.7701 85.3 68.4801C81.87 67.6201 79.29 64.4501 79.29 60.7101V38.2801C79.29 34.5401 81.87 31.3801 85.3 30.5101C85.87 30.2201 86.73 30.2201 87.3 30.2201C88.16 30.2201 88.73 30.2201 89.3 30.5101C92.73 31.3701 95.31 34.5401 95.31 38.2801V56.1101Z" fill="#FFCA41"/>
<path d="M144.54 70.77C143.97 70.48 143.68 70.48 143.39 70.19C138.52 67.31 135.38 62.14 135.38 56.39V23.89C135.38 22.74 135.38 21.88 135.09 20.73C133.66 13.25 127.08 7.79004 119.35 7.79004V56.11C119.35 57.26 119.35 58.12 119.64 59.27C121.07 66.75 127.65 72.21 135.38 72.21H144.25C144.82 72.21 145.11 71.92 145.11 71.35C144.82 71.06 144.82 70.77 144.54 70.77Z" fill="#A8D32C"/>
</svg>
