<svg width="160" height="80" viewBox="0 0 160 80" fill="none" xmlns="http://www.w3.org/2000/svg">
<path d="M9 26.837C9 25.3674 9 23.9593 9 22.558C9.04205 22.4111 9.11392 22.2745 9.21109 22.1569C9.30825 22.0392 9.42861 21.9431 9.56457 21.8745C14.9836 18.9443 20.4003 16.0165 25.8147 13.0909C31.007 10.2975 36.1969 7.49948 41.3847 4.69694C41.5741 4.57365 41.795 4.50806 42.0206 4.50806C42.2463 4.50806 42.4672 4.57365 42.6566 4.69694C53.2497 10.4023 63.8496 16.1008 74.4563 21.7924C74.6677 21.8747 74.8456 22.0258 74.9615 22.2215C75.0774 22.4173 75.1247 22.6465 75.0957 22.8724C75.0549 24.178 75.0957 25.4836 75.0957 26.837H9ZM46.7651 15.0527C46.7705 14.1121 46.4975 13.1912 45.9809 12.4069C45.4642 11.6226 44.7272 11.0104 43.8636 10.6479C42.9999 10.2855 42.0485 10.1893 41.1302 10.3714C40.212 10.5536 39.3684 11.006 38.7065 11.671C38.0447 12.3361 37.5946 13.1839 37.4133 14.1066C37.232 15.0294 37.3278 15.9855 37.6884 16.8534C38.0491 17.7213 38.6584 18.4619 39.4388 18.9811C40.2193 19.5002 41.1357 19.7746 42.0717 19.7691C43.311 19.7515 44.4946 19.2489 45.371 18.3682C46.2474 17.4875 46.7475 16.2981 46.7651 15.0527Z" fill="#0081C1"/>
<path d="M26.6854 60.0506C26.6908 57.0011 27.5962 54.0218 29.287 51.4895C30.9778 48.9573 33.3781 46.9859 36.1841 45.8249C38.9901 44.6639 42.0758 44.3653 45.0507 44.9671C48.0256 45.5688 50.756 47.0437 52.8966 49.2053C55.0371 51.3668 56.4915 54.1179 57.0757 57.1103C57.66 60.1027 57.3478 63.202 56.1788 66.0161C55.0098 68.8302 53.0363 71.2326 50.5083 72.9193C47.9802 74.6061 45.011 75.5014 41.9765 75.4919C39.9629 75.4892 37.9696 75.0874 36.1107 74.3096C34.2518 73.5317 32.5639 72.393 31.1435 70.9587C29.7232 69.5244 28.5983 67.8226 27.8333 65.9508C27.0683 64.0791 26.6782 62.074 26.6854 60.0506ZM42.0173 73.1268C44.585 73.1322 47.0966 72.3721 49.2343 70.9426C51.372 69.5131 53.0398 67.4785 54.0264 65.0963C55.0131 62.714 55.2744 60.0912 54.7773 57.5597C54.2801 55.0282 53.0469 52.7017 51.2336 50.8747C49.4203 49.0478 47.1085 47.8024 44.5906 47.2961C42.0728 46.7899 39.4621 47.0456 37.0889 48.0309C34.7157 49.0162 32.6867 50.6867 31.2586 52.8312C29.8305 54.9756 29.0675 57.4976 29.0661 60.0779C29.0634 61.7911 29.397 63.4881 30.0478 65.0715C30.6986 66.655 31.6537 68.094 32.8586 69.3061C34.0635 70.5181 35.4944 71.4795 37.0695 72.1351C38.6445 72.7907 40.3328 73.1277 42.0377 73.1268H42.0173Z" fill="#0081C1"/>
<path d="M23.1959 34.0006V51.7728C23.5973 51.7728 23.9782 51.7728 24.3659 51.7728C24.5207 51.7638 24.6756 51.7879 24.8204 51.8435C24.9653 51.8991 25.0967 51.9851 25.206 52.0956C25.3153 52.206 25.4 52.3386 25.4545 52.4845C25.5091 52.6303 25.5321 52.7862 25.5222 52.9416C25.5222 53.7551 25.5222 54.5753 25.5222 55.3887C25.5304 55.539 25.5065 55.6892 25.4524 55.8295C25.3982 55.9697 25.315 56.0968 25.2082 56.2022C25.1013 56.3076 24.9734 56.3889 24.8329 56.4408C24.6923 56.4926 24.5424 56.5138 24.3931 56.5029C22.0078 56.5029 19.6248 56.5029 17.2441 56.5029C17.089 56.5135 16.9334 56.49 16.7882 56.4343C16.6429 56.3785 16.5115 56.2918 16.4028 56.18C16.2942 56.0682 16.211 55.9341 16.1589 55.7869C16.1069 55.6397 16.0872 55.4828 16.1014 55.3272C16.1014 54.589 16.1014 53.8439 16.1014 53.1057C16.1014 52.1897 16.5027 51.7933 17.3938 51.7728C17.7135 51.7728 18.0332 51.7728 18.4073 51.7728V34.0006C18.0332 34.0006 17.6454 34.0006 17.2645 34.0006C17.1095 34.0107 16.954 33.9874 16.8087 33.9321C16.6634 33.8769 16.5315 33.791 16.4219 33.6803C16.3124 33.5695 16.2277 33.4365 16.1736 33.2901C16.1195 33.1438 16.0972 32.9875 16.1082 32.8317C16.1082 32.0183 16.1082 31.198 16.1082 30.3846C16.1002 30.235 16.1238 30.0854 16.1776 29.9456C16.2313 29.8059 16.3139 29.6792 16.42 29.5739C16.5261 29.4686 16.6532 29.3871 16.7929 29.3348C16.9326 29.2825 17.0817 29.2605 17.2305 29.2704C19.6158 29.2704 21.9988 29.2704 24.3795 29.2704C24.5365 29.2595 24.694 29.2833 24.8409 29.3402C24.9877 29.3971 25.1203 29.4858 25.2293 29.5999C25.3383 29.714 25.4211 29.8508 25.4717 30.0005C25.5223 30.1503 25.5396 30.3094 25.5222 30.4666C25.5222 31.2049 25.5222 31.9499 25.5222 32.6882C25.5222 33.6315 25.1141 34.0074 24.1618 34.0553L23.1959 34.0006Z" fill="#0081C1"/>
<path d="M60.9066 51.7796V34.0074C60.5393 34.0074 60.1787 34.0074 59.825 34.0074C58.9952 34.0074 58.5939 33.5973 58.5667 32.7907C58.5394 31.9841 58.5667 31.2595 58.5667 30.494C58.5478 30.3326 58.565 30.169 58.617 30.0151C58.669 29.8613 58.7544 29.721 58.8671 29.6044C58.9798 29.4879 59.117 29.3981 59.2685 29.3415C59.4201 29.2849 59.5823 29.263 59.7434 29.2773C62.1015 29.2773 64.4595 29.2773 66.8176 29.2773C67.5794 29.2773 67.9671 29.7079 67.9875 30.5008C68.0079 31.2937 67.9875 31.9363 67.9875 32.6471C67.9875 33.5973 67.5862 34.0142 66.6271 34.0142H65.6748V51.7865C66.0285 51.7865 66.355 51.7865 66.7359 51.7865C66.9042 51.7635 67.0754 51.7795 67.2366 51.8331C67.3978 51.8868 67.5447 51.9767 67.666 52.096C67.7874 52.2153 67.8801 52.3609 67.937 52.5217C67.9938 52.6824 68.0135 52.8541 67.9943 53.0237C67.9943 53.7892 67.9943 54.5548 67.9943 55.3204C68.0124 55.4885 67.9921 55.6585 67.9351 55.8176C67.878 55.9767 67.7857 56.1206 67.6651 56.2385C67.5445 56.3564 67.3988 56.4452 67.239 56.4981C67.0792 56.551 66.9095 56.5667 66.7427 56.5439C64.4346 56.5439 62.1241 56.5439 59.8114 56.5439C58.9612 56.5439 58.5803 56.1201 58.5667 55.2452C58.5667 54.5617 58.5667 53.8781 58.5667 53.1946C58.5667 52.2376 58.9612 51.8275 59.9271 51.8275L60.9066 51.7796Z" fill="#0081C1"/>
<path d="M32.5964 44.8963V33.9938C32.195 33.9938 31.8345 33.9938 31.474 33.9938C31.3071 34.0115 31.1384 33.9911 30.9804 33.9342C30.8225 33.8773 30.6793 33.7853 30.5616 33.665C30.444 33.5448 30.3548 33.3995 30.3008 33.2398C30.2467 33.0801 30.2293 32.9103 30.2496 32.7429C30.2496 31.9773 30.2496 31.2117 30.2496 30.4462C30.2334 30.2904 30.2513 30.1329 30.302 29.9848C30.3528 29.8367 30.4351 29.7016 30.5434 29.5889C30.6517 29.4762 30.7831 29.3887 30.9286 29.3325C31.0741 29.2763 31.2301 29.2528 31.3856 29.2636C33.7663 29.2636 36.1493 29.2636 38.5346 29.2636C38.6925 29.2512 38.8512 29.2743 38.9992 29.3312C39.1472 29.3881 39.2807 29.4774 39.3901 29.5925C39.4995 29.7077 39.582 29.8459 39.6317 29.9971C39.6814 30.1483 39.697 30.3087 39.6773 30.4667C39.6773 31.1502 39.6773 31.8953 39.6773 32.613C39.6773 33.6452 39.2896 34.0143 38.2353 34.0279H37.351V42.9141L32.5964 44.8963Z" fill="#0081C1"/>
<path d="M46.7515 42.8867V34.0006C46.3433 34.0006 45.9828 34.0006 45.6223 34.0006C45.4625 34.0158 45.3012 33.9959 45.1498 33.9424C44.9983 33.8888 44.8603 33.8028 44.7451 33.6904C44.63 33.5779 44.5405 33.4417 44.4829 33.2911C44.4253 33.1404 44.401 32.9791 44.4115 32.8181C44.4115 32.0297 44.4115 31.2391 44.4115 30.4462C44.3982 30.2842 44.421 30.1213 44.4781 29.9693C44.5353 29.8172 44.6255 29.6799 44.7421 29.5673C44.8587 29.4547 44.9988 29.3697 45.1523 29.3183C45.3057 29.267 45.4686 29.2506 45.6291 29.2705C47.9645 29.2705 50.2976 29.2705 52.6284 29.2705C53.4243 29.2705 53.8188 29.7079 53.8392 30.535C53.8392 31.2186 53.8392 31.9021 53.8392 32.5857C53.8392 33.5973 53.4583 33.9528 52.4788 33.9528H51.5129V44.8895L46.7515 42.8867Z" fill="#0081C1"/>
<path d="M75.0481 66.0111V70.7071H56.4376C57.1178 69.2306 57.8661 67.7268 58.6075 66.2435C58.6655 66.1731 58.7382 66.1163 58.8205 66.0773C58.9028 66.0383 58.9926 66.0181 59.0836 66.0179C64.3824 66.0111 69.6813 66.0111 75.0481 66.0111Z" fill="#0081C1"/>
<path d="M27.6717 70.7139H9.06799V66.0111C9.27886 66.0111 9.51013 66.0111 9.7482 66.0111C14.7273 66.0111 19.7132 66.0111 24.7128 66.0111C24.923 65.9811 25.137 66.0281 25.3156 66.1436C25.4942 66.259 25.6255 66.4352 25.6854 66.64C26.2772 68.0071 26.9914 69.3468 27.6717 70.7139Z" fill="#0081C1"/>
<path d="M59.5121 63.5845L59.7774 58.9432H71.5042V63.5845H59.5121Z" fill="#0081C1"/>
<path d="M24.5768 63.605H12.5847V58.9569H24.2843L24.5768 63.605Z" fill="#0081C1"/>
<path d="M52.6285 63.6187V66.0111H39.7045V69.6134L31.5421 64.8285L39.6433 60.0984V63.6187H52.6285Z" fill="#0081C1"/>
<path d="M31.4468 54.1652H44.3708V50.5834L52.5333 55.3683L44.4116 60.0779V56.5508H31.4468V54.1652Z" fill="#0081C1"/>
<path d="M125.098 29.7831V36.6186C125.098 37.7532 125.098 38.8948 125.098 40.0363C125.138 41.1347 125.119 42.2345 125.043 43.331H124.839L117.153 29.7831H112.786V49.729H116.636V42.7295C116.636 41.5948 116.636 40.4533 116.636 39.3117C116.636 38.1702 116.636 37.0355 116.636 35.894H116.881L124.798 49.77H128.968V29.7831H125.098ZM151 49.811L142.395 37.9857L150.483 29.8241C150.054 29.7763 149.837 29.7352 149.619 29.7352C148.524 29.7352 147.422 29.7831 146.327 29.7352C145.968 29.7018 145.606 29.7579 145.274 29.8986C144.942 30.0393 144.649 30.2602 144.422 30.5418C142.382 32.7634 140.341 34.9439 138.301 37.1312C138.13 37.3089 137.94 37.473 137.559 37.8148V29.7831H133.478V49.7563H137.559C137.559 49.3735 137.559 49.0728 137.559 48.7242C137.559 47.2545 137.668 45.7712 137.559 44.3153C137.396 42.6474 138.627 42.0664 139.559 41.089C139.879 41.5333 140.117 41.8477 140.348 42.1758C141.96 44.4725 143.559 46.7761 145.184 49.0591C145.402 49.3599 145.749 49.7427 146.048 49.7768C147.565 49.852 149.123 49.811 151 49.811ZM103.426 53.0852V63.2769H105.378V56.4414L105.61 56.3867L109.562 63.2974C110.133 63.2974 110.63 63.2974 111.126 63.2974C111.282 63.2777 111.434 63.241 111.582 63.188C111.813 61.6637 111.718 53.7619 111.466 53.0852H109.711C109.711 54.2609 109.711 55.3546 109.711 56.4482C109.711 57.5419 109.786 58.6493 109.664 59.7361H109.446L105.589 53.0852H103.426ZM139.811 63.2769L139.722 61.4586H134.212V58.7996H139.035V57.0088H134.158V54.8077H139.45V53.0989H132.117V63.2769H139.811ZM125.492 54.8282H130.533V53.0989H123.363V63.229H125.492V58.9569H129.873V57.125H125.492V54.8282ZM81.7821 53.0989H73.6196V54.8556H76.6602V63.2769H78.796V54.8009H81.7821V53.0989Z" fill="#0081C1"/>
<path d="M116.262 63.605C115.997 63.4888 115.731 63.3657 115.459 63.2632C114.829 63.0593 114.282 62.6535 113.902 62.108C113.523 61.5624 113.331 60.9071 113.357 60.2419H115.194C115.312 60.5554 115.491 60.8422 115.72 61.0857C115.95 61.3292 116.225 61.5246 116.53 61.6607C116.834 61.7967 117.163 61.8706 117.497 61.8782C117.83 61.8858 118.162 61.8268 118.473 61.7047C119.064 61.5407 119.52 61.2262 119.547 60.5564C119.574 59.8865 119.119 59.6404 118.568 59.49L116.527 58.9295C116.066 58.8223 115.612 58.6876 115.167 58.5262C114.652 58.3698 114.202 58.0502 113.883 57.6153C113.564 57.1804 113.394 56.6535 113.398 56.1133C113.341 55.5257 113.468 54.9349 113.761 54.4229C114.053 53.9109 114.497 53.5031 115.031 53.2561C115.725 52.9263 116.484 52.7552 117.252 52.7552C118.02 52.7552 118.778 52.9263 119.472 53.2561C119.991 53.5026 120.432 53.8884 120.747 54.3709C121.061 54.8534 121.237 55.4138 121.255 55.9903H119.302C119.017 54.8829 118.139 54.507 117.058 54.5412C116.661 54.5525 116.273 54.6629 115.929 54.8624C115.752 54.9454 115.605 55.0803 115.507 55.2493C115.409 55.4183 115.364 55.6134 115.379 55.8085C115.393 56.0037 115.467 56.1897 115.589 56.3418C115.712 56.494 115.878 56.605 116.065 56.6602C116.818 56.9288 117.586 57.157 118.364 57.3437C118.779 57.4599 119.207 57.5488 119.615 57.6855C120.173 57.8151 120.671 58.1284 121.031 58.5755C121.391 59.0227 121.592 59.578 121.601 60.1531C121.651 60.7746 121.504 61.3961 121.182 61.9288C120.86 62.4615 120.378 62.8783 119.806 63.1197C119.411 63.2906 119.017 63.4546 118.622 63.6187L116.262 63.605Z" fill="#0081C1"/>
<path d="M87.1898 38.9563C87.7813 39.3932 88.3364 39.8778 88.8495 40.4054C91.3867 43.4746 89.5297 48.731 85.6253 49.4693C84.4485 49.6799 83.2563 49.7919 82.0611 49.8042C79.4967 49.8521 76.9323 49.8042 74.3747 49.8042C74.1434 49.8042 73.919 49.7632 73.6061 49.7359V29.7831C73.8646 29.7831 74.1434 29.7079 74.4223 29.7079C77.252 29.7079 80.0816 29.7079 82.9113 29.7079C84.2462 29.6802 85.5706 29.951 86.7885 30.5008C89.8562 31.9636 90.2984 37.0561 87.4687 38.7034C87.3652 38.7751 87.2714 38.8602 87.1898 38.9563ZM77.5853 46.2703C77.7234 46.3105 77.8644 46.3402 78.007 46.3591C79.2722 46.3591 80.5374 46.3591 81.8026 46.3591C82.4353 46.3733 83.068 46.3321 83.6935 46.2361C84.3222 46.1302 84.8879 45.7897 85.2775 45.2828C85.6672 44.7759 85.8521 44.1399 85.7954 43.5019C85.8115 42.9083 85.6016 42.3309 85.2084 41.8875C84.8153 41.4442 84.2686 41.1684 83.6799 41.1163C83.2868 41.0491 82.8884 41.0171 82.4896 41.0206C81.1292 41.0206 79.8232 41.0206 78.4968 41.0206C78.2043 41.0206 77.9186 41.0616 77.5921 41.089L77.5853 46.2703ZM77.5853 37.5619C79.4218 37.5619 81.1428 37.6097 82.8705 37.5619C84.4282 37.5072 85.3532 36.6254 85.3464 35.3609C85.3396 34.0963 84.5234 33.3581 82.8977 33.3102C81.272 33.2624 79.5715 33.276 77.905 33.276C77.8166 33.276 77.7281 33.3512 77.5785 33.4196L77.5853 37.5619Z" fill="#0081C1"/>
<path d="M125.098 29.7831H128.961V49.7563H124.792L116.874 35.8803H116.629C116.629 37.015 116.629 38.1565 116.629 39.298C116.629 40.4396 116.629 41.5743 116.629 42.7158V49.729H112.779V29.7831H117.153L124.846 43.3036H125.05C125.126 42.2071 125.144 41.1074 125.105 40.0089C125.105 38.8743 125.105 37.7327 125.105 36.5912V29.7831H125.098Z" fill="#0081C1"/>
<path d="M151 49.811C149.15 49.811 147.599 49.852 145.987 49.811C145.688 49.811 145.307 49.394 145.123 49.0933C143.497 46.8102 141.899 44.5067 140.287 42.21C140.055 41.8819 139.817 41.5674 139.498 41.1231C138.566 42.0938 137.341 42.6748 137.498 44.3495C137.641 45.8054 137.498 47.2887 137.498 48.7583C137.498 49.0796 137.498 49.4077 137.498 49.7905H133.417V29.7831H137.498V37.7806C137.879 37.432 138.069 37.2679 138.239 37.097C140.28 34.9029 142.361 32.7292 144.361 30.5076C144.588 30.2261 144.881 30.0051 145.213 29.8644C145.545 29.7237 145.907 29.6676 146.266 29.7011C147.361 29.7626 148.463 29.7011 149.558 29.7011C149.776 29.7011 149.993 29.7421 150.422 29.7899L142.395 37.9856L151 49.811Z" fill="#0081C1"/>
<path d="M98.3452 29.7831H103.181L110.188 49.7358H105.691L104.406 45.7917H97.0188L95.6584 49.7563H91.3051L98.3452 29.7831ZM100.889 34.7183H100.583C99.7668 37.1791 98.9234 39.6262 98.2024 42.1553H103.209L100.889 34.7183Z" fill="#0081C1"/>
<path d="M85.1832 59.2918V63.2769H83.1426V53.2219C83.2582 53.1536 83.3466 53.0579 83.4283 53.0579C85.122 53.0579 86.8293 53.01 88.5094 53.0579C89.1352 53.0447 89.748 53.2389 90.253 53.6105C90.7581 53.9821 91.1273 54.5104 91.3038 55.1139C91.4802 55.7175 91.4541 56.3626 91.2293 56.9497C91.0046 57.5367 90.5938 58.0331 90.0603 58.3622C91.2506 59.1825 91.1418 60.4129 91.2302 61.6022C91.2711 62.1217 91.3595 62.6344 91.4343 63.2291H89.2644C89.21 62.4567 89.1556 61.7321 89.1148 61.0144C89.04 59.7088 88.7407 59.3807 87.4279 59.2987C86.7273 59.2577 86.0403 59.2918 85.1832 59.2918ZM85.2512 57.5078C86.3123 57.5078 87.2918 57.5761 88.2645 57.5078C88.569 57.4799 88.8505 57.3334 89.0488 57.0996C89.2471 56.8659 89.3465 56.5634 89.3257 56.2569C89.3618 55.953 89.2813 55.6467 89.1006 55.4003C88.9199 55.1539 88.6525 54.986 88.353 54.9308C87.3235 54.7743 86.2776 54.7605 85.2444 54.8898L85.2512 57.5078Z" fill="#0081C1"/>
<path d="M103.426 53.0852H105.589L109.426 59.784H109.643C109.773 58.6971 109.643 57.5898 109.691 56.4961C109.739 55.4024 109.691 54.3019 109.691 53.1331H111.446C111.698 53.8166 111.786 61.7047 111.562 63.2359C111.414 63.2889 111.261 63.3255 111.106 63.3452C110.609 63.3452 110.113 63.3452 109.541 63.3452L105.589 56.4004L105.358 56.4551V63.2769H103.406L103.426 53.0852Z" fill="#0081C1"/>
<path d="M148.524 58.4442C148.884 58.659 149.179 58.9673 149.379 59.3366C149.579 59.7059 149.676 60.1226 149.66 60.5427C149.701 61.3971 149.776 62.2447 149.844 63.1949H147.721C147.667 62.5113 147.585 61.8278 147.551 61.1442C147.483 59.6404 147.198 59.326 145.728 59.2508C145.232 59.2508 144.729 59.2508 144.232 59.2508C144.057 59.2739 143.884 59.3105 143.715 59.3602V63.1949H141.674V53.0647C142.035 53.0647 142.355 53.0168 142.681 53.0168C144.246 53.0168 145.81 53.0168 147.368 53.1125C147.838 53.1238 148.296 53.2666 148.69 53.525C149.084 53.7834 149.399 54.1471 149.599 54.5753C149.915 55.1253 150.028 55.7699 149.917 56.3953C149.806 57.0207 149.479 57.5866 148.993 57.9931L148.524 58.4442ZM143.763 57.6308C144.892 57.5761 145.878 57.5898 146.851 57.4599C147.13 57.3899 147.378 57.2293 147.557 57.0028C147.736 56.7764 147.836 56.4968 147.841 56.2077C147.845 55.9185 147.755 55.6359 147.583 55.4037C147.412 55.1716 147.168 55.0029 146.892 54.9239C145.855 54.7623 144.799 54.7623 143.763 54.9239V57.6308Z" fill="#0081C1"/>
<path d="M139.811 63.2769H132.117V53.0989H139.491V54.8077H134.158V57.0088H139.008V58.7997H134.185V61.4518H139.695L139.811 63.2769Z" fill="#0081C1"/>
<path d="M92.3934 63.1812L95.9917 53.0784H98.4676L102.039 63.2359H99.7804L99.039 61.2262H95.3387L94.604 63.188C93.8784 63.373 93.1179 63.3707 92.3934 63.1812ZM97.3113 55.7579H97.0596L95.9372 59.367H98.4676L97.3113 55.7579Z" fill="#0081C1"/>
<path d="M125.492 54.8282V57.125H129.873V58.9295H125.492V63.2085H123.363V53.0989H130.526V54.8282H125.492Z" fill="#0081C1"/>
<path d="M81.7821 53.0989V54.8009H78.7756V63.2769H76.6261V54.8624H73.6196V53.0989H81.7821Z" fill="#0081C1"/>
</svg>
