<svg width="160" height="80" viewBox="0 0 160 80" fill="none" xmlns="http://www.w3.org/2000/svg">
<path d="M104.41 43.5303L107.47 67.9403L95.13 48.7403L85.35 55.3903L88.4 45.1903L68.22 42.7903L89.83 35.0003L87.08 12.0703L99.29 29.9203L109.18 23.0403L106 33.5303L126.02 35.8903L104.4 43.5303H104.41ZM61.48 47.8503C62.56 49.6903 63.1 51.7603 63.1 54.0703C63.1 56.3803 62.56 58.4503 61.48 60.2903C60.4 62.1303 58.87 63.5703 56.88 64.6203C54.9 65.6703 52.6 66.1903 50 66.1903C47.4 66.1903 45.1 65.6703 43.12 64.6203C41.14 63.5703 39.61 62.1303 38.52 60.2903C37.44 58.4503 36.9 56.3803 36.9 54.0703C36.9 51.7603 37.44 49.6903 38.52 47.8503C39.6 46.0103 41.13 44.5703 43.12 43.5203C45.1 42.4703 47.4 41.9503 50 41.9503C52.6 41.9503 54.9 42.4703 56.88 43.5203C58.86 44.5703 60.39 46.0103 61.48 47.8503ZM55.02 54.0703C55.02 52.9403 54.81 51.9603 54.4 51.1103C53.99 50.2603 53.4 49.6103 52.64 49.1503C51.88 48.6903 51 48.4503 50 48.4503C49 48.4503 48.11 48.6803 47.36 49.1503C46.6 49.6103 46.02 50.2703 45.6 51.1103C45.19 51.9603 44.98 52.9403 44.98 54.0703C44.98 55.2003 45.19 56.1803 45.6 57.0303C46.01 57.8803 46.6 58.5303 47.36 58.9903C48.12 59.4503 49 59.6903 50 59.6903C51 59.6903 51.89 59.4603 52.64 58.9903C53.4 58.5303 53.98 57.8703 54.4 57.0303C54.81 56.1803 55.02 55.2003 55.02 54.0703ZM0 65.4003H7.62V42.5403H0V65.4003ZM20.19 49.0903C20.95 48.6103 21.84 48.3703 22.88 48.3703C23.65 48.3703 24.37 48.5203 25.02 48.8303C25.67 49.1403 26.2 49.5703 26.61 50.1503C27.02 50.7203 27.26 51.4003 27.34 52.1903H35.04C34.93 50.1703 34.34 48.3903 33.28 46.8403C32.22 45.3003 30.77 44.0903 28.93 43.2403C27.09 42.3803 24.98 41.9603 22.59 41.9603C20.2 41.9603 17.92 42.4803 15.97 43.5303C14.02 44.5803 12.5 46.0303 11.41 47.8703C10.32 49.7103 9.77 51.7903 9.77 54.0803C9.77 56.3703 10.32 58.4503 11.41 60.2903C12.5 62.1303 14.02 63.5803 15.97 64.6303C17.92 65.6803 20.12 66.2003 22.59 66.2003C25.06 66.2003 27.09 65.7703 28.93 64.9203C30.77 64.0603 32.22 62.8603 33.28 61.3203C34.34 59.7803 34.93 57.9903 35.04 55.9703H27.34C27.26 56.7503 27.02 57.4303 26.61 58.0103C26.2 58.5803 25.67 59.0203 25.02 59.3303C24.37 59.6303 23.66 59.7903 22.88 59.7903C21.84 59.7903 20.95 59.5503 20.19 59.0703C19.43 58.5903 18.86 57.9203 18.46 57.0603C18.06 56.2003 17.86 55.2103 17.86 54.1003C17.86 52.9903 18.06 52.0003 18.46 51.1403C18.86 50.2803 19.43 49.6103 20.19 49.1303V49.0903ZM86.42 56.9703L81.99 59.9903L83.53 54.8503L85.94 46.8203L80.41 46.1603V55.7303L74.69 45.4803L68 44.6803L64.7 44.2903V65.4103H71.56V52.4303L78.79 65.4103H87.26V56.4103L86.42 56.9803V56.9703ZM94.58 51.4103L91.42 53.5603V65.4003H99.04V58.3603L94.58 51.4203V51.4103ZM138.1 58.3903C138.56 58.0403 139.22 57.6303 140.05 57.1603C141.5 56.3703 142.66 55.5903 143.53 54.8303C144.4 54.0703 145.05 53.2503 145.46 52.3603C145.87 51.4803 146.08 50.4703 146.08 49.3503C146.08 47.8503 145.75 46.5403 145.09 45.4303C144.43 44.3203 143.47 43.4603 142.21 42.8603C140.94 42.2603 139.41 41.9603 137.61 41.9603C135.7 41.9603 134.05 42.3203 132.65 43.0403C131.25 43.7603 130.18 44.7503 129.42 46.0203C128.66 47.2903 128.26 48.7303 128.2 50.3403H135.17C135.15 49.4803 135.36 48.8203 135.8 48.3603C136.24 47.9003 136.81 47.6703 137.51 47.6703C137.88 47.6703 138.21 47.7403 138.5 47.8803C138.78 48.0203 139 48.2103 139.15 48.4703C139.3 48.7203 139.38 49.0303 139.38 49.3803C139.38 49.7303 139.3 50.0603 139.13 50.3503C138.96 50.6403 138.66 50.9603 138.23 51.2903C137.79 51.6303 137.18 52.0103 136.38 52.4403C134.16 53.6403 132.47 54.8603 131.31 56.0803C130.24 57.2103 129.48 58.4403 129.04 59.7803C129 59.8903 128.97 60.0003 128.94 60.1103C128.53 61.5303 128.33 63.2903 128.33 65.3903H145.85V59.7803H136.92C136.97 59.6503 137.03 59.5203 137.1 59.4003C137.29 59.0803 137.62 58.7403 138.09 58.3903H138.1ZM154.85 42.5403C154.53 43.6303 154.07 44.5403 153.46 45.2603C152.85 45.9803 152.08 46.5303 151.15 46.9003C150.22 47.2703 149.09 47.4903 147.78 47.5503V53.9803C148.79 54.0003 149.73 53.8903 150.6 53.6603C151.46 53.4303 152.21 53.0803 152.86 52.6103V65.4103H160V42.5503H154.85V42.5403ZM112.15 49.0903C112.91 48.6103 113.8 48.3703 114.84 48.3703C115.61 48.3703 116.33 48.5203 116.98 48.8303C117.63 49.1403 118.16 49.5703 118.57 50.1503C118.98 50.7203 119.22 51.4003 119.3 52.1903H127C126.89 50.1703 126.3 48.3903 125.24 46.8403C124.18 45.3003 122.73 44.0903 120.89 43.2403C119.06 42.3903 116.96 41.9603 114.6 41.9603L106.49 44.8303L109.04 65.1603C110.71 65.8603 112.55 66.2103 114.56 66.2103C116.95 66.2103 119.06 65.7803 120.9 64.9303C122.74 64.0703 124.19 62.8703 125.25 61.3303C126.31 59.7903 126.9 58.0003 127.01 55.9803H119.31C119.23 56.7603 118.99 57.4403 118.58 58.0203C118.17 58.5903 117.64 59.0303 116.99 59.3403C116.34 59.6403 115.63 59.8003 114.85 59.8003C113.81 59.8003 112.92 59.5603 112.16 59.0803C111.4 58.6003 110.83 57.9303 110.43 57.0703C110.03 56.2103 109.83 55.2203 109.83 54.1103C109.83 53.0003 110.03 52.0103 110.43 51.1503C110.83 50.2903 111.4 49.6203 112.16 49.1403L112.15 49.0903Z" fill="#E91339"/>
</svg>
