<svg width="60" height="28" viewBox="0 0 60 28" fill="none" xmlns="http://www.w3.org/2000/svg">
<path d="M60 11.3171L56 10V28L60 25V11.3171Z" fill="#BA9614"/>
<path d="M0 0L2.54161 12.1747C3.82405 18.3177 4.46527 21.3893 6.68644 23.1946C8.90761 25 12.0454 25 18.3208 25H60V16.1194C60 8.52064 60 4.72126 57.6394 2.36063C55.2787 0 51.4794 0 43.8806 0H0Z" fill="url(#paint0_linear_321_168404)"/>
<path d="M24.9574 7.98558V17.4776H22.6691V7.98558H24.9574ZM27.8128 7.98558V9.7523H19.8789V7.98558H27.8128Z" fill="#16181E"/>
<path d="M36.6334 12.5425V12.9272C36.6334 13.653 36.5312 14.3049 36.327 14.8829C36.1271 15.4566 35.8424 15.9478 35.473 16.3563C35.1035 16.7605 34.6667 17.0712 34.1626 17.2885C33.6584 17.5015 33.1021 17.608 32.4937 17.608C31.8808 17.608 31.3202 17.5015 30.8117 17.2885C30.3075 17.0712 29.8686 16.7605 29.4948 16.3563C29.1254 15.9478 28.8385 15.4566 28.6343 14.8829C28.4343 14.3049 28.3344 13.653 28.3344 12.9272V12.5425C28.3344 11.8167 28.4343 11.1648 28.6343 10.5868C28.8385 10.0087 29.1232 9.5176 29.4883 9.11341C29.8577 8.70487 30.2945 8.39412 30.7987 8.18116C31.3072 7.96385 31.8678 7.85519 32.4806 7.85519C33.0891 7.85519 33.6454 7.96385 34.1495 8.18116C34.658 8.39412 35.097 8.70487 35.4664 9.11341C35.8359 9.5176 36.1227 10.0087 36.327 10.5868C36.5312 11.1648 36.6334 11.8167 36.6334 12.5425ZM34.3125 12.9272V12.5295C34.3125 12.0601 34.2712 11.6472 34.1887 11.2908C34.1104 10.9301 33.9931 10.628 33.8366 10.3847C33.6802 10.1413 33.4868 9.95874 33.2564 9.83705C33.0304 9.71101 32.7718 9.64799 32.4806 9.64799C32.1764 9.64799 31.9113 9.71101 31.6853 9.83705C31.4593 9.95874 31.2702 10.1413 31.1181 10.3847C30.966 10.628 30.8508 10.9301 30.7726 11.2908C30.6987 11.6472 30.6617 12.0601 30.6617 12.5295V12.9272C30.6617 13.3922 30.6987 13.8051 30.7726 14.1658C30.8508 14.5222 30.966 14.8243 31.1181 15.072C31.2746 15.3197 31.4658 15.5066 31.6918 15.6327C31.9221 15.7587 32.1894 15.8217 32.4937 15.8217C32.7848 15.8217 33.0434 15.7587 33.2694 15.6327C33.4954 15.5066 33.6845 15.3197 33.8366 15.072C33.9931 14.8243 34.1104 14.5222 34.1887 14.1658C34.2712 13.8051 34.3125 13.3922 34.3125 12.9272Z" fill="#16181E"/>
<path d="M41.6076 14.2571H39.2476V12.4904H41.6076C41.9292 12.4904 42.19 12.4361 42.3899 12.3274C42.5898 12.2187 42.7354 12.0688 42.8267 11.8776C42.9223 11.682 42.9701 11.4625 42.9701 11.2191C42.9701 10.9584 42.9223 10.7171 42.8267 10.4955C42.7354 10.2738 42.5898 10.0956 42.3899 9.96091C42.19 9.82183 41.9292 9.7523 41.6076 9.7523H40.1081V17.4776H37.8199V7.98558H41.6076C42.3681 7.98558 43.0222 8.12466 43.5699 8.40281C44.1218 8.68097 44.5456 9.06343 44.8411 9.5502C45.1367 10.0326 45.2844 10.5846 45.2844 11.2061C45.2844 11.8189 45.1367 12.3535 44.8411 12.8098C44.5456 13.2662 44.1218 13.6226 43.5699 13.879C43.0222 14.1311 42.3681 14.2571 41.6076 14.2571Z" fill="#16181E"/>
<defs>
<linearGradient id="paint0_linear_321_168404" x1="54.6269" y1="2.23214" x2="26.4936" y2="27.762" gradientUnits="userSpaceOnUse">
<stop stop-color="#FFECA7"/>
<stop offset="0.526499" stop-color="#FFC700"/>
</linearGradient>
</defs>
</svg>
