<svg width="160" height="80" viewBox="0 0 160 80" fill="none" xmlns="http://www.w3.org/2000/svg">
<path d="M55.72 38.8304C55.72 33.1204 51.42 29.1104 45.9799 29.1104C40.5399 29.1104 36.2 33.1204 36.2 38.8304C36.2 44.5404 40.5799 48.5904 45.9799 48.5904C51.3799 48.5504 55.72 44.5404 55.72 38.8304ZM40.9199 38.8304C40.9199 35.4604 42.88 33.3104 45.9799 33.3104C49.08 33.3104 51 35.4704 51 38.8304C51 42.1904 49.0399 44.3503 45.9799 44.3503C42.92 44.3503 40.9199 42.1604 40.9199 38.8304Z" fill="url(#paint0_linear_9344_13)"/>
<path d="M68.45 48.3601H73.06V39.5501C73.06 35.5001 70.72 33.1201 67.25 33.1201C65.21 33.1201 63.59 34.0301 62.68 35.2801V33.2801H58.04V48.3701H62.68V40.1601C62.68 38.1201 63.81 36.9801 65.59 36.9801C67.37 36.9801 68.5 38.1101 68.5 40.1601V48.3701H68.46L68.45 48.3601Z" fill="url(#paint1_linear_9344_13)"/>
<path d="M76 48.3596H80.64V28.3096H76V48.3596Z" fill="url(#paint2_linear_9344_13)"/>
<path d="M90.72 42.7198L87.21 33.2598H82.04L88.19 47.8598L84.72 55.5398H89.7L99.18 33.2598H94.16L90.72 42.7198Z" fill="url(#paint3_linear_9344_13)"/>
<path d="M105.22 35.3898V33.2298H100.58V55.5498H105.22V46.2398C106.05 47.5298 107.67 48.5898 109.86 48.5898C113.56 48.5898 116.54 45.5598 116.54 40.7998C116.54 36.0398 113.59 33.0498 109.86 33.0498C107.67 33.0498 106.08 34.0698 105.22 35.3998V35.3898ZM111.86 40.7898C111.86 43.2098 110.27 44.5298 108.54 44.5298C106.81 44.5298 105.22 43.2098 105.22 40.7898C105.22 38.3698 106.81 37.0498 108.54 37.0498C110.28 37.0898 111.86 38.3698 111.86 40.7898Z" fill="url(#paint4_linear_9344_13)"/>
<path d="M118.74 48.3596H123.38V28.3096H118.74V48.3596Z" fill="url(#paint5_linear_9344_13)"/>
<path d="M125.53 40.7897C125.53 45.5597 128.48 48.5797 132.17 48.5797C134.44 48.5797 136.02 47.5597 136.85 46.2297V48.3897H141.49V33.2597H136.85V35.4197C136.02 34.0997 134.43 33.0697 132.17 33.0697C128.47 33.0297 125.53 36.0197 125.53 40.7897ZM136.86 40.7897C136.86 43.2097 135.31 44.5297 133.54 44.5297C131.77 44.5297 130.22 43.1697 130.22 40.7897C130.22 38.4097 131.81 37.0797 133.54 37.0797C135.27 37.0797 136.86 38.3997 136.86 40.7897Z" fill="url(#paint6_linear_9344_13)"/>
<path d="M151.54 42.7198L148.03 33.2598H142.86L149.01 47.8598L145.54 55.5398H150.52L160 33.2598H154.98L151.54 42.7198Z" fill="url(#paint7_linear_9344_13)"/>
<path d="M14.16 52.8204C6.34 52.8204 0 46.4704 0 38.6304C0 30.7904 6.34 24.4404 14.16 24.4404C21.98 24.4404 28.32 30.7904 28.32 38.6304C28.32 46.4704 21.98 52.8204 14.16 52.8204ZM14.16 28.2404C8.42 28.2404 3.78 32.8904 3.78 38.6404C3.78 44.3904 8.42 49.0404 14.16 49.0404C19.9 49.0404 24.54 44.3904 24.54 38.6404C24.54 32.8904 19.9 28.2404 14.16 28.2404Z" fill="url(#paint8_linear_9344_13)"/>
<path d="M14.1599 43.3702C16.7699 43.3702 18.8799 41.2502 18.8799 38.6402C18.8799 36.0302 16.7699 33.9102 14.1599 33.9102C11.5499 33.9102 9.43994 36.0302 9.43994 38.6402C9.43994 41.2502 11.5499 43.3702 14.1599 43.3702Z" fill="url(#paint9_linear_9344_13)"/>
<defs>
<linearGradient id="paint0_linear_9344_13" x1="45.97" y1="29.1104" x2="45.97" y2="48.5904" gradientUnits="userSpaceOnUse">
<stop stop-color="#F79F2D"/>
<stop offset="1" stop-color="#FF4D4D"/>
</linearGradient>
<linearGradient id="paint1_linear_9344_13" x1="65.54" y1="33.1001" x2="65.54" y2="48.3701" gradientUnits="userSpaceOnUse">
<stop stop-color="#F79F2D"/>
<stop offset="1" stop-color="#FF4D4D"/>
</linearGradient>
<linearGradient id="paint2_linear_9344_13" x1="78.32" y1="28.3096" x2="78.32" y2="48.3596" gradientUnits="userSpaceOnUse">
<stop offset="0.26" stop-color="#F79F2D"/>
<stop offset="1" stop-color="#FF4D4D"/>
</linearGradient>
<linearGradient id="paint3_linear_9344_13" x1="90.61" y1="33.2698" x2="90.61" y2="55.5498" gradientUnits="userSpaceOnUse">
<stop stop-color="#F79F2D"/>
<stop offset="0.65" stop-color="#FF4D4D"/>
</linearGradient>
<linearGradient id="paint4_linear_9344_13" x1="108.56" y1="33.0398" x2="108.56" y2="55.5498" gradientUnits="userSpaceOnUse">
<stop stop-color="#F79F2D"/>
<stop offset="0.69" stop-color="#FF4D4D"/>
</linearGradient>
<linearGradient id="paint5_linear_9344_13" x1="121.06" y1="28.3096" x2="121.06" y2="48.3596" gradientUnits="userSpaceOnUse">
<stop offset="0.24" stop-color="#F79F2D"/>
<stop offset="1" stop-color="#FF4D4D"/>
</linearGradient>
<linearGradient id="paint6_linear_9344_13" x1="133.52" y1="33.0397" x2="133.52" y2="48.5797" gradientUnits="userSpaceOnUse">
<stop stop-color="#F79F2D"/>
<stop offset="1" stop-color="#FF4D4D"/>
</linearGradient>
<linearGradient id="paint7_linear_9344_13" x1="151.43" y1="33.2698" x2="151.43" y2="55.5498" gradientUnits="userSpaceOnUse">
<stop stop-color="#F79F2D"/>
<stop offset="0.65" stop-color="#FF4D4D"/>
</linearGradient>
<linearGradient id="paint8_linear_9344_13" x1="14.16" y1="24.4504" x2="14.16" y2="52.8204" gradientUnits="userSpaceOnUse">
<stop stop-color="#F79F2D"/>
<stop offset="1" stop-color="#FF4D4D"/>
</linearGradient>
<linearGradient id="paint9_linear_9344_13" x1="14.1599" y1="33.9202" x2="14.1599" y2="43.3802" gradientUnits="userSpaceOnUse">
<stop stop-color="#F79F2D"/>
<stop offset="1" stop-color="#FF4D4D"/>
</linearGradient>
</defs>
</svg>
