<svg width="160" height="80" viewBox="0 0 160 80" fill="none" xmlns="http://www.w3.org/2000/svg">
<g clip-path="url(#clip0_807_1064)">
<g clip-path="url(#clip1_807_1064)">
<path d="M1.53999 51.9202L14.13 35.8202C16.05 33.6802 18.22 33.0502 20.81 35.5002L35.45 50.6102C36.37 51.4102 36.85 51.3802 37.49 50.6302L47.84 39.2702C48.79 38.0602 48.63 37.6202 47.07 36.0602L36.03 28.1702C35.25 27.2202 36.4 26.0402 37.34 26.9602L48.35 34.8202C50.05 36.5202 51.08 38.0302 49.22 40.3802L38.84 51.7702C37.34 53.5102 35.64 53.1402 34.22 51.9002L19.56 36.7702C17.85 35.1502 16.87 35.4102 15.49 36.9402L2.95999 53.0002C2.17999 54.0202 0.779987 52.9102 1.53999 51.9202Z" fill="white"/>
<path d="M26.61 33.2302C27.45 33.1202 29.69 34.3002 29.62 36.1302C29.58 37.1202 27.56 37.5302 26.06 35.6902C25.17 34.4002 25.39 33.3902 26.61 33.2302Z" fill="white"/>
<path d="M41.1399 36.4903C41.9399 36.3803 44.0699 37.5103 44.0099 39.2503C43.9699 40.1903 42.0499 40.5803 40.6199 38.8303C39.7699 37.6103 39.9899 36.6403 41.1399 36.4903Z" fill="white"/>
<path d="M15.88 50.1901C15.88 48.9001 16.93 47.8501 18.22 47.8501C19.51 47.8501 20.56 48.9001 20.56 50.1901C20.56 51.4801 19.51 52.5301 18.22 52.5301C16.93 52.5301 15.88 51.4801 15.88 50.1901Z" fill="white"/>
<path d="M71.0401 48.2005C71.0401 47.0205 70.7201 46.0505 70.0801 45.2805C69.3701 44.4705 68.4201 44.0605 67.2401 44.0605C66.0601 44.0605 65.0501 44.4705 64.3601 45.2805C63.7201 46.0405 63.4001 47.0105 63.4001 48.2005C63.4001 48.7205 63.5001 49.2005 63.7001 49.6605C63.9001 50.1205 64.1701 50.5105 64.5301 50.8405C64.8901 51.1705 65.3001 51.4305 65.7701 51.6205C66.2401 51.8005 66.7301 51.9005 67.2501 51.9005C68.3101 51.9005 69.2101 51.5505 69.9401 50.8505C70.6801 50.1505 71.0501 49.2705 71.0501 48.2105L71.0401 48.2005ZM73.2601 51.6005C73.2601 51.9905 73.1301 52.3205 72.8701 52.5805C72.6101 52.8405 72.3001 52.9705 71.9301 52.9705C71.3901 52.9705 70.9901 52.7405 70.7501 52.2705C70.5801 51.9705 70.3701 51.9505 70.1201 52.2005C69.2601 53.0105 68.2601 53.4205 67.1301 53.4205C65.5601 53.4205 64.2401 52.9005 63.1801 51.8705C62.1001 50.7905 61.5601 49.5005 61.5601 47.9905C61.5601 46.4805 62.1001 45.1905 63.1801 44.1505C64.2401 43.0905 65.5501 42.5605 67.1301 42.5605C68.3101 42.5605 69.3201 42.9805 70.1601 43.8105C70.3101 43.9305 70.4601 43.9605 70.6001 43.8805C70.7501 43.8605 70.8201 43.7405 70.8201 43.5505V41.7005C70.8201 40.8105 70.5301 40.0605 69.9501 39.4505C69.3701 38.8405 68.6201 38.5305 67.6801 38.5305H64.4301C63.8401 38.5305 63.5401 38.2305 63.5401 37.6405C63.5401 37.0505 63.8401 36.7505 64.4301 36.7505H67.6801C68.4201 36.7505 69.0901 36.8705 69.7101 37.1205C70.3201 37.3705 70.8501 37.7105 71.3001 38.1505C71.7401 38.5905 72.0901 39.1205 72.3301 39.7405C72.5801 40.3605 72.7001 41.0305 72.7001 41.7705V50.0405C72.7001 50.2905 72.7901 50.5405 72.9801 50.8205C73.1601 51.0905 73.2601 51.3505 73.2601 51.6005Z" fill="white"/>
<path d="M79.46 37.6803C79.46 37.0703 79.77 36.7603 80.38 36.7603C80.99 36.7603 81.34 37.0703 81.34 37.6803V50.6303C81.34 50.8303 81.44 51.0603 81.63 51.3303C81.83 51.6003 81.93 51.8703 81.93 52.1403C81.93 52.4903 81.81 52.7703 81.56 53.0103C81.31 53.2403 81.02 53.3603 80.67 53.3603C79.86 53.3603 79.45 52.9503 79.45 52.1403V37.6703L79.46 37.6803Z" fill="white"/>
<path d="M81.9 31.0901C81.9 31.5101 81.75 31.8701 81.46 32.1601C81.16 32.4601 80.81 32.6001 80.39 32.6001C80 32.6001 79.65 32.4501 79.36 32.1601C79.06 31.8601 78.92 31.5101 78.92 31.0901C78.92 30.7001 79.07 30.3501 79.36 30.0601C79.66 29.7601 80 29.6201 80.39 29.6201C80.81 29.6201 81.16 29.7701 81.46 30.0601C81.76 30.3601 81.9 30.7001 81.9 31.0901Z" fill="white"/>
<path d="M95.8301 37.6505C95.8301 38.2405 95.5301 38.5405 94.9401 38.5405H92.6501C91.7601 38.5405 91.0001 38.8505 90.3601 39.4805C89.7201 40.1105 89.4001 40.8805 89.4001 41.7905V52.4205C89.4001 53.0605 89.0901 53.3805 88.4801 53.3805C87.8701 53.3805 87.5601 53.0705 87.5601 52.4605V41.7905C87.5601 40.3905 88.0501 39.2105 89.0401 38.2505C90.0201 37.2705 91.2001 36.7705 92.5801 36.7705H94.9401C95.5301 36.7705 95.8301 37.0705 95.8301 37.6605V37.6505Z" fill="white"/>
<path d="M116.42 42.0704C116.42 41.5504 116.32 41.0704 116.12 40.6104C115.92 40.1504 115.66 39.7604 115.33 39.4304C115 39.1004 114.61 38.8304 114.17 38.6404C113.73 38.4404 113.25 38.3404 112.73 38.3404C112.21 38.3404 111.73 38.4404 111.27 38.6404C110.81 38.8404 110.42 39.1004 110.09 39.4304C109.76 39.7604 109.49 40.1504 109.3 40.5904C109.1 41.0304 109 41.5104 109 42.0304V47.9704C109 48.4904 109.1 48.9704 109.3 49.4104C109.5 49.8504 109.76 50.2404 110.09 50.5704C110.42 50.9004 110.82 51.1704 111.27 51.3604C111.72 51.5604 112.21 51.6604 112.73 51.6604C113.25 51.6604 113.73 51.5704 114.17 51.3804C114.61 51.2004 115 50.9404 115.33 50.6004C115.66 50.2704 115.93 49.8904 116.12 49.4604C116.32 49.0304 116.42 48.5604 116.42 48.0404V42.0604V42.0704ZM118.86 51.6004C118.86 51.9904 118.73 52.3204 118.47 52.5804C118.21 52.8404 117.9 52.9704 117.53 52.9704C116.99 52.9704 116.59 52.7404 116.35 52.2704C116.18 52.0204 115.97 52.0004 115.72 52.2004C114.96 52.9604 113.96 53.3404 112.73 53.3404C111.18 53.3404 109.86 52.8004 108.78 51.7204C107.7 50.5904 107.16 49.2704 107.16 47.7704V42.3404C107.16 40.7904 107.7 39.4704 108.78 38.3904C109.91 37.3104 111.24 36.7704 112.77 36.7704C113.98 36.7704 115.02 37.2104 115.91 38.1004C116.01 38.2004 116.12 38.2204 116.24 38.1704C116.41 38.1204 116.47 38.0204 116.42 37.8704V27.5704C116.42 26.9604 116.74 26.6504 117.38 26.6504C117.97 26.6504 118.27 26.9604 118.27 27.5704V49.9704C118.27 50.2204 118.37 50.4904 118.57 50.7804C118.77 51.0804 118.87 51.3504 118.87 51.5904L118.86 51.6004Z" fill="white"/>
<path d="M125.08 37.6803C125.08 37.0703 125.39 36.7603 126 36.7603C126.61 36.7603 126.96 37.0703 126.96 37.6803V50.6303C126.96 50.8303 127.06 51.0603 127.26 51.3303C127.46 51.6003 127.56 51.8703 127.56 52.1403C127.56 52.4903 127.44 52.7703 127.19 53.0103C126.94 53.2403 126.65 53.3603 126.3 53.3603C125.49 53.3603 125.08 52.9503 125.08 52.1403V37.6703V37.6803Z" fill="white"/>
<path d="M127.51 31.0901C127.51 31.5101 127.36 31.8701 127.07 32.1601C126.77 32.4601 126.42 32.6001 126 32.6001C125.61 32.6001 125.26 32.4501 124.97 32.1601C124.67 31.8601 124.53 31.5101 124.53 31.0901C124.53 30.7001 124.68 30.3501 124.97 30.0601C125.27 29.7601 125.61 29.6201 126 29.6201C126.42 29.6201 126.77 29.7701 127.07 30.0601C127.37 30.3601 127.51 30.7001 127.51 31.0901Z" fill="white"/>
<path d="M141.93 52.5203C141.93 53.1103 141.62 53.4103 141.01 53.4103H138.24C136.84 53.4103 135.64 52.9203 134.66 51.9303C133.68 50.9503 133.18 49.7703 133.18 48.3903V41.7503C133.18 40.3703 133.67 39.2003 134.66 38.2403C135.64 37.2603 136.84 36.7603 138.24 36.7603H140.6C141.17 36.7603 141.45 37.0403 141.45 37.6103C141.45 38.1803 141.17 38.5003 140.6 38.5003H138.24C137.35 38.5003 136.6 38.8203 135.97 39.4603C135.34 40.1003 135.03 40.8603 135.03 41.7503V48.3903C135.03 49.2803 135.34 50.0403 135.97 50.6803C136.6 51.3203 137.35 51.6403 138.24 51.6403H141.01C141.62 51.6403 141.93 51.9403 141.93 52.5303V52.5203Z" fill="white"/>
<path d="M149.44 44.1003C149.44 44.3503 149.56 44.4703 149.81 44.4703H154.94C156.22 44.4703 156.86 43.9503 156.86 42.9203V41.6303C156.86 40.6003 156.52 39.8104 155.85 39.2704C155.17 38.7304 154.28 38.4604 153.17 38.4604C152.65 38.4604 152.17 38.5603 151.71 38.7603C151.25 38.9603 150.86 39.2204 150.53 39.5504C150.2 39.8804 149.93 40.2804 149.74 40.7304C149.54 41.1904 149.45 41.6703 149.45 42.1903V44.1104L149.44 44.1003ZM149.81 45.9903C149.56 45.9903 149.44 46.1303 149.44 46.4003V48.0603C149.44 48.5803 149.54 49.0604 149.73 49.5204C149.93 49.9804 150.19 50.3703 150.52 50.7003C150.85 51.0303 151.25 51.2904 151.7 51.4804C152.15 51.6604 152.64 51.7603 153.16 51.7603H156.04C156.63 51.7603 156.93 52.0404 156.93 52.6104C156.93 53.1804 156.63 53.4203 156.04 53.4203H153.16C151.56 53.3703 150.24 52.8303 149.21 51.8004C148.13 50.7204 147.59 49.4104 147.59 47.8904V42.4304C147.59 40.9004 148.13 39.6004 149.21 38.5204C150.27 37.4104 151.58 36.8604 153.16 36.8604C154.74 36.8604 156.15 37.3104 157.18 38.2104C158.21 39.1104 158.73 40.3303 158.73 41.8803V42.9503C158.73 43.8903 158.39 44.6403 157.7 45.2003C157.01 45.7703 156.17 46.0504 155.19 46.0504L149.8 46.0103L149.81 45.9903Z" fill="white"/>
</g>
</g>
<defs>
<clipPath id="clip0_807_1064">
<rect width="160" height="80" fill="white"/>
</clipPath>
<clipPath id="clip1_807_1064">
<rect width="160" height="80" fill="white" transform="translate(0 0.0302734)"/>
</clipPath>
</defs>
</svg>
