<svg width="100" height="100" viewBox="0 0 100 100" fill="none" xmlns="http://www.w3.org/2000/svg">
<path d="M26.8018 91.9005C26.8018 93.745 27.4778 95.1884 28.905 96.1508C30.3321 97.1131 32.886 97.514 36.6416 97.4338V99.8396H9V97.4338C10.7276 97.4338 12.3801 97.1932 13.7321 96.7923C15.0842 96.3913 16.286 95.7498 17.2624 94.7073C18.2389 93.745 19.1403 92.3015 19.9665 90.5373C20.7176 88.773 21.619 86.5276 22.3701 83.8813L48.3593 0H50.7629L78.6299 84.0417C79.7566 87.2494 80.6579 89.8155 81.4842 91.66C82.3104 93.5044 83.2118 94.7875 84.2634 95.6696C85.3149 96.5517 86.3665 97.0329 87.5683 97.2734C88.7701 97.514 90.2724 97.5942 92 97.5942V100H57.3729V97.5942C60.5276 97.5942 62.781 97.1131 64.0579 96.3111C65.3348 95.5092 65.9357 94.0658 65.9357 92.0609C65.9357 91.3392 65.8606 90.4571 65.6353 89.7354C65.41 88.9334 65.0344 87.5702 64.4335 85.6455L58.8 68.8853H33.2615L27.4778 87.7305C26.952 89.7354 26.8018 91.1788 26.8018 91.9005ZM45.3548 28.3881L34.914 63.2718H57.0724L45.6552 28.3881H45.3548Z" fill="white"/>
</svg>
