<svg width="100" height="100" viewBox="0 0 100 100" fill="none" xmlns="http://www.w3.org/2000/svg">
<g clip-path="url(#clip0_9219_48)">
<path fill-rule="evenodd" clip-rule="evenodd" d="M10.2699 15.5901L92.1599 19.9201C96.7299 20.1601 100.24 24.0601 99.9899 28.6201L98.7999 51.3601C98.5599 55.9301 94.6599 59.4401 90.0999 59.1901L7.8399 54.8401C3.2799 54.6001 -0.230099 50.7001 0.00990105 46.1401L1.1999 23.4001C1.4299 19.0101 5.0399 15.6001 9.3699 15.5601C9.57296 15.5601 9.77602 15.5692 9.97597 15.5782L9.9761 15.5782L9.97625 15.5783L9.97639 15.5783C10.0717 15.5826 10.1663 15.5868 10.2599 15.5901H10.2699ZM79.9999 47.1498V39.0506L71.3899 27.5898H76.4499L82.1446 35.3818L87.4899 27.5998H92.2699L84.2299 38.9136V47.1498H80.0099H79.9999ZM30.1899 27.5898V47.1398H44.8099V43.3698H34.3799V27.5898H30.1899ZM12.4501 36.6298H17.2001C17.7201 36.6298 18.1901 36.5098 18.6201 36.2698C19.0501 36.0398 19.4201 35.6998 19.6801 35.2898C19.9401 34.8798 20.0701 34.4198 20.0701 33.8998C20.0701 33.3798 19.9401 32.9598 19.6801 32.5898C19.4101 32.1998 19.0501 31.8898 18.6201 31.6998C18.1901 31.4798 17.7201 31.3698 17.2301 31.3698H12.4401V36.6498L12.4501 36.6298ZM8.31006 47.1398V27.5898H17.9701C19.1601 27.5898 20.2401 27.8698 21.2101 28.4298C22.1801 28.9498 22.9901 29.7298 23.5601 30.6698C24.1401 31.6198 24.4201 32.6898 24.4201 33.8798C24.4201 35.0698 24.1201 36.2098 23.5301 37.2098C22.9401 38.1898 22.1001 38.9998 21.1001 39.5598C20.0901 40.1398 18.9801 40.4198 17.7501 40.4198H12.5001V47.1498H8.31006V47.1398ZM53.66 47.1498H49.3L57.7001 27.5898H62.07L70.47 47.1498H66.1201L64.4001 43.1498H55.3801L53.66 47.1498ZM56.82 39.7798L59.8801 32.6398L62.9501 39.7798H56.82Z" fill="white"/>
<path d="M69.8801 80.7899H75.7401C76.3901 80.7899 76.9501 80.7099 77.4101 80.5399C77.8901 80.3699 78.2701 80.0999 78.5201 79.7299C78.8001 79.3599 78.9401 78.9099 78.9401 78.3899C78.9401 77.8299 78.7801 77.3799 78.4601 77.0499C78.1401 76.7199 77.7301 76.4699 77.2301 76.3199C76.7201 76.1499 76.1801 76.0699 75.6401 76.0699H69.8701V80.7899H69.8801ZM69.8801 72.7499H75.1201C75.6601 72.7499 76.1401 72.6599 76.5701 72.4699C77.0001 72.2799 77.3301 72.0299 77.5501 71.7099C77.7901 71.3899 77.9101 71.0199 77.9101 70.5999C77.9101 69.8999 77.6401 69.3699 77.1001 69.0399C76.5601 68.6799 75.8301 68.5099 74.9001 68.5099H69.8801V72.7499ZM65.8601 84.4299V64.8799H75.3401C76.7901 64.8799 78.0101 65.0799 79.0001 65.4599C80.0101 65.8299 80.7601 66.3799 81.2901 67.0999C81.8101 67.8299 82.0701 68.6899 82.0701 69.6999C82.0701 70.7999 81.7601 71.7299 81.1501 72.4999C80.5501 73.2399 79.6801 73.7599 78.5301 74.0399L78.5801 73.5099C79.4201 73.7099 80.1801 74.0399 80.8701 74.4899C81.5401 74.8999 82.1001 75.4799 82.4901 76.1599C82.9001 76.8499 83.1001 77.6499 83.1001 78.5599C83.1001 79.6099 82.9001 80.5099 82.5201 81.2699C82.1401 81.9999 81.5801 82.6299 80.9001 83.0899C80.2101 83.5399 79.4301 83.8699 78.5501 84.0999C77.6901 84.3299 76.7701 84.4299 75.7901 84.4299H65.8701H65.8601Z" fill="white"/>
<path d="M50.86 84.4401C49.11 84.4401 47.56 84.0801 46.22 83.3601C44.89 82.6401 43.85 81.6601 43.09 80.4001C42.33 79.1301 41.96 77.7001 41.96 76.1101V64.8701H46.13V75.9101C46.13 76.8101 46.33 77.6301 46.74 78.3401C47.14 79.0501 47.73 79.6401 48.43 80.0601C49.15 80.4801 49.96 80.7001 50.86 80.7001C51.76 80.7001 52.6 80.4901 53.32 80.0601C54.04 79.6501 54.64 79.0601 55.06 78.3401C55.49 77.6201 55.7 76.8101 55.7 75.9101V64.8701H59.73V76.1001C59.73 77.6801 59.35 79.1201 58.6 80.3901C57.84 81.6401 56.79 82.6301 55.45 83.3501C54.12 84.0701 52.6 84.4401 50.87 84.4401H50.86Z" fill="white"/>
<path fill-rule="evenodd" clip-rule="evenodd" d="M21.0999 64.8799H16.9099V84.4399H21.0999V76.6399H31.6299V84.4399H35.8199V64.8799H31.6299V72.8399H21.0999V64.8799Z" fill="white"/>
</g>
<defs>
<clipPath id="clip0_9219_48">
<rect width="100" height="100" fill="white"/>
</clipPath>
</defs>
</svg>
