<svg width="100" height="100" viewBox="0 0 100 100" fill="none" xmlns="http://www.w3.org/2000/svg">
<path d="M21.696 10.7615V45.6294H13.5921V10.7618L21.696 10.7615ZM11.1326 10.6961V45.6297H3V10.6961H11.1326ZM87.7437 10.6961V31.7587C87.7437 31.7587 74.292 16.7512 72.4479 15.0651C68.7345 11.6846 63.857 9.872 58.8371 10.0071C51.832 10.0071 47.4536 12.8016 45.0875 15.1305C41.655 18.6811 39.7117 23.4109 39.6564 28.3491C39.6352 30.7665 40.1095 33.1626 41.05 35.3897C41.9905 37.6168 43.3773 39.6276 45.1248 41.2981C48.8428 44.7264 53.7538 46.5652 58.8091 46.4218C64.7059 46.4218 69.1309 44.4373 72.4005 41.2981C74.8414 38.9519 76.5581 35.9548 77.3472 32.6624L88.7587 45.6387H95.6526V10.6871L87.7437 10.6961ZM66.5044 36.016C65.4716 37.0112 64.2489 37.788 62.9092 38.3001C61.5696 38.8123 60.1404 39.0493 58.7072 38.9969C57.2868 39.042 55.8723 38.7959 54.5506 38.2739C53.229 37.7518 52.0281 36.9648 51.022 35.9613C50.0158 34.9578 49.2257 33.759 48.7002 32.4387C48.1747 31.1184 47.925 29.7045 47.9664 28.2841C47.9166 26.8267 48.1663 25.3746 48.6999 24.0175C49.2334 22.6604 50.0396 21.4271 51.0686 20.3939C53.1478 18.4419 55.9122 17.3876 58.7632 17.4593C61.6246 17.4398 64.3873 18.5049 66.4951 20.4402C67.4966 21.4795 68.2823 22.707 68.8067 24.0518C69.3312 25.3965 69.584 26.8318 69.5507 28.2748C69.6032 29.7053 69.3598 31.1313 68.8356 32.4634C68.3114 33.7955 67.5178 35.0049 66.5044 36.016Z" fill="white"/>
<path d="M31.5521 31.3401C33.3816 30.8903 35.0653 29.9794 36.4428 28.6942C37.3649 27.7625 38.0843 26.6501 38.5556 25.4269C39.027 24.2037 39.2401 22.8963 39.1817 21.5867C39.2358 20.1384 38.9925 18.6944 38.467 17.3437C37.9415 15.993 37.1448 14.7644 36.1261 13.7334C34.44 12.169 31.6548 10.6596 27.1738 10.6596H13.5921V16.8353H24.864C25.9167 16.8353 28.0219 16.8353 29.3353 17.8511C30.4401 18.7635 31.0451 20.1469 30.9654 21.5774C31.0121 22.8233 30.536 24.0322 29.6524 24.9123C28.2829 26.2724 26.2801 26.3467 24.808 26.3467H22.9448V31.9361L32.4469 45.5835H42.34L31.5521 31.3401ZM79.546 67.5868V74.4896H88.7034C88.2772 76.184 87.3444 77.7082 86.0295 78.8586C85.1911 79.576 83.235 80.8428 79.5091 80.8428C78.1219 80.905 76.7367 80.6807 75.44 80.1839C74.1434 79.6871 72.963 78.9284 71.9725 77.9552C69.6629 75.5992 68.1846 72.5543 67.7618 69.2823C68.1847 66.0103 69.663 62.9656 71.9725 60.6096C72.9634 59.6376 74.1441 58.8803 75.4408 58.385C76.7375 57.8897 78.1224 57.6671 79.5091 57.7311C83.235 57.7311 85.1541 59.0165 86.0295 59.7339C87.1343 60.7105 87.9684 61.9554 88.4517 63.3481L95.6992 59.8549C94.8812 58.0724 93.7766 56.4361 92.4293 55.0109C88.2934 50.7442 83.5703 49.9618 79.155 49.9618C74.7394 49.9618 69.8856 50.6885 65.526 55.1225C64.8454 55.8261 64.2223 56.5831 63.6628 57.3864V57.4424C63.165 56.6731 62.5806 55.9636 61.9211 55.3275C58.1948 51.7226 53.3228 49.9431 47.5096 49.9431C40.0574 49.9431 35.4554 52.887 32.9402 55.3742C32.2702 56.0716 31.6911 56.8509 31.2168 57.6937L31.1424 57.5634C30.6636 56.9805 30.147 56.4298 29.596 55.9146C25.0126 51.5359 19.8239 50.8465 14.9052 50.8465H3V87.7546H15.1102C18.2308 87.7546 24.6586 87.3632 29.801 82.1655C30.2031 81.7813 30.5855 81.377 30.9464 80.9544C31.5133 81.7347 32.1359 82.4725 32.8099 83.1623C35.3251 85.6588 39.9641 88.593 47.3886 88.593C53.2018 88.593 58.0551 86.8228 61.7997 83.2179C62.4578 82.578 63.0451 81.8689 63.5512 81.1031V81.1498C64.1131 81.954 64.7361 82.7142 65.4143 83.4229C69.774 87.8573 74.5717 88.5743 79.043 88.5743C83.5143 88.5743 88.135 87.8013 92.271 83.5346C96.4073 79.2683 97.9538 72.4491 97.9538 67.9591V67.5678L79.546 67.5868ZM26 71.7698C25.646 72.7012 24.6306 76.1758 22.4045 78.0296C19.6096 80.3584 15.7063 80.4984 13.9178 80.4984H11.5707V57.9451H13.9182C16.545 57.9451 20.169 58.3641 22.9635 61.131C24.417 62.5747 25.7584 65.2109 26.3078 69.0862C26.3078 69.4682 26.4198 69.8503 26.4848 70.223C26.2894 70.8657 26.1401 71.3874 26.0004 71.7691L26 71.7698ZM57.3564 75.2164C56.8799 76.092 56.2807 76.8951 55.5769 77.6012C53.3356 79.6543 50.4 80.7826 47.3606 80.7591C44.3338 80.8209 41.4049 79.6861 39.2097 77.6012C38.7766 77.1857 38.3835 76.7303 38.0356 76.2411C36.7286 74.1039 35.7843 71.7652 35.2411 69.3196C35.7819 66.8732 36.7265 64.5341 38.0359 62.3981C38.3837 61.9089 38.7767 61.4536 39.2097 61.038C41.4037 58.9514 44.3335 57.8163 47.3606 57.8801C50.4 57.8566 53.3356 58.9849 55.5769 61.038C56.2764 61.7478 56.8751 62.5502 57.3564 63.4228C58.2433 64.8648 58.9003 66.4364 59.3032 68.0805C59.3965 68.4812 59.4899 68.8819 59.5736 69.2823C59.4895 69.6736 59.3965 70.074 59.3032 70.4747C58.9082 72.1479 58.2512 73.7482 57.3564 75.2164Z" fill="white"/>
<path fill-rule="evenodd" clip-rule="evenodd" d="M77.3562 32.7652L67.2769 21.1859C67.2769 21.1859 72.1023 27.5485 67.6866 34.5816L71.6086 41.9316C74.4773 39.5886 76.4967 36.368 77.3562 32.7652Z" fill="white"/>
<path fill-rule="evenodd" clip-rule="evenodd" d="M23.0935 32.1503C25.9414 32.5148 28.8339 32.2864 31.5893 31.4794L42.3394 45.7601H32.465L23.0935 32.1503Z" fill="white"/>
<path fill-rule="evenodd" clip-rule="evenodd" d="M67.593 67.9962C67.649 68.3966 67.705 68.8344 67.7794 69.2816C68.212 66.0126 69.6889 62.9707 71.9901 60.6088C72.983 59.6371 74.1653 58.88 75.4634 58.3848C76.7615 57.8896 78.1476 57.6668 79.5355 57.7303C83.2618 57.7303 85.1249 59.0159 86.0565 59.7333C87.1657 60.7077 88.0034 61.953 88.4878 63.3477L95.7353 59.8543C94.9149 58.0731 93.8106 56.4371 92.4655 55.0102C88.3294 50.7437 83.6065 49.9613 79.191 49.9613C74.7754 49.9613 69.922 50.6879 65.5624 55.1221C64.8818 55.8256 64.2587 56.5826 63.6992 57.3857V57.4417C65.6882 60.6649 67.0121 64.2535 67.5932 67.9962H67.593Z" fill="white"/>
<path fill-rule="evenodd" clip-rule="evenodd" d="M60.3458 73.0825C60.0663 71.8249 59.8427 70.5486 59.5726 69.2818C59.4886 69.6729 59.3956 70.0734 59.3025 70.4741C58.895 72.117 58.2384 73.6877 57.3555 75.1318C56.8791 76.0074 56.2799 76.8105 55.5763 77.5166C53.335 79.5697 50.3994 80.698 47.3599 80.6745C44.3331 80.7363 41.404 79.6015 39.2089 77.5166C38.7758 77.101 38.3828 76.6456 38.0351 76.1565C36.7281 74.0194 35.7838 71.6807 35.2405 69.2352C34.8771 67.7633 34.7281 65.2946 34.1784 63.3569L26.9124 71.7411C28.1513 76.1473 30.2753 80.6187 32.8091 83.1618C35.343 85.705 39.9541 88.5928 47.3786 88.5928C53.1915 88.5928 58.0542 86.8228 61.7897 83.2177C62.4515 82.5787 63.0418 81.8697 63.5504 81.1031C61.9652 78.6663 60.8762 75.9407 60.3458 73.0825Z" fill="white"/>
<path fill-rule="evenodd" clip-rule="evenodd" d="M79.546 67.5861V74.4889H88.7031C88.277 76.1832 87.3443 77.7073 86.0295 78.8578C85.1911 79.5752 83.235 80.8421 79.5087 80.8421C78.1215 80.9042 76.7364 80.6799 75.4398 80.183C74.1432 79.6862 72.9629 78.9275 71.9725 77.9543C68.712 74.7964 67.9202 70.7441 67.5662 67.996C67.1097 64.7635 65.051 58.4569 61.7999 55.3361C58.0737 51.7404 53.2018 49.9611 47.3981 49.9611C39.9458 49.9611 35.3346 52.9049 32.8194 55.3921C32.1751 56.0999 31.5952 56.8636 31.0867 57.6744C31.8601 58.9129 32.5122 60.2231 33.0336 61.587C33.9019 64.1065 34.6174 66.676 35.1761 69.2816C35.7316 66.831 36.6952 64.4912 38.0266 62.3601C38.3773 61.8732 38.7701 61.4181 39.2004 61C41.3984 58.9136 44.3309 57.7788 47.3608 57.842C50.3971 57.8209 53.3289 58.9491 55.5679 61C56.27 61.7074 56.869 62.5103 57.3471 63.3849C58.234 64.8269 58.8908 66.3983 59.294 68.0426C59.6946 69.7194 59.9741 71.3868 60.3374 73.045C60.7965 75.9499 61.9116 78.712 63.5978 81.1216C64.1596 81.9229 64.7825 82.6797 65.4608 83.3852C69.8205 87.8194 74.618 88.5366 79.0895 88.5366C83.5609 88.5366 88.1815 87.7636 92.3176 83.497C96.4537 79.2304 97.9999 72.4116 97.9999 67.9214V67.5302L79.546 67.5861Z" fill="white"/>
<path fill-rule="evenodd" clip-rule="evenodd" d="M26.0004 71.7688C25.6464 72.7003 24.631 76.175 22.4045 78.0288C19.61 80.3577 15.7067 80.4974 13.9182 80.4974H13.6945C12.9215 82.8467 12.4794 85.2923 12.3811 87.7636H15.1105C18.2312 87.7636 24.6588 87.3723 29.8011 82.1743C30.2034 81.7871 30.5858 81.3797 30.9469 80.9538C28.6574 77.7675 27.1366 74.0945 26.5034 70.2224C26.2892 70.8652 26.14 71.3868 26.0004 71.7688Z" fill="white"/>
<path fill-rule="evenodd" clip-rule="evenodd" d="M79.5459 67.5866V74.4895H88.7033C88.2771 76.1839 87.3443 77.708 86.0294 78.8585C85.191 79.5759 83.2348 80.8426 79.5089 80.8426C78.1217 80.9048 76.7366 80.6805 75.4399 80.1837C74.1432 79.6869 72.9628 78.9283 71.9723 77.9551C69.6628 75.599 68.1845 72.5541 67.7617 69.2821C67.678 69.7295 67.6216 70.1578 67.566 70.5585C66.9442 74.3061 65.5791 77.8915 63.551 81.1036V81.1503C64.1129 81.9546 64.7359 82.7144 65.4142 83.4231C69.7738 87.8575 74.5715 88.5745 79.0429 88.5745C83.5142 88.5745 88.1349 87.8015 92.2708 83.5348C96.4072 79.2685 97.9536 72.4493 97.9536 67.9593V67.5679L79.5459 67.5866Z" fill="white"/>
<path fill-rule="evenodd" clip-rule="evenodd" d="M21.6966 23.1324H13.592V16.8816H21.6966V23.1324Z" fill="white"/>
</svg>
