<svg width="100" height="100" viewBox="0 0 100 100" fill="none" xmlns="http://www.w3.org/2000/svg">
<path fill-rule="evenodd" clip-rule="evenodd" d="M92.5985 19.1997C92.5985 19.1997 79.3987 0 49.7993 0C25.3997 0 7 13.5998 7 21.5996C7 30.7994 25.3997 35.5994 25.3997 49.9991H56.9991C56.9991 41.5993 29.3996 37.1993 29.3996 19.1997C29.3996 2.80003 72.1989 3.99995 92.5985 19.1997Z" fill="white"/>
<path fill-rule="evenodd" clip-rule="evenodd" d="M92.5985 80.7984C92.5985 80.7984 79.3987 99.9981 49.7993 99.9981C25.3997 99.9981 7 86.3983 7 78.3986C7 69.1987 25.3997 63.9987 25.3997 49.999H56.9991C56.9991 58.3988 29.3996 62.7988 29.3996 80.7984C29.3996 97.1981 72.1989 95.9982 92.5985 80.7984Z" fill="white"/>
<path fill-rule="evenodd" clip-rule="evenodd" d="M7.40003 18.7997C7 19.9996 7 20.7997 7 21.5996C7 30.7994 25.3997 35.5994 25.3997 49.9991C25.3997 63.9988 7 69.1989 7 78.3987C7 79.1986 7 79.9986 7.40003 80.7985C5.00002 71.9987 36.9995 64.3988 51.7992 56.3991C54.9991 54.3991 56.9991 52.3991 56.9991 49.9991C56.9991 47.5991 54.9991 45.5992 51.7992 43.5993C36.9995 35.5993 5.00002 27.9994 7.40003 18.7996V18.7997Z" fill="white"/>
</svg>
