<svg width="160" height="80" viewBox="0 0 160 80" fill="none" xmlns="http://www.w3.org/2000/svg">
<path fill-rule="evenodd" clip-rule="evenodd" d="M73.66 9.49989C73.11 9.63989 73.02 9.92989 73.18 11.0399C73.29 11.7899 73.58 17.0099 73.81 22.6299C74.3 34.3199 74.24 34.1299 77.38 33.8799C78.53 33.7899 82.76 33.6899 82.76 33.6899L82.72 31.4999C82.72 28.7299 83 28.2399 84.53 28.2399C86.38 28.2399 89.42 26.7499 90.71 25.2199C92.45 23.1599 92.87 21.7299 92.72 18.3599C92.57 14.7999 91.75 13.2499 89.07 11.4499C86.45 9.69989 84.3 9.22989 79.02 9.27989C76.44 9.29989 74.03 9.39989 73.66 9.49989ZM140.47 9.47989L139.54 9.64989L139.77 14.1999C139.9 16.6999 140.13 21.9799 140.28 25.9199L140.55 33.0899H149.41V30.5699L149.43 28.0499L150.54 30.0999C151.15 31.2299 152.05 32.6399 152.53 33.2499L153.41 34.3499L155.6 33.3699C156.81 32.8299 158.29 32.1999 158.89 31.9699L159.99 31.5499L159 30.7299C158.46 30.2799 157.36 29.0799 156.56 28.0799L155.11 26.2399L156.61 25.0899C157.43 24.4599 158.51 23.1899 159 22.2699C159.76 20.8399 159.88 20.1799 159.77 17.7699C159.61 13.9299 158.58 12.3699 155.11 10.6599C152.61 9.42989 152.53 9.41989 146.99 9.35989C143.91 9.32989 140.97 9.37989 140.46 9.46989L140.47 9.47989ZM36.52 14.3899C36.52 19.0499 36.54 19.1799 37.41 19.6499C37.9 19.9099 38.99 20.0599 39.83 19.9799C40.67 19.8999 41.36 19.9299 41.36 20.0399C41.36 20.3099 38.1 31.6499 37.79 32.4599C37.7 32.6899 37.43 33.2999 37.71 33.4799C37.95 33.6399 50.92 33.9599 51.3 33.3699C51.72 32.7099 52.9 28.9299 52.9 28.1999C52.9 27.6899 52.66 27.6499 51.32 27.8999C49.16 28.3199 47.31 28.3099 47.31 27.8899C47.31 27.6999 49.07 23.5899 51.22 18.7699C53.37 13.9499 55.13 9.90989 55.13 9.80989C55.13 9.70989 50.94 9.61989 45.81 9.61989H36.49V14.3999L36.52 14.3899ZM56.04 11.3799C56.16 12.3499 56.44 17.5799 56.65 22.9999C56.88 28.9299 57.2 33.0499 57.44 33.3399C58 34.0199 69.78 34.0399 70.34 33.3599C70.55 33.0999 70.92 32.1399 71.15 31.2199C71.39 30.2999 71.66 29.2799 71.75 28.9499C71.9 28.4399 71.53 28.3799 68.93 28.5299L65.94 28.6999V25.5199L68.18 25.7199C70.36 25.9199 70.42 25.8999 70.64 24.9299C70.76 24.3899 71 23.3999 71.17 22.7299L71.48 21.5199H68.72C65.82 21.5199 65.73 21.4599 66.2 19.7199C66.42 18.8799 66.53 18.8599 68.93 19.0999L71.43 19.3499L71.67 16.2399C71.8 14.5299 71.91 12.3399 71.91 11.3599V9.58989H63.87H55.82L56.04 11.3599V11.3799ZM94.1 15.2899C94.26 18.4199 94.48 23.6599 94.61 26.9299L94.84 32.8899L99.22 32.9999L103.6 33.0999L103.63 29.4599L103.66 25.8199L104.31 27.2199C105.19 29.1099 106.54 28.4499 106.54 28.4499L107.69 27.8499V33.0899H111.6C115.35 33.0899 115.51 33.0599 115.67 32.2499C115.76 31.7899 115.93 28.5599 116.04 25.0799C116.15 21.5999 116.36 16.6899 116.49 14.1799L116.74 9.61989H111.75H106.76L107.01 13.9999C107.15 16.4099 107.27 19.5699 107.29 21.0399C107.32 23.6699 107.31 23.6999 106.3 23.8399C103.84 24.1899 103.88 24.2999 104.14 18.0599C104.27 14.9499 104.47 11.7799 104.58 11.0099L104.78 9.60989H93.82L94.1 15.2899ZM118.31 11.3699C122.78 19.2399 123.31 20.4999 123.7 24.3499C123.91 26.3899 124.12 29.1499 124.17 30.4799L124.26 32.8999L128.2 33.0099L132.14 33.1199L132.57 26.9299L133 20.7399L135.3 16.3899C136.56 13.9999 137.93 11.4899 138.33 10.8099L139.06 9.57989L136.19 9.68989L133.32 9.79989L132.49 12.4099C131.08 16.8599 131.03 16.8699 129.77 13.1099L128.67 9.79989L122.98 9.69989L117.29 9.59989L118.3 11.3799L118.31 11.3699ZM85.86 19.8899C86.47 20.4999 86.64 22.1699 86.16 22.8799C85.79 23.4299 84.39 24.1499 83.68 24.1499C83.21 24.1499 83.1 23.6799 83.1 21.7299V19.3099H84.19C84.79 19.3099 85.54 19.5699 85.87 19.8999L85.86 19.8899ZM151.94 19.8799C153.66 21.0899 152.6 24.1399 150.45 24.1399C149.88 24.1399 149.79 23.7899 149.79 21.7199C149.79 19.0599 150.23 18.6799 151.94 19.8799ZM78.74 39.7499C73.5 42.1999 72.65 51.6599 77.3 55.7499C79.71 57.8599 82.02 58.2399 84.82 56.9699C87.75 55.6399 89.43 52.3099 89.43 47.8399C89.43 44.4299 88.2 41.7199 86 40.2599C84.02 38.9499 80.93 38.7299 78.74 39.7599V39.7499ZM53.25 40.2199C49.59 42.3399 49.79 46.6599 53.74 50.8299C55.35 52.5299 55.56 52.9099 55.15 53.4099C54.82 53.8099 54.34 53.9199 53.61 53.7599C52.75 53.5699 52.55 53.6499 52.55 54.2099C52.55 55.6699 53.36 57.6999 54.1 58.0899C55.18 58.6699 57.76 58.1899 58.89 57.1999C60.93 55.3999 61.25 53.0499 59.83 50.2499L58.91 48.4299L60.2 47.6699C61.06 47.1632 61.49 45.9799 61.49 44.1199C61.49 42.5899 61.33 40.9099 61.13 40.3799C60.78 39.4599 60.65 39.4199 57.68 39.4299C55.24 39.4299 54.32 39.5999 53.26 40.2199H53.25ZM107.32 40.0699C106.61 40.4299 105.64 41.2899 105.18 41.9899C103.53 44.4599 104.33 47.3499 107.36 49.8899C108.74 51.0499 109.18 51.6599 109.18 52.4599C109.18 53.6499 108.46 54.0699 107.06 53.7199C106.13 53.4899 106.12 53.5099 106.39 55.1199C106.54 56.0199 106.74 56.8799 106.83 57.0299C107.12 57.5199 111.05 57.3299 112.13 56.7699C114.56 55.5099 115.04 52.8699 113.39 49.8999C112.52 48.3499 112.45 47.9899 112.88 47.4799C113.16 47.1499 113.78 46.8799 114.27 46.8799C115.14 46.8799 115.16 46.8199 115.16 43.3799C115.16 39.3099 115.28 39.4299 111.31 39.4299C109.51 39.4299 108.22 39.6399 107.34 40.0799L107.32 40.0699ZM62.36 43.0499C62.49 44.8399 62.69 48.5699 62.81 51.3399C62.93 54.1099 63.21 56.7499 63.44 57.2099C63.83 58.0099 64.06 58.0499 68.17 58.0499C73.02 58.0499 73.08 58.0199 73.75 55.0499L74.1 53.5099L71.89 53.7699L69.68 54.0299L69.94 46.9099L70.2 39.7899H62.16L62.39 43.0499H62.36ZM89.93 41.1899C90.06 41.9599 90.16 43.5499 90.17 44.7299V46.8699H91.8C93.39 46.8699 93.43 46.8999 93.66 48.2699C93.79 49.0399 93.9 50.9199 93.9 52.4599C93.91 56.9599 93.9 56.9299 97.06 56.9299H99.77L100.04 51.8999L100.31 46.8699H101.91C103.81 46.8699 103.95 46.5599 103.96 42.4899V39.7899H96.84H89.71L89.94 41.1899H89.93ZM83.12 48.3799C84.77 49.2599 83.28 54.0599 81.56 53.3999C80.19 52.8699 79.66 49.8599 80.73 48.6799C81.43 47.9099 82.08 47.8299 83.12 48.3799Z" fill="white"/>
<path fill-rule="evenodd" clip-rule="evenodd" d="M24.95 10.5198C24.23 10.7898 22.76 11.4498 21.69 11.9998L19.75 12.9798L21.01 14.7498C22.23 16.4498 23.47 19.4498 23.47 20.6798C23.47 21.8298 24.99 23.7198 26.53 24.4898C27.38 24.9098 28.13 25.2098 28.18 25.1598C28.23 25.1098 27.95 24.0098 27.55 22.7198C26.67 19.8798 26.64 18.2298 27.41 14.8498C28.43 10.3698 27.9 9.4398 24.95 10.5398V10.5198Z" fill="#D74398"/>
<path fill-rule="evenodd" clip-rule="evenodd" d="M10.28 12.1202C9.96 13.0702 9.69 14.0602 9.69 14.3102C9.69 14.5602 10.6 14.9602 11.83 15.2202C16.08 16.1002 17.55 17.3502 19.03 21.3802C20.22 24.6302 23.11 27.3402 27.07 28.9402C30.22 30.2102 30.79 30.6502 31.79 32.5302C32.11 33.1402 32.38 33.4802 32.39 33.2802C32.39 33.0802 32.02 32.2402 31.57 31.4202C30.88 30.1902 30.19 29.6602 27.56 28.3902C23.98 26.6502 21.86 24.6302 21.28 22.4102C21.08 21.6302 20.72 20.2402 20.48 19.3302C19.96 17.3302 16.65 13.9302 13.13 11.7902L10.86 10.4102L10.27 12.1402L10.28 12.1202Z" fill="#D74398"/>
<path fill-rule="evenodd" clip-rule="evenodd" d="M12.02 20.1497C11.4 21.0097 10.46 22.5797 9.93002 23.6397L8.96002 25.5597L10.97 26.1897C12.18 26.5697 13.98 27.6197 15.5 28.8297C17.88 30.7297 18.14 30.8397 20.13 30.8397C21.29 30.8397 22.34 30.7397 22.47 30.6097C22.6 30.4797 21.85 29.7397 20.81 28.9597C19.07 27.6497 16.4 24.4497 16.4 23.6697C16.4 22.8897 14.42 19.2497 13.82 18.9297C13.28 18.6397 12.95 18.8597 12.03 20.1397L12.02 20.1497Z" fill="#D74398"/>
<path fill-rule="evenodd" clip-rule="evenodd" d="M0 28.8801C0 29.1701 1.12 32.7501 1.28 32.9801C1.31 33.0201 2.38 32.6401 3.66 32.1201C5.03 31.5701 6.75 31.1701 7.84 31.1701C9.71 31.1601 10.26 31.3701 14.69 33.8501C17.37 35.3501 19.71 35.4801 24.65 34.4301C27.85 33.7401 27.9 33.7501 29.39 34.4801C31.12 35.3401 31.08 34.8801 29.35 33.9801C28.18 33.3801 27.88 33.3801 21.37 34.0501C18.47 34.3501 16.87 33.8401 14.61 31.8701C11.67 29.3301 10.18 28.8401 4.75 28.6801C2 28.6001 0 28.6801 0 28.8801Z" fill="#D74398"/>
<path fill-rule="evenodd" clip-rule="evenodd" d="M6.84003 37.0901C6.97003 38.8801 7.18003 40.7101 7.30003 41.1601C7.52003 41.9501 7.56003 41.9501 9.07003 41.3801C10.14 40.9801 11.75 40.8101 14.28 40.8501C16.36 40.8801 18.29 40.7201 18.75 40.4901C19.64 40.0301 21.61 38.2801 21.61 37.9501C21.61 37.8301 20.31 37.7301 18.72 37.7101C15.62 37.6801 13.68 37.0301 10.4 34.9301C9.46003 34.3301 8.22003 33.8301 7.64003 33.8301H6.59003L6.83003 37.0901H6.84003Z" fill="#D74398"/>
<path fill-rule="evenodd" clip-rule="evenodd" d="M27.35 37.7197C26.72 37.9997 25.38 39.1697 24.38 40.3297C23.26 41.6297 21.82 42.7997 20.61 43.3897C18.82 44.2697 18.41 44.3197 15.57 44.0897C12.9 43.8697 12.18 43.9497 10.31 44.6497C7.96 45.5297 2.09 49.7097 2.43 50.2597C2.54 50.4497 3.38 51.1097 4.28 51.7297L5.93 52.8597L6.7 51.3397C7.81 49.1697 9.91 46.9797 11.29 46.5497C11.94 46.3497 13.73 46.0697 15.27 45.9397C19.32 45.5897 21.45 44.4897 24.68 41.1097C26.46 39.2497 27.89 38.0997 28.87 37.7497C30.04 37.3297 30.16 37.2197 29.43 37.2197C28.92 37.2197 27.98 37.4397 27.35 37.7197Z" fill="#D74398"/>
<path fill-rule="evenodd" clip-rule="evenodd" d="M30.24 40.72C29.61 41.43 29.02 42.56 28.93 43.24C27.91 50.54 27.6 51.13 23.49 53.77C21 55.36 19.9 56.68 18.54 59.69C17.9 61.1 16.77 65.04 16.77 65.85C16.77 66.1 17.61 66.26 18.98 66.26H21.19L20.98 63.47C20.69 59.58 21.4 57.83 24.17 55.61C27.87 52.64 28.92 50.65 29.45 45.6C29.65 43.74 29.81 42.11 29.81 41.97C29.81 41.83 30.25 41.2 30.78 40.57C32.11 38.99 31.65 39.12 30.24 40.72Z" fill="#D74398"/>
<path fill-rule="evenodd" clip-rule="evenodd" d="M33.77 40.9995C33.29 42.7995 33.6 44.0795 35.27 47.1495C37.44 51.1395 37.59 53.1895 35.98 56.9295C35.08 59.0295 34.96 59.6795 35.14 61.7695C35.32 63.8995 37.41 70.7095 37.88 70.7095C38.25 70.7095 41.36 68.4195 41.36 68.1495C41.36 67.9895 40.92 67.4495 40.39 66.9595C39.86 66.4595 38.93 65.2195 38.34 64.1895C37.11 62.0595 36.98 60.3995 37.82 57.2995C38.91 53.2295 38.48 50.9695 35.72 46.4095C34.38 44.1795 34.1 43.3995 34.12 41.9295C34.15 39.9295 34.09 39.7795 33.77 40.9895V40.9995Z" fill="#D74398"/>
<path fill-rule="evenodd" clip-rule="evenodd" d="M23.1 45.9094C20.79 47.5894 18.72 48.3194 15.55 48.5794C12.65 48.8194 10.8 49.3494 10.8 49.9394C10.8 50.4994 13.17 53.5994 14.73 55.0694C15.75 56.0394 16.16 56.2394 16.3 55.8394C16.69 54.7594 19.53 52.0394 21.56 50.8094C22.71 50.1094 23.92 49.0594 24.25 48.4894C24.89 47.3594 25.45 44.6294 25.02 44.6694C24.88 44.6794 24.01 45.2494 23.09 45.9194L23.1 45.9094Z" fill="#D74398"/>
<path fill-rule="evenodd" clip-rule="evenodd" d="M39.63 47.6498C41.17 53.0598 41.21 54.1198 40.04 58.1698C39.75 59.1598 39.62 60.4698 39.75 61.0998C39.96 62.1398 40.08 62.2198 41.19 62.0398C41.85 61.9298 43.69 61.2498 45.27 60.5198L48.14 59.1898L47.15 58.0198C45.77 56.3798 44.77 54.3098 44.48 52.4898C44.15 50.3998 42.95 48.7398 41 47.6598L39.37 46.7598L39.63 47.6598V47.6498Z" fill="#D74398"/>
<path fill-rule="evenodd" clip-rule="evenodd" d="M31.28 49.5695C30.54 52.3595 29 54.6595 26.18 57.1795C22.59 60.3895 22.62 60.9095 26.45 62.0295C27.99 62.4795 29.81 62.8595 30.5 62.8695C31.71 62.8895 31.75 62.8495 31.57 61.6795C31.32 60.0595 31.95 56.7195 32.83 54.9995C33.75 53.1995 33.73 51.3095 32.79 49.4595C32.38 48.6495 31.96 47.9795 31.87 47.9795C31.78 47.9795 31.52 48.6895 31.28 49.5595V49.5695Z" fill="#D74398"/>
</svg>
