<svg width="160" height="80" viewBox="0 0 160 80" fill="none" xmlns="http://www.w3.org/2000/svg">
<g clip-path="url(#clip0_8312_80)">
<path d="M14.54 32.02H8.91C4.75 32.02 3.39 33.07 1.81 37.57C0.73 40.65 0 44.12 0 46.11C0 47.72 0.39 48.86 1.22 49.63C2.08 50.41 3 50.71 7.04 50.71C10.23 50.68 11.53 50.99 11.89 49.27L12.64 46.39H12.22C11.67 47.31 11.14 47.58 9.67 47.58H7.01C5.9 47.58 5.62 47.52 5.21 47.33C4.6 47 4.29 46.39 4.29 45.55C4.29 45.02 4.37 44 4.6 42.94C5.07 40.5 5.54 38.78 6.24 37.14C7.02 35.34 7.68 34.92 9.93 34.92H12.26C13.56 34.92 13.84 34.75 14.09 33.76L14.53 32.01L14.54 32.02ZM22.01 33.02C22.04 32.83 22.07 32.66 22.07 32.58C22.07 32.22 21.76 32.03 21.15 32.03H17.32L17.24 32.42C17.63 32.56 17.77 32.73 17.77 33.03C17.77 33.25 17.74 33.5 17.63 33.89L13.91 49.39C13.83 49.67 13.83 49.81 13.83 49.94C13.83 50.36 14.08 50.52 14.72 50.52H22.82C23.87 50.52 24.21 50.27 24.46 49.22L25.1 46.59H24.66C24.27 47.28 24.08 47.39 23.22 47.39H18.59L22.03 33.02H22.01ZM36.78 45.89L36.89 49.5C36.92 50.3 37.08 50.53 37.69 50.53H41.49L41.55 50.17C41.08 49.98 41.02 49.86 41 49.14L40.42 33.03C40.39 32.17 40.25 32.03 39.48 32.03H34.52L34.44 32.42C34.83 32.59 34.94 32.7 34.94 32.95C34.94 33.09 34.86 33.28 34.72 33.53L25.43 49.09C25.21 49.48 25.1 49.73 25.1 49.92C25.1 50.31 25.41 50.53 25.96 50.53H29.68L29.76 50.17C29.29 50.09 29.09 49.95 29.09 49.64C29.09 49.47 29.17 49.28 29.31 49.03L31.06 45.9H36.8L36.78 45.89ZM36.72 43.09H32.59L36.53 35.96L36.72 43.09ZM60.15 50.52L68.17 33.52C68.39 33.02 68.48 32.77 68.48 32.58C68.48 32.22 68.17 32.03 67.59 32.03H63.98L63.9 32.42C64.15 32.56 64.26 32.73 64.26 32.97C64.26 33.08 64.23 33.28 64.15 33.44L59.32 44.59V32.03H55.22L49.31 44.7L49.42 33.19C49.42 32.27 49.2 32.03 48.28 32.03H44.81L44.75 32.42C45.28 32.64 45.36 32.81 45.36 33.45V49.15C45.36 50.23 45.61 50.54 46.47 50.54H50.05L55.37 39.06V49.32C55.37 50.29 55.62 50.54 56.53 50.54H60.14L60.15 50.52ZM80.03 40.21C80.86 39.88 81.33 39.52 81.83 38.85C82.47 37.91 82.91 36.33 82.91 34.94C82.91 32.97 81.69 32.03 79.11 32.03H70.6L70.52 32.42C70.88 32.53 71.05 32.73 71.05 33.06C71.05 33.25 70.99 33.5 70.91 33.89L67.19 49.39C67.13 49.58 67.08 49.83 67.08 49.94C67.08 50.36 67.36 50.52 68 50.52H76.43C78.79 50.52 79.98 49.88 80.84 48.13C81.45 46.94 82.06 44.19 82.06 42.78C82.06 41.37 81.51 40.7 80.04 40.2L80.03 40.21ZM73.9 38.82L74.84 34.8H76.98C77.92 34.8 78.39 34.86 78.62 34.94C79.01 35.11 79.2 35.47 79.2 35.97C79.2 36.75 78.81 37.88 78.37 38.27C77.95 38.66 77.45 38.8 76.23 38.82H73.9ZM71.84 47.39L73.17 41.76H75.8C77.41 41.76 77.94 42.12 77.94 43.15C77.94 44.09 77.5 45.73 77 46.51C76.61 47.15 75.97 47.4 74.7 47.4H71.84V47.39ZM91.55 33.02C91.58 32.83 91.61 32.66 91.61 32.58C91.61 32.19 91.33 32.03 90.72 32.03H86.86L86.78 32.42C87.14 32.53 87.31 32.73 87.31 33.06C87.31 33.25 87.28 33.48 87.17 33.89L84.26 46.07C84.09 46.74 84.12 47.21 84.12 47.6C84.12 48.35 84.37 49.01 84.87 49.6C85.67 50.49 87.39 50.82 90.33 50.82C92.83 50.82 94.71 50.49 95.82 49.68C96.87 48.93 97.35 48.07 97.93 45.71L100.92 33.17C100.95 33 101 32.73 101 32.62C101 32.2 100.75 32.04 100.11 32.04H96.31L96.2 32.43C96.56 32.54 96.73 32.74 96.73 33.07C96.73 33.26 96.7 33.51 96.59 33.9L93.9 45.16C93.43 47.16 92.79 47.63 90.79 47.63C89.1 47.63 88.4 47.3 88.4 46.44C88.4 46.25 88.46 45.89 88.54 45.55L91.53 33.04L91.55 33.02ZM101.45 46.2H101.01L100.26 49.33C100.23 49.5 100.2 49.69 100.2 49.8C100.2 50.3 100.48 50.52 101.14 50.52H107.99C110.6 50.52 112.23 49.33 113.07 46.8C113.49 45.61 113.85 43.69 113.85 42.78C113.85 41.31 113.18 40.42 111.69 39.9L108.97 38.93C107.75 38.51 107.36 38.15 107.36 37.46C107.36 36.91 107.64 35.96 107.94 35.52C108.33 34.99 108.85 34.8 110.08 34.8H113.19C114.19 34.8 114.47 34.61 114.69 33.64L115.08 32.03H109.2C106.98 32.03 105.73 32.47 104.85 33.56C103.99 34.61 103.05 37.53 103.05 39.13C103.05 39.77 103.19 40.32 103.49 40.79C103.88 41.34 104.27 41.62 105.38 42.01L107.93 42.9C109.09 43.32 109.37 43.62 109.37 44.45C109.37 44.98 109.2 45.73 108.95 46.23C108.51 47.06 107.81 47.39 106.4 47.39H103.32C101.82 47.39 101.49 47.14 101.46 46.2H101.45ZM125.2 34.8H128.5C129.55 34.8 129.89 34.58 130.11 33.72L130.69 31.25H130.33C129.97 31.89 129.61 32.03 128.44 32.03H118.51C117.35 32.03 117.15 32.03 116.93 33L116.29 35.58H116.68C117.01 34.97 117.29 34.8 118.04 34.8H121.04L117.55 49.39C117.49 49.64 117.47 49.81 117.47 49.92C117.47 50.36 117.72 50.53 118.36 50.53H122.19L122.3 50.17C121.94 50.06 121.77 49.84 121.77 49.5C121.77 49.33 121.83 49.03 121.91 48.67L125.21 34.8H125.2ZM133.48 47.39L134.51 43.12C134.76 42.09 135.12 41.82 136.2 41.82H140.33C141.08 41.82 141.36 41.6 141.52 40.96L142.02 38.85H135.53L136.5 34.8H142.05C143.13 34.8 143.49 34.58 143.69 33.83L144.13 32.03H132.23L132.15 32.42C132.51 32.53 132.68 32.73 132.68 33.06C132.68 33.25 132.63 33.5 132.54 33.89L128.82 49.39C128.77 49.58 128.71 49.83 128.71 49.94C128.71 50.36 128.99 50.52 129.62 50.52H138.88C140.1 50.52 140.35 50.33 140.63 49.13L141.27 46.52H140.91C140.44 47.27 140.16 47.38 138.69 47.38H133.48V47.39ZM158 47.39H157.31C156.67 47.39 156.48 47.22 156.26 46.64L154.65 42.15C156.48 41.9 157.45 41.4 158.31 40.21C159.25 38.93 159.78 37.19 159.78 35.47C159.78 34.19 159.45 33.33 158.75 32.78C158.08 32.23 157.31 32.03 155.67 32.03H146.91L146.83 32.42C147.19 32.53 147.36 32.73 147.36 33.06C147.36 33.25 147.3 33.5 147.22 33.89L143.5 49.39C143.44 49.61 143.42 49.81 143.42 49.94C143.42 50.36 143.67 50.52 144.31 50.52H148.14L148.25 50.16C147.89 50.05 147.72 49.83 147.72 49.49C147.72 49.32 147.77 49.02 147.86 48.66L149.41 42.14H150.85L152.9 49.41C153.15 50.27 153.46 50.52 154.34 50.52H156.12C157.03 50.52 157.31 50.3 157.53 49.38L158 47.38V47.39ZM150.07 39.43L151.18 34.8H153.54C155.07 34.8 155.57 35.16 155.57 36.21C155.57 37.43 155.07 38.57 154.32 39.04C153.88 39.32 153.29 39.43 152.3 39.43H150.08H150.07Z" fill="url(#paint0_linear_8312_80)"/>
<path d="M14.54 29.9802H8.91C4.75 29.9802 3.39 31.0302 1.81 35.5302C0.73 38.6002 0 42.0702 0 44.0602C0 45.6702 0.39 46.8102 1.22 47.5802C2.08 48.3602 3 48.6602 7.04 48.6602C10.23 48.6302 11.53 48.9402 11.89 47.2202L12.64 44.3402H12.22C11.67 45.2602 11.14 45.5302 9.67 45.5302H7.01C5.9 45.5302 5.62 45.4702 5.21 45.2802C4.6 44.9502 4.29 44.3402 4.29 43.5002C4.29 42.9702 4.37 41.9502 4.6 40.8902C5.07 38.4502 5.54 36.7302 6.24 35.0902C7.02 33.2902 7.68 32.8702 9.93 32.8702H12.26C13.56 32.8702 13.84 32.7002 14.09 31.7102L14.53 29.9602L14.54 29.9802ZM22.01 30.9702C22.04 30.7802 22.07 30.6102 22.07 30.5302C22.07 30.1702 21.76 29.9802 21.15 29.9802H17.32L17.24 30.3702C17.63 30.5102 17.77 30.6802 17.77 30.9802C17.77 31.2002 17.74 31.4502 17.63 31.8402L13.91 47.3402C13.83 47.6202 13.83 47.7602 13.83 47.8902C13.83 48.3102 14.08 48.4702 14.72 48.4702H22.82C23.87 48.4702 24.21 48.2202 24.46 47.1702L25.1 44.5402H24.66C24.27 45.2302 24.08 45.3402 23.22 45.3402H18.59L22.03 30.9702H22.01ZM36.78 43.8402L36.89 47.4502C36.92 48.2502 37.08 48.4802 37.69 48.4802H41.49L41.55 48.1202C41.08 47.9302 41.02 47.8102 41 47.0902L40.42 30.9802C40.39 30.1202 40.25 29.9802 39.48 29.9802H34.52L34.44 30.3702C34.83 30.5402 34.94 30.6502 34.94 30.9002C34.94 31.0402 34.86 31.2302 34.72 31.4802L25.43 47.0402C25.21 47.4302 25.1 47.6802 25.1 47.8702C25.1 48.2602 25.41 48.4802 25.96 48.4802H29.68L29.76 48.1202C29.29 48.0402 29.09 47.9002 29.09 47.5902C29.09 47.4202 29.17 47.2302 29.31 46.9802L31.06 43.8502H36.8L36.78 43.8402ZM36.72 41.0402H32.59L36.53 33.9102L36.72 41.0402ZM60.15 48.4702L68.17 31.4702C68.39 30.9702 68.48 30.7202 68.48 30.5302C68.48 30.1702 68.17 29.9802 67.59 29.9802H63.98L63.9 30.3702C64.15 30.5102 64.26 30.6802 64.26 30.9202C64.26 31.0302 64.23 31.2302 64.15 31.3902L59.32 42.5402V29.9802H55.22L49.31 42.6502L49.42 31.1402C49.42 30.2202 49.2 29.9802 48.28 29.9802H44.81L44.75 30.3702C45.28 30.5902 45.36 30.7602 45.36 31.4002V47.1002C45.36 48.1802 45.61 48.4902 46.47 48.4902H50.05L55.37 37.0102V47.2702C55.37 48.2402 55.62 48.4902 56.53 48.4902H60.14L60.15 48.4702ZM80.03 38.1602C80.86 37.8302 81.33 37.4702 81.83 36.8002C82.47 35.8602 82.91 34.2802 82.91 32.8902C82.91 30.9202 81.69 29.9802 79.11 29.9802H70.6L70.52 30.3702C70.88 30.4802 71.05 30.6802 71.05 31.0102C71.05 31.2002 70.99 31.4502 70.91 31.8402L67.19 47.3402C67.13 47.5302 67.08 47.7802 67.08 47.8902C67.08 48.3102 67.36 48.4702 68 48.4702H76.43C78.79 48.4702 79.98 47.8302 80.84 46.0802C81.45 44.8902 82.06 42.1402 82.06 40.7302C82.06 39.3202 81.51 38.6502 80.04 38.1502L80.03 38.1602ZM73.9 36.7702L74.84 32.7502H76.98C77.92 32.7502 78.39 32.8102 78.62 32.8902C79.01 33.0602 79.2 33.4202 79.2 33.9202C79.2 34.7002 78.81 35.8302 78.37 36.2202C77.95 36.6102 77.45 36.7502 76.23 36.7702H73.9ZM71.84 45.3402L73.17 39.7102H75.8C77.41 39.7102 77.94 40.0702 77.94 41.1002C77.94 42.0402 77.5 43.6802 77 44.4602C76.61 45.1002 75.97 45.3502 74.7 45.3502H71.84V45.3402ZM91.55 30.9702C91.58 30.7802 91.61 30.6102 91.61 30.5302C91.61 30.1402 91.33 29.9802 90.72 29.9802H86.86L86.78 30.3702C87.14 30.4802 87.31 30.6802 87.31 31.0102C87.31 31.2002 87.28 31.4302 87.17 31.8402L84.26 44.0202C84.09 44.6902 84.12 45.1602 84.12 45.5502C84.12 46.3002 84.37 46.9602 84.87 47.5502C85.67 48.4402 87.39 48.7702 90.33 48.7702C92.83 48.7702 94.71 48.4402 95.82 47.6302C96.87 46.8802 97.35 46.0202 97.93 43.6602L100.92 31.1202C100.95 30.9502 101 30.6802 101 30.5702C101 30.1502 100.75 29.9902 100.11 29.9902H96.31L96.2 30.3802C96.56 30.4902 96.73 30.6902 96.73 31.0202C96.73 31.2102 96.7 31.4602 96.59 31.8502L93.9 43.1102C93.43 45.1102 92.79 45.5802 90.79 45.5802C89.1 45.5802 88.4 45.2502 88.4 44.3902C88.4 44.2002 88.46 43.8402 88.54 43.5002L91.53 30.9902L91.55 30.9702ZM101.45 44.1502H101.01L100.26 47.2802C100.23 47.4502 100.2 47.6402 100.2 47.7502C100.2 48.2502 100.48 48.4702 101.14 48.4702H107.99C110.6 48.4702 112.23 47.2802 113.07 44.7502C113.49 43.5602 113.85 41.6402 113.85 40.7302C113.85 39.2602 113.18 38.3702 111.69 37.8502L108.97 36.8802C107.75 36.4602 107.36 36.1002 107.36 35.4102C107.36 34.8602 107.64 33.9102 107.94 33.4702C108.33 32.9402 108.85 32.7502 110.08 32.7502H113.19C114.19 32.7502 114.47 32.5602 114.69 31.5902L115.08 29.9802H109.2C106.98 29.9802 105.73 30.4202 104.85 31.5102C103.99 32.5602 103.05 35.4802 103.05 37.0802C103.05 37.7202 103.19 38.2702 103.49 38.7402C103.88 39.2902 104.27 39.5702 105.38 39.9602L107.93 40.8502C109.09 41.2702 109.37 41.5702 109.37 42.4002C109.37 42.9302 109.2 43.6802 108.95 44.1802C108.51 45.0102 107.81 45.3402 106.4 45.3402H103.32C101.82 45.3402 101.49 45.0902 101.46 44.1502H101.45ZM125.2 32.7502H128.5C129.55 32.7502 129.89 32.5302 130.11 31.6702L130.69 29.2002H130.33C129.97 29.8402 129.61 29.9802 128.44 29.9802H118.51C117.35 29.9802 117.15 29.9802 116.93 30.9502L116.29 33.5302H116.68C117.01 32.9202 117.29 32.7502 118.04 32.7502H121.04L117.55 47.3402C117.49 47.5902 117.47 47.7602 117.47 47.8702C117.47 48.3102 117.72 48.4802 118.36 48.4802H122.19L122.3 48.1202C121.94 48.0102 121.77 47.7902 121.77 47.4502C121.77 47.2802 121.83 46.9802 121.91 46.6202L125.21 32.7502H125.2ZM133.48 45.3402L134.51 41.0702C134.76 40.0402 135.12 39.7702 136.2 39.7702H140.33C141.08 39.7702 141.36 39.5502 141.52 38.9102L142.02 36.8002H135.53L136.5 32.7502H142.05C143.13 32.7502 143.49 32.5302 143.69 31.7802L144.13 29.9802H132.23L132.15 30.3702C132.51 30.4802 132.68 30.6802 132.68 31.0102C132.68 31.2002 132.63 31.4502 132.54 31.8402L128.82 47.3402C128.77 47.5302 128.71 47.7802 128.71 47.8902C128.71 48.3102 128.99 48.4702 129.62 48.4702H138.88C140.1 48.4702 140.35 48.2802 140.63 47.0802L141.27 44.4702H140.91C140.44 45.2202 140.16 45.3302 138.69 45.3302H133.48V45.3402ZM158 45.3402H157.31C156.67 45.3402 156.48 45.1702 156.26 44.5902L154.65 40.1002C156.48 39.8502 157.45 39.3502 158.31 38.1602C159.25 36.8802 159.78 35.1402 159.78 33.4202C159.78 32.1402 159.45 31.2802 158.75 30.7302C158.08 30.1802 157.31 29.9802 155.67 29.9802H146.91L146.83 30.3702C147.19 30.4802 147.36 30.6802 147.36 31.0102C147.36 31.2002 147.3 31.4502 147.22 31.8402L143.5 47.3402C143.44 47.5602 143.42 47.7602 143.42 47.8902C143.42 48.3102 143.67 48.4702 144.31 48.4702H148.14L148.25 48.1102C147.89 48.0002 147.72 47.7802 147.72 47.4402C147.72 47.2702 147.77 46.9702 147.86 46.6102L149.41 40.0902H150.85L152.9 47.3602C153.15 48.2202 153.46 48.4702 154.34 48.4702H156.12C157.03 48.4702 157.31 48.2502 157.53 47.3302L158 45.3302V45.3402ZM150.07 37.3802L151.18 32.7502H153.54C155.07 32.7502 155.57 33.1102 155.57 34.1602C155.57 35.3802 155.07 36.5202 154.32 36.9902C153.88 37.2702 153.29 37.3802 152.3 37.3802H150.08H150.07Z" fill="url(#paint1_linear_8312_80)"/>
<path opacity="0.8" d="M14.76 29.9802H9.13C4.97 29.9802 3.61 31.0302 2.03 35.5302C0.949996 38.6102 0.229996 42.0802 0.229996 44.0702C0.229996 45.6802 0.619996 46.8202 1.45 47.5902C2.31 48.3702 3.23 48.6702 7.27 48.6702C10.46 48.6402 11.76 48.9502 12.12 47.2302L12.87 44.3502H12.45C11.9 45.2702 11.37 45.5402 9.9 45.5402H7.24C6.13 45.5402 5.85 45.4802 5.44 45.2902C4.83 44.9602 4.52 44.3502 4.52 43.5102C4.52 42.9802 4.6 41.9602 4.83 40.9002C5.3 38.4602 5.77 36.7402 6.47 35.1002C7.25 33.3002 7.91 32.8802 10.16 32.8802H12.49C13.79 32.8802 14.07 32.7102 14.32 31.7202L14.76 29.9702V29.9802ZM22.22 30.9702C22.25 30.7802 22.28 30.6102 22.28 30.5302C22.28 30.1702 21.97 29.9802 21.36 29.9802H17.53L17.45 30.3702C17.84 30.5102 17.98 30.6802 17.98 30.9802C17.98 31.2002 17.95 31.4502 17.84 31.8402L14.12 47.3402C14.04 47.6202 14.04 47.7602 14.04 47.8902C14.04 48.3102 14.29 48.4702 14.93 48.4702H23.03C24.08 48.4702 24.42 48.2202 24.67 47.1702L25.31 44.5402H24.87C24.48 45.2302 24.29 45.3402 23.43 45.3402H18.8L22.24 30.9702H22.22ZM36.99 43.8402L37.1 47.4502C37.13 48.2502 37.29 48.4802 37.9 48.4802H41.7L41.76 48.1202C41.29 47.9302 41.23 47.8102 41.21 47.0902L40.63 30.9802C40.6 30.1202 40.46 29.9802 39.69 29.9802H34.73L34.65 30.3702C35.04 30.5402 35.15 30.6502 35.15 30.9002C35.15 31.0402 35.07 31.2302 34.93 31.4802L25.64 47.0402C25.42 47.4302 25.31 47.6802 25.31 47.8702C25.31 48.2602 25.62 48.4802 26.17 48.4802H29.89L29.97 48.1202C29.5 48.0402 29.3 47.9002 29.3 47.5902C29.3 47.4202 29.38 47.2302 29.52 46.9802L31.27 43.8502H37.01L36.99 43.8402ZM36.94 41.0402H32.81L36.75 33.9102L36.94 41.0402ZM60.37 48.4702L68.39 31.4702C68.61 30.9702 68.7 30.7202 68.7 30.5302C68.7 30.1702 68.39 29.9802 67.81 29.9802H64.2L64.12 30.3702C64.37 30.5102 64.48 30.6802 64.48 30.9202C64.48 31.0302 64.45 31.2302 64.37 31.3902L59.54 42.5402V29.9802H55.44L49.53 42.6502L49.64 31.1402C49.64 30.2202 49.42 29.9802 48.5 29.9802H45.03L44.97 30.3702C45.5 30.5902 45.58 30.7602 45.58 31.4002V47.1002C45.58 48.1802 45.83 48.4902 46.69 48.4902H50.27L55.59 37.0102V47.2702C55.59 48.2402 55.84 48.4902 56.75 48.4902H60.36L60.37 48.4702ZM80.24 38.1602C81.07 37.8302 81.54 37.4702 82.04 36.8002C82.68 35.8602 83.12 34.2802 83.12 32.8902C83.12 30.9202 81.9 29.9802 79.32 29.9802H70.81L70.73 30.3702C71.09 30.4802 71.26 30.6802 71.26 31.0102C71.26 31.2002 71.2 31.4502 71.12 31.8402L67.4 47.3402C67.34 47.5302 67.29 47.7802 67.29 47.8902C67.29 48.3102 67.57 48.4702 68.21 48.4702H76.64C79 48.4702 80.19 47.8302 81.05 46.0802C81.66 44.8902 82.27 42.1402 82.27 40.7302C82.27 39.3202 81.72 38.6502 80.25 38.1502L80.24 38.1602ZM74.11 36.7702L75.05 32.7502H77.19C78.13 32.7502 78.6 32.8102 78.83 32.8902C79.22 33.0602 79.41 33.4202 79.41 33.9202C79.41 34.7002 79.02 35.8302 78.58 36.2202C78.16 36.6102 77.66 36.7502 76.44 36.7702H74.11ZM72.06 45.3402L73.39 39.7102H76.02C77.63 39.7102 78.16 40.0702 78.16 41.1002C78.16 42.0402 77.72 43.6802 77.22 44.4602C76.83 45.1002 76.19 45.3502 74.92 45.3502H72.06V45.3402ZM91.77 30.9702C91.8 30.7802 91.83 30.6102 91.83 30.5302C91.83 30.1402 91.55 29.9802 90.94 29.9802H87.08L87 30.3702C87.36 30.4802 87.53 30.6802 87.53 31.0102C87.53 31.2002 87.5 31.4302 87.39 31.8402L84.48 44.0202C84.31 44.6902 84.34 45.1602 84.34 45.5502C84.34 46.3002 84.59 46.9602 85.09 47.5502C85.89 48.4402 87.61 48.7702 90.55 48.7702C93.05 48.7702 94.93 48.4402 96.04 47.6302C97.09 46.8802 97.56 46.0202 98.15 43.6602L101.15 31.1202C101.18 30.9502 101.23 30.6802 101.23 30.5702C101.23 30.1502 100.98 29.9902 100.34 29.9902H96.54L96.43 30.3802C96.79 30.4902 96.96 30.6902 96.96 31.0202C96.96 31.2102 96.93 31.4602 96.82 31.8502L94.13 43.1102C93.66 45.1102 93.02 45.5802 91.02 45.5802C89.33 45.5802 88.63 45.2502 88.63 44.3902C88.63 44.2002 88.69 43.8402 88.77 43.5002L91.77 30.9902V30.9702ZM101.67 44.1502H101.23L100.48 47.2802C100.45 47.4502 100.42 47.6402 100.42 47.7502C100.42 48.2502 100.7 48.4702 101.36 48.4702H108.21C110.82 48.4702 112.45 47.2802 113.29 44.7502C113.71 43.5602 114.07 41.6402 114.07 40.7302C114.07 39.2602 113.4 38.3702 111.91 37.8502L109.19 36.8802C107.97 36.4602 107.58 36.1002 107.58 35.4102C107.58 34.8602 107.86 33.9102 108.16 33.4702C108.55 32.9402 109.07 32.7502 110.3 32.7502H113.41C114.41 32.7502 114.69 32.5602 114.91 31.5902L115.3 29.9802H109.42C107.2 29.9802 105.95 30.4202 105.07 31.5102C104.21 32.5602 103.27 35.4802 103.27 37.0802C103.27 37.7202 103.41 38.2702 103.71 38.7402C104.1 39.2902 104.49 39.5702 105.6 39.9602L108.15 40.8502C109.31 41.2702 109.59 41.5702 109.59 42.4002C109.59 42.9302 109.42 43.6802 109.17 44.1802C108.73 45.0102 108.03 45.3402 106.62 45.3402H103.54C102.04 45.3402 101.71 45.0902 101.68 44.1502H101.67ZM125.42 32.7502H128.72C129.77 32.7502 130.11 32.5302 130.33 31.6702L130.91 29.2002H130.55C130.19 29.8402 129.83 29.9802 128.66 29.9802H118.73C117.57 29.9802 117.37 29.9802 117.15 30.9502L116.51 33.5302H116.9C117.23 32.9202 117.51 32.7502 118.26 32.7502H121.26L117.76 47.3402C117.7 47.5902 117.68 47.7602 117.68 47.8702C117.68 48.3102 117.93 48.4802 118.57 48.4802H122.4L122.51 48.1202C122.15 48.0102 121.98 47.7902 121.98 47.4502C121.98 47.2802 122.04 46.9802 122.12 46.6202L125.42 32.7502ZM133.7 45.3402L134.73 41.0702C134.98 40.0402 135.34 39.7702 136.42 39.7702H140.55C141.3 39.7702 141.58 39.5502 141.74 38.9102L142.24 36.8002H135.75L136.72 32.7502H142.27C143.35 32.7502 143.71 32.5302 143.91 31.7802L144.35 29.9802H132.45L132.37 30.3702C132.73 30.4802 132.9 30.6802 132.9 31.0102C132.9 31.2002 132.84 31.4502 132.76 31.8402L129.04 47.3402C128.98 47.5302 128.93 47.7802 128.93 47.8902C128.93 48.3102 129.21 48.4702 129.85 48.4702H139.11C140.33 48.4702 140.58 48.2802 140.86 47.0802L141.5 44.4702H141.14C140.67 45.2202 140.39 45.3302 138.92 45.3302H133.71L133.7 45.3402ZM158.22 45.3402H157.53C156.89 45.3402 156.7 45.1702 156.48 44.5902L154.87 40.1002C156.7 39.8502 157.67 39.3502 158.53 38.1602C159.47 36.8802 160 35.1402 160 33.4202C160 32.1402 159.67 31.2802 158.97 30.7302C158.3 30.1802 157.53 29.9802 155.89 29.9802H147.13L147.05 30.3702C147.41 30.4802 147.58 30.6802 147.58 31.0102C147.58 31.2002 147.52 31.4502 147.44 31.8402L143.72 47.3402C143.66 47.5602 143.64 47.7602 143.64 47.8902C143.64 48.3102 143.89 48.4702 144.53 48.4702H148.36L148.47 48.1102C148.11 48.0002 147.94 47.7802 147.94 47.4402C147.94 47.2702 148 46.9702 148.08 46.6102L149.63 40.0902H151.07L153.12 47.3602C153.37 48.2202 153.68 48.4702 154.56 48.4702H156.33C157.25 48.4702 157.52 48.2502 157.74 47.3302L158.21 45.3302L158.22 45.3402ZM150.28 37.3802L151.39 32.7502H153.75C155.28 32.7502 155.78 33.1102 155.78 34.1602C155.78 35.3802 155.28 36.5202 154.53 36.9902C154.09 37.2702 153.5 37.3802 152.51 37.3802H150.29H150.28Z" fill="white"/>
</g>
<defs>
<linearGradient id="paint0_linear_8312_80" x1="79.89" y1="31.68" x2="79.89" y2="55.24" gradientUnits="userSpaceOnUse">
<stop stop-color="#034C6B"/>
<stop offset="1" stop-color="#024C67"/>
</linearGradient>
<linearGradient id="paint1_linear_8312_80" x1="79.89" y1="28.4802" x2="79.89" y2="50.0902" gradientUnits="userSpaceOnUse">
<stop stop-color="#164C95"/>
<stop offset="0.18" stop-color="#2458A5"/>
<stop offset="0.28" stop-color="#3768B0"/>
<stop offset="0.46" stop-color="#074892"/>
<stop offset="0.49" stop-color="#51AADF"/>
<stop offset="0.65" stop-color="#8DBDE7"/>
<stop offset="0.75" stop-color="#33718A"/>
<stop offset="0.97" stop-color="#1B3F7A"/>
<stop offset="1" stop-color="#016A89"/>
</linearGradient>
<clipPath id="clip0_8312_80">
<rect width="160" height="80" fill="white"/>
</clipPath>
</defs>
</svg>
