<svg width="100" height="100" viewBox="0 0 100 100" fill="none" xmlns="http://www.w3.org/2000/svg">
<g clip-path="url(#clip0_8942_168)">
<path d="M92.79 25.9202C90.05 24.1102 86.76 23.1602 83.29 23.1602H10.08C7.75998 23.1602 5.70998 24.4602 4.71998 26.5602C3.72998 28.6602 4.02998 31.0702 5.50998 32.8602L7.33998 35.0802L-0.0200195 76.8502H28.11L30.47 63.4202H46.17C46.29 64.0602 46.44 64.6902 46.62 65.3102C46.66 65.4302 46.7 65.5502 46.73 65.6602L46.75 65.7202C47.57 68.1902 48.97 70.4402 50.8 72.2202C51.02 72.4302 51.24 72.6302 51.47 72.8302C51.85 73.1602 52.25 73.4702 52.7 73.7902C52.86 73.9002 53.01 74.0102 53.18 74.1202C53.48 74.3102 53.79 74.5002 54.12 74.6902C55.84 75.6502 57.71 76.3002 59.71 76.6202C60.57 76.7602 61.48 76.8302 62.39 76.8502C62.43 76.8502 62.48 76.8502 75.62 76.8502C78.72 76.8502 81.9 76.0802 84.81 74.6302C85.46 74.3102 86.12 73.9302 86.78 73.5202C87.27 73.2102 87.74 72.8902 88.19 72.5602C89.11 71.8802 89.98 71.1302 90.78 70.3402L90.84 70.2802C94.06 67.0602 96.24 62.9402 96.99 58.6802L98.6 49.5002L99.73 43.0702C100.95 36.1302 98.29 29.5602 92.78 25.9202H92.79ZM97.88 42.7402L95.14 58.3502C94.46 62.2302 92.46 65.9902 89.52 68.9402L89.46 68.9902C88.73 69.7202 87.92 70.4102 87.08 71.0302C86.67 71.3302 86.23 71.6302 85.78 71.9102C85.17 72.2902 84.57 72.6302 83.98 72.9302C81.32 74.2502 78.44 74.9502 75.63 74.9502C62.5 74.9502 62.44 74.9502 62.42 74.9502C61.59 74.9502 60.78 74.8702 60.01 74.7502C58.24 74.4702 56.57 73.8902 55.05 73.0402C54.76 72.8802 54.48 72.7102 54.22 72.5402C54.08 72.4502 53.94 72.3502 53.8 72.2502C53.4 71.9702 53.05 71.6902 52.72 71.4102C52.52 71.2402 52.32 71.0602 52.13 70.8702C50.52 69.3002 49.28 67.3202 48.55 65.1302L48.53 65.0602C48.5 64.9602 48.46 64.8602 48.43 64.7602C48.12 63.7202 47.91 62.6402 47.83 61.5302H28.89L26.53 74.9602H2.21998L9.34998 34.5402L6.96998 31.6502C5.95998 30.4302 5.75998 28.7802 6.42998 27.3502C7.09998 25.9202 8.50998 25.0302 10.09 25.0302H83.29C86.39 25.0302 89.32 25.8802 91.75 27.4802C96.62 30.6902 98.97 36.5402 97.88 42.7302V42.7402Z" fill="white"/>
<path d="M90.0201 30.1102C88.1601 28.8802 85.8701 28.1802 83.2901 28.1802H50.8101L55.1001 33.4002C55.1401 33.4502 55.1801 33.5102 55.2101 33.5602C55.2401 33.6302 55.2701 33.7002 55.2801 33.7802C55.3101 33.9002 55.3101 34.0102 55.2901 34.1302L51.1301 57.8002C50.7501 59.9702 50.8801 62.0202 51.4301 63.8502C51.4601 63.9502 51.4901 64.0402 51.5301 64.1402C52.1001 65.8702 53.0501 67.3902 54.3101 68.6102C54.4601 68.7502 54.6101 68.8902 54.7601 69.0302C55.0301 69.2602 55.3101 69.4802 55.6001 69.6802C55.7101 69.7602 55.8201 69.8302 55.9301 69.9002C56.1401 70.0402 56.3501 70.1702 56.5701 70.2902C57.7401 70.9502 59.0601 71.4102 60.4901 71.6402C61.1201 71.7402 61.7701 71.7902 62.4401 71.8002C62.5001 71.8002 75.6101 71.8002 75.6101 71.8002C78.0201 71.8002 80.3901 71.1902 82.5601 70.1102C83.0801 69.8502 83.5901 69.5602 84.0901 69.2402C84.4701 69.0002 84.8401 68.7502 85.1901 68.4902C85.9201 67.9502 86.6101 67.3602 87.2501 66.7202C87.2501 66.7202 87.2601 66.7102 87.2701 66.7002C89.6901 64.2802 91.4301 61.1702 92.0201 57.7902L92.6001 54.5002H79.3601L66.7801 66.3502L69.6501 49.9902H59.4101L78.9501 33.6502L77.0601 44.5402H94.3501L94.7601 42.1902C95.6601 37.0402 93.6901 32.5402 90.0001 30.1102H90.0201Z" fill="white"/>
<path d="M10.08 28.1802C9.69996 28.1802 9.39996 28.4002 9.26996 28.7002C9.12996 28.9902 9.14996 29.3602 9.38996 29.6602L10.62 31.1502L10.72 31.2802L12.43 33.3502C12.59 33.5402 12.66 33.7902 12.62 34.0302C12.62 34.0502 12.62 34.0602 12.62 34.0802L5.95996 71.8202H23.88L26.24 58.3902H46.17L48.09 47.4802H28.16L29.65 39.0902H49.56L50.52 33.7102L45.98 28.1802H10.08Z" fill="white"/>
</g>
<defs>
<clipPath id="clip0_8942_168">
<rect width="100" height="100" fill="white"/>
</clipPath>
</defs>
</svg>
