<svg width="100" height="100" viewBox="0 0 100 100" fill="none" xmlns="http://www.w3.org/2000/svg">
<g clip-path="url(#clip0_9302_111)">
<path d="M92.12 46.9401L90.44 46.0001L91.76 44.8901C94.44 42.6201 95.93 39.6001 95.96 36.3801C95.98 33.4101 94.74 30.5901 92.47 28.4501C90.03 26.1501 86.72 24.8901 83.14 24.8901C75.85 24.8901 69.88 30.1801 69.84 36.6801C69.82 39.8401 71.22 42.7901 73.79 44.9801L74.44 45.4601C74.44 45.4601 64.52 49.3501 64.52 59.8601H71.74C71.74 55.7901 74.64 50.8501 82.28 50.8501C85.02 50.8501 88.06 51.8801 89.97 53.6801C91.8 55.4001 92.8 57.6501 92.78 60.0001C92.75 64.8801 88.29 68.8601 82.84 68.8601C82.19 68.8601 81.54 68.8001 80.91 68.6901C79.63 68.4601 78.34 69.0201 77.61 70.0401C76.24 71.9701 77.48 74.5601 79.92 74.9201C80.77 75.0401 81.63 75.1101 82.48 75.1101C92.09 75.1101 99.95 68.2001 100 59.7001C100.04 54.4901 97.09 49.7201 92.12 46.9301V46.9401ZM83.01 42.7501C81.15 42.7501 79.4 42.0701 78.08 40.8201C76.8 39.6101 76.1 38.0301 76.11 36.3701C76.13 33.0201 79.12 30.2901 82.77 30.2901C84.63 30.2901 86.38 30.9701 87.7 32.2201C88.98 33.4301 89.68 35.0101 89.67 36.6701C89.65 40.0201 86.66 42.7501 83.01 42.7501Z" fill="white"/>
<path d="M54.2099 75.1101C47.7599 75.1101 40.9799 71.4801 38.2799 65.3201C37.5199 63.5801 37.1899 61.7601 37.1999 60.0101C37.2399 54.7101 40.3199 49.8401 45.4499 46.9801L46.8999 46.1701L45.4999 44.9801C42.9299 42.7901 41.5299 39.8401 41.5499 36.6801C41.5899 30.1801 47.5599 24.8901 54.8499 24.8901C58.4299 24.8901 61.7399 26.1601 64.1799 28.4501C66.4499 30.5901 67.6899 33.4101 67.6699 36.3801C67.6499 39.6001 66.1599 42.6201 63.4699 44.8901L62.1499 46.0001L63.8299 46.9401C68.7999 49.7301 71.7499 54.5001 71.7099 59.7101C71.6499 68.2101 63.7999 75.1201 54.1899 75.1201L54.2099 75.1101ZM54.3699 50.8501C50.7699 50.8501 47.4499 52.5901 45.6999 55.4001C44.9399 56.6301 43.4799 62.2101 47.4099 66.1901C49.3799 67.9301 51.8999 68.8701 54.5699 68.8701C60.0199 68.8701 64.4699 64.8901 64.5099 60.0101C64.5299 57.6501 63.5299 55.4101 61.6999 53.6901C59.7899 51.8901 57.1199 50.8601 54.3699 50.8601V50.8501ZM54.5099 30.3001C50.8599 30.3001 47.8699 33.0301 47.8499 36.3801C47.8399 38.0401 48.5399 39.6201 49.8199 40.8301C51.1399 42.0701 52.8899 42.7601 54.7499 42.7601C58.3999 42.7601 61.3899 40.0301 61.4099 36.6801C61.4199 35.0201 60.7199 33.4401 59.4399 32.2301C58.1199 30.9901 56.3699 30.3001 54.5099 30.3001Z" fill="white"/>
<path d="M6.49 73.7199C10.0743 73.7199 12.98 71.0649 12.98 67.7899C12.98 64.5148 10.0743 61.8599 6.49 61.8599C2.90567 61.8599 0 64.5148 0 67.7899C0 71.0649 2.90567 73.7199 6.49 73.7199Z" fill="white"/>
<path d="M31.3401 74.3401C29.4401 74.3401 27.7601 73.2501 27.0601 71.5701L17.2301 47.7601H21.0401C25.3401 47.5401 28.7601 44.2801 28.7601 40.3001C28.7601 36.3201 25.1001 32.8501 20.6001 32.8501H10.3101V58.2701C9.14009 57.7001 7.83009 57.4001 6.49009 57.4001C5.15009 57.4001 3.78009 57.7101 2.59009 58.3101V25.8701H20.6001C29.3401 25.8701 36.4601 32.3501 36.4601 40.3101C36.4601 45.8501 33.0501 50.8201 27.5701 53.2701L27.2001 53.4301L35.8701 74.3501H31.3401V74.3401Z" fill="white"/>
</g>
<defs>
<clipPath id="clip0_9302_111">
<rect width="100" height="100" fill="white"/>
</clipPath>
</defs>
</svg>
