<svg width="96" height="100" viewBox="0 0 96 100" fill="none" xmlns="http://www.w3.org/2000/svg">
<path fill-rule="evenodd" clip-rule="evenodd" d="M4.02715 0.000407168H49.6739C52.2556 -0.013653 54.8264 0.336493 57.3102 1.0405L57.3502 1.05248C74.7106 6.10148 87.1399 17.0258 95.1017 33.2215C95.512 34.0552 96.4049 35.1496 95.484 35.9512C94.5633 36.7527 93.6711 35.6567 92.8542 35.1848C87.7912 32.2599 82.4645 30.095 76.5876 29.6255C61.7703 28.4406 46.9259 29.3749 32.0969 29.0918C30.3183 29.0583 29.7022 29.9303 29.5895 31.6639C29.3974 34.6168 31.1392 34.8641 33.3792 34.8641C48.5193 34.8262 63.6595 34.82 78.7997 34.8456C80.69 34.8075 82.5796 34.9497 84.4429 35.2704C91.1963 36.4926 96.0756 42.4194 95.9777 49.2821C95.9878 64.8023 95.9878 80.3246 95.9777 95.8488C95.9777 99.9641 95.9448 99.9905 91.7694 99.9937C78.2226 100.002 64.6756 100.002 51.1285 99.9937C30.5559 99.9831 8.86254 85.3316 1.09668 66.1974C0.771868 65.3974 -0.0464653 64.4318 0.696617 63.7069C1.63606 62.791 2.52229 63.8934 3.30484 64.3637C9.13606 67.8719 15.3683 70.1672 22.2093 70.2256C36.0497 70.3439 49.8979 70.3055 63.7431 70.3367C65.56 70.3415 66.8121 69.8911 66.8433 67.6695C66.8768 65.2854 65.5249 64.8895 63.5952 64.8141C51.0486 64.322 38.4977 64.6662 25.9502 64.6151C21.6724 64.5975 17.3988 65.015 13.1162 64.5518C6.07602 63.7934 0.106273 57.8388 0.051952 50.7627C-0.0681938 35.1558 0.051952 19.5466 0.0942906 3.93822C0.0968469 1.76633 1.85542 0.00567952 4.02715 0.000407168Z" fill="white"/>
</svg>
