<svg width="100" height="100" viewBox="0 0 100 100" fill="none" xmlns="http://www.w3.org/2000/svg">
<path d="M98.8751 1.39755C80.7649 1.39755 62.7671 1.39755 44.6569 1.39755C30.1462 1.39755 15.6355 1.39755 1.01237 1.39755C0.674915 1.39755 0.224972 1.06556 0 1.61887C0 15.6729 0 29.6163 0 43.6704C0 47.3222 0 46.1049 0 47.3222C1.5748 44.9983 4.49944 42.7851 6.63667 41.1251C7.31158 40.5718 7.53656 40.1292 7.53656 39.2439C7.53656 29.5056 7.53656 19.8781 7.53656 10.1398C7.53656 9.25454 7.64904 8.92255 8.66142 8.92255C36.2205 8.92255 63.7795 8.92255 91.3386 8.92255C92.3509 8.92255 92.4634 9.14387 92.4634 10.0292C92.4634 19.9887 92.4634 30.059 92.4634 40.0185C92.4634 42.4531 92.0135 44.9983 90.8886 47.2115C86.3892 56.6178 74.3532 59.495 65.8043 53.1873C65.1293 52.634 64.7919 52.7446 64.3419 53.4086C63.3296 55.0685 62.5422 56.8391 62.2047 58.7204C62.0922 59.3843 62.2047 59.827 62.8796 60.159C76.7154 68.9012 95.3881 61.5976 99.2126 45.6623C99.4376 44.8876 99.55 44.5556 99.775 43.5597C99.8875 43.2277 99.8875 42.7851 99.8875 42.4531V42.0104C99.8875 28.5097 99.8875 15.009 99.8875 1.39755C99.6625 1.06556 99.2126 1.39755 98.8751 1.39755Z" fill="white"/>
<path d="M48.0311 40.1285C48.0311 52.6333 38.6948 62.7036 26.2088 63.8102C20.697 64.3635 15.7476 63.1462 11.1357 60.269C10.3483 59.937 10.1233 59.3837 10.3483 58.6091C10.6858 56.7278 11.3607 55.0679 12.4855 53.408C12.9355 52.744 13.2729 52.6333 13.9479 53.1866C21.7094 58.9411 32.508 57.1705 37.9074 49.0922C43.4192 40.9032 40.1571 29.6157 31.0457 25.4105C30.2583 25.0785 29.8084 24.9679 29.2459 25.8532C28.0086 27.6238 26.2088 28.3984 23.9591 28.1771C21.5969 27.9558 19.9096 26.7385 19.0097 24.5252C18.7848 23.9719 18.5598 23.6399 17.8849 23.308C15.1852 22.0907 13.9479 19.1028 14.8477 16.4469C15.7476 13.6804 18.5598 12.0204 21.4844 12.4631C21.9344 12.5738 22.3843 12.4631 22.7218 12.2418C24.7465 10.9138 26.8837 10.8032 29.1335 11.9098C31.2707 13.0164 32.1706 14.8977 32.0581 17.2216C32.0581 17.8855 32.3955 17.9962 32.8455 18.2175C40.832 21.5374 45.7814 27.4024 47.5811 35.8127C48.0311 37.2513 48.1436 38.8006 48.0311 40.1285Z" fill="white"/>
<path d="M75.9277 37.3628C80.4272 37.3628 84.7016 38.5801 88.6386 40.904C89.5385 41.4573 89.876 41.8999 89.651 42.8959C89.2011 44.5558 88.6386 46.1051 87.7387 47.6543C87.2888 48.5396 86.9513 48.761 85.939 47.9863C80.0897 43.6705 72.3282 43.5599 66.4789 47.765C61.3045 51.5275 58.9423 56.7286 59.7297 63.0363C60.5171 68.9014 63.7792 73.2172 69.291 75.7625C69.966 76.0944 70.4159 76.0944 70.8658 75.3198C72.2157 73.4386 74.1279 72.6639 76.4901 72.9959C78.7399 73.3279 80.3147 74.5452 81.1021 76.6477C81.327 77.201 81.552 77.533 82.1144 77.7544C84.8141 79.0823 86.0514 81.9595 85.1516 84.7261C84.2517 87.4926 81.552 89.1525 78.5149 88.5992C77.9525 88.4886 77.7275 88.5992 77.2775 88.9312C75.3653 90.2591 73.2281 90.3698 71.0908 89.2632C69.0661 88.2672 67.9412 86.4966 67.9412 84.1727C67.9412 83.2875 67.6038 83.0661 66.8164 82.7341C57.8175 78.9716 51.7432 70.1187 51.9682 60.1591C52.1932 51.0849 58.0424 42.5639 66.9288 38.9121C69.741 37.9161 72.7781 37.3628 75.9277 37.3628Z" fill="white"/>
<path d="M53.0931 47.4331C51.5183 42.232 51.5183 37.2522 53.3181 32.3831C55.7928 25.7433 60.4047 21.0955 66.9289 18.4397C67.4913 18.2183 67.9412 17.997 67.8288 17.2224C67.7163 14.8985 68.8411 13.2386 70.8659 12.1319C72.8906 11.0253 75.0278 11.136 77.0526 12.3533C77.5025 12.6852 77.9525 12.7959 78.5149 12.6852C81.3271 12.1319 84.1392 13.9025 85.0391 16.5584C85.939 19.2143 84.7016 22.0915 82.1145 23.4194C81.4395 23.7514 81.1021 24.0834 80.8771 24.7474C79.9772 26.9606 78.2899 28.0672 75.9277 28.2886C73.7905 28.5099 71.9907 27.7353 70.7534 25.9647C70.191 25.19 69.741 25.19 68.9536 25.522C63.2168 28.3992 59.9547 33.047 59.3923 39.3547C59.3923 40.0187 59.1673 40.4614 58.6049 40.904C56.4677 42.7853 54.6679 44.8878 53.0931 47.4331Z" fill="white"/>
<path d="M46.9066 53.8511C48.0314 57.1709 48.3689 60.6014 47.9189 63.9213C46.5691 72.9956 41.5072 79.3033 32.9583 82.9551C32.3959 83.1765 32.1709 83.5084 32.1709 84.1724C32.1709 86.4963 31.1585 88.2669 29.0213 89.3735C26.8841 90.4801 24.8593 90.3695 22.9471 89.0415C22.4971 88.7095 22.0472 88.7095 21.5972 88.7095C18.6726 89.1522 15.9729 87.4923 15.073 84.8364C14.1731 82.0698 15.4105 79.1926 18.1102 77.8647C18.6726 77.6434 19.01 77.3114 19.235 76.6474C20.1349 74.4342 21.8222 73.2169 24.1844 72.9956C26.3216 72.7742 28.2339 73.6595 29.4712 75.4301C29.9212 76.2048 30.3711 76.2048 31.046 75.8728C36.7828 72.9956 40.0449 68.4584 40.6073 62.1507C40.7198 61.3761 40.8323 60.9334 41.5072 60.3801C43.532 58.4989 45.3318 56.3963 46.9066 53.8511Z" fill="white"/>
<path d="M100 53.9614C98.4252 56.396 95.5005 58.4986 93.2508 60.2691C92.6884 60.8225 92.4634 61.2651 92.4634 62.0397C92.4634 71.778 92.4634 81.5162 92.4634 91.2545C92.4634 91.4758 92.4634 91.6971 92.4634 91.8078H7.53656C7.53656 91.6971 7.53656 91.4758 7.53656 91.2545C7.53656 81.0736 7.53656 70.8927 7.53656 60.6011C7.53656 56.1747 9.22385 52.3015 12.4859 49.203C18.3352 43.5592 27.6715 43.2272 34.3082 47.9857C34.8706 48.4283 35.2081 48.4283 35.658 47.7644C36.6704 46.1044 37.4578 44.3338 37.7953 42.4526C37.9078 41.678 37.7953 41.2353 37.1204 40.9033C23.1721 32.3824 4.61192 39.686 0.674916 55.4C0.449944 56.1747 0.337458 56.728 0.224972 57.5026C0.112486 57.9452 0 58.3879 0 58.8305V99.4434H100V58.3879C100 53.9614 100 58.3879 100 53.9614Z" fill="white"/>
<path d="M7.53656 91.9194H92.4634H100V99.5551H0V91.9194H7.53656Z" fill="white"/>
</svg>
