<svg width="48" height="48" viewBox="0 0 48 48" fill="none" xmlns="http://www.w3.org/2000/svg">
<g clip-path="url(#clip0_807_1021)">
<path d="M47.5921 26.0976C47.5441 26.4336 47.2465 28.4208 46.9345 29.544C44.2705 39.192 38.0737 45.264 28.2481 47.2032C16.3969 49.5408 4.92007 42.4608 1.34887 30.9312C-2.74073 17.712 5.44807 3.78244 19.0225 0.878437C31.9009 -1.87676 44.5345 6.40324 47.1649 19.3344C47.3377 20.184 47.5921 21.7488 47.5921 21.8976C47.6785 21.984 47.6401 25.7616 47.5921 26.0976ZM17.5633 45.6576C21.8785 46.8864 26.0881 46.8912 30.3601 45.6576C29.8465 44.5584 29.3617 43.536 28.8817 42.5088C28.4689 41.616 28.6513 40.9392 29.4961 40.44C31.4353 39.3024 33.3889 38.1744 35.3425 37.0608C36.2257 36.5568 36.8977 36.7296 37.4833 37.5648C38.1313 38.4912 38.7793 39.4176 39.4225 40.344C42.0193 38.472 45.7825 31.9536 45.8065 29.3184C44.6353 29.2128 43.4593 29.112 42.2881 29.0064C41.4673 28.9296 40.9249 28.4352 40.9153 27.6192C40.8865 25.2576 40.8865 22.896 40.9153 20.5296C40.9249 19.7088 41.4577 19.2048 42.2689 19.1232C42.7921 19.0704 43.3153 19.0368 43.8385 18.9888C44.5201 18.9264 45.2065 18.8544 45.8881 18.7872C45.3937 15.3504 41.9953 9.47524 39.4849 7.69924C38.8225 8.64964 38.1601 9.59524 37.4977 10.5456C36.8881 11.4144 36.2353 11.5728 35.3041 11.0448C33.3889 9.95044 31.4737 8.84644 29.5681 7.73764C28.6465 7.20004 28.4545 6.55204 28.9057 5.58724C29.4001 4.52644 29.8993 3.46564 30.4177 2.35684C26.0833 1.10884 21.8257 1.09924 17.5201 2.36644C18.0481 3.49444 18.5425 4.54084 19.0321 5.59204C19.4689 6.53284 19.2961 7.19524 18.4225 7.70884C16.4833 8.84644 14.5345 9.97444 12.5761 11.088C11.7217 11.5728 11.0353 11.4 10.4785 10.608C9.80167 9.64324 9.12967 8.67364 8.41927 7.65124C5.20327 10.7712 3.06727 14.4336 2.00647 18.8016C3.26887 18.9168 4.44487 19.0176 5.61607 19.1232C6.50887 19.2048 7.02727 19.7136 7.03207 20.6016C7.05127 22.896 7.05127 25.1952 7.03207 27.4944C7.02727 28.4256 6.52327 28.9248 5.58247 29.0112C4.41607 29.1216 3.25447 29.2224 2.03047 29.3328C3.12967 33.672 5.25607 37.3056 8.47207 40.4064C9.15367 39.4272 9.80167 38.5008 10.4497 37.5744C11.0401 36.7344 11.7121 36.552 12.5857 37.0512C14.5441 38.1648 16.4929 39.288 18.4321 40.4304C19.2769 40.9248 19.4737 41.6064 19.0609 42.4944C18.5857 43.5216 18.0961 44.5488 17.5729 45.6576H17.5633Z" fill="white"/>
<path d="M47.5293 21.6914C47.5293 21.6914 47.9181 23.9282 47.5293 26.0258V21.6914Z" fill="white"/>
<path d="M47.4766 26.3953C47.4766 26.3953 47.6494 25.8337 47.6878 24.3745C47.7262 22.9153 47.4766 26.3953 47.4766 26.3953Z" fill="white"/>
<path d="M23.9949 8.51051C15.4461 8.50091 8.4909 15.4225 8.4717 23.9569C8.4573 32.5105 15.3933 39.4993 23.8989 39.4945C32.5101 39.4945 39.4461 32.5873 39.4509 24.0193C39.4557 15.4753 32.5293 8.52491 23.9901 8.51531L23.9949 8.51051ZM15.1677 23.5249V23.4193C15.1773 20.8417 15.1677 18.2689 15.1725 15.6913C15.1725 15.6385 15.1917 15.5857 15.2157 15.4417C16.6845 16.8385 18.1053 18.1969 19.5645 19.5889C21.0333 18.1825 22.4733 16.8001 23.9421 15.3937C25.4061 16.8001 26.8413 18.1729 28.3197 19.5889C29.7645 18.2113 31.1901 16.8529 32.6829 15.4321C32.7021 15.6049 32.7165 15.6769 32.7165 15.7441C32.7165 18.3265 32.7165 20.9089 32.7213 23.4865C32.7213 23.5105 32.7213 23.5297 32.7213 23.5489V23.8705H32.3805C32.3805 23.8705 32.3517 23.8705 32.3373 23.8705C26.7405 23.8657 21.1437 23.8657 15.5421 23.8705C15.5181 23.8705 15.4941 23.8705 15.4749 23.8705H15.1677V23.5249ZM32.7213 32.4337V32.8849H32.4573C32.4189 32.8849 32.3757 32.8897 32.3229 32.8897C31.3389 32.8705 30.3645 32.8897 29.3757 32.8897C29.3421 32.8897 29.3181 32.8897 29.2893 32.8897H28.9725V32.5441C28.9725 32.5441 28.9725 32.5009 28.9725 32.4769C28.9869 31.1857 28.9773 29.8945 28.9773 28.6033V28.0465C28.9773 28.0465 28.9341 28.0753 28.9101 28.0897H28.9293L25.0077 30.7297H23.0205L18.9309 28.0561C18.9213 28.2673 18.9069 28.4065 18.9069 28.5505C18.9069 29.8465 18.8973 31.1473 18.9117 32.4433V32.8945H18.5565C18.5565 32.8945 18.5085 32.8945 18.4797 32.8945C18.3741 32.8945 18.2733 32.8945 18.1677 32.8945C17.3037 32.8897 16.4445 32.8897 15.5757 32.8945C15.5373 32.8945 15.4989 32.8945 15.4653 32.8945H15.1581V32.4433C15.1677 29.9377 15.1677 27.4273 15.1581 24.9217C15.1581 24.9121 15.1581 24.8977 15.1581 24.8881V24.5137H15.4989C15.4989 24.5137 15.5421 24.5137 15.5661 24.5137C16.0269 24.5137 16.4877 24.5137 16.9485 24.5233H18.3837L23.8941 28.1041C23.8941 28.1041 23.9085 28.1041 23.9181 28.1041L29.4717 24.5329H29.9997C29.9997 24.5329 30.0141 24.5329 30.0189 24.5329C30.7725 24.5137 31.5357 24.5137 32.2893 24.5137C32.3181 24.5137 32.3469 24.5137 32.3709 24.5137H32.7069V24.8833C32.7069 24.8833 32.7069 24.9265 32.7069 24.9505C32.6973 27.4513 32.6973 29.9473 32.7069 32.4481L32.7213 32.4337Z" fill="white"/>
</g>
<defs>
<clipPath id="clip0_807_1021">
<rect width="48" height="48" fill="white"/>
</clipPath>
</defs>
</svg>
