<svg width="99" height="100" viewBox="0 0 99 100" fill="none" xmlns="http://www.w3.org/2000/svg">
<path d="M35.3288 69.5221C34.7768 69.5221 34.1635 69.3359 33.7341 68.9014C28.3367 64.1217 25.27 57.2937 25.27 50.0932C25.27 36.3129 36.3715 25.0776 49.9877 25.0776C63.6038 25.0776 74.7053 36.3129 74.7053 50.0932C74.7053 56.7971 72.1293 63.0665 67.4679 67.784C66.4865 68.7772 64.9532 68.7772 63.9718 67.784C62.9905 66.7909 62.9905 65.239 63.9718 64.2459C67.7132 60.4594 69.7986 55.4315 69.7986 50.0932C69.7986 39.0441 60.9051 30.0435 49.9877 30.0435C39.0702 30.0435 30.1767 38.982 30.1767 50.0311C30.1767 55.8039 32.6301 61.3284 36.9848 65.1149C38.0275 66.046 38.0888 67.5978 37.2302 68.591C36.6782 69.2117 36.0035 69.5221 35.3288 69.5221Z" fill="white"/>
<path d="M70.1052 81.0055C69.3691 81.0055 68.5718 80.633 68.1425 80.0123C67.3451 78.895 67.5905 77.3431 68.6945 76.5362C76.9132 70.453 81.82 60.7075 81.82 50.4033C81.82 49.0377 82.924 47.9204 84.2733 47.9204C85.6227 47.9204 86.7267 49.0377 86.7267 50.4033C86.7267 62.2593 81.084 73.5567 71.5772 80.5089C71.1478 80.8192 70.5958 81.0055 70.1052 81.0055Z" fill="white"/>
<path d="M49.9255 87.5853C29.6239 87.5853 13.125 70.8876 13.125 50.3414C13.125 29.7951 29.6239 13.0974 49.9255 13.0974C58.2056 13.0974 65.995 15.8286 72.4964 20.9186C73.5391 21.7877 73.7844 23.3395 72.9257 24.3947C72.0671 25.45 70.5337 25.6983 69.491 24.8293C63.8483 20.4221 57.1015 18.0633 49.9255 18.0633C32.3839 18.0633 18.0317 32.5263 18.0317 50.3414C18.0317 68.0943 32.3226 82.6195 49.9255 82.6195C51.2748 82.6195 52.3788 83.7368 52.3788 85.1024C52.3788 86.468 51.3361 87.5853 49.9255 87.5853Z" fill="white"/>
<path d="M49.3739 99.9998C22.1416 99.9998 0 77.5914 0 49.9688C0 48.6032 1.10401 47.4858 2.45336 47.4858C3.80271 47.4858 4.90673 48.6032 4.90673 49.9688C4.90673 74.7981 24.8403 94.9719 49.3739 94.9719C59.8007 94.9719 69.9209 91.2475 77.8943 84.4815C78.937 83.6125 80.4703 83.7366 81.329 84.7919C82.1877 85.8471 82.065 87.399 81.0223 88.268C72.1902 95.8409 60.9661 99.9998 49.3739 99.9998Z" fill="white"/>
<path d="M96.356 52.4519C95.0067 52.4519 93.9027 51.3346 93.9027 49.969C93.9027 25.1397 73.9691 4.96586 49.4355 4.96586C45.6327 4.96586 41.83 5.46245 38.2113 6.39355C36.9233 6.76599 35.574 5.95903 35.2059 4.59342C34.8379 3.28988 35.6353 1.92427 36.9846 1.55183C40.9714 0.558659 45.1421 0 49.3741 0C76.6065 0 98.7481 22.4084 98.7481 49.969C98.8094 51.3967 97.7054 52.4519 96.356 52.4519Z" fill="white"/>
</svg>
