<svg width="100" height="77" viewBox="0 0 100 77" fill="none" xmlns="http://www.w3.org/2000/svg">
<path d="M54.8461 0.000488281C54.3237 1.56752 53.8013 2.61223 53.279 3.65692C41.7875 27.1624 29.7736 50.1455 18.282 73.6509C17.2373 75.7403 15.6703 76.785 13.5809 76.785C9.40217 76.785 4.70109 76.785 0 76.785C0.522343 75.218 1.04466 74.1733 1.56701 73.6509C13.0586 50.1455 25.0725 27.1624 36.564 3.65692C37.6087 1.56754 39.1758 0.522864 41.2651 0.522864C45.4439 0.000520155 49.6226 0.000488281 54.8461 0.000488281Z" fill="white"/>
<path d="M75.7396 0.522375C69.9938 11.4916 64.7704 21.9384 59.547 32.3853C52.7565 45.9662 45.4437 60.0695 38.6532 73.6504C37.6085 75.7398 36.5638 76.2622 34.4745 76.2622C30.2957 76.2622 25.5946 76.2622 20.8936 76.2622C21.4159 75.2175 21.9382 74.1728 21.9382 73.1281C33.4298 49.6226 45.4437 26.6395 56.9353 3.13409C57.9799 1.04472 59.5469 0 61.6363 0C66.8597 0.522343 71.0385 0.522375 75.7396 0.522375Z" fill="white"/>
<path d="M53.8018 52.7555C55.8911 48.5768 57.9805 44.398 60.0699 40.7416C60.5922 40.2193 61.1146 39.6969 62.1593 39.1746C74.1732 32.9065 86.187 26.6384 98.2009 20.3702C98.7233 20.3702 98.7233 20.3702 99.2456 19.8479C99.2456 25.0713 99.2456 30.8171 99.2456 36.0405C91.9328 39.1746 84.62 41.7863 77.3072 44.9204C76.2625 45.4427 75.2178 46.4874 74.1732 47.5321C75.2178 48.5768 76.2626 49.6215 77.8296 50.1438C84.0977 52.7555 90.3658 54.8449 97.1563 57.4566C98.201 57.979 99.768 59.546 99.768 60.5907C100.29 65.2918 99.768 69.9928 99.768 75.7386C84.0977 68.4258 68.9497 60.5907 53.8018 52.7555Z" fill="white"/>
</svg>
