<svg width="160" height="80" viewBox="0 0 160 80" fill="none" xmlns="http://www.w3.org/2000/svg">
<path d="M24.9021 45.753L24.753 56.6384L0 56.3402V55.7437C2.0876 55.7437 2.68406 53.8052 2.83318 50.5247L3.13141 25.9208C3.13141 22.7894 2.23672 21.7456 0 21.5965V21L11.9292 21.1491V21.7456C9.84157 21.7456 8.2013 22.4911 8.2013 26.219L7.75396 55.7437H9.54334C14.9115 55.8928 23.2619 55.8928 24.3057 45.753H24.9021Z" fill="white"/>
<path d="M38.0243 56.7873L29.6738 56.6382V56.0418C31.6123 55.4453 31.6123 54.5506 31.7614 52.0157L31.9106 38.148C31.9106 36.3586 31.6123 35.6131 29.5247 35.1657V34.5693L36.384 33.2272L36.0858 52.1648C36.0858 54.998 36.2349 55.7435 38.0243 56.1909V56.7873ZM31.165 26.368C31.165 24.8768 32.3579 23.833 33.6999 23.833C35.042 23.833 36.2349 25.0259 36.2349 26.368C36.2349 27.71 35.042 28.9029 33.6999 28.9029C32.2088 28.9029 31.165 27.8591 31.165 26.368Z" fill="white"/>
<path d="M64.1193 33.973V34.5695C62.1808 34.5695 60.6896 34.5695 58.0056 40.8323L51.5936 57.2349H51.1463C42.6468 37.85 42.0503 36.6571 42.0503 36.6571C40.8574 34.4204 39.5154 34.4204 38.6207 34.2713V33.6748L48.9096 33.8239V34.4204C45.6291 34.4204 47.2693 37.85 47.2693 37.85L53.2339 51.5686L57.26 41.2797C57.26 41.2797 59.9441 34.7186 54.5759 34.5695V33.973H64.1193Z" fill="white"/>
<path d="M83.9515 51.5683C83.3551 53.9542 80.5219 57.8312 74.7064 57.8312C68.4436 57.682 64.1193 52.463 64.2684 45.902C64.4175 38.4463 69.0401 33.6746 75.3029 33.8237C81.1183 33.9728 84.9953 37.7007 84.8462 45.6038L69.0401 45.4546C69.1892 52.1648 72.0223 54.998 76.0484 55.4453C79.0307 55.7436 82.6095 53.9542 83.5042 51.5683H83.9515ZM80.671 44.7091C80.671 37.4025 77.5396 34.4202 75.1538 34.4202C72.3206 34.4202 69.0401 38.2971 69.0401 44.56L80.671 44.7091Z" fill="white"/>
<path d="M121.081 43.9636V44.56C118.248 44.56 117.801 45.0074 117.651 56.191C114.52 57.3839 110.345 58.1295 104.977 58.1295C94.2405 57.9804 88.7232 49.7791 88.8723 39.7884C89.0214 29.7977 94.8369 21.7455 105.573 21.8946C111.538 22.0437 114.967 22.7893 118.099 24.8769L117.502 32.9291H116.459C115.862 24.5787 111.389 22.4911 105.573 22.4911C99.9068 22.342 95.5825 26.0698 95.2843 39.7884C95.1351 53.5069 99.4595 57.2348 104.977 57.3839C110.792 57.533 113.178 56.191 113.178 52.0158C113.327 44.4109 112.582 44.2618 109.301 44.2618V43.6654L121.081 43.9636Z" fill="#E21E19"/>
<path d="M141.808 52.9106L140.466 57.8314H127.94L135.545 46.3496C142.554 35.9116 129.879 32.7802 128.537 39.7886L128.089 39.6394C128.537 32.9293 134.501 33.0784 134.501 33.0784C137.931 33.0784 140.466 35.7625 140.466 38.8939C140.466 41.1306 138.975 43.2182 136.291 46.7969C134.651 49.0337 130.774 54.8491 130.774 54.8491H138.229C139.422 54.8491 140.615 54.2527 141.51 52.9106H141.808Z" fill="white"/>
<path d="M156.57 50.8229V53.6561C156.57 57.3839 157.763 57.3839 159.105 57.3839V57.8313H150.606V57.3839C152.097 57.3839 153.141 57.2348 153.141 53.8052V50.8229H143.896V50.3755L155.228 33.3765L156.57 33.5256V49.0335H160V50.8229H156.57ZM153.141 37.5517L146.281 47.6915C145.238 49.1826 145.834 49.1826 146.729 49.1826H152.992V37.5517H153.141Z" fill="white"/>
</svg>
