<svg width="160" height="80" viewBox="0 0 160 80" fill="none" xmlns="http://www.w3.org/2000/svg">
<path d="M88.74 31.2396C87.64 30.6696 86.42 30.3496 85.03 30.3496H72.56V50.7996H77.51V44.2396H84.42C85.92 44.2396 87.24 43.9196 88.41 43.3096C89.59 42.6996 90.55 41.8096 91.26 40.7396C91.97 39.6396 92.33 38.4196 92.33 37.0296C92.33 35.7496 92.01 34.6096 91.33 33.6096C90.72 32.5796 89.83 31.7896 88.73 31.2196L88.74 31.2396ZM86.64 38.5496C86.32 38.9396 85.86 39.2996 85.32 39.5496C84.79 39.7996 84.18 39.9096 83.5 39.9096H77.44V34.7396H83.5C84.18 34.7396 84.78 34.8496 85.32 35.0296C85.85 35.2096 86.32 35.4896 86.64 35.8496C86.96 36.2096 87.14 36.6296 87.14 37.1296C87.14 37.6596 86.96 38.1296 86.64 38.5596V38.5496Z" fill="white"/>
<path d="M99.94 30.3496H94.99V50.7996H113.16V46.4196H99.94V30.3496Z" fill="white"/>
<path d="M125.82 30.3496L115.66 50.7996H120.68L122.5 47.1696H133.69L135.51 50.7996H140.64L130.48 30.3496H125.81H125.82ZM124.32 43.4296L126.67 38.6896C126.85 38.2996 127.06 37.9096 127.24 37.5496C127.42 37.1596 127.6 36.7696 127.74 36.4096C127.85 36.1596 127.95 35.9096 128.06 35.6996C128.13 35.9096 128.24 36.1296 128.35 36.3796C128.49 36.7396 128.67 37.0896 128.85 37.4796C129.03 37.8396 129.21 38.2596 129.42 38.6896L131.81 43.4596H124.33V43.4196L124.32 43.4296Z" fill="white"/>
<path d="M160 30.3496H154.23L147.71 39.0096L141.01 30.3496H134.77L145.18 43.1796V50.8096H150.17V42.9296L160 30.3496Z" fill="white"/>
<path d="M47.78 30.3604H42.6L33.27 50.8104H51.55V46.4304H40.45L47.77 30.3704L47.78 30.3604Z" fill="white"/>
<path d="M22.94 42.4203H34.23L36.06 38.3904H24.8L26.54 34.6003H37.79L39.73 30.3604H23.22L13.88 50.8104H30.38L32.32 46.5704H21.04L22.94 42.4203Z" fill="white"/>
<path d="M14.91 30.3596L7.63 46.5296H4.69V30.3796H0V50.7996H10.73L20.08 30.3496H14.9L14.91 30.3596Z" fill="white"/>
<path d="M64.53 46.4202V34.7402L59.56 38.0102V46.4202H54.07V50.8002H70.04V46.4202H64.53Z" fill="white"/>
<path d="M53.35 33.3204C58.99 35.3504 65.17 35.3504 70.82 33.3204L69.33 29.1904C64.65 30.8704 59.52 30.8704 54.83 29.1904L53.35 33.3204Z" fill="#FF87C8"/>
</svg>
