<svg width="100" height="100" viewBox="0 0 100 100" fill="none" xmlns="http://www.w3.org/2000/svg">
<path d="M99.87 24.6899C100.01 25.1299 99.89 25.5899 99.57 25.9199L96.65 28.7599C96.52 28.8799 96.47 29.0599 96.5 29.2199L97.19 33.2299C97.25 33.5799 97.16 33.9299 96.93 34.1999C96.7 34.4699 96.36 34.6299 96.01 34.6299C95.82 34.6299 95.63 34.5899 95.46 34.4899L91.85 32.5899C91.7 32.5099 91.51 32.5099 91.36 32.5899L87.75 34.4899C87.25 34.7499 86.64 34.6199 86.28 34.1999C86.05 33.9299 85.96 33.5799 86.02 33.2299L86.71 29.2199C86.74 29.0499 86.68 28.8699 86.56 28.7599L83.64 25.9199C83.31 25.5999 83.2 25.1299 83.34 24.6899C83.48 24.2599 83.85 23.9399 84.3 23.8799L88.33 23.2999C88.5 23.2699 88.65 23.1699 88.73 23.0099L90.53 19.3599C90.73 18.9499 91.15 18.6899 91.6 18.6899C92.05 18.6899 92.47 18.9499 92.67 19.3599L94.47 23.0099C94.55 23.1699 94.7 23.2699 94.87 23.2999L98.9 23.8799C99.35 23.9399 99.72 24.2599 99.86 24.6899H99.87Z" fill="white"/>
<path d="M42.74 60.1102L50.7 81.3102H64.12L53.75 53.6802C49.91 55.7302 46.24 57.8702 42.74 60.1102Z" fill="white"/>
<path d="M77.8701 29.4799C73.8201 30.9499 69.8701 32.5199 66.0101 34.2099C60.2901 36.6999 54.7801 39.3899 49.4801 42.2999L44.8001 29.8099C43.8501 27.2199 42.1201 24.9899 39.8501 23.4199C37.5801 21.8499 34.8801 21.0199 32.1201 21.0299C29.3601 21.0199 26.6701 21.8499 24.4001 23.4199C22.1301 24.9899 20.4001 27.2199 19.4501 29.8099L0.110107 81.3099H16.0201C32.6901 62.2599 52.5901 45.6299 80.2401 34.0099C83.8201 32.5299 81.6501 28.1199 77.8701 29.4799ZM38.2101 48.9699C32.2501 52.7699 26.5101 56.8999 21.0201 61.3399L31.2001 34.2199C31.2701 34.0299 31.4401 33.5899 32.1101 33.5899C32.7801 33.5899 32.9501 34.0399 33.0201 34.2199L38.4901 48.7799L38.2101 48.9599V48.9699Z" fill="white"/>
<path fill-rule="evenodd" clip-rule="evenodd" d="M99.94 24.7002C100.08 25.1402 99.97 25.6102 99.64 25.9302L96.72 28.7802C96.59 28.9002 96.54 29.0802 96.57 29.2502L97.26 33.2802C97.32 33.6302 97.23 33.9802 97 34.2502C96.77 34.5202 96.43 34.6802 96.08 34.6802C95.89 34.6802 95.7 34.6402 95.53 34.5402L91.91 32.6402C91.76 32.5602 91.57 32.5602 91.42 32.6402L87.81 34.5402C87.31 34.8002 86.7 34.6702 86.34 34.2502C86.11 33.9802 86.02 33.6302 86.08 33.2802L86.77 29.2502C86.8 29.0802 86.75 28.9002 86.62 28.7802L83.7 25.9302C83.37 25.6102 83.26 25.1402 83.4 24.7002C83.54 24.2602 83.91 23.9502 84.36 23.8902L88.4 23.3002C88.57 23.2702 88.72 23.1702 88.8 23.0102L90.61 19.3502C90.81 18.9402 91.23 18.6802 91.68 18.6802C92.13 18.6802 92.55 18.9402 92.75 19.3502L94.56 23.0102C94.64 23.1702 94.79 23.2702 94.96 23.3002L99 23.8902C99.45 23.9502 99.82 24.2702 99.96 24.7002H99.94ZM80.3 34.3402C52.35 46.0602 32.92 62.0902 16.07 81.3002H14.16L0 81.3102C3.68 77.1802 7.6 73.1502 11.79 69.2602C26.86 55.2702 45.28 43.0502 66.6 33.8102C70.5 32.1102 73.69 30.7702 77.78 29.2902C81.6 27.9202 83.93 32.8502 80.31 34.3402H80.3Z" fill="white"/>
<path fill-rule="evenodd" clip-rule="evenodd" d="M99.94 24.7002C100.08 25.1402 99.97 25.6102 99.64 25.9302L96.72 28.7802C96.59 28.9002 96.54 29.0802 96.57 29.2502L97.26 33.2802C97.32 33.6302 97.23 33.9802 97 34.2502C96.77 34.5202 96.43 34.6802 96.08 34.6802C95.89 34.6802 95.7 34.6402 95.53 34.5402L91.91 32.6402C91.76 32.5602 91.57 32.5602 91.42 32.6402L87.81 34.5402C87.31 34.8002 86.7 34.6702 86.34 34.2502C86.11 33.9802 86.02 33.6302 86.08 33.2802L86.77 29.2502C86.8 29.0802 86.75 28.9002 86.62 28.7802L83.7 25.9302C83.37 25.6102 83.26 25.1402 83.4 24.7002C83.54 24.2602 83.91 23.9502 84.36 23.8902L88.4 23.3002C88.57 23.2702 88.72 23.1702 88.8 23.0102L90.61 19.3502C90.81 18.9402 91.23 18.6802 91.68 18.6802C92.13 18.6802 92.55 18.9402 92.75 19.3502L94.56 23.0102C94.64 23.1702 94.79 23.2702 94.96 23.3002L99 23.8902C99.45 23.9502 99.82 24.2702 99.96 24.7002H99.94ZM80.3 34.3402C52.35 46.0602 32.92 62.0902 16.07 81.3002H14.16L0 81.3102C3.68 77.1802 7.6 73.1502 11.79 69.2602C26.86 55.2702 45.28 43.0502 66.6 33.8102C70.5 32.1102 73.69 30.7702 77.78 29.2902C81.6 27.9202 83.93 32.8502 80.31 34.3402H80.3Z" fill="white"/>
</svg>
