<svg width="160" height="80" viewBox="0 0 160 80" fill="none" xmlns="http://www.w3.org/2000/svg">
<path d="M52.09 74.1492V74.6392C52.09 76.2392 53.53 77.5392 55.3 77.5392H68.17C68.78 77.5392 69.28 77.9892 69.28 78.5392V79.2992C69.28 79.4792 69.12 79.6292 68.91 79.6292H55.48C52.42 79.6292 49.95 77.3992 49.95 74.6392V74.1492C49.95 71.3892 52.43 69.1592 55.48 69.1592H68.91C69.11 69.1592 69.28 69.3092 69.28 69.4892V70.2492C69.28 70.7992 68.79 71.2492 68.17 71.2492H55.3C53.53 71.2492 52.09 72.5492 52.09 74.1492Z" fill="#E8E8E8"/>
<path d="M91.54 69.1494H92.21C92.42 69.1494 92.58 69.2994 92.58 69.4794V78.6594C92.58 79.2094 92.08 79.6594 91.47 79.6594H90.8C90.59 79.6594 90.43 79.5094 90.43 79.3294V75.6194C90.43 75.5294 90.35 75.4494 90.24 75.4494H75.5C75.4 75.4494 75.31 75.5194 75.31 75.6194V78.6594C75.31 79.2094 74.81 79.6594 74.2 79.6594H73.53C73.32 79.6594 73.16 79.5094 73.16 79.3294V70.1494C73.16 69.5994 73.66 69.1494 74.27 69.1494H74.94C75.15 69.1494 75.31 69.2994 75.31 69.4794V73.1894C75.31 73.2794 75.39 73.3594 75.5 73.3594H90.24C90.34 73.3594 90.43 73.2894 90.43 73.1894V70.1494C90.43 69.5994 90.93 69.1494 91.54 69.1494Z" fill="#E8E8E8"/>
<path d="M45.04 69.1689H45.71C45.91 69.1689 46.08 69.3189 46.08 69.4989V78.6289C46.08 79.1789 45.59 79.6289 44.97 79.6289H44.3C44.1 79.6289 43.93 79.479 43.93 79.299V70.1689C43.93 69.6189 44.42 69.1689 45.04 69.1689Z" fill="#E8E8E8"/>
<path d="M38.36 79.019C38.41 79.349 38.13 79.629 37.77 79.629H36.8C36.32 79.629 35.85 79.489 35.46 79.219L30.67 75.889C30.29 75.619 29.82 75.479 29.33 75.479H21.53C21.43 75.479 21.35 75.549 21.35 75.639V78.629C21.35 79.179 20.86 79.619 20.25 79.619H19.58C19.38 79.619 19.21 79.469 19.21 79.289V74.559C19.21 74.009 19.7 73.569 20.31 73.569H35.08C35.73 73.569 36.25 73.089 36.23 72.499C36.21 71.929 35.66 71.329 35.03 71.329H20.31C19.71 71.329 19.21 70.889 19.21 70.339V69.579C19.21 69.399 19.37 69.249 19.58 69.249H34.91C36.85 69.249 38.42 70.869 38.36 72.629C38.29 74.309 36.7 75.459 34.83 75.459H33.85C33.75 75.459 33.71 75.569 33.79 75.619L38.11 78.619C38.24 78.709 38.34 78.839 38.36 78.989V79.019Z" fill="#E8E8E8"/>
<path d="M117.93 76.7695C117.89 78.5195 116.25 79.8895 114.31 79.8895H101.94C100 79.8895 98.35 78.5095 98.32 76.7695C98.3 75.8795 98.69 74.9095 99.32 74.3195C98.77 73.7195 98.46 73.1095 98.52 72.2495C98.64 70.5595 100.25 69.2695 102.12 69.2695H114.15C116.03 69.2695 117.64 70.5595 117.75 72.2495C117.81 73.0995 117.5 73.7195 116.95 74.3195C117.58 74.9095 117.97 75.8795 117.95 76.7695H117.93ZM115.75 76.7295C115.77 76.1295 115.24 75.4695 114.57 75.4695H101.67C101.01 75.4695 100.47 76.1295 100.49 76.7295C100.51 77.3095 101.07 77.7595 101.72 77.7595C117.22 77.7595 98.65 77.7595 114.53 77.7595C115.18 77.7595 115.74 77.3095 115.76 76.7295H115.75ZM100.67 72.4195C100.65 73.0195 101.18 73.5195 101.85 73.5195H114.38C115.04 73.5195 115.58 73.0295 115.56 72.4195C115.54 71.8395 114.98 71.3895 114.33 71.3895H101.9C101.25 71.3895 100.69 71.8395 100.67 72.4195Z" fill="#E8E8E8"/>
<path d="M139.73 76.7695C139.69 78.5195 138.05 79.8895 136.11 79.8895H123.74C121.8 79.8895 120.15 78.5095 120.12 76.7695C120.1 75.8795 120.49 74.9095 121.12 74.3195C120.57 73.7195 120.26 73.1095 120.32 72.2495C120.44 70.5595 122.05 69.2695 123.92 69.2695H135.95C137.83 69.2695 139.44 70.5595 139.55 72.2495C139.61 73.0995 139.3 73.7195 138.75 74.3195C139.38 74.9095 139.77 75.8795 139.75 76.7695H139.73ZM137.55 76.7295C137.57 76.1295 137.04 75.4695 136.37 75.4695H123.47C122.81 75.4695 122.27 76.1295 122.29 76.7295C122.31 77.3095 122.87 77.7595 123.52 77.7595C139.02 77.7595 120.45 77.7595 136.33 77.7595C136.98 77.7595 137.54 77.3095 137.56 76.7295H137.55ZM122.48 72.4195C122.46 73.0195 122.99 73.5195 123.66 73.5195H136.19C136.85 73.5195 137.39 73.0295 137.37 72.4195C137.35 71.8395 136.79 71.3895 136.14 71.3895H123.71C123.06 71.3895 122.5 71.8395 122.48 72.4195Z" fill="#E8E8E8"/>
<path d="M133.49 28.1191L131.36 26.9291L133.04 25.5191C136.45 22.6391 138.34 18.7991 138.37 14.7091C138.4 10.9291 136.82 7.35914 133.93 4.63914C130.83 1.71914 126.62 0.119141 122.08 0.119141C112.82 0.119141 105.24 6.83914 105.19 15.0991C105.16 19.1091 106.94 22.8591 110.21 25.6391L111.04 26.2491C111.04 26.2491 98.45 31.1891 98.45 44.5391H107.62C107.62 39.3691 111.31 33.0991 121 33.0991C124.48 33.0991 128.34 34.4091 130.77 36.6991C133.09 38.8891 134.36 41.7391 134.34 44.7291C134.3 50.9291 128.64 55.9791 121.72 55.9791C120.89 55.9791 120.07 55.9091 119.27 55.7691C117.64 55.4791 116 56.1891 115.08 57.4891C113.34 59.9391 114.92 63.2291 118.01 63.6791C119.09 63.8391 120.18 63.9191 121.26 63.9191C133.46 63.9191 143.44 55.1391 143.51 44.3491C143.55 37.7291 139.81 31.6691 133.5 28.1291L133.49 28.1191ZM121.92 22.8091C119.55 22.8091 117.33 21.9391 115.66 20.3591C114.03 18.8291 113.14 16.8191 113.15 14.7091C113.18 10.4591 116.97 6.98914 121.61 6.98914C123.98 6.98914 126.2 7.85914 127.88 9.43914C129.51 10.9691 130.4 12.9791 130.38 15.0891C130.35 19.3391 126.55 22.8091 121.92 22.8091Z" fill="url(#paint0_linear_9302_59)"/>
<path d="M85.35 63.9096C77.16 63.9096 68.54 59.2996 65.12 51.4696C64.16 49.2596 63.74 46.9496 63.75 44.7196C63.79 37.9896 67.71 31.7996 74.23 28.1696L76.07 27.1396L74.29 25.6196C71.03 22.8296 69.24 19.0896 69.27 15.0796C69.32 6.81961 76.9 0.0996094 86.16 0.0996094C90.7 0.0996094 94.91 1.70961 98.01 4.61961C100.9 7.33961 102.47 10.9196 102.45 14.6896C102.42 18.7796 100.53 22.6196 97.12 25.4996L95.44 26.9096L97.57 28.0996C103.88 31.6396 107.63 37.6996 107.58 44.3196C107.51 55.1096 97.53 63.8896 85.33 63.8896L85.35 63.9096ZM85.55 33.0896C80.98 33.0896 76.76 35.2996 74.54 38.8696C73.57 40.4296 71.72 47.5196 76.71 52.5696C79.21 54.7796 82.42 55.9696 85.81 55.9696C92.73 55.9696 98.39 50.9196 98.43 44.7196C98.45 41.7296 97.18 38.8796 94.86 36.6896C92.43 34.4096 89.04 33.0896 85.56 33.0896H85.55ZM85.72 6.98961C81.08 6.98961 77.28 10.4496 77.26 14.7096C77.25 16.8196 78.14 18.8296 79.77 20.3596C81.44 21.9396 83.67 22.8096 86.03 22.8096C90.67 22.8096 94.47 19.3496 94.49 15.0896C94.5 12.9796 93.61 10.9696 91.99 9.43961C90.32 7.85961 88.09 6.98961 85.72 6.98961Z" fill="url(#paint1_linear_9302_59)"/>
<path d="M24.74 62.1401C29.2908 62.1401 32.98 58.7688 32.98 54.6101C32.98 50.4514 29.2908 47.0801 24.74 47.0801C20.1892 47.0801 16.5 50.4514 16.5 54.6101C16.5 58.7688 20.1892 62.1401 24.74 62.1401Z" fill="url(#paint2_linear_9302_59)"/>
<path d="M56.29 62.9294C53.87 62.9294 51.74 61.5494 50.86 59.4094L38.38 29.1694H43.21V29.1494C48.67 28.8894 53.02 24.7494 53.02 19.6994C53.02 14.6494 48.37 10.2294 42.66 10.2294H29.59V42.5194C28.1 41.7994 26.44 41.4094 24.73 41.4094C23.02 41.4094 21.29 41.8094 19.77 42.5694V1.35938H42.65C53.76 1.35938 62.79 9.58938 62.79 19.6994C62.79 26.7394 58.46 33.0394 51.5 36.1494L51.03 36.3594L62.04 62.9194H56.29V62.9294Z" fill="url(#paint3_linear_9302_59)"/>
<defs>
<linearGradient id="paint0_linear_9302_59" x1="146.14" y1="11.9891" x2="91.85" y2="58.4891" gradientUnits="userSpaceOnUse">
<stop stop-color="#FFD76E"/>
<stop offset="0.47" stop-color="#FF3DFF"/>
<stop offset="0.85" stop-color="#A800FF"/>
</linearGradient>
<linearGradient id="paint1_linear_9302_59" x1="122.48" y1="9.15961" x2="57.68" y2="64.6796" gradientUnits="userSpaceOnUse">
<stop stop-color="#FFD76E"/>
<stop offset="0.21" stop-color="#FF3DFF"/>
<stop offset="0.87" stop-color="#A800FF"/>
</linearGradient>
<linearGradient id="paint2_linear_9302_59" x1="32.89" y1="42.8701" x2="18.13" y2="64.1301" gradientUnits="userSpaceOnUse">
<stop stop-color="#FFD83D"/>
<stop offset="0.22" stop-color="#FFD33D"/>
<stop offset="0.47" stop-color="#FFC440"/>
<stop offset="0.74" stop-color="#FFAD45"/>
<stop offset="0.84" stop-color="#FFA347"/>
</linearGradient>
<linearGradient id="paint3_linear_9302_59" x1="78.23" y1="4.99938" x2="20.89" y2="46.7094" gradientUnits="userSpaceOnUse">
<stop stop-color="#FF3DFF"/>
<stop offset="0.15" stop-color="#FA3DFF"/>
<stop offset="0.32" stop-color="#EB3EFF"/>
<stop offset="0.5" stop-color="#D440FF"/>
<stop offset="0.69" stop-color="#B343FF"/>
<stop offset="0.84" stop-color="#9347FF"/>
</linearGradient>
</defs>
</svg>
