<svg width="160" height="80" viewBox="0 0 160 80" fill="none" xmlns="http://www.w3.org/2000/svg">
<path d="M67.89 52.5902L66.14 47.1402H56.63L54.86 52.5902H47.28L57.46 24.4102H65.8L75.93 52.5902H67.87H67.89ZM58.46 41.3502H64.32L61.43 32.3102H61.36L58.47 41.3502H58.46Z" fill="white"/>
<path d="M142.45 52.5902L140.7 47.1402H131.19L129.42 52.5902H121.84L132.02 24.4102H140.36L150.49 52.5902H142.43H142.45ZM133.02 41.3502H138.88L135.99 32.3102H135.92L133.03 41.3502H133.02Z" fill="white"/>
<path d="M98.75 26.4899H112.61V28.2099C112.61 32.3599 111.34 35.6999 108.8 38.2499C106.26 40.7999 102.94 42.0699 98.81 42.0699C94.4 42.0699 90.84 40.7499 88.16 38.0999C85.46 35.4599 84.12 31.9499 84.12 27.6099C84.12 23.2699 85.46 19.7799 88.16 17.1399C90.84 14.4999 94.4 13.1699 98.81 13.1699C102.65 13.1699 105.81 14.1499 108.3 16.1399C110.78 18.1199 112.14 20.7499 112.39 23.9999H105.1C104.96 22.5299 104.31 21.3599 103.15 20.4599C101.99 19.5699 100.54 19.1199 98.81 19.1199C96.79 19.1199 95.15 19.9099 93.91 21.4599C92.66 23.0299 92.03 25.0899 92.03 27.6199C92.03 30.1499 92.66 32.2099 93.91 33.7699C95.14 35.3199 96.79 36.1099 98.81 36.1099C100.42 36.1099 101.76 35.6799 102.85 34.8199C103.94 33.9599 104.64 32.7999 104.96 31.3399H98.74V26.4799L98.75 26.4899Z" fill="white"/>
<path d="M30.55 13.2803H37.8V41.4603H30.69L20.11 24.9903H20.04L20.27 41.4603H13.02V13.2803H20.11L30.69 29.7903H30.76L30.55 13.2803Z" fill="white"/>
<path d="M23.89 48.5097L23.07 47.2197H13.03V48.5097H23.89Z" fill="#C8202D"/>
<path d="M25.2 50.5498L24.37 49.2598H13.03V50.5498H25.2Z" fill="white"/>
<path d="M22.58 46.4697L21.76 45.1797H13.03V46.4697H22.58Z" fill="#C8202D"/>
<path d="M26.5 52.5898L25.68 51.2998H13.03V52.5898H26.5Z" fill="white"/>
<path d="M21.27 44.4296L20.45 43.1396H13.03V44.4296H21.27Z" fill="white"/>
<path d="M30.56 43.1396L30.58 44.4296H37.81V43.1396H30.56Z" fill="white"/>
<path d="M30.59 45.1797L30.6 46.4697H37.81V45.1797H30.59Z" fill="#C8202D"/>
<path d="M30.61 47.2197L30.63 48.5097H37.81V47.2197H30.61Z" fill="#C8202D"/>
<path d="M30.64 49.2598L30.66 50.5498H37.81V49.2598H30.64Z" fill="white"/>
<path d="M37.81 51.2998H30.67L30.68 52.5898H37.81V51.2998Z" fill="white"/>
<path d="M112.04 51.2998H104.53C104.72 51.6998 104.86 52.1298 104.95 52.5898H112.26C112.21 52.1498 112.14 51.7198 112.04 51.2998Z" fill="white"/>
<path d="M92.67 52.5898C92.85 52.1298 93.07 51.7098 93.32 51.2998H84.89C84.75 51.7198 84.61 52.1398 84.51 52.5898H92.67Z" fill="white"/>
<path d="M88.08 46.2297C88 46.3097 87.93 46.3897 87.86 46.4597H109.54C109.14 46.0197 108.7 45.6097 108.22 45.2297C108.2 45.2097 108.17 45.1997 108.15 45.1797H89.31C88.88 45.4997 88.47 45.8497 88.08 46.2297Z" fill="#5DBA47"/>
<path d="M85.78 49.2598C85.55 49.6698 85.35 50.0998 85.17 50.5498H93.84C94.25 50.0398 94.7 49.6098 95.2 49.2598H85.78Z" fill="white"/>
<path d="M93.55 43.1396C92.43 43.4496 91.4 43.8696 90.44 44.4296H107.04C106.11 43.8696 105.1 43.4496 104.01 43.1396H93.55Z" fill="#5DBA47"/>
<path d="M102.65 49.26C102.79 49.35 102.93 49.45 103.07 49.55C103.46 49.85 103.79 50.18 104.06 50.54H111.84C111.71 50.1 111.55 49.67 111.37 49.25H102.65V49.26Z" fill="white"/>
<path d="M87.18 47.2197C86.84 47.6297 86.52 48.0597 86.23 48.5097H96.75C97.36 48.3197 98.02 48.2197 98.73 48.2197C99.53 48.2197 100.27 48.3197 100.95 48.5097H111C110.76 48.0597 110.48 47.6297 110.17 47.2197H87.18Z" fill="white"/>
<path d="M19.85 72.7198H26.32V73.5198C26.32 75.4598 25.73 77.0198 24.54 78.2098C23.36 79.3998 21.8 79.9998 19.88 79.9998C17.82 79.9998 16.16 79.3798 14.91 78.1498C13.65 76.9198 13.02 75.2798 13.02 73.2498C13.02 71.2198 13.65 69.5998 14.91 68.3598C16.16 67.1298 17.82 66.5098 19.88 66.5098C21.67 66.5098 23.15 66.9698 24.31 67.8898C25.47 68.8198 26.1 70.0398 26.22 71.5598H22.82C22.75 70.8798 22.45 70.3298 21.91 69.9098C21.37 69.4898 20.69 69.2798 19.88 69.2798C18.94 69.2798 18.17 69.6498 17.59 70.3698C17.01 71.0998 16.71 72.0598 16.71 73.2498C16.71 74.4398 17 75.3898 17.59 76.1198C18.17 76.8498 18.93 77.2098 19.88 77.2098C20.63 77.2098 21.26 77.0098 21.77 76.6098C22.28 76.2098 22.6 75.6698 22.75 74.9798H19.85V72.7098V72.7198Z" fill="white"/>
<path d="M52.77 79.8299L51.95 77.2899H47.51L46.68 79.8299H43.14L47.9 66.6699H51.8L56.53 79.8299H52.77ZM48.36 74.5899H51.1L49.75 70.3699H49.72L48.37 74.5899H48.36Z" fill="white"/>
<path d="M82.75 66.6797H87.56V79.8397H83.99L84.11 70.9197H84.08L81.12 79.8397H78.49L75.75 70.9197H75.72L75.85 79.8397H72.46V66.6797H77.28L79.91 75.6197H79.94L82.76 66.6797H82.75Z" fill="white"/>
<path d="M110.78 77.1099H117.5V79.8299H107.21V66.6699H117.29V69.3899H110.78V71.7599H116.68V74.4799H110.78V77.1099Z" fill="white"/>
<path d="M140.7 78.72C139.63 77.88 139.03 76.77 138.91 75.39H142.43C142.49 75.93 142.73 76.37 143.17 76.71C143.61 77.05 144.16 77.22 144.84 77.22C146.07 77.22 146.88 76.7 146.88 75.9C146.88 75.42 146.64 75.1 146.05 74.89C145.76 74.79 145.48 74.71 145.24 74.66C145 74.62 144.64 74.56 144.17 74.49C143.64 74.42 143.19 74.35 142.81 74.27C142.43 74.19 142.01 74.07 141.53 73.89C141.05 73.71 140.65 73.5 140.36 73.24C139.77 72.74 139.28 71.85 139.28 70.73C139.28 69.45 139.78 68.44 140.79 67.66C141.79 66.88 143.11 66.5 144.74 66.5C146.23 66.5 147.47 66.9 148.46 67.71C149.44 68.52 150 69.58 150.13 70.91H146.61C146.58 70.42 146.38 70.03 146.01 69.73C145.63 69.44 145.14 69.29 144.54 69.29C143.56 69.29 142.9 69.75 142.9 70.44C142.9 71.2 143.78 71.46 145.49 71.68C146.02 71.76 146.48 71.84 146.88 71.91C147.26 71.99 147.71 72.13 148.2 72.31C148.69 72.49 149.1 72.71 149.41 72.97C150.03 73.48 150.52 74.36 150.52 75.49C150.52 76.85 149.99 77.93 148.93 78.76C147.87 79.59 146.48 79.99 144.76 79.99C143.13 79.99 141.78 79.56 140.71 78.71L140.7 78.72Z" fill="white"/>
<path d="M7.62 58.4901C8.43 60.0201 9.55 61.4301 13.3 61.4301H146.7C150.45 61.4301 151.57 60.0201 152.38 58.4901C153.19 56.9601 153.51 53.3301 153.51 53.3301H152.87C152.43 55.5101 151.02 56.1101 149.08 56.1101H10.92C8.99 56.1101 7.58 55.5101 7.13 53.3301H6.49C6.49 53.3301 6.81 56.9601 7.62 58.4901Z" fill="white"/>
<path d="M43.89 9.9502H42.6V57.3802H43.89V9.9502Z" fill="white"/>
<path d="M80.65 10.4004H79.36V57.3804H80.65V10.4004Z" fill="white"/>
<path d="M117.4 9.9502H116.11V57.3802H117.4V9.9502Z" fill="white"/>
<path d="M152.38 8.02008C151.57 6.49008 150.45 5.08008 146.7 5.08008H85.08L85.11 5.11008L80 10.2201L74.89 5.11008L74.92 5.08008H13.3C9.55 5.08008 8.43 6.49008 7.62 8.02008C6.81 9.55008 6.49 13.1801 6.49 13.1801H7.13C7.57 11.0001 8.98 10.4001 10.92 10.4001H149.08C151.01 10.4001 152.42 11.0001 152.87 13.1801H153.51C153.51 13.1801 153.19 9.55008 152.38 8.02008Z" fill="white"/>
<path d="M80 0V5.11H85.11L80 0Z" fill="white"/>
<path d="M80 0V5.11H74.89L80 0Z" fill="white"/>
<path d="M49.15 19.5303L48.7 20.8103H56.08L56.47 19.5303H49.15Z" fill="white"/>
<path d="M55.25 23.6104H47.73L47.29 24.8704H54.87L55.25 23.6104Z" fill="white"/>
<path d="M55.47 22.8503L55.86 21.5703H48.44L47.99 22.8503H55.47Z" fill="white"/>
<path d="M51.27 13.4004L50.83 14.6904H72.44L71.99 13.4004H51.27Z" fill="white"/>
<path d="M67.89 24.8704H75.95L75.51 23.6104H67.52L67.89 24.8704Z" fill="white"/>
<path d="M50.56 15.4502L50.12 16.7302H73.14L72.7 15.4502H50.56Z" fill="#DF9E26"/>
<path d="M66.91 21.5703L67.29 22.8503H75.25L74.81 21.5703H66.91Z" fill="white"/>
<path d="M49.86 17.4902L49.41 18.7702H73.85L73.4 17.4902H49.86Z" fill="#DF9E26"/>
<path d="M66.31 19.5303L66.69 20.8103H74.55L74.11 19.5303H66.31Z" fill="white"/>
<path d="M123.71 19.5303L123.26 20.8103H130.65L131.03 19.5303H123.71Z" fill="white"/>
<path d="M129.81 23.6104H122.29L121.85 24.8704H129.43L129.81 23.6104Z" fill="white"/>
<path d="M130.03 22.8503L130.42 21.5703H123L122.56 22.8503H130.03Z" fill="white"/>
<path d="M125.83 13.4004L125.39 14.6904H147L146.55 13.4004H125.83Z" fill="#5B78BB"/>
<path d="M142.45 24.8704H150.51L150.08 23.6104H142.08L142.45 24.8704Z" fill="white"/>
<path d="M125.13 15.4502L124.68 16.7302H147.7L147.26 15.4502H125.13Z" fill="#5B78BB"/>
<path d="M141.48 21.5703L141.86 22.8503H149.82L149.37 21.5703H141.48Z" fill="white"/>
<path d="M124.42 17.4902L123.97 18.7702H148.41L147.96 17.4902H124.42Z" fill="white"/>
<path d="M140.87 19.5303L141.25 20.8103H149.11L148.67 19.5303H140.87Z" fill="white"/>
</svg>
